<svg width="60" height="65" viewBox="0 0 60 65" version="1.1" xmlns="http://www.w3.org/2000/svg" xmlns:xlink="http://www.w3.org/1999/xlink">
<title>Group</title>
<desc>Created using Figma</desc>
<g id="Canvas" transform="translate(-14535 -1174)">
<g id="Group">
<g id="Group">
<g id="Vector">
<use xlink:href="#path0_stroke" transform="translate(14540 1175)" fill="#174F9F"/>
</g>
</g>
<g id="mask">
<g id="Vector">
<mask id="mask0_outline_ins">
<use xlink:href="#path1_fill" fill="white" transform="translate(14535 1184)"/>
</mask>
<g mask="url(#mask0_outline_ins)">
<use xlink:href="#path2_stroke_2x" transform="translate(14535 1184)" fill="#174E9E"/>
</g>
</g>
</g>
</g>
</g>
<defs>
<path id="path0_stroke" d="M 28.1139 62.6279L 28.2844 63.0981L 28.294 63.0943L 28.1139 62.6279ZM 21.8861 62.6279L 21.7036 63.0935L 21.7096 63.0957L 21.8861 62.6279ZM 25 0.5C 33.1396 0.497929 39.3131 1.63566 43.4859 2.97675C 45.5602 3.64197 47.0958 4.34164 48.1337 4.98179C 48.6437 5.29497 48.9952 5.56637 49.237 5.81944C 49.4857 6.07785 49.5 6.20125 49.5 6.1964L 50.5 6.1964C 50.5 5.79322 50.2446 5.42422 49.9574 5.12593C 49.6633 4.82229 49.2127 4.47267 48.6579 4.13024C 47.5662 3.45919 45.9211 2.70934 43.7917 2.02464C 39.557 0.665863 33.2305 -0.497929 25 -0.5L 25 0.5ZM 49.5 32.5754C 49.5 35.6868 47.8518 41.6501 44.2998 47.577C 40.7478 53.509 35.3956 59.2929 27.9337 62.1615L 28.294 63.0943C 35.9567 60.1206 41.5476 54.1093 45.1575 48.0911C 48.7674 42.0677 50.5 35.9259 50.5 32.5754L 49.5 32.5754ZM 22.0687 62.1624C 14.6055 59.2494 9.25194 53.4644 5.69981 47.5542C 2.14743 41.6487 0.5 35.73 0.5 32.6639L -0.5 32.6639C -0.5 35.9713 1.23335 42.0691 4.8429 48.0696C 8.45269 54.0654 14.0422 60.0757 21.7036 63.0934L 22.0687 62.1624ZM 0.5 6.1964C 0.5 6.20125 0.514262 6.07785 0.763012 5.81944C 1.00478 5.56637 1.35631 5.29497 1.86634 4.98179C 2.90424 4.34164 4.43976 3.64197 6.51408 2.97675C 10.6869 1.63566 16.8604 0.497929 25 0.5L 25 -0.5C 16.7695 -0.497929 10.443 0.665863 6.20834 2.02464C 4.07892 2.70934 2.43384 3.45919 1.34206 4.13024C 0.787259 4.47267 0.336689 4.82229 0.0425651 5.12593C -0.244578 5.42422 -0.5 5.79322 -0.5 6.1964L 0.5 6.1964ZM 21.7096 63.0957C 22.9728 63.5712 24.0188 63.8075 25.0253 63.8033C 26.0324 63.7923 27.0571 63.5424 28.2844 63.098L 27.9434 62.1579C 26.7664 62.5856 25.9081 62.8001 25.0178 62.8033C 24.1269 62.8134 23.2612 62.6136 22.0626 62.1601L 21.7096 63.0957ZM 0.5 32.6639L 0.5 28L -0.5 28L -0.5 32.6639L 0.5 32.6639ZM 0.5 9.5L 0.5 6.1964L -0.5 6.1964L -0.5 9.5L 0.5 9.5ZM 49.5 6.1964L 49.5 9.5L 50.5 9.5L 50.5 6.1964L 49.5 6.1964ZM 49.5 28L 49.5 32.5754L 50.5 32.5754L 50.5 28L 49.5 28Z"/>
<path id="path1_fill" d="M 59.8005 8.24794C 59.6324 7.61113 59.0106 7.20356 58.3588 7.30121C 57.7873 7.38683 57.2131 7.4253 56.6367 7.4253C 57.1675 4.83783 57.0237 2.39101 55.9703 0.628347C 55.6324 0.0631508 54.9217 -0.156616 54.3224 0.117795C 47.4602 3.25863 37.9367 -1.14852 32.0569 3.54764C 31.2871 4.16235 30.6047 4.77845 30.0001 5.39355C 29.3952 4.77825 28.713 4.16235 27.9433 3.54764C 22.0632 -1.14852 12.5396 3.25863 5.67751 0.117598C 5.07841 -0.156616 4.36754 0.0629521 4.02968 0.628148C 2.97621 2.39081 2.83246 4.83763 3.36324 7.4251C 2.78684 7.4251 2.21262 7.38683 1.64116 7.30102C 0.989332 7.20337 0.367322 7.61094 0.199478 8.24775C -1.30934 13.9692 6.00609 23.0624 13.1993 24.5696C 17.0261 25.3715 22.2698 24.2611 26.2666 22.1143C 26.8251 24.3625 27.6538 27.7513 28.3896 30.7392C 28.5718 31.4794 29.2361 31.9998 29.9991 32C 30.7621 32.0004 31.4281 31.4808 31.6104 30.7406C 32.3461 27.7524 33.1751 24.3626 33.7335 22.1143C 37.7306 24.2611 42.974 25.3713 46.8009 24.5696C 53.9939 23.0624 61.3095 13.9693 59.8005 8.24794ZM 24.011 16.4961C 23.8757 16.8458 23.6046 17.1258 23.2595 17.2729C 21.736 17.923 18.9478 18.8788 16.4195 18.4947C 11.8992 17.8081 10.5764 14.775 10.1894 13.0585C 10.0339 12.3696 10.4204 11.6729 11.088 11.4411C 12.394 10.9877 14.7442 10.3844 17.2015 10.7906C 21.5155 11.504 23.28 13.894 23.9782 15.416C 24.1344 15.7569 24.1463 16.1463 24.011 16.4961ZM 49.8106 13.0585C 49.4236 14.775 48.1006 17.8081 43.5804 18.4947C 41.0521 18.8788 38.2639 17.923 36.7405 17.2729C 36.3953 17.1258 36.1242 16.8456 35.9889 16.4961C 35.8537 16.1463 35.8655 15.7569 36.0219 15.4162C 36.7202 13.8942 38.4847 11.5042 42.7987 10.7908C 45.2557 10.3846 47.6061 10.9881 48.9121 11.4413C 49.5798 11.6729 49.966 12.3696 49.8106 13.0585Z"/>
<path id="path2_stroke_2x" d="M 59.8005 8.24794L 60.7674 7.99291L 60.7674 7.99279L 59.8005 8.24794ZM 58.3588 7.30121L 58.2106 6.31225L 58.2106 6.31225L 58.3588 7.30121ZM 56.6367 7.4253L 55.6571 7.22435L 55.4108 8.4253L 56.6367 8.4253L 56.6367 7.4253ZM 55.9703 0.628347L 56.8287 0.115331L 56.8286 0.115257L 55.9703 0.628347ZM 54.3224 0.117795L 54.7386 1.02708L 54.7388 1.02701L 54.3224 0.117795ZM 32.0569 3.54764L 32.6809 4.32903L 32.6809 4.32901L 32.0569 3.54764ZM 30.0001 5.39355L 29.2869 6.09457L 30.0001 6.82007L 30.7132 6.09456L 30.0001 5.39355ZM 27.9433 3.54764L 27.3192 4.32902L 27.3193 4.32903L 27.9433 3.54764ZM 5.67751 0.117598L 6.09372 -0.791671L 6.09369 -0.791682L 5.67751 0.117598ZM 4.02968 0.628148L 3.17134 0.115058L 3.1713 0.115132L 4.02968 0.628148ZM 3.36324 7.4251L 3.36324 8.4251L 4.5892 8.4251L 4.34284 7.22415L 3.36324 7.4251ZM 1.64116 7.30102L 1.78966 6.31211L 1.78932 6.31205L 1.64116 7.30102ZM 0.199478 8.24775L 1.16642 8.50274L 1.16645 8.50261L 0.199478 8.24775ZM 13.1993 24.5696L 13.4044 23.5908L 13.4044 23.5908L 13.1993 24.5696ZM 26.2666 22.1143L 27.2371 21.8732L 26.927 20.6245L 25.7935 21.2333L 26.2666 22.1143ZM 28.3896 30.7392L 29.3606 30.5001L 29.3606 30.5001L 28.3896 30.7392ZM 29.9991 32L 29.9996 31L 29.9993 31L 29.9991 32ZM 31.6104 30.7406L 32.5814 30.9797L 32.5814 30.9797L 31.6104 30.7406ZM 33.7335 22.1143L 34.2067 21.2333L 33.0732 20.6245L 32.763 21.8732L 33.7335 22.1143ZM 46.8009 24.5696L 47.0059 25.5483L 47.0059 25.5483L 46.8009 24.5696ZM 23.2595 17.2729L 22.8673 16.3531L 22.867 16.3532L 23.2595 17.2729ZM 16.4195 18.4947L 16.5697 17.506L 16.5697 17.506L 16.4195 18.4947ZM 10.1894 13.0585L 11.1649 12.8386L 11.1648 12.8385L 10.1894 13.0585ZM 11.088 11.4411L 10.7601 10.4964L 10.76 10.4964L 11.088 11.4411ZM 17.2015 10.7906L 17.3646 9.80403L 17.3646 9.80402L 17.2015 10.7906ZM 23.9782 15.416L 24.8873 14.9994L 24.8871 14.999L 23.9782 15.416ZM 49.8106 13.0585L 48.8351 12.8385L 48.8351 12.8386L 49.8106 13.0585ZM 43.5804 18.4947L 43.4303 17.506L 43.4302 17.506L 43.5804 18.4947ZM 36.7405 17.2729L 37.1329 16.3532L 37.1327 16.3531L 36.7405 17.2729ZM 35.9889 16.4961L 35.0563 16.8567L 35.0563 16.8569L 35.9889 16.4961ZM 36.0219 15.4162L 36.9307 15.8334L 36.9308 15.8331L 36.0219 15.4162ZM 42.7987 10.7908L 42.6356 9.80422L 42.6355 9.80423L 42.7987 10.7908ZM 48.9121 11.4413L 48.5844 12.386L 48.5844 12.386L 48.9121 11.4413ZM 60.7674 7.99279C 60.4686 6.86065 59.3647 6.13936 58.2106 6.31225L 58.507 8.29018C 58.6565 8.26777 58.7962 8.36162 58.8336 8.50309L 60.7674 7.99279ZM 58.2106 6.31225C 57.6797 6.39264 57.1797 6.42586 56.6367 6.4253L 56.6367 8.4253C 57.2466 8.42474 57.8949 8.38103 58.507 8.29018L 58.2106 6.31225ZM 57.6163 7.62625C 58.1717 4.9188 58.0634 2.18123 56.8287 0.115331L 55.1119 1.14136C 55.9841 2.60079 56.1633 4.75686 55.6571 7.22435L 57.6163 7.62625ZM 56.8286 0.115257C 56.2281 -0.889289 54.9675 -1.27741 53.9061 -0.791424L 54.7388 1.02701C 54.876 0.964177 55.0367 1.01559 55.1119 1.14144L 56.8286 0.115257ZM 53.9063 -0.791488C 50.7402 0.657606 46.9353 0.375478 42.852 0.249943C 38.9183 0.129008 34.697 0.159222 31.4328 2.76627L 32.6809 4.32901C 35.2966 2.2399 38.7769 2.12561 42.7905 2.249C 46.6545 2.36779 51.0424 2.71882 54.7386 1.02708L 53.9063 -0.791488ZM 31.4328 2.76625C 30.6398 3.40018 29.9128 4.05649 29.2869 4.69255L 30.7132 6.09456C 31.2966 5.5004 31.9345 4.92453 32.6809 4.32903L 31.4328 2.76625ZM 30.7132 4.69254C 30.0872 4.05629 29.3604 3.40017 28.5673 2.76625L 27.3193 4.32903C 28.0656 4.92453 28.7033 5.50021 29.2869 6.09457L 30.7132 4.69254ZM 28.5674 2.76626C 25.3031 0.159225 21.0817 0.129007 17.1479 0.249918C 13.0646 0.375428 9.25966 0.657505 6.09372 -0.791671L 5.2613 1.02687C 8.95741 2.71872 13.3454 2.36774 17.2094 2.24897C 21.223 2.12561 24.7034 2.2399 27.3192 4.32902L 28.5674 2.76626ZM 6.09369 -0.791682C 5.03283 -1.27725 3.77197 -0.889708 3.17134 0.115058L 4.88801 1.14124C 4.96311 1.01561 5.12399 0.964016 5.26133 1.02688L 6.09369 -0.791682ZM 3.1713 0.115132C 1.9366 2.18103 1.82824 4.9186 2.38364 7.62605L 4.34284 7.22415C 3.83667 4.75666 4.01582 2.60059 4.88806 1.14116L 3.1713 0.115132ZM 3.36324 6.4251C 2.82011 6.42566 2.32021 6.39264 1.78966 6.31211L 1.49266 8.28993C 2.10503 8.38103 2.75357 8.42455 3.36324 8.4251L 3.36324 6.4251ZM 1.78932 6.31205C 0.63548 6.13919 -0.468972 6.86026 -0.767498 7.99288L 1.16645 8.50261C 1.20362 8.36162 1.34318 8.26754 1.493 8.28998L 1.78932 6.31205ZM -0.767463 7.99275C -1.64476 11.3194 0.0512708 15.356 2.65501 18.6134C 5.29009 21.91 9.10336 24.7331 12.9942 25.5483L 13.4044 23.5908C 10.102 22.8989 6.66098 20.4218 4.21725 17.3646C 1.74217 14.2682 0.534901 10.8974 1.16642 8.50274L -0.767463 7.99275ZM 12.9942 25.5483C 17.1152 26.4119 22.601 25.2183 26.7398 22.9953L 25.7935 21.2333C 21.9385 23.3038 16.937 24.3311 13.4044 23.5908L 12.9942 25.5483ZM 25.2961 22.3554C 25.8541 24.6018 26.6826 27.9896 27.4186 30.9783L 29.3606 30.5001C 28.625 27.5129 27.796 24.1231 27.2371 21.8732L 25.2961 22.3554ZM 27.4186 30.9783C 27.711 32.1657 28.7762 32.9997 29.9988 33L 29.9993 31C 29.6959 30.9999 29.4327 30.7931 29.3606 30.5001L 27.4186 30.9783ZM 29.9986 33C 31.2198 33.0006 32.2885 32.169 32.5814 30.9797L 30.6394 30.5015C 30.5677 30.7926 30.3044 31.0002 29.9996 31L 29.9986 33ZM 32.5814 30.9797C 33.3173 27.9908 34.146 24.6019 34.704 22.3553L 32.763 21.8732C 32.2041 24.1234 31.375 27.5141 30.6394 30.5015L 32.5814 30.9797ZM 33.2604 22.9953C 37.3994 25.2183 42.8849 26.4117 47.0059 25.5483L 46.5958 23.5908C 43.0631 24.3309 38.0618 23.3038 34.2067 21.2333L 33.2604 22.9953ZM 47.0059 25.5483C 50.8967 24.7331 54.71 21.91 57.345 18.6135C 59.9488 15.3562 61.6448 11.3196 60.7674 7.99291L 58.8335 8.50297C 59.4651 10.8977 58.2579 14.2683 55.7828 17.3647C 53.3391 20.4219 49.898 22.8989 46.5958 23.5908L 47.0059 25.5483ZM 23.0783 16.1354C 23.0407 16.2327 22.965 16.3114 22.8673 16.3531L 23.6517 18.1928C 24.2443 17.9401 24.7108 17.459 24.9437 16.8567L 23.0783 16.1354ZM 22.867 16.3532C 21.3714 16.9913 18.805 17.8456 16.5697 17.506L 16.2693 19.4833C 19.0907 19.9119 22.1006 18.8546 23.6519 18.1927L 22.867 16.3532ZM 16.5697 17.506C 14.5294 17.1961 13.283 16.3744 12.5008 15.4973C 11.6696 14.5927 11.3429 13.6369 11.1649 12.8386L 9.21384 13.2785C 9.42283 14.1966 9.95103 15.6157 11.0081 16.8284C 12.1141 18.0686 13.7893 19.1067 16.2694 19.4833L 16.5697 17.506ZM 11.1648 12.8385C 11.1212 12.6452 11.2299 12.4503 11.416 12.3857L 10.76 10.4964C 9.61083 10.8954 8.94666 12.0941 9.21387 13.2786L 11.1648 12.8385ZM 11.4159 12.3858C 12.6826 11.9452 14.788 11.3835 17.0384 11.7772L 17.3646 9.80402C 14.7005 9.3854 12.1055 10.0302 10.7601 10.4964L 11.4159 12.3858ZM 17.0383 11.7772C 20.9737 12.428 22.4866 14.5628 23.0693 15.833L 24.8871 14.999C 24.0734 13.2251 22.0573 10.58 17.3646 9.80403L 17.0383 11.7772ZM 23.0691 15.8325C 23.1129 15.9282 23.1162 16.0373 23.0783 16.1354L 24.9437 16.8567C 25.1763 16.2553 25.1559 15.5856 24.8873 14.9994L 23.0691 15.8325ZM 48.8351 12.8386C 48.6571 13.6369 48.3303 14.5927 47.4991 15.4972C 46.7169 16.3744 45.4705 17.1961 43.4303 17.506L 43.7306 19.4833C 46.2105 19.1067 47.8857 18.0686 48.9917 16.8284C 50.0489 15.6157 50.5771 14.1967 50.7861 13.2785L 48.8351 12.8386ZM 43.4302 17.506C 41.195 17.8456 38.6285 16.9913 37.1329 16.3532L 36.348 18.1927C 37.8993 18.8546 40.9092 19.9119 43.7306 19.4833L 43.4302 17.506ZM 37.1327 16.3531C 37.0352 16.3115 36.9593 16.2326 36.9216 16.1352L 35.0563 16.8569C 35.2892 17.4587 35.7555 17.9401 36.3483 18.1928L 37.1327 16.3531ZM 36.9216 16.1354C 36.8837 16.0372 36.8871 15.9284 36.9307 15.8334L 35.1131 14.999C 34.8439 15.5853 34.8237 16.2553 35.0563 16.8567L 36.9216 16.1354ZM 36.9308 15.8331C 37.5135 14.563 39.0265 12.4282 42.9618 11.7774L 42.6355 9.80423C 37.9429 10.5802 35.9268 13.2253 35.113 14.9992L 36.9308 15.8331ZM 42.9618 11.7774C 45.212 11.3837 47.3176 11.9456 48.5844 12.386L 49.2399 10.4965C 47.8946 10.0306 45.2994 9.3856 42.6356 9.80422L 42.9618 11.7774ZM 48.5844 12.386C 48.7699 12.4504 48.8788 12.6449 48.8351 12.8385L 50.7861 13.2786C 51.0532 12.0944 50.3896 10.8953 49.2399 10.4965L 48.5844 12.386Z"/>
</defs>
</svg>
