<svg width="60" height="60" viewBox="0 0 60 60" version="1.1" xmlns="http://www.w3.org/2000/svg" xmlns:xlink="http://www.w3.org/1999/xlink">
<title>Group</title>
<desc>Created using Figma</desc>
<g id="Canvas" transform="translate(-13502 -1166)">
<g id="Group">
<g id="Rectangle 21">
<mask id="mask0_outline_ins">
<use xlink:href="#path0_fill" fill="white" transform="translate(13502 1209.64)"/>
</mask>
<g mask="url(#mask0_outline_ins)">
<use xlink:href="#path1_stroke_2x" transform="translate(13502 1209.64)" fill="#174F9F"/>
</g>
</g>
<g id="Rectangle 21">
<mask id="mask1_outline_ins">
<use xlink:href="#path2_fill" fill="white" transform="translate(13523.8 1182.36)"/>
</mask>
<g mask="url(#mask1_outline_ins)">
<use xlink:href="#path3_stroke_2x" transform="translate(13523.8 1182.36)" fill="#174F9F"/>
</g>
</g>
<g id="Rectangle 21">
<mask id="mask2_outline_ins">
<use xlink:href="#path4_fill" fill="white" transform="translate(13545.6 1193.27)"/>
</mask>
<g mask="url(#mask2_outline_ins)">
<use xlink:href="#path5_stroke_2x" transform="translate(13545.6 1193.27)" fill="#174F9F"/>
</g>
</g>
<g id="Star">
<mask id="mask3_outline_ins">
<use xlink:href="#path6_fill" fill="white" transform="translate(13502 1193.27)"/>
</mask>
<g mask="url(#mask3_outline_ins)">
<use xlink:href="#path7_stroke_2x" transform="translate(13502 1193.27)" fill="#174F9F"/>
</g>
</g>
<g id="Star">
<mask id="mask4_outline_ins">
<use xlink:href="#path6_fill" fill="white" transform="translate(13523.8 1166)"/>
</mask>
<g mask="url(#mask4_outline_ins)">
<use xlink:href="#path7_stroke_2x" transform="translate(13523.8 1166)" fill="#174F9F"/>
</g>
</g>
<g id="Star">
<mask id="mask5_outline_ins">
<use xlink:href="#path6_fill" fill="white" transform="translate(13545.6 1176.91)"/>
</mask>
<g mask="url(#mask5_outline_ins)">
<use xlink:href="#path7_stroke_2x" transform="translate(13545.6 1176.91)" fill="#174F9F"/>
</g>
</g>
</g>
</g>
<defs>
<path id="path0_fill" d="M 0 0L 16.3636 0L 16.3636 16.3636L 0 16.3636L 0 0Z"/>
<path id="path1_stroke_2x" d="M 0 0L 0 -1L -1 -1L -1 0L 0 0ZM 16.3636 0L 17.3636 0L 17.3636 -1L 16.3636 -1L 16.3636 0ZM 16.3636 16.3636L 16.3636 17.3636L 17.3636 17.3636L 17.3636 16.3636L 16.3636 16.3636ZM 0 16.3636L -1 16.3636L -1 17.3636L 0 17.3636L 0 16.3636ZM 0 1L 16.3636 1L 16.3636 -1L 0 -1L 0 1ZM 15.3636 0L 15.3636 16.3636L 17.3636 16.3636L 17.3636 0L 15.3636 0ZM 16.3636 15.3636L 0 15.3636L 0 17.3636L 16.3636 17.3636L 16.3636 15.3636ZM 1 16.3636L 1 0L -1 0L -1 16.3636L 1 16.3636Z"/>
<path id="path2_fill" d="M 0 0L 16.3636 0L 16.3636 43.6364L 0 43.6364L 0 0Z"/>
<path id="path3_stroke_2x" d="M 0 0L 0 -1L -1 -1L -1 0L 0 0ZM 16.3636 0L 17.3636 0L 17.3636 -1L 16.3636 -1L 16.3636 0ZM 16.3636 43.6364L 16.3636 44.6364L 17.3636 44.6364L 17.3636 43.6364L 16.3636 43.6364ZM 0 43.6364L -1 43.6364L -1 44.6364L 0 44.6364L 0 43.6364ZM 0 1L 16.3636 1L 16.3636 -1L 0 -1L 0 1ZM 15.3636 0L 15.3636 43.6364L 17.3636 43.6364L 17.3636 0L 15.3636 0ZM 16.3636 42.6364L 0 42.6364L 0 44.6364L 16.3636 44.6364L 16.3636 42.6364ZM 1 43.6364L 1 0L -1 0L -1 43.6364L 1 43.6364Z"/>
<path id="path4_fill" d="M 0 0L 16.3636 0L 16.3636 32.7273L 0 32.7273L 0 0Z"/>
<path id="path5_stroke_2x" d="M 0 0L 0 -1L -1 -1L -1 0L 0 0ZM 16.3636 0L 17.3636 0L 17.3636 -1L 16.3636 -1L 16.3636 0ZM 16.3636 32.7273L 16.3636 33.7273L 17.3636 33.7273L 17.3636 32.7273L 16.3636 32.7273ZM 0 32.7273L -1 32.7273L -1 33.7273L 0 33.7273L 0 32.7273ZM 0 1L 16.3636 1L 16.3636 -1L 0 -1L 0 1ZM 15.3636 0L 15.3636 32.7273L 17.3636 32.7273L 17.3636 0L 15.3636 0ZM 16.3636 31.7273L 0 31.7273L 0 33.7273L 16.3636 33.7273L 16.3636 31.7273ZM 1 32.7273L 1 0L -1 0L -1 32.7273L 1 32.7273Z"/>
<path id="path6_fill" d="M 8.18182 0L 10.0188 5.6535L 15.9632 5.6535L 11.154 9.14755L 12.991 14.801L 8.18182 11.307L 3.37267 14.801L 5.2096 9.14755L 0.400447 5.6535L 6.34489 5.6535L 8.18182 0Z"/>
<path id="path7_stroke_2x" d="M 8.18182 0L 9.13287 -0.309017L 8.18182 -3.23607L 7.23076 -0.309017L 8.18182 0ZM 10.0188 5.6535L 9.06769 5.96251L 9.29221 6.6535L 10.0188 6.6535L 10.0188 5.6535ZM 15.9632 5.6535L 16.551 6.46251L 19.0409 4.6535L 15.9632 4.6535L 15.9632 5.6535ZM 11.154 9.14755L 10.5663 8.33853L 9.97847 8.76558L 10.203 9.45657L 11.154 9.14755ZM 12.991 14.801L 12.4032 15.6101L 14.8931 17.4191L 13.942 14.492L 12.991 14.801ZM 8.18182 11.307L 8.7696 10.498L 8.18182 10.0709L 7.59403 10.498L 8.18182 11.307ZM 3.37267 14.801L 2.42161 14.492L 1.47055 17.4191L 3.96045 15.6101L 3.37267 14.801ZM 5.2096 9.14755L 6.16066 9.45657L 6.38517 8.76558L 5.79738 8.33853L 5.2096 9.14755ZM 0.400447 5.6535L 0.400447 4.6535L -2.67724 4.6535L -0.187339 6.46251L 0.400447 5.6535ZM 6.34489 5.6535L 6.34489 6.6535L 7.07143 6.6535L 7.29594 5.96251L 6.34489 5.6535ZM 7.23076 0.309017L 9.06769 5.96251L 10.9698 5.34448L 9.13287 -0.309017L 7.23076 0.309017ZM 10.0188 6.6535L 15.9632 6.6535L 15.9632 4.6535L 10.0188 4.6535L 10.0188 6.6535ZM 15.3754 4.84448L 10.5663 8.33853L 11.7418 9.95657L 16.551 6.46251L 15.3754 4.84448ZM 10.203 9.45657L 12.0399 15.1101L 13.942 14.492L 12.1051 8.83853L 10.203 9.45657ZM 13.5788 13.992L 8.7696 10.498L 7.59403 12.116L 12.4032 15.6101L 13.5788 13.992ZM 7.59403 10.498L 2.78488 13.992L 3.96045 15.6101L 8.7696 12.116L 7.59403 10.498ZM 4.32372 15.1101L 6.16066 9.45657L 4.25854 8.83853L 2.42161 14.492L 4.32372 15.1101ZM 5.79738 8.33853L 0.988232 4.84448L -0.187339 6.46251L 4.62181 9.95657L 5.79738 8.33853ZM 0.400447 6.6535L 6.34489 6.6535L 6.34489 4.6535L 0.400447 4.6535L 0.400447 6.6535ZM 7.29594 5.96251L 9.13287 0.309017L 7.23076 -0.309017L 5.39383 5.34448L 7.29594 5.96251Z"/>
</defs>
</svg>
