<svg width="55" height="83" viewBox="0 0 55 83" version="1.1" xmlns="http://www.w3.org/2000/svg" xmlns:xlink="http://www.w3.org/1999/xlink">
<title>Group</title>
<desc>Created using Figma</desc>
<g id="Canvas" transform="translate(-14198 -1158)">
<g id="Group">
<g id="Vector">
<use xlink:href="#path0_stroke" transform="translate(14199 1159)" fill="#174F9F"/>
</g>
<g id="Vector">
<use xlink:href="#path1_stroke" transform="translate(14205.5 1168.9)" fill="#174F9F"/>
</g>
</g>
</g>
<defs>
<path id="path0_stroke" d="M 26.5 81L 26.2286 81.42L 26.4994 81.5949L 26.7705 81.4205L 26.5 81ZM 53 15.2619L 53.5 15.2619L 53.5 14.7792L 53.0175 14.7623L 53 15.2619ZM 26.5 1.77499e-08L 26.8192 -0.384862L 26.502 -0.647904L 26.1832 -0.38685L 26.5 1.77499e-08ZM 0 15.2619L -0.0175478 14.7623L -0.5 14.7792L -0.5 15.2619L 0 15.2619ZM 26.5 81C 26.7705 81.4205 26.7707 81.4204 26.771 81.4202C 26.7712 81.42 26.7716 81.4198 26.7721 81.4195C 26.773 81.4189 26.7744 81.418 26.7761 81.4169C 26.7794 81.4148 26.7846 81.4114 26.7912 81.4071C 26.8042 81.3987 26.824 81.3858 26.8495 81.3691C 26.9002 81.336 26.9762 81.2861 27.0743 81.2209C 27.2695 81.0913 27.5575 80.8977 27.9222 80.6467C 28.6493 80.1463 29.6925 79.4094 30.9402 78.4759C 33.4311 76.6121 36.767 73.9405 40.0959 70.7521C 46.7212 64.4051 53.5 55.8426 53.5 47.2748L 52.5 47.2748C 52.5 55.3835 46.0288 63.6835 39.4041 70.03C 36.108 73.1884 32.8189 75.8213 30.3411 77.6752C 29.1044 78.6006 28.0773 79.326 27.3552 79.823C 26.9952 80.0708 26.7139 80.2598 26.5209 80.388C 26.4249 80.4518 26.3521 80.4996 26.3025 80.532C 26.2779 80.5481 26.2597 80.5599 26.2472 80.568C 26.2411 80.572 26.2367 80.5749 26.2336 80.5769C 26.2321 80.5778 26.2311 80.5785 26.2303 80.579C 26.23 80.5792 26.2298 80.5793 26.2296 80.5794C 26.2295 80.5795 26.2295 80.5795 26.5 81ZM 53.5 47.2748C 53.5 38.9366 53.5 30.9334 53.5 25.0147C 53.5 22.0554 53.5 19.6172 53.5 17.9188C 53.5 17.0697 53.5 16.4054 53.5 15.9535C 53.5 15.7275 53.5 15.5547 53.5 15.4383C 53.5 15.3801 53.5 15.336 53.5 15.3065C 53.5 15.2917 53.5 15.2806 53.5 15.2731C 53.5 15.2694 53.5 15.2666 53.5 15.2647C 53.5 15.2638 53.5 15.2631 53.5 15.2626C 53.5 15.2624 53.5 15.2622 53.5 15.2621C 53.5 15.262 53.5 15.2619 53 15.2619C 52.5 15.2619 52.5 15.262 52.5 15.2621C 52.5 15.2622 52.5 15.2624 52.5 15.2626C 52.5 15.2631 52.5 15.2638 52.5 15.2647C 52.5 15.2666 52.5 15.2694 52.5 15.2731C 52.5 15.2806 52.5 15.2917 52.5 15.3065C 52.5 15.336 52.5 15.3801 52.5 15.4383C 52.5 15.5547 52.5 15.7275 52.5 15.9535C 52.5 16.4054 52.5 17.0697 52.5 17.9188C 52.5 19.6172 52.5 22.0554 52.5 25.0147C 52.5 30.9334 52.5 38.9366 52.5 47.2748L 53.5 47.2748ZM 53.0175 14.7623C 47.8201 14.5905 43.099 12.2983 38.7176 9.28488C 34.3342 6.27354 30.3764 2.56564 26.8192 -0.384862L 26.1808 0.384862C 29.7151 3.3158 33.7074 7.05275 38.1511 10.109C 42.5968 13.1631 47.5799 15.5612 52.9825 15.7616L 53.0175 14.7623ZM 26.1832 -0.38685C 22.6248 2.52738 18.6656 6.23654 14.2818 9.25736C 9.90238 12.2769 5.14463 14.581 -0.0175478 14.7623L 0.0175478 15.7616C 5.45537 15.5707 10.4018 13.1472 14.8495 10.0806C 19.2929 7.0153 23.2837 3.2796 26.8168 0.38685L 26.1832 -0.38685ZM 0 15.2619C -0.5 15.2619 -0.5 15.262 -0.5 15.2621C -0.5 15.2622 -0.5 15.2624 -0.5 15.2627C -0.5 15.2631 -0.5 15.2638 -0.5 15.2648C -0.5 15.2666 -0.5 15.2694 -0.5 15.2732C -0.5 15.2807 -0.5 15.2918 -0.5 15.3067C -0.5 15.3363 -0.5 15.3806 -0.5 15.4391C -0.5 15.556 -0.5 15.7297 -0.5 15.9566C -0.5 16.4104 -0.5 17.0772 -0.5 17.9293C -0.5 19.6335 -0.5 22.0786 -0.5 25.0426C -0.5 30.9706 -0.5 38.9738 -0.5 47.2748L 0.5 47.2748C 0.5 38.9738 0.5 30.9706 0.5 25.0426C 0.5 22.0786 0.5 19.6335 0.5 17.9293C 0.5 17.0772 0.5 16.4104 0.5 15.9566C 0.5 15.7297 0.5 15.556 0.5 15.4391C 0.5 15.3806 0.5 15.3363 0.5 15.3067C 0.5 15.2918 0.5 15.2807 0.5 15.2732C 0.5 15.2694 0.5 15.2666 0.5 15.2648C 0.5 15.2638 0.5 15.2631 0.5 15.2627C 0.5 15.2624 0.5 15.2622 0.5 15.2621C 0.5 15.262 0.5 15.2619 0 15.2619ZM -0.5 47.2748C -0.5 55.8056 6.27921 64.3683 12.9038 70.724C 16.2326 73.9169 19.5684 76.5953 22.0592 78.465C 23.3069 79.4014 24.35 80.1408 25.0771 80.6432C 25.4417 80.8951 25.7298 81.0894 25.9249 81.2196C 26.023 81.285 26.099 81.3352 26.1496 81.3684C 26.1752 81.3852 26.195 81.3981 26.208 81.4065C 26.2146 81.4108 26.2198 81.4142 26.2231 81.4164C 26.2248 81.4175 26.2262 81.4184 26.2271 81.4189C 26.2275 81.4192 26.2279 81.4195 26.2282 81.4196C 26.2284 81.4198 26.2286 81.42 26.5 81C 26.7714 80.58 26.7713 80.58 26.7712 80.58C 26.7711 80.5798 26.7709 80.5797 26.7705 80.5795C 26.7698 80.579 26.7687 80.5783 26.7673 80.5774C 26.7642 80.5754 26.7597 80.5725 26.7536 80.5685C 26.7411 80.5604 26.7229 80.5485 26.6983 80.5323C 26.6487 80.4998 26.5758 80.4517 26.4799 80.3877C 26.2868 80.259 26.0056 80.0692 25.6455 79.8204C 24.9234 79.3215 23.8962 78.5935 22.6595 77.6652C 20.1816 75.8054 16.8924 73.1655 13.5962 70.0024C 6.97079 63.646 0.5 55.3461 0.5 47.2748L -0.5 47.2748Z"/>
<path id="path1_stroke" d="M 20.0056 61.1967L 19.735 61.6171L 20.0056 61.7913L 20.2763 61.6171L 20.0056 61.1967ZM 40.0113 11.5395L 40.5113 11.5395L 40.5113 11.0578L 40.0299 11.0399L 40.0113 11.5395ZM 20.0056 -2.83999e-07L 20.322 -0.387155L 20.0056 -0.645738L 19.6892 -0.387155L 20.0056 -2.83999e-07ZM -1.4238e-07 11.5395L -0.0186289 11.0399L -0.5 11.0578L -0.5 11.5395L -1.4238e-07 11.5395ZM 20.0056 61.1967C 20.2763 61.6171 20.2765 61.617 20.2767 61.6168C 20.2769 61.6167 20.2772 61.6165 20.2776 61.6163C 20.2782 61.6158 20.2793 61.6151 20.2807 61.6143C 20.2832 61.6126 20.2872 61.61 20.2923 61.6068C 20.3021 61.6004 20.3172 61.5905 20.3367 61.5778C 20.375 61.5527 20.4328 61.5148 20.5071 61.4654C 20.6547 61.3672 20.873 61.2204 21.1489 61.0305C 21.6984 60.652 22.4879 60.094 23.4312 59.3879C 25.3132 57.9789 27.8373 55.9565 30.3544 53.5452C 35.356 48.7524 40.5113 42.2558 40.5113 35.7353L 39.5113 35.7353C 39.5113 41.7966 34.6637 48.0307 29.6625 52.8232C 27.1782 55.2045 24.7009 57.1883 22.8319 58.5874C 21.8996 59.2854 21.1262 59.8319 20.5816 60.2069C 20.3104 60.3937 20.0989 60.5359 19.9535 60.6326C 19.8813 60.6806 19.8267 60.7165 19.7894 60.7409C 19.771 60.7529 19.7574 60.7618 19.748 60.7678C 19.7434 60.7708 19.7402 60.7729 19.7379 60.7744C 19.7368 60.7751 19.7361 60.7756 19.7355 60.7759C 19.7353 60.7761 19.7351 60.7762 19.735 60.7762C 19.735 60.7763 19.735 60.7763 20.0056 61.1967ZM 40.5113 35.7353C 40.5113 29.4444 40.5113 23.3954 40.5113 18.9192C 40.5113 16.6811 40.5113 14.8362 40.5113 13.5508C 40.5113 12.9081 40.5113 12.4053 40.5113 12.0631C 40.5113 11.8921 40.5113 11.7612 40.5113 11.673C 40.5113 11.629 40.5113 11.5956 40.5113 11.5732C 40.5113 11.562 40.5113 11.5536 40.5113 11.548C 40.5113 11.5452 40.5113 11.5431 40.5113 11.5416C 40.5113 11.5409 40.5113 11.5404 40.5113 11.5401C 40.5113 11.5399 40.5113 11.5397 40.5113 11.5397C 40.5113 11.5396 40.5113 11.5395 40.0113 11.5395C 39.5113 11.5395 39.5113 11.5396 39.5113 11.5397C 39.5113 11.5397 39.5113 11.5399 39.5113 11.5401C 39.5113 11.5404 39.5113 11.5409 39.5113 11.5416C 39.5113 11.5431 39.5113 11.5452 39.5113 11.548C 39.5113 11.5536 39.5113 11.562 39.5113 11.5732C 39.5113 11.5956 39.5113 11.629 39.5113 11.673C 39.5113 11.7612 39.5113 11.8921 39.5113 12.0631C 39.5113 12.4053 39.5113 12.9081 39.5113 13.5508C 39.5113 14.8362 39.5113 16.6811 39.5113 18.9192C 39.5113 23.3954 39.5113 29.4444 39.5113 35.7353L 40.5113 35.7353ZM 40.0299 11.0399C 36.1737 10.8961 32.61 9.16899 29.3127 6.89373C 26.0112 4.61725 23.0221 1.81987 20.322 -0.387155L 19.6892 0.387154C 22.3638 2.5726 25.3839 5.39607 28.7447 7.7168C 32.1097 10.0387 35.8615 11.8852 39.9926 12.0392L 40.0299 11.0399ZM 19.6892 -0.387155C 16.9891 1.81987 14.0001 4.61725 10.6986 6.89373C 7.40125 9.16899 3.83755 10.8961 -0.0186289 11.0399L 0.0186286 12.0392C 4.14977 11.8852 7.90157 10.0387 11.2665 7.7168C 14.6274 5.39607 17.6475 2.5726 20.322 0.387154L 19.6892 -0.387155ZM -1.4238e-07 11.5395C -0.5 11.5395 -0.5 11.5396 -0.5 11.5397C -0.5 11.5397 -0.5 11.5399 -0.5 11.5401C -0.5 11.5404 -0.5 11.5409 -0.5 11.5416C -0.5 11.5431 -0.5 11.5452 -0.5 11.548C -0.5 11.5536 -0.5 11.562 -0.5 11.5732C -0.5 11.5956 -0.5 11.629 -0.5 11.673C -0.5 11.7612 -0.5 11.8921 -0.5 12.0631C -0.5 12.4053 -0.5 12.9081 -0.5 13.5508C -0.5 14.8362 -0.5 16.6811 -0.5 18.9192C -0.5 23.3954 -0.5 29.4444 -0.5 35.7353L 0.5 35.7353C 0.5 29.4444 0.5 23.3954 0.5 18.9192C 0.5 16.6811 0.5 14.8362 0.5 13.5508C 0.5 12.9081 0.5 12.4053 0.5 12.0631C 0.5 11.8921 0.5 11.7612 0.5 11.673C 0.5 11.629 0.5 11.5956 0.5 11.5732C 0.5 11.562 0.5 11.5536 0.5 11.548C 0.5 11.5452 0.5 11.5431 0.5 11.5416C 0.5 11.5409 0.5 11.5404 0.5 11.5401C 0.5 11.5399 0.5 11.5397 0.5 11.5397C 0.5 11.5396 0.5 11.5395 -1.4238e-07 11.5395ZM -0.5 35.7353C -0.5 42.2558 4.65529 48.7524 9.65688 53.5452C 12.1739 55.9565 14.6981 57.9789 16.5801 59.3879C 17.5234 60.094 18.3129 60.652 18.8624 61.0305C 19.1382 61.2204 19.3565 61.3672 19.5042 61.4654C 19.5785 61.5148 19.6362 61.5527 19.6746 61.5778C 19.694 61.5905 19.7091 61.6004 19.719 61.6068C 19.7241 61.61 19.728 61.6126 19.7306 61.6143C 19.7319 61.6151 19.733 61.6158 19.7337 61.6163C 19.7341 61.6165 19.7344 61.6167 19.7346 61.6168C 19.7348 61.617 19.735 61.6171 20.0056 61.1967C 20.2763 60.7763 20.2763 60.7763 20.2762 60.7762C 20.2761 60.7762 20.276 60.7761 20.2757 60.7759C 20.2752 60.7756 20.2745 60.7751 20.2734 60.7744C 20.2711 60.7729 20.2678 60.7708 20.2633 60.7678C 20.2539 60.7618 20.2403 60.7529 20.2219 60.7409C 20.1846 60.7165 20.13 60.6806 20.0578 60.6326C 19.9123 60.5359 19.7008 60.3937 19.4296 60.2069C 18.8851 59.8319 18.1116 59.2854 17.1794 58.5874C 15.3104 57.1883 12.8331 55.2045 10.3488 52.8232C 5.34752 48.0307 0.5 41.7966 0.5 35.7353L -0.5 35.7353Z"/>
</defs>
</svg>
