<svg width="1326" height="658" viewBox="0 0 1326 658" version="1.1" xmlns="http://www.w3.org/2000/svg" xmlns:xlink="http://www.w3.org/1999/xlink">
<title>Group</title>
<desc>Created using Figma</desc>
<g id="Canvas" transform="translate(-19346 -2671)">
<g id="Group">
<g id="Vector">
<use xlink:href="#path0_stroke" transform="translate(19346 2672)" fill="#32509B" fill-opacity="0.21"/>
</g>
</g>
</g>
<defs>
<path id="path0_stroke" d="M 504.7 0L 505.133 -0.249987L 504.989 -0.5L 504.7 -0.5L 504.7 0ZM 883.3 655.8L 882.867 656.05L 883.011 656.3L 883.3 656.3L 883.3 655.8ZM 1135.7 655.8L 1135.7 656.3L 1135.99 656.3L 1136.13 656.05L 1135.7 655.8ZM 1324.9 327.8L 1325.33 328.05L 1325.48 327.8L 1325.33 327.55L 1324.9 327.8ZM 1135.7 0L 1136.13 -0.249945L 1135.99 -0.5L 1135.7 -0.5L 1135.7 0ZM 630.9 0L 630.9 -0.5L 630.034 -0.5L 630.467 0.249987L 630.9 0ZM 946.4 546.5L 945.967 546.75L 946.4 547.5L 946.833 546.75L 946.4 546.5ZM 1135.7 218.6L 1136.13 218.85L 1136.57 218.1L 1135.7 218.1L 1135.7 218.6ZM 252.4 218.6L 252.4 218.1L 252.111 218.1L 251.967 218.35L 252.4 218.6ZM 189.3 327.9L 188.867 327.65L 188.723 327.9L 188.867 328.15L 189.3 327.9ZM 378.6 655.8L 378.167 656.05L 378.311 656.3L 378.6 656.3L 378.6 655.8ZM 630.9 655.8L 630.9 656.3L 631.766 656.3L 631.333 655.55L 630.9 655.8ZM 315.5 109.3L 315.933 109.05L 315.789 108.8L 315.5 108.8L 315.5 109.3ZM 189.3 109.3L 189.3 108.8L 189.011 108.8L 188.867 109.05L 189.3 109.3ZM 63.1 327.9L 62.667 327.65L 62.5227 327.9L 62.667 328.15L 63.1 327.9ZM 252.4 655.8L 252.4 656.3L 253.266 656.3L 252.833 655.55L 252.4 655.8ZM 0 0.5L 504.7 0.5L 504.7 -0.5L 0 -0.5L 0 0.5ZM 504.267 0.249987L 882.867 656.05L 883.733 655.55L 505.133 -0.249987L 504.267 0.249987ZM 883.3 656.3L 1135.7 656.3L 1135.7 655.3L 883.3 655.3L 883.3 656.3ZM 1136.13 656.05L 1325.33 328.05L 1324.47 327.55L 1135.27 655.55L 1136.13 656.05ZM 1325.33 327.55L 1136.13 -0.249945L 1135.27 0.249945L 1324.47 328.05L 1325.33 327.55ZM 1135.7 -0.5L 630.9 -0.5L 630.9 0.5L 1135.7 0.5L 1135.7 -0.5ZM 630.467 0.249987L 945.967 546.75L 946.833 546.25L 631.333 -0.249987L 630.467 0.249987ZM 946.833 546.75L 1136.13 218.85L 1135.27 218.35L 945.967 546.25L 946.833 546.75ZM 1135.7 218.1L 252.4 218.1L 252.4 219.1L 1135.7 219.1L 1135.7 218.1ZM 251.967 218.35L 188.867 327.65L 189.733 328.15L 252.833 218.85L 251.967 218.35ZM 188.867 328.15L 378.167 656.05L 379.033 655.55L 189.733 327.65L 188.867 328.15ZM 378.6 656.3L 630.9 656.3L 630.9 655.3L 378.6 655.3L 378.6 656.3ZM 631.333 655.55L 315.933 109.05L 315.067 109.55L 630.467 656.05L 631.333 655.55ZM 315.5 108.8L 189.3 108.8L 189.3 109.8L 315.5 109.8L 315.5 108.8ZM 188.867 109.05L 62.667 327.65L 63.533 328.15L 189.733 109.55L 188.867 109.05ZM 62.667 328.15L 251.967 656.05L 252.833 655.55L 63.533 327.65L 62.667 328.15ZM 252.4 655.3L 0 655.3L 0 656.3L 252.4 656.3L 252.4 655.3Z"/>
</defs>
</svg>
