<svg width="1326" height="658" viewBox="0 0 1326 658" version="1.1" xmlns="http://www.w3.org/2000/svg" xmlns:xlink="http://www.w3.org/1999/xlink">
<title>Group</title>
<desc>Created using Figma</desc>
<g id="Canvas" transform="translate(-19346 -1699)">
<g id="Group">
<g id="Vector">
<use xlink:href="#path0_stroke" transform="translate(19346 1700)" fill="#32509B" fill-opacity="0.21"/>
</g>
</g>
</g>
<defs>
<path id="path0_stroke" d="M 252.4 0L 252.833 -0.249937L 252.689 -0.5L 252.4 -0.5L 252.4 0ZM 630.9 655.8L 630.467 656.05L 630.611 656.3L 630.9 656.3L 630.9 655.8ZM 883.3 655.8L 883.3 656.3L 883.589 656.3L 883.733 656.05L 883.3 655.8ZM 1072.6 327.9L 1073.03 328.15L 1073.18 327.9L 1073.03 327.65L 1072.6 327.9ZM 883.3 0L 883.733 -0.249987L 883.3 -1.00005L 882.867 -0.249987L 883.3 0ZM 630.9 437.2L 630.467 437.45L 630.9 438.2L 631.333 437.45L 630.9 437.2ZM 504.7 218.7L 504.267 218.45L 504.123 218.7L 504.267 218.95L 504.7 218.7ZM 630.9 0L 631.333 -0.249987L 630.9 -1.00022L 630.467 -0.249901L 630.9 0ZM 1009.5 655.8L 1009.07 656.05L 1009.21 656.3L 1009.5 656.3L 1009.5 655.8ZM 1135.7 655.8L 1135.7 656.3L 1135.99 656.3L 1136.13 656.05L 1135.7 655.8ZM 1324.9 327.8L 1325.33 328.05L 1325.48 327.8L 1325.33 327.55L 1324.9 327.8ZM 1135.7 0L 1136.13 -0.249945L 1135.99 -0.5L 1135.7 -0.5L 1135.7 0ZM 1009.5 0L 1009.5 -0.5L 1009.21 -0.5L 1009.07 -0.249987L 1009.5 0ZM 757.1 437.2L 757.1 437.7L 757.389 437.7L 757.533 437.45L 757.1 437.2ZM 378.6 437.1L 378.6 436.6L 378.311 436.6L 378.167 436.85L 378.6 437.1ZM 252.4 655.8L 252.4 656.3L 252.689 656.3L 252.833 656.05L 252.4 655.8ZM 0 0.5L 252.4 0.5L 252.4 -0.5L 0 -0.5L 0 0.5ZM 251.967 0.249937L 630.467 656.05L 631.333 655.55L 252.833 -0.249937L 251.967 0.249937ZM 630.9 656.3L 883.3 656.3L 883.3 655.3L 630.9 655.3L 630.9 656.3ZM 883.733 656.05L 1073.03 328.15L 1072.17 327.65L 882.867 655.55L 883.733 656.05ZM 1073.03 327.65L 883.733 -0.249987L 882.867 0.249987L 1072.17 328.15L 1073.03 327.65ZM 882.867 -0.249987L 630.467 436.95L 631.333 437.45L 883.733 0.249987L 882.867 -0.249987ZM 631.333 436.95L 505.133 218.45L 504.267 218.95L 630.467 437.45L 631.333 436.95ZM 505.133 218.95L 631.333 0.249901L 630.467 -0.249901L 504.267 218.45L 505.133 218.95ZM 630.467 0.249987L 1009.07 656.05L 1009.93 655.55L 631.333 -0.249987L 630.467 0.249987ZM 1009.5 656.3L 1135.7 656.3L 1135.7 655.3L 1009.5 655.3L 1009.5 656.3ZM 1136.13 656.05L 1325.33 328.05L 1324.47 327.55L 1135.27 655.55L 1136.13 656.05ZM 1325.33 327.55L 1136.13 -0.249945L 1135.27 0.249945L 1324.47 328.05L 1325.33 327.55ZM 1135.7 -0.5L 1009.5 -0.5L 1009.5 0.5L 1135.7 0.5L 1135.7 -0.5ZM 1009.07 -0.249987L 756.667 436.95L 757.533 437.45L 1009.93 0.249987L 1009.07 -0.249987ZM 757.1 436.7L 378.6 436.6L 378.6 437.6L 757.1 437.7L 757.1 436.7ZM 378.167 436.85L 251.967 655.55L 252.833 656.05L 379.033 437.35L 378.167 436.85ZM 252.4 655.3L 0 655.3L 0 656.3L 252.4 656.3L 252.4 655.3Z"/>
</defs>
</svg>
