<svg width="1326" height="658" viewBox="0 0 1326 658" version="1.1" xmlns="http://www.w3.org/2000/svg" xmlns:xlink="http://www.w3.org/1999/xlink">
<title>Group</title>
<desc>Created using Figma</desc>
<g id="Canvas" transform="translate(-19346 -760)">
<g id="Group">
<g id="Vector">
<use xlink:href="#path0_stroke" transform="translate(19346 761)" fill="#32509B" fill-opacity="0.21"/>
</g>
</g>
</g>
<defs>
<path id="path0_stroke" d="M 252.4 0L 252.833 0.249987L 253.266 -0.5L 252.4 -0.5L 252.4 0ZM 63.1 327.9L 62.667 327.65L 62.5227 327.9L 62.667 328.15L 63.1 327.9ZM 126.2 437.2L 125.767 437.45L 126.2 438.2L 126.633 437.45L 126.2 437.2ZM 378.6 0L 378.6 -0.5L 378.311 -0.5L 378.167 -0.249987L 378.6 0ZM 630.9 0L 631.333 -0.249987L 631.189 -0.5L 630.9 -0.5L 630.9 0ZM 1009.5 655.8L 1009.07 656.05L 1009.21 656.3L 1009.5 656.3L 1009.5 655.8ZM 1135.7 655.8L 1135.7 656.3L 1135.99 656.3L 1136.13 656.05L 1135.7 655.8ZM 1324.9 327.9L 1325.33 328.15L 1325.48 327.9L 1325.33 327.65L 1324.9 327.9ZM 1135.7 0L 1136.13 -0.249888L 1135.99 -0.5L 1135.7 -0.5L 1135.7 0ZM 883.3 0L 883.3 -0.5L 882.434 -0.5L 882.867 0.249987L 883.3 0ZM 1072.6 327.9L 1073.03 328.15L 1073.18 327.9L 1073.03 327.65L 1072.6 327.9ZM 883.3 655.8L 883.3 656.3L 883.589 656.3L 883.733 656.05L 883.3 655.8ZM 630.9 655.8L 630.467 655.55L 630.034 656.3L 630.9 656.3L 630.9 655.8ZM 883.3 218.6L 883.733 218.85L 884.166 218.1L 883.3 218.1L 883.3 218.6ZM 630.9 218.7L 630.9 218.2L 630.611 218.2L 630.467 218.45L 630.9 218.7ZM 378.6 655.8L 378.6 656.3L 378.889 656.3L 379.033 656.05L 378.6 655.8ZM 252.4 655.8L 251.967 655.55L 251.534 656.3L 252.4 656.3L 252.4 655.8ZM 504.7 218.6L 505.133 218.85L 505.566 218.1L 504.7 218.1L 504.7 218.6ZM 378.6 218.6L 378.6 218.1L 378.311 218.1L 378.167 218.35L 378.6 218.6ZM 126.2 655.8L 126.2 656.3L 126.489 656.3L 126.633 656.05L 126.2 655.8ZM 0 0.5L 252.4 0.5L 252.4 -0.5L 0 -0.5L 0 0.5ZM 251.967 -0.249987L 62.667 327.65L 63.533 328.15L 252.833 0.249987L 251.967 -0.249987ZM 62.667 328.15L 125.767 437.45L 126.633 436.95L 63.533 327.65L 62.667 328.15ZM 126.633 437.45L 379.033 0.249987L 378.167 -0.249987L 125.767 436.95L 126.633 437.45ZM 378.6 0.5L 630.9 0.5L 630.9 -0.5L 378.6 -0.5L 378.6 0.5ZM 630.467 0.249987L 1009.07 656.05L 1009.93 655.55L 631.333 -0.249987L 630.467 0.249987ZM 1009.5 656.3L 1135.7 656.3L 1135.7 655.3L 1009.5 655.3L 1009.5 656.3ZM 1136.13 656.05L 1325.33 328.15L 1324.47 327.65L 1135.27 655.55L 1136.13 656.05ZM 1325.33 327.65L 1136.13 -0.249888L 1135.27 0.249888L 1324.47 328.15L 1325.33 327.65ZM 1135.7 -0.5L 883.3 -0.5L 883.3 0.5L 1135.7 0.5L 1135.7 -0.5ZM 882.867 0.249987L 1072.17 328.15L 1073.03 327.65L 883.733 -0.249987L 882.867 0.249987ZM 1072.17 327.65L 882.867 655.55L 883.733 656.05L 1073.03 328.15L 1072.17 327.65ZM 883.3 655.3L 630.9 655.3L 630.9 656.3L 883.3 656.3L 883.3 655.3ZM 631.333 656.05L 883.733 218.85L 882.867 218.35L 630.467 655.55L 631.333 656.05ZM 883.3 218.1L 630.9 218.2L 630.9 219.2L 883.3 219.1L 883.3 218.1ZM 630.467 218.45L 378.167 655.55L 379.033 656.05L 631.333 218.95L 630.467 218.45ZM 378.6 655.3L 252.4 655.3L 252.4 656.3L 378.6 656.3L 378.6 655.3ZM 252.833 656.05L 505.133 218.85L 504.267 218.35L 251.967 655.55L 252.833 656.05ZM 504.7 218.1L 378.6 218.1L 378.6 219.1L 504.7 219.1L 504.7 218.1ZM 378.167 218.35L 125.767 655.55L 126.633 656.05L 379.033 218.85L 378.167 218.35ZM 126.2 655.3L 0 655.3L 0 656.3L 126.2 656.3L 126.2 655.3Z"/>
</defs>
</svg>
