<svg width="524" height="525" viewBox="0 0 524 525" version="1.1" xmlns="http://www.w3.org/2000/svg" xmlns:xlink="http://www.w3.org/1999/xlink">
<title>Group</title>
<desc>Created using Figma</desc>
<g id="Canvas" transform="translate(-9306 -4411)">
<g id="Group">
<g id="Group">
<g id="Group">
<g id="Group">
<g id="Group">
<g id="Vector">
<use xlink:href="#path0_fill" transform="translate(9306 4672.6)" fill="#232C33"/>
</g>
</g>
</g>
<g id="Group">
<g id="Group">
<g id="Vector">
<use xlink:href="#path1_fill" transform="translate(9403 4672.6)" fill="#2A3C5B"/>
</g>
</g>
</g>
<g id="Group">
<g id="Group">
<g id="Vector">
<use xlink:href="#path2_fill" transform="translate(9567.6 4672.6)" fill="#174F9F"/>
</g>
</g>
</g>
<g id="Group">
<g id="Group">
<g id="Vector">
<use xlink:href="#path3_fill" transform="translate(9567.6 4428.4)" fill="#2F6BB4"/>
</g>
</g>
</g>
<g id="Group">
<g id="Group">
<g id="Vector">
<use xlink:href="#path4_fill" transform="translate(9306 4411)" fill="#4F87C7"/>
</g>
</g>
</g>
</g>
</g>
<g id="Vector">
<use xlink:href="#path5_fill" transform="translate(9409.2 4514.3)" fill="#FFFFFF"/>
</g>
<g id="Group">
<g id="Vector">
<use xlink:href="#path6_fill" transform="translate(9400.6 4500.9)" fill="#FFFFFF"/>
</g>
<g id="Vector">
<use xlink:href="#path7_fill" transform="translate(9422.9 4501.5)" fill="#FFFFFF"/>
</g>
<g id="Vector">
<use xlink:href="#path8_fill" transform="translate(9443.1 4500.4)" fill="#FFFFFF"/>
</g>
</g>
<g id="Group">
<g id="Vector">
<use xlink:href="#path9_fill" transform="translate(9706 4541.5)" fill="#FFFFFF"/>
</g>
<g id="Vector">
<use xlink:href="#path10_fill" transform="translate(9726.6 4541)" fill="#FFFFFF"/>
</g>
<g id="Vector">
<use xlink:href="#path11_fill" transform="translate(9747.5 4540.4)" fill="#FFFFFF"/>
</g>
</g>
<g id="Group">
<g id="Vector">
<use xlink:href="#path12_fill" transform="translate(9702.7 4781.8)" fill="#FFFFFF"/>
</g>
<g id="Vector">
<use xlink:href="#path13_fill" transform="translate(9723.8 4781.8)" fill="#FFFFFF"/>
</g>
<g id="Vector">
<use xlink:href="#path14_fill" transform="translate(9744.5 4781.3)" fill="#FFFFFF"/>
</g>
</g>
<g id="Group">
<g id="Vector">
<use xlink:href="#path15_fill" transform="translate(9493.9 4866.9)" fill="#FFFFFF"/>
</g>
<g id="Vector">
<use xlink:href="#path16_fill" transform="translate(9514.1 4866.7)" fill="#FFFFFF"/>
</g>
<g id="Vector">
<use xlink:href="#path17_fill" transform="translate(9535.4 4865.8)" fill="#FFFFFF"/>
</g>
</g>
<g id="Group">
<g id="Vector">
<use xlink:href="#path18_fill" transform="translate(9343 4753.2)" fill="#FFFFFF"/>
</g>
<g id="Vector">
<use xlink:href="#path19_fill" transform="translate(9362.4 4753.2)" fill="#FFFFFF"/>
</g>
<g id="Vector">
<use xlink:href="#path20_fill" transform="translate(9384.4 4752.1)" fill="#FFFFFF"/>
</g>
</g>
</g>
</g>
<defs>
<path id="path0_fill" d="M 261.6 6.10352e-06L 97 203.3C 34.1 152.4 0 80.9 0 6.10352e-06L 261.6 6.10352e-06Z"/>
<path id="path1_fill" d="M 164.6 6.10352e-06L 245.4 248.8C 157.5 277.4 71.8 261.5 0 203.3L 164.6 6.10352e-06Z"/>
<path id="path2_fill" d="M 6.10352e-06 6.10352e-06L 261.6 6.10352e-06C 261.6 115.6 190.8 213.1 80.8 248.8L 6.10352e-06 6.10352e-06Z"/>
<path id="path3_fill" d="M 6.10352e-06 244.2L 93.8 -3.8147e-07C 196.3 39.4 261.7 134.4 261.7 244.2L 6.10352e-06 244.2Z"/>
<path id="path4_fill" d="M 261.6 261.6L 0 261.6C 0 117.1 117.1 0 261.6 0C 296.3 0 323 4.9 355.4 17.4L 261.6 261.6Z"/>
<path id="path5_fill" d="M 158.1 316.2C 70.8 316.2 -3.05176e-06 245.4 -3.05176e-06 158.1C -3.05176e-06 70.8 70.8 3.05176e-06 158.1 3.05176e-06C 245.4 3.05176e-06 316.2 70.8 316.2 158.1C 316.3 245.4 245.5 316.2 158.1 316.2Z"/>
<path id="path6_fill" d="M 6.2 11.1L 7.4 11.1C 8 11.1 8.7 11 9.3 10.9C 9.9 10.8 10.5 10.6 11 10.3C 11.5 10 12 9.6 12.3 9.1C 12.6 8.6 12.8 8 12.8 7.2C 12.8 6.6 12.7 6.1 12.5 5.7C 12.3 5.2 12 4.9 11.6 4.5C 11.2 4.2 10.8 3.9 10.3 3.8C 9.8 3.6 9.3 3.5 8.8 3.5C 7.7 3.5 6.9 3.8 6.2 4.4C 5.5 5 5 5.8 4.8 6.8L 0.700003 5.8C 0.900003 4.9 1.3 4.1 1.8 3.4C 2.3 2.7 2.9 2.1 3.7 1.6C 4.4 1.1 5.3 0.700003 6.2 0.400003C 7.1 0.100003 8.1 1.52588e-06 9.1 1.52588e-06C 10.2 1.52588e-06 11.3 0.200002 12.2 0.500002C 13.2 0.800002 14.1 1.2 14.8 1.8C 15.5 2.4 16.1 3.1 16.6 4C 17.1 4.9 17.2 5.9 17.2 7C 17.2 8.4 16.8 9.6 16 10.7C 15.2 11.8 14.1 12.5 12.7 12.8L 12.7 12.9C 14.3 13.2 15.5 13.9 16.5 15C 17.5 16.1 18 17.4 18 19C 18 20.3 17.7 21.5 17.2 22.5C 16.7 23.5 16 24.3 15.2 24.9C 14.4 25.5 13.4 26 12.4 26.4C 11.3 26.7 10.3 26.9 9.2 26.9C 8.1 26.9 7.1 26.8 6.1 26.6C 5.1 26.4 4.3 26 3.5 25.5C 2.7 25 2 24.4 1.4 23.6C 0.8 22.8 0.299998 21.9 -1.52588e-06 20.9L 4 19.6C 4.3 20.6 4.9 21.5 5.7 22.2C 6.6 22.9 7.7 23.2 9 23.2C 9.6 23.2 10.1 23.1 10.7 23C 11.3 22.8 11.8 22.6 12.2 22.3C 12.6 22 13 21.5 13.3 21C 13.6 20.5 13.7 19.8 13.7 19.1C 13.7 18.3 13.5 17.6 13.1 17C 12.7 16.4 12.2 16 11.6 15.7C 11 15.4 10.3 15.1 9.6 15C 8.9 14.9 8.2 14.8 7.5 14.8L 6.4 14.8L 6.4 11.1L 6.2 11.1Z"/>
<path id="path7_fill" d="M 7.5 5.3L 2.5 9.4L 1.52588e-06 6.4L 8 1.42109e-14L 11.9 1.42109e-14L 11.9 25.5L 7.6 25.5L 7.6 5.3L 7.5 5.3Z"/>
<path id="path8_fill" d="M 6.10352e-06 7.4C 6.10352e-06 6.5 0.200006 5.6 0.500006 4.8C 0.800006 4 1.3 3.3 1.9 2.7C 2.5 2.1 3.20001 1.6 4.00001 1.3C 4.80001 0.999997 5.7 0.799997 6.6 0.799997C 7.5 0.799997 8.4 0.999997 9.2 1.3C 10 1.6 10.7 2.1 11.3 2.7C 11.9 3.3 12.4 4 12.7 4.8C 13 5.6 13.2 6.5 13.2 7.4C 13.2 8.3 13 9.2 12.7 10C 12.4 10.8 11.9 11.5 11.3 12.1C 10.7 12.7 10 13.2 9.2 13.5C 8.4 13.8 7.5 14 6.6 14C 5.7 14 4.80001 13.8 4.00001 13.5C 3.20001 13.2 2.5 12.7 1.9 12.1C 1.3 11.5 0.800006 10.8 0.500006 10C 0.200006 9.2 6.10352e-06 8.4 6.10352e-06 7.4ZM 10 7.4C 10 6.5 9.7 5.7 9.1 5.1C 8.5 4.5 7.69999 4.2 6.79999 4.2C 5.89999 4.2 5.10001 4.5 4.50001 5.1C 3.90001 5.7 3.6 6.5 3.6 7.4C 3.6 8.3 3.90001 9.1 4.50001 9.7C 5.10001 10.3 5.89999 10.6 6.79999 10.6C 7.69999 10.6 8.5 10.3 9.1 9.7C 9.6 9.1 10 8.3 10 7.4ZM 21.3 1.52588e-06L 24.3 1.4L 9.29999 27.8L 6.29999 26.4L 21.3 1.52588e-06ZM 17.2 20.4C 17.2 19.5 17.4 18.6 17.7 17.8C 18 17 18.5 16.3 19.1 15.7C 19.7 15.1 20.4 14.6 21.2 14.3C 22 14 22.9 13.8 23.8 13.8C 24.7 13.8 25.6 14 26.4 14.3C 27.2 14.6 27.9 15.1 28.5 15.7C 29.1 16.3 29.6 17 29.9 17.8C 30.2 18.6 30.4 19.5 30.4 20.4C 30.4 21.3 30.2 22.2 29.9 23C 29.6 23.8 29.1 24.5 28.5 25.1C 27.9 25.7 27.2 26.2 26.4 26.5C 25.6 26.8 24.7 27 23.8 27C 22.9 27 22 26.8 21.2 26.5C 20.4 26.2 19.7 25.7 19.1 25.1C 18.5 24.5 18 23.8 17.7 23C 17.4 22.2 17.2 21.3 17.2 20.4ZM 27.2 20.4C 27.2 19.5 26.9 18.7 26.3 18.1C 25.7 17.5 24.9 17.2 24 17.2C 23.1 17.2 22.3 17.5 21.7 18.1C 21.1 18.7 20.8 19.5 20.8 20.4C 20.8 21.3 21.1 22.1 21.7 22.7C 22.3 23.3 23.1 23.6 24 23.6C 24.9 23.6 25.7 23.3 26.3 22.7C 26.8 22.1 27.2 21.3 27.2 20.4Z"/>
<path id="path9_fill" d="M 7.5 5.3L 2.5 9.39999L 0 6.39999L 8 0L 11.9 0L 11.9 25.5L 7.60001 25.5L 7.60001 5.3L 7.5 5.3Z"/>
<path id="path10_fill" d="M 4.19999 26L 10.8 16.5C 10.4 16.7 10 16.8 9.50001 16.9C 9.00001 17 8.50001 17 8.10001 17C 7.00001 17 5.9 16.8 4.9 16.4C 3.9 16 3.09999 15.4 2.29999 14.7C 1.59999 14 1.00001 13.1 0.600012 12.1C 0.200012 11.1 6.10352e-06 9.99999 6.10352e-06 8.89999C 6.10352e-06 7.59999 0.199988 6.3 0.699988 5.2C 1.19999 4.1 1.79999 3.19999 2.69999 2.39999C 3.49999 1.59999 4.49999 1.00001 5.69999 0.600006C 6.79999 0.200006 8.1 -2.84217e-14 9.4 -2.84217e-14C 10.7 -2.84217e-14 11.9 0.199997 13.1 0.699997C 14.3 1.2 15.2 1.80001 16.1 2.60001C 17 3.40001 17.6 4.29999 18.1 5.39999C 18.6 6.49999 18.8 7.6 18.8 8.8C 18.8 9.5 18.7 10.2 18.6 10.8C 18.5 11.4 18.3 12 18.1 12.6C 17.9 13.2 17.6 13.8 17.3 14.4C 17 15 16.6 15.6 16.2 16.3L 9.79999 26.2L 4.19999 26.2L 4.19999 26ZM 14.1 8.5C 14.1 7.8 14 7.20001 13.8 6.60001C 13.6 6.00001 13.2 5.5 12.8 5C 12.4 4.5 11.9 4.19999 11.3 3.89999C 10.7 3.59999 9.99999 3.5 9.29999 3.5C 7.79999 3.5 6.69999 3.99999 5.79999 4.89999C 4.89999 5.79999 4.50001 7.10001 4.50001 8.60001C 4.50001 9.30001 4.59999 10 4.79999 10.6C 4.99999 11.2 5.39999 11.7 5.79999 12.2C 6.19999 12.6 6.69999 13 7.29999 13.2C 7.89999 13.5 8.49999 13.6 9.29999 13.6C 9.99999 13.6 10.7 13.5 11.3 13.2C 11.9 13 12.4 12.6 12.9 12.2C 13.3 11.8 13.7 11.2 13.9 10.6C 14 10 14.1 9.3 14.1 8.5Z"/>
<path id="path11_fill" d="M 0 7.4C 0 6.5 0.2 5.6 0.5 4.8C 0.8 4 1.29999 3.30001 1.89999 2.70001C 2.49999 2.10001 3.2 1.6 4 1.3C 4.8 0.999997 5.70001 0.799997 6.60001 0.799997C 7.50001 0.799997 8.40001 0.999997 9.20001 1.3C 10 1.6 10.7 2.10001 11.3 2.70001C 11.9 3.30001 12.4 4 12.7 4.8C 13 5.6 13.2 6.5 13.2 7.4C 13.2 8.3 13 9.19999 12.7 9.99999C 12.4 10.8 11.9 11.5 11.3 12.1C 10.7 12.7 10 13.2 9.20001 13.5C 8.40001 13.8 7.50001 14 6.60001 14C 5.70001 14 4.8 13.8 4 13.5C 3.2 13.2 2.49999 12.7 1.89999 12.1C 1.29999 11.5 0.8 10.8 0.5 9.99999C 0.2 9.19999 0 8.4 0 7.4ZM 9.89999 7.4C 9.89999 6.5 9.6 5.7 9 5.1C 8.4 4.5 7.60001 4.20001 6.70001 4.20001C 5.80001 4.20001 4.99999 4.5 4.39999 5.1C 3.79999 5.7 3.5 6.5 3.5 7.4C 3.5 8.3 3.79999 9.10001 4.39999 9.70001C 4.99999 10.3 5.80001 10.6 6.70001 10.6C 7.60001 10.6 8.4 10.3 9 9.70001C 9.6 9.10001 9.89999 8.3 9.89999 7.4ZM 21.3 -6.10352e-06L 24.3 1.4L 9.29999 27.8L 6.29999 26.4L 21.3 -6.10352e-06ZM 17.2 20.4C 17.2 19.5 17.4 18.6 17.7 17.8C 18 17 18.5 16.3 19.1 15.7C 19.7 15.1 20.4 14.6 21.2 14.3C 22 14 22.9 13.8 23.8 13.8C 24.7 13.8 25.6 14 26.4 14.3C 27.2 14.6 27.9 15.1 28.5 15.7C 29.1 16.3 29.6 17 29.9 17.8C 30.2 18.6 30.4 19.5 30.4 20.4C 30.4 21.3 30.2 22.2 29.9 23C 29.6 23.8 29.1 24.5 28.5 25.1C 27.9 25.7 27.2 26.2 26.4 26.5C 25.6 26.8 24.7 27 23.8 27C 22.9 27 22 26.8 21.2 26.5C 20.4 26.2 19.7 25.7 19.1 25.1C 18.5 24.5 18 23.8 17.7 23C 17.4 22.2 17.2 21.3 17.2 20.4ZM 27.1 20.4C 27.1 19.5 26.8 18.7 26.2 18.1C 25.6 17.5 24.8 17.2 23.9 17.2C 23 17.2 22.2 17.5 21.6 18.1C 21 18.7 20.7 19.5 20.7 20.4C 20.7 21.3 21 22.1 21.6 22.7C 22.2 23.3 23 23.6 23.9 23.6C 24.8 23.6 25.6 23.3 26.2 22.7C 26.8 22.1 27.1 21.3 27.1 20.4Z"/>
<path id="path12_fill" d="M 0.3 22.2L 10.1 12.6C 10.9 11.8 11.5 11.1 12 10.3C 12.5 9.50001 12.7 8.59999 12.7 7.59999C 12.7 6.39999 12.3 5.4 11.5 4.7C 10.7 4 9.79999 3.59999 8.59999 3.59999C 7.39999 3.59999 6.39999 4.00001 5.59999 4.80001C 4.79999 5.60001 4.39999 6.70001 4.19999 7.90001L 1.2207e-05 7.30001C 0.100012 6.20001 0.400006 5.30001 0.900006 4.40001C 1.40001 3.50001 1.99999 2.69999 2.69999 2.09999C 3.39999 1.49999 4.3 0.899994 5.3 0.599994C 6.3 0.199994 7.39999 -1.2207e-05 8.59999 -1.2207e-05C 9.69999 -1.2207e-05 10.8 0.199988 11.8 0.499988C 12.8 0.799988 13.7 1.30001 14.5 1.90001C 15.3 2.50001 15.9 3.3 16.4 4.2C 16.9 5.1 17.1 6.20001 17.1 7.40001C 17.1 8.20001 17 9 16.8 9.7C 16.6 10.4 16.3 11.1 15.9 11.7C 15.5 12.3 15.1 12.9 14.6 13.5C 14.1 14.1 13.6 14.6 13 15.1L 5.69999 22.1L 17.2 22.1L 17.2 26.1L 0.199994 26.1L 0.199994 22.2L 0.3 22.2Z"/>
<path id="path13_fill" d="M 17.9 13.4C 17.9 15.5 17.7 17.3 17.3 19C 16.9 20.7 16.3 22.1 15.6 23.2C 14.8 24.4 13.9 25.2 12.8 25.9C 11.7 26.5 10.4 26.8 8.99999 26.8C 7.59999 26.8 6.29999 26.5 5.09999 25.9C 3.99999 25.3 3.00001 24.4 2.30001 23.2C 1.50001 22 0.899994 20.6 0.599994 19C 0.199994 17.3 -1.2207e-05 15.5 -1.2207e-05 13.4C -1.2207e-05 11.3 0.199994 9.50001 0.599994 7.80001C 0.999994 6.10001 1.60001 4.69999 2.30001 3.59999C 3.10001 2.39999 3.99999 1.60001 5.09999 0.900012C 6.19999 0.300012 7.49999 -1.2207e-05 8.99999 -1.2207e-05C 10.4 -1.2207e-05 11.7 0.300012 12.8 0.900012C 13.9 1.50001 14.9 2.39999 15.6 3.59999C 16.3 4.79999 16.9 6.20001 17.3 7.80001C 17.8 9.50001 17.9 11.3 17.9 13.4ZM 13.5 13.4C 13.5 12.5 13.4 11.5 13.3 10.4C 13.2 9.30001 13 8.2 12.7 7.2C 12.4 6.2 11.9 5.3 11.3 4.7C 10.7 4 9.89999 3.7 8.99999 3.7C 7.99999 3.7 7.19999 4 6.59999 4.7C 5.99999 5.4 5.5 6.2 5.2 7.2C 4.9 8.2 4.69999 9.30001 4.49999 10.4C 4.29999 11.5 4.30001 12.5 4.30001 13.4C 4.30001 14.3 4.39999 15.3 4.49999 16.4C 4.59999 17.5 4.8 18.6 5.2 19.6C 5.6 20.6 5.99999 21.4 6.59999 22.1C 7.19999 22.8 7.99999 23.1 8.99999 23.1C 9.99999 23.1 10.7 22.8 11.3 22.1C 11.9 21.4 12.4 20.6 12.7 19.6C 13 18.6 13.2 17.6 13.3 16.4C 13.5 15.3 13.5 14.3 13.5 13.4Z"/>
<path id="path14_fill" d="M 0 7.40001C 0 6.50001 0.2 5.60001 0.5 4.80001C 0.8 4.00001 1.29999 3.3 1.89999 2.7C 2.49999 2.1 3.2 1.60001 4 1.30001C 4.8 1.00001 5.70001 0.800006 6.60001 0.800006C 7.50001 0.800006 8.40001 1.00001 9.20001 1.30001C 10 1.60001 10.7 2.1 11.3 2.7C 11.9 3.3 12.4 4.00001 12.7 4.80001C 13 5.60001 13.2 6.50001 13.2 7.40001C 13.2 8.30001 13 9.19999 12.7 9.99999C 12.4 10.8 11.9 11.5 11.3 12.1C 10.7 12.7 10 13.2 9.20001 13.5C 8.40001 13.8 7.50001 14 6.60001 14C 5.70001 14 4.8 13.8 4 13.5C 3.2 13.2 2.49999 12.7 1.89999 12.1C 1.29999 11.5 0.8 10.8 0.5 9.99999C 0.2 9.19999 0 8.30001 0 7.40001ZM 9.89999 7.40001C 9.89999 6.50001 9.6 5.69999 9 5.09999C 8.4 4.49999 7.60001 4.2 6.70001 4.2C 5.80001 4.2 4.99999 4.49999 4.39999 5.09999C 3.79999 5.69999 3.5 6.50001 3.5 7.40001C 3.5 8.30001 3.79999 9.1 4.39999 9.7C 4.99999 10.3 5.80001 10.6 6.70001 10.6C 7.60001 10.6 8.4 10.3 9 9.7C 9.6 9.1 9.89999 8.30001 9.89999 7.40001ZM 21.3 -1.2207e-05L 24.3 1.40001L 9.29999 27.8L 6.29999 26.4L 21.3 -1.2207e-05ZM 17.2 20.4C 17.2 19.5 17.4 18.6 17.7 17.8C 18 17 18.5 16.3 19.1 15.7C 19.7 15.1 20.4 14.6 21.2 14.3C 22 14 22.9 13.8 23.8 13.8C 24.7 13.8 25.6 14 26.4 14.3C 27.2 14.6 27.9 15.1 28.5 15.7C 29.1 16.3 29.6 17 29.9 17.8C 30.2 18.6 30.4 19.5 30.4 20.4C 30.4 21.3 30.2 22.2 29.9 23C 29.6 23.8 29.1 24.5 28.5 25.1C 27.9 25.7 27.2 26.2 26.4 26.5C 25.6 26.8 24.7 27 23.8 27C 22.9 27 22 26.8 21.2 26.5C 20.4 26.2 19.7 25.7 19.1 25.1C 18.5 24.5 18 23.8 17.7 23C 17.4 22.2 17.2 21.3 17.2 20.4ZM 27.1 20.4C 27.1 19.5 26.8 18.7 26.2 18.1C 25.6 17.5 24.8 17.2 23.9 17.2C 23 17.2 22.2 17.5 21.6 18.1C 21 18.7 20.7 19.5 20.7 20.4C 20.7 21.3 21 22.1 21.6 22.7C 22.2 23.3 23 23.6 23.9 23.6C 24.8 23.6 25.6 23.3 26.2 22.7C 26.8 22 27.1 21.3 27.1 20.4Z"/>
<path id="path15_fill" d="M 7.49999 5.30001L 2.49999 9.39999L -6.10352e-06 6.39999L 7.99999 -6.10352e-06L 11.9 -6.10352e-06L 11.9 25.5L 7.6 25.5L 7.6 5.30001L 7.49999 5.30001Z"/>
<path id="path16_fill" d="M 14.5 0.199994L 8.00001 9.59999C 8.30001 9.49999 8.79999 9.3 9.29999 9.3C 9.79999 9.2 10.3 9.19999 10.7 9.19999C 11.8 9.19999 12.9 9.4 13.9 9.8C 14.9 10.2 15.7 10.8 16.5 11.5C 17.2 12.2 17.8 13.1 18.2 14.1C 18.6 15.1 18.8 16.2 18.8 17.3C 18.8 18.6 18.6 19.9 18.1 21C 17.6 22.1 17 23 16.1 23.8C 15.3 24.6 14.3 25.2 13.1 25.6C 12 26 10.7 26.2 9.4 26.2C 8.1 26.2 6.8 26 5.7 25.5C 4.6 25.1 3.6 24.4 2.7 23.6C 1.9 22.8 1.2 21.9 0.700003 20.8C 0.200003 19.7 6.10352e-06 18.6 6.10352e-06 17.4C 6.10352e-06 16.7 0.100003 16 0.200003 15.4C 0.300003 14.8 0.500003 14.2 0.700003 13.6C 0.900003 13 1.20001 12.4 1.50001 11.8C 1.80001 11.2 2.2 10.6 2.6 9.90001L 9.00001 1.2207e-05L 14.5 1.2207e-05L 14.5 0.199994ZM 4.6 17.7C 4.6 18.4 4.7 19 4.9 19.6C 5.1 20.2 5.5 20.7 5.9 21.2C 6.3 21.7 6.8 22 7.4 22.3C 8 22.6 8.7 22.7 9.4 22.7C 10.9 22.7 12 22.2 12.9 21.3C 13.8 20.4 14.2 19.2 14.2 17.6C 14.2 16.9 14.1 16.2 13.9 15.6C 13.7 15 13.3 14.5 12.9 14C 12.5 13.6 12 13.2 11.4 13C 10.8 12.7 10.2 12.6 9.4 12.6C 8.7 12.6 8 12.7 7.4 13C 6.8 13.2 6.29999 13.6 5.79999 14C 5.39999 14.4 4.99999 15 4.79999 15.6C 4.69999 16.3 4.6 17 4.6 17.7Z"/>
<path id="path17_fill" d="M -6.10352e-06 7.40001C -6.10352e-06 6.50001 0.199994 5.60001 0.499994 4.80001C 0.799994 4.00001 1.3 3.3 1.9 2.7C 2.5 2.1 3.19999 1.60001 3.99999 1.30001C 4.79999 1.00001 5.7 0.800006 6.6 0.800006C 7.5 0.800006 8.40001 1.00001 9.20001 1.30001C 10 1.60001 10.7 2.1 11.3 2.7C 11.9 3.3 12.4 4.00001 12.7 4.80001C 13 5.60001 13.2 6.50001 13.2 7.40001C 13.2 8.30001 13 9.19999 12.7 9.99999C 12.4 10.8 11.9 11.5 11.3 12.1C 10.7 12.7 10 13.2 9.20001 13.5C 8.40001 13.8 7.5 14 6.6 14C 5.7 14 4.79999 13.8 3.99999 13.5C 3.19999 13.2 2.5 12.7 1.9 12.1C 1.3 11.5 0.799994 10.8 0.499994 9.99999C 0.199994 9.19999 -6.10352e-06 8.30001 -6.10352e-06 7.40001ZM 9.9 7.40001C 9.9 6.50001 9.59999 5.69999 8.99999 5.09999C 8.39999 4.49999 7.60001 4.2 6.70001 4.2C 5.80001 4.2 5 4.49999 4.4 5.09999C 3.8 5.69999 3.49999 6.50001 3.49999 7.40001C 3.49999 8.30001 3.8 9.1 4.4 9.7C 5 10.3 5.80001 10.6 6.70001 10.6C 7.60001 10.6 8.39999 10.3 8.99999 9.7C 9.59999 9.1 9.9 8.30001 9.9 7.40001ZM 21.3 -1.2207e-05L 24.3 1.40001L 9.3 27.8L 6.3 26.4L 21.3 -1.2207e-05ZM 17.2 20.4C 17.2 19.5 17.4 18.6 17.7 17.8C 18 17 18.5 16.3 19.1 15.7C 19.7 15.1 20.4 14.6 21.2 14.3C 22 14 22.9 13.8 23.8 13.8C 24.7 13.8 25.6 14 26.4 14.3C 27.2 14.6 27.9 15.1 28.5 15.7C 29.1 16.3 29.6 17 29.9 17.8C 30.2 18.6 30.4 19.5 30.4 20.4C 30.4 21.3 30.2 22.2 29.9 23C 29.6 23.8 29.1 24.5 28.5 25.1C 27.9 25.7 27.2 26.2 26.4 26.5C 25.6 26.8 24.7 27 23.8 27C 22.9 27 22 26.8 21.2 26.5C 20.4 26.2 19.7 25.7 19.1 25.1C 18.5 24.5 18 23.8 17.7 23C 17.4 22.2 17.2 21.3 17.2 20.4ZM 27.1 20.4C 27.1 19.5 26.8 18.7 26.2 18.1C 25.6 17.5 24.8 17.2 23.9 17.2C 23 17.2 22.2 17.5 21.6 18.1C 21 18.7 20.7 19.5 20.7 20.4C 20.7 21.3 21 22.1 21.6 22.7C 22.2 23.3 23 23.6 23.9 23.6C 24.8 23.6 25.6 23.3 26.2 22.7C 26.8 22 27.1 21.3 27.1 20.4Z"/>
<path id="path18_fill" d="M 7.5 5.3L 2.5 9.40001L 0 6.40001L 8 1.2207e-05L 11.9 1.2207e-05L 11.9 25.5L 7.6 25.5L 7.6 5.3L 7.5 5.3Z"/>
<path id="path19_fill" d="M 11.8 20.2L 1.52588e-06 20.2L 1.52588e-06 16.4L 10.8 1.2207e-05L 16 1.2207e-05L 16 16.5L 19.6 16.5L 19.6 20.2L 16 20.2L 16 25.5L 11.8 25.5L 11.8 20.2ZM 11.8 5.09999L 4.5 16.5L 11.8 16.5L 11.8 5.09999Z"/>
<path id="path20_fill" d="M 1.52588e-06 7.4C 1.52588e-06 6.5 0.200002 5.59999 0.500002 4.79999C 0.800002 3.99999 1.3 3.29999 1.9 2.69999C 2.5 2.09999 3.2 1.59999 4 1.29999C 4.8 0.999994 5.7 0.799994 6.6 0.799994C 7.5 0.799994 8.4 0.999994 9.2 1.29999C 10 1.59999 10.7 2.09999 11.3 2.69999C 11.9 3.29999 12.4 3.99999 12.7 4.79999C 13 5.59999 13.2 6.5 13.2 7.4C 13.2 8.3 13 9.20001 12.7 10C 12.4 10.8 11.9 11.5 11.3 12.1C 10.7 12.7 10 13.2 9.2 13.5C 8.4 13.8 7.5 14 6.6 14C 5.7 14 4.8 13.8 4 13.5C 3.2 13.2 2.5 12.7 1.9 12.1C 1.3 11.5 0.800002 10.8 0.500002 10C 0.200002 9.20001 1.52588e-06 8.3 1.52588e-06 7.4ZM 9.9 7.4C 9.9 6.5 9.6 5.70001 9 5.10001C 8.4 4.50001 7.6 4.19999 6.7 4.19999C 5.8 4.19999 5 4.50001 4.4 5.10001C 3.8 5.70001 3.5 6.5 3.5 7.4C 3.5 8.3 3.8 9.09999 4.4 9.69999C 5 10.3 5.8 10.6 6.7 10.6C 7.6 10.6 8.4 10.3 9 9.69999C 9.6 9.09999 9.9 8.3 9.9 7.4ZM 21.3 6.10352e-06L 24.3 1.4L 9.3 27.8L 6.3 26.4L 21.3 6.10352e-06ZM 17.2 20.3C 17.2 19.4 17.4 18.5 17.7 17.7C 18 16.9 18.5 16.2 19.1 15.6C 19.7 15 20.4 14.5 21.2 14.2C 22 13.9 22.9 13.7 23.8 13.7C 24.7 13.7 25.6 13.9 26.4 14.2C 27.2 14.5 27.9 15 28.5 15.6C 29.1 16.2 29.6 16.9 29.9 17.7C 30.2 18.5 30.4 19.4 30.4 20.3C 30.4 21.2 30.2 22.1 29.9 22.9C 29.6 23.7 29.1 24.4 28.5 25C 27.9 25.6 27.2 26.1 26.4 26.4C 25.6 26.7 24.7 26.9 23.8 26.9C 22.9 26.9 22 26.7 21.2 26.4C 20.4 26.1 19.7 25.6 19.1 25C 18.5 24.4 18 23.7 17.7 22.9C 17.4 22.2 17.2 21.3 17.2 20.3ZM 27.1 20.3C 27.1 19.4 26.8 18.6 26.2 18C 25.6 17.4 24.8 17.1 23.9 17.1C 23 17.1 22.2 17.4 21.6 18C 21 18.6 20.7 19.4 20.7 20.3C 20.7 21.2 21 22 21.6 22.6C 22.2 23.2 23 23.5 23.9 23.5C 24.8 23.5 25.6 23.2 26.2 22.6C 26.8 22 27.1 21.3 27.1 20.3Z"/>
</defs>
</svg>
