<svg width="938" height="466" viewBox="0 0 938 466" version="1.1" xmlns="http://www.w3.org/2000/svg" xmlns:xlink="http://www.w3.org/1999/xlink">
<title>Group</title>
<desc>Created using Figma</desc>
<g id="Canvas" transform="translate(-5473 -2201)">
<g id="Group">
<g id="Group">
<g id="Vector">
<use xlink:href="#path0_stroke" transform="translate(5473 2202)" fill="#232C33" fill-opacity="0.43"/>
</g>
</g>
<g id="Ellipse 2">
<use xlink:href="#path1_fill" transform="translate(5840.82 2400.58)" fill="#F6F6F6"/>
</g>
<g id="Ellipse 2">
<use xlink:href="#path1_fill" transform="translate(5930.74 2554.3)" fill="#F6F6F6"/>
</g>
<g id="Ellipse 2">
<use xlink:href="#path1_fill" transform="translate(5930.74 2244.01)" fill="#F6F6F6"/>
</g>
<g id="Ellipse 2">
<use xlink:href="#path1_fill" transform="translate(6108.67 2244.01)" fill="#F6F6F6"/>
</g>
<g id="Ellipse 2">
<use xlink:href="#path1_fill" transform="translate(6019.7 2398.67)" fill="#F6F6F6"/>
</g>
<g id="Ellipse 2">
<use xlink:href="#path1_fill" transform="translate(6197.63 2399.63)" fill="#F6F6F6"/>
</g>
<g id="Group">
<g id="Vector">
<use xlink:href="#path2_stroke" transform="translate(6210.07 2414.91)" fill="#174F9D"/>
</g>
</g>
<g id="Group">
<g id="Vector">
<use xlink:href="#path2_stroke" transform="translate(5943.17 2261.19)" fill="#174F9D"/>
</g>
</g>
<g id="Group">
<g id="Group">
<g id="Vector">
<use xlink:href="#path3_stroke" transform="translate(5944.13 2565.75)" fill="#174F9D"/>
</g>
<g id="Vector">
<use xlink:href="#path4_stroke" transform="translate(5967.63 2589.21)" fill="#174F9D"/>
</g>
</g>
</g>
<g id="Group">
<g id="Group">
<g id="Vector">
<use xlink:href="#path5_stroke" transform="translate(6032.14 2417.77)" fill="#174F9D"/>
</g>
<g id="Vector">
<use xlink:href="#path6_stroke" transform="translate(6037.64 2425.26)" fill="#174F9D"/>
</g>
<g id="Vector">
<use xlink:href="#path7_stroke" transform="translate(6064.16 2427.02)" fill="#174F9D"/>
</g>
</g>
</g>
<g id="Ellipse 2">
<use xlink:href="#path1_fill" transform="translate(6108.67 2555.25)" fill="#F6F6F6"/>
</g>
<g id="Group">
<g id="Group">
<g id="Vector">
<use xlink:href="#path5_stroke" transform="translate(6121.1 2574.35)" fill="#174F9D"/>
</g>
<g id="Vector">
<use xlink:href="#path6_stroke" transform="translate(6126.6 2581.84)" fill="#174F9D"/>
</g>
<g id="Vector">
<use xlink:href="#path7_stroke" transform="translate(6153.13 2583.6)" fill="#174F9D"/>
</g>
</g>
</g>
<g id="Group">
<g id="Group">
<g id="Vector">
<use xlink:href="#path8_stroke" transform="translate(5854.21 2416.81)" fill="#174F9D"/>
</g>
<g id="Vector">
<use xlink:href="#path9_stroke" transform="translate(5859.3 2421.02)" fill="#174F9D"/>
</g>
<g id="Vector">
<use xlink:href="#path10_stroke" transform="translate(5875.18 2422.1)" fill="#174F9D"/>
</g>
<g id="Vector">
<use xlink:href="#path11_stroke" transform="translate(5875.18 2427.13)" fill="#174F9D"/>
</g>
<g id="Vector">
<use xlink:href="#path11_stroke" transform="translate(5875.18 2432.08)" fill="#174F9D"/>
</g>
<g id="Vector">
<use xlink:href="#path12_stroke" transform="translate(5859.3 2437.2)" fill="#174F9D"/>
</g>
<g id="Vector">
<use xlink:href="#path12_stroke" transform="translate(5859.3 2442.15)" fill="#174F9D"/>
</g>
<g id="Vector">
<use xlink:href="#path13_stroke" transform="translate(5859.3 2447.19)" fill="#174F9D"/>
</g>
</g>
</g>
<g id="Group">
<g id="Group">
<g id="Group">
<g id="Vector">
<use xlink:href="#path14_fill" transform="translate(6127.58 2281.8)" fill="#174F9D"/>
</g>
</g>
<g id="Group">
<g id="Vector">
<use xlink:href="#path15_fill" transform="translate(6144.7 2264.77)" fill="#174F9D"/>
</g>
</g>
<g id="Group">
<g id="Vector">
<use xlink:href="#path16_fill" transform="translate(6143.41 2261.46)" fill="#174F9D"/>
</g>
</g>
<g id="Group">
<g id="Vector">
<use xlink:href="#path17_fill" transform="translate(6136.48 2289.37)" fill="#174F9D"/>
</g>
</g>
<g id="Group">
<g id="Vector">
<use xlink:href="#path18_fill" transform="translate(6123.97 2261.19)" fill="#174F9D"/>
</g>
</g>
<g id="Group">
<g id="Vector">
<use xlink:href="#path19_fill" transform="translate(6145.24 2281.46)" fill="#174F9D"/>
</g>
</g>
<g id="Group">
<g id="Vector">
<use xlink:href="#path20_fill" transform="translate(6127.03 2265.45)" fill="#174F9D"/>
</g>
<g id="Vector">
<use xlink:href="#path21_fill" transform="translate(6130.56 2265.38)" fill="#174F9D"/>
</g>
</g>
<g id="Group">
<g id="Vector">
<use xlink:href="#path22_fill" transform="translate(6148.71 2286.26)" fill="#174F9D"/>
</g>
<g id="Vector">
<use xlink:href="#path23_fill" transform="translate(6153.6 2286.26)" fill="#174F9D"/>
</g>
</g>
</g>
</g>
</g>
</g>
<defs>
<path id="path0_stroke" d="M 179.518 0L 179.951 -0.249991L 179.807 -0.5L 179.518 -0.5L 179.518 0ZM 446.844 463.045L 446.411 463.295L 446.555 463.545L 446.844 463.545L 446.844 463.045ZM 625.108 463.045L 625.108 463.545L 625.397 463.545L 625.541 463.295L 625.108 463.045ZM 758.806 231.593L 759.239 231.843L 759.384 231.593L 759.239 231.343L 758.806 231.593ZM 625.108 0L 625.541 -0.249983L 625.397 -0.5L 625.108 -0.5L 625.108 0ZM 402.255 231.593L 401.82 231.841L 402.251 232.596L 402.687 231.844L 402.255 231.593ZM 313.768 76.3786L 314.203 76.1309L 314.198 76.123L 313.768 76.3786ZM 446.844 0L 447.277 -0.25004L 447.132 -0.5L 446.844 -0.5L 446.844 0ZM 714.24 463.045L 713.807 463.295L 713.952 463.545L 714.24 463.545L 714.24 463.045ZM 803.372 463.045L 803.372 463.545L 803.661 463.545L 803.805 463.295L 803.372 463.045ZM 937 231.452L 937.433 231.702L 937.577 231.452L 937.433 231.202L 937 231.452ZM 803.372 0L 803.805 -0.249998L 803.661 -0.5L 803.372 -0.5L 803.372 0ZM 714.24 0L 714.24 -0.5L 713.951 -0.5L 713.807 -0.249564L 714.24 0ZM 491.516 386.667L 491.516 387.167L 491.806 387.167L 491.95 386.916L 491.516 386.667ZM 313.109 386.667L 313.109 386.167L 312.82 386.167L 312.676 386.416L 313.109 386.667ZM 268.329 464L 268.329 464.5L 268.618 464.5L 268.762 464.251L 268.329 464ZM 536.659 0L 536.659 -0.5L 536.371 -0.5L 536.226 -0.25097L 536.659 0ZM 268.329 0L 268.329 -0.5L 267.45 -0.5L 267.9 0.25564L 268.329 0ZM 1.25357 0.5L 179.518 0.5L 179.518 -0.5L 1.25357 -0.5L 1.25357 0.5ZM 179.085 0.249991L 446.411 463.295L 447.277 462.795L 179.951 -0.249991L 179.085 0.249991ZM 446.844 463.545L 625.108 463.545L 625.108 462.545L 446.844 462.545L 446.844 463.545ZM 625.541 463.295L 759.239 231.843L 758.373 231.343L 624.675 462.795L 625.541 463.295ZM 759.239 231.343L 625.541 -0.249983L 624.675 0.249983L 758.373 231.843L 759.239 231.343ZM 402.689 231.346L 314.203 76.131L 313.334 76.6262L 401.82 231.841L 402.689 231.346ZM 446.411 0.25004L 713.807 463.295L 714.673 462.795L 447.277 -0.25004L 446.411 0.25004ZM 714.24 463.545L 803.372 463.545L 803.372 462.545L 714.24 462.545L 714.24 463.545ZM 803.805 463.295L 937.433 231.702L 936.567 231.202L 802.939 462.795L 803.805 463.295ZM 937.433 231.202L 803.805 -0.249998L 802.939 0.249998L 936.567 231.702L 937.433 231.202ZM 803.372 -0.5L 714.24 -0.5L 714.24 0.5L 803.372 0.5L 803.372 -0.5ZM 713.807 -0.249564L 491.083 386.417L 491.95 386.916L 714.674 0.249564L 713.807 -0.249564ZM 491.516 386.167L 313.109 386.167L 313.109 387.167L 491.516 387.167L 491.516 386.167ZM 312.676 386.416L 267.897 463.749L 268.762 464.251L 313.541 386.917L 312.676 386.416ZM 268.329 463.5L 0 463.5L 0 464.5L 268.329 464.5L 268.329 463.5ZM 625.108 -0.5L 536.659 -0.5L 536.659 0.5L 625.108 0.5L 625.108 -0.5ZM 536.226 -0.25097L 401.822 231.342L 402.687 231.844L 537.091 0.25097L 536.226 -0.25097ZM 314.198 76.123L 268.759 -0.25564L 267.9 0.25564L 313.339 76.6342L 314.198 76.123ZM 268.329 0.5L 446.844 0.5L 446.844 -0.5L 268.329 -0.5L 268.329 0.5Z"/>
<path id="path1_fill" d="M 68.876 34.3704C 68.876 53.3526 53.4576 68.7407 34.438 68.7407C 15.4184 68.7407 0 53.3526 0 34.3704C 0 15.3881 15.4184 0 34.438 0C 53.4576 0 68.876 15.3881 68.876 34.3704Z"/>
<path id="path2_stroke" d="M 29.9885 30.8748L 29.9885 30.3748L 29.9857 30.3748L 29.9885 30.8748ZM 16.5994 30.9518L 16.5994 31.4518L 16.6023 31.4518L 16.5994 30.9518ZM 16.0513 31.1828L 15.7007 30.8263L 15.6925 30.8343L 15.6847 30.8428L 16.0513 31.1828ZM 9.55249 38.1893L 9.05249 38.1893L 9.05249 39.4636L 9.91907 38.5293L 9.55249 38.1893ZM 9.55249 30.9518L 10.0525 30.9518L 10.0525 30.4518L 9.55249 30.4518L 9.55249 30.9518ZM 10.1789 8.62339L 10.1789 9.12339L 10.1808 9.12339L 10.1789 8.62339ZM 29.7537 8.5464L 29.7537 8.04639L 29.7517 8.0464L 29.7537 8.5464ZM 32.4941 9.8553L 32.9081 9.57465L 32.9015 9.56534L 32.4941 9.8553ZM 14.0938 -3.41924e-16L 14.0953 -0.5L 14.0938 -0.5L 14.0938 -3.41924e-16ZM 40.9504 0.0769946L 40.949 0.576995L 40.9504 0.576995L 40.9504 0.0769946ZM 38.5232 22.4054L 38.5232 21.9054L 38.0232 21.9054L 38.0232 22.4054L 38.5232 22.4054ZM 38.5232 29.6429L 38.1538 29.98L 39.0232 30.9325L 39.0232 29.6429L 38.5232 29.6429ZM 32.5422 27.872C 32.5422 29.2736 31.3731 30.3748 29.9885 30.3748L 29.9885 31.3748C 31.8926 31.3748 33.5422 29.8582 33.5422 27.872L 32.5422 27.872ZM 29.9857 30.3748L 16.5965 30.4518L 16.6023 31.4518L 29.9914 31.3748L 29.9857 30.3748ZM 16.5994 30.4518C 16.2169 30.4518 15.9384 30.5926 15.7007 30.8263L 16.4019 31.5393C 16.4503 31.4917 16.4792 31.4751 16.4962 31.4677C 16.5113 31.4611 16.5392 31.4518 16.5994 31.4518L 16.5994 30.4518ZM 15.6847 30.8428L 9.1859 37.8493L 9.91907 38.5293L 16.4179 31.5228L 15.6847 30.8428ZM 10.0525 38.1893L 10.0525 30.9518L 9.05249 30.9518L 9.05249 38.1893L 10.0525 38.1893ZM 9.55249 30.4518L 3.05366 30.4518L 3.05366 31.4518L 9.55249 31.4518L 9.55249 30.4518ZM 3.05366 30.4518C 1.60765 30.4518 0.5 29.2902 0.5 27.949L -0.5 27.949C -0.5 29.8416 1.05452 31.4518 3.05366 31.4518L 3.05366 30.4518ZM 0.5 27.949L 0.5 11.6262L -0.5 11.6262L -0.5 27.949L 0.5 27.949ZM 0.5 11.6262C 0.5 10.2246 1.66913 9.12339 3.05366 9.12339L 3.05366 8.12339C 1.14964 8.12339 -0.5 9.64004 -0.5 11.6262L 0.5 11.6262ZM 3.05366 9.12339L 10.1789 9.12339L 10.1789 8.12339L 3.05366 8.12339L 3.05366 9.12339ZM 10.1808 9.12339L 29.7556 9.04639L 29.7517 8.0464L 10.1769 8.12339L 10.1808 9.12339ZM 29.7537 9.0464L 29.9102 9.0464L 29.9102 8.0464L 29.7537 8.0464L 29.7537 9.0464ZM 29.9102 9.0464C 30.8395 9.0464 31.6295 9.50283 32.0868 10.1453L 32.9015 9.56534C 32.2626 8.66788 31.1734 8.0464 29.9102 8.0464L 29.9102 9.0464ZM 32.0803 10.1359C 32.3638 10.5482 32.5505 11.0238 32.5422 11.5492L 33.5422 11.5492C 33.5339 10.8426 33.2508 10.0864 32.908 9.57473L 32.0803 10.1359ZM 32.5422 11.5492L 32.5422 25.7932L 33.5422 25.7932L 33.5422 11.5492L 32.5422 11.5492ZM 32.5422 25.7932L 32.5422 27.872L 33.5422 27.872L 33.5422 25.7932L 32.5422 25.7932ZM 11.5402 8.5464L 11.5402 3.00279L 10.5402 3.00279L 10.5402 8.5464L 11.5402 8.5464ZM 11.5402 3.00279C 11.5402 1.60117 12.7093 0.5 14.0938 0.5L 14.0938 -0.5C 12.1898 -0.5 10.5402 1.01665 10.5402 3.00279L 11.5402 3.00279ZM 14.0924 0.499998L 40.949 0.576993L 40.9519 -0.423003L 14.0953 -0.499998L 14.0924 0.499998ZM 40.9504 0.576995C 42.3964 0.576995 43.5041 1.73862 43.5041 3.07978L 44.5041 3.07978C 44.5041 1.18718 42.9496 -0.423005 40.9504 -0.423005L 40.9504 0.576995ZM 43.5041 3.07978L 43.5041 19.4026L 44.5041 19.4026L 44.5041 3.07978L 43.5041 3.07978ZM 43.5041 19.4026C 43.5041 20.8042 42.335 21.9054 40.9504 21.9054L 40.9504 22.9054C 42.8544 22.9054 44.5041 21.3888 44.5041 19.4026L 43.5041 19.4026ZM 40.9504 21.9054L 38.5232 21.9054L 38.5232 22.9054L 40.9504 22.9054L 40.9504 21.9054ZM 38.0232 22.4054L 38.0232 29.6429L 39.0232 29.6429L 39.0232 22.4054L 38.0232 22.4054ZM 38.8925 29.3058L 33.4115 23.3003L 32.6729 23.9744L 38.1538 29.98L 38.8925 29.3058Z"/>
<path id="path3_stroke" d="M 4.36128 25.4715L 4.00564 25.8229L 4.00808 25.8254L 4.36128 25.4715ZM 25.5216 25.4715L 25.8723 25.8278L 25.8748 25.8254L 25.5216 25.4715ZM 25.5216 4.35272L 25.8772 4.00126L 25.8748 3.99882L 25.5216 4.35272ZM 6.21887 23.6175L 6.57505 23.2666L 6.57207 23.2636L 6.21887 23.6175ZM 6.21887 6.20666L 6.5691 6.56352L 6.57207 6.56056L 6.21887 6.20666ZM 23.664 6.20666L 23.3078 6.55759L 23.3108 6.56056L 23.664 6.20666ZM 4.00808 3.99882C -2.00403 9.99912 -2.00054 19.7453 4.00564 25.8229L 4.71692 25.12C -0.906978 19.4292 -0.903491 10.3136 4.71449 4.70662L 4.00808 3.99882ZM 4.00808 25.8254C 10.0196 31.8251 19.7833 31.8217 25.8723 25.8278L 25.1708 25.1151C 19.4683 30.7285 10.333 30.7251 4.71449 25.1176L 4.00808 25.8254ZM 25.8748 25.8254C 31.8869 19.8251 31.8834 10.0789 25.8772 4.00126L 25.1659 4.70418C 30.7898 10.395 30.7864 19.5106 25.1684 25.1176L 25.8748 25.8254ZM 25.8748 3.99882C 19.8646 -1.99961 10.0183 -1.99961 4.00808 3.99882L 4.71449 4.70662C 10.3343 -0.902207 19.5485 -0.902207 25.1684 4.70662L 25.8748 3.99882ZM 23.3108 23.2636C 18.6584 27.9068 11.1427 27.9025 6.57503 23.2666L 5.8627 23.9685C 10.8253 29.0052 18.9778 29.0009 24.0172 23.9714L 23.3108 23.2636ZM 6.57207 23.2636C 1.92027 18.621 1.92458 11.1216 6.56909 6.56351L 5.86865 5.8498C 0.821408 10.8032 0.825726 18.9414 5.86566 23.9714L 6.57207 23.2636ZM 6.57207 6.56056C 11.2244 1.91735 18.7402 1.92165 23.3078 6.55758L 24.0202 5.85574C 19.0576 0.818954 10.9051 0.823254 5.86566 5.85276L 6.57207 6.56056ZM 23.3108 6.56056C 27.9609 11.2016 27.9609 18.6226 23.3108 23.2636L 24.0172 23.9714C 29.0588 18.9397 29.0588 10.8845 24.0172 5.85276L 23.3108 6.56056Z"/>
<path id="path4_stroke" d="M 19.545 15.7988L 19.8982 16.1527L 20.2528 15.7988L 19.8982 15.4449L 19.545 15.7988ZM 15.8298 19.5066L 15.4766 19.8605L 15.8298 20.213L 16.183 19.8605L 15.8298 19.5066ZM 3.08092e-07 3.70787L -0.292367 3.30226L -0.769568 3.64623L -0.353205 4.06177L 3.08092e-07 3.70787ZM 3.71517 3.07487e-07L 4.06837 -0.3539L 3.65362 -0.767836L 3.3101 -0.293123L 3.71517 3.07487e-07ZM 19.1918 15.4449L 15.4766 19.1527L 16.183 19.8605L 19.8982 16.1527L 19.1918 15.4449ZM 16.183 19.1527L 0.353206 3.35397L -0.353205 4.06177L 15.4766 19.8605L 16.183 19.1527ZM 0.292367 4.11349C 1.77758 3.04097 3.04558 1.77546 4.12023 0.293124L 3.3101 -0.293123C 2.28488 1.12636 1.12994 2.27902 -0.292367 3.30226L 0.292367 4.11349ZM 3.36196 0.353901L 19.1918 16.1527L 19.8982 15.4449L 4.06837 -0.3539L 3.36196 0.353901Z"/>
<path id="path5_stroke" d="M 31.9482 9.33023L 31.4563 9.42022L 31.5501 9.93258L 32.0582 9.81798L 31.9482 9.33023ZM 10.0968 7.4183L 10.0968 7.9183L 10.4416 7.9183L 10.5642 7.59602L 10.0968 7.4183ZM 5.57586 11.5481L 5.78046 12.0043L 6.06534 11.8765L 6.07559 11.5645L 5.57586 11.5481ZM 8.21309 29.5202L 8.71309 29.5202L 8.71309 29.0751L 8.27094 29.0236L 8.21309 29.5202ZM 8.21309 29.5967L 7.71309 29.5967L 7.71309 30.0967L 8.21309 30.0967L 8.21309 29.5967ZM 33.9073 8.6008C 33.1976 8.60179 32.5397 8.68482 31.8382 8.84248L 32.0582 9.81798C 32.7129 9.66972 33.2606 9.5998 33.9073 9.6008L 33.9073 8.6008ZM 32.44 9.24023C 31.4177 3.65303 26.5421 -0.5 20.7965 -0.5L 20.7965 0.5C 26.0518 0.5 30.5196 4.3006 31.4563 9.42022L 32.44 9.24023ZM 20.7965 -0.5C 15.6824 -0.5 11.3578 2.69569 9.62948 7.24058L 10.5642 7.59602C 12.1513 3.4225 16.1151 0.5 20.7965 0.5L 20.7965 -0.5ZM 10.0968 6.9183C 9.94613 6.9183 9.87078 6.9183 9.72008 6.9183L 9.72008 7.9183C 9.87078 7.9183 9.94613 7.9183 10.0968 7.9183L 10.0968 6.9183ZM 9.72008 6.9183C 7.17378 6.9183 5.1598 8.98408 5.07613 11.5317L 6.07559 11.5645C 6.14262 9.52342 7.74541 7.9183 9.72008 7.9183L 9.72008 6.9183ZM 5.37126 11.0918C 1.9595 12.6219 -0.5 16.084 -0.5 20.19L 0.5 20.19C 0.5 16.4953 2.71217 13.3803 5.78046 12.0043L 5.37126 11.0918ZM -0.5 20.19C -0.5 25.2612 3.30623 29.4521 8.15525 30.0169L 8.27094 29.0236C 3.92732 28.5177 0.5 24.755 0.5 20.19L -0.5 20.19ZM 7.71309 29.5202L 7.71309 29.5967L 8.71309 29.5967L 8.71309 29.5202L 7.71309 29.5202ZM 8.21309 30.0967L 33.9073 30.0967L 33.9073 29.0967L 8.21309 29.0967L 8.21309 30.0967ZM 33.9073 30.0967C 39.7662 30.0967 44.5041 25.2772 44.5041 19.3488L 43.5041 19.3488C 43.5041 24.739 39.2 29.0967 33.9073 29.0967L 33.9073 30.0967ZM 44.5041 19.3488C 44.5041 13.4203 39.7662 8.6008 33.9073 8.6008L 33.9073 9.6008C 39.2 9.6008 43.5041 13.9585 43.5041 19.3488L 44.5041 19.3488Z"/>
<path id="path6_stroke" d="M 1.09606 6.22607C 0.679635 5.60189 0.494847 4.9759 0.5 4.20625L -0.5 4.20625C -0.494847 5.1191 -0.227539 6.02265 0.260233 6.77507L 1.09606 6.22607ZM 0.5 4.20625C 0.5 2.11052 2.16095 0.5 4.14422 0.5L 4.14422 -0.5C 1.60652 -0.5 -0.5 1.56039 -0.5 4.20625L 0.5 4.20625ZM 4.14422 0.5C 4.89187 0.493363 5.44741 0.686011 6.08377 1.04735L 6.57494 0.176286C 5.85501 -0.227147 5.05426 -0.493363 4.14422 -0.5L 4.14422 0.5Z"/>
<path id="path7_stroke" d="M -0.493392 0.08102L -0.191993 1.91647L 0.794791 1.75444L 0.493392 -0.0810194L -0.493392 0.08102Z"/>
<path id="path8_stroke" d="M 0 0L 0 -0.5L -0.5 -0.5L -0.5 0L 0 0ZM 40.1776 0L 40.6776 0L 40.6776 -0.5L 40.1776 -0.5L 40.1776 0ZM 40.1776 35.3251L 40.1776 35.8251L 40.6776 35.8251L 40.6776 35.3251L 40.1776 35.3251ZM 0 35.3251L -0.5 35.3251L -0.5 35.8251L 0 35.8251L 0 35.3251ZM 0 0.5L 40.1776 0.5L 40.1776 -0.5L 0 -0.5L 0 0.5ZM 39.6776 0L 39.6776 35.3251L 40.6776 35.3251L 40.6776 0L 39.6776 0ZM 40.1776 34.8251L 0 34.8251L 0 35.8251L 40.1776 35.8251L 40.1776 34.8251ZM 0.5 35.3251L 0.5 0L -0.5 0L -0.5 35.3251L 0.5 35.3251Z"/>
<path id="path9_stroke" d="M -7.96598e-08 -7.87118e-08L -7.96598e-08 -0.5L -0.5 -0.5L -0.5 -7.87118e-08L -7.96598e-08 -7.87118e-08ZM 12.3624 -7.87118e-08L 12.8624 -7.87118e-08L 12.8624 -0.5L 12.3624 -0.5L 12.3624 -7.87118e-08ZM 12.3624 12.2152L 12.3624 12.7152L 12.8624 12.7152L 12.8624 12.2152L 12.3624 12.2152ZM -7.96598e-08 12.2152L -0.5 12.2152L -0.5 12.7152L -7.96598e-08 12.7152L -7.96598e-08 12.2152ZM -7.96598e-08 0.5L 12.3624 0.5L 12.3624 -0.5L -7.96598e-08 -0.5L -7.96598e-08 0.5ZM 11.8624 -7.87118e-08L 11.8624 12.2152L 12.8624 12.2152L 12.8624 -7.87118e-08L 11.8624 -7.87118e-08ZM 12.3624 11.7152L -7.96598e-08 11.7152L -7.96598e-08 12.7152L 12.3624 12.7152L 12.3624 11.7152ZM 0.5 12.2152L 0.5 -7.87118e-08L -0.5 -7.87118e-08L -0.5 12.2152L 0.5 12.2152Z"/>
<path id="path10_stroke" d="M 3.18639e-07 0.5L 14.7012 0.5L 14.7012 -0.5L 3.18639e-07 -0.5L 3.18639e-07 0.5Z"/>
<path id="path11_stroke" d="M 3.18639e-07 0.5L 14.7012 0.5L 14.7012 -0.5L 3.18639e-07 -0.5L 3.18639e-07 0.5Z"/>
<path id="path12_stroke" d="M -7.96598e-08 0.500001L 30.5718 0.500001L 30.5718 -0.499999L -7.96598e-08 -0.499999L -7.96598e-08 0.500001Z"/>
<path id="path13_stroke" d="M -7.96598e-08 0.499999L 30.5718 0.499999L 30.5718 -0.500001L -7.96598e-08 -0.500001L -7.96598e-08 0.499999Z"/>
<path id="path14_fill" d="M 11.6205 11.5528C 5.16465 11.5528 1.29616e-07 6.35066 1.29616e-07 0L 0.67956 0C 0.67956 6.01286 5.57239 10.8772 11.6205 10.8772L 11.6205 11.5528Z"/>
<path id="path15_fill" d="M 11.6205 11.5528L 10.9409 11.5528C 10.9409 5.53994 6.04808 0.675602 0 0.675602L 0 1.28861e-07C 6.38786 1.28861e-07 11.6205 5.20214 11.6205 11.5528Z"/>
<path id="path16_fill" d="M 3.66962 7.2965L 2.59231e-07 3.64825L 3.66962 4.0269e-09L 4.14531 0.472922L 0.951383 3.64825L 4.14531 6.82358L 3.66962 7.2965Z"/>
<path id="path17_fill" d="M 0.475692 7.2965L -2.59231e-07 6.82358L 3.19393 3.64825L -2.59231e-07 0.472923L 0.475692 5.15444e-07L 4.14531 3.64825L 0.475692 7.2965Z"/>
<path id="path18_fill" d="M 6.65968 13.2418C 2.99006 13.2418 0 10.2692 0 6.6209C 0 2.97265 2.99006 0 6.65968 0C 10.3293 0 13.3194 2.97265 13.3194 6.6209C 13.3194 10.2692 10.3293 13.2418 6.65968 13.2418ZM 6.65968 0.675602C 3.32984 0.675602 0.679559 3.31045 0.679559 6.6209C 0.679559 9.93135 3.32984 12.5662 6.65968 12.5662C 9.98952 12.5662 12.6398 9.93135 12.6398 6.6209C 12.6398 3.31045 9.92157 0.675602 6.65968 0.675602Z"/>
<path id="path19_fill" d="M 8.0188 16.0118C 3.60166 16.0118 -5.18463e-07 12.4311 -5.18463e-07 8.03967C -5.18463e-07 3.64825 3.60166 0 8.0188 0C 12.4359 0 16.0376 3.58069 16.0376 7.9721C 16.0376 12.3635 12.4359 16.0118 8.0188 16.0118ZM 8.0188 0.675602C 3.94144 0.675602 0.679559 3.98605 0.679559 7.9721C 0.679559 11.9582 4.0094 15.2686 8.0188 15.2686C 12.0282 15.2686 15.358 11.9582 15.358 7.9721C 15.358 3.98605 12.0282 0.675602 8.0188 0.675602Z"/>
<path id="path20_fill" d="M 1.01934 0.675602L 0.135912 1.14852L 0 0.608042L 1.15525 1.28861e-07L 1.6989 1.28861e-07L 1.6989 5.13458L 1.01934 5.13458L 1.01934 0.675602Z"/>
<path id="path21_fill" d="M 3.46575 2.56729C 3.46575 4.32385 2.78619 5.2697 1.6989 5.2697C 0.679559 5.2697 -1.29616e-07 4.32385 -1.29616e-07 2.63485C -1.29616e-07 0.945843 0.747515 -1.28861e-07 1.76685 -1.28861e-07C 2.85415 -1.28861e-07 3.46575 0.945843 3.46575 2.56729ZM 0.679559 2.63485C 0.679559 3.98605 1.08729 4.72921 1.6989 4.72921C 2.37846 4.72921 2.71824 3.91849 2.71824 2.56729C 2.71824 1.28364 2.37846 0.472922 1.6989 0.472922C 1.08729 0.540482 0.679559 1.28364 0.679559 2.63485Z"/>
<path id="path22_fill" d="M 1.03693e-06 6.2831L 1.03693e-06 5.74262L 0.67956 5.13458C 2.3105 3.64825 2.99006 2.83753 2.99006 1.89169C 2.99006 1.28365 2.65028 0.675601 1.76685 0.675601C 1.22321 0.675601 0.747515 0.945844 0.407736 1.21608L 0.135911 0.608042C 0.543647 0.270241 1.15525 -1.03089e-06 1.90277 -1.03089e-06C 3.26189 -1.03089e-06 3.80553 0.945842 3.80553 1.82413C 3.80553 2.97265 2.99006 3.91849 1.63094 5.13458L 1.15525 5.6075L 3.94145 5.6075L 3.94145 6.2831L 1.03693e-06 6.2831Z"/>
<path id="path23_fill" d="M 4.21327 3.11059C 4.21327 5.20496 3.3978 6.42104 2.03868 6.42104C 0.81547 6.42104 -1.03693e-06 5.27252 -1.03693e-06 3.24571C -1.03693e-06 1.15135 0.883427 0.00282126 2.17459 0.00282126C 3.46575 -0.064739 4.21327 1.08379 4.21327 3.11059ZM 0.815471 3.17815C 0.815471 4.7996 1.29116 5.74544 2.10663 5.74544C 2.99006 5.74544 3.3978 4.73204 3.3978 3.17815C 3.3978 1.62427 2.99006 0.610864 2.10663 0.610864C 1.35912 0.610864 0.815471 1.48915 0.815471 3.17815Z"/>
</defs>
</svg>
