<svg width="3276" height="1626" viewBox="0 0 3276 1626" version="1.1" xmlns="http://www.w3.org/2000/svg" xmlns:xlink="http://www.w3.org/1999/xlink">
<title>Vector</title>
<desc>Created using Figma</desc>
<g id="Canvas" transform="matrix(2 0 0 2 -18322 190)">
<g id="Vector">
<use xlink:href="#path0_stroke" transform="translate(9161 -94)" fill="#FFFFFF" fill-opacity="0.2"/>
</g>
</g>
<defs>
<path id="path0_stroke" d="M 311.857 0L 312.29 0.249821L 312.722 -0.5L 311.857 -0.5L 311.857 0ZM 77.9641 405.5L 77.531 405.25L 77.3869 405.5L 77.531 405.75L 77.9641 405.5ZM 155.928 540.667L 155.495 540.917L 155.928 541.667L 156.361 540.917L 155.928 540.667ZM 467.785 0L 467.785 -0.5L 467.496 -0.5L 467.352 -0.249821L 467.785 0ZM 779.518 0L 779.951 -0.249821L 779.807 -0.5L 779.518 -0.5L 779.518 0ZM 1247.3 811L 1246.87 811.25L 1247.01 811.5L 1247.3 811.5L 1247.3 811ZM 1403.23 811L 1403.23 811.5L 1403.52 811.5L 1403.66 811.25L 1403.23 811ZM 1637 405.5L 1637.43 405.75L 1637.58 405.5L 1637.43 405.25L 1637 405.5ZM 1403.23 0L 1403.66 -0.249722L 1403.52 -0.5L 1403.23 -0.5L 1403.23 0ZM 1091.37 0L 1091.37 -0.5L 1090.51 -0.5L 1090.94 0.249821L 1091.37 0ZM 1325.27 405.5L 1325.7 405.75L 1325.84 405.5L 1325.7 405.25L 1325.27 405.5ZM 1091.37 811L 1091.37 811.5L 1091.66 811.5L 1091.81 811.25L 1091.37 811ZM 779.518 811L 779.085 810.75L 778.652 811.5L 779.518 811.5L 779.518 811ZM 1091.37 270.333L 1091.81 270.583L 1092.24 269.833L 1091.37 269.833L 1091.37 270.333ZM 779.518 270.457L 779.518 269.957L 779.229 269.957L 779.085 270.207L 779.518 270.457ZM 467.785 811L 467.785 811.5L 468.074 811.5L 468.218 811.25L 467.785 811ZM 311.857 811L 311.423 810.75L 310.991 811.5L 311.857 811.5L 311.857 811ZM 623.59 270.333L 624.023 270.583L 624.455 269.833L 623.59 269.833L 623.59 270.333ZM 467.785 270.333L 467.785 269.833L 467.496 269.833L 467.352 270.084L 467.785 270.333ZM 155.928 811L 155.928 811.5L 156.217 811.5L 156.361 811.25L 155.928 811ZM 0 0.5L 311.857 0.5L 311.857 -0.5L 0 -0.5L 0 0.5ZM 311.423 -0.249821L 77.531 405.25L 78.3973 405.75L 312.29 0.249821L 311.423 -0.249821ZM 77.531 405.75L 155.495 540.917L 156.361 540.417L 78.3973 405.25L 77.531 405.75ZM 156.361 540.917L 468.218 0.249821L 467.352 -0.249821L 155.495 540.417L 156.361 540.917ZM 467.785 0.5L 779.518 0.5L 779.518 -0.5L 467.785 -0.5L 467.785 0.5ZM 779.085 0.249821L 1246.87 811.25L 1247.74 810.75L 779.951 -0.249821L 779.085 0.249821ZM 1247.3 811.5L 1403.23 811.5L 1403.23 810.5L 1247.3 810.5L 1247.3 811.5ZM 1403.66 811.25L 1637.43 405.75L 1636.57 405.25L 1402.8 810.75L 1403.66 811.25ZM 1637.43 405.25L 1403.66 -0.249722L 1402.8 0.249722L 1636.57 405.75L 1637.43 405.25ZM 1403.23 -0.5L 1091.37 -0.5L 1091.37 0.5L 1403.23 0.5L 1403.23 -0.5ZM 1090.94 0.249821L 1324.83 405.75L 1325.7 405.25L 1091.81 -0.249821L 1090.94 0.249821ZM 1324.83 405.25L 1090.94 810.75L 1091.81 811.25L 1325.7 405.75L 1324.83 405.25ZM 1091.37 810.5L 779.518 810.5L 779.518 811.5L 1091.37 811.5L 1091.37 810.5ZM 779.951 811.25L 1091.81 270.583L 1090.94 270.084L 779.085 810.75L 779.951 811.25ZM 1091.37 269.833L 779.518 269.957L 779.518 270.957L 1091.37 270.833L 1091.37 269.833ZM 779.085 270.207L 467.352 810.75L 468.218 811.25L 779.951 270.707L 779.085 270.207ZM 467.785 810.5L 311.857 810.5L 311.857 811.5L 467.785 811.5L 467.785 810.5ZM 312.29 811.25L 624.023 270.583L 623.156 270.084L 311.423 810.75L 312.29 811.25ZM 623.59 269.833L 467.785 269.833L 467.785 270.833L 623.59 270.833L 623.59 269.833ZM 467.352 270.084L 155.495 810.75L 156.361 811.25L 468.218 270.583L 467.352 270.084ZM 155.928 810.5L 0 810.5L 0 811.5L 155.928 811.5L 155.928 810.5Z"/>
</defs>
</svg>
