<?xml version="1.0" encoding="utf-8"?>
<!-- Generator: Adobe Illustrator 16.0.0, SVG Export Plug-In . SVG Version: 6.00 Build 0)  -->
<!DOCTYPE svg PUBLIC "-//W3C//DTD SVG 1.1//EN" "http://www.w3.org/Graphics/SVG/1.1/DTD/svg11.dtd">
<svg version="1.1" id="Layer_1" xmlns="http://www.w3.org/2000/svg" xmlns:xlink="http://www.w3.org/1999/xlink" x="0px" y="0px"
	 width="595.28px" height="157.429px" viewBox="0 0 595.28 157.429" enable-background="new 0 0 595.28 157.429"
	 xml:space="preserve">
<rect x="102.828" y="47.195" fill="#ED1C24" width="40.716" height="56.116"/>
<rect x="149.885" y="53.756" fill="#ED1C24" width="40.716" height="49.555"/>
<rect x="196.941" y="60.663" fill="#ED1C24" width="40.716" height="42.648"/>
<rect x="243.999" y="66.706" fill="#ED1C24" width="40.715" height="36.605"/>
<rect x="291.055" y="73.095" fill="#ED1C24" width="40.716" height="30.216"/>
<rect x="338.111" y="79.656" fill="#ED1C24" width="40.716" height="23.655"/>
<rect x="385.168" y="86.044" fill="#ED1C24" width="40.716" height="17.267"/>
<rect x="432.225" y="92.433" fill="#ED1C24" width="40.716" height="10.878"/>
<rect x="479.281" y="98.822" fill="#ED1C24" width="40.716" height="4.489"/>
<g>
	<line fill="none" stroke="#000000" stroke-miterlimit="10" x1="428.601" y1="107.006" x2="428.601" y2="103.311"/>
	<line fill="none" stroke="#000000" stroke-miterlimit="10" x1="334.486" y1="107.006" x2="334.486" y2="103.311"/>
	<line fill="none" stroke="#000000" stroke-miterlimit="10" x1="381.543" y1="107.006" x2="381.543" y2="103.311"/>
	<line fill="none" stroke="#000000" stroke-miterlimit="10" x1="99.204" y1="127.875" x2="99.204" y2="102.848"/>
	<line fill="none" stroke="#000000" stroke-miterlimit="10" x1="475.657" y1="107.006" x2="475.657" y2="103.311"/>
	<line fill="none" stroke="#000000" stroke-miterlimit="10" x1="287.43" y1="107.006" x2="287.43" y2="103.311"/>
	<line fill="none" stroke="#000000" stroke-miterlimit="10" x1="146.26" y1="128.338" x2="146.26" y2="103.311"/>
	<line fill="none" stroke="#000000" stroke-miterlimit="10" x1="522.713" y1="107.006" x2="522.713" y2="103.311"/>
	<line fill="none" stroke="#000000" stroke-miterlimit="10" x1="240.374" y1="107.006" x2="240.374" y2="103.311"/>
	<line fill="none" stroke="#000000" stroke-miterlimit="10" x1="193.317" y1="107.006" x2="193.317" y2="103.311"/>
</g>
<line fill="none" stroke="#000000" stroke-miterlimit="10" x1="99.204" y1="103.311" x2="569.777" y2="103.311"/>
<line fill="none" stroke="#B6B8BA" stroke-miterlimit="10" x1="100.877" y1="127.279" x2="144.903" y2="127.279"/>
<rect x="99.923" y="126.325" fill="#B6B8BA" width="1.907" height="1.908"/>
<rect x="143.671" y="126.325" fill="#B6B8BA" width="1.907" height="1.908"/>
<g>
	<path fill="#5A5B5D" d="M30.891,109.094v7.109h-2.163v-7.109h-2.531v-1.848h7.223v1.848H30.891z"/>
	<path fill="#5A5B5D" d="M43.048,111.688c0,0.707-0.123,1.354-0.367,1.941c-0.245,0.586-0.583,1.088-1.019,1.505
		c-0.434,0.417-0.951,0.74-1.549,0.968c-0.599,0.228-1.248,0.341-1.948,0.341s-1.348-0.113-1.942-0.341s-1.109-0.551-1.543-0.968
		c-0.435-0.417-0.774-0.919-1.019-1.505c-0.245-0.587-0.367-1.234-0.367-1.941c0-0.718,0.123-1.365,0.367-1.942
		s0.584-1.069,1.019-1.474c0.434-0.405,0.949-0.717,1.543-0.937s1.242-0.329,1.942-0.329s1.349,0.109,1.948,0.329
		c0.599,0.22,1.116,0.531,1.549,0.937c0.435,0.404,0.774,0.896,1.019,1.474S43.048,110.97,43.048,111.688z M40.733,111.688
		c0-0.389-0.063-0.751-0.19-1.089c-0.126-0.337-0.301-0.626-0.525-0.866c-0.223-0.24-0.493-0.43-0.809-0.569s-0.664-0.21-1.043-0.21
		s-0.726,0.07-1.037,0.21c-0.312,0.14-0.582,0.329-0.81,0.569c-0.228,0.24-0.403,0.529-0.525,0.866
		c-0.122,0.338-0.183,0.7-0.183,1.089c0,0.404,0.063,0.777,0.189,1.119c0.127,0.342,0.302,0.635,0.525,0.879
		c0.224,0.244,0.491,0.437,0.804,0.575c0.312,0.14,0.658,0.209,1.037,0.209s0.725-0.069,1.037-0.209
		c0.312-0.139,0.582-0.331,0.81-0.575c0.227-0.244,0.404-0.537,0.531-0.879S40.733,112.092,40.733,111.688z"/>
	<path fill="#5A5B5D" d="M49.625,116.204l-3.327-4.125h-0.025v4.125H44.16v-8.957h2.113v3.644h0.038l3.201-3.644h2.707l-3.858,4.125
		l4.086,4.832H49.625z"/>
	<path fill="#5A5B5D" d="M52.839,116.204v-8.957h6.021v1.822h-3.934v1.695h3.719v1.732h-3.719v1.859h4.162v1.848H52.839z"/>
	<path fill="#5A5B5D" d="M65.893,116.204l-3.605-5.857H62.25l0.051,5.857h-2.1v-8.957h2.467l3.593,5.844h0.038l-0.051-5.844h2.1
		v8.957H65.893z"/>
	<path fill="#5A5B5D" d="M74.609,109.575c-0.186-0.236-0.429-0.424-0.728-0.562c-0.299-0.141-0.588-0.209-0.866-0.209
		c-0.143,0-0.289,0.012-0.437,0.037c-0.147,0.025-0.28,0.074-0.398,0.146c-0.118,0.071-0.217,0.164-0.297,0.277
		c-0.081,0.114-0.121,0.26-0.121,0.437c0,0.151,0.032,0.278,0.095,0.38c0.063,0.102,0.156,0.189,0.279,0.266
		c0.122,0.076,0.267,0.145,0.437,0.209c0.168,0.062,0.358,0.128,0.569,0.195c0.303,0.102,0.62,0.213,0.949,0.336
		c0.329,0.122,0.628,0.285,0.898,0.486c0.27,0.203,0.493,0.454,0.67,0.753c0.178,0.3,0.266,0.673,0.266,1.12
		c0,0.514-0.095,0.959-0.285,1.334c-0.19,0.376-0.445,0.686-0.766,0.93c-0.321,0.245-0.688,0.426-1.1,0.545
		c-0.414,0.117-0.839,0.176-1.278,0.176c-0.641,0-1.261-0.111-1.859-0.335c-0.599-0.224-1.097-0.542-1.493-0.954l1.417-1.443
		c0.219,0.271,0.508,0.496,0.867,0.678c0.358,0.182,0.714,0.271,1.069,0.271c0.16,0,0.316-0.017,0.468-0.051
		c0.152-0.033,0.285-0.088,0.399-0.164c0.113-0.076,0.204-0.177,0.271-0.305c0.068-0.126,0.102-0.277,0.102-0.454
		c0-0.169-0.042-0.312-0.126-0.431c-0.085-0.117-0.205-0.225-0.36-0.322c-0.156-0.098-0.351-0.186-0.582-0.266
		c-0.232-0.08-0.496-0.166-0.791-0.26c-0.287-0.093-0.567-0.201-0.842-0.328c-0.273-0.127-0.518-0.289-0.734-0.487
		c-0.215-0.198-0.388-0.438-0.518-0.722c-0.131-0.281-0.196-0.626-0.196-1.03c0-0.497,0.102-0.924,0.304-1.277
		c0.202-0.354,0.468-0.646,0.796-0.873c0.329-0.228,0.7-0.395,1.113-0.501c0.414-0.104,0.831-0.156,1.252-0.156
		c0.506,0,1.022,0.092,1.55,0.277c0.526,0.186,0.988,0.46,1.385,0.822L74.609,109.575z"/>
	<path fill="#5A5B5D" d="M48.032,120.024c-0.186-0.236-0.428-0.424-0.727-0.564c-0.299-0.139-0.588-0.208-0.867-0.208
		c-0.143,0-0.289,0.013-0.437,0.038c-0.147,0.025-0.28,0.074-0.398,0.145c-0.118,0.072-0.217,0.166-0.297,0.279
		c-0.081,0.113-0.12,0.26-0.12,0.437c0,0.151,0.032,0.278,0.095,0.38c0.063,0.1,0.156,0.189,0.278,0.265
		c0.122,0.076,0.268,0.146,0.437,0.208c0.168,0.064,0.358,0.13,0.569,0.197c0.303,0.102,0.62,0.213,0.949,0.335
		c0.329,0.123,0.628,0.284,0.898,0.487c0.27,0.202,0.493,0.453,0.67,0.752c0.177,0.301,0.266,0.674,0.266,1.121
		c0,0.514-0.096,0.959-0.285,1.334c-0.19,0.375-0.445,0.686-0.766,0.93c-0.321,0.244-0.688,0.426-1.101,0.543
		c-0.414,0.119-0.839,0.178-1.277,0.178c-0.642,0-1.261-0.111-1.86-0.336c-0.599-0.223-1.096-0.541-1.492-0.955l1.417-1.441
		c0.219,0.27,0.508,0.496,0.866,0.677c0.358,0.182,0.715,0.272,1.069,0.272c0.16,0,0.315-0.018,0.468-0.051
		c0.152-0.034,0.285-0.089,0.398-0.165c0.113-0.075,0.204-0.177,0.272-0.304c0.067-0.126,0.102-0.277,0.102-0.455
		c0-0.168-0.043-0.312-0.127-0.43c-0.084-0.118-0.205-0.227-0.36-0.322c-0.156-0.098-0.351-0.187-0.583-0.267
		c-0.231-0.08-0.495-0.165-0.791-0.259c-0.286-0.093-0.567-0.203-0.841-0.329c-0.273-0.126-0.518-0.289-0.733-0.487
		c-0.215-0.197-0.388-0.438-0.519-0.721c-0.13-0.283-0.196-0.626-0.196-1.031c0-0.497,0.102-0.923,0.304-1.277
		c0.202-0.354,0.468-0.646,0.797-0.873c0.329-0.229,0.699-0.394,1.113-0.5c0.412-0.105,0.83-0.158,1.252-0.158
		c0.506,0,1.023,0.094,1.55,0.279s0.988,0.459,1.385,0.821L48.032,120.024z"/>
	<path fill="#5A5B5D" d="M59.796,122.135c0,0.709-0.123,1.356-0.367,1.942s-0.583,1.087-1.019,1.505
		c-0.434,0.418-0.951,0.74-1.549,0.969c-0.599,0.227-1.248,0.341-1.948,0.341s-1.348-0.114-1.942-0.341
		c-0.594-0.229-1.109-0.551-1.543-0.969c-0.435-0.418-0.774-0.919-1.019-1.505s-0.367-1.233-0.367-1.942
		c0-0.717,0.123-1.363,0.367-1.941s0.584-1.068,1.019-1.475c0.434-0.403,0.949-0.716,1.543-0.936
		c0.594-0.219,1.242-0.328,1.942-0.328s1.349,0.109,1.948,0.328c0.599,0.22,1.116,0.532,1.549,0.936
		c0.435,0.406,0.774,0.896,1.019,1.475S59.796,121.418,59.796,122.135z M57.481,122.135c0-0.387-0.063-0.75-0.19-1.088
		c-0.126-0.336-0.301-0.626-0.525-0.865c-0.223-0.241-0.493-0.432-0.809-0.57s-0.664-0.209-1.043-0.209s-0.726,0.07-1.037,0.209
		c-0.312,0.139-0.582,0.329-0.81,0.57c-0.228,0.239-0.403,0.529-0.525,0.865c-0.122,0.338-0.183,0.701-0.183,1.088
		c0,0.405,0.063,0.779,0.19,1.12c0.126,0.341,0.301,0.634,0.524,0.879c0.224,0.245,0.491,0.437,0.804,0.575
		c0.312,0.141,0.658,0.209,1.037,0.209s0.725-0.068,1.037-0.209c0.312-0.139,0.582-0.33,0.81-0.575
		c0.227-0.245,0.404-0.538,0.531-0.879S57.481,122.541,57.481,122.135z"/>
	<path fill="#5A5B5D" d="M60.91,126.651v-8.955h2.175v7.07h3.466v1.885H60.91z"/>
	<path fill="#5A5B5D" d="M75.608,122.148c0,0.784-0.146,1.462-0.437,2.03c-0.291,0.57-0.675,1.038-1.151,1.404
		c-0.476,0.367-1.014,0.637-1.613,0.811c-0.599,0.172-1.206,0.258-1.821,0.258h-3.34v-8.955h3.238c0.632,0,1.256,0.074,1.872,0.221
		c0.615,0.147,1.164,0.393,1.645,0.734s0.869,0.799,1.164,1.373C75.46,120.596,75.608,121.305,75.608,122.148z M73.357,122.148
		c0-0.505-0.083-0.925-0.247-1.259c-0.165-0.332-0.384-0.599-0.658-0.796c-0.274-0.198-0.587-0.339-0.937-0.425
		c-0.35-0.084-0.71-0.126-1.082-0.126h-1.075v5.237h1.024c0.388,0,0.761-0.045,1.12-0.133c0.358-0.088,0.674-0.234,0.949-0.438
		c0.273-0.201,0.493-0.471,0.658-0.809C73.274,123.064,73.357,122.645,73.357,122.148z"/>
</g>
<g>
	<path fill="#5A5B5D" d="M113.087,119.799v-6.578l-1.669,1.291l-1.101-1.506l2.947-2.162h1.936v8.955H113.087z"/>
	<path fill="#5A5B5D" d="M124.953,115.296c0,0.633-0.063,1.235-0.19,1.81c-0.126,0.573-0.329,1.076-0.607,1.511
		c-0.278,0.435-0.639,0.78-1.081,1.038c-0.443,0.257-0.98,0.385-1.613,0.385c-0.632,0-1.172-0.128-1.619-0.385
		c-0.447-0.258-0.812-0.604-1.094-1.038c-0.283-0.435-0.487-0.938-0.614-1.511c-0.126-0.574-0.19-1.177-0.19-1.81
		c0-0.632,0.063-1.233,0.19-1.802c0.126-0.57,0.331-1.067,0.614-1.493c0.282-0.427,0.646-0.766,1.094-1.019s0.987-0.379,1.619-0.379
		c0.633,0,1.17,0.126,1.613,0.379c0.442,0.253,0.803,0.592,1.081,1.019c0.278,0.426,0.481,0.923,0.607,1.493
		C124.889,114.063,124.953,114.665,124.953,115.296z M122.776,115.296c0-0.278-0.017-0.586-0.05-0.923
		c-0.034-0.338-0.097-0.652-0.19-0.943s-0.225-0.535-0.398-0.732c-0.173-0.199-0.399-0.299-0.677-0.299
		c-0.278,0-0.506,0.1-0.683,0.299c-0.177,0.197-0.314,0.441-0.411,0.732c-0.097,0.291-0.163,0.605-0.196,0.943
		c-0.034,0.337-0.051,0.645-0.051,0.923c0,0.286,0.017,0.601,0.051,0.942c0.034,0.342,0.099,0.658,0.196,0.949
		c0.097,0.291,0.234,0.535,0.411,0.733c0.177,0.198,0.405,0.298,0.683,0.298c0.278,0,0.504-0.1,0.677-0.298
		c0.173-0.198,0.305-0.442,0.398-0.733s0.156-0.607,0.19-0.949S122.776,115.583,122.776,115.296z"/>
	<path fill="#5A5B5D" d="M130.392,113.083c0,0.33-0.063,0.639-0.189,0.93s-0.297,0.544-0.513,0.759
		c-0.215,0.216-0.47,0.386-0.765,0.513c-0.295,0.127-0.607,0.189-0.937,0.189s-0.641-0.062-0.937-0.189
		c-0.295-0.127-0.55-0.297-0.765-0.513c-0.215-0.215-0.386-0.468-0.512-0.759s-0.19-0.6-0.19-0.93c0-0.337,0.063-0.651,0.19-0.941
		c0.126-0.291,0.297-0.545,0.512-0.76s0.47-0.384,0.765-0.506c0.296-0.122,0.607-0.184,0.937-0.184s0.641,0.062,0.937,0.184
		c0.295,0.122,0.55,0.291,0.765,0.506c0.216,0.215,0.386,0.469,0.513,0.76C130.329,112.431,130.392,112.746,130.392,113.083z
		 M128.975,113.083c0-0.27-0.097-0.502-0.291-0.695c-0.194-0.193-0.426-0.291-0.696-0.291c-0.27,0-0.501,0.098-0.695,0.291
		s-0.292,0.426-0.292,0.695s0.098,0.5,0.292,0.689s0.426,0.285,0.695,0.285c0.27,0,0.502-0.096,0.696-0.285
		C128.878,113.583,128.975,113.352,128.975,113.083z M128.963,120.231l-1.126-0.558l5.224-9.234l1.176,0.569L128.963,120.231z
		 M136.464,117.561c0,0.328-0.063,0.639-0.189,0.93c-0.127,0.291-0.297,0.544-0.513,0.76c-0.215,0.215-0.47,0.385-0.765,0.512
		c-0.295,0.126-0.607,0.189-0.936,0.189c-0.329,0-0.642-0.063-0.937-0.189c-0.295-0.127-0.55-0.297-0.765-0.512
		c-0.215-0.216-0.385-0.469-0.512-0.76s-0.19-0.602-0.19-0.93c0-0.329,0.063-0.639,0.19-0.93s0.297-0.544,0.512-0.76
		c0.215-0.215,0.47-0.385,0.765-0.512s0.607-0.189,0.937-0.189c0.329,0,0.641,0.062,0.936,0.189s0.55,0.297,0.765,0.512
		c0.216,0.216,0.386,0.469,0.513,0.76C136.401,116.922,136.464,117.232,136.464,117.561z M135.047,117.561
		c0-0.135-0.028-0.264-0.083-0.386c-0.055-0.122-0.126-0.228-0.215-0.316c-0.089-0.089-0.192-0.158-0.31-0.209
		c-0.118-0.05-0.245-0.075-0.379-0.075c-0.27,0-0.502,0.097-0.696,0.291c-0.194,0.193-0.291,0.426-0.291,0.695
		s0.097,0.5,0.291,0.689c0.194,0.189,0.426,0.285,0.696,0.285c0.135,0,0.261-0.025,0.379-0.076s0.221-0.121,0.31-0.209
		c0.088-0.09,0.16-0.191,0.215-0.311C135.02,117.823,135.047,117.696,135.047,117.561z"/>
</g>
<g>
	<path fill="#5A5B5D" d="M110.506,42.229v-1.768l3.492-3.157c0.219-0.211,0.396-0.425,0.531-0.644s0.201-0.463,0.201-0.733
		c0-0.319-0.099-0.578-0.304-0.776c-0.202-0.198-0.473-0.296-0.809-0.296c-0.354,0-0.643,0.124-0.866,0.373
		c-0.224,0.249-0.356,0.576-0.398,0.98l-2.037-0.278c0.05-0.456,0.176-0.861,0.373-1.217c0.199-0.356,0.449-0.659,0.754-0.91
		c0.303-0.25,0.65-0.441,1.043-0.573c0.393-0.132,0.808-0.198,1.245-0.198c0.413,0,0.814,0.055,1.201,0.165
		c0.389,0.109,0.735,0.278,1.039,0.506c0.303,0.227,0.545,0.515,0.728,0.86c0.18,0.345,0.271,0.75,0.271,1.214
		c0,0.321-0.041,0.61-0.127,0.867c-0.083,0.258-0.199,0.496-0.347,0.714c-0.148,0.22-0.316,0.424-0.506,0.614
		c-0.189,0.19-0.386,0.378-0.588,0.563l-2.075,1.847h3.656v1.847H110.506z"/>
	<path fill="#5A5B5D" d="M125.091,37.726c0,0.633-0.063,1.235-0.189,1.809s-0.327,1.077-0.606,1.511
		c-0.278,0.435-0.639,0.781-1.082,1.038c-0.442,0.257-0.98,0.385-1.613,0.385c-0.632,0-1.172-0.128-1.618-0.385
		c-0.446-0.257-0.812-0.604-1.095-1.038c-0.283-0.434-0.488-0.938-0.613-1.511c-0.126-0.574-0.189-1.176-0.189-1.809
		c0-0.632,0.063-1.233,0.189-1.802c0.125-0.569,0.33-1.067,0.613-1.493c0.283-0.426,0.648-0.766,1.095-1.019
		s0.986-0.379,1.618-0.379c0.633,0,1.171,0.126,1.613,0.379c0.443,0.253,0.804,0.592,1.082,1.019
		c0.279,0.426,0.48,0.923,0.606,1.493C125.027,36.493,125.091,37.094,125.091,37.726z M122.915,37.726
		c0-0.278-0.017-0.586-0.05-0.923c-0.034-0.337-0.097-0.651-0.19-0.942c-0.093-0.291-0.226-0.536-0.397-0.733
		c-0.175-0.198-0.398-0.298-0.678-0.298c-0.277,0-0.506,0.1-0.683,0.298c-0.177,0.198-0.315,0.442-0.412,0.733
		s-0.161,0.605-0.196,0.942c-0.033,0.337-0.05,0.646-0.05,0.923c0,0.287,0.017,0.601,0.05,0.942c0.035,0.341,0.1,0.658,0.196,0.949
		c0.097,0.291,0.235,0.536,0.412,0.734c0.177,0.199,0.405,0.297,0.683,0.297c0.279,0,0.503-0.099,0.678-0.297
		c0.172-0.198,0.305-0.443,0.397-0.734c0.094-0.291,0.156-0.607,0.19-0.949C122.898,38.327,122.915,38.013,122.915,37.726z"/>
	<path fill="#5A5B5D" d="M130.53,35.513c0,0.329-0.063,0.639-0.189,0.929c-0.125,0.291-0.297,0.544-0.513,0.759
		c-0.215,0.216-0.47,0.386-0.766,0.513c-0.294,0.126-0.605,0.189-0.934,0.189c-0.331,0-0.643-0.063-0.938-0.189
		c-0.296-0.127-0.55-0.297-0.766-0.513c-0.216-0.215-0.386-0.468-0.512-0.759c-0.127-0.291-0.19-0.6-0.19-0.929
		c0-0.337,0.063-0.652,0.19-0.942c0.126-0.291,0.296-0.544,0.512-0.76c0.216-0.215,0.47-0.383,0.766-0.506
		c0.295-0.122,0.606-0.183,0.938-0.183c0.328,0,0.64,0.062,0.934,0.183c0.296,0.123,0.551,0.291,0.766,0.506
		c0.216,0.216,0.388,0.469,0.513,0.76C130.467,34.861,130.53,35.175,130.53,35.513z M129.115,35.513c0-0.27-0.097-0.502-0.293-0.696
		c-0.193-0.193-0.426-0.291-0.693-0.291c-0.271,0-0.503,0.098-0.697,0.291c-0.193,0.194-0.29,0.426-0.29,0.696
		c0,0.27,0.097,0.5,0.29,0.689c0.194,0.189,0.426,0.284,0.697,0.284c0.268,0,0.5-0.095,0.693-0.284
		C129.019,36.012,129.115,35.782,129.115,35.513z M129.102,42.66l-1.125-0.557l5.225-9.234l1.176,0.569L129.102,42.66z
		 M136.604,39.991c0,0.329-0.063,0.639-0.19,0.929c-0.126,0.292-0.296,0.544-0.512,0.76c-0.216,0.215-0.47,0.385-0.766,0.512
		s-0.606,0.19-0.938,0.19c-0.328,0-0.64-0.063-0.934-0.19c-0.296-0.126-0.551-0.297-0.766-0.512
		c-0.216-0.215-0.388-0.468-0.513-0.76c-0.126-0.29-0.189-0.601-0.189-0.929c0-0.329,0.063-0.639,0.189-0.93
		c0.125-0.292,0.297-0.544,0.513-0.759c0.215-0.215,0.47-0.386,0.766-0.512c0.294-0.126,0.605-0.19,0.934-0.19
		c0.331,0,0.642,0.063,0.938,0.19s0.55,0.297,0.766,0.512c0.216,0.215,0.386,0.468,0.512,0.759
		C136.54,39.352,136.604,39.662,136.604,39.991z M135.186,39.991c0-0.135-0.028-0.264-0.08-0.386
		c-0.056-0.123-0.127-0.228-0.216-0.316s-0.193-0.158-0.311-0.209c-0.118-0.05-0.245-0.076-0.381-0.076
		c-0.268,0-0.5,0.097-0.693,0.291c-0.196,0.194-0.293,0.426-0.293,0.696c0,0.27,0.097,0.5,0.293,0.689
		c0.193,0.189,0.426,0.285,0.693,0.285c0.136,0,0.263-0.025,0.381-0.076c0.117-0.05,0.222-0.12,0.311-0.208
		c0.089-0.089,0.16-0.192,0.216-0.31C135.157,40.252,135.186,40.125,135.186,39.991z"/>
</g>
<g>
	<path fill="#5A5B5D" d="M161.087,48.782v-6.577l-1.668,1.29l-1.102-1.505l2.946-2.163h1.937v8.956H161.087z"/>
	<path fill="#5A5B5D" d="M169.236,48.782h-2.469l3.633-7.134h-4.239v-1.822h6.503v1.695L169.236,48.782z"/>
	<path fill="#5A5B5D" d="M178.393,42.065c0,0.329-0.063,0.639-0.189,0.93c-0.125,0.291-0.297,0.544-0.513,0.759
		c-0.215,0.215-0.47,0.386-0.766,0.512c-0.295,0.126-0.607,0.19-0.936,0.19c-0.329,0-0.641-0.063-0.936-0.19
		c-0.296-0.126-0.552-0.297-0.766-0.512c-0.216-0.215-0.386-0.468-0.512-0.759c-0.127-0.292-0.19-0.601-0.19-0.93
		c0-0.337,0.063-0.651,0.19-0.942c0.126-0.291,0.296-0.544,0.512-0.759c0.214-0.215,0.47-0.383,0.766-0.506
		c0.295-0.122,0.606-0.184,0.936-0.184c0.328,0,0.641,0.062,0.936,0.184c0.296,0.123,0.551,0.291,0.766,0.506
		c0.216,0.215,0.388,0.468,0.513,0.759C178.33,41.414,178.393,41.728,178.393,42.065z M176.977,42.065
		c0-0.27-0.099-0.501-0.292-0.696c-0.193-0.193-0.426-0.291-0.695-0.291s-0.502,0.098-0.695,0.291
		c-0.194,0.194-0.291,0.426-0.291,0.696c0,0.271,0.097,0.5,0.291,0.69c0.193,0.189,0.426,0.284,0.695,0.284s0.502-0.095,0.695-0.284
		C176.878,42.565,176.977,42.335,176.977,42.065z M176.964,49.212l-1.126-0.557l5.224-9.234l1.176,0.569L176.964,49.212z
		 M184.464,46.543c0,0.329-0.062,0.639-0.188,0.93c-0.128,0.291-0.298,0.544-0.514,0.759c-0.214,0.215-0.47,0.386-0.764,0.513
		c-0.296,0.126-0.608,0.189-0.938,0.189s-0.64-0.063-0.937-0.189c-0.293-0.127-0.549-0.298-0.765-0.513
		c-0.214-0.215-0.386-0.468-0.513-0.759c-0.126-0.291-0.189-0.601-0.189-0.93s0.063-0.639,0.189-0.929
		c0.127-0.291,0.299-0.544,0.513-0.76c0.216-0.215,0.472-0.386,0.765-0.512c0.297-0.127,0.607-0.19,0.937-0.19
		s0.642,0.063,0.938,0.19c0.294,0.126,0.55,0.297,0.764,0.512c0.216,0.216,0.386,0.469,0.514,0.76
		C184.403,45.904,184.464,46.214,184.464,46.543z M183.048,46.543c0-0.135-0.027-0.263-0.083-0.386
		c-0.056-0.122-0.126-0.227-0.213-0.316c-0.089-0.088-0.193-0.158-0.311-0.208c-0.118-0.051-0.245-0.076-0.381-0.076
		c-0.27,0-0.501,0.097-0.695,0.291c-0.194,0.194-0.291,0.426-0.291,0.696c0,0.27,0.097,0.5,0.291,0.689
		c0.194,0.19,0.426,0.285,0.695,0.285c0.136,0,0.263-0.025,0.381-0.076c0.117-0.05,0.222-0.12,0.311-0.209
		c0.087-0.088,0.157-0.191,0.213-0.31C183.021,46.805,183.048,46.678,183.048,46.543z"/>
</g>
<g>
	<path fill="#5A5B5D" d="M208.589,55.326v-6.578l-1.669,1.291l-1.101-1.505l2.946-2.164h1.937v8.957H208.589z"/>
	<path fill="#5A5B5D" d="M220.228,52.366c0,0.549-0.097,1.023-0.292,1.424c-0.193,0.4-0.453,0.731-0.776,0.993
		c-0.326,0.261-0.694,0.458-1.107,0.588c-0.413,0.13-0.839,0.196-1.278,0.196c-0.403,0-0.79-0.053-1.158-0.159
		c-0.365-0.105-0.699-0.255-0.998-0.449c-0.301-0.194-0.558-0.432-0.771-0.715c-0.216-0.283-0.374-0.601-0.476-0.956l1.936-0.594
		c0.093,0.312,0.268,0.569,0.524,0.772c0.257,0.202,0.563,0.303,0.918,0.303c0.361,0,0.677-0.109,0.942-0.329
		c0.266-0.219,0.397-0.543,0.397-0.974c0-0.262-0.055-0.481-0.163-0.658c-0.11-0.178-0.251-0.318-0.424-0.424
		s-0.369-0.18-0.589-0.222s-0.438-0.063-0.658-0.063c-0.32,0-0.684,0.036-1.093,0.107c-0.409,0.072-0.774,0.167-1.095,0.285
		l0.214-5.124h5.491v1.822h-3.604l-0.077,1.417c0.136-0.034,0.284-0.057,0.447-0.069c0.166-0.013,0.315-0.02,0.451-0.02
		c0.446,0,0.868,0.06,1.265,0.178s0.739,0.297,1.032,0.538c0.29,0.24,0.52,0.538,0.688,0.891
		C220.143,51.48,220.228,51.894,220.228,52.366z"/>
	<path fill="#5A5B5D" d="M225.896,48.609c0,0.329-0.064,0.639-0.191,0.93c-0.127,0.291-0.296,0.543-0.511,0.759
		c-0.216,0.215-0.472,0.386-0.766,0.513c-0.296,0.125-0.608,0.189-0.936,0.189c-0.331,0-0.644-0.063-0.938-0.189
		c-0.294-0.126-0.55-0.298-0.765-0.513c-0.215-0.215-0.387-0.468-0.514-0.759c-0.126-0.291-0.188-0.602-0.188-0.93
		c0-0.337,0.062-0.652,0.188-0.942c0.127-0.292,0.299-0.545,0.514-0.76s0.471-0.383,0.765-0.506
		c0.294-0.122,0.606-0.183,0.938-0.183c0.327,0,0.64,0.061,0.936,0.183c0.294,0.123,0.55,0.291,0.766,0.506
		c0.215,0.215,0.384,0.468,0.511,0.76C225.831,47.957,225.896,48.271,225.896,48.609z M224.478,48.609
		c0-0.27-0.098-0.501-0.291-0.695s-0.426-0.292-0.694-0.292c-0.271,0-0.502,0.097-0.695,0.292c-0.195,0.194-0.292,0.426-0.292,0.695
		c0,0.27,0.097,0.5,0.292,0.689c0.193,0.19,0.424,0.285,0.695,0.285c0.269,0,0.501-0.095,0.694-0.285S224.478,48.879,224.478,48.609
		z M224.465,55.756L223.34,55.2l5.224-9.235l1.177,0.569L224.465,55.756z M231.967,53.087c0,0.329-0.062,0.638-0.189,0.929
		s-0.297,0.544-0.513,0.76c-0.215,0.215-0.47,0.385-0.765,0.512c-0.296,0.126-0.608,0.189-0.937,0.189
		c-0.329,0-0.642-0.063-0.938-0.189c-0.293-0.126-0.55-0.297-0.765-0.512c-0.215-0.216-0.385-0.469-0.513-0.76
		c-0.127-0.291-0.188-0.601-0.188-0.929c0-0.329,0.062-0.639,0.188-0.93c0.128-0.291,0.298-0.544,0.513-0.759
		c0.215-0.216,0.472-0.386,0.765-0.513c0.296-0.126,0.608-0.189,0.938-0.189c0.328,0,0.641,0.063,0.937,0.189
		c0.295,0.126,0.55,0.297,0.765,0.513c0.216,0.215,0.386,0.468,0.513,0.759S231.967,52.758,231.967,53.087z M230.55,53.087
		c0-0.136-0.027-0.264-0.083-0.386c-0.055-0.123-0.126-0.228-0.214-0.316c-0.09-0.089-0.192-0.158-0.312-0.208
		c-0.118-0.051-0.244-0.076-0.378-0.076c-0.271,0-0.502,0.097-0.695,0.291c-0.195,0.194-0.292,0.425-0.292,0.696
		c0,0.27,0.097,0.5,0.292,0.689c0.193,0.19,0.424,0.285,0.695,0.285c0.134,0,0.26-0.025,0.378-0.076
		c0.119-0.051,0.222-0.121,0.312-0.209c0.088-0.088,0.159-0.191,0.214-0.31C230.522,53.349,230.55,53.222,230.55,53.087z"/>
</g>
<g>
	<path fill="#5A5B5D" d="M254.152,61.221v-6.578l-1.67,1.29l-1.1-1.505l2.946-2.163h1.938v8.956H254.152z"/>
	<path fill="#5A5B5D" d="M259.287,61.221v-1.768l3.492-3.157c0.219-0.211,0.396-0.425,0.53-0.644s0.203-0.463,0.203-0.732
		c0-0.32-0.102-0.579-0.304-0.777c-0.202-0.197-0.473-0.296-0.81-0.296c-0.354,0-0.644,0.125-0.867,0.373
		c-0.223,0.249-0.356,0.576-0.398,0.98l-2.036-0.278c0.051-0.456,0.175-0.861,0.373-1.217s0.449-0.659,0.752-0.91
		c0.305-0.25,0.652-0.441,1.044-0.573c0.393-0.132,0.808-0.198,1.246-0.198c0.413,0,0.814,0.055,1.202,0.165
		c0.388,0.109,0.734,0.278,1.038,0.506c0.303,0.228,0.546,0.515,0.727,0.86c0.182,0.346,0.271,0.75,0.271,1.214
		c0,0.32-0.042,0.609-0.126,0.866c-0.084,0.257-0.2,0.496-0.348,0.715c-0.148,0.22-0.316,0.423-0.507,0.614
		c-0.189,0.19-0.386,0.377-0.587,0.563l-2.074,1.847h3.654v1.847H259.287z"/>
	<path fill="#5A5B5D" d="M271.456,54.504c0,0.329-0.063,0.639-0.189,0.93c-0.127,0.291-0.297,0.544-0.513,0.759
		c-0.215,0.215-0.47,0.386-0.765,0.513s-0.607,0.189-0.936,0.189c-0.329,0-0.642-0.063-0.937-0.189
		c-0.296-0.126-0.551-0.297-0.766-0.513c-0.216-0.215-0.386-0.468-0.513-0.759c-0.126-0.291-0.189-0.601-0.189-0.93
		c0-0.337,0.063-0.651,0.189-0.942c0.127-0.291,0.297-0.544,0.513-0.759c0.215-0.215,0.47-0.384,0.766-0.506
		c0.295-0.122,0.607-0.183,0.937-0.183c0.328,0,0.641,0.062,0.936,0.183c0.295,0.122,0.55,0.291,0.765,0.506
		c0.216,0.215,0.386,0.468,0.513,0.759C271.393,53.853,271.456,54.167,271.456,54.504z M270.04,54.504
		c0-0.27-0.097-0.501-0.292-0.696c-0.193-0.194-0.426-0.291-0.694-0.291c-0.271,0-0.502,0.097-0.696,0.291
		c-0.193,0.194-0.29,0.426-0.29,0.696c0,0.27,0.097,0.5,0.29,0.689c0.194,0.19,0.426,0.285,0.696,0.285
		c0.269,0,0.501-0.095,0.694-0.285C269.943,55.004,270.04,54.773,270.04,54.504z M270.026,61.651l-1.125-0.557l5.225-9.234
		l1.176,0.568L270.026,61.651z M277.528,58.982c0,0.329-0.062,0.639-0.188,0.929c-0.127,0.291-0.299,0.545-0.514,0.76
		s-0.471,0.386-0.765,0.512c-0.296,0.126-0.607,0.19-0.938,0.19c-0.328,0-0.64-0.063-0.936-0.19
		c-0.294-0.126-0.55-0.297-0.765-0.512c-0.216-0.215-0.386-0.469-0.512-0.76c-0.127-0.291-0.19-0.6-0.19-0.929
		s0.063-0.639,0.19-0.929c0.126-0.292,0.296-0.545,0.512-0.76c0.215-0.215,0.471-0.386,0.765-0.512
		c0.296-0.126,0.607-0.19,0.936-0.19c0.33,0,0.642,0.064,0.938,0.19c0.294,0.126,0.55,0.297,0.765,0.512s0.387,0.468,0.514,0.76
		C277.466,58.343,277.528,58.653,277.528,58.982z M276.111,58.982c0-0.135-0.027-0.263-0.082-0.386
		c-0.055-0.122-0.126-0.228-0.215-0.316s-0.191-0.158-0.31-0.208c-0.119-0.051-0.246-0.076-0.381-0.076
		c-0.269,0-0.501,0.097-0.694,0.291c-0.194,0.194-0.291,0.426-0.291,0.696s0.097,0.5,0.291,0.689
		c0.193,0.19,0.426,0.285,0.694,0.285c0.135,0,0.262-0.025,0.381-0.075c0.118-0.051,0.221-0.12,0.31-0.209
		c0.089-0.088,0.16-0.191,0.215-0.31S276.111,59.117,276.111,58.982z"/>
</g>
<g>
	<path fill="#5A5B5D" d="M300.773,68.128v-6.577l-1.67,1.289l-1.102-1.505l2.947-2.163h1.936v8.956H300.773z"/>
	<path fill="#5A5B5D" d="M312.639,63.625c0,0.632-0.064,1.236-0.19,1.809c-0.126,0.574-0.329,1.077-0.606,1.512
		c-0.278,0.435-0.639,0.78-1.082,1.038c-0.442,0.257-0.98,0.385-1.613,0.385c-0.632,0-1.172-0.128-1.619-0.385
		c-0.447-0.257-0.811-0.603-1.094-1.038c-0.282-0.435-0.486-0.938-0.613-1.512c-0.127-0.573-0.189-1.176-0.189-1.809
		c0-0.633,0.062-1.233,0.189-1.803s0.331-1.066,0.613-1.494c0.283-0.425,0.646-0.765,1.094-1.018
		c0.447-0.254,0.987-0.379,1.619-0.379c0.633,0,1.171,0.125,1.613,0.379c0.443,0.253,0.804,0.593,1.082,1.018
		c0.277,0.427,0.48,0.924,0.606,1.494S312.639,62.993,312.639,63.625z M310.463,63.625c0-0.278-0.018-0.586-0.051-0.923
		c-0.034-0.338-0.097-0.652-0.189-0.943c-0.094-0.291-0.227-0.535-0.398-0.734c-0.173-0.198-0.398-0.297-0.678-0.297
		c-0.277,0-0.506,0.099-0.683,0.297c-0.177,0.199-0.314,0.443-0.411,0.734c-0.097,0.291-0.162,0.605-0.195,0.943
		c-0.035,0.337-0.051,0.645-0.051,0.923c0,0.287,0.016,0.601,0.051,0.942c0.033,0.341,0.099,0.658,0.195,0.949
		s0.234,0.536,0.411,0.734s0.405,0.297,0.683,0.297c0.279,0,0.505-0.099,0.678-0.297c0.172-0.198,0.305-0.443,0.398-0.734
		c0.093-0.291,0.155-0.607,0.189-0.949C310.445,64.227,310.463,63.912,310.463,63.625z"/>
	<path fill="#5A5B5D" d="M318.078,61.412c0,0.329-0.063,0.638-0.189,0.93c-0.127,0.29-0.297,0.543-0.513,0.758
		c-0.216,0.216-0.47,0.386-0.766,0.513s-0.607,0.189-0.937,0.189c-0.328,0-0.641-0.063-0.936-0.189s-0.551-0.297-0.766-0.513
		c-0.215-0.215-0.385-0.468-0.512-0.758c-0.127-0.292-0.189-0.602-0.189-0.93c0-0.337,0.062-0.651,0.189-0.942
		c0.127-0.292,0.297-0.544,0.512-0.76s0.471-0.383,0.766-0.506s0.607-0.184,0.936-0.184c0.329,0,0.641,0.061,0.937,0.184
		s0.55,0.291,0.766,0.506s0.386,0.468,0.513,0.76C318.015,60.761,318.078,61.074,318.078,61.412z M316.661,61.412
		c0-0.27-0.098-0.501-0.291-0.696c-0.194-0.194-0.426-0.291-0.696-0.291c-0.27,0-0.502,0.097-0.695,0.291
		c-0.194,0.195-0.291,0.426-0.291,0.696c0,0.27,0.097,0.5,0.291,0.689c0.193,0.189,0.426,0.285,0.695,0.285
		c0.271,0,0.502-0.095,0.696-0.285C316.563,61.911,316.661,61.682,316.661,61.412z M316.648,68.559l-1.125-0.557l5.224-9.234
		l1.177,0.569L316.648,68.559z M324.149,65.889c0,0.329-0.062,0.639-0.188,0.93c-0.128,0.291-0.299,0.544-0.514,0.759
		c-0.214,0.216-0.47,0.386-0.765,0.512c-0.296,0.126-0.607,0.19-0.937,0.19c-0.328,0-0.641-0.063-0.936-0.19
		c-0.296-0.126-0.551-0.296-0.766-0.512c-0.215-0.215-0.386-0.468-0.512-0.759c-0.127-0.291-0.19-0.601-0.19-0.93
		c0-0.329,0.063-0.638,0.19-0.929c0.126-0.291,0.297-0.544,0.512-0.759c0.215-0.216,0.47-0.386,0.766-0.513
		c0.295-0.126,0.607-0.189,0.936-0.189c0.329,0,0.641,0.063,0.937,0.189c0.295,0.126,0.551,0.297,0.765,0.513
		c0.215,0.215,0.386,0.468,0.514,0.759C324.087,65.251,324.149,65.561,324.149,65.889z M322.732,65.889
		c0-0.135-0.027-0.263-0.082-0.385c-0.055-0.123-0.126-0.228-0.215-0.316c-0.088-0.089-0.191-0.158-0.311-0.209
		c-0.117-0.05-0.244-0.076-0.379-0.076c-0.27,0-0.502,0.098-0.695,0.291c-0.193,0.194-0.291,0.427-0.291,0.696
		c0,0.271,0.098,0.5,0.291,0.69c0.193,0.189,0.426,0.285,0.695,0.285c0.135,0,0.262-0.025,0.379-0.076
		c0.119-0.05,0.223-0.12,0.311-0.208c0.089-0.088,0.16-0.191,0.215-0.31C322.705,66.15,322.732,66.024,322.732,65.889z"/>
</g>
<g>
	<path fill="#5A5B5D" d="M355.257,71.617c0,0.473-0.093,0.884-0.278,1.233s-0.431,0.641-0.738,0.872
		c-0.308,0.232-0.665,0.405-1.073,0.52c-0.408,0.113-0.831,0.17-1.269,0.17c-0.447,0-0.871-0.057-1.275-0.17
		c-0.404-0.114-0.76-0.284-1.067-0.514c-0.307-0.227-0.554-0.516-0.739-0.865c-0.185-0.351-0.276-0.762-0.276-1.232
		c0-0.271,0.042-0.522,0.126-0.754s0.2-0.438,0.348-0.62c0.147-0.18,0.318-0.337,0.514-0.467c0.193-0.132,0.399-0.229,0.619-0.299
		v-0.025c-0.389-0.144-0.713-0.376-0.975-0.702c-0.261-0.324-0.392-0.734-0.392-1.232c0-0.413,0.083-0.781,0.253-1.101
		c0.168-0.321,0.396-0.588,0.683-0.803c0.287-0.216,0.62-0.378,0.999-0.487c0.381-0.11,0.776-0.165,1.189-0.165
		c0.414,0,0.809,0.053,1.184,0.158c0.375,0.106,0.705,0.264,0.992,0.475s0.517,0.474,0.689,0.79s0.26,0.682,0.26,1.095
		c0,0.497-0.127,0.914-0.38,1.252c-0.253,0.337-0.582,0.574-0.987,0.709v0.037c0.227,0.069,0.436,0.167,0.629,0.299
		c0.191,0.13,0.359,0.287,0.502,0.467c0.142,0.183,0.254,0.389,0.339,0.62C355.215,71.108,355.257,71.355,355.257,71.617z
		 M353.145,71.541c0-0.346-0.116-0.635-0.349-0.867c-0.231-0.231-0.529-0.348-0.892-0.348c-0.371,0-0.672,0.114-0.904,0.343
		c-0.232,0.227-0.348,0.518-0.348,0.872c0,0.363,0.115,0.65,0.348,0.866s0.533,0.323,0.904,0.323s0.67-0.107,0.898-0.323
		C353.03,72.191,353.145,71.904,353.145,71.541z M352.98,67.645c0-0.295-0.106-0.539-0.317-0.733
		c-0.21-0.194-0.464-0.291-0.759-0.291c-0.32,0-0.578,0.097-0.771,0.291s-0.291,0.438-0.291,0.733c0,0.287,0.096,0.535,0.285,0.747
		c0.189,0.209,0.449,0.315,0.777,0.315c0.312,0,0.57-0.106,0.771-0.315C352.879,68.18,352.98,67.932,352.98,67.645z"/>
	<path fill="#5A5B5D" d="M360.848,67.455c0,0.328-0.063,0.639-0.189,0.93c-0.127,0.291-0.297,0.544-0.513,0.758
		c-0.215,0.216-0.47,0.387-0.765,0.515c-0.296,0.124-0.607,0.188-0.937,0.188s-0.642-0.063-0.937-0.188
		c-0.295-0.128-0.55-0.299-0.765-0.515c-0.215-0.214-0.386-0.467-0.513-0.758c-0.126-0.291-0.189-0.602-0.189-0.93
		c0-0.337,0.063-0.651,0.189-0.942c0.127-0.291,0.298-0.544,0.513-0.759c0.215-0.216,0.47-0.384,0.765-0.507
		c0.295-0.122,0.607-0.183,0.937-0.183s0.641,0.061,0.937,0.183c0.295,0.123,0.55,0.291,0.765,0.507
		c0.216,0.215,0.386,0.468,0.513,0.759C360.784,66.804,360.848,67.118,360.848,67.455z M359.432,67.455
		c0-0.27-0.098-0.502-0.291-0.695c-0.194-0.194-0.426-0.292-0.696-0.292c-0.27,0-0.501,0.098-0.696,0.292
		c-0.193,0.193-0.291,0.426-0.291,0.695s0.098,0.5,0.291,0.689c0.195,0.189,0.427,0.285,0.696,0.285
		c0.271,0,0.502-0.096,0.696-0.285C359.334,67.955,359.432,67.725,359.432,67.455z M359.418,74.602l-1.125-0.556l5.225-9.235
		l1.176,0.569L359.418,74.602z M366.92,71.934c0,0.328-0.062,0.638-0.189,0.93c-0.127,0.29-0.297,0.543-0.513,0.759
		c-0.215,0.214-0.47,0.386-0.765,0.513c-0.296,0.126-0.607,0.189-0.937,0.189s-0.642-0.063-0.937-0.189
		c-0.295-0.127-0.55-0.299-0.766-0.513c-0.215-0.216-0.385-0.469-0.512-0.759c-0.127-0.292-0.189-0.602-0.189-0.93
		c0-0.329,0.062-0.639,0.189-0.931c0.127-0.29,0.297-0.543,0.512-0.759c0.216-0.214,0.471-0.386,0.766-0.513
		c0.295-0.126,0.607-0.189,0.937-0.189s0.641,0.063,0.937,0.189c0.295,0.127,0.55,0.299,0.765,0.513
		c0.216,0.216,0.386,0.469,0.513,0.759C366.857,71.295,366.92,71.604,366.92,71.934z M365.504,71.934
		c0-0.135-0.028-0.265-0.083-0.386c-0.056-0.122-0.126-0.227-0.216-0.316c-0.088-0.089-0.191-0.159-0.309-0.209
		c-0.119-0.05-0.245-0.076-0.38-0.076c-0.271,0-0.502,0.097-0.695,0.292c-0.194,0.193-0.292,0.426-0.292,0.695
		s0.098,0.498,0.292,0.689c0.193,0.189,0.425,0.284,0.695,0.284c0.135,0,0.261-0.024,0.38-0.077c0.117-0.05,0.221-0.119,0.309-0.207
		c0.09-0.089,0.16-0.191,0.216-0.31C365.476,72.194,365.504,72.067,365.504,71.934z"/>
</g>
<g>
	<path fill="#828487" d="M99.973,138.309v-2.76l-0.699,0.543l-0.462-0.631l1.236-0.906h0.811v3.754H99.973z"/>
	<path fill="#828487" d="M104.496,137.575v0.734h-0.831v-0.734h-1.766v-0.746l1.526-2.273h1.066v2.301h0.52v0.719H104.496z
		 M103.668,135.465h-0.015l-0.891,1.391h0.905V135.465z"/>
	<path fill="#828487" d="M106.39,137.84c0,0.15-0.053,0.273-0.157,0.373c-0.104,0.098-0.229,0.146-0.373,0.146
		c-0.075,0-0.145-0.014-0.21-0.037c-0.065-0.029-0.122-0.064-0.172-0.109c-0.05-0.047-0.089-0.102-0.117-0.162
		c-0.028-0.062-0.042-0.131-0.042-0.205c0-0.07,0.014-0.139,0.042-0.201c0.028-0.064,0.067-0.119,0.117-0.168
		c0.05-0.047,0.106-0.086,0.172-0.113c0.065-0.029,0.135-0.043,0.21-0.043c0.145,0,0.27,0.051,0.373,0.15
		C106.337,137.569,106.39,137.694,106.39,137.84z"/>
	<path fill="#828487" d="M109.699,136.42c0,0.266-0.027,0.518-0.08,0.758s-0.139,0.451-0.254,0.635
		c-0.116,0.182-0.269,0.326-0.454,0.434c-0.185,0.109-0.411,0.16-0.676,0.16s-0.491-0.051-0.68-0.16
		c-0.187-0.107-0.339-0.252-0.457-0.434c-0.119-0.184-0.205-0.395-0.258-0.635c-0.054-0.24-0.08-0.492-0.08-0.758
		s0.026-0.518,0.08-0.756c0.053-0.24,0.139-0.447,0.258-0.627c0.118-0.176,0.271-0.32,0.457-0.426
		c0.188-0.105,0.415-0.158,0.68-0.158s0.491,0.053,0.676,0.158c0.186,0.105,0.338,0.25,0.454,0.426
		c0.115,0.18,0.201,0.387,0.254,0.627C109.671,135.903,109.699,136.155,109.699,136.42z M108.787,136.42
		c0-0.117-0.008-0.246-0.022-0.387c-0.014-0.141-0.041-0.273-0.08-0.396c-0.038-0.121-0.094-0.223-0.165-0.307
		c-0.074-0.084-0.168-0.123-0.284-0.123c-0.117,0-0.211,0.039-0.286,0.123c-0.074,0.084-0.132,0.186-0.174,0.307
		c-0.04,0.123-0.067,0.256-0.081,0.396c-0.015,0.141-0.021,0.27-0.021,0.387c0,0.119,0.007,0.252,0.021,0.395
		c0.014,0.145,0.041,0.277,0.081,0.398c0.042,0.121,0.1,0.225,0.174,0.307c0.075,0.084,0.169,0.125,0.286,0.125
		c0.116,0,0.21-0.041,0.284-0.125c0.071-0.082,0.127-0.186,0.165-0.307c0.039-0.121,0.066-0.254,0.08-0.398
		C108.779,136.672,108.787,136.54,108.787,136.42z"/>
	<path fill="#828487" d="M112.991,136.42c0,0.266-0.026,0.518-0.08,0.758c-0.053,0.24-0.138,0.451-0.254,0.635
		c-0.116,0.182-0.269,0.326-0.454,0.434c-0.185,0.109-0.411,0.16-0.677,0.16s-0.489-0.051-0.677-0.16
		c-0.188-0.107-0.341-0.252-0.459-0.434c-0.119-0.184-0.205-0.395-0.258-0.635c-0.052-0.24-0.08-0.492-0.08-0.758
		s0.028-0.518,0.08-0.756c0.053-0.24,0.139-0.447,0.258-0.627c0.118-0.176,0.271-0.32,0.459-0.426
		c0.188-0.105,0.411-0.158,0.677-0.158s0.492,0.053,0.677,0.158c0.186,0.105,0.338,0.25,0.454,0.426
		c0.116,0.18,0.201,0.387,0.254,0.627C112.964,135.903,112.991,136.155,112.991,136.42z M112.079,136.42
		c0-0.117-0.007-0.246-0.022-0.387c-0.014-0.141-0.04-0.273-0.078-0.396c-0.039-0.121-0.096-0.223-0.167-0.307
		c-0.072-0.084-0.166-0.123-0.285-0.123c-0.116,0-0.212,0.039-0.284,0.123c-0.075,0.084-0.133,0.186-0.173,0.307
		c-0.04,0.123-0.068,0.256-0.082,0.396c-0.015,0.141-0.022,0.27-0.022,0.387c0,0.119,0.008,0.252,0.022,0.395
		c0.014,0.145,0.042,0.277,0.082,0.398s0.098,0.225,0.173,0.307c0.072,0.084,0.168,0.125,0.284,0.125
		c0.119,0,0.213-0.041,0.285-0.125c0.071-0.082,0.128-0.186,0.167-0.307c0.038-0.121,0.064-0.254,0.078-0.398
		C112.072,136.672,112.079,136.54,112.079,136.42z"/>
	<path fill="#828487" d="M116.283,136.42c0,0.266-0.024,0.518-0.078,0.758c-0.055,0.24-0.14,0.451-0.256,0.635
		c-0.116,0.182-0.267,0.326-0.453,0.434c-0.186,0.109-0.411,0.16-0.676,0.16c-0.266,0-0.491-0.051-0.679-0.16
		c-0.188-0.107-0.341-0.252-0.459-0.434c-0.118-0.184-0.203-0.395-0.257-0.635c-0.053-0.24-0.079-0.492-0.079-0.758
		s0.026-0.518,0.079-0.756c0.054-0.24,0.139-0.447,0.257-0.627c0.118-0.176,0.271-0.32,0.459-0.426
		c0.188-0.105,0.413-0.158,0.679-0.158c0.265,0,0.49,0.053,0.676,0.158c0.187,0.105,0.337,0.25,0.453,0.426
		c0.116,0.18,0.201,0.387,0.256,0.627C116.258,135.903,116.283,136.155,116.283,136.42z M115.371,136.42
		c0-0.117-0.005-0.246-0.021-0.387s-0.04-0.273-0.079-0.396c-0.038-0.121-0.095-0.223-0.168-0.307
		c-0.072-0.084-0.166-0.123-0.283-0.123c-0.116,0-0.212,0.039-0.286,0.123c-0.075,0.084-0.132,0.186-0.172,0.307
		c-0.041,0.123-0.069,0.256-0.083,0.396s-0.021,0.27-0.021,0.387c0,0.119,0.008,0.252,0.021,0.395
		c0.014,0.145,0.042,0.277,0.083,0.398c0.04,0.121,0.097,0.225,0.172,0.307c0.074,0.084,0.17,0.125,0.286,0.125
		c0.117,0,0.211-0.041,0.283-0.125c0.073-0.082,0.13-0.186,0.168-0.307c0.039-0.121,0.063-0.254,0.079-0.398
		C115.366,136.672,115.371,136.54,115.371,136.42z"/>
	<path fill="#828487" d="M117.726,137.84c0,0.15-0.053,0.273-0.156,0.373c-0.105,0.098-0.23,0.146-0.375,0.146
		c-0.074,0-0.144-0.014-0.21-0.037c-0.063-0.029-0.121-0.064-0.171-0.109c-0.05-0.047-0.089-0.102-0.116-0.162
		c-0.029-0.062-0.044-0.131-0.044-0.205c0-0.07,0.015-0.139,0.044-0.201c0.027-0.064,0.066-0.119,0.116-0.168
		c0.05-0.047,0.107-0.086,0.171-0.113c0.066-0.029,0.136-0.043,0.21-0.043c0.145,0,0.27,0.051,0.375,0.15
		C117.673,137.569,117.726,137.694,117.726,137.84z"/>
	<path fill="#828487" d="M121.035,136.42c0,0.266-0.026,0.518-0.08,0.758c-0.053,0.24-0.139,0.451-0.255,0.635
		c-0.116,0.182-0.268,0.326-0.453,0.434c-0.185,0.109-0.412,0.16-0.677,0.16c-0.266,0-0.489-0.051-0.678-0.16
		c-0.188-0.107-0.34-0.252-0.459-0.434c-0.118-0.184-0.204-0.395-0.257-0.635s-0.08-0.492-0.08-0.758s0.027-0.518,0.08-0.756
		c0.053-0.24,0.139-0.447,0.257-0.627c0.119-0.176,0.271-0.32,0.459-0.426c0.188-0.105,0.412-0.158,0.678-0.158
		c0.265,0,0.492,0.053,0.677,0.158c0.186,0.105,0.337,0.25,0.453,0.426c0.116,0.18,0.202,0.387,0.255,0.627
		C121.008,135.903,121.035,136.155,121.035,136.42z M120.123,136.42c0-0.117-0.007-0.246-0.022-0.387
		c-0.014-0.141-0.04-0.273-0.079-0.396c-0.038-0.121-0.095-0.223-0.167-0.307c-0.071-0.084-0.166-0.123-0.284-0.123
		c-0.116,0-0.212,0.039-0.285,0.123c-0.074,0.084-0.133,0.186-0.173,0.307c-0.04,0.123-0.067,0.256-0.081,0.396
		c-0.016,0.141-0.022,0.27-0.022,0.387c0,0.119,0.007,0.252,0.022,0.395c0.014,0.145,0.041,0.277,0.081,0.398
		s0.099,0.225,0.173,0.307c0.073,0.084,0.169,0.125,0.285,0.125c0.118,0,0.213-0.041,0.284-0.125
		c0.072-0.082,0.129-0.186,0.167-0.307c0.039-0.121,0.065-0.254,0.079-0.398C120.116,136.672,120.123,136.54,120.123,136.42z"/>
	<path fill="#828487" d="M124.327,136.42c0,0.266-0.025,0.518-0.079,0.758s-0.14,0.451-0.256,0.635
		c-0.115,0.182-0.267,0.326-0.453,0.434c-0.185,0.109-0.41,0.16-0.676,0.16s-0.49-0.051-0.679-0.16
		c-0.188-0.107-0.34-0.252-0.459-0.434c-0.117-0.184-0.203-0.395-0.257-0.635c-0.053-0.24-0.078-0.492-0.078-0.758
		s0.025-0.518,0.078-0.756c0.054-0.24,0.14-0.447,0.257-0.627c0.119-0.176,0.271-0.32,0.459-0.426
		c0.188-0.105,0.413-0.158,0.679-0.158s0.491,0.053,0.676,0.158c0.187,0.105,0.338,0.25,0.453,0.426
		c0.116,0.18,0.202,0.387,0.256,0.627C124.301,135.903,124.327,136.155,124.327,136.42z M123.415,136.42
		c0-0.117-0.006-0.246-0.021-0.387c-0.016-0.141-0.04-0.273-0.079-0.396c-0.039-0.121-0.096-0.223-0.169-0.307
		c-0.071-0.084-0.166-0.123-0.283-0.123c-0.116,0-0.211,0.039-0.286,0.123c-0.074,0.084-0.131,0.186-0.171,0.307
		c-0.042,0.123-0.069,0.256-0.083,0.396s-0.022,0.27-0.022,0.387c0,0.119,0.009,0.252,0.022,0.395
		c0.014,0.145,0.041,0.277,0.083,0.398c0.04,0.121,0.097,0.225,0.171,0.307c0.075,0.084,0.17,0.125,0.286,0.125
		c0.117,0,0.212-0.041,0.283-0.125c0.073-0.082,0.13-0.186,0.169-0.307s0.063-0.254,0.079-0.398
		C123.409,136.672,123.415,136.54,123.415,136.42z"/>
	<path fill="#828487" d="M127.619,136.42c0,0.266-0.025,0.518-0.077,0.758c-0.054,0.24-0.14,0.451-0.256,0.635
		c-0.116,0.182-0.267,0.326-0.453,0.434c-0.187,0.109-0.411,0.16-0.676,0.16c-0.266,0-0.492-0.051-0.681-0.16
		c-0.187-0.107-0.338-0.252-0.457-0.434c-0.117-0.184-0.203-0.395-0.257-0.635s-0.079-0.492-0.079-0.758s0.025-0.518,0.079-0.756
		c0.054-0.24,0.14-0.447,0.257-0.627c0.119-0.176,0.271-0.32,0.457-0.426c0.188-0.105,0.415-0.158,0.681-0.158
		c0.265,0,0.489,0.053,0.676,0.158s0.337,0.25,0.453,0.426c0.116,0.18,0.202,0.387,0.256,0.627
		C127.593,135.903,127.619,136.155,127.619,136.42z M126.708,136.42c0-0.117-0.007-0.246-0.021-0.387
		c-0.015-0.141-0.041-0.273-0.08-0.396c-0.039-0.121-0.094-0.223-0.167-0.307s-0.167-0.123-0.283-0.123s-0.213,0.039-0.286,0.123
		c-0.075,0.084-0.132,0.186-0.173,0.307c-0.042,0.123-0.069,0.256-0.083,0.396s-0.021,0.27-0.021,0.387
		c0,0.119,0.007,0.252,0.021,0.395c0.014,0.145,0.041,0.277,0.083,0.398c0.041,0.121,0.098,0.225,0.173,0.307
		c0.073,0.084,0.17,0.125,0.286,0.125s0.21-0.041,0.283-0.125c0.073-0.082,0.128-0.186,0.167-0.307s0.065-0.254,0.08-0.398
		C126.701,136.672,126.708,136.54,126.708,136.42z"/>
	<path fill="#828487" d="M130.791,135.329v2.98h-0.908v-2.98h-1.059v-0.773h3.026v0.773H130.791z"/>
	<path fill="#828487" d="M135.886,136.415c0,0.297-0.053,0.568-0.155,0.814c-0.102,0.246-0.243,0.455-0.426,0.631
		c-0.182,0.174-0.397,0.311-0.649,0.406c-0.251,0.094-0.523,0.141-0.816,0.141c-0.295,0-0.565-0.047-0.814-0.141
		c-0.248-0.096-0.464-0.232-0.646-0.406c-0.183-0.176-0.325-0.385-0.427-0.631c-0.104-0.246-0.153-0.518-0.153-0.814
		c0-0.299,0.05-0.572,0.153-0.812c0.102-0.244,0.244-0.449,0.427-0.619c0.183-0.168,0.398-0.301,0.646-0.393
		c0.249-0.092,0.52-0.137,0.814-0.137c0.293,0,0.565,0.045,0.816,0.137c0.252,0.092,0.468,0.225,0.649,0.393
		c0.183,0.17,0.324,0.375,0.426,0.619C135.833,135.842,135.886,136.116,135.886,136.415z M134.916,136.415
		c0-0.162-0.027-0.314-0.08-0.455c-0.053-0.143-0.125-0.264-0.22-0.363c-0.094-0.102-0.207-0.182-0.338-0.238
		c-0.133-0.061-0.279-0.088-0.438-0.088s-0.304,0.027-0.436,0.088c-0.13,0.057-0.243,0.137-0.34,0.238
		c-0.094,0.1-0.167,0.221-0.219,0.363c-0.052,0.141-0.077,0.293-0.077,0.455c0,0.17,0.026,0.326,0.08,0.471
		c0.053,0.143,0.126,0.266,0.22,0.367s0.206,0.184,0.336,0.242c0.132,0.057,0.276,0.086,0.436,0.086s0.304-0.029,0.436-0.086
		c0.13-0.059,0.243-0.141,0.34-0.242c0.094-0.102,0.168-0.225,0.221-0.367C134.888,136.741,134.916,136.584,134.916,136.415z"/>
	<path fill="#828487" d="M138.643,138.309l-1.395-1.73h-0.011v1.73h-0.885v-3.754h0.885v1.525h0.017l1.341-1.525h1.135l-1.617,1.727
		l1.712,2.027H138.643z"/>
	<path fill="#828487" d="M139.991,138.309v-3.754h2.523v0.762h-1.649v0.711h1.559v0.727h-1.559v0.779h1.744v0.775H139.991z"/>
	<path fill="#828487" d="M145.461,138.309l-1.511-2.455h-0.016l0.022,2.455h-0.882v-3.754h1.033l1.507,2.449h0.017l-0.022-2.449
		h0.88v3.754H145.461z"/>
	<path fill="#828487" d="M149.115,135.53c-0.077-0.1-0.18-0.178-0.304-0.236c-0.127-0.059-0.249-0.086-0.365-0.086
		c-0.059,0-0.121,0.004-0.182,0.014c-0.062,0.01-0.119,0.033-0.166,0.062c-0.052,0.029-0.092,0.068-0.126,0.115
		c-0.033,0.049-0.051,0.109-0.051,0.184c0,0.064,0.014,0.117,0.04,0.158c0.026,0.043,0.066,0.08,0.117,0.113
		c0.051,0.029,0.112,0.061,0.183,0.086c0.07,0.027,0.149,0.055,0.239,0.082c0.127,0.043,0.26,0.088,0.397,0.141
		c0.137,0.051,0.265,0.119,0.378,0.205c0.11,0.084,0.204,0.189,0.278,0.314c0.075,0.127,0.112,0.283,0.112,0.471
		c0,0.215-0.04,0.4-0.12,0.559c-0.079,0.158-0.186,0.287-0.32,0.389c-0.135,0.104-0.288,0.18-0.461,0.229
		c-0.173,0.051-0.352,0.074-0.534,0.074c-0.27,0-0.529-0.047-0.781-0.141c-0.25-0.092-0.459-0.227-0.626-0.398l0.595-0.605
		c0.092,0.113,0.212,0.207,0.363,0.285c0.15,0.074,0.3,0.113,0.449,0.113c0.066,0,0.131-0.008,0.194-0.023
		c0.065-0.014,0.12-0.035,0.167-0.068c0.049-0.031,0.086-0.074,0.115-0.127c0.026-0.053,0.041-0.117,0.041-0.191
		c0-0.068-0.018-0.129-0.054-0.18c-0.034-0.049-0.086-0.094-0.149-0.135c-0.066-0.041-0.147-0.078-0.244-0.111
		s-0.209-0.07-0.332-0.109c-0.12-0.039-0.237-0.084-0.353-0.139c-0.114-0.053-0.217-0.119-0.307-0.203
		c-0.091-0.082-0.163-0.184-0.218-0.303c-0.056-0.117-0.082-0.262-0.082-0.432c0-0.209,0.043-0.387,0.126-0.535
		c0.086-0.148,0.197-0.27,0.334-0.365c0.139-0.096,0.293-0.166,0.468-0.211c0.174-0.045,0.348-0.066,0.524-0.066
		c0.212,0,0.429,0.039,0.65,0.117c0.221,0.078,0.414,0.193,0.58,0.344L149.115,135.53z"/>
</g>
<g>
	<path fill="#5A5B5D" d="M404.822,77.71c0,0.504-0.094,0.96-0.279,1.365c-0.185,0.403-0.438,0.746-0.757,1.024
		c-0.319,0.277-0.694,0.49-1.124,0.64c-0.429,0.146-0.883,0.221-1.363,0.221c-0.488,0-0.945-0.074-1.37-0.221
		c-0.426-0.149-0.798-0.362-1.117-0.64c-0.32-0.278-0.573-0.615-0.759-1.012c-0.185-0.396-0.277-0.839-0.277-1.328
		c0-0.532,0.094-1.015,0.279-1.448c0.185-0.435,0.425-0.875,0.719-1.321l2.162-3.227h2.566l-2.203,3.061l-0.037,0.063
		c0.083-0.033,0.185-0.059,0.303-0.075c0.117-0.018,0.227-0.025,0.328-0.025c0.387,0,0.76,0.07,1.117,0.208
		c0.357,0.139,0.67,0.338,0.935,0.595s0.478,0.565,0.638,0.923C404.742,76.872,404.822,77.271,404.822,77.71z M402.709,77.76
		c0-0.405-0.127-0.741-0.381-1.007c-0.254-0.265-0.593-0.397-1.017-0.397s-0.767,0.13-1.03,0.393
		c-0.262,0.261-0.393,0.603-0.393,1.023c0,0.389,0.127,0.721,0.381,1s0.598,0.417,1.029,0.417c0.424,0,0.765-0.13,1.023-0.393
		C402.58,78.536,402.709,78.189,402.709,77.76z"/>
	<path fill="#5A5B5D" d="M410.262,74.003c0,0.327-0.063,0.639-0.189,0.929c-0.127,0.29-0.298,0.545-0.514,0.76
		c-0.215,0.215-0.47,0.385-0.765,0.512c-0.296,0.127-0.607,0.19-0.937,0.19c-0.328,0-0.641-0.063-0.936-0.19
		c-0.296-0.127-0.551-0.297-0.766-0.512s-0.386-0.47-0.512-0.76c-0.127-0.29-0.19-0.602-0.19-0.929c0-0.337,0.063-0.652,0.19-0.942
		c0.126-0.292,0.297-0.545,0.512-0.76s0.47-0.383,0.766-0.506c0.295-0.122,0.607-0.183,0.936-0.183c0.329,0,0.641,0.061,0.937,0.183
		c0.295,0.123,0.55,0.291,0.765,0.506c0.216,0.215,0.387,0.468,0.514,0.76C410.198,73.351,410.262,73.666,410.262,74.003z
		 M408.844,74.003c0-0.271-0.096-0.503-0.29-0.696s-0.426-0.29-0.696-0.29c-0.27,0-0.502,0.097-0.695,0.29s-0.291,0.426-0.291,0.696
		c0,0.27,0.098,0.499,0.291,0.688c0.193,0.19,0.426,0.284,0.695,0.284c0.271,0,0.502-0.094,0.696-0.284
		C408.748,74.502,408.844,74.272,408.844,74.003z M408.832,81.149l-1.127-0.557l5.226-9.235l1.176,0.569L408.832,81.149z
		 M416.333,78.48c0,0.329-0.063,0.639-0.19,0.93c-0.126,0.291-0.297,0.544-0.512,0.76c-0.215,0.214-0.47,0.386-0.765,0.512
		c-0.296,0.127-0.607,0.19-0.937,0.19s-0.641-0.063-0.937-0.19c-0.295-0.126-0.55-0.298-0.765-0.512
		c-0.215-0.216-0.386-0.469-0.512-0.76c-0.127-0.291-0.19-0.601-0.19-0.93c0-0.328,0.063-0.638,0.19-0.93
		c0.126-0.292,0.297-0.543,0.512-0.759s0.47-0.387,0.765-0.513c0.296-0.126,0.607-0.189,0.937-0.189s0.641,0.063,0.937,0.189
		c0.295,0.126,0.55,0.297,0.765,0.513s0.386,0.467,0.512,0.759C416.27,77.843,416.333,78.152,416.333,78.48z M414.916,78.48
		c0-0.135-0.027-0.264-0.082-0.387c-0.055-0.121-0.126-0.227-0.215-0.314c-0.089-0.089-0.191-0.158-0.311-0.211
		c-0.117-0.05-0.244-0.074-0.379-0.074c-0.27,0-0.502,0.097-0.695,0.29c-0.195,0.193-0.291,0.426-0.291,0.696
		c0,0.27,0.096,0.499,0.291,0.688c0.193,0.191,0.426,0.285,0.695,0.285c0.135,0,0.262-0.025,0.379-0.075
		c0.119-0.052,0.222-0.121,0.311-0.21c0.089-0.088,0.16-0.19,0.215-0.31C414.889,78.742,414.916,78.616,414.916,78.48z"/>
</g>
<g>
	<path fill="#5A5B5D" d="M449.882,85.375v1.744h-1.986v-1.744h-4.212v-1.783l3.643-5.427h2.543v5.488h1.24v1.723H449.882z
		 M447.908,80.339h-0.038l-2.125,3.314h2.163V80.339z"/>
	<path fill="#5A5B5D" d="M456.396,80.403c0,0.328-0.063,0.639-0.189,0.929c-0.127,0.293-0.297,0.543-0.513,0.76
		c-0.216,0.215-0.47,0.385-0.766,0.512c-0.295,0.127-0.607,0.189-0.937,0.189c-0.328,0-0.641-0.062-0.936-0.189
		s-0.551-0.297-0.766-0.512c-0.215-0.217-0.385-0.467-0.512-0.76c-0.127-0.291-0.19-0.601-0.19-0.929
		c0-0.338,0.063-0.652,0.19-0.943c0.127-0.289,0.297-0.543,0.512-0.758s0.471-0.385,0.766-0.506s0.607-0.184,0.936-0.184
		c0.329,0,0.642,0.062,0.937,0.184c0.296,0.121,0.55,0.291,0.766,0.506s0.386,0.469,0.513,0.758
		C456.333,79.751,456.396,80.065,456.396,80.403z M454.979,80.403c0-0.271-0.097-0.502-0.291-0.695
		c-0.193-0.195-0.426-0.291-0.696-0.291c-0.27,0-0.502,0.096-0.695,0.291c-0.193,0.193-0.291,0.424-0.291,0.695
		c0,0.27,0.098,0.5,0.291,0.689s0.426,0.283,0.695,0.283c0.271,0,0.503-0.093,0.696-0.283
		C454.883,80.903,454.979,80.673,454.979,80.403z M454.967,87.551l-1.125-0.557l5.224-9.234l1.177,0.568L454.967,87.551z
		 M462.468,84.881c0,0.328-0.062,0.639-0.188,0.93c-0.127,0.291-0.298,0.545-0.513,0.758c-0.216,0.217-0.471,0.389-0.766,0.514
		s-0.607,0.189-0.937,0.189c-0.328,0-0.641-0.064-0.936-0.189c-0.296-0.125-0.551-0.297-0.766-0.514
		c-0.215-0.213-0.386-0.467-0.512-0.758c-0.127-0.291-0.19-0.602-0.19-0.93c0-0.33,0.063-0.639,0.19-0.93
		c0.126-0.291,0.297-0.545,0.512-0.76s0.47-0.385,0.766-0.512c0.295-0.127,0.607-0.189,0.936-0.189c0.329,0,0.642,0.062,0.937,0.189
		s0.55,0.297,0.766,0.512c0.215,0.215,0.386,0.469,0.513,0.76C462.405,84.243,462.468,84.551,462.468,84.881z M461.051,84.881
		c0-0.137-0.027-0.264-0.082-0.387s-0.126-0.227-0.215-0.316c-0.088-0.088-0.191-0.156-0.309-0.207
		c-0.119-0.053-0.246-0.078-0.381-0.078c-0.27,0-0.502,0.098-0.695,0.293s-0.291,0.426-0.291,0.695s0.098,0.5,0.291,0.689
		s0.426,0.285,0.695,0.285c0.135,0,0.262-0.027,0.381-0.076c0.117-0.051,0.221-0.121,0.309-0.209
		c0.089-0.088,0.16-0.193,0.215-0.311S461.051,85.016,461.051,84.881z"/>
</g>
<g>
	<path fill="#5A5B5D" d="M492.613,93.667v-1.768l3.492-3.156c0.219-0.211,0.396-0.426,0.531-0.643
		c0.135-0.221,0.203-0.465,0.203-0.734c0-0.32-0.102-0.578-0.305-0.775c-0.203-0.199-0.472-0.297-0.809-0.297
		c-0.355,0-0.645,0.123-0.867,0.373c-0.224,0.248-0.356,0.576-0.398,0.979l-2.037-0.279c0.051-0.453,0.176-0.859,0.373-1.215
		c0.199-0.355,0.449-0.658,0.753-0.91c0.304-0.25,0.651-0.441,1.044-0.572c0.393-0.133,0.808-0.197,1.246-0.197
		c0.412,0,0.813,0.055,1.201,0.164c0.389,0.109,0.734,0.277,1.038,0.506s0.546,0.514,0.728,0.859
		c0.182,0.348,0.271,0.752,0.271,1.215c0,0.322-0.043,0.609-0.127,0.867s-0.199,0.494-0.348,0.715
		c-0.147,0.219-0.316,0.424-0.506,0.613s-0.386,0.377-0.588,0.562l-2.074,1.846h3.655v1.848H492.613z"/>
	<path fill="#5A5B5D" d="M504.783,86.95c0,0.33-0.063,0.639-0.189,0.932c-0.127,0.289-0.297,0.543-0.513,0.756
		c-0.215,0.217-0.47,0.389-0.766,0.516c-0.295,0.125-0.607,0.188-0.936,0.188c-0.329,0-0.642-0.062-0.937-0.188
		c-0.295-0.127-0.55-0.299-0.766-0.516c-0.215-0.213-0.385-0.467-0.512-0.756c-0.127-0.293-0.189-0.602-0.189-0.932
		c0-0.336,0.062-0.65,0.189-0.941s0.297-0.543,0.512-0.76c0.216-0.215,0.471-0.383,0.766-0.506s0.607-0.184,0.937-0.184
		c0.328,0,0.641,0.061,0.936,0.184c0.296,0.123,0.551,0.291,0.766,0.506c0.216,0.217,0.386,0.469,0.513,0.76
		C504.72,86.299,504.783,86.614,504.783,86.95z M503.366,86.95c0-0.268-0.097-0.5-0.291-0.693c-0.193-0.195-0.426-0.293-0.695-0.293
		c-0.271,0-0.503,0.098-0.696,0.293c-0.193,0.193-0.291,0.426-0.291,0.693c0,0.27,0.098,0.5,0.291,0.691
		c0.193,0.189,0.426,0.283,0.696,0.283c0.27,0,0.502-0.094,0.695-0.283C503.27,87.45,503.366,87.219,503.366,86.95z M503.354,94.098
		l-1.125-0.559l5.224-9.232l1.177,0.568L503.354,94.098z M510.855,91.428c0,0.33-0.063,0.639-0.189,0.93
		c-0.127,0.291-0.298,0.543-0.513,0.76c-0.216,0.215-0.471,0.385-0.766,0.512s-0.607,0.189-0.937,0.189
		c-0.328,0-0.641-0.062-0.936-0.189s-0.551-0.297-0.766-0.512c-0.215-0.217-0.386-0.469-0.512-0.76c-0.127-0.291-0.19-0.6-0.19-0.93
		c0-0.328,0.063-0.639,0.19-0.93c0.126-0.291,0.297-0.545,0.512-0.76s0.471-0.385,0.766-0.512s0.607-0.189,0.936-0.189
		c0.329,0,0.642,0.062,0.937,0.189s0.55,0.297,0.766,0.512c0.215,0.215,0.386,0.469,0.513,0.76
		C510.792,90.79,510.855,91.1,510.855,91.428z M509.438,91.428c0-0.133-0.027-0.264-0.082-0.385
		c-0.055-0.123-0.126-0.229-0.215-0.316c-0.088-0.09-0.191-0.16-0.309-0.209c-0.119-0.051-0.246-0.076-0.381-0.076
		c-0.27,0-0.502,0.096-0.695,0.291c-0.193,0.193-0.291,0.426-0.291,0.695s0.098,0.5,0.291,0.689s0.426,0.285,0.695,0.285
		c0.135,0,0.262-0.025,0.381-0.076c0.117-0.051,0.221-0.119,0.309-0.209c0.089-0.088,0.16-0.191,0.215-0.309
		C509.41,91.69,509.438,91.563,509.438,91.428z"/>
</g>
<g>
	<path fill="#5A5B5D" d="M545.412,93.639c0,0.633-0.064,1.234-0.191,1.809c-0.126,0.574-0.328,1.078-0.607,1.512
		c-0.277,0.434-0.638,0.781-1.08,1.039c-0.443,0.256-0.981,0.385-1.613,0.385c-0.633,0-1.172-0.129-1.619-0.385
		c-0.447-0.258-0.812-0.605-1.094-1.039c-0.283-0.434-0.487-0.938-0.613-1.512c-0.127-0.574-0.191-1.176-0.191-1.809
		s0.064-1.232,0.191-1.803c0.126-0.568,0.33-1.066,0.613-1.492c0.281-0.426,0.646-0.766,1.094-1.02
		c0.447-0.252,0.986-0.379,1.619-0.379c0.632,0,1.17,0.127,1.613,0.379c0.442,0.254,0.803,0.594,1.08,1.02
		c0.279,0.426,0.481,0.924,0.607,1.492C545.348,92.407,545.412,93.006,545.412,93.639z M543.235,93.639
		c0-0.277-0.017-0.586-0.05-0.924c-0.035-0.338-0.098-0.652-0.19-0.941c-0.093-0.291-0.226-0.535-0.398-0.734
		c-0.173-0.197-0.398-0.297-0.677-0.297c-0.279,0-0.506,0.1-0.684,0.297c-0.177,0.199-0.314,0.443-0.41,0.734
		c-0.098,0.289-0.162,0.604-0.197,0.941c-0.033,0.338-0.05,0.646-0.05,0.924c0,0.287,0.017,0.602,0.05,0.941
		c0.035,0.342,0.1,0.658,0.197,0.949c0.096,0.291,0.233,0.535,0.41,0.734c0.178,0.197,0.404,0.297,0.684,0.297
		c0.278,0,0.504-0.1,0.677-0.297c0.173-0.199,0.306-0.443,0.398-0.734s0.155-0.607,0.19-0.949
		C543.219,94.241,543.235,93.926,543.235,93.639z"/>
	<path fill="#5A5B5D" d="M550.851,91.424c0,0.33-0.063,0.639-0.19,0.93c-0.126,0.293-0.297,0.545-0.512,0.76
		s-0.47,0.387-0.766,0.512c-0.295,0.127-0.607,0.189-0.936,0.189c-0.329,0-0.642-0.062-0.937-0.189
		c-0.295-0.125-0.55-0.297-0.765-0.512s-0.386-0.467-0.514-0.76c-0.126-0.291-0.188-0.6-0.188-0.93c0-0.336,0.062-0.65,0.188-0.941
		c0.128-0.291,0.299-0.543,0.514-0.76c0.215-0.215,0.47-0.383,0.765-0.506c0.295-0.121,0.607-0.184,0.937-0.184
		c0.328,0,0.641,0.062,0.936,0.184c0.296,0.123,0.551,0.291,0.766,0.506c0.215,0.217,0.386,0.469,0.512,0.76
		C550.787,90.774,550.851,91.088,550.851,91.424z M549.434,91.424c0-0.27-0.096-0.5-0.291-0.695
		c-0.193-0.193-0.426-0.291-0.695-0.291c-0.271,0-0.502,0.098-0.695,0.291c-0.195,0.195-0.291,0.426-0.291,0.695
		c0,0.271,0.096,0.5,0.291,0.689c0.193,0.191,0.425,0.285,0.695,0.285c0.27,0,0.502-0.094,0.695-0.285
		C549.338,91.924,549.434,91.696,549.434,91.424z M549.421,98.573l-1.126-0.557l5.225-9.234l1.177,0.568L549.421,98.573z
		 M556.922,95.905c0,0.326-0.062,0.639-0.189,0.928c-0.127,0.291-0.297,0.545-0.512,0.76s-0.471,0.387-0.766,0.512
		c-0.295,0.127-0.607,0.189-0.936,0.189c-0.329,0-0.642-0.062-0.937-0.189c-0.296-0.125-0.55-0.297-0.765-0.512
		c-0.216-0.215-0.387-0.469-0.514-0.76c-0.126-0.289-0.189-0.602-0.189-0.928c0-0.33,0.063-0.641,0.189-0.932
		c0.127-0.291,0.298-0.543,0.514-0.758c0.215-0.215,0.469-0.387,0.765-0.514c0.295-0.125,0.607-0.189,0.937-0.189
		c0.328,0,0.641,0.064,0.936,0.189c0.295,0.127,0.551,0.299,0.766,0.514s0.385,0.467,0.512,0.758S556.922,95.575,556.922,95.905z
		 M555.506,95.905c0-0.137-0.027-0.266-0.082-0.387c-0.055-0.123-0.127-0.229-0.215-0.316c-0.09-0.09-0.192-0.158-0.311-0.209
		s-0.244-0.076-0.379-0.076c-0.271,0-0.502,0.098-0.696,0.291s-0.291,0.426-0.291,0.697c0,0.27,0.097,0.498,0.291,0.688
		c0.194,0.191,0.426,0.285,0.696,0.285c0.135,0,0.261-0.025,0.379-0.076s0.221-0.121,0.311-0.209
		c0.088-0.088,0.16-0.191,0.215-0.311C555.479,96.165,555.506,96.038,555.506,95.905z"/>
</g>
<g>
	<path fill="#5A5B5D" d="M157.806,119.799v-1.768l3.492-3.157c0.219-0.21,0.396-0.425,0.531-0.644
		c0.135-0.219,0.202-0.463,0.202-0.732c0-0.32-0.101-0.579-0.303-0.776c-0.202-0.198-0.473-0.298-0.81-0.298
		c-0.354,0-0.643,0.125-0.867,0.373c-0.223,0.25-0.356,0.576-0.398,0.98l-2.037-0.277c0.051-0.456,0.175-0.861,0.374-1.217
		c0.198-0.356,0.449-0.659,0.752-0.909c0.304-0.251,0.652-0.442,1.043-0.573c0.392-0.132,0.807-0.198,1.246-0.198
		c0.413,0,0.814,0.056,1.202,0.165c0.388,0.109,0.734,0.278,1.037,0.506c0.304,0.228,0.546,0.515,0.728,0.859
		c0.181,0.347,0.271,0.752,0.271,1.215c0,0.32-0.042,0.609-0.126,0.866c-0.084,0.258-0.201,0.497-0.348,0.716
		c-0.148,0.219-0.316,0.424-0.506,0.612c-0.19,0.19-0.386,0.378-0.589,0.563l-2.074,1.848h3.656v1.846H157.806z"/>
	<path fill="#5A5B5D" d="M172.391,115.297c0,0.632-0.063,1.234-0.19,1.808s-0.329,1.077-0.607,1.513
		c-0.278,0.434-0.639,0.779-1.081,1.037c-0.443,0.257-0.98,0.385-1.613,0.385c-0.632,0-1.172-0.128-1.619-0.385
		c-0.447-0.258-0.812-0.604-1.094-1.037c-0.283-0.436-0.487-0.939-0.614-1.513s-0.19-1.176-0.19-1.808
		c0-0.634,0.063-1.234,0.19-1.804s0.331-1.067,0.614-1.492c0.282-0.426,0.646-0.767,1.094-1.019c0.447-0.254,0.987-0.38,1.619-0.38
		c0.633,0,1.17,0.126,1.613,0.38c0.442,0.252,0.803,0.593,1.081,1.019c0.278,0.425,0.481,0.923,0.607,1.492
		S172.391,114.664,172.391,115.297z M170.215,115.297c0-0.279-0.017-0.586-0.05-0.924s-0.097-0.652-0.19-0.942
		c-0.093-0.292-0.225-0.536-0.398-0.733c-0.173-0.199-0.399-0.299-0.677-0.299c-0.278,0-0.506,0.1-0.683,0.299
		c-0.177,0.197-0.314,0.441-0.411,0.733c-0.097,0.29-0.163,0.604-0.196,0.942c-0.034,0.338-0.051,0.645-0.051,0.924
		c0,0.285,0.017,0.6,0.051,0.941c0.034,0.342,0.099,0.658,0.196,0.949c0.097,0.291,0.234,0.535,0.411,0.733
		c0.177,0.198,0.405,0.297,0.683,0.297c0.278,0,0.504-0.099,0.677-0.297c0.173-0.198,0.305-0.442,0.398-0.733
		s0.156-0.607,0.19-0.949S170.215,115.583,170.215,115.297z"/>
	<path fill="#5A5B5D" d="M177.83,113.083c0,0.329-0.063,0.639-0.189,0.93s-0.297,0.545-0.513,0.76
		c-0.215,0.215-0.47,0.385-0.765,0.512c-0.295,0.127-0.607,0.189-0.937,0.189s-0.641-0.062-0.937-0.189
		c-0.295-0.127-0.55-0.297-0.765-0.512s-0.386-0.469-0.512-0.76s-0.19-0.601-0.19-0.93c0-0.337,0.063-0.651,0.19-0.942
		s0.297-0.544,0.512-0.759s0.47-0.383,0.765-0.506c0.296-0.122,0.607-0.184,0.937-0.184s0.641,0.062,0.937,0.184
		c0.295,0.123,0.55,0.291,0.765,0.506c0.216,0.215,0.386,0.468,0.513,0.759S177.83,112.746,177.83,113.083z M176.414,113.083
		c0-0.27-0.097-0.502-0.291-0.695c-0.194-0.193-0.426-0.291-0.696-0.291c-0.27,0-0.501,0.098-0.695,0.291s-0.292,0.426-0.292,0.695
		c0,0.271,0.098,0.5,0.292,0.689s0.426,0.284,0.695,0.284c0.27,0,0.502-0.095,0.696-0.284
		C176.317,113.583,176.414,113.353,176.414,113.083z M176.401,120.23l-1.126-0.558l5.224-9.233l1.176,0.569L176.401,120.23z
		 M183.902,117.561c0,0.328-0.063,0.639-0.189,0.93c-0.127,0.291-0.297,0.544-0.513,0.759c-0.215,0.215-0.47,0.386-0.765,0.513
		s-0.607,0.189-0.936,0.189c-0.329,0-0.642-0.062-0.937-0.189s-0.55-0.298-0.765-0.513c-0.215-0.215-0.385-0.468-0.512-0.759
		s-0.19-0.602-0.19-0.93c0-0.33,0.063-0.639,0.19-0.93s0.297-0.544,0.512-0.76c0.215-0.215,0.47-0.386,0.765-0.512
		c0.295-0.127,0.607-0.19,0.937-0.19c0.329,0,0.641,0.063,0.936,0.19c0.295,0.126,0.55,0.297,0.765,0.512
		c0.216,0.216,0.386,0.469,0.513,0.76C183.839,116.922,183.902,117.231,183.902,117.561z M182.486,117.561
		c0-0.135-0.028-0.264-0.083-0.387c-0.055-0.121-0.126-0.227-0.215-0.316c-0.089-0.088-0.192-0.157-0.31-0.208
		s-0.245-0.075-0.379-0.075c-0.27,0-0.502,0.097-0.696,0.29c-0.194,0.194-0.291,0.427-0.291,0.696s0.097,0.499,0.291,0.689
		c0.194,0.189,0.426,0.284,0.696,0.284c0.135,0,0.261-0.025,0.379-0.075c0.118-0.051,0.221-0.121,0.31-0.209
		c0.088-0.089,0.16-0.191,0.215-0.311C182.458,117.823,182.486,117.696,182.486,117.561z"/>
</g>
<g>
	<path fill="#5A5B5D" d="M211.823,117.198c0,0.488-0.1,0.912-0.298,1.271c-0.198,0.358-0.458,0.652-0.778,0.884
		c-0.32,0.232-0.681,0.404-1.081,0.518c-0.401,0.113-0.808,0.172-1.221,0.172c-0.405,0-0.799-0.048-1.183-0.141
		c-0.384-0.092-0.734-0.234-1.05-0.424c-0.316-0.189-0.592-0.434-0.829-0.733s-0.413-0.659-0.531-1.081l1.974-0.52
		c0.084,0.296,0.257,0.555,0.518,0.778s0.595,0.335,1,0.335c0.151,0,0.306-0.021,0.462-0.062c0.155-0.043,0.295-0.107,0.417-0.196
		c0.123-0.089,0.224-0.204,0.304-0.348s0.12-0.321,0.12-0.531c0-0.229-0.053-0.417-0.158-0.569
		c-0.105-0.152-0.245-0.272-0.417-0.361c-0.173-0.088-0.369-0.15-0.588-0.189c-0.22-0.037-0.439-0.057-0.658-0.057h-0.569v-1.543
		h0.62c0.202,0,0.396-0.015,0.582-0.045c0.186-0.029,0.353-0.084,0.5-0.166c0.147-0.08,0.265-0.188,0.354-0.324
		c0.088-0.136,0.132-0.314,0.132-0.534c0-0.322-0.113-0.568-0.341-0.738s-0.489-0.255-0.784-0.255c-0.303,0-0.567,0.092-0.791,0.272
		c-0.224,0.182-0.369,0.423-0.437,0.728l-1.973-0.455c0.11-0.381,0.274-0.711,0.493-0.993c0.22-0.282,0.479-0.519,0.778-0.709
		c0.299-0.189,0.626-0.333,0.98-0.431c0.354-0.096,0.716-0.145,1.087-0.145c0.397,0,0.782,0.051,1.158,0.151
		c0.375,0.102,0.71,0.258,1.006,0.47c0.294,0.211,0.533,0.475,0.715,0.791c0.181,0.316,0.272,0.691,0.272,1.121
		c0,0.498-0.142,0.92-0.424,1.261c-0.282,0.342-0.643,0.572-1.081,0.69v0.038c0.253,0.06,0.485,0.153,0.696,0.284
		c0.21,0.131,0.392,0.286,0.544,0.467c0.152,0.182,0.27,0.385,0.354,0.607C211.78,116.708,211.823,116.946,211.823,117.198z"/>
	<path fill="#5A5B5D" d="M219.893,115.297c0,0.632-0.063,1.235-0.19,1.809c-0.126,0.574-0.329,1.077-0.607,1.512
		c-0.278,0.434-0.639,0.779-1.081,1.037c-0.443,0.258-0.98,0.387-1.613,0.387c-0.632,0-1.172-0.129-1.619-0.387
		s-0.812-0.604-1.094-1.037c-0.283-0.435-0.487-0.938-0.614-1.512c-0.126-0.573-0.19-1.177-0.19-1.809
		c0-0.633,0.063-1.234,0.19-1.803c0.126-0.57,0.331-1.066,0.614-1.493c0.282-0.426,0.646-0.765,1.094-1.019
		c0.447-0.253,0.987-0.379,1.619-0.379c0.633,0,1.17,0.126,1.613,0.379c0.442,0.254,0.803,0.593,1.081,1.019
		c0.278,0.427,0.481,0.923,0.607,1.493C219.83,114.063,219.893,114.665,219.893,115.297z M217.717,115.297
		c0-0.279-0.017-0.586-0.05-0.924s-0.097-0.651-0.19-0.942s-0.225-0.536-0.398-0.733c-0.173-0.199-0.399-0.298-0.677-0.298
		c-0.278,0-0.506,0.099-0.683,0.298c-0.177,0.197-0.314,0.442-0.411,0.733c-0.097,0.291-0.163,0.604-0.196,0.942
		c-0.034,0.338-0.051,0.645-0.051,0.924c0,0.286,0.017,0.6,0.051,0.941c0.034,0.342,0.099,0.658,0.196,0.949
		c0.097,0.291,0.234,0.535,0.411,0.733c0.177,0.198,0.405,0.298,0.683,0.298c0.278,0,0.504-0.1,0.677-0.298
		c0.173-0.198,0.305-0.442,0.398-0.733s0.156-0.607,0.19-0.949S217.717,115.583,217.717,115.297z"/>
	<path fill="#5A5B5D" d="M225.332,113.083c0,0.329-0.063,0.64-0.189,0.931c-0.126,0.29-0.297,0.544-0.513,0.759
		c-0.215,0.215-0.47,0.387-0.765,0.513c-0.295,0.126-0.607,0.188-0.937,0.188s-0.641-0.062-0.937-0.188
		c-0.295-0.126-0.55-0.298-0.765-0.513s-0.386-0.469-0.512-0.759c-0.126-0.291-0.19-0.602-0.19-0.931
		c0-0.337,0.063-0.651,0.19-0.941c0.126-0.292,0.297-0.545,0.512-0.76s0.47-0.383,0.765-0.506c0.296-0.122,0.607-0.184,0.937-0.184
		s0.641,0.062,0.937,0.184c0.295,0.123,0.55,0.291,0.765,0.506c0.216,0.215,0.386,0.468,0.513,0.76
		C225.269,112.431,225.332,112.746,225.332,113.083z M223.916,113.083c0-0.27-0.097-0.5-0.291-0.695
		c-0.194-0.193-0.426-0.291-0.696-0.291c-0.27,0-0.501,0.098-0.695,0.291c-0.194,0.195-0.292,0.426-0.292,0.695
		c0,0.271,0.098,0.5,0.292,0.689c0.194,0.19,0.426,0.285,0.695,0.285c0.27,0,0.502-0.095,0.696-0.285
		C223.819,113.583,223.916,113.353,223.916,113.083z M223.903,120.23l-1.126-0.556l5.224-9.235l1.176,0.569L223.903,120.23z
		 M231.404,117.561c0,0.329-0.063,0.639-0.189,0.93c-0.127,0.291-0.297,0.544-0.513,0.76c-0.215,0.215-0.47,0.385-0.765,0.512
		s-0.607,0.189-0.936,0.189c-0.329,0-0.642-0.062-0.937-0.189s-0.55-0.297-0.765-0.512c-0.215-0.216-0.385-0.469-0.512-0.76
		s-0.19-0.601-0.19-0.93c0-0.328,0.063-0.639,0.19-0.93s0.297-0.544,0.512-0.759c0.215-0.216,0.47-0.386,0.765-0.513
		s0.607-0.189,0.937-0.189c0.329,0,0.641,0.062,0.936,0.189s0.55,0.297,0.765,0.513c0.216,0.215,0.386,0.468,0.513,0.759
		C231.341,116.922,231.404,117.233,231.404,117.561z M229.988,117.561c0-0.135-0.028-0.264-0.083-0.386
		c-0.055-0.122-0.126-0.228-0.215-0.315c-0.089-0.09-0.192-0.158-0.31-0.209s-0.245-0.076-0.379-0.076
		c-0.27,0-0.502,0.097-0.696,0.291c-0.194,0.193-0.291,0.426-0.291,0.695s0.097,0.5,0.291,0.689
		c0.194,0.189,0.426,0.285,0.696,0.285c0.135,0,0.261-0.025,0.379-0.076s0.221-0.121,0.31-0.209c0.088-0.088,0.16-0.191,0.215-0.31
		C229.96,117.823,229.988,117.696,229.988,117.561z"/>
</g>
<g>
	<path fill="#5A5B5D" d="M258.375,118.054v1.745h-1.986v-1.745h-4.212v-1.784l3.643-5.426h2.543v5.489h1.24v1.721H258.375z
		 M256.402,113.019h-0.038l-2.125,3.314h2.163V113.019z"/>
	<path fill="#5A5B5D" d="M267.306,115.295c0,0.634-0.063,1.236-0.19,1.81s-0.329,1.077-0.607,1.512
		c-0.278,0.435-0.639,0.78-1.081,1.038c-0.443,0.257-0.98,0.385-1.613,0.385c-0.632,0-1.172-0.128-1.619-0.385
		c-0.447-0.258-0.812-0.604-1.094-1.038c-0.283-0.435-0.487-0.938-0.614-1.512s-0.19-1.176-0.19-1.81
		c0-0.632,0.063-1.232,0.19-1.802s0.331-1.067,0.614-1.493c0.282-0.426,0.646-0.765,1.094-1.018s0.987-0.38,1.619-0.38
		c0.633,0,1.17,0.127,1.613,0.38c0.442,0.253,0.803,0.592,1.081,1.018c0.278,0.426,0.481,0.924,0.607,1.493
		S267.306,114.664,267.306,115.295z M265.13,115.295c0-0.277-0.017-0.586-0.05-0.922c-0.034-0.338-0.097-0.652-0.19-0.943
		s-0.225-0.535-0.398-0.734c-0.173-0.197-0.399-0.297-0.677-0.297c-0.278,0-0.506,0.1-0.683,0.297
		c-0.177,0.199-0.314,0.443-0.411,0.734c-0.097,0.291-0.163,0.605-0.196,0.943c-0.034,0.336-0.051,0.645-0.051,0.922
		c0,0.287,0.017,0.602,0.051,0.943c0.034,0.342,0.099,0.658,0.196,0.949c0.097,0.291,0.234,0.535,0.411,0.733
		c0.177,0.198,0.405,0.297,0.683,0.297c0.278,0,0.504-0.099,0.677-0.297c0.173-0.198,0.305-0.442,0.398-0.733
		s0.156-0.607,0.19-0.949S265.13,115.583,265.13,115.295z"/>
	<path fill="#5A5B5D" d="M272.745,113.083c0,0.328-0.063,0.639-0.189,0.93s-0.297,0.544-0.513,0.759
		c-0.215,0.216-0.47,0.386-0.765,0.513c-0.295,0.127-0.607,0.189-0.937,0.189s-0.641-0.062-0.937-0.189
		c-0.295-0.127-0.55-0.297-0.765-0.513c-0.215-0.215-0.386-0.468-0.512-0.759s-0.19-0.602-0.19-0.93c0-0.337,0.063-0.651,0.19-0.942
		s0.297-0.544,0.512-0.759c0.215-0.216,0.47-0.385,0.765-0.506c0.296-0.122,0.607-0.184,0.937-0.184s0.641,0.062,0.937,0.184
		c0.295,0.121,0.55,0.29,0.765,0.506c0.216,0.215,0.386,0.468,0.513,0.759S272.745,112.746,272.745,113.083z M271.329,113.083
		c0-0.27-0.097-0.502-0.291-0.695c-0.194-0.194-0.426-0.291-0.696-0.291c-0.27,0-0.501,0.097-0.695,0.291
		c-0.194,0.193-0.292,0.426-0.292,0.695s0.098,0.5,0.292,0.689s0.426,0.284,0.695,0.284c0.27,0,0.502-0.095,0.696-0.284
		C271.232,113.583,271.329,113.352,271.329,113.083z M271.316,120.23l-1.126-0.558l5.224-9.233l1.176,0.568L271.316,120.23z
		 M278.817,117.561c0,0.328-0.063,0.639-0.189,0.929c-0.127,0.291-0.297,0.545-0.513,0.76c-0.215,0.215-0.47,0.386-0.765,0.513
		c-0.295,0.126-0.607,0.189-0.936,0.189c-0.329,0-0.642-0.063-0.937-0.189c-0.295-0.127-0.55-0.298-0.765-0.513
		c-0.215-0.215-0.385-0.469-0.512-0.76c-0.126-0.29-0.19-0.601-0.19-0.929c0-0.33,0.063-0.64,0.19-0.93
		c0.126-0.292,0.297-0.545,0.512-0.76c0.215-0.215,0.47-0.386,0.765-0.512c0.295-0.127,0.607-0.19,0.937-0.19
		c0.329,0,0.641,0.063,0.936,0.19c0.295,0.126,0.55,0.297,0.765,0.512c0.216,0.215,0.386,0.468,0.513,0.76
		C278.754,116.921,278.817,117.231,278.817,117.561z M277.401,117.561c0-0.135-0.028-0.264-0.083-0.387
		c-0.055-0.121-0.126-0.228-0.215-0.316c-0.089-0.088-0.192-0.158-0.31-0.208c-0.118-0.051-0.245-0.076-0.379-0.076
		c-0.27,0-0.502,0.097-0.696,0.291c-0.194,0.194-0.291,0.426-0.291,0.696c0,0.27,0.097,0.499,0.291,0.688
		c0.194,0.19,0.426,0.284,0.696,0.284c0.135,0,0.261-0.024,0.379-0.074c0.118-0.052,0.221-0.121,0.31-0.21
		c0.088-0.089,0.16-0.191,0.215-0.31C277.373,117.822,277.401,117.696,277.401,117.561z"/>
</g>
<g>
	<path fill="#5A5B5D" d="M306.496,116.839c0,0.549-0.097,1.023-0.291,1.423c-0.193,0.401-0.453,0.732-0.777,0.994
		s-0.693,0.457-1.106,0.588s-0.84,0.195-1.278,0.195c-0.404,0-0.79-0.052-1.157-0.156c-0.366-0.106-0.7-0.256-0.999-0.449
		c-0.3-0.195-0.557-0.434-0.771-0.716s-0.373-0.601-0.475-0.955l1.936-0.595c0.092,0.312,0.268,0.57,0.524,0.772
		s0.563,0.304,0.917,0.304c0.363,0,0.678-0.11,0.943-0.33c0.266-0.219,0.398-0.543,0.398-0.974c0-0.261-0.056-0.481-0.165-0.657
		c-0.109-0.178-0.251-0.318-0.423-0.424c-0.174-0.105-0.37-0.18-0.59-0.222c-0.219-0.043-0.438-0.063-0.657-0.063
		c-0.321,0-0.685,0.037-1.094,0.107c-0.409,0.072-0.774,0.167-1.095,0.285l0.215-5.123h5.49v1.821h-3.605l-0.076,1.417
		c0.136-0.033,0.285-0.057,0.449-0.069c0.165-0.013,0.314-0.02,0.449-0.02c0.447,0,0.869,0.06,1.266,0.177
		c0.396,0.118,0.74,0.298,1.031,0.537c0.291,0.241,0.52,0.538,0.689,0.893C306.412,115.954,306.496,116.368,306.496,116.839z"/>
	<path fill="#5A5B5D" d="M314.58,115.297c0,0.632-0.063,1.235-0.189,1.809c-0.127,0.574-0.33,1.076-0.607,1.512
		c-0.278,0.435-0.639,0.779-1.082,1.037c-0.442,0.257-0.98,0.385-1.613,0.385c-0.632,0-1.172-0.128-1.619-0.385
		c-0.447-0.258-0.812-0.603-1.094-1.037c-0.282-0.436-0.486-0.938-0.613-1.512c-0.127-0.573-0.189-1.177-0.189-1.809
		c0-0.633,0.062-1.234,0.189-1.803c0.127-0.57,0.331-1.066,0.613-1.494c0.282-0.425,0.646-0.765,1.094-1.018
		c0.447-0.254,0.987-0.379,1.619-0.379c0.633,0,1.171,0.125,1.613,0.379c0.443,0.253,0.804,0.593,1.082,1.018
		c0.277,0.428,0.48,0.924,0.607,1.494C314.517,114.063,314.58,114.665,314.58,115.297z M312.404,115.297
		c0-0.279-0.018-0.586-0.051-0.924s-0.098-0.652-0.189-0.943c-0.094-0.291-0.226-0.535-0.398-0.733
		c-0.174-0.198-0.398-0.297-0.678-0.297c-0.277,0-0.506,0.099-0.682,0.297c-0.178,0.198-0.314,0.442-0.412,0.733
		c-0.097,0.291-0.162,0.605-0.195,0.943c-0.035,0.338-0.051,0.645-0.051,0.924c0,0.286,0.016,0.601,0.051,0.941
		c0.033,0.342,0.099,0.658,0.195,0.949c0.098,0.291,0.234,0.535,0.412,0.733c0.176,0.198,0.404,0.298,0.682,0.298
		c0.279,0,0.504-0.1,0.678-0.298c0.173-0.198,0.305-0.442,0.398-0.733c0.092-0.291,0.156-0.607,0.189-0.949
		C312.387,115.898,312.404,115.583,312.404,115.297z"/>
	<path fill="#5A5B5D" d="M320.02,113.083c0,0.329-0.063,0.639-0.189,0.931c-0.127,0.29-0.297,0.543-0.514,0.758
		c-0.215,0.216-0.469,0.386-0.764,0.513c-0.296,0.127-0.607,0.189-0.938,0.189c-0.329,0-0.641-0.062-0.937-0.189
		c-0.294-0.127-0.55-0.297-0.765-0.513c-0.215-0.215-0.385-0.468-0.512-0.758c-0.127-0.292-0.189-0.602-0.189-0.931
		c0-0.337,0.062-0.65,0.189-0.941c0.127-0.292,0.297-0.545,0.512-0.76s0.471-0.383,0.765-0.506c0.296-0.123,0.607-0.184,0.937-0.184
		c0.33,0,0.642,0.061,0.938,0.184c0.295,0.123,0.549,0.291,0.764,0.506c0.217,0.215,0.387,0.468,0.514,0.76
		C319.956,112.432,320.02,112.746,320.02,113.083z M318.603,113.083c0-0.27-0.097-0.5-0.291-0.695
		c-0.194-0.193-0.426-0.291-0.696-0.291c-0.27,0-0.501,0.098-0.695,0.291c-0.193,0.195-0.291,0.426-0.291,0.695
		c0,0.271,0.098,0.5,0.291,0.689c0.194,0.189,0.426,0.285,0.695,0.285c0.271,0,0.502-0.096,0.696-0.285
		S318.603,113.353,318.603,113.083z M318.59,120.23l-1.126-0.557l5.226-9.234l1.176,0.569L318.59,120.23z M326.092,117.561
		c0,0.328-0.062,0.639-0.189,0.93s-0.297,0.544-0.514,0.759c-0.215,0.216-0.469,0.386-0.764,0.513
		c-0.297,0.126-0.607,0.189-0.938,0.189c-0.328,0-0.641-0.063-0.936-0.189c-0.295-0.127-0.551-0.297-0.766-0.513
		c-0.215-0.215-0.385-0.468-0.512-0.759s-0.189-0.602-0.189-0.93c0-0.329,0.062-0.639,0.189-0.93s0.297-0.544,0.512-0.759
		c0.215-0.216,0.471-0.386,0.766-0.513s0.607-0.189,0.936-0.189c0.33,0,0.641,0.062,0.938,0.189
		c0.295,0.127,0.549,0.297,0.764,0.513c0.217,0.215,0.387,0.468,0.514,0.759S326.092,117.232,326.092,117.561z M324.676,117.561
		c0-0.135-0.029-0.264-0.084-0.386s-0.125-0.228-0.215-0.316c-0.088-0.089-0.191-0.157-0.309-0.209
		c-0.119-0.05-0.246-0.076-0.381-0.076c-0.27,0-0.502,0.098-0.695,0.291c-0.193,0.194-0.291,0.427-0.291,0.696
		s0.098,0.5,0.291,0.689s0.426,0.285,0.695,0.285c0.135,0,0.262-0.025,0.381-0.076c0.117-0.051,0.221-0.121,0.309-0.209
		c0.09-0.088,0.16-0.191,0.215-0.31C324.646,117.822,324.676,117.696,324.676,117.561z"/>
</g>
<g>
	<path fill="#5A5B5D" d="M354.075,116.791c0,0.504-0.093,0.96-0.277,1.365c-0.186,0.405-0.438,0.746-0.759,1.024
		c-0.319,0.279-0.694,0.492-1.124,0.64c-0.429,0.146-0.883,0.221-1.363,0.221c-0.488,0-0.945-0.074-1.37-0.221
		c-0.425-0.147-0.798-0.36-1.117-0.64c-0.319-0.278-0.573-0.615-0.758-1.012c-0.186-0.396-0.278-0.838-0.278-1.328
		c0-0.531,0.094-1.014,0.279-1.447c0.185-0.436,0.426-0.876,0.721-1.324l2.16-3.224h2.566l-2.203,3.061l-0.037,0.063
		c0.083-0.034,0.185-0.06,0.303-0.075c0.117-0.018,0.227-0.026,0.328-0.026c0.387,0,0.76,0.069,1.117,0.21
		c0.357,0.138,0.67,0.337,0.935,0.594c0.265,0.258,0.478,0.564,0.638,0.924C353.995,115.953,354.075,116.352,354.075,116.791z
		 M351.962,116.84c0-0.405-0.127-0.739-0.381-1.005c-0.254-0.267-0.593-0.399-1.017-0.399c-0.423,0-0.767,0.131-1.028,0.393
		c-0.264,0.261-0.395,0.604-0.395,1.024c0,0.388,0.127,0.721,0.381,1c0.254,0.278,0.598,0.418,1.029,0.418
		c0.424,0,0.765-0.132,1.023-0.393C351.833,117.617,351.962,117.27,351.962,116.84z"/>
	<path fill="#5A5B5D" d="M361.931,115.296c0,0.633-0.063,1.237-0.189,1.811c-0.127,0.572-0.33,1.076-0.607,1.511
		c-0.278,0.436-0.639,0.78-1.082,1.038c-0.442,0.257-0.98,0.385-1.613,0.385c-0.632,0-1.172-0.128-1.619-0.385
		c-0.447-0.258-0.812-0.603-1.094-1.038c-0.282-0.435-0.486-0.938-0.613-1.511c-0.127-0.573-0.189-1.178-0.189-1.811
		c0-0.632,0.062-1.232,0.189-1.802s0.331-1.066,0.613-1.493c0.282-0.426,0.646-0.765,1.094-1.019
		c0.447-0.253,0.987-0.379,1.619-0.379c0.633,0,1.171,0.126,1.613,0.379c0.443,0.254,0.804,0.593,1.082,1.019
		c0.277,0.427,0.48,0.924,0.607,1.493C361.867,114.064,361.931,114.665,361.931,115.296z M359.755,115.296
		c0-0.277-0.018-0.586-0.051-0.923c-0.033-0.338-0.098-0.651-0.189-0.942c-0.094-0.291-0.226-0.535-0.398-0.733
		c-0.174-0.198-0.398-0.298-0.678-0.298c-0.277,0-0.506,0.1-0.682,0.298c-0.178,0.198-0.314,0.442-0.412,0.733
		c-0.097,0.291-0.162,0.604-0.195,0.942c-0.035,0.337-0.051,0.646-0.051,0.923c0,0.287,0.016,0.603,0.051,0.942
		c0.033,0.343,0.099,0.658,0.195,0.949c0.098,0.291,0.234,0.535,0.412,0.734c0.176,0.197,0.404,0.297,0.682,0.297
		c0.279,0,0.504-0.1,0.678-0.297c0.173-0.199,0.305-0.443,0.398-0.734c0.092-0.291,0.156-0.606,0.189-0.949
		C359.737,115.899,359.755,115.583,359.755,115.296z"/>
	<path fill="#5A5B5D" d="M367.37,113.083c0,0.328-0.063,0.639-0.189,0.93c-0.127,0.291-0.297,0.544-0.514,0.758
		c-0.215,0.216-0.469,0.387-0.764,0.515c-0.296,0.124-0.607,0.188-0.938,0.188c-0.328,0-0.641-0.063-0.936-0.188
		c-0.295-0.128-0.551-0.299-0.766-0.515c-0.215-0.214-0.385-0.467-0.512-0.758s-0.189-0.602-0.189-0.93
		c0-0.337,0.062-0.651,0.189-0.942s0.297-0.544,0.512-0.759c0.215-0.216,0.471-0.384,0.766-0.507
		c0.295-0.122,0.607-0.183,0.936-0.183c0.33,0,0.642,0.061,0.938,0.183c0.295,0.123,0.549,0.291,0.764,0.507
		c0.217,0.215,0.387,0.468,0.514,0.759C367.307,112.432,367.37,112.747,367.37,113.083z M365.953,113.083
		c0-0.27-0.097-0.502-0.291-0.695c-0.194-0.194-0.426-0.292-0.696-0.292c-0.27,0-0.501,0.098-0.695,0.292
		c-0.193,0.193-0.291,0.426-0.291,0.695s0.098,0.5,0.291,0.689c0.194,0.189,0.426,0.285,0.695,0.285
		c0.271,0,0.502-0.096,0.696-0.285S365.953,113.353,365.953,113.083z M365.94,120.23l-1.125-0.556l5.224-9.235l1.177,0.569
		L365.94,120.23z M373.442,117.562c0,0.328-0.063,0.638-0.189,0.93c-0.127,0.29-0.297,0.543-0.514,0.759
		c-0.215,0.214-0.469,0.386-0.765,0.513c-0.296,0.126-0.607,0.189-0.937,0.189c-0.328,0-0.641-0.063-0.936-0.189
		c-0.295-0.127-0.551-0.299-0.766-0.513c-0.215-0.216-0.385-0.469-0.512-0.759c-0.127-0.292-0.189-0.602-0.189-0.93
		c0-0.329,0.062-0.639,0.189-0.931c0.127-0.29,0.297-0.543,0.512-0.759c0.215-0.214,0.471-0.386,0.766-0.513
		c0.295-0.126,0.607-0.189,0.936-0.189c0.329,0,0.641,0.063,0.937,0.189c0.296,0.127,0.55,0.299,0.765,0.513
		c0.217,0.216,0.387,0.469,0.514,0.759C373.379,116.923,373.442,117.233,373.442,117.562z M372.025,117.562
		c0-0.135-0.028-0.265-0.083-0.386c-0.055-0.122-0.126-0.227-0.215-0.316c-0.088-0.089-0.191-0.159-0.31-0.209
		s-0.245-0.076-0.38-0.076c-0.27,0-0.502,0.097-0.695,0.292c-0.194,0.193-0.291,0.426-0.291,0.695s0.097,0.498,0.291,0.689
		c0.193,0.189,0.426,0.284,0.695,0.284c0.135,0,0.262-0.024,0.38-0.077c0.118-0.05,0.222-0.119,0.31-0.207
		c0.089-0.089,0.16-0.191,0.215-0.31C371.997,117.823,372.025,117.696,372.025,117.562z"/>
</g>
<g>
	<path fill="#5A5B5D" d="M397.598,119.801h-2.467l3.63-7.134h-4.236v-1.822h6.502v1.695L397.598,119.801z"/>
	<path fill="#5A5B5D" d="M409.173,115.297c0,0.633-0.064,1.237-0.19,1.809c-0.126,0.574-0.329,1.078-0.607,1.513
		c-0.278,0.434-0.639,0.779-1.081,1.036c-0.443,0.257-0.98,0.387-1.613,0.387s-1.172-0.13-1.619-0.387s-0.812-0.603-1.094-1.036
		c-0.283-0.435-0.487-0.938-0.613-1.513c-0.127-0.571-0.19-1.176-0.19-1.809c0-0.632,0.063-1.233,0.19-1.803
		c0.126-0.569,0.33-1.066,0.613-1.492c0.281-0.426,0.646-0.766,1.094-1.019s0.986-0.379,1.619-0.379s1.17,0.126,1.613,0.379
		c0.442,0.253,0.803,0.593,1.081,1.019s0.481,0.923,0.607,1.492S409.173,114.666,409.173,115.297z M406.996,115.297
		c0-0.278-0.017-0.586-0.05-0.923c-0.034-0.338-0.098-0.651-0.19-0.943c-0.093-0.29-0.226-0.534-0.397-0.733
		c-0.174-0.198-0.399-0.297-0.678-0.297c-0.277,0-0.506,0.099-0.683,0.297c-0.177,0.199-0.314,0.443-0.411,0.733
		c-0.098,0.292-0.162,0.605-0.196,0.943c-0.034,0.337-0.051,0.645-0.051,0.923c0,0.286,0.017,0.601,0.051,0.942
		s0.099,0.658,0.196,0.949c0.097,0.291,0.234,0.535,0.411,0.732c0.177,0.199,0.405,0.299,0.683,0.299c0.278,0,0.504-0.1,0.678-0.299
		c0.172-0.197,0.305-0.441,0.397-0.732s0.156-0.607,0.19-0.949C406.979,115.898,406.996,115.583,406.996,115.297z"/>
	<path fill="#5A5B5D" d="M414.611,113.084c0,0.327-0.063,0.639-0.189,0.929s-0.297,0.545-0.513,0.76
		c-0.215,0.215-0.47,0.385-0.765,0.512c-0.296,0.127-0.607,0.19-0.937,0.19s-0.641-0.063-0.937-0.19
		c-0.295-0.127-0.55-0.297-0.765-0.512s-0.386-0.47-0.512-0.76c-0.127-0.29-0.19-0.602-0.19-0.929c0-0.337,0.063-0.652,0.19-0.942
		c0.126-0.292,0.297-0.545,0.512-0.76s0.47-0.383,0.765-0.506c0.296-0.122,0.607-0.183,0.937-0.183s0.641,0.061,0.937,0.183
		c0.295,0.123,0.55,0.291,0.765,0.506c0.216,0.215,0.387,0.468,0.513,0.76C414.548,112.432,414.611,112.748,414.611,113.084z
		 M413.194,113.084c0-0.271-0.096-0.503-0.291-0.696c-0.193-0.193-0.426-0.29-0.695-0.29s-0.502,0.097-0.695,0.29
		s-0.291,0.426-0.291,0.696c0,0.27,0.098,0.499,0.291,0.688c0.193,0.19,0.426,0.284,0.695,0.284s0.502-0.094,0.695-0.284
		C413.099,113.583,413.194,113.354,413.194,113.084z M413.183,120.231l-1.126-0.557l5.224-9.235l1.177,0.569L413.183,120.231z
		 M420.684,117.562c0,0.329-0.063,0.639-0.189,0.93c-0.127,0.291-0.297,0.544-0.513,0.76c-0.215,0.214-0.47,0.386-0.766,0.512
		c-0.295,0.127-0.607,0.19-0.936,0.19c-0.329,0-0.642-0.063-0.937-0.19c-0.295-0.126-0.55-0.298-0.765-0.512
		c-0.215-0.216-0.386-0.469-0.512-0.76c-0.127-0.291-0.19-0.601-0.19-0.93c0-0.328,0.063-0.638,0.19-0.93
		c0.126-0.292,0.297-0.543,0.512-0.759s0.47-0.387,0.765-0.513s0.607-0.189,0.937-0.189c0.328,0,0.641,0.063,0.936,0.189
		c0.296,0.126,0.551,0.297,0.766,0.513c0.216,0.216,0.386,0.467,0.513,0.759C420.62,116.924,420.684,117.234,420.684,117.562z
		 M419.267,117.562c0-0.135-0.027-0.264-0.082-0.387c-0.055-0.121-0.127-0.227-0.215-0.314c-0.089-0.089-0.191-0.158-0.311-0.211
		c-0.117-0.05-0.244-0.074-0.379-0.074c-0.27,0-0.502,0.097-0.695,0.29c-0.195,0.193-0.291,0.426-0.291,0.696
		c0,0.27,0.096,0.499,0.291,0.688c0.193,0.191,0.426,0.285,0.695,0.285c0.135,0,0.262-0.025,0.379-0.075
		c0.119-0.052,0.222-0.121,0.311-0.21c0.088-0.088,0.16-0.19,0.215-0.31C419.239,117.824,419.267,117.698,419.267,117.562z"/>
</g>
<g>
	<path fill="#5A5B5D" d="M448.572,117.243c0,0.473-0.093,0.883-0.278,1.234c-0.185,0.35-0.431,0.641-0.738,0.873
		c-0.307,0.23-0.664,0.402-1.072,0.516c-0.409,0.115-0.832,0.172-1.27,0.172c-0.446,0-0.871-0.057-1.275-0.172
		c-0.404-0.113-0.76-0.283-1.066-0.51c-0.308-0.227-0.554-0.518-0.738-0.867c-0.186-0.35-0.278-0.762-0.278-1.234
		c0-0.268,0.042-0.52,0.126-0.752c0.085-0.232,0.2-0.439,0.348-0.619c0.148-0.182,0.319-0.338,0.514-0.469
		c0.193-0.131,0.4-0.23,0.619-0.297v-0.025c-0.389-0.143-0.713-0.379-0.975-0.701c-0.261-0.324-0.391-0.736-0.391-1.234
		c0-0.414,0.083-0.779,0.252-1.102c0.169-0.318,0.396-0.588,0.684-0.803c0.286-0.215,0.619-0.377,0.998-0.486
		c0.381-0.109,0.777-0.164,1.189-0.164c0.414,0,0.809,0.051,1.184,0.156s0.706,0.264,0.993,0.477
		c0.286,0.209,0.517,0.475,0.688,0.789c0.174,0.316,0.26,0.682,0.26,1.096c0,0.498-0.126,0.914-0.38,1.252
		c-0.253,0.338-0.581,0.574-0.985,0.707v0.039c0.225,0.066,0.434,0.166,0.627,0.297c0.191,0.131,0.359,0.287,0.502,0.469
		c0.143,0.18,0.255,0.387,0.339,0.619C448.53,116.735,448.572,116.981,448.572,117.243z M446.46,117.167
		c0-0.346-0.116-0.635-0.348-0.865c-0.232-0.232-0.529-0.35-0.893-0.35c-0.371,0-0.672,0.113-0.904,0.342s-0.348,0.52-0.348,0.873
		c0,0.363,0.115,0.652,0.348,0.865c0.232,0.217,0.533,0.324,0.904,0.324s0.672-0.107,0.898-0.324
		C446.346,117.819,446.46,117.53,446.46,117.167z M446.296,113.272c0-0.297-0.105-0.541-0.316-0.734
		c-0.211-0.195-0.465-0.291-0.76-0.291c-0.32,0-0.577,0.096-0.771,0.291c-0.193,0.193-0.29,0.438-0.29,0.734
		c0,0.285,0.095,0.535,0.284,0.746c0.189,0.209,0.449,0.314,0.777,0.314c0.312,0,0.57-0.105,0.772-0.314
		C446.194,113.807,446.296,113.557,446.296,113.272z"/>
	<path fill="#5A5B5D" d="M456.58,115.295c0,0.633-0.063,1.234-0.19,1.807c-0.126,0.576-0.328,1.078-0.607,1.512
		c-0.277,0.436-0.639,0.781-1.08,1.039c-0.443,0.256-0.98,0.385-1.613,0.385s-1.172-0.129-1.619-0.385
		c-0.447-0.258-0.812-0.604-1.094-1.039c-0.283-0.434-0.488-0.936-0.614-1.512c-0.126-0.572-0.19-1.174-0.19-1.807
		s0.064-1.234,0.19-1.803c0.126-0.57,0.331-1.066,0.614-1.492c0.281-0.426,0.646-0.766,1.094-1.02
		c0.447-0.252,0.986-0.379,1.619-0.379s1.17,0.127,1.613,0.379c0.441,0.254,0.803,0.594,1.08,1.02
		c0.279,0.426,0.481,0.922,0.607,1.492C456.517,114.061,456.58,114.663,456.58,115.295z M454.403,115.295
		c0-0.279-0.016-0.586-0.05-0.924s-0.097-0.652-0.19-0.943c-0.092-0.291-0.225-0.535-0.397-0.732
		c-0.173-0.199-0.399-0.299-0.677-0.299c-0.278,0-0.506,0.1-0.684,0.299c-0.177,0.197-0.314,0.441-0.41,0.732
		c-0.098,0.291-0.163,0.605-0.197,0.943c-0.033,0.338-0.051,0.645-0.051,0.924c0,0.285,0.018,0.6,0.051,0.941
		c0.034,0.342,0.1,0.658,0.197,0.949c0.096,0.291,0.233,0.535,0.41,0.734c0.178,0.197,0.405,0.297,0.684,0.297
		c0.277,0,0.504-0.1,0.677-0.297c0.173-0.199,0.306-0.443,0.397-0.734c0.094-0.291,0.156-0.607,0.19-0.949
		S454.403,115.581,454.403,115.295z"/>
	<path fill="#5A5B5D" d="M462.019,113.081c0,0.328-0.062,0.639-0.189,0.93c-0.126,0.293-0.297,0.543-0.512,0.76
		c-0.215,0.215-0.471,0.385-0.766,0.512s-0.607,0.189-0.936,0.189c-0.33,0-0.641-0.062-0.938-0.189
		c-0.295-0.127-0.549-0.297-0.764-0.512c-0.215-0.217-0.387-0.467-0.513-0.76c-0.126-0.291-0.19-0.602-0.19-0.93
		c0-0.338,0.064-0.652,0.19-0.943c0.126-0.289,0.298-0.543,0.513-0.758s0.469-0.385,0.764-0.506
		c0.297-0.121,0.607-0.184,0.938-0.184c0.328,0,0.641,0.062,0.936,0.184s0.551,0.291,0.766,0.506s0.386,0.469,0.512,0.758
		C461.956,112.428,462.019,112.743,462.019,113.081z M460.603,113.081c0-0.271-0.097-0.502-0.291-0.695
		c-0.193-0.195-0.426-0.291-0.695-0.291s-0.502,0.096-0.695,0.291c-0.194,0.193-0.292,0.424-0.292,0.695
		c0,0.27,0.098,0.5,0.292,0.689c0.193,0.189,0.426,0.283,0.695,0.283s0.502-0.094,0.695-0.283
		C460.506,113.581,460.603,113.35,460.603,113.081z M460.591,120.229l-1.127-0.557l5.225-9.234l1.176,0.568L460.591,120.229z
		 M468.091,117.559c0,0.328-0.062,0.639-0.189,0.93s-0.297,0.545-0.512,0.758c-0.215,0.217-0.471,0.389-0.766,0.514
		s-0.607,0.189-0.936,0.189c-0.33,0-0.643-0.064-0.938-0.189s-0.549-0.297-0.765-0.514c-0.215-0.213-0.386-0.467-0.512-0.758
		s-0.19-0.602-0.19-0.93c0-0.33,0.064-0.639,0.19-0.93s0.297-0.545,0.512-0.76c0.216-0.215,0.47-0.385,0.765-0.512
		s0.607-0.189,0.938-0.189c0.328,0,0.641,0.062,0.936,0.189s0.551,0.297,0.766,0.512s0.385,0.469,0.512,0.76
		S468.091,117.229,468.091,117.559z M466.675,117.559c0-0.137-0.027-0.264-0.082-0.387c-0.056-0.123-0.127-0.227-0.215-0.316
		c-0.09-0.088-0.192-0.156-0.311-0.207c-0.118-0.053-0.244-0.078-0.379-0.078c-0.27,0-0.502,0.098-0.696,0.293
		s-0.291,0.426-0.291,0.695s0.097,0.5,0.291,0.689s0.427,0.285,0.696,0.285c0.135,0,0.261-0.027,0.379-0.076
		c0.118-0.051,0.221-0.121,0.311-0.209c0.088-0.088,0.159-0.193,0.215-0.311C466.647,117.821,466.675,117.694,466.675,117.559z"/>
</g>
<g>
	<path fill="#5A5B5D" d="M496.188,113.803c0,0.533-0.092,1.016-0.277,1.449c-0.186,0.436-0.426,0.875-0.721,1.322l-2.162,3.225
		h-2.564l2.228-3.086l0.024-0.037c-0.092,0.033-0.195,0.059-0.309,0.076s-0.222,0.025-0.322,0.025c-0.396,0-0.77-0.07-1.124-0.211
		c-0.354-0.137-0.665-0.336-0.935-0.594s-0.484-0.564-0.644-0.924c-0.161-0.359-0.24-0.756-0.24-1.193
		c0-0.508,0.093-0.961,0.278-1.367c0.186-0.404,0.438-0.748,0.757-1.023c0.32-0.279,0.694-0.492,1.124-0.641
		c0.43-0.146,0.884-0.221,1.363-0.221c0.488,0,0.947,0.074,1.377,0.221c0.43,0.148,0.802,0.361,1.117,0.641
		c0.316,0.275,0.566,0.613,0.752,1.012C496.096,112.872,496.188,113.315,496.188,113.803z M494.075,113.778
		c0-0.387-0.125-0.723-0.374-1.006c-0.251-0.281-0.592-0.422-1.023-0.422c-0.433,0-0.777,0.133-1.035,0.398
		c-0.26,0.264-0.389,0.613-0.389,1.043c0,0.404,0.127,0.74,0.381,1.004c0.254,0.268,0.594,0.4,1.018,0.4
		c0.423,0,0.766-0.131,1.029-0.393C493.943,114.542,494.075,114.202,494.075,113.778z"/>
	<path fill="#5A5B5D" d="M504.031,115.295c0,0.633-0.064,1.236-0.19,1.811c-0.126,0.572-0.329,1.078-0.607,1.512
		c-0.278,0.436-0.639,0.781-1.081,1.037c-0.443,0.258-0.98,0.387-1.613,0.387s-1.172-0.129-1.619-0.387
		c-0.447-0.256-0.812-0.602-1.094-1.037c-0.283-0.434-0.487-0.939-0.613-1.512c-0.127-0.574-0.19-1.178-0.19-1.811
		c0-0.631,0.063-1.232,0.19-1.801c0.126-0.57,0.33-1.068,0.613-1.494c0.281-0.426,0.646-0.766,1.094-1.016
		c0.447-0.256,0.986-0.381,1.619-0.381s1.17,0.125,1.613,0.381c0.442,0.25,0.803,0.59,1.081,1.016s0.481,0.924,0.607,1.494
		C503.967,114.063,504.031,114.665,504.031,115.295z M501.854,115.295c0-0.277-0.017-0.586-0.05-0.922
		c-0.034-0.338-0.098-0.652-0.19-0.943s-0.226-0.535-0.397-0.732c-0.174-0.199-0.399-0.299-0.678-0.299
		c-0.277,0-0.506,0.1-0.683,0.299c-0.177,0.197-0.314,0.441-0.411,0.732c-0.098,0.291-0.162,0.605-0.196,0.943
		c-0.034,0.336-0.051,0.645-0.051,0.922c0,0.289,0.017,0.604,0.051,0.943c0.034,0.342,0.099,0.658,0.196,0.949
		c0.097,0.291,0.234,0.535,0.411,0.734s0.405,0.297,0.683,0.297c0.278,0,0.504-0.098,0.678-0.297
		c0.172-0.199,0.305-0.443,0.397-0.734s0.156-0.607,0.19-0.949C501.838,115.899,501.854,115.584,501.854,115.295z"/>
	<path fill="#5A5B5D" d="M509.47,113.083c0,0.33-0.063,0.639-0.189,0.932c-0.126,0.289-0.297,0.543-0.513,0.756
		c-0.215,0.217-0.47,0.389-0.765,0.516c-0.296,0.125-0.607,0.188-0.937,0.188s-0.641-0.062-0.937-0.188
		c-0.295-0.127-0.55-0.299-0.765-0.516c-0.215-0.213-0.386-0.467-0.512-0.756c-0.127-0.293-0.19-0.602-0.19-0.932
		c0-0.336,0.063-0.65,0.19-0.941c0.126-0.291,0.297-0.543,0.512-0.76c0.215-0.215,0.47-0.383,0.765-0.506
		c0.296-0.123,0.607-0.184,0.937-0.184s0.641,0.061,0.937,0.184c0.295,0.123,0.55,0.291,0.765,0.506
		c0.216,0.217,0.387,0.469,0.513,0.76S509.47,112.747,509.47,113.083z M508.053,113.083c0-0.268-0.096-0.5-0.291-0.693
		c-0.193-0.195-0.426-0.293-0.695-0.293s-0.502,0.098-0.695,0.293c-0.193,0.193-0.291,0.426-0.291,0.693
		c0,0.27,0.098,0.5,0.291,0.691c0.193,0.189,0.426,0.283,0.695,0.283s0.502-0.094,0.695-0.283
		C507.957,113.583,508.053,113.352,508.053,113.083z M508.041,120.231l-1.126-0.559l5.224-9.232l1.177,0.568L508.041,120.231z
		 M515.542,117.561c0,0.33-0.063,0.639-0.189,0.93c-0.127,0.291-0.297,0.543-0.513,0.76c-0.215,0.215-0.47,0.385-0.766,0.512
		c-0.295,0.127-0.607,0.189-0.936,0.189c-0.329,0-0.642-0.062-0.937-0.189s-0.55-0.297-0.765-0.512
		c-0.215-0.217-0.386-0.469-0.512-0.76c-0.127-0.291-0.19-0.6-0.19-0.93c0-0.328,0.063-0.639,0.19-0.93
		c0.126-0.291,0.297-0.545,0.512-0.76s0.47-0.385,0.765-0.512s0.607-0.189,0.937-0.189c0.328,0,0.641,0.062,0.936,0.189
		c0.296,0.127,0.551,0.297,0.766,0.512c0.216,0.215,0.386,0.469,0.513,0.76C515.479,116.922,515.542,117.233,515.542,117.561z
		 M514.125,117.561c0-0.133-0.027-0.264-0.082-0.385c-0.055-0.123-0.127-0.229-0.215-0.316c-0.089-0.09-0.191-0.16-0.311-0.209
		c-0.117-0.051-0.244-0.076-0.379-0.076c-0.27,0-0.502,0.096-0.695,0.291c-0.195,0.193-0.291,0.426-0.291,0.695
		s0.096,0.5,0.291,0.689c0.193,0.189,0.426,0.285,0.695,0.285c0.135,0,0.262-0.025,0.379-0.076c0.119-0.051,0.222-0.119,0.311-0.209
		c0.088-0.088,0.16-0.191,0.215-0.309C514.098,117.823,514.125,117.696,514.125,117.561z"/>
</g>
<g>
	<path fill="#5A5B5D" d="M533.445,119.813v-6.576l-1.67,1.291l-1.101-1.506l2.946-2.164h1.937v8.955H533.445z"/>
	<path fill="#5A5B5D" d="M545.311,115.311c0,0.633-0.062,1.234-0.189,1.809s-0.329,1.078-0.607,1.512
		c-0.277,0.434-0.639,0.781-1.081,1.039c-0.442,0.256-0.98,0.385-1.613,0.385c-0.632,0-1.173-0.129-1.619-0.385
		c-0.447-0.258-0.812-0.605-1.094-1.039s-0.487-0.938-0.614-1.512c-0.126-0.574-0.189-1.176-0.189-1.809s0.063-1.232,0.189-1.803
		c0.127-0.568,0.332-1.066,0.614-1.492s0.646-0.766,1.094-1.02c0.446-0.252,0.987-0.379,1.619-0.379
		c0.633,0,1.171,0.127,1.613,0.379c0.442,0.254,0.804,0.594,1.081,1.02c0.278,0.426,0.48,0.924,0.607,1.492
		C545.248,114.079,545.311,114.678,545.311,115.311z M543.135,115.311c0-0.277-0.017-0.586-0.051-0.924
		c-0.033-0.338-0.098-0.652-0.189-0.941c-0.093-0.291-0.226-0.535-0.398-0.734c-0.174-0.197-0.398-0.297-0.677-0.297
		s-0.506,0.1-0.683,0.297c-0.178,0.199-0.314,0.443-0.412,0.734c-0.097,0.289-0.162,0.604-0.195,0.941
		c-0.034,0.338-0.051,0.646-0.051,0.924c0,0.287,0.017,0.602,0.051,0.941c0.033,0.342,0.099,0.658,0.195,0.949
		c0.098,0.291,0.234,0.535,0.412,0.734c0.177,0.197,0.404,0.297,0.683,0.297s0.503-0.1,0.677-0.297
		c0.173-0.199,0.306-0.443,0.398-0.734c0.092-0.291,0.156-0.607,0.189-0.949C543.118,115.913,543.135,115.598,543.135,115.311z"/>
	<path fill="#5A5B5D" d="M553.166,115.311c0,0.633-0.062,1.234-0.189,1.809s-0.329,1.078-0.607,1.512
		c-0.277,0.434-0.639,0.781-1.082,1.039c-0.441,0.256-0.979,0.385-1.612,0.385c-0.632,0-1.172-0.129-1.619-0.385
		c-0.446-0.258-0.812-0.605-1.094-1.039s-0.487-0.938-0.614-1.512c-0.126-0.574-0.189-1.176-0.189-1.809s0.063-1.232,0.189-1.803
		c0.127-0.568,0.332-1.066,0.614-1.492s0.647-0.766,1.094-1.02c0.447-0.252,0.987-0.379,1.619-0.379
		c0.633,0,1.171,0.127,1.612,0.379c0.443,0.254,0.805,0.594,1.082,1.02c0.278,0.426,0.48,0.924,0.607,1.492
		C553.104,114.079,553.166,114.678,553.166,115.311z M550.99,115.311c0-0.277-0.016-0.586-0.051-0.924
		c-0.033-0.338-0.097-0.652-0.189-0.941c-0.092-0.291-0.225-0.535-0.398-0.734c-0.173-0.197-0.398-0.297-0.677-0.297
		s-0.506,0.1-0.683,0.297c-0.178,0.199-0.314,0.443-0.411,0.734c-0.098,0.289-0.163,0.604-0.196,0.941
		c-0.034,0.338-0.051,0.646-0.051,0.924c0,0.287,0.017,0.602,0.051,0.941c0.033,0.342,0.099,0.658,0.196,0.949
		c0.097,0.291,0.233,0.535,0.411,0.734c0.177,0.197,0.404,0.297,0.683,0.297s0.504-0.1,0.677-0.297
		c0.174-0.199,0.307-0.443,0.398-0.734c0.093-0.291,0.156-0.607,0.189-0.949C550.975,115.913,550.99,115.598,550.99,115.311z"/>
	<path fill="#5A5B5D" d="M558.605,113.096c0,0.33-0.063,0.639-0.189,0.93c-0.127,0.293-0.297,0.545-0.512,0.76
		c-0.216,0.215-0.471,0.387-0.766,0.512c-0.296,0.127-0.607,0.189-0.937,0.189s-0.642-0.062-0.937-0.189
		c-0.295-0.125-0.55-0.297-0.765-0.512c-0.216-0.215-0.386-0.467-0.513-0.76c-0.127-0.291-0.189-0.6-0.189-0.93
		c0-0.336,0.062-0.65,0.189-0.941s0.297-0.543,0.513-0.76c0.215-0.215,0.47-0.383,0.765-0.506c0.295-0.121,0.607-0.184,0.937-0.184
		s0.641,0.062,0.937,0.184c0.295,0.123,0.55,0.291,0.766,0.506c0.215,0.217,0.385,0.469,0.512,0.76
		C558.542,112.446,558.605,112.76,558.605,113.096z M557.189,113.096c0-0.27-0.098-0.5-0.292-0.695
		c-0.193-0.193-0.426-0.291-0.695-0.291c-0.271,0-0.501,0.098-0.696,0.291c-0.193,0.195-0.291,0.426-0.291,0.695
		c0,0.271,0.098,0.5,0.291,0.689c0.195,0.191,0.426,0.285,0.696,0.285c0.27,0,0.502-0.094,0.695-0.285
		C557.092,113.596,557.189,113.368,557.189,113.096z M557.176,120.245l-1.125-0.557l5.224-9.234l1.177,0.568L557.176,120.245z
		 M564.678,117.577c0,0.326-0.063,0.639-0.189,0.928c-0.127,0.291-0.298,0.545-0.513,0.76s-0.471,0.387-0.766,0.512
		c-0.295,0.127-0.606,0.189-0.936,0.189s-0.642-0.062-0.937-0.189c-0.295-0.125-0.55-0.297-0.766-0.512
		c-0.215-0.215-0.385-0.469-0.512-0.76c-0.127-0.289-0.189-0.602-0.189-0.928c0-0.33,0.062-0.641,0.189-0.932
		s0.297-0.543,0.512-0.758c0.216-0.215,0.471-0.387,0.766-0.514c0.295-0.125,0.607-0.189,0.937-0.189s0.641,0.064,0.936,0.189
		c0.295,0.127,0.551,0.299,0.766,0.514s0.386,0.467,0.513,0.758C564.614,116.936,564.678,117.247,564.678,117.577z M563.262,117.577
		c0-0.137-0.028-0.266-0.083-0.387c-0.056-0.123-0.126-0.229-0.216-0.316c-0.088-0.09-0.191-0.158-0.309-0.209
		c-0.119-0.051-0.245-0.076-0.38-0.076c-0.271,0-0.502,0.098-0.696,0.291c-0.193,0.193-0.291,0.426-0.291,0.697
		c0,0.27,0.098,0.498,0.291,0.688c0.194,0.191,0.426,0.285,0.696,0.285c0.135,0,0.261-0.025,0.38-0.076
		c0.117-0.051,0.221-0.121,0.309-0.209c0.09-0.088,0.16-0.191,0.216-0.311C563.233,117.836,563.262,117.709,563.262,117.577z"/>
</g>
<g>
	<path fill="#5A5B5D" d="M36.312,30.263c0,0.489-0.097,0.9-0.291,1.234c-0.194,0.333-0.451,0.6-0.772,0.803
		c-0.319,0.203-0.684,0.348-1.093,0.436s-0.829,0.133-1.261,0.133h-3.565v-8.957h3.565c0.347,0,0.701,0.036,1.064,0.108
		c0.362,0.071,0.69,0.194,0.986,0.366c0.296,0.174,0.536,0.408,0.721,0.703c0.187,0.295,0.277,0.67,0.277,1.125
		c0,0.498-0.133,0.909-0.403,1.233s-0.625,0.559-1.062,0.702v0.025c0.253,0.042,0.49,0.12,0.714,0.234
		c0.225,0.114,0.418,0.259,0.583,0.437c0.163,0.177,0.295,0.384,0.392,0.619C36.263,29.702,36.312,29.968,36.312,30.263z
		 M33.858,26.506c0-0.304-0.118-0.525-0.349-0.664c-0.232-0.139-0.576-0.209-1.032-0.209h-1.062v1.847h1.163
		c0.405,0,0.719-0.082,0.943-0.247C33.746,27.068,33.858,26.826,33.858,26.506z M34.149,30.061c0-0.371-0.141-0.628-0.417-0.772
		c-0.279-0.143-0.651-0.215-1.114-0.215h-1.202v2.049h1.213c0.169,0,0.346-0.015,0.527-0.045c0.181-0.029,0.344-0.082,0.493-0.157
		c0.146-0.076,0.267-0.184,0.359-0.323C34.103,30.458,34.149,30.279,34.149,30.061z"/>
	<path fill="#5A5B5D" d="M46.76,28.353c0,0.708-0.122,1.355-0.366,1.941c-0.245,0.586-0.585,1.088-1.019,1.505
		c-0.435,0.417-0.951,0.74-1.548,0.967c-0.601,0.228-1.25,0.341-1.95,0.341c-0.701,0-1.348-0.113-1.94-0.341
		c-0.596-0.227-1.11-0.55-1.544-0.967s-0.774-0.919-1.019-1.505c-0.245-0.586-0.366-1.233-0.366-1.941
		c0-0.717,0.121-1.365,0.366-1.942c0.244-0.578,0.585-1.069,1.019-1.474c0.434-0.405,0.948-0.716,1.544-0.936
		c0.593-0.219,1.239-0.329,1.94-0.329c0.7,0,1.35,0.11,1.95,0.329c0.597,0.22,1.113,0.531,1.548,0.936
		c0.434,0.405,0.773,0.896,1.019,1.474C46.638,26.988,46.76,27.636,46.76,28.353z M44.446,28.353c0-0.389-0.063-0.75-0.191-1.088
		c-0.127-0.337-0.301-0.626-0.524-0.867c-0.223-0.24-0.492-0.43-0.811-0.569c-0.314-0.14-0.663-0.209-1.043-0.209
		c-0.378,0-0.725,0.07-1.037,0.209c-0.312,0.139-0.582,0.329-0.81,0.569c-0.229,0.24-0.402,0.529-0.523,0.867
		c-0.123,0.338-0.186,0.7-0.186,1.088c0,0.404,0.063,0.777,0.19,1.119s0.302,0.635,0.525,0.879s0.49,0.437,0.803,0.575
		c0.312,0.139,0.659,0.209,1.037,0.209c0.38,0,0.726-0.07,1.038-0.209c0.312-0.139,0.581-0.331,0.81-0.575
		c0.228-0.245,0.403-0.538,0.53-0.879C44.383,29.13,44.446,28.757,44.446,28.353z"/>
	<path fill="#5A5B5D" d="M53.566,32.869l-3.606-5.857h-0.038l0.053,5.857h-2.102v-8.957h2.466l3.594,5.844h0.038l-0.05-5.844h2.1
		v8.957H53.566z"/>
	<path fill="#5A5B5D" d="M64.867,30.965c-0.18,0.442-0.439,0.822-0.776,1.138c-0.338,0.316-0.744,0.563-1.221,0.74
		s-1.006,0.265-1.588,0.265c-0.592,0-1.121-0.088-1.594-0.265s-0.873-0.424-1.201-0.74c-0.329-0.316-0.583-0.696-0.76-1.138
		c-0.177-0.443-0.266-0.934-0.266-1.474v-5.579h2.15v5.402c0,0.245,0.03,0.477,0.095,0.696c0.063,0.219,0.16,0.416,0.293,0.588
		c0.13,0.173,0.301,0.31,0.517,0.411c0.216,0.101,0.476,0.151,0.778,0.151c0.304,0,0.562-0.051,0.777-0.151
		c0.216-0.102,0.391-0.238,0.525-0.411c0.136-0.173,0.232-0.369,0.29-0.588c0.06-0.219,0.089-0.451,0.089-0.696v-5.402h2.164v5.579
		C65.141,30.031,65.05,30.522,64.867,30.965z"/>
	<path fill="#5A5B5D" d="M71.301,26.24c-0.186-0.236-0.427-0.424-0.727-0.562c-0.301-0.14-0.589-0.208-0.867-0.208
		c-0.144,0-0.29,0.012-0.437,0.038c-0.146,0.025-0.279,0.074-0.398,0.146c-0.118,0.072-0.218,0.164-0.297,0.278
		c-0.081,0.114-0.12,0.259-0.12,0.436c0,0.152,0.03,0.278,0.094,0.38c0.063,0.101,0.158,0.189,0.279,0.266
		c0.122,0.076,0.269,0.145,0.437,0.208c0.169,0.063,0.358,0.128,0.568,0.196c0.304,0.101,0.62,0.213,0.949,0.335
		c0.329,0.123,0.628,0.285,0.898,0.487c0.27,0.203,0.493,0.454,0.669,0.752c0.179,0.299,0.267,0.672,0.267,1.12
		c0,0.514-0.095,0.96-0.284,1.334c-0.189,0.376-0.444,0.686-0.765,0.93s-0.688,0.426-1.102,0.544s-0.839,0.177-1.278,0.177
		c-0.64,0-1.261-0.112-1.857-0.335c-0.6-0.223-1.098-0.542-1.494-0.955l1.417-1.442c0.218,0.27,0.509,0.496,0.867,0.677
		c0.357,0.182,0.714,0.272,1.067,0.272c0.16,0,0.318-0.017,0.47-0.05c0.152-0.034,0.285-0.088,0.398-0.165s0.204-0.177,0.271-0.304
		c0.068-0.126,0.103-0.278,0.103-0.455c0-0.168-0.042-0.312-0.127-0.431c-0.086-0.117-0.205-0.225-0.359-0.323
		c-0.158-0.097-0.352-0.185-0.583-0.265c-0.232-0.08-0.495-0.167-0.791-0.259c-0.286-0.093-0.566-0.202-0.84-0.329
		c-0.274-0.126-0.521-0.289-0.735-0.487c-0.216-0.198-0.388-0.439-0.518-0.722c-0.131-0.282-0.196-0.626-0.196-1.03
		c0-0.498,0.1-0.924,0.303-1.277c0.203-0.354,0.469-0.646,0.798-0.873c0.329-0.228,0.699-0.395,1.112-0.5
		c0.413-0.105,0.831-0.157,1.254-0.157c0.506,0,1.022,0.093,1.548,0.278c0.527,0.186,0.989,0.46,1.386,0.822L71.301,26.24z"/>
	<path fill="#5A5B5D" d="M38.918,43.317h-2.163l-3.391-8.956h2.427l2.076,6.35h0.05l2.062-6.35h2.391L38.918,43.317z"/>
	<path fill="#5A5B5D" d="M48.481,43.317l-0.696-1.758h-3.467l-0.657,1.758h-2.353l3.757-8.956h2.101l3.718,8.956H48.481z
		 M46.077,36.751l-1.138,3.075h2.251L46.077,36.751z"/>
	<path fill="#5A5B5D" d="M51.314,43.317v-8.956h2.176v7.071h3.466v1.885H51.314z"/>
	<path fill="#5A5B5D" d="M64.665,41.414c-0.181,0.443-0.439,0.822-0.776,1.139c-0.337,0.316-0.745,0.562-1.222,0.74
		c-0.476,0.177-1.005,0.265-1.587,0.265c-0.591,0-1.122-0.088-1.593-0.265c-0.473-0.178-0.874-0.424-1.203-0.74
		c-0.33-0.316-0.581-0.696-0.759-1.139c-0.177-0.443-0.265-0.934-0.265-1.474v-5.579h2.15v5.401c0,0.245,0.03,0.477,0.094,0.696
		c0.063,0.22,0.16,0.415,0.29,0.588c0.132,0.173,0.305,0.311,0.52,0.411c0.216,0.102,0.475,0.152,0.778,0.152
		s0.562-0.05,0.778-0.152c0.214-0.101,0.39-0.238,0.525-0.411c0.134-0.173,0.231-0.368,0.29-0.588
		c0.06-0.219,0.088-0.451,0.088-0.696v-5.401h2.165v5.579C64.939,40.48,64.848,40.97,64.665,41.414z"/>
	<path fill="#5A5B5D" d="M66.367,43.317v-8.956h6.021v1.822h-3.934v1.695h3.719v1.732h-3.719v1.86h4.161v1.847H66.367z"/>
</g>
<polygon fill="#5A5B5D" points="82.987,105.608 79.947,108.647 87.755,116.456 79.947,124.263 82.987,127.303 93.835,116.456 "/>
<polygon fill="#5A5B5D" points="82.987,22.767 79.947,25.807 87.755,33.615 79.947,41.422 82.987,44.463 93.835,33.615 "/>
</svg>
