<?xml version="1.0" encoding="utf-8"?>
<!-- Generator: Adobe Illustrator 16.0.0, SVG Export Plug-In . SVG Version: 6.00 Build 0)  -->
<!DOCTYPE svg PUBLIC "-//W3C//DTD SVG 1.1//EN" "http://www.w3.org/Graphics/SVG/1.1/DTD/svg11.dtd">
<svg version="1.1" id="Layer_1" xmlns="http://www.w3.org/2000/svg" xmlns:xlink="http://www.w3.org/1999/xlink" x="0px" y="0px"
	 width="236px" height="271px" viewBox="0 0 236 271" enable-background="new 0 0 236 271" xml:space="preserve">
<g>
	<g>
		<g enable-background="new    ">
			<g>
				<polygon fill="#BD141A" points="216.146,150.735 214.037,185.692 19.986,185.692 22.094,150.735 				"/>
			</g>
			<g>
				<polygon fill="#B91319" points="216.146,150.735 219.514,152.472 217.405,187.429 214.037,185.692 				"/>
			</g>
			<g>
				<polygon fill="#7B0000" points="214.037,185.692 217.405,187.429 23.354,187.429 19.986,185.692 				"/>
			</g>
		</g>
	</g>
</g>
<g>
	<g>
		<g enable-background="new    ">
			<g>
				<polygon fill="#8A8A8A" points="216.145,26.904 214.037,61.861 19.986,61.861 22.094,26.904 				"/>
			</g>
			<g>
				<polygon fill="#878787" points="216.145,26.904 219.514,28.641 217.405,63.598 214.037,61.861 				"/>
			</g>
			<g>
				<polygon fill="#4A4A4A" points="214.037,61.861 217.405,63.598 23.354,63.598 19.986,61.861 				"/>
			</g>
		</g>
	</g>
</g>
<g>
	<g>
		<g enable-background="new    ">
			<g>
				<polygon fill="#BD141A" points="35.307,11.28 34.148,30.486 15.822,30.486 16.98,11.28 				"/>
			</g>
			<g>
				<polygon fill="#B91319" points="35.307,11.28 38.675,13.016 37.517,32.223 34.148,30.486 				"/>
			</g>
			<g>
				<polygon fill="#7B0000" points="34.148,30.486 37.517,32.223 19.19,32.223 15.822,30.486 				"/>
			</g>
		</g>
	</g>
</g>
<g>
	<g>
		<g enable-background="new    ">
			<g>
				<polygon fill="#BD141A" points="112.048,97.401 109.939,132.358 16.75,132.358 18.857,97.401 				"/>
			</g>
			<g>
				<polygon fill="#B91319" points="112.048,97.401 115.416,99.138 113.308,134.094 109.939,132.358 				"/>
			</g>
			<g>
				<polygon fill="#7B0000" points="109.939,132.358 113.308,134.094 20.118,134.094 16.75,132.358 				"/>
			</g>
		</g>
	</g>
</g>
<g>
	<g>
		<g enable-background="new    ">
			<g>
				<polygon fill="#1D1D1D" points="112.048,210.153 109.939,245.11 16.75,245.11 18.857,210.153 				"/>
			</g>
			<g>
				<polygon fill="#1C1C1C" points="112.048,210.153 115.416,211.89 113.308,246.847 109.939,245.11 				"/>
			</g>
			<g>
				<polygon fill="#101010" points="109.939,245.11 113.308,246.847 20.118,246.847 16.75,245.11 				"/>
			</g>
		</g>
	</g>
</g>
<g>
	<g>
		<g enable-background="new    ">
			<g>
				<polygon fill="#075A72" points="219.367,85.107 217.259,120.064 123.604,120.064 125.712,85.107 				"/>
			</g>
			<g>
				<polygon fill="#065970" points="219.367,85.107 222.735,86.844 220.627,121.801 217.259,120.064 				"/>
			</g>
			<g>
				<polygon fill="#004053" points="217.259,120.064 220.627,121.801 126.972,121.801 123.604,120.064 				"/>
			</g>
		</g>
	</g>
</g>
<g>
	<g>
		<g enable-background="new    ">
			<g>
				<polygon fill="#616161" points="219.367,210.153 217.259,245.11 123.604,245.11 125.712,210.153 				"/>
			</g>
			<g>
				<polygon fill="#5E5E5E" points="219.367,210.153 222.735,211.89 220.627,246.847 217.259,245.11 				"/>
			</g>
			<g>
				<polygon fill="#343434" points="217.259,245.11 220.627,246.847 126.972,246.847 123.604,245.11 				"/>
			</g>
		</g>
	</g>
</g>
<line fill="none" stroke="#000000" stroke-width="2" stroke-miterlimit="10" x1="68.333" y1="63" x2="68.333" y2="95.703"/>
<polyline fill="none" stroke="#000000" stroke-width="2" stroke-miterlimit="10" points="74.113,90.753 68.333,96.532 
	62.554,90.753 "/>
<line fill="none" stroke="#000000" stroke-width="2" stroke-miterlimit="10" x1="173.167" y1="63" x2="173.167" y2="83.537"/>
<polyline fill="none" stroke="#000000" stroke-width="2" stroke-miterlimit="10" points="178.946,78.586 173.167,84.366 
	167.388,78.586 "/>
<line fill="none" stroke="#000000" stroke-width="2" stroke-miterlimit="10" x1="106.167" y1="133.499" x2="106.167" y2="148.718"/>
<polyline fill="none" stroke="#000000" stroke-width="2" stroke-miterlimit="10" points="111.946,143.768 106.167,149.547 
	100.388,143.768 "/>
<line fill="none" stroke="#000000" stroke-width="2" stroke-miterlimit="10" x1="68.333" y1="186.833" x2="68.333" y2="208.053"/>
<polyline fill="none" stroke="#000000" stroke-width="2" stroke-miterlimit="10" points="74.113,203.103 68.333,208.882 
	62.554,203.103 "/>
<line fill="none" stroke="#000000" stroke-width="2" stroke-miterlimit="10" x1="173.167" y1="186.833" x2="173.167" y2="208.053"/>
<polyline fill="none" stroke="#000000" stroke-width="2" stroke-miterlimit="10" points="178.946,203.103 173.167,208.882 
	167.388,203.103 "/>
<line fill="none" stroke="#000000" stroke-width="2" stroke-miterlimit="10" x1="132.5" y1="121.203" x2="132.5" y2="148.718"/>
<polyline fill="none" stroke="#000000" stroke-width="2" stroke-miterlimit="10" points="138.279,143.768 132.5,149.547 
	126.721,143.768 "/>
<text transform="matrix(1 0 0 1 27.9092 45.0933)"><tspan x="0" y="0" fill="#FFFFFF" font-family="'AvenirNext-Bold'" font-size="7.6128">Marketplace Exchange </tspan><tspan x="24.627" y="7.028" fill="#FFFFFF" font-family="'AvenirNext-Regular'" font-size="5.8569">(trading TIEs)</tspan></text>
<text transform="matrix(1 0 0 1 87.4644 161.5933)"><tspan x="0" y="0" fill="#FFFFFF" font-family="'AvenirNext-Bold'" font-size="7.6128">Ties.DB BFT Layer </tspan><tspan x="-9.256" y="6.732" fill="#FFFFFF" font-family="'AvenirNext-Medium'" font-size="5.61">(the core of Ties.DB that connects </tspan><tspan x="-26.989" y="13.464" fill="#FFFFFF" font-family="'AvenirNext-Medium'" font-size="5.61">blockchain and underlying centralized database </tspan><tspan x="-17.609" y="20.196" fill="#FFFFFF" font-family="'AvenirNext-Medium'" font-size="5.61">and enables true public decentralization)</tspan></text>
<text transform="matrix(1 0 0 1 141.5352 45.0933)" fill="#FFFFFF" font-family="'AvenirNext-Bold'" font-size="7.6128">Buy, sell, trade TIEs</text>
<text transform="matrix(1 0 0 1 151.7363 99.0918)"><tspan x="0" y="0" fill="#FFFFFF" font-family="'AvenirNext-Bold'" font-size="7.6128">Other DApps</tspan><tspan x="-4.215" y="6.735" fill="#FFFFFF" font-family="'AvenirNext-Regular'" font-size="5.6128"> (other apps that need </tspan><tspan x="-3.981" y="13.471" fill="#FFFFFF" font-family="'AvenirNext-Regular'" font-size="5.6128">decentralized storage)</tspan></text>
<text transform="matrix(1 0 0 1 142.4873 223.5918)"><tspan x="0" y="0" fill="#FFFFFF" font-family="'AvenirNext-Bold'" font-size="7.6128">Apache Cassandra</tspan><tspan x="2.997" y="6.735" fill="#FFFFFF" font-family="'AvenirNext-Regular'" font-size="5.6128"> (low latency distributed </tspan><tspan x="12.758" y="13.471" fill="#FFFFFF" font-family="'AvenirNext-Regular'" font-size="5.6128">noSql database)</tspan></text>
<text transform="matrix(1 0 0 1 45.02 113.2593)"><tspan x="0" y="0" fill="#FFFFFF" font-family="'AvenirNext-Bold'" font-size="7.6128">Ties.Client</tspan><tspan x="-21.39" y="6.732" fill="#FFFFFF" font-family="'AvenirNext-Regular'" font-size="5.61">(Ties.Network Client Application)</tspan></text>
<text transform="matrix(1 0 0 1 46.2456 228.5938)" fill="#FFFFFF" font-family="'AvenirNext-Bold'" font-size="7.6128">Ethereum</text>
<g>
	<path fill-rule="evenodd" clip-rule="evenodd" fill="#FFFFFF" d="M25.493,26.438c-0.708,0-1.292,0.573-1.292,1.281
		c0,0.718,0.584,1.293,1.292,1.293s1.29-0.575,1.29-1.293C26.783,27.012,26.201,26.438,25.493,26.438L25.493,26.438z M34.082,15.264
		h-2.146c-0.209,0-0.39,0.153-0.424,0.356l-0.251,1.365H21.193c-0.139,0-0.277,0.071-0.354,0.188
		c-0.083,0.128-0.098,0.273-0.042,0.41l2.153,5.153c0.062,0.161,0.223,0.264,0.396,0.264h6.826l-0.313,1.715h-5.658
		c-0.236,0-0.425,0.195-0.425,0.433c0,0.234,0.188,0.43,0.425,0.43h6.013c0.209,0,0.389-0.147,0.424-0.355l1.651-9.096h1.793
		c0.236,0,0.43-0.188,0.43-0.432C34.512,15.459,34.318,15.264,34.082,15.264L34.082,15.264z M28.93,26.438
		c-0.715,0-1.291,0.573-1.291,1.281c0,0.718,0.576,1.293,1.291,1.293c0.708,0,1.284-0.575,1.284-1.293
		C30.214,27.012,29.638,26.438,28.93,26.438L28.93,26.438z"/>
</g>
<g>
	<g>
		<line fill="none" stroke="#FFFFFF" stroke-width="0.25" stroke-miterlimit="10" x1="119.75" y1="30.5" x2="119.75" y2="31"/>
		
			<line fill="none" stroke="#FFFFFF" stroke-width="0.25" stroke-miterlimit="10" stroke-dasharray="0.9713,0.9713" x1="119.75" y1="31.971" x2="119.75" y2="58.681"/>
		
			<line fill="none" stroke="#FFFFFF" stroke-width="0.25" stroke-miterlimit="10" x1="119.75" y1="59.167" x2="119.75" y2="59.667"/>
	</g>
</g>
<g>
	<g>
		<g enable-background="new    ">
			<g>
				<polygon fill="#BD141A" points="34.307,83.169 33.148,102.376 14.822,102.376 15.98,83.169 				"/>
			</g>
			<g>
				<polygon fill="#B91319" points="34.307,83.169 37.675,84.906 36.517,104.112 33.148,102.376 				"/>
			</g>
			<g>
				<polygon fill="#7B0000" points="33.148,102.376 36.517,104.112 18.19,104.112 14.822,102.376 				"/>
			</g>
		</g>
	</g>
</g>
<polyline fill="none" stroke="#FFFFFF" stroke-miterlimit="10" points="20.983,96.15 20.983,90.664 25.944,93.588 25.944,99.731 
	28.966,97.925 28.966,91.649 23.709,88.496 26.469,86.984 31.825,90.006 31.825,96.183 "/>
<g>
	<g>
		<g enable-background="new    ">
			<g>
				<polygon fill="#121212" points="223.274,71.005 222.116,90.212 203.789,90.212 204.947,71.005 				"/>
			</g>
			<g>
				<polygon fill="#111111" points="223.274,71.005 226.643,72.742 225.484,91.948 222.116,90.212 				"/>
			</g>
			<g>
				<polygon fill="#090909" points="222.116,90.212 225.484,91.948 207.157,91.948 203.789,90.212 				"/>
			</g>
		</g>
	</g>
</g>
<g>
	<path fill="#FFFFFF" d="M221.153,77.022H209.27c-0.283,0-0.566,0.238-0.566,0.527v7.491c0,0.288,0.283,0.38,0.566,0.38h11.884
		c0.291,0,0.574-0.092,0.574-0.38v-7.491C221.728,77.26,221.444,77.022,221.153,77.022L221.153,77.022z M212.757,81.313
		c0.021-0.104,0.054-0.21,0.1-0.309l-0.167-0.178c-0.06-0.052-0.06-0.146-0.004-0.203l0.231-0.283
		c0.051-0.067,0.144-0.08,0.21-0.034l0.203,0.134c0.095-0.067,0.19-0.121,0.293-0.162l0.011-0.241c0-0.079,0.06-0.144,0.136-0.151
		l0.371-0.034c0.077-0.005,0.15,0.044,0.169,0.12l0.046,0.236c0.121,0.021,0.232,0.052,0.343,0.105l0.171-0.164
		c0.061-0.053,0.146-0.06,0.205-0.008l0.289,0.237c0.058,0.053,0.073,0.14,0.027,0.207l-0.127,0.196
		c0.066,0.09,0.127,0.196,0.166,0.308l0.223,0.007c0.079,0,0.145,0.065,0.15,0.145l0.035,0.361c0.005,0.079-0.047,0.151-0.126,0.172
		l-0.211,0.044c-0.019,0.113-0.06,0.226-0.105,0.331l0.151,0.157c0.054,0.059,0.059,0.145,0.008,0.211l-0.237,0.284
		c-0.054,0.059-0.138,0.07-0.204,0.027l-0.178-0.115c-0.099,0.075-0.211,0.134-0.323,0.172l-0.006,0.217
		c0,0.081-0.064,0.145-0.145,0.152l-0.367,0.033c-0.081,0.007-0.153-0.046-0.165-0.125l-0.046-0.21
		c-0.126-0.02-0.244-0.06-0.355-0.114l-0.16,0.146c-0.058,0.058-0.149,0.058-0.21,0.007l-0.283-0.232
		c-0.06-0.053-0.072-0.143-0.032-0.21l0.125-0.19c-0.065-0.1-0.117-0.206-0.157-0.316h-0.225c-0.086-0.007-0.145-0.065-0.158-0.146
		l-0.032-0.369c-0.008-0.079,0.046-0.15,0.124-0.164L212.757,81.313z M217.721,80.774l-0.18,0.183
		c-0.054,0.055-0.145,0.06-0.203,0.014l-0.119-0.092c-0.085,0.054-0.178,0.092-0.274,0.119l-0.022,0.151
		c-0.005,0.073-0.07,0.132-0.152,0.14h-0.254c-0.08,0-0.146-0.061-0.151-0.14l-0.019-0.151c-0.102-0.027-0.198-0.065-0.283-0.119
		l-0.126,0.098c-0.06,0.053-0.146,0.047-0.205-0.012l-0.177-0.177c-0.06-0.054-0.065-0.146-0.014-0.202l0.1-0.135
		c-0.048-0.086-0.086-0.172-0.105-0.261l-0.164-0.021c-0.08-0.005-0.139-0.072-0.139-0.151v-0.256c0-0.08,0.053-0.145,0.131-0.158
		l0.172-0.02c0.027-0.088,0.058-0.164,0.105-0.242l-0.112-0.139c-0.046-0.06-0.046-0.151,0.013-0.206l0.178-0.183
		c0.054-0.055,0.144-0.062,0.204-0.014l0.14,0.111c0.077-0.046,0.162-0.085,0.256-0.111l0.012-0.178
		c0.016-0.078,0.078-0.14,0.159-0.14h0.25c0.077,0,0.151,0.062,0.157,0.14l0.021,0.165c0.099,0.027,0.192,0.067,0.277,0.11
		l0.13-0.104c0.059-0.052,0.145-0.044,0.204,0.014l0.178,0.179c0.06,0.051,0.064,0.144,0.015,0.203l-0.104,0.133
		c0.051,0.08,0.089,0.171,0.116,0.262l0.156,0.02c0.081,0.008,0.14,0.072,0.14,0.151v0.257c0,0.078-0.059,0.144-0.133,0.151
		l-0.157,0.021c-0.024,0.089-0.06,0.181-0.104,0.267l0.099,0.118C217.779,80.629,217.779,80.715,217.721,80.774L217.721,80.774z
		 M216.634,79.401L216.634,79.401c-0.278,0-0.5,0.221-0.5,0.496c0.006,0.277,0.23,0.502,0.509,0.502
		c0.274-0.005,0.498-0.231,0.491-0.506C217.134,79.617,216.909,79.391,216.634,79.401L216.634,79.401z M214.179,82.191
		L214.179,82.191c0.336-0.036,0.585-0.331,0.559-0.667c-0.032-0.336-0.329-0.577-0.664-0.552c-0.335,0.033-0.585,0.329-0.553,0.666
		C213.548,81.971,213.851,82.223,214.179,82.191L214.179,82.191z M220.873,84.051L220.873,84.051H209.56v-6.172h11.313V84.051z
		 M216.885,87.026c-0.224-0.17-0.251-0.487-0.251-0.487l-0.079-0.604h-2.68l-0.084,0.604c0,0-0.021,0.285-0.243,0.448
		c-0.227,0.163-0.401,0.321-0.227,0.348c0.167,0.019,1.773,0.014,1.889,0.008c0.12,0.006,1.726,0.027,1.899,0.006
		C217.285,87.322,217.109,87.192,216.885,87.026L216.885,87.026z"/>
</g>
<g>
	<g>
		<g enable-background="new    ">
			<g>
				<polygon fill="#BD141A" points="217.993,136.184 216.835,155.391 198.509,155.391 199.667,136.184 				"/>
			</g>
			<g>
				<polygon fill="#B91319" points="217.993,136.184 221.362,137.92 220.203,157.127 216.835,155.391 				"/>
			</g>
			<g>
				<polygon fill="#7B0000" points="216.835,155.391 220.203,157.127 201.877,157.127 198.509,155.391 				"/>
			</g>
		</g>
	</g>
</g>
<polyline fill="none" stroke="#FFFFFF" stroke-miterlimit="10" points="204.669,149.165 204.669,143.678 209.63,146.603 
	209.63,152.746 212.652,150.939 212.652,144.664 207.396,141.51 210.155,139.999 215.511,143.021 215.511,149.198 "/>
<g>
	<g>
		<g enable-background="new    ">
			<g>
				<polygon fill="#2C2C2C" points="14.432,195.333 17.8,197.069 16.702,215.283 13.333,213.547 				"/>
			</g>
			<g>
				<polygon fill="#181818" points="31.812,195.333 35.18,197.069 17.8,197.069 14.432,195.333 				"/>
			</g>
			<g>
				<polygon fill="#696969" points="30.713,213.547 34.082,215.283 16.702,215.283 13.333,213.547 				"/>
			</g>
			<g>
				<polygon fill="#C2C2C2" points="31.812,195.333 30.713,213.547 13.333,213.547 14.432,195.333 				"/>
			</g>
			<g>
				<polygon fill="#BEBEBE" points="31.812,195.333 35.18,197.069 34.082,215.283 30.713,213.547 				"/>
			</g>
			<g>
				<polygon fill="#181818" points="31.157,214.043 34.525,215.779 16.198,215.779 12.83,214.043 				"/>
			</g>
			<g>
				<polygon fill="#2C2C2C" points="32.315,194.836 35.684,196.573 34.525,215.779 31.157,214.043 				"/>
			</g>
			<g>
				<path fill="#2D2D2D" d="M13.988,194.836h18.327l-1.159,19.207H12.83L13.988,194.836z M30.713,213.547l1.099-18.214h-17.38
					l-1.099,18.214H30.713"/>
			</g>
		</g>
	</g>
</g>
<g>
	<polygon fill="#343434" points="24.257,198.198 24.17,198.494 24.17,207.07 24.257,207.157 28.238,204.804 	"/>
	<polygon fill="#8C8C8C" points="24.257,198.198 20.276,204.804 24.257,207.157 24.257,202.994 	"/>
	<polygon fill="#3D3D3C" points="24.257,207.911 24.208,207.971 24.208,211.026 24.257,211.169 28.241,205.559 	"/>
	<polygon fill="#8C8C8C" points="24.257,211.169 24.257,207.911 20.276,205.559 	"/>
	<polygon fill="#161616" points="24.257,207.157 28.238,204.804 24.257,202.994 	"/>
	<polygon fill="#3A3A39" points="20.276,204.804 24.257,207.157 24.257,202.994 	"/>
</g>
<g>
	<g>
		<g enable-background="new    ">
			<g>
				<polygon fill="#2C2C2C" points="207.168,194.812 210.536,196.549 209.438,214.764 206.069,213.026 				"/>
			</g>
			<g>
				<polygon fill="#181818" points="224.548,194.812 227.916,196.549 210.536,196.549 207.168,194.812 				"/>
			</g>
			<g>
				<polygon fill="#696969" points="223.449,213.026 226.817,214.764 209.438,214.764 206.069,213.026 				"/>
			</g>
			<g>
				<polygon fill="#C2C2C2" points="224.548,194.812 223.449,213.026 206.069,213.026 207.168,194.812 				"/>
			</g>
			<g>
				<polygon fill="#BEBEBE" points="224.548,194.812 227.916,196.549 226.817,214.764 223.449,213.026 				"/>
			</g>
			<g>
				<polygon fill="#181818" points="223.893,213.523 227.262,215.26 208.935,215.26 205.566,213.523 				"/>
			</g>
			<g>
				<polygon fill="#2C2C2C" points="225.052,194.316 228.42,196.053 227.262,215.26 223.893,213.523 				"/>
			</g>
			<g>
				<path fill="#2D2D2D" d="M206.725,194.316h18.327l-1.159,19.208h-18.326L206.725,194.316z M223.449,213.026l1.099-18.214h-17.38
					l-1.099,18.214H223.449"/>
			</g>
		</g>
	</g>
</g>
<g>
	<g id="layer1" transform="translate(-62.668647,-74.06425)">
		<g id="g3012" transform="matrix(1.25,0,0,-1.25,19.117647,990)">
			<g>
				<g id="g3014">
					<g id="g3020" transform="translate(61.4912,609.1372)">
						<path id="path3022" fill="#383635" d="M141.114-42.489c0.096,0,0.187-0.023,0.233-0.068c0.007-0.071-0.056-0.185-0.096-0.185
							c-0.048,0.018-0.093,0.029-0.149,0.029c-0.229,0-0.343-0.238-0.343-0.473c0-0.146,0.05-0.235,0.166-0.235
							c0.123,0,0.25,0.083,0.32,0.146c0.017-0.012,0.041-0.053,0.041-0.098c0-0.051-0.015-0.098-0.061-0.144
							c-0.08-0.08-0.217-0.149-0.413-0.149c-0.227,0-0.384,0.129-0.384,0.429c0,0.393,0.259,0.747,0.684,0.747H141.114z"/>
					</g>
					<g id="g3024" transform="translate(75.6021,591.6636)">
						<path id="path3026" fill="#383635" d="M127.744-25.934c0.125,0,0.349,0.217,0.412,0.63c0.003,0.025,0.005,0.034,0.01,0.058
							c-0.027,0.01-0.066,0.018-0.103,0.018c-0.094,0-0.19-0.028-0.275-0.144c-0.088-0.123-0.127-0.277-0.127-0.401
							c0-0.106,0.03-0.162,0.081-0.162H127.744z M127.338-25.82c0,0.149,0.051,0.409,0.24,0.598
							c0.162,0.166,0.359,0.207,0.538,0.207c0.119,0,0.28-0.038,0.381-0.058c-0.025-0.112-0.086-0.53-0.113-0.772
							c-0.013-0.104-0.018-0.247-0.013-0.301c-0.084-0.035-0.24-0.045-0.283-0.045c-0.023,0-0.028,0.104-0.02,0.202
							c0.002,0.032,0.008,0.08,0.01,0.1c-0.098-0.164-0.293-0.303-0.497-0.303c-0.147,0-0.243,0.121-0.243,0.368V-25.82z"/>
					</g>
					<g id="g3028" transform="translate(101.8579,609.1372)">
						<path id="path3030" fill="#383635" d="M102.87-42.489c0.103,0,0.201-0.038,0.247-0.086c-0.002-0.071-0.058-0.189-0.147-0.157
							c-0.038,0.013-0.075,0.023-0.126,0.023c-0.069,0-0.126-0.03-0.126-0.093c0-0.048,0.035-0.083,0.204-0.202
							c0.121-0.089,0.169-0.166,0.169-0.277c0-0.185-0.173-0.384-0.476-0.384c-0.124,0-0.233,0.048-0.268,0.099
							c-0.045,0.076-0.01,0.224,0.041,0.199c0.066-0.033,0.173-0.068,0.262-0.068c0.084,0,0.136,0.038,0.136,0.088
							c0,0.043-0.038,0.081-0.191,0.189c-0.13,0.096-0.17,0.185-0.17,0.286c0,0.209,0.18,0.384,0.442,0.384H102.87z"/>
					</g>
					<g id="g3032" transform="translate(118.417,609.1372)">
						<path id="path3034" fill="#383635" d="M87.18-42.489c0.104,0,0.202-0.038,0.248-0.086c-0.002-0.071-0.059-0.189-0.146-0.157
							c-0.038,0.013-0.076,0.023-0.127,0.023c-0.069,0-0.126-0.03-0.126-0.093c0-0.048,0.035-0.083,0.204-0.202
							c0.121-0.089,0.17-0.166,0.17-0.277c0-0.185-0.175-0.384-0.477-0.384c-0.124,0-0.232,0.048-0.267,0.099
							c-0.046,0.076-0.01,0.224,0.04,0.199c0.066-0.033,0.174-0.068,0.263-0.068c0.083,0,0.135,0.038,0.135,0.088
							c0,0.043-0.038,0.081-0.191,0.189c-0.13,0.096-0.169,0.185-0.169,0.286c0,0.209,0.178,0.384,0.441,0.384H87.18z"/>
					</g>
					<g id="g3036" transform="translate(133.5361,591.6636)">
						<path id="path3038" fill="#383635" d="M72.855-25.934c0.124,0,0.349,0.217,0.412,0.63c0.003,0.025,0.005,0.034,0.01,0.058
							c-0.027,0.01-0.066,0.018-0.103,0.018c-0.094,0-0.189-0.028-0.275-0.144c-0.089-0.123-0.127-0.277-0.127-0.401
							c0-0.106,0.03-0.162,0.081-0.162H72.855z M72.449-25.82c0,0.149,0.051,0.409,0.241,0.598c0.161,0.166,0.358,0.207,0.537,0.207
							c0.12,0,0.28-0.038,0.381-0.058c-0.025-0.112-0.086-0.53-0.113-0.772c-0.013-0.104-0.018-0.247-0.013-0.301
							c-0.083-0.035-0.239-0.045-0.282-0.045c-0.023,0-0.028,0.104-0.02,0.202c0.002,0.032,0.008,0.08,0.01,0.1
							c-0.098-0.164-0.293-0.303-0.497-0.303c-0.147,0-0.243,0.121-0.243,0.368V-25.82z"/>
					</g>
					<g id="g3040" transform="translate(158.688,602.897)">
						<path id="path3042" fill="#383635" d="M49.026-36.576c0.116,0.186,0.267,0.328,0.48,0.328c0.179,0,0.237-0.167,0.204-0.404
							c-0.018-0.111-0.048-0.27-0.069-0.416c-0.017-0.124-0.029-0.234-0.027-0.31c-0.066-0.032-0.257-0.045-0.3-0.045
							c-0.018,0-0.02,0.139,0.002,0.285c0.02,0.121,0.063,0.341,0.084,0.466c0.012,0.074,0.01,0.161-0.061,0.161
							c-0.093,0-0.315-0.148-0.427-0.759c-0.007-0.051-0.027-0.081-0.055-0.099c-0.038-0.022-0.118-0.043-0.283-0.045
							c0.03,0.154,0.079,0.469,0.114,0.702c0.033,0.211,0.045,0.348,0.038,0.401c0.044,0.016,0.268,0.064,0.293,0.064
							c0.027,0,0.033-0.079,0.008-0.268c-0.002-0.017-0.005-0.045-0.008-0.06H49.026z"/>
					</g>
					<g id="g3044" transform="translate(183.0728,591.7114)">
						<path id="path3046" fill="#383635" d="M25.923-25.98c0.11,0,0.336,0.208,0.398,0.573c0.003,0.02,0.01,0.058,0.015,0.08
							c-0.032,0.03-0.076,0.051-0.144,0.051c-0.255,0-0.369-0.305-0.369-0.525c0-0.118,0.041-0.179,0.096-0.179H25.923z
							 M25.757-26.239c-0.162,0-0.263,0.144-0.263,0.391c0,0.409,0.255,0.785,0.684,0.785c0.076,0,0.144-0.02,0.186-0.045
							c0.023,0.115,0.076,0.473,0.079,0.58c0.071,0.013,0.221,0.035,0.29,0.035c0.028,0,0.036-0.028,0.026-0.091
							c-0.061-0.379-0.169-1.105-0.189-1.266c-0.016-0.137-0.019-0.27-0.016-0.345c-0.08-0.036-0.245-0.043-0.288-0.043
							c-0.018,0-0.027,0.116-0.023,0.22c0.002,0.032,0.007,0.08,0.007,0.088c-0.126-0.207-0.3-0.307-0.492-0.307H25.757z"/>
					</g>
					<g id="g3048" transform="translate(208.0317,602.2241)">
						<path id="path3050" fill="#383635" d="M2.276-35.94c0.134,0.298,0.292,0.364,0.396,0.364c0.033,0,0.083-0.02,0.106-0.045
							c0.009-0.084-0.055-0.25-0.114-0.313c-0.03,0.015-0.068,0.03-0.111,0.03c-0.086,0-0.255-0.134-0.361-0.71
							c-0.007-0.048-0.023-0.068-0.051-0.08C2.1-36.719,1.931-36.739,1.85-36.742c0.038,0.207,0.103,0.628,0.129,0.875
							c0.008,0.064,0.01,0.179,0.005,0.225c0.048,0.022,0.237,0.066,0.28,0.066c0.023,0,0.04-0.139,0.005-0.364H2.276z"/>
					</g>
					<g id="g3052" transform="translate(224.9751,591.6636)">
						<path id="path3054" fill="#383635" d="M-13.776-25.934c0.123,0,0.348,0.217,0.411,0.63c0.002,0.025,0.005,0.034,0.01,0.058
							c-0.028,0.01-0.066,0.018-0.104,0.018c-0.093,0-0.189-0.028-0.275-0.144c-0.087-0.123-0.125-0.277-0.125-0.401
							c0-0.106,0.029-0.162,0.08-0.162H-13.776z M-14.183-25.82c0,0.149,0.05,0.409,0.239,0.598
							c0.162,0.166,0.359,0.207,0.538,0.207c0.118,0,0.28-0.038,0.38-0.058c-0.025-0.112-0.086-0.53-0.114-0.772
							c-0.012-0.104-0.017-0.247-0.012-0.301c-0.084-0.035-0.24-0.045-0.284-0.045c-0.022,0-0.027,0.104-0.019,0.202
							c0.002,0.032,0.007,0.08,0.01,0.1c-0.099-0.164-0.293-0.303-0.498-0.303c-0.146,0-0.242,0.121-0.242,0.368V-25.82z"/>
					</g>
				</g>
			</g>
		</g>
	</g>
	<g>
		<g>
			<g id="g2828">
				<g>
					<g id="g2830">
						<g id="g2836" transform="translate(210.8784,690.4834)">
							<path id="path2838" fill="#BCE6FB" d="M-0.421-119.56c0.083-0.969-1.443-1.893-3.409-2.061
								c-1.966-0.168-3.627,0.481-3.71,1.451c-0.084,0.97,1.443,1.893,3.409,2.061C-2.166-117.94-0.504-118.59-0.421-119.56"/>
						</g>
					</g>
				</g>
			</g>
			<g>
				<g>
					<g id="g2840">
						<g id="g2842">
							<g id="g2850">
							</g>
							<g id="g2848">
								<g id="g2856">
									<defs>
										<rect id="SVGID_1_" x="203.84" y="568.584" width="5.801" height="4.085"/>
									</defs>
									<clipPath id="SVGID_2_">
										<use xlink:href="#SVGID_1_"  overflow="visible"/>
									</clipPath>
									<g id="g2858" opacity="0.35" clip-path="url(#SVGID_2_)">
										<g id="g2860" transform="translate(141.3843,715.9233)">
											<path id="path2862" fill="#FFFFFF" d="M65.42-143.663c-0.749,0.012-1.627-0.285-2.28-0.564
												c-0.069-0.196-0.105-0.404-0.105-0.62c0-1.15,1.039-2.084,2.32-2.084s2.32,0.934,2.32,2.084
												c0,0.364-0.104,0.706-0.287,1.004C66.867-143.762,66.148-143.674,65.42-143.663"/>
										</g>
									</g>
								</g>
							</g>
						</g>
					</g>
					<g id="g2864">
						<g>
							<g id="g2866">
								<g id="g2872" transform="translate(140.1528,715.9277)">
									<path id="path2874" fill="#FFFFFF" d="M66.587-143.667c-0.416,0.026-1.131-0.191-1.727-0.407
										c-0.091-0.214-0.141-0.448-0.141-0.694c0-1.008,0.914-1.825,1.88-1.825c0.961,0,1.81,0.819,1.881,1.825
										c0.023,0.329-0.091,0.637-0.246,0.904C67.615-143.755,66.958-143.689,66.587-143.667"/>
								</g>
							</g>
						</g>
					</g>
					<g id="g2876">
						<g>
							<g id="g2878">
								<g id="g2884" transform="translate(119.8818,697.4946)">
									<path id="path2886" fill="#383635" d="M85.793-126.202c0.051,0.113,0.128,0.168,0.203,0.263
										c-0.009,0.022-0.027,0.096-0.027,0.121c0,0.114,0.091,0.206,0.205,0.206c0.027,0,0.052-0.005,0.076-0.015
										c0.341,0.259,0.788,0.372,1.237,0.271c0.042-0.009,0.081-0.02,0.121-0.033c-0.444,0.062-0.945-0.096-1.286-0.37
										c0.01-0.025,0.04-0.095,0.04-0.123c0-0.114-0.074-0.141-0.188-0.141c-0.025,0-0.05,0.004-0.073,0.014
										c-0.077-0.104-0.171-0.301-0.217-0.424c0.188-0.169,0.359-0.23,0.58-0.312c0,0.01,0.009,0.02,0.009,0.03
										c0,0.343,0.301,0.621,0.642,0.621c0.306,0,0.56-0.223,0.609-0.515c0.153,0.097,0.301,0.171,0.413,0.316
										c-0.026,0.032-0.054,0.123-0.054,0.167c0,0.104,0.083,0.186,0.186,0.186c0.014,0,0.028-0.002,0.042-0.005
										c0.057,0.118,0.1,0.243,0.128,0.371c-0.534,0.395-1.57,0.341-1.57,0.341s-0.823,0.044-1.38-0.229
										C85.527-125.731,85.635-125.986,85.793-126.202"/>
								</g>
								<g id="g2888" transform="translate(168.4907,700.4282)">
									<path id="path2890" fill="#383635" d="M39.739-128.982c0.037-0.034,0.058-0.064,0.073-0.093
										c0.051-0.09-0.049-0.173-0.152-0.173c-0.011,0-0.021,0.002-0.031,0.004c-0.116-0.182-0.318-0.414-0.498-0.531
										c0.276-0.045,0.538-0.156,0.745-0.327c0.15,0.271,0.266,0.662,0.266,0.993c0,0.253-0.112,0.439-0.28,0.574
										C39.853-128.669,39.781-128.859,39.739-128.982"/>
								</g>
								<g id="g2892" transform="translate(125.7842,667.8032)">
									<path id="path2894" fill="#383635" d="M80.2-98.072c0.092,0.255,0.319,0.452,0.534,0.625
										c-0.031,0.043-0.078,0.15-0.098,0.2c-0.262,0.08-0.493,0.229-0.673,0.425c-0.001-0.005-0.002-0.011-0.004-0.017
										c-0.034-0.151-0.04-0.304-0.023-0.451c0.126-0.023,0.22-0.133,0.22-0.265c0-0.078-0.069-0.192-0.122-0.241
										C80.092-97.92,80.131-97.981,80.2-98.072"/>
								</g>
								<g id="g2896" transform="translate(125.4756,663.7393)">
									<path id="path2898" fill="#383635" d="M80.493-94.221c-0.11,0.109-0.186,0.327-0.257,0.464
										c-0.013-0.003-0.027-0.004-0.041-0.004c-0.148,0-0.305,0.125-0.27,0.27c0.02,0.08,0.075,0.133,0.164,0.177
										c-0.02,0.166-0.026,0.404,0.013,0.577c0.011,0.049,0.034,0.072,0.05,0.119c-0.165,0.241-0.27,0.557-0.27,0.87
										c0,0.011,0,0.022,0.001,0.034c-0.278-0.139-0.487-0.359-0.487-0.705c0-0.764,0.441-1.515,1.096-1.808
										C80.492-94.226,80.493-94.224,80.493-94.221"/>
								</g>
								<g id="g2900" transform="translate(156.1313,683.8511)">
									<path id="path2902" fill="#383635" d="M51.449-113.276c-0.085-0.241-0.314-0.414-0.584-0.414
										c-0.145,0-0.277,0.05-0.382,0.132c-0.217-0.169-0.413-0.465-0.513-0.723c0.045-0.049,0.076-0.089,0.127-0.131
										c0.152-0.039,0.36,0,0.524,0c0.661,0,1.246,0.294,1.581,0.81C51.979-113.447,51.717-113.301,51.449-113.276"/>
								</g>
							</g>
						</g>
					</g>
					<g id="g2904">
						<g>
							<g id="g2906">
								<g id="g2912" transform="translate(119.5596,695.7944)">
									<path id="path2914" fill="#1787B1" d="M86.098-124.591c0.051,0.112,0.114,0.217,0.189,0.312
										c-0.009,0.022-0.014,0.046-0.014,0.071c0,0.114,0.092,0.206,0.206,0.206c0.027,0,0.052-0.005,0.076-0.015
										c0.34,0.259,0.787,0.372,1.237,0.271c0.041-0.009,0.081-0.02,0.121-0.032c-0.445,0.061-0.904-0.075-1.245-0.35
										c0.01-0.025,0.016-0.052,0.016-0.08c0-0.113-0.091-0.205-0.205-0.205c-0.026,0-0.051,0.005-0.073,0.014
										c-0.077-0.104-0.14-0.218-0.186-0.341c0.163-0.175,0.361-0.312,0.582-0.395c-0.001,0.01-0.002,0.02-0.002,0.032
										c0,0.341,0.277,0.619,0.62,0.619c0.305,0,0.559-0.223,0.609-0.515c0.152,0.097,0.289,0.221,0.401,0.366
										c-0.027,0.031-0.043,0.072-0.043,0.117c0,0.102,0.084,0.186,0.187,0.186c0.015,0,0.029-0.002,0.042-0.005
										c0.058,0.117,0.1,0.242,0.127,0.37c-0.534,0.396-1.568,0.341-1.568,0.341s-0.823,0.043-1.38-0.228
										C85.832-124.12,85.94-124.375,86.098-124.591"/>
								</g>
								<g id="g2916" transform="translate(169.0396,699.8481)">
									<path id="path2918" fill="#1787B1" d="M39.218-128.432c0.038-0.034,0.062-0.083,0.062-0.138
										c0-0.104-0.084-0.186-0.187-0.186c-0.01,0-0.02,0.001-0.03,0.003c-0.116-0.181-0.27-0.336-0.449-0.452
										c0.266-0.042,0.516-0.155,0.724-0.326c0.152,0.271,0.237,0.583,0.237,0.915c0,0.253-0.111,0.438-0.28,0.573
										C39.287-128.178,39.261-128.309,39.218-128.432"/>
								</g>
								<g id="g2920" transform="translate(126.3252,666.6401)">
									<path id="path2922" fill="#1787B1" d="M79.688-96.97c0.091,0.254,0.252,0.483,0.466,0.656
										c-0.031,0.043-0.057,0.09-0.077,0.141c-0.261,0.079-0.493,0.228-0.672,0.425c-0.002-0.005-0.002-0.011-0.005-0.017
										c-0.034-0.151-0.04-0.303-0.023-0.451c0.125-0.023,0.22-0.133,0.22-0.265c0-0.079-0.034-0.148-0.087-0.197
										C79.559-96.781,79.619-96.879,79.688-96.97"/>
								</g>
								<g id="g2924" transform="translate(125.4619,663.7983)">
									<path id="path2926" fill="#1787B1" d="M80.506-94.277c-0.11,0.11-0.202,0.235-0.274,0.372
										c-0.013-0.003-0.027-0.004-0.041-0.004c-0.15,0-0.27,0.121-0.27,0.27c0,0.107,0.062,0.2,0.152,0.243
										c-0.02,0.166-0.014,0.338,0.025,0.511c0.011,0.05,0.023,0.098,0.04,0.145c-0.165,0.24-0.261,0.531-0.261,0.845
										c0,0.011,0,0.023,0,0.034c-0.277-0.139-0.485-0.359-0.485-0.705c0-0.765,0.455-1.422,1.111-1.717
										C80.505-94.281,80.505-94.279,80.506-94.277"/>
								</g>
								<g id="g2928" transform="translate(155.8091,682.1509)">
									<path id="path2930" fill="#1787B1" d="M51.754-111.665c-0.085-0.241-0.314-0.414-0.584-0.414
										c-0.145,0-0.277,0.05-0.382,0.132c-0.217-0.169-0.381-0.399-0.481-0.656c0.045-0.048,0.092-0.094,0.143-0.137
										c0.152-0.04,0.311-0.061,0.476-0.061c0.661,0,1.241,0.342,1.577,0.857C52.28-111.79,52.022-111.689,51.754-111.665"/>
								</g>
							</g>
						</g>
					</g>
					<g>
						<g>
							<g id="g2932">
								<g id="g2934">
									<g id="g2942">
									</g>
									<g id="g2940">
										<g id="g2948">
											<defs>
												<rect id="SVGID_3_" x="205.442" y="569.152" width="3.015" height="3.014"/>
											</defs>
											<clipPath id="SVGID_4_">
												<use xlink:href="#SVGID_3_"  overflow="visible"/>
											</clipPath>
											<g id="g2950" clip-path="url(#SVGID_4_)">
												<g id="g2952" transform="translate(156.2222,685.187)">
													<path id="path2954" fill="#FFFFFF" d="M51.362-114.542l0.571,0.136l-0.573,0.029l0.467,0.357l-0.53-0.19l0.36,0.499
														l-0.498-0.33l0.173,0.584l-0.341-0.482l-0.007,0.609l-0.226-0.542l-0.188,0.55l0.01-0.647l-0.323,0.58l0.175-0.615
														l-0.525,0.381l0.412-0.517l-0.653,0.24l0.516-0.381l-0.66-0.02l0.675-0.173l-0.676-0.146l0.666-0.049l-0.562-0.36
														l0.58,0.21l-0.402-0.509l0.508,0.41l-0.183-0.683l0.392,0.556l-0.055-0.656l0.223,0.595l0.19-0.626l0.047,0.628
														l0.28-0.536l-0.166,0.612l0.515-0.399l-0.332,0.509l0.564-0.22l-0.431,0.423l0.579-0.045L51.362-114.542z"/>
												</g>
											</g>
										</g>
									</g>
								</g>
							</g>
							<g>
								<g>
									<g id="g2956">
										<g id="g2958">
											<g id="g2966">
											</g>
											<g id="g2964">
												<g id="g2972">
													<defs>
														<rect id="SVGID_5_" x="200.102" y="569.145" width="13.955" height="4.062"/>
													</defs>
													<clipPath id="SVGID_6_">
														<use xlink:href="#SVGID_5_"  overflow="visible"/>
													</clipPath>
													<g id="g2974" opacity="0.35" clip-path="url(#SVGID_6_)">
														<g id="g2976" transform="translate(40.4033,664.3701)">
															<path id="path2978" fill="#383635" d="M161.094-94.819c1.773,1.773,3.19,2.321,4.475,2.57
																c0.17,0.033,0.202,0.405,0.202,0.405s0.024-0.274,0.143-0.309c0.12-0.036,0.274,0.428,0.274,0.428
																s-0.143-0.416,0-0.44c0.144-0.024,0.405,0.404,0.405,0.404s-0.107-0.37-0.036-0.393
																c0.072-0.024,0.429,0.536,0.429,0.536s-0.214-0.369-0.012-0.404c0.202-0.036,0.498,0.251,0.498,0.251
																s-0.233-0.263-0.13-0.299c0.441-0.155,0.798,0.417,0.798,0.417s-0.083-0.25-0.297-0.524
																c0.464-0.119,0.809,0.58,0.809,0.58l-0.345-0.699c0.178-0.095,0.893,0.727,0.893,0.727s-0.37-0.643-0.584-0.773
																c0.12-0.096,0.548,0.285,0.548,0.285s-0.345-0.429-0.214-0.452c0.19-0.155,0.892,0.798,0.892,0.798
																s-0.273-0.56-0.678-1c0.338-0.169,1.179,0.916,1.179,0.916s-0.024-0.345-0.631-0.893
																c0.452,0.06,1.035,0.917,1.035,0.917s-0.214-0.643-0.727-1.095c0.445,0.046,1.155,1.143,1.155,1.143
																s-0.274-0.762-0.833-1.202c0.618-0.138,1.511,0.786,1.511,0.786s-0.351-0.655-0.809-0.923
																c0.512-0.196,1.214,0.613,1.214,0.613s-0.702-1.083-1.821-1.035c-0.367,0.015-1.477,1.113-3.856,1.023
																C163.439-92.581,162.771-93.914,161.094-94.819"/>
														</g>
													</g>
												</g>
											</g>
											<g id="g2980" transform="translate(41.7861,666.9326)">
												<path id="path2982" fill="#383635" d="M159.783-97.246c1.773,1.773,3.191,2.321,4.476,2.57
													c0.17,0.033,0.202,0.405,0.202,0.405s0.023-0.274,0.143-0.309c0.119-0.036,0.274,0.428,0.274,0.428s-0.143-0.417,0-0.44
													c0.142-0.024,0.404,0.404,0.404,0.404s-0.107-0.369-0.036-0.393c0.072-0.024,0.429,0.536,0.429,0.536
													s-0.215-0.369-0.012-0.405c0.203-0.035,0.498,0.252,0.498,0.252s-0.232-0.263-0.128-0.299
													c0.44-0.155,0.797,0.417,0.797,0.417s-0.083-0.251-0.297-0.524c0.463-0.119,0.809,0.58,0.809,0.58l-0.345-0.699
													c0.18-0.095,0.893,0.726,0.893,0.726s-0.368-0.643-0.583-0.774c0.12-0.095,0.548,0.286,0.548,0.286
													s-0.345-0.429-0.214-0.452c0.19-0.155,0.893,0.798,0.893,0.798s-0.274-0.559-0.679-1
													c0.338-0.17,1.178,0.916,1.178,0.916s-0.024-0.345-0.63-0.893c0.452,0.06,1.036,0.917,1.036,0.917
													s-0.214-0.643-0.727-1.095c0.444,0.046,1.155,1.143,1.155,1.143s-0.274-0.762-0.834-1.202
													c0.62-0.138,1.512,0.785,1.512,0.785s-0.352-0.655-0.809-0.922c0.512-0.197,1.214,0.613,1.214,0.613
													s-0.702-1.083-1.821-1.036c-0.366,0.016-1.477,1.114-3.856,1.023C162.128-95.009,161.462-96.343,159.783-97.246"/>
											</g>
										</g>
									</g>
									<g id="layer2" transform="translate(-62.668647,-74.06425)">
										<g id="g4555" transform="matrix(1.25,0,0,-1.25,19.117647,990)">
											<g id="g2984">
												<g id="g2986">
													<g id="g2994">
													</g>
													<g id="g2992">
														<g id="g3000">
															<defs>
																<rect id="SVGID_7_" x="200.14" y="566.463" width="13.1" height="4.85"/>
															</defs>
															<clipPath id="SVGID_8_">
																<use xlink:href="#SVGID_7_"  overflow="visible"/>
															</clipPath>
															<g id="g3002" opacity="0.35" clip-path="url(#SVGID_8_)">
																<g id="g3004" transform="translate(39.5195,660.6802)">
																	<path id="path3006" fill="#383635" d="M161.931-91.323c0.938-0.47,1.795,0.072,2.875-0.233
																		c0.821-0.232,1.82-0.517,3.177-0.32c1.357,0.197,2.517,0.786,3.071,1.839c0.173,0.47,0.874-0.107,0.874-0.107
																		s-0.512,0.214-0.499,0.112c0.012-0.101,0.768-0.452,0.768-0.452s-0.685,0.214-0.644,0.053
																		c0.043-0.161,0.857-0.803,0.857-0.803s-0.923,0.702-0.999,0.607c-0.077-0.096,0.392-0.482,0.392-0.482
																		s-0.779,0.482-1.053,0.34c-0.196-0.102,0.81-0.762,0.81-0.762s-0.655,0.499-0.81,0.368
																		c-0.155-0.13,0.738-1.202,0.738-1.202s-1.011,1.096-1.113,1.041c-0.102-0.053,0.28-0.577,0.28-0.577
																		s-0.501,0.547-0.638,0.452c-0.137-0.095,0.715-1.518,0.715-1.518s-0.923,1.459-1.304,1.214
																		c0.598-1.312,0.375-1.499,0.375-1.499s-0.077,1.339-0.822,1.304c-0.374-0.018,0.18-1,0.18-1
																		s-0.51,0.896-0.848,0.879c0.625-1.183,0.402-1.664,0.402-1.664s0.102,1.01-0.745,1.573
																		c0.322-0.286-0.202-1.573-0.202-1.573s0.46,1.897-0.339,1.535c-0.127-0.057-0.009-0.947-0.009-0.947
																		s-0.161,1.018-0.402,0.964c-0.141-0.031-0.893-1.411-0.893-1.411s0.616,1.491,0.429,1.428
																		c-0.137-0.045-0.392-0.66-0.392-0.66s0.124,0.606,0,0.642c-0.126,0.036-0.822-0.642-0.822-0.642
																		s0.518,0.606,0.428,0.732c-0.134,0.189-0.294,0.198-0.482,0.125c-0.274-0.106-0.642-0.607-0.642-0.607
																		s0.367,0.506,0.304,0.696c-0.104,0.305-1.162-0.589-1.162-0.589s0.625,0.589,0.483,0.714
																		c-0.143,0.125-0.919,0.087-1.161,0.088C162.395-91.662,162.148-91.495,161.931-91.323"/>
																</g>
															</g>
														</g>
													</g>
													<g id="g3008" transform="translate(38.8408,662.7183)">
														<path id="path3010" fill="#383635" d="M162.574-93.254c0.937-0.471,1.794,0.071,2.873-0.234
															c0.822-0.232,1.822-0.517,3.179-0.32c1.356,0.197,2.517,0.786,3.07,1.839c0.173,0.47,0.875-0.107,0.875-0.107
															s-0.512,0.214-0.5,0.112c0.012-0.101,0.768-0.452,0.768-0.452s-0.685,0.214-0.643,0.053
															c0.042-0.161,0.857-0.803,0.857-0.803s-0.923,0.702-1,0.607c-0.077-0.095,0.392-0.482,0.392-0.482
															s-0.779,0.482-1.053,0.34c-0.197-0.102,0.809-0.762,0.809-0.762s-0.654,0.5-0.809,0.369
															c-0.154-0.131,0.738-1.202,0.738-1.202s-1.012,1.094-1.113,1.041c-0.1-0.054,0.28-0.578,0.28-0.578
															s-0.499,0.547-0.637,0.452c-0.137-0.095,0.715-1.518,0.715-1.518s-0.923,1.458-1.304,1.214
															c0.598-1.312,0.375-1.499,0.375-1.499s-0.076,1.339-0.821,1.304c-0.374-0.018,0.179-1,0.179-1
															s-0.51,0.896-0.848,0.879c0.625-1.184,0.402-1.664,0.402-1.664s0.103,1.01-0.745,1.573
															c0.321-0.286-0.201-1.573-0.201-1.573s0.459,1.897-0.34,1.535c-0.127-0.057-0.009-0.946-0.009-0.946
															s-0.162,1.018-0.402,0.964c-0.141-0.03-0.893-1.411-0.893-1.411s0.617,1.491,0.43,1.429
															c-0.137-0.046-0.394-0.661-0.394-0.661s0.125,0.607,0,0.643c-0.124,0.036-0.821-0.643-0.821-0.643
															s0.518,0.607,0.428,0.732c-0.134,0.189-0.294,0.198-0.482,0.125c-0.273-0.106-0.642-0.607-0.642-0.607
															s0.367,0.506,0.304,0.696c-0.104,0.305-1.161-0.589-1.161-0.589s0.625,0.589,0.482,0.714
															c-0.143,0.126-0.919,0.087-1.16,0.088C163.037-93.594,162.79-93.425,162.574-93.254"/>
													</g>
												</g>
											</g>
										</g>
									</g>
								</g>
							</g>
						</g>
					</g>
				</g>
			</g>
		</g>
	</g>
</g>
</svg>
