<?xml version="1.0" encoding="utf-8"?>
<!-- Generator: Adobe Illustrator 16.0.0, SVG Export Plug-In . SVG Version: 6.00 Build 0)  -->
<!DOCTYPE svg PUBLIC "-//W3C//DTD SVG 1.1//EN" "http://www.w3.org/Graphics/SVG/1.1/DTD/svg11.dtd">
<svg version="1.1" id="Layer_1" xmlns="http://www.w3.org/2000/svg" xmlns:xlink="http://www.w3.org/1999/xlink" x="0px" y="0px"
	 width="595.28px" height="190.667px" viewBox="0 0 595.28 190.667" enable-background="new 0 0 595.28 190.667"
	 xml:space="preserve">
<path fill-rule="evenodd" clip-rule="evenodd" fill="#ED1C24" d="M268.965,158.155c-41.729,4.528-79.227-25.629-83.755-67.358
	c-4.527-41.728,25.63-79.228,67.358-83.755C285.302,3.49,316.6,21.42,330.093,51.454L295.43,67.026
	c-8.601-19.143-31.092-27.69-50.235-19.089c-19.143,8.6-27.691,31.091-19.089,50.233c6.746,15.018,22.395,23.982,38.761,22.206
	L268.965,158.155z"/>
<polygon fill="#0052A4" points="0,76.286 202.896,76.286 212.333,92.915 0,92.915 "/>
<path fill-rule="evenodd" clip-rule="evenodd" fill="#710000" d="M344.259,54.315c13.492,30.033,6.112,65.34-18.282,87.453
	l-25.521-28.154c12.197-11.057,15.887-28.71,9.141-43.727L344.259,54.315z"/>
<path fill-rule="evenodd" clip-rule="evenodd" fill="#A30D11" d="M324.341,165.615c-11.892,10.779-26.89,17.518-42.846,19.249
	l-4.099-37.778c7.978-0.866,15.477-4.235,21.422-9.625L324.341,165.615z"/>
<g>
	<path fill="#FFFFFF" d="M177.264,88.293h-2.34l3.444-6.768h-4.02v-1.728h6.168v1.608L177.264,88.293z"/>
	<path fill="#FFFFFF" d="M188.544,84.021c0,0.6-0.06,1.172-0.18,1.716c-0.12,0.544-0.312,1.022-0.576,1.434
		c-0.264,0.412-0.606,0.74-1.026,0.984c-0.42,0.244-0.93,0.366-1.53,0.366c-0.6,0-1.112-0.122-1.536-0.366
		c-0.424-0.244-0.77-0.572-1.038-0.984s-0.462-0.89-0.582-1.434c-0.12-0.544-0.18-1.116-0.18-1.716s0.06-1.17,0.18-1.71
		s0.314-1.012,0.582-1.416s0.614-0.726,1.038-0.966c0.424-0.24,0.936-0.36,1.536-0.36c0.6,0,1.11,0.12,1.53,0.36
		c0.42,0.24,0.762,0.562,1.026,0.966c0.264,0.404,0.456,0.876,0.576,1.416S188.544,83.421,188.544,84.021z M186.48,84.021
		c0-0.264-0.016-0.556-0.048-0.876c-0.032-0.32-0.092-0.618-0.18-0.894c-0.088-0.276-0.214-0.508-0.378-0.696
		s-0.378-0.282-0.642-0.282c-0.264,0-0.48,0.094-0.648,0.282c-0.168,0.188-0.298,0.42-0.39,0.696
		c-0.092,0.276-0.154,0.574-0.186,0.894c-0.032,0.32-0.048,0.612-0.048,0.876c0,0.272,0.016,0.57,0.048,0.894
		c0.032,0.324,0.094,0.624,0.186,0.9c0.092,0.276,0.222,0.508,0.39,0.696c0.168,0.188,0.384,0.282,0.648,0.282
		c0.264,0,0.478-0.094,0.642-0.282c0.164-0.188,0.29-0.42,0.378-0.696c0.088-0.276,0.148-0.576,0.18-0.9
		C186.464,84.591,186.48,84.293,186.48,84.021z"/>
	<path fill="#FFFFFF" d="M194.004,81.921c0,0.312-0.06,0.606-0.18,0.882c-0.12,0.276-0.282,0.516-0.486,0.72
		c-0.204,0.204-0.446,0.366-0.726,0.486c-0.28,0.12-0.576,0.18-0.888,0.18s-0.608-0.06-0.888-0.18
		c-0.28-0.12-0.522-0.282-0.726-0.486c-0.204-0.204-0.366-0.444-0.486-0.72c-0.12-0.276-0.18-0.57-0.18-0.882
		c0-0.32,0.06-0.618,0.18-0.894c0.12-0.276,0.282-0.516,0.486-0.72c0.204-0.204,0.446-0.364,0.726-0.48
		c0.28-0.116,0.576-0.174,0.888-0.174s0.608,0.058,0.888,0.174c0.28,0.116,0.522,0.276,0.726,0.48
		c0.204,0.204,0.366,0.444,0.486,0.72S194.004,81.601,194.004,81.921z M192.66,81.921c0-0.256-0.092-0.476-0.276-0.66
		c-0.184-0.184-0.404-0.276-0.66-0.276s-0.476,0.092-0.66,0.276c-0.184,0.185-0.276,0.404-0.276,0.66
		c0,0.256,0.092,0.474,0.276,0.654c0.184,0.18,0.404,0.27,0.66,0.27s0.476-0.09,0.66-0.27
		C192.568,82.395,192.66,82.177,192.66,81.921z M192.648,88.701l-1.068-0.528l4.956-8.76l1.116,0.54L192.648,88.701z
		 M199.764,86.169c0,0.312-0.06,0.606-0.18,0.882c-0.12,0.276-0.282,0.516-0.486,0.72s-0.446,0.366-0.726,0.486
		c-0.28,0.12-0.576,0.18-0.888,0.18s-0.608-0.06-0.888-0.18c-0.28-0.12-0.522-0.282-0.726-0.486s-0.366-0.444-0.486-0.72
		c-0.12-0.276-0.18-0.57-0.18-0.882s0.06-0.606,0.18-0.882c0.12-0.276,0.282-0.516,0.486-0.72s0.446-0.366,0.726-0.486
		c0.28-0.12,0.576-0.18,0.888-0.18s0.608,0.06,0.888,0.18c0.28,0.12,0.522,0.282,0.726,0.486s0.366,0.444,0.486,0.72
		C199.704,85.563,199.764,85.857,199.764,86.169z M198.42,86.169c0-0.128-0.026-0.25-0.078-0.366c-0.052-0.116-0.12-0.216-0.204-0.3
		s-0.182-0.15-0.294-0.198c-0.112-0.048-0.232-0.072-0.36-0.072c-0.256,0-0.476,0.092-0.66,0.276
		c-0.184,0.184-0.276,0.404-0.276,0.66c0,0.256,0.092,0.474,0.276,0.654c0.184,0.18,0.404,0.27,0.66,0.27
		c0.128,0,0.248-0.024,0.36-0.072c0.112-0.048,0.21-0.114,0.294-0.198s0.152-0.182,0.204-0.294
		C198.394,86.417,198.42,86.297,198.42,86.169z"/>
</g>
<g>
	<path fill="#FFFFFF" d="M82.567,88.96h-0.789v-7.052h-2.595v-0.701h5.979v0.701h-2.595V88.96z"/>
	<path fill="#FFFFFF" d="M91.876,82.608c-0.271-0.285-0.591-0.505-0.964-0.663c-0.372-0.157-0.799-0.235-1.281-0.235
		c-0.497,0-0.944,0.091-1.341,0.273c-0.398,0.182-0.736,0.428-1.013,0.738c-0.277,0.31-0.491,0.669-0.641,1.077
		s-0.225,0.838-0.225,1.29s0.075,0.882,0.225,1.29s0.363,0.766,0.641,1.072c0.277,0.306,0.615,0.55,1.013,0.732
		c0.397,0.182,0.845,0.273,1.341,0.273c0.438,0,0.839-0.047,1.205-0.142s0.661-0.215,0.887-0.361v-2.354h-1.807v-0.701h2.595v3.502
		c-0.423,0.256-0.879,0.447-1.369,0.571c-0.489,0.125-0.997,0.187-1.522,0.187c-0.584,0-1.125-0.103-1.621-0.307
		c-0.497-0.205-0.923-0.487-1.281-0.849c-0.357-0.362-0.637-0.791-0.837-1.287c-0.201-0.496-0.301-1.04-0.301-1.631
		s0.102-1.135,0.307-1.632c0.204-0.497,0.487-0.925,0.849-1.287s0.789-0.645,1.281-0.849c0.493-0.205,1.027-0.307,1.604-0.307
		c0.62,0,1.161,0.093,1.621,0.278c0.46,0.185,0.854,0.443,1.183,0.773L91.876,82.608z"/>
	<path fill="#FFFFFF" d="M95.314,88.259h4.15v0.701h-4.939v-7.753h4.808v0.701h-4.019v2.661h3.756v0.701h-3.756V88.259z"/>
	<path fill="#FFFFFF" d="M110.273,87.701c-0.131,0.197-0.29,0.383-0.477,0.559c-0.186,0.175-0.401,0.33-0.646,0.463
		c-0.245,0.134-0.515,0.239-0.811,0.317c-0.295,0.078-0.619,0.117-0.969,0.117c-0.584,0-1.125-0.103-1.621-0.307
		c-0.497-0.205-0.923-0.487-1.281-0.849c-0.357-0.362-0.637-0.791-0.837-1.287c-0.201-0.496-0.301-1.04-0.301-1.631
		s0.102-1.135,0.307-1.632c0.204-0.497,0.487-0.925,0.849-1.287s0.789-0.645,1.281-0.849c0.493-0.205,1.027-0.307,1.604-0.307
		c0.285,0,0.564,0.03,0.837,0.089c0.274,0.06,0.531,0.143,0.772,0.25c0.241,0.107,0.46,0.237,0.657,0.387
		c0.197,0.151,0.361,0.321,0.493,0.511l-0.657,0.482c-0.081-0.124-0.188-0.248-0.323-0.373c-0.135-0.124-0.294-0.233-0.476-0.329
		c-0.183-0.095-0.382-0.171-0.597-0.23c-0.215-0.058-0.447-0.087-0.695-0.087c-0.504,0-0.955,0.091-1.353,0.273
		s-0.735,0.428-1.013,0.737c-0.278,0.31-0.489,0.667-0.635,1.075s-0.219,0.837-0.219,1.288s0.075,0.88,0.225,1.288
		c0.149,0.407,0.363,0.766,0.641,1.075c0.277,0.31,0.615,0.555,1.013,0.737c0.397,0.182,0.845,0.273,1.341,0.273
		c0.445,0,0.869-0.091,1.271-0.273c0.401-0.183,0.737-0.475,1.007-0.876L110.273,87.701z"/>
	<path fill="#FFFFFF" d="M116.548,86.397c0,0.387-0.067,0.745-0.203,1.073s-0.323,0.613-0.564,0.854
		c-0.241,0.241-0.529,0.429-0.865,0.564c-0.336,0.135-0.705,0.203-1.106,0.203c-0.394,0-0.759-0.067-1.095-0.203
		c-0.336-0.135-0.625-0.323-0.865-0.564c-0.241-0.241-0.429-0.525-0.564-0.854c-0.135-0.329-0.203-0.686-0.203-1.073
		c0-0.387,0.067-0.745,0.203-1.073c0.135-0.329,0.323-0.613,0.564-0.854c0.241-0.241,0.529-0.429,0.865-0.564
		c0.335-0.135,0.701-0.203,1.095-0.203c0.401,0,0.771,0.067,1.106,0.203c0.335,0.135,0.624,0.323,0.865,0.564
		c0.241,0.241,0.429,0.525,0.564,0.854S116.548,86.011,116.548,86.397z M115.759,86.397c0-0.285-0.045-0.553-0.137-0.805
		c-0.091-0.252-0.221-0.471-0.389-0.657s-0.373-0.334-0.613-0.443c-0.241-0.11-0.511-0.165-0.811-0.165s-0.567,0.055-0.805,0.165
		c-0.237,0.109-0.44,0.257-0.608,0.443s-0.297,0.405-0.389,0.657c-0.091,0.251-0.137,0.52-0.137,0.805s0.045,0.553,0.137,0.805
		c0.091,0.252,0.221,0.471,0.389,0.657s0.371,0.333,0.608,0.438c0.237,0.106,0.505,0.159,0.805,0.159s0.57-0.053,0.811-0.159
		c0.241-0.105,0.445-0.252,0.613-0.438s0.297-0.405,0.389-0.657C115.714,86.951,115.759,86.682,115.759,86.397z"/>
	<path fill="#FFFFFF" d="M118.815,83.835c0.014,0.139,0.025,0.292,0.033,0.46s0.011,0.307,0.011,0.416h0.022
		c0.146-0.299,0.383-0.542,0.712-0.728c0.329-0.187,0.675-0.279,1.04-0.279c0.65,0,1.137,0.193,1.462,0.58
		c0.325,0.387,0.487,0.898,0.487,1.533v3.143h-0.745v-2.836c0-0.27-0.022-0.515-0.066-0.733c-0.044-0.219-0.119-0.407-0.225-0.564
		c-0.106-0.157-0.248-0.279-0.427-0.367c-0.179-0.087-0.404-0.131-0.674-0.131c-0.197,0-0.389,0.041-0.575,0.121
		c-0.186,0.081-0.353,0.203-0.499,0.367c-0.146,0.165-0.263,0.373-0.35,0.625c-0.088,0.251-0.131,0.549-0.131,0.892v2.628h-0.745
		v-3.997c0-0.139-0.003-0.317-0.011-0.537c-0.007-0.219-0.018-0.416-0.033-0.591H118.815z"/>
	<path fill="#FFFFFF" d="M126.82,84.459h-1.446v2.99c0,0.19,0.018,0.347,0.055,0.471c0.037,0.125,0.089,0.221,0.159,0.291
		c0.069,0.069,0.151,0.117,0.246,0.142c0.095,0.026,0.197,0.039,0.307,0.039c0.102,0,0.21-0.015,0.323-0.044
		c0.113-0.029,0.221-0.069,0.323-0.121l0.033,0.646c-0.131,0.051-0.269,0.089-0.411,0.115c-0.143,0.025-0.298,0.039-0.466,0.039
		c-0.139,0-0.285-0.019-0.438-0.055c-0.153-0.036-0.295-0.105-0.427-0.208c-0.131-0.102-0.239-0.241-0.323-0.416
		s-0.126-0.405-0.126-0.69v-3.198h-1.062v-0.624h1.062V82.39h0.745v1.445h1.446V84.459z"/>
	<path fill="#FFFFFF" d="M127.969,84.426c-0.007-0.219-0.018-0.416-0.033-0.591h0.712c0.014,0.139,0.025,0.292,0.033,0.46
		s0.011,0.307,0.011,0.416h0.022c0.146-0.299,0.365-0.542,0.657-0.728c0.292-0.187,0.62-0.279,0.985-0.279
		c0.095,0,0.181,0.004,0.257,0.011c0.077,0.007,0.155,0.022,0.235,0.044l-0.098,0.712c-0.044-0.015-0.117-0.029-0.219-0.044
		c-0.103-0.015-0.205-0.022-0.307-0.022c-0.197,0-0.387,0.037-0.569,0.109c-0.183,0.073-0.341,0.188-0.477,0.344
		c-0.135,0.156-0.245,0.356-0.329,0.601s-0.125,0.538-0.125,0.879v2.622h-0.745v-3.997C127.98,84.824,127.977,84.646,127.969,84.426
		z"/>
	<path fill="#FFFFFF" d="M132.831,81.864c0,0.153-0.055,0.279-0.164,0.378c-0.11,0.099-0.23,0.148-0.362,0.148
		c-0.131,0-0.251-0.049-0.361-0.148c-0.109-0.099-0.164-0.225-0.164-0.378s0.055-0.279,0.164-0.378
		c0.11-0.099,0.23-0.147,0.361-0.147c0.132,0,0.252,0.049,0.362,0.147C132.776,81.584,132.831,81.71,132.831,81.864z M132.678,88.96
		h-0.745v-5.125h0.745V88.96z"/>
	<path fill="#FFFFFF" d="M135.426,88.095v0.865h-0.745v-8.279h0.745v4.041h0.022c0.219-0.336,0.504-0.59,0.854-0.761
		c0.35-0.171,0.711-0.257,1.084-0.257c0.401,0,0.765,0.069,1.089,0.208c0.325,0.139,0.603,0.329,0.833,0.569
		c0.23,0.241,0.409,0.526,0.537,0.854c0.127,0.328,0.191,0.683,0.191,1.062c0,0.38-0.064,0.734-0.191,1.062
		c-0.128,0.329-0.307,0.613-0.537,0.854c-0.23,0.241-0.507,0.431-0.833,0.569c-0.325,0.139-0.688,0.208-1.089,0.208
		c-0.373,0-0.734-0.084-1.084-0.252c-0.351-0.167-0.635-0.416-0.854-0.745H135.426z M139.249,86.397
		c0-0.285-0.044-0.553-0.132-0.805c-0.087-0.252-0.213-0.471-0.377-0.657c-0.165-0.186-0.367-0.334-0.608-0.443
		c-0.241-0.11-0.515-0.165-0.821-0.165c-0.285,0-0.547,0.053-0.789,0.159c-0.241,0.106-0.449,0.252-0.624,0.438
		c-0.175,0.186-0.312,0.405-0.411,0.657s-0.148,0.524-0.148,0.816s0.049,0.564,0.148,0.816s0.235,0.469,0.411,0.651
		c0.175,0.183,0.383,0.327,0.624,0.433c0.241,0.106,0.504,0.159,0.789,0.159c0.307,0,0.581-0.053,0.821-0.159
		c0.241-0.105,0.443-0.252,0.608-0.438c0.164-0.186,0.29-0.405,0.377-0.657C139.205,86.951,139.249,86.682,139.249,86.397z"/>
	<path fill="#FFFFFF" d="M145.359,88.96c-0.015-0.139-0.026-0.292-0.033-0.46c-0.008-0.168-0.011-0.307-0.011-0.416h-0.022
		c-0.146,0.299-0.383,0.542-0.712,0.728c-0.328,0.186-0.675,0.279-1.04,0.279c-0.65,0-1.137-0.193-1.462-0.581
		c-0.325-0.387-0.487-0.898-0.487-1.533v-3.143h0.745v2.836c0,0.27,0.022,0.515,0.065,0.733c0.044,0.219,0.119,0.407,0.225,0.564
		c0.106,0.157,0.248,0.279,0.427,0.367c0.179,0.087,0.403,0.131,0.673,0.131c0.197,0,0.389-0.04,0.575-0.121
		c0.186-0.08,0.352-0.203,0.498-0.367c0.146-0.165,0.263-0.373,0.351-0.625c0.087-0.251,0.131-0.549,0.131-0.892v-2.628h0.745v3.997
		c0,0.139,0.003,0.317,0.011,0.537c0.007,0.219,0.018,0.416,0.033,0.591H145.359z"/>
	<path fill="#FFFFFF" d="M150.309,84.459h-1.446v2.99c0,0.19,0.018,0.347,0.055,0.471c0.037,0.125,0.089,0.221,0.159,0.291
		c0.069,0.069,0.151,0.117,0.246,0.142c0.095,0.026,0.197,0.039,0.307,0.039c0.102,0,0.21-0.015,0.323-0.044
		c0.113-0.029,0.221-0.069,0.323-0.121l0.033,0.646c-0.131,0.051-0.269,0.089-0.411,0.115c-0.143,0.025-0.298,0.039-0.466,0.039
		c-0.139,0-0.285-0.019-0.438-0.055c-0.153-0.036-0.295-0.105-0.427-0.208c-0.131-0.102-0.239-0.241-0.323-0.416
		s-0.126-0.405-0.126-0.69v-3.198h-1.062v-0.624h1.062V82.39h0.745v1.445h1.446V84.459z"/>
	<path fill="#FFFFFF" d="M156.562,86.397c0,0.387-0.067,0.745-0.203,1.073s-0.323,0.613-0.564,0.854
		c-0.241,0.241-0.529,0.429-0.865,0.564c-0.336,0.135-0.705,0.203-1.106,0.203c-0.394,0-0.759-0.067-1.095-0.203
		c-0.336-0.135-0.625-0.323-0.865-0.564c-0.241-0.241-0.429-0.525-0.564-0.854c-0.135-0.329-0.203-0.686-0.203-1.073
		c0-0.387,0.067-0.745,0.203-1.073c0.135-0.329,0.323-0.613,0.564-0.854c0.241-0.241,0.529-0.429,0.865-0.564
		c0.335-0.135,0.701-0.203,1.095-0.203c0.401,0,0.771,0.067,1.106,0.203c0.335,0.135,0.624,0.323,0.865,0.564
		c0.241,0.241,0.429,0.525,0.564,0.854S156.562,86.011,156.562,86.397z M155.773,86.397c0-0.285-0.045-0.553-0.137-0.805
		c-0.091-0.252-0.221-0.471-0.389-0.657s-0.373-0.334-0.613-0.443c-0.241-0.11-0.511-0.165-0.811-0.165s-0.567,0.055-0.805,0.165
		c-0.237,0.109-0.44,0.257-0.608,0.443s-0.297,0.405-0.389,0.657c-0.091,0.251-0.137,0.52-0.137,0.805s0.045,0.553,0.137,0.805
		c0.091,0.252,0.221,0.471,0.389,0.657s0.371,0.333,0.608,0.438c0.237,0.106,0.505,0.159,0.805,0.159s0.57-0.053,0.811-0.159
		c0.241-0.105,0.445-0.252,0.613-0.438s0.297-0.405,0.389-0.657C155.728,86.951,155.773,86.682,155.773,86.397z"/>
	<path fill="#FFFFFF" d="M158.149,84.426c-0.007-0.219-0.018-0.416-0.033-0.591h0.712c0.014,0.139,0.025,0.292,0.033,0.46
		s0.011,0.307,0.011,0.416h0.022c0.146-0.299,0.365-0.542,0.657-0.728c0.292-0.187,0.62-0.279,0.985-0.279
		c0.095,0,0.181,0.004,0.257,0.011c0.077,0.007,0.155,0.022,0.235,0.044l-0.098,0.712c-0.044-0.015-0.117-0.029-0.219-0.044
		c-0.103-0.015-0.205-0.022-0.307-0.022c-0.197,0-0.387,0.037-0.569,0.109c-0.183,0.073-0.341,0.188-0.477,0.344
		c-0.135,0.156-0.245,0.356-0.329,0.601s-0.125,0.538-0.125,0.879v2.622h-0.745v-3.997C158.16,84.824,158.157,84.646,158.149,84.426
		z"/>
	<path fill="#FFFFFF" d="M164.829,85.05c-0.109-0.211-0.276-0.385-0.499-0.52c-0.223-0.135-0.476-0.203-0.761-0.203
		c-0.131,0-0.263,0.015-0.395,0.044s-0.248,0.077-0.35,0.142c-0.103,0.066-0.185,0.15-0.247,0.252
		c-0.062,0.103-0.093,0.223-0.093,0.361c0,0.241,0.099,0.426,0.296,0.553c0.197,0.128,0.507,0.235,0.931,0.323
		c0.606,0.124,1.053,0.305,1.342,0.542c0.288,0.237,0.433,0.557,0.433,0.958c0,0.292-0.057,0.539-0.17,0.739
		s-0.261,0.365-0.443,0.493c-0.183,0.128-0.389,0.219-0.619,0.274s-0.461,0.082-0.695,0.082c-0.387,0-0.763-0.081-1.128-0.241
		c-0.365-0.161-0.664-0.413-0.898-0.756l0.591-0.438c0.131,0.227,0.325,0.416,0.581,0.569c0.255,0.153,0.537,0.23,0.843,0.23
		c0.161,0,0.314-0.014,0.46-0.043s0.274-0.081,0.383-0.153c0.109-0.073,0.197-0.166,0.263-0.279s0.099-0.254,0.099-0.422
		c0-0.27-0.13-0.473-0.389-0.607c-0.259-0.135-0.634-0.261-1.123-0.378c-0.153-0.037-0.316-0.082-0.487-0.137
		c-0.172-0.055-0.331-0.135-0.477-0.241c-0.146-0.105-0.267-0.239-0.361-0.4c-0.095-0.16-0.142-0.361-0.142-0.602
		c0-0.263,0.051-0.487,0.153-0.673c0.102-0.187,0.239-0.34,0.411-0.46c0.171-0.121,0.367-0.21,0.586-0.269
		c0.219-0.058,0.445-0.087,0.679-0.087c0.357,0,0.705,0.081,1.041,0.241c0.335,0.161,0.587,0.387,0.755,0.679L164.829,85.05z"/>
</g>
<polygon fill="#ED1C24" points="595.28,82.601 337.062,82.601 327.439,99.5 595.28,99.5 "/>
<g>
	<path fill="#FFFFFF" d="M340.194,94.767v-1.677l3.312-2.995c0.209-0.2,0.377-0.403,0.504-0.611
		c0.129-0.208,0.193-0.439,0.193-0.694c0-0.304-0.097-0.549-0.289-0.737c-0.191-0.188-0.447-0.282-0.768-0.282
		c-0.336,0-0.61,0.118-0.822,0.354c-0.212,0.236-0.338,0.546-0.378,0.93l-1.932-0.264c0.048-0.432,0.165-0.817,0.354-1.154
		c0.188-0.337,0.426-0.625,0.713-0.863c0.289-0.237,0.618-0.418,0.99-0.543s0.766-0.188,1.182-0.188
		c0.393,0,0.772,0.052,1.141,0.156c0.367,0.104,0.695,0.264,0.984,0.48c0.287,0.216,0.518,0.488,0.689,0.816
		s0.258,0.712,0.258,1.152c0,0.304-0.04,0.578-0.119,0.822c-0.08,0.244-0.191,0.47-0.33,0.678c-0.141,0.208-0.301,0.402-0.48,0.582
		c-0.18,0.18-0.366,0.358-0.559,0.534l-1.967,1.752h3.467v1.752H340.194z"/>
	<path fill="#FFFFFF" d="M354.33,90.495c0,0.6-0.06,1.172-0.18,1.716c-0.12,0.544-0.312,1.022-0.576,1.434s-0.605,0.74-1.025,0.984
		c-0.42,0.244-0.931,0.366-1.53,0.366c-0.601,0-1.112-0.122-1.536-0.366c-0.424-0.244-0.77-0.572-1.038-0.984
		s-0.462-0.89-0.582-1.434c-0.12-0.544-0.181-1.116-0.181-1.716s0.061-1.17,0.181-1.71s0.313-1.012,0.582-1.416
		s0.614-0.726,1.038-0.966c0.424-0.24,0.936-0.36,1.536-0.36c0.6,0,1.11,0.12,1.53,0.36c0.42,0.24,0.762,0.562,1.025,0.966
		s0.456,0.876,0.576,1.416S354.33,89.895,354.33,90.495z M352.267,90.495c0-0.264-0.017-0.556-0.048-0.876
		c-0.032-0.32-0.092-0.618-0.18-0.894c-0.089-0.276-0.215-0.508-0.379-0.696s-0.378-0.282-0.642-0.282
		c-0.265,0-0.479,0.094-0.647,0.282c-0.169,0.188-0.299,0.42-0.391,0.696s-0.154,0.574-0.186,0.894
		c-0.033,0.32-0.049,0.612-0.049,0.876c0,0.272,0.016,0.57,0.049,0.894c0.031,0.324,0.094,0.624,0.186,0.9s0.222,0.508,0.391,0.696
		c0.168,0.188,0.383,0.282,0.647,0.282c0.264,0,0.478-0.094,0.642-0.282c0.164-0.188,0.29-0.42,0.379-0.696
		c0.088-0.276,0.147-0.576,0.18-0.9C352.25,91.064,352.267,90.767,352.267,90.495z"/>
	<path fill="#FFFFFF" d="M359.791,88.395c0,0.312-0.061,0.606-0.181,0.882c-0.12,0.276-0.282,0.516-0.485,0.72
		c-0.205,0.204-0.447,0.366-0.727,0.486c-0.28,0.12-0.576,0.18-0.889,0.18c-0.312,0-0.607-0.06-0.887-0.18
		c-0.281-0.12-0.523-0.282-0.727-0.486c-0.204-0.204-0.366-0.444-0.486-0.72c-0.119-0.276-0.18-0.57-0.18-0.882
		c0-0.32,0.061-0.618,0.18-0.894c0.12-0.276,0.282-0.516,0.486-0.72c0.203-0.204,0.445-0.364,0.727-0.48
		c0.279-0.116,0.575-0.174,0.887-0.174c0.312,0,0.608,0.058,0.889,0.174c0.279,0.116,0.521,0.276,0.727,0.48
		c0.203,0.204,0.365,0.444,0.485,0.72S359.791,88.075,359.791,88.395z M358.446,88.395c0-0.256-0.092-0.476-0.276-0.66
		c-0.184-0.184-0.404-0.276-0.66-0.276s-0.476,0.092-0.66,0.276c-0.184,0.185-0.275,0.404-0.275,0.66
		c0,0.256,0.092,0.474,0.275,0.654c0.185,0.18,0.404,0.27,0.66,0.27s0.477-0.09,0.66-0.27
		C358.354,88.869,358.446,88.651,358.446,88.395z M358.434,95.175l-1.067-0.528l4.956-8.76l1.116,0.54L358.434,95.175z
		 M365.551,92.643c0,0.312-0.061,0.606-0.181,0.882c-0.12,0.276-0.282,0.516-0.485,0.72c-0.205,0.204-0.446,0.366-0.727,0.486
		c-0.279,0.12-0.576,0.18-0.888,0.18s-0.608-0.06-0.888-0.18c-0.281-0.12-0.522-0.282-0.727-0.486s-0.365-0.444-0.486-0.72
		c-0.119-0.276-0.18-0.57-0.18-0.882s0.061-0.606,0.18-0.882c0.121-0.276,0.282-0.516,0.486-0.72s0.445-0.366,0.727-0.486
		c0.279-0.12,0.576-0.18,0.888-0.18s0.608,0.06,0.888,0.18c0.28,0.12,0.521,0.282,0.727,0.486c0.203,0.204,0.365,0.444,0.485,0.72
		C365.49,92.037,365.551,92.331,365.551,92.643z M364.207,92.643c0-0.128-0.027-0.25-0.078-0.366
		c-0.053-0.116-0.121-0.216-0.205-0.3s-0.182-0.15-0.293-0.198c-0.113-0.048-0.232-0.072-0.36-0.072
		c-0.257,0-0.476,0.092-0.66,0.276c-0.185,0.184-0.276,0.404-0.276,0.66c0,0.256,0.092,0.474,0.276,0.654
		c0.185,0.18,0.403,0.27,0.66,0.27c0.128,0,0.247-0.024,0.36-0.072c0.111-0.048,0.209-0.114,0.293-0.198s0.152-0.182,0.205-0.294
		C364.18,92.891,364.207,92.771,364.207,92.643z"/>
</g>
<g>
	<path fill="#FFFFFF" d="M374.051,94.862h-0.789V87.81h-2.595v-0.701h5.979v0.701h-2.596V94.862z"/>
	<path fill="#FFFFFF" d="M381.377,92.146c0,0.051,0,0.106,0,0.164c0,0.059-0.004,0.121-0.011,0.187h-4.249
		c0.008,0.255,0.059,0.497,0.153,0.723c0.095,0.227,0.227,0.423,0.395,0.591c0.167,0.168,0.364,0.301,0.591,0.4
		c0.227,0.098,0.471,0.147,0.734,0.147c0.387,0,0.721-0.089,1.002-0.268s0.494-0.385,0.641-0.619l0.559,0.438
		c-0.307,0.387-0.645,0.665-1.014,0.832c-0.368,0.168-0.765,0.252-1.188,0.252c-0.38,0-0.732-0.067-1.057-0.203
		c-0.325-0.135-0.604-0.323-0.838-0.564c-0.234-0.241-0.418-0.525-0.553-0.854c-0.136-0.329-0.203-0.686-0.203-1.073
		c0-0.387,0.065-0.745,0.197-1.073c0.131-0.329,0.313-0.613,0.547-0.854c0.234-0.241,0.508-0.429,0.822-0.564
		c0.313-0.135,0.652-0.203,1.018-0.203c0.402,0,0.756,0.067,1.062,0.203s0.562,0.317,0.767,0.547s0.359,0.499,0.466,0.805
		C381.324,91.467,381.377,91.795,381.377,92.146z M380.621,91.905c-0.021-0.482-0.177-0.882-0.465-1.199
		c-0.289-0.318-0.699-0.477-1.232-0.477c-0.248,0-0.479,0.046-0.689,0.137c-0.212,0.091-0.398,0.215-0.559,0.372
		c-0.16,0.157-0.289,0.336-0.383,0.537c-0.096,0.201-0.15,0.411-0.164,0.63H380.621z"/>
	<path fill="#FFFFFF" d="M386.141,91.545c0-0.442-0.117-0.771-0.351-0.989c-0.233-0.217-0.573-0.326-1.019-0.326
		c-0.307,0-0.592,0.055-0.854,0.165c-0.264,0.109-0.486,0.255-0.668,0.438l-0.417-0.493c0.212-0.211,0.491-0.387,0.838-0.525
		s0.739-0.208,1.177-0.208c0.277,0,0.537,0.038,0.777,0.115c0.242,0.077,0.453,0.192,0.636,0.345s0.325,0.347,0.427,0.58
		c0.103,0.234,0.154,0.508,0.154,0.822v2.245c0,0.197,0.007,0.402,0.021,0.613c0.015,0.212,0.036,0.391,0.065,0.537h-0.668
		c-0.022-0.124-0.04-0.259-0.055-0.405s-0.022-0.288-0.022-0.427h-0.021c-0.233,0.343-0.498,0.589-0.794,0.739
		c-0.296,0.15-0.651,0.225-1.067,0.225c-0.197,0-0.4-0.027-0.607-0.082c-0.209-0.055-0.398-0.145-0.57-0.27
		s-0.313-0.286-0.427-0.483s-0.169-0.439-0.169-0.725c0-0.396,0.1-0.709,0.301-0.939c0.2-0.23,0.469-0.403,0.805-0.517
		c0.336-0.113,0.721-0.187,1.155-0.22c0.435-0.033,0.886-0.049,1.353-0.049V91.545z M385.922,92.299
		c-0.307,0-0.615,0.013-0.926,0.038c-0.311,0.026-0.592,0.077-0.844,0.153s-0.457,0.188-0.618,0.334s-0.241,0.339-0.241,0.58
		c0,0.183,0.035,0.336,0.104,0.46c0.07,0.125,0.163,0.225,0.279,0.301c0.117,0.077,0.247,0.131,0.39,0.164
		c0.142,0.033,0.286,0.049,0.433,0.049c0.263,0,0.496-0.045,0.701-0.137c0.203-0.091,0.375-0.215,0.514-0.373
		c0.139-0.157,0.245-0.337,0.318-0.542c0.072-0.204,0.109-0.419,0.109-0.646v-0.383H385.922z"/>
	<path fill="#FFFFFF" d="M390.165,89.885c0.304-0.187,0.641-0.279,1.013-0.279c0.139,0,0.283,0.015,0.434,0.044
		c0.148,0.029,0.295,0.085,0.438,0.169s0.273,0.195,0.395,0.334c0.12,0.139,0.225,0.318,0.312,0.537
		c0.175-0.351,0.415-0.619,0.718-0.805c0.303-0.187,0.662-0.279,1.078-0.279c0.65,0,1.137,0.193,1.463,0.58
		c0.324,0.387,0.486,0.898,0.486,1.533v3.143h-0.744v-2.836c0-0.54-0.101-0.975-0.301-1.303c-0.201-0.328-0.543-0.493-1.024-0.493
		c-0.271,0-0.499,0.055-0.685,0.165c-0.186,0.109-0.336,0.253-0.449,0.433c-0.113,0.179-0.195,0.381-0.246,0.607
		c-0.051,0.227-0.076,0.46-0.076,0.701v2.727h-0.745v-2.99c0-0.248-0.019-0.474-0.055-0.679s-0.101-0.378-0.192-0.52
		c-0.091-0.143-0.217-0.252-0.377-0.329s-0.365-0.115-0.613-0.115c-0.176,0-0.353,0.041-0.531,0.121
		c-0.18,0.081-0.34,0.203-0.482,0.367c-0.142,0.165-0.257,0.373-0.344,0.625c-0.088,0.251-0.132,0.549-0.132,0.892v2.628h-0.745
		v-3.997c0-0.139-0.004-0.317-0.011-0.537c-0.007-0.219-0.019-0.416-0.032-0.591h0.711c0.015,0.139,0.025,0.292,0.033,0.46
		s0.011,0.307,0.011,0.416h0.022C389.638,90.313,389.862,90.071,390.165,89.885z"/>
	<path fill="#FFFFFF" d="M400.861,92.86c0,0.269,0.022,0.535,0.068,0.799c0.047,0.264,0.111,0.519,0.191,0.765
		c0.082,0.246,0.178,0.479,0.289,0.702c0.111,0.222,0.234,0.426,0.368,0.612l-0.361,0.229c-0.148-0.194-0.284-0.409-0.407-0.643
		c-0.122-0.234-0.229-0.484-0.319-0.751c-0.091-0.266-0.161-0.543-0.212-0.831c-0.051-0.287-0.076-0.582-0.076-0.883
		c0-0.296,0.025-0.589,0.076-0.879c0.051-0.29,0.121-0.567,0.212-0.834c0.091-0.266,0.197-0.517,0.319-0.75
		c0.123-0.234,0.259-0.448,0.407-0.643l0.361,0.229c-0.134,0.185-0.257,0.389-0.368,0.611c-0.111,0.223-0.207,0.457-0.289,0.702
		c-0.08,0.246-0.145,0.5-0.191,0.765C400.884,92.325,400.861,92.591,400.861,92.86z"/>
	<path fill="#FFFFFF" d="M403.418,94.417h2.635v0.445h-3.135V89.94h3.051v0.445h-2.551v1.689h2.385v0.445h-2.385V94.417z"/>
	<path fill="#FFFFFF" d="M407.77,93.18l-1.203-1.571h0.605l0.89,1.237l0.89-1.237h0.57l-1.182,1.55l1.293,1.703h-0.612l-0.966-1.355
		l-0.994,1.355h-0.57L407.77,93.18z"/>
	<path fill="#FFFFFF" d="M413.289,93.138c0,0.032,0,0.067,0,0.104s-0.002,0.077-0.008,0.118h-2.696
		c0.005,0.162,0.037,0.315,0.097,0.459c0.061,0.144,0.145,0.269,0.251,0.375c0.106,0.107,0.231,0.191,0.375,0.254
		s0.3,0.094,0.466,0.094c0.246,0,0.457-0.057,0.637-0.17c0.178-0.113,0.313-0.244,0.406-0.393l0.354,0.278
		c-0.193,0.246-0.408,0.421-0.643,0.528c-0.234,0.107-0.485,0.16-0.754,0.16c-0.24,0-0.465-0.043-0.671-0.129
		c-0.206-0.085-0.384-0.205-0.532-0.358c-0.147-0.153-0.265-0.333-0.35-0.542c-0.086-0.208-0.129-0.436-0.129-0.681
		s0.041-0.473,0.125-0.681c0.083-0.208,0.199-0.389,0.348-0.542c0.148-0.153,0.322-0.272,0.521-0.358
		c0.199-0.085,0.414-0.128,0.646-0.128c0.254,0,0.479,0.043,0.674,0.128c0.194,0.086,0.356,0.202,0.486,0.348
		s0.229,0.316,0.295,0.511C413.256,92.707,413.289,92.916,413.289,93.138z M412.809,92.985c-0.014-0.306-0.111-0.56-0.295-0.761
		c-0.184-0.202-0.443-0.303-0.781-0.303c-0.158,0-0.305,0.029-0.438,0.087c-0.134,0.058-0.253,0.137-0.354,0.236
		c-0.102,0.1-0.184,0.213-0.243,0.341c-0.061,0.127-0.095,0.261-0.104,0.399H412.809z"/>
	<path fill="#FFFFFF" d="M416.646,92.353c-0.08-0.125-0.194-0.228-0.345-0.309c-0.151-0.081-0.313-0.122-0.49-0.122
		c-0.19,0-0.361,0.034-0.515,0.101c-0.152,0.067-0.283,0.16-0.393,0.278s-0.191,0.257-0.25,0.417
		c-0.059,0.16-0.087,0.333-0.087,0.518s0.028,0.357,0.087,0.514c0.059,0.158,0.141,0.295,0.246,0.414
		c0.107,0.118,0.236,0.211,0.391,0.278c0.152,0.067,0.324,0.101,0.514,0.101c0.209,0,0.385-0.039,0.528-0.118
		c0.144-0.079,0.262-0.181,0.354-0.306l0.354,0.264c-0.14,0.171-0.31,0.308-0.511,0.41c-0.201,0.102-0.443,0.153-0.727,0.153
		c-0.264,0-0.503-0.043-0.716-0.129c-0.214-0.085-0.396-0.205-0.546-0.358c-0.15-0.153-0.268-0.333-0.352-0.542
		c-0.082-0.208-0.125-0.436-0.125-0.681s0.043-0.473,0.125-0.681c0.084-0.208,0.201-0.389,0.352-0.542
		c0.15-0.153,0.332-0.272,0.546-0.358c0.213-0.085,0.452-0.128,0.716-0.128c0.218,0,0.439,0.047,0.664,0.143
		c0.225,0.095,0.406,0.235,0.545,0.42L416.646,92.353z"/>
	<path fill="#FFFFFF" d="M420.143,94.862c-0.01-0.088-0.017-0.185-0.021-0.292c-0.004-0.106-0.007-0.194-0.007-0.264h-0.014
		c-0.093,0.19-0.243,0.344-0.452,0.462s-0.428,0.177-0.66,0.177c-0.412,0-0.722-0.123-0.928-0.369
		c-0.207-0.246-0.31-0.57-0.31-0.973v-1.995h0.473v1.8c0,0.171,0.015,0.327,0.042,0.466c0.027,0.139,0.075,0.258,0.143,0.358
		c0.066,0.1,0.157,0.177,0.271,0.233c0.113,0.055,0.256,0.083,0.427,0.083c0.125,0,0.247-0.025,0.365-0.076
		c0.118-0.051,0.224-0.129,0.315-0.233c0.094-0.104,0.168-0.236,0.223-0.396c0.057-0.16,0.084-0.349,0.084-0.567v-1.668h0.473v2.537
		c0,0.088,0.002,0.202,0.007,0.34c0.005,0.139,0.011,0.264,0.021,0.375H420.143z"/>
	<path fill="#FFFFFF" d="M423.284,92.005h-0.917v1.898c0,0.12,0.011,0.22,0.034,0.299c0.022,0.079,0.057,0.14,0.101,0.184
		s0.096,0.074,0.156,0.09s0.125,0.024,0.195,0.024c0.064,0,0.133-0.009,0.205-0.028c0.071-0.019,0.14-0.044,0.205-0.077l0.021,0.41
		c-0.083,0.033-0.171,0.057-0.261,0.073c-0.09,0.016-0.189,0.024-0.295,0.024c-0.088,0-0.182-0.011-0.278-0.035
		c-0.098-0.023-0.188-0.067-0.271-0.132s-0.151-0.153-0.205-0.264s-0.079-0.257-0.079-0.438v-2.03h-0.675v-0.396h0.675v-0.917h0.473
		v0.917h0.917V92.005z"/>
	<path fill="#FFFFFF" d="M424.598,90.357c0,0.098-0.035,0.177-0.104,0.24c-0.069,0.062-0.146,0.094-0.229,0.094
		c-0.083,0-0.16-0.031-0.229-0.094c-0.07-0.063-0.105-0.143-0.105-0.24c0-0.097,0.035-0.177,0.105-0.24
		c0.068-0.062,0.146-0.094,0.229-0.094c0.084,0,0.16,0.031,0.229,0.094S424.598,90.26,424.598,90.357z M424.5,94.862h-0.473v-3.253
		h0.473V94.862z"/>
	<path fill="#FFFFFF" d="M427.093,94.862h-0.521l-1.328-3.253h0.528l1.056,2.752h0.015l1.063-2.752h0.508L427.093,94.862z"/>
	<path fill="#FFFFFF" d="M432.111,93.138c0,0.032,0,0.067,0,0.104s-0.002,0.077-0.007,0.118h-2.696
		c0.004,0.162,0.037,0.315,0.097,0.459s0.144,0.269,0.251,0.375c0.105,0.107,0.23,0.191,0.375,0.254
		c0.143,0.062,0.299,0.094,0.465,0.094c0.246,0,0.458-0.057,0.637-0.17c0.178-0.113,0.314-0.244,0.406-0.393l0.354,0.278
		c-0.194,0.246-0.409,0.421-0.643,0.528c-0.234,0.107-0.485,0.16-0.755,0.16c-0.24,0-0.464-0.043-0.67-0.129
		c-0.207-0.085-0.384-0.205-0.532-0.358c-0.147-0.153-0.265-0.333-0.351-0.542s-0.129-0.436-0.129-0.681s0.042-0.473,0.125-0.681
		c0.084-0.208,0.199-0.389,0.348-0.542c0.148-0.153,0.322-0.272,0.521-0.358c0.199-0.085,0.414-0.128,0.646-0.128
		c0.255,0,0.479,0.043,0.674,0.128c0.195,0.086,0.357,0.202,0.486,0.348c0.131,0.146,0.229,0.316,0.296,0.511
		C432.078,92.707,432.111,92.916,432.111,93.138z M431.632,92.985c-0.014-0.306-0.112-0.56-0.296-0.761
		c-0.183-0.202-0.443-0.303-0.781-0.303c-0.158,0-0.304,0.029-0.438,0.087c-0.135,0.058-0.253,0.137-0.355,0.236
		c-0.102,0.1-0.183,0.213-0.242,0.341c-0.061,0.127-0.096,0.261-0.105,0.399H431.632z"/>
	<path fill="#FFFFFF" d="M433.209,95.835h-0.396l0.466-1.633h0.493L433.209,95.835z"/>
	<path fill="#FFFFFF" d="M438.514,92.756c0-0.28-0.074-0.49-0.223-0.628c-0.148-0.138-0.364-0.207-0.646-0.207
		c-0.195,0-0.376,0.035-0.543,0.104c-0.166,0.069-0.308,0.162-0.424,0.278l-0.264-0.312c0.135-0.134,0.312-0.246,0.531-0.334
		c0.221-0.088,0.469-0.132,0.748-0.132c0.176,0,0.34,0.024,0.493,0.073c0.153,0.049,0.287,0.122,0.403,0.219
		c0.115,0.097,0.205,0.22,0.271,0.368c0.065,0.148,0.098,0.322,0.098,0.521v1.425c0,0.125,0.005,0.255,0.014,0.389
		c0.009,0.135,0.023,0.248,0.042,0.341h-0.424c-0.014-0.079-0.025-0.165-0.035-0.257c-0.01-0.092-0.014-0.183-0.014-0.271h-0.014
		c-0.148,0.218-0.316,0.375-0.504,0.469s-0.414,0.143-0.678,0.143c-0.125,0-0.254-0.018-0.387-0.052
		c-0.131-0.035-0.252-0.092-0.361-0.171c-0.108-0.079-0.199-0.181-0.271-0.307c-0.072-0.125-0.108-0.279-0.108-0.46
		c0-0.251,0.064-0.45,0.191-0.596c0.127-0.146,0.298-0.256,0.512-0.328c0.213-0.072,0.457-0.119,0.732-0.14
		c0.275-0.021,0.562-0.031,0.859-0.031V92.756z M438.374,93.235c-0.194,0-0.391,0.008-0.587,0.024
		c-0.197,0.016-0.376,0.048-0.535,0.097c-0.16,0.049-0.291,0.119-0.393,0.212c-0.103,0.093-0.154,0.216-0.154,0.369
		c0,0.116,0.022,0.213,0.066,0.292c0.045,0.079,0.104,0.142,0.178,0.191s0.156,0.083,0.246,0.104
		c0.091,0.021,0.182,0.031,0.275,0.031c0.166,0,0.314-0.029,0.444-0.087c0.13-0.058,0.239-0.137,0.327-0.236
		s0.154-0.214,0.201-0.344s0.07-0.267,0.07-0.41v-0.243H438.374z"/>
	<path fill="#FFFFFF" d="M442.851,94.312c-0.14,0.208-0.319,0.366-0.542,0.473c-0.223,0.107-0.452,0.16-0.688,0.16
		c-0.255,0-0.485-0.044-0.691-0.132c-0.206-0.088-0.382-0.208-0.528-0.361s-0.26-0.333-0.341-0.542s-0.122-0.434-0.122-0.674
		s0.041-0.466,0.122-0.674s0.194-0.389,0.341-0.542s0.322-0.273,0.528-0.362c0.206-0.088,0.437-0.132,0.691-0.132
		c0.236,0,0.466,0.055,0.688,0.164s0.402,0.27,0.542,0.483h0.014v-2.565h0.473v5.255h-0.473v-0.549H442.851z M440.438,93.235
		c0,0.181,0.028,0.351,0.083,0.511c0.057,0.16,0.137,0.299,0.24,0.417c0.104,0.118,0.232,0.211,0.386,0.278
		c0.153,0.067,0.327,0.101,0.521,0.101c0.181,0,0.348-0.034,0.501-0.101c0.152-0.067,0.284-0.159,0.396-0.275
		c0.111-0.116,0.198-0.253,0.261-0.414c0.062-0.16,0.094-0.332,0.094-0.518s-0.031-0.358-0.094-0.518
		c-0.062-0.16-0.149-0.299-0.261-0.417s-0.243-0.21-0.396-0.278c-0.153-0.067-0.32-0.101-0.501-0.101
		c-0.194,0-0.368,0.035-0.521,0.104s-0.281,0.163-0.386,0.281c-0.104,0.118-0.184,0.257-0.24,0.417
		C440.467,92.884,440.438,93.055,440.438,93.235z"/>
	<path fill="#FFFFFF" d="M445.937,94.862h-0.521l-1.328-3.253h0.528l1.056,2.752h0.015l1.063-2.752h0.508L445.937,94.862z"/>
	<path fill="#FFFFFF" d="M448.57,90.357c0,0.098-0.034,0.177-0.104,0.24c-0.07,0.062-0.146,0.094-0.23,0.094
		c-0.082,0-0.159-0.031-0.229-0.094c-0.07-0.063-0.104-0.143-0.104-0.24c0-0.097,0.034-0.177,0.104-0.24
		c0.069-0.062,0.146-0.094,0.229-0.094c0.084,0,0.16,0.031,0.23,0.094C448.536,90.18,448.57,90.26,448.57,90.357z M448.473,94.862
		H448v-3.253h0.473V94.862z"/>
	<path fill="#FFFFFF" d="M451.463,92.38c-0.07-0.134-0.176-0.245-0.316-0.33c-0.143-0.086-0.303-0.129-0.483-0.129
		c-0.083,0-0.167,0.01-0.251,0.028c-0.083,0.019-0.156,0.049-0.222,0.09c-0.065,0.042-0.117,0.095-0.157,0.16
		c-0.039,0.065-0.059,0.141-0.059,0.229c0,0.153,0.062,0.27,0.188,0.351c0.125,0.082,0.322,0.15,0.592,0.205
		c0.384,0.079,0.668,0.194,0.852,0.344c0.182,0.151,0.273,0.354,0.273,0.608c0,0.185-0.035,0.342-0.107,0.469
		s-0.166,0.231-0.281,0.312c-0.116,0.081-0.247,0.139-0.393,0.174c-0.146,0.035-0.293,0.052-0.441,0.052
		c-0.246,0-0.484-0.051-0.717-0.153c-0.23-0.102-0.421-0.262-0.569-0.48l0.376-0.278c0.082,0.144,0.205,0.264,0.367,0.361
		c0.162,0.098,0.342,0.146,0.535,0.146c0.103,0,0.199-0.009,0.293-0.028c0.092-0.019,0.174-0.051,0.242-0.097
		c0.07-0.046,0.126-0.105,0.168-0.177c0.041-0.072,0.062-0.161,0.062-0.268c0-0.171-0.082-0.3-0.247-0.386s-0.402-0.166-0.712-0.24
		c-0.098-0.023-0.201-0.052-0.311-0.087c-0.108-0.035-0.209-0.086-0.302-0.153c-0.093-0.067-0.169-0.152-0.229-0.254
		s-0.09-0.229-0.09-0.382c0-0.167,0.031-0.309,0.097-0.427s0.151-0.216,0.261-0.292c0.109-0.077,0.232-0.133,0.372-0.17
		s0.282-0.056,0.431-0.056c0.227,0,0.447,0.051,0.66,0.153c0.213,0.102,0.373,0.246,0.48,0.431L451.463,92.38z"/>
	<path fill="#FFFFFF" d="M456.051,93.235c0,0.246-0.043,0.473-0.129,0.681s-0.205,0.389-0.358,0.542
		c-0.153,0.153-0.336,0.272-0.549,0.358c-0.214,0.086-0.447,0.129-0.702,0.129c-0.25,0-0.482-0.043-0.695-0.129
		c-0.213-0.085-0.396-0.205-0.549-0.358c-0.153-0.153-0.272-0.333-0.357-0.542c-0.086-0.208-0.129-0.436-0.129-0.681
		s0.043-0.473,0.129-0.681c0.085-0.208,0.204-0.389,0.357-0.542c0.152-0.153,0.336-0.272,0.549-0.358
		c0.213-0.085,0.445-0.128,0.695-0.128c0.255,0,0.488,0.043,0.702,0.128c0.213,0.086,0.396,0.205,0.549,0.358
		c0.153,0.153,0.272,0.334,0.358,0.542S456.051,92.99,456.051,93.235z M455.55,93.235c0-0.181-0.029-0.351-0.087-0.511
		c-0.059-0.16-0.141-0.299-0.247-0.417s-0.236-0.212-0.39-0.281c-0.152-0.069-0.324-0.104-0.514-0.104s-0.36,0.035-0.512,0.104
		c-0.15,0.069-0.278,0.163-0.385,0.281c-0.107,0.118-0.189,0.257-0.247,0.417c-0.058,0.16-0.087,0.33-0.087,0.511
		s0.029,0.351,0.087,0.511c0.058,0.16,0.14,0.299,0.247,0.417c0.106,0.118,0.234,0.211,0.385,0.278
		c0.151,0.067,0.322,0.101,0.512,0.101s0.361-0.034,0.514-0.101c0.153-0.067,0.283-0.16,0.39-0.278s0.188-0.257,0.247-0.417
		C455.521,93.586,455.55,93.416,455.55,93.235z"/>
	<path fill="#FFFFFF" d="M457.058,91.984c-0.005-0.139-0.012-0.264-0.021-0.375h0.451c0.01,0.088,0.017,0.186,0.021,0.292
		c0.004,0.106,0.006,0.194,0.006,0.264h0.015c0.093-0.19,0.231-0.344,0.417-0.462s0.395-0.177,0.625-0.177
		c0.061,0,0.115,0.002,0.164,0.007c0.049,0.005,0.098,0.014,0.149,0.028l-0.062,0.452c-0.028-0.009-0.074-0.018-0.14-0.027
		c-0.064-0.009-0.129-0.014-0.194-0.014c-0.125,0-0.245,0.023-0.361,0.069s-0.217,0.119-0.302,0.219
		c-0.086,0.099-0.156,0.226-0.209,0.381c-0.053,0.155-0.08,0.341-0.08,0.559v1.664h-0.473v-2.537
		C457.064,92.237,457.062,92.123,457.058,91.984z"/>
	<path fill="#FFFFFF" d="M461.298,92.38c-0.069-0.134-0.175-0.245-0.316-0.33c-0.142-0.086-0.302-0.129-0.483-0.129
		c-0.083,0-0.166,0.01-0.25,0.028c-0.084,0.019-0.157,0.049-0.223,0.09c-0.064,0.042-0.117,0.095-0.156,0.16
		s-0.059,0.141-0.059,0.229c0,0.153,0.062,0.27,0.188,0.351c0.125,0.082,0.322,0.15,0.591,0.205
		c0.384,0.079,0.669,0.194,0.852,0.344c0.183,0.151,0.274,0.354,0.274,0.608c0,0.185-0.036,0.342-0.107,0.469
		c-0.072,0.127-0.166,0.231-0.281,0.312c-0.117,0.081-0.248,0.139-0.394,0.174s-0.293,0.052-0.441,0.052
		c-0.245,0-0.483-0.051-0.716-0.153c-0.231-0.102-0.422-0.262-0.57-0.48l0.376-0.278c0.083,0.144,0.206,0.264,0.368,0.361
		c0.162,0.098,0.341,0.146,0.535,0.146c0.102,0,0.199-0.009,0.292-0.028s0.174-0.051,0.243-0.097
		c0.07-0.046,0.125-0.105,0.167-0.177s0.062-0.161,0.062-0.268c0-0.171-0.082-0.3-0.247-0.386c-0.164-0.086-0.402-0.166-0.712-0.24
		c-0.098-0.023-0.2-0.052-0.31-0.087s-0.209-0.086-0.303-0.153c-0.092-0.067-0.169-0.152-0.229-0.254
		c-0.061-0.102-0.091-0.229-0.091-0.382c0-0.167,0.032-0.309,0.097-0.427c0.065-0.118,0.152-0.216,0.262-0.292
		c0.108-0.077,0.232-0.133,0.371-0.17c0.14-0.037,0.283-0.056,0.432-0.056c0.227,0,0.447,0.051,0.66,0.153
		c0.213,0.102,0.373,0.246,0.479,0.431L461.298,92.38z"/>
	<path fill="#FFFFFF" d="M462.736,95.835h-0.396l0.466-1.633h0.493L462.736,95.835z"/>
	<path fill="#FFFFFF" d="M466.477,94.312v0.549h-0.473v-5.255h0.473v2.565h0.014c0.139-0.213,0.319-0.374,0.541-0.483
		c0.223-0.109,0.453-0.164,0.689-0.164c0.254,0,0.484,0.044,0.691,0.132c0.205,0.088,0.382,0.209,0.527,0.362
		c0.146,0.153,0.26,0.333,0.342,0.542c0.08,0.208,0.121,0.434,0.121,0.674s-0.041,0.466-0.121,0.674
		c-0.082,0.208-0.195,0.389-0.342,0.542c-0.146,0.153-0.322,0.273-0.527,0.361c-0.207,0.088-0.438,0.132-0.691,0.132
		c-0.236,0-0.467-0.053-0.689-0.16c-0.222-0.106-0.402-0.264-0.541-0.473H466.477z M468.902,93.235c0-0.181-0.028-0.351-0.084-0.511
		c-0.056-0.16-0.136-0.299-0.24-0.417c-0.104-0.118-0.232-0.212-0.385-0.281c-0.153-0.069-0.327-0.104-0.521-0.104
		c-0.182,0-0.348,0.034-0.501,0.101s-0.284,0.16-0.396,0.278s-0.199,0.257-0.262,0.417c-0.062,0.16-0.094,0.333-0.094,0.518
		s0.031,0.358,0.094,0.518c0.062,0.16,0.15,0.298,0.262,0.414c0.111,0.116,0.242,0.208,0.396,0.275
		c0.153,0.067,0.319,0.101,0.501,0.101c0.194,0,0.368-0.034,0.521-0.101c0.152-0.067,0.281-0.16,0.385-0.278
		c0.104-0.118,0.185-0.257,0.24-0.417C468.874,93.586,468.902,93.416,468.902,93.235z"/>
	<path fill="#FFFFFF" d="M473.649,93.235c0,0.246-0.043,0.473-0.129,0.681c-0.085,0.208-0.205,0.389-0.358,0.542
		c-0.152,0.153-0.336,0.272-0.549,0.358c-0.213,0.086-0.447,0.129-0.701,0.129c-0.251,0-0.482-0.043-0.695-0.129
		c-0.213-0.085-0.396-0.205-0.549-0.358c-0.154-0.153-0.273-0.333-0.358-0.542c-0.086-0.208-0.129-0.436-0.129-0.681
		s0.043-0.473,0.129-0.681c0.085-0.208,0.204-0.389,0.358-0.542c0.152-0.153,0.336-0.272,0.549-0.358
		c0.213-0.085,0.444-0.128,0.695-0.128c0.254,0,0.488,0.043,0.701,0.128c0.213,0.086,0.396,0.205,0.549,0.358
		c0.153,0.153,0.273,0.334,0.358,0.542C473.606,92.763,473.649,92.99,473.649,93.235z M473.148,93.235
		c0-0.181-0.029-0.351-0.086-0.511c-0.059-0.16-0.141-0.299-0.248-0.417c-0.105-0.118-0.236-0.212-0.389-0.281
		s-0.324-0.104-0.514-0.104c-0.19,0-0.361,0.035-0.512,0.104s-0.279,0.163-0.386,0.281s-0.188,0.257-0.247,0.417
		c-0.058,0.16-0.086,0.33-0.086,0.511s0.028,0.351,0.086,0.511c0.059,0.16,0.141,0.299,0.247,0.417s0.235,0.211,0.386,0.278
		c0.15,0.067,0.321,0.101,0.512,0.101c0.189,0,0.361-0.034,0.514-0.101c0.152-0.067,0.283-0.16,0.389-0.278
		c0.107-0.118,0.189-0.257,0.248-0.417C473.119,93.586,473.148,93.416,473.148,93.235z"/>
	<path fill="#FFFFFF" d="M477.027,94.862c-0.01-0.088-0.016-0.185-0.021-0.292c-0.005-0.106-0.007-0.194-0.007-0.264h-0.014
		c-0.094,0.19-0.244,0.344-0.452,0.462c-0.209,0.118-0.429,0.177-0.661,0.177c-0.412,0-0.721-0.123-0.928-0.369
		c-0.206-0.246-0.309-0.57-0.309-0.973v-1.995h0.473v1.8c0,0.171,0.014,0.327,0.041,0.466c0.028,0.139,0.076,0.258,0.143,0.358
		c0.067,0.1,0.158,0.177,0.271,0.233c0.113,0.055,0.256,0.083,0.428,0.083c0.125,0,0.246-0.025,0.365-0.076
		c0.117-0.051,0.223-0.129,0.315-0.233c0.093-0.104,0.167-0.236,0.223-0.396c0.056-0.16,0.083-0.349,0.083-0.567v-1.668h0.473v2.537
		c0,0.088,0.002,0.202,0.008,0.34c0.004,0.139,0.011,0.264,0.021,0.375H477.027z"/>
	<path fill="#FFFFFF" d="M479.127,91.609c0.008,0.088,0.016,0.186,0.02,0.292c0.006,0.106,0.008,0.194,0.008,0.264h0.014
		c0.093-0.19,0.243-0.344,0.451-0.462c0.209-0.118,0.43-0.177,0.661-0.177c0.412,0,0.722,0.123,0.928,0.368
		c0.206,0.246,0.31,0.57,0.31,0.973v1.995h-0.473v-1.8c0-0.171-0.014-0.327-0.042-0.466c-0.028-0.139-0.075-0.258-0.143-0.358
		s-0.157-0.177-0.271-0.233c-0.114-0.056-0.256-0.083-0.428-0.083c-0.125,0-0.247,0.026-0.365,0.077
		c-0.118,0.051-0.224,0.128-0.316,0.233c-0.092,0.104-0.166,0.236-0.223,0.396c-0.055,0.16-0.083,0.349-0.083,0.567v1.668h-0.473
		v-2.537c0-0.088-0.003-0.202-0.007-0.34c-0.005-0.139-0.012-0.264-0.021-0.375H479.127z"/>
	<path fill="#FFFFFF" d="M484.207,92.005h-0.917v1.898c0,0.12,0.011,0.22,0.034,0.299c0.023,0.079,0.057,0.14,0.102,0.184
		c0.043,0.044,0.096,0.074,0.156,0.09s0.125,0.024,0.194,0.024c0.065,0,0.134-0.009,0.205-0.028s0.14-0.044,0.205-0.077l0.021,0.41
		c-0.083,0.033-0.17,0.057-0.26,0.073c-0.091,0.016-0.189,0.024-0.296,0.024c-0.088,0-0.181-0.011-0.278-0.035
		c-0.098-0.023-0.188-0.067-0.271-0.132c-0.082-0.065-0.151-0.153-0.205-0.264c-0.053-0.111-0.079-0.257-0.079-0.438v-2.03h-0.675
		v-0.396h0.675v-0.917h0.473v0.917h0.917V92.005z"/>
	<path fill="#FFFFFF" d="M486.062,94.354h0.015l1.008-2.746h0.515l-1.62,4.094c-0.097,0.25-0.222,0.451-0.372,0.602
		c-0.15,0.15-0.367,0.226-0.649,0.226c-0.144,0-0.285-0.014-0.425-0.042l0.049-0.431c0.111,0.037,0.228,0.056,0.348,0.056
		c0.162,0,0.29-0.05,0.383-0.149c0.092-0.1,0.174-0.242,0.243-0.427l0.265-0.681l-1.391-3.246h0.528L486.062,94.354z"/>
	<path fill="#FFFFFF" d="M489.115,92.86c0-0.269-0.023-0.535-0.07-0.799s-0.109-0.519-0.191-0.765
		c-0.08-0.246-0.178-0.479-0.291-0.702c-0.114-0.222-0.236-0.426-0.365-0.611l0.361-0.229c0.144,0.195,0.277,0.409,0.402,0.643
		c0.126,0.234,0.233,0.484,0.324,0.75c0.09,0.267,0.16,0.544,0.211,0.834c0.052,0.29,0.077,0.583,0.077,0.879
		c0,0.301-0.025,0.596-0.077,0.883c-0.051,0.288-0.121,0.564-0.211,0.831c-0.091,0.267-0.198,0.517-0.324,0.751
		c-0.125,0.234-0.259,0.448-0.402,0.643l-0.361-0.229c0.129-0.186,0.251-0.39,0.365-0.612c0.113-0.223,0.211-0.457,0.291-0.702
		c0.082-0.246,0.145-0.5,0.191-0.765S489.115,93.129,489.115,92.86z"/>
</g>
<polygon fill="#ED1C24" points="595.28,145.936 305.062,145.936 295.439,162.836 595.28,162.836 "/>
<g>
	<path fill="#FFFFFF" d="M310.655,158.269v-6.24l-1.584,1.224l-1.044-1.428l2.795-2.052h1.837v8.496H310.655z"/>
	<path fill="#FFFFFF" d="M322.211,153.997c0,0.6-0.06,1.172-0.18,1.716c-0.12,0.544-0.312,1.022-0.576,1.434
		s-0.605,0.74-1.025,0.984c-0.42,0.244-0.931,0.366-1.53,0.366c-0.601,0-1.112-0.122-1.536-0.366
		c-0.424-0.244-0.77-0.572-1.038-0.984s-0.462-0.89-0.582-1.434c-0.12-0.544-0.181-1.116-0.181-1.716s0.061-1.17,0.181-1.71
		s0.313-1.012,0.582-1.416s0.614-0.726,1.038-0.966c0.424-0.24,0.936-0.36,1.536-0.36c0.6,0,1.11,0.12,1.53,0.36
		c0.42,0.24,0.762,0.562,1.025,0.966s0.456,0.876,0.576,1.416S322.211,153.396,322.211,153.997z M320.147,153.997
		c0-0.264-0.017-0.556-0.048-0.876c-0.032-0.32-0.092-0.618-0.18-0.894c-0.089-0.276-0.215-0.508-0.379-0.696
		s-0.378-0.282-0.642-0.282c-0.265,0-0.479,0.094-0.647,0.282c-0.169,0.188-0.299,0.42-0.391,0.696s-0.154,0.574-0.186,0.894
		c-0.033,0.32-0.049,0.612-0.049,0.876c0,0.272,0.016,0.57,0.049,0.894c0.031,0.324,0.094,0.624,0.186,0.9s0.222,0.508,0.391,0.696
		c0.168,0.188,0.383,0.282,0.647,0.282c0.264,0,0.478-0.094,0.642-0.282c0.164-0.188,0.29-0.42,0.379-0.696
		c0.088-0.276,0.147-0.576,0.18-0.9C320.131,154.566,320.147,154.269,320.147,153.997z"/>
	<path fill="#FFFFFF" d="M327.672,151.896c0,0.312-0.061,0.606-0.181,0.882c-0.12,0.276-0.282,0.516-0.485,0.72
		c-0.205,0.204-0.447,0.366-0.727,0.486c-0.28,0.12-0.576,0.18-0.889,0.18c-0.312,0-0.607-0.06-0.887-0.18
		c-0.281-0.12-0.523-0.282-0.727-0.486c-0.204-0.204-0.366-0.444-0.486-0.72c-0.119-0.276-0.18-0.57-0.18-0.882
		c0-0.32,0.061-0.618,0.18-0.894c0.12-0.276,0.282-0.516,0.486-0.72c0.203-0.204,0.445-0.364,0.727-0.48
		c0.279-0.116,0.575-0.174,0.887-0.174c0.312,0,0.608,0.058,0.889,0.174c0.279,0.116,0.521,0.276,0.727,0.48
		c0.203,0.204,0.365,0.444,0.485,0.72S327.672,151.577,327.672,151.896z M326.327,151.896c0-0.256-0.092-0.476-0.276-0.66
		c-0.184-0.184-0.404-0.276-0.66-0.276s-0.476,0.092-0.66,0.276c-0.184,0.185-0.275,0.404-0.275,0.66
		c0,0.256,0.092,0.474,0.275,0.654c0.185,0.18,0.404,0.27,0.66,0.27s0.477-0.09,0.66-0.27
		C326.235,152.371,326.327,152.153,326.327,151.896z M326.314,158.677l-1.067-0.528l4.956-8.76l1.116,0.54L326.314,158.677z
		 M333.432,156.145c0,0.312-0.061,0.606-0.181,0.882c-0.12,0.276-0.282,0.516-0.485,0.72c-0.205,0.204-0.446,0.366-0.727,0.486
		c-0.279,0.12-0.576,0.18-0.888,0.18s-0.608-0.06-0.888-0.18c-0.281-0.12-0.522-0.282-0.727-0.486s-0.365-0.444-0.486-0.72
		c-0.119-0.276-0.18-0.57-0.18-0.882s0.061-0.606,0.18-0.882c0.121-0.276,0.282-0.516,0.486-0.72s0.445-0.366,0.727-0.486
		c0.279-0.12,0.576-0.18,0.888-0.18s0.608,0.06,0.888,0.18c0.28,0.12,0.521,0.282,0.727,0.486c0.203,0.204,0.365,0.444,0.485,0.72
		C333.371,155.539,333.432,155.833,333.432,156.145z M332.088,156.145c0-0.128-0.027-0.25-0.078-0.366
		c-0.053-0.116-0.121-0.216-0.205-0.3s-0.182-0.15-0.293-0.198c-0.113-0.048-0.232-0.072-0.36-0.072
		c-0.257,0-0.476,0.092-0.66,0.276c-0.185,0.184-0.276,0.404-0.276,0.66c0,0.256,0.092,0.474,0.276,0.654
		c0.185,0.18,0.403,0.27,0.66,0.27c0.128,0,0.247-0.024,0.36-0.072c0.111-0.048,0.209-0.114,0.293-0.198s0.152-0.182,0.205-0.294
		C332.061,156.393,332.088,156.272,332.088,156.145z"/>
</g>
<g>
	<path fill="#FFFFFF" d="M340.234,158.364h-0.789v-7.753h2.278c0.38,0,0.731,0.037,1.057,0.11c0.325,0.073,0.606,0.191,0.843,0.356
		c0.238,0.164,0.422,0.377,0.554,0.641c0.132,0.263,0.197,0.584,0.197,0.963c0,0.285-0.052,0.544-0.153,0.778
		c-0.103,0.233-0.241,0.436-0.416,0.607c-0.176,0.172-0.384,0.309-0.625,0.411c-0.24,0.103-0.504,0.168-0.788,0.197l2.267,3.69
		h-0.963l-2.146-3.625h-1.314V158.364z M340.234,154.06h1.369c0.635,0,1.124-0.115,1.467-0.345c0.344-0.23,0.516-0.575,0.516-1.035
		c0-0.255-0.049-0.471-0.143-0.646c-0.096-0.175-0.227-0.317-0.395-0.427c-0.168-0.109-0.373-0.189-0.613-0.241
		c-0.241-0.051-0.508-0.077-0.799-0.077h-1.402V154.06z"/>
	<path fill="#FFFFFF" d="M350.496,155.648c0,0.051,0,0.106,0,0.164c0,0.059-0.004,0.121-0.012,0.187h-4.249
		c0.007,0.255,0.059,0.497,0.153,0.723c0.095,0.227,0.227,0.423,0.395,0.591s0.365,0.301,0.592,0.4
		c0.226,0.098,0.471,0.147,0.732,0.147c0.388,0,0.722-0.089,1.002-0.268c0.281-0.179,0.495-0.385,0.641-0.619l0.559,0.438
		c-0.307,0.387-0.644,0.665-1.012,0.832c-0.369,0.168-0.766,0.252-1.189,0.252c-0.379,0-0.731-0.067-1.057-0.203
		c-0.324-0.135-0.604-0.323-0.838-0.564c-0.232-0.241-0.418-0.525-0.553-0.854s-0.202-0.686-0.202-1.073
		c0-0.387,0.065-0.745,0.197-1.073s0.313-0.613,0.548-0.854c0.232-0.241,0.507-0.429,0.82-0.564c0.314-0.135,0.654-0.203,1.02-0.203
		c0.4,0,0.755,0.067,1.062,0.203s0.562,0.317,0.767,0.547s0.359,0.499,0.465,0.805C350.442,154.969,350.496,155.297,350.496,155.648
		z M349.74,155.407c-0.022-0.482-0.178-0.882-0.466-1.199c-0.288-0.318-0.699-0.477-1.231-0.477c-0.249,0-0.479,0.046-0.69,0.137
		s-0.397,0.215-0.559,0.372c-0.161,0.157-0.288,0.336-0.384,0.537c-0.094,0.201-0.149,0.411-0.164,0.63H349.74z"/>
	<path fill="#FFFFFF" d="M354.82,154.454c-0.109-0.211-0.275-0.385-0.498-0.52c-0.223-0.135-0.477-0.203-0.761-0.203
		c-0.132,0-0.263,0.015-0.395,0.044s-0.248,0.077-0.351,0.142c-0.102,0.066-0.184,0.15-0.246,0.252
		c-0.062,0.103-0.094,0.223-0.094,0.361c0,0.241,0.1,0.426,0.297,0.553c0.197,0.128,0.507,0.235,0.93,0.323
		c0.606,0.124,1.054,0.305,1.342,0.542c0.289,0.237,0.434,0.557,0.434,0.958c0,0.292-0.057,0.539-0.17,0.739
		s-0.262,0.365-0.443,0.493c-0.184,0.128-0.39,0.219-0.619,0.274c-0.23,0.055-0.462,0.082-0.695,0.082
		c-0.387,0-0.764-0.081-1.129-0.241c-0.365-0.161-0.664-0.413-0.897-0.756l0.591-0.438c0.132,0.227,0.325,0.416,0.581,0.569
		c0.255,0.153,0.536,0.23,0.843,0.23c0.161,0,0.314-0.014,0.461-0.043c0.146-0.029,0.273-0.081,0.383-0.153
		c0.109-0.073,0.197-0.166,0.263-0.279s0.099-0.254,0.099-0.422c0-0.27-0.13-0.473-0.389-0.607c-0.26-0.135-0.634-0.261-1.123-0.378
		c-0.152-0.037-0.315-0.082-0.486-0.137c-0.172-0.055-0.331-0.135-0.477-0.241c-0.146-0.105-0.268-0.239-0.361-0.4
		c-0.096-0.16-0.143-0.361-0.143-0.602c0-0.263,0.051-0.487,0.153-0.673c0.103-0.187,0.239-0.34,0.411-0.46
		c0.171-0.121,0.366-0.21,0.586-0.269c0.219-0.058,0.444-0.087,0.678-0.087c0.357,0,0.705,0.081,1.041,0.241
		c0.336,0.161,0.588,0.387,0.756,0.679L354.82,154.454z"/>
	<path fill="#FFFFFF" d="M361.621,155.648c0,0.051,0,0.106,0,0.164c0,0.059-0.004,0.121-0.011,0.187h-4.249
		c0.008,0.255,0.059,0.497,0.153,0.723c0.095,0.227,0.227,0.423,0.395,0.591c0.167,0.168,0.364,0.301,0.591,0.4
		c0.227,0.098,0.471,0.147,0.734,0.147c0.387,0,0.721-0.089,1.002-0.268s0.494-0.385,0.641-0.619l0.559,0.438
		c-0.307,0.387-0.645,0.665-1.014,0.832c-0.368,0.168-0.765,0.252-1.188,0.252c-0.38,0-0.732-0.067-1.057-0.203
		c-0.325-0.135-0.604-0.323-0.838-0.564c-0.234-0.241-0.418-0.525-0.553-0.854c-0.136-0.329-0.203-0.686-0.203-1.073
		c0-0.387,0.065-0.745,0.197-1.073c0.131-0.329,0.313-0.613,0.547-0.854c0.234-0.241,0.508-0.429,0.822-0.564
		c0.313-0.135,0.652-0.203,1.018-0.203c0.402,0,0.756,0.067,1.062,0.203s0.562,0.317,0.767,0.547s0.359,0.499,0.466,0.805
		C361.568,154.969,361.621,155.297,361.621,155.648z M360.865,155.407c-0.021-0.482-0.177-0.882-0.465-1.199
		c-0.289-0.318-0.699-0.477-1.232-0.477c-0.248,0-0.479,0.046-0.689,0.137c-0.212,0.091-0.398,0.215-0.559,0.372
		c-0.16,0.157-0.289,0.336-0.383,0.537c-0.096,0.201-0.15,0.411-0.164,0.63H360.865z"/>
	<path fill="#FFFFFF" d="M363.209,153.83c-0.008-0.219-0.018-0.416-0.033-0.591h0.713c0.014,0.139,0.025,0.292,0.032,0.46
		s0.011,0.307,0.011,0.416h0.021c0.146-0.299,0.365-0.542,0.658-0.728c0.291-0.187,0.619-0.279,0.984-0.279
		c0.096,0,0.182,0.004,0.258,0.011c0.076,0.007,0.155,0.022,0.235,0.044l-0.099,0.712c-0.043-0.015-0.117-0.029-0.219-0.044
		c-0.103-0.015-0.205-0.022-0.307-0.022c-0.197,0-0.387,0.037-0.569,0.109s-0.341,0.188-0.477,0.344
		c-0.136,0.156-0.245,0.356-0.329,0.601s-0.125,0.538-0.125,0.879v2.622h-0.745v-3.997
		C363.22,154.228,363.217,154.049,363.209,153.83z"/>
	<path fill="#FFFFFF" d="M369.265,158.364h-0.821l-2.092-5.125h0.832l1.664,4.336h0.022l1.676-4.336h0.8L369.265,158.364z"/>
	<path fill="#FFFFFF" d="M377.172,155.648c0,0.051,0,0.106,0,0.164c0,0.059-0.004,0.121-0.012,0.187h-4.249
		c0.007,0.255,0.059,0.497,0.153,0.723c0.095,0.227,0.227,0.423,0.395,0.591s0.365,0.301,0.592,0.4
		c0.226,0.098,0.471,0.147,0.732,0.147c0.388,0,0.722-0.089,1.002-0.268c0.281-0.179,0.495-0.385,0.641-0.619l0.559,0.438
		c-0.307,0.387-0.644,0.665-1.012,0.832c-0.369,0.168-0.766,0.252-1.189,0.252c-0.379,0-0.731-0.067-1.057-0.203
		c-0.324-0.135-0.604-0.323-0.838-0.564c-0.232-0.241-0.418-0.525-0.553-0.854s-0.202-0.686-0.202-1.073
		c0-0.387,0.065-0.745,0.197-1.073s0.313-0.613,0.548-0.854c0.232-0.241,0.507-0.429,0.82-0.564c0.314-0.135,0.654-0.203,1.02-0.203
		c0.4,0,0.755,0.067,1.062,0.203s0.562,0.317,0.767,0.547s0.359,0.499,0.465,0.805C377.118,154.969,377.172,155.297,377.172,155.648
		z M376.416,155.407c-0.022-0.482-0.178-0.882-0.466-1.199c-0.288-0.318-0.699-0.477-1.231-0.477c-0.249,0-0.479,0.046-0.69,0.137
		s-0.397,0.215-0.559,0.372c-0.161,0.157-0.288,0.336-0.384,0.537c-0.094,0.201-0.149,0.411-0.164,0.63H376.416z"/>
	<path fill="#FFFFFF" d="M382.34,158.364h-0.789v-7.753h4.677v0.701h-3.888v2.683h3.613v0.701h-3.613V158.364z"/>
	<path fill="#FFFFFF" d="M390.926,158.364c-0.016-0.139-0.026-0.292-0.033-0.46c-0.008-0.168-0.012-0.307-0.012-0.416h-0.021
		c-0.146,0.299-0.383,0.542-0.712,0.728c-0.328,0.186-0.675,0.279-1.04,0.279c-0.65,0-1.137-0.193-1.462-0.581
		c-0.325-0.387-0.487-0.898-0.487-1.533v-3.143h0.744v2.836c0,0.27,0.022,0.515,0.066,0.733c0.043,0.219,0.118,0.407,0.225,0.564
		c0.105,0.157,0.248,0.279,0.427,0.367c0.179,0.087,0.403,0.131,0.673,0.131c0.197,0,0.389-0.04,0.576-0.121
		c0.186-0.08,0.352-0.203,0.498-0.367c0.146-0.165,0.262-0.373,0.35-0.625c0.088-0.251,0.132-0.549,0.132-0.892v-2.628h0.745v3.997
		c0,0.139,0.003,0.317,0.01,0.537c0.008,0.219,0.019,0.416,0.033,0.591H390.926z"/>
	<path fill="#FFFFFF" d="M394.232,153.239c0.014,0.139,0.025,0.292,0.033,0.46c0.007,0.168,0.01,0.307,0.01,0.416h0.022
		c0.146-0.299,0.384-0.542,0.712-0.728c0.328-0.187,0.676-0.279,1.04-0.279c0.649,0,1.138,0.193,1.462,0.58
		c0.325,0.387,0.488,0.898,0.488,1.533v3.143h-0.745v-2.836c0-0.27-0.022-0.515-0.065-0.733c-0.045-0.219-0.119-0.407-0.225-0.564
		c-0.106-0.157-0.248-0.279-0.428-0.367c-0.179-0.087-0.403-0.131-0.674-0.131c-0.196,0-0.389,0.041-0.574,0.121
		c-0.186,0.081-0.353,0.203-0.498,0.367c-0.146,0.165-0.264,0.373-0.351,0.625c-0.088,0.251-0.132,0.549-0.132,0.892v2.628h-0.744
		v-3.997c0-0.139-0.004-0.317-0.012-0.537c-0.007-0.219-0.018-0.416-0.032-0.591H394.232z"/>
	<path fill="#FFFFFF" d="M404.143,157.499c-0.219,0.329-0.504,0.577-0.854,0.745c-0.351,0.168-0.712,0.252-1.084,0.252
		c-0.402,0-0.766-0.069-1.09-0.208c-0.325-0.139-0.603-0.329-0.832-0.569c-0.23-0.241-0.409-0.526-0.537-0.854
		c-0.127-0.328-0.191-0.682-0.191-1.062c0-0.379,0.064-0.734,0.191-1.062c0.128-0.329,0.307-0.613,0.537-0.854
		c0.229-0.241,0.507-0.431,0.832-0.569c0.324-0.139,0.688-0.208,1.09-0.208c0.372,0,0.733,0.086,1.084,0.257
		c0.35,0.171,0.635,0.425,0.854,0.761h0.022v-4.041h0.745v8.279h-0.745v-0.865H404.143z M400.344,155.801
		c0,0.285,0.043,0.553,0.131,0.805c0.088,0.252,0.213,0.471,0.378,0.657c0.164,0.186,0.366,0.333,0.607,0.438
		c0.241,0.106,0.515,0.159,0.821,0.159c0.285,0,0.548-0.053,0.789-0.159c0.24-0.105,0.449-0.25,0.623-0.433
		c0.176-0.182,0.312-0.399,0.412-0.651c0.098-0.252,0.146-0.524,0.146-0.816s-0.049-0.564-0.146-0.816
		c-0.1-0.252-0.236-0.471-0.412-0.657c-0.174-0.187-0.383-0.333-0.623-0.438c-0.241-0.105-0.504-0.159-0.789-0.159
		c-0.307,0-0.58,0.055-0.821,0.165c-0.241,0.109-0.443,0.257-0.607,0.443c-0.165,0.186-0.29,0.405-0.378,0.657
		C400.387,155.248,400.344,155.517,400.344,155.801z"/>
</g>
</svg>
