<?xml version="1.0" encoding="utf-8"?>
<!-- Generator: Adobe Illustrator 16.0.0, SVG Export Plug-In . SVG Version: 6.00 Build 0)  -->
<!DOCTYPE svg PUBLIC "-//W3C//DTD SVG 1.1//EN" "http://www.w3.org/Graphics/SVG/1.1/DTD/svg11.dtd">
<svg version="1.1" id="Layer_1" xmlns="http://www.w3.org/2000/svg" xmlns:xlink="http://www.w3.org/1999/xlink" x="0px" y="0px"
	 width="642.857px" height="652.857px" viewBox="0 0 642.857 652.857" enable-background="new 0 0 642.857 652.857"
	 xml:space="preserve">
<path fill-rule="evenodd" clip-rule="evenodd" fill="#ED1C24" d="M281.298,453.822c-90.736,9.846-172.273-55.729-182.119-146.466
	c-9.844-90.733,55.73-172.273,146.466-182.118c71.175-7.723,139.229,31.264,168.569,96.57l-75.372,33.861
	c-18.701-41.625-67.606-60.211-109.233-41.508c-41.624,18.699-60.211,67.604-41.508,109.229
	c14.67,32.654,48.695,52.148,84.283,48.285L281.298,453.822z"/>
<polygon fill="#0052A4" points="0,141.716 242.615,141.716 275.048,198.865 0,198.865 "/>
<path fill-rule="evenodd" clip-rule="evenodd" fill="#710000" d="M445.017,228.03c29.338,65.306,13.291,142.077-39.754,190.16
	l-55.494-61.22c26.522-24.041,34.545-62.428,19.876-95.08L445.017,228.03z"/>
<path fill-rule="evenodd" clip-rule="evenodd" fill="#A30D11" d="M401.707,470.043c-25.856,23.438-58.469,38.09-93.164,41.855
	l-8.912-82.146c17.347-1.884,33.652-9.21,46.58-20.929L401.707,470.043z"/>
<g>
	<path fill="#FFFFFF" d="M186.273,179.074h-5.088l7.489-14.716h-8.741V160.6h13.412v3.496L186.273,179.074z"/>
	<path fill="#FFFFFF" d="M210.8,169.785c0,1.305-0.13,2.548-0.391,3.731c-0.261,1.183-0.679,2.222-1.253,3.118
		c-0.574,0.896-1.317,1.609-2.231,2.139c-0.913,0.531-2.022,0.796-3.327,0.796s-2.418-0.265-3.34-0.796
		c-0.922-0.53-1.674-1.243-2.257-2.139c-0.583-0.896-1.005-1.935-1.266-3.118c-0.261-1.183-0.392-2.427-0.392-3.731
		s0.13-2.544,0.392-3.718c0.261-1.174,0.682-2.2,1.266-3.079c0.583-0.878,1.334-1.579,2.257-2.101
		c0.922-0.521,2.035-0.783,3.34-0.783s2.414,0.261,3.327,0.783c0.914,0.522,1.657,1.223,2.231,2.101
		c0.574,0.879,0.992,1.905,1.253,3.079C210.67,167.241,210.8,168.48,210.8,169.785z M206.312,169.785
		c0-0.574-0.035-1.209-0.104-1.905c-0.07-0.696-0.2-1.344-0.392-1.944s-0.465-1.104-0.822-1.514
		c-0.357-0.408-0.822-0.613-1.396-0.613s-1.043,0.205-1.409,0.613c-0.365,0.409-0.648,0.914-0.848,1.514
		c-0.2,0.6-0.335,1.248-0.405,1.944s-0.104,1.331-0.104,1.905c0,0.591,0.035,1.239,0.104,1.944s0.205,1.357,0.405,1.957
		c0.2,0.6,0.482,1.105,0.848,1.513c0.366,0.409,0.835,0.613,1.409,0.613s1.039-0.204,1.396-0.613
		c0.356-0.408,0.63-0.913,0.822-1.513s0.322-1.252,0.392-1.957C206.277,171.024,206.312,170.376,206.312,169.785z"/>
	<path fill="#FFFFFF" d="M222.672,165.218c0,0.679-0.13,1.318-0.391,1.918c-0.261,0.6-0.613,1.122-1.057,1.565
		c-0.444,0.444-0.97,0.796-1.579,1.057c-0.609,0.261-1.252,0.392-1.931,0.392s-1.322-0.13-1.931-0.392
		c-0.609-0.261-1.135-0.613-1.579-1.057c-0.444-0.443-0.796-0.965-1.057-1.565c-0.261-0.6-0.391-1.239-0.391-1.918
		c0-0.695,0.13-1.344,0.391-1.944c0.261-0.6,0.613-1.122,1.057-1.565c0.443-0.444,0.969-0.792,1.579-1.044
		c0.608-0.252,1.252-0.378,1.931-0.378s1.322,0.126,1.931,0.378c0.609,0.252,1.135,0.6,1.579,1.044
		c0.443,0.443,0.795,0.965,1.057,1.565C222.542,163.875,222.672,164.523,222.672,165.218z M219.75,165.218
		c0-0.557-0.2-1.035-0.6-1.435c-0.4-0.4-0.878-0.6-1.435-0.6c-0.557,0-1.035,0.2-1.435,0.6c-0.4,0.4-0.6,0.878-0.6,1.435
		c0,0.557,0.2,1.031,0.6,1.422c0.4,0.391,0.878,0.587,1.435,0.587c0.557,0,1.035-0.196,1.435-0.587
		C219.55,166.249,219.75,165.775,219.75,165.218z M219.724,179.961l-2.322-1.148l10.776-19.048l2.427,1.174L219.724,179.961z
		 M235.197,174.455c0,0.679-0.13,1.318-0.392,1.918c-0.261,0.6-0.613,1.122-1.057,1.565c-0.443,0.444-0.97,0.796-1.579,1.057
		c-0.609,0.261-1.252,0.391-1.931,0.391c-0.678,0-1.322-0.13-1.931-0.391c-0.609-0.261-1.135-0.613-1.579-1.057
		c-0.443-0.443-0.796-0.965-1.057-1.565c-0.261-0.6-0.392-1.239-0.392-1.918c0-0.678,0.13-1.317,0.392-1.917
		c0.261-0.6,0.613-1.122,1.057-1.566c0.443-0.443,0.97-0.796,1.579-1.057s1.252-0.391,1.931-0.391c0.679,0,1.322,0.13,1.931,0.391
		c0.609,0.261,1.135,0.613,1.579,1.057c0.443,0.444,0.796,0.966,1.057,1.566C235.067,173.138,235.197,173.777,235.197,174.455z
		 M232.275,174.455c0-0.278-0.057-0.543-0.17-0.795s-0.261-0.47-0.443-0.652c-0.183-0.183-0.396-0.326-0.639-0.431
		c-0.244-0.104-0.505-0.157-0.783-0.157c-0.557,0-1.035,0.2-1.435,0.6c-0.4,0.4-0.6,0.879-0.6,1.435c0,0.557,0.2,1.031,0.6,1.422
		c0.4,0.391,0.878,0.587,1.435,0.587c0.278,0,0.539-0.052,0.783-0.156c0.243-0.104,0.457-0.248,0.639-0.431s0.33-0.396,0.443-0.639
		S232.275,174.734,232.275,174.455z"/>
</g>
<g>
	<path fill="#FFFFFF" d="M123.525,167.099h-1.714v-15.335h-5.644v-1.524h13.001v1.524h-5.644V167.099z"/>
	<path fill="#FFFFFF" d="M143.766,153.288c-0.587-0.619-1.286-1.099-2.096-1.44c-0.81-0.341-1.738-0.512-2.786-0.512
		c-1.08,0-2.052,0.198-2.917,0.594c-0.866,0.396-1.6,0.931-2.203,1.605c-0.604,0.673-1.068,1.454-1.393,2.341
		c-0.326,0.888-0.488,1.823-0.488,2.805c0,0.983,0.163,1.918,0.488,2.805c0.325,0.888,0.79,1.665,1.393,2.33
		c0.603,0.666,1.337,1.196,2.203,1.593c0.865,0.396,1.837,0.594,2.917,0.594c0.952,0,1.825-0.103,2.619-0.31
		c0.793-0.206,1.437-0.468,1.929-0.786v-5.119h-3.929v-1.524h5.644v7.616c-0.921,0.557-1.913,0.971-2.977,1.241
		c-1.063,0.271-2.167,0.406-3.31,0.406c-1.271,0-2.445-0.223-3.524-0.667c-1.08-0.444-2.008-1.06-2.786-1.845
		c-0.778-0.786-1.385-1.718-1.822-2.798c-0.437-1.08-0.655-2.262-0.655-3.548c0-1.286,0.222-2.468,0.667-3.548
		c0.444-1.079,1.06-2.012,1.846-2.798c0.786-0.786,1.714-1.4,2.786-1.845c1.072-0.444,2.234-0.667,3.489-0.667
		c1.349,0,2.524,0.201,3.524,0.604s1.857,0.964,2.572,1.681L143.766,153.288z"/>
	<path fill="#FFFFFF" d="M151.242,165.575h9.025v1.524h-10.739V150.24h10.454v1.524h-8.739v5.787h8.167v1.524h-8.167V165.575z"/>
	<path fill="#FFFFFF" d="M46.211,183.93c-0.286,0.429-0.631,0.833-1.036,1.215s-0.874,0.718-1.405,1.008
		c-0.532,0.291-1.119,0.52-1.762,0.689c-0.643,0.169-1.346,0.254-2.107,0.254c-1.271,0-2.445-0.223-3.524-0.667
		c-1.08-0.444-2.008-1.06-2.786-1.845c-0.778-0.786-1.385-1.718-1.822-2.798c-0.437-1.08-0.655-2.262-0.655-3.548
		c0-1.286,0.222-2.468,0.667-3.548c0.444-1.079,1.06-2.012,1.846-2.798c0.786-0.786,1.714-1.4,2.786-1.845
		c1.072-0.444,2.234-0.667,3.489-0.667c0.619,0,1.226,0.064,1.821,0.193c0.596,0.129,1.155,0.311,1.679,0.544
		c0.524,0.234,1,0.515,1.429,0.843c0.429,0.328,0.786,0.698,1.072,1.11l-1.429,1.048c-0.175-0.27-0.409-0.54-0.703-0.81
		s-0.639-0.508-1.036-0.714c-0.397-0.206-0.83-0.373-1.298-0.5s-0.973-0.19-1.512-0.19c-1.096,0-2.076,0.198-2.941,0.593
		c-0.865,0.396-1.6,0.93-2.203,1.602c-0.604,0.673-1.064,1.452-1.381,2.338c-0.318,0.886-0.477,1.82-0.477,2.801
		s0.163,1.915,0.488,2.801c0.325,0.886,0.79,1.665,1.393,2.337c0.603,0.673,1.337,1.207,2.203,1.602
		c0.865,0.396,1.837,0.594,2.917,0.594c0.968,0,1.889-0.198,2.762-0.595s1.604-1.032,2.191-1.905L46.211,183.93z"/>
	<path fill="#FFFFFF" d="M59.855,181.097c0,0.841-0.147,1.619-0.44,2.333c-0.294,0.714-0.702,1.333-1.226,1.857
		c-0.524,0.523-1.151,0.933-1.881,1.226c-0.73,0.293-1.532,0.44-2.405,0.44c-0.857,0-1.651-0.147-2.381-0.44
		c-0.73-0.293-1.357-0.703-1.881-1.226c-0.524-0.524-0.933-1.143-1.227-1.857c-0.294-0.714-0.44-1.492-0.44-2.333
		s0.146-1.619,0.44-2.333c0.293-0.714,0.703-1.333,1.227-1.857c0.523-0.524,1.15-0.933,1.881-1.227
		c0.73-0.293,1.524-0.44,2.381-0.44c0.873,0,1.674,0.147,2.405,0.44c0.73,0.294,1.357,0.703,1.881,1.227s0.932,1.143,1.226,1.857
		C59.708,179.478,59.855,180.255,59.855,181.097z M58.141,181.097c0-0.619-0.099-1.203-0.297-1.75
		c-0.199-0.547-0.48-1.024-0.846-1.429s-0.81-0.726-1.333-0.964c-0.524-0.238-1.112-0.357-1.762-0.357
		c-0.651,0-1.234,0.119-1.75,0.357c-0.516,0.238-0.957,0.56-1.321,0.964c-0.365,0.405-0.647,0.881-0.845,1.429
		c-0.199,0.548-0.298,1.131-0.298,1.75s0.099,1.202,0.298,1.75c0.198,0.548,0.48,1.024,0.845,1.429
		c0.365,0.405,0.806,0.723,1.321,0.953c0.516,0.23,1.099,0.345,1.75,0.345c0.65,0,1.238-0.115,1.762-0.345
		c0.523-0.23,0.968-0.548,1.333-0.953s0.647-0.881,0.846-1.429C58.042,182.299,58.141,181.716,58.141,181.097z"/>
	<path fill="#FFFFFF" d="M64.784,175.524c0.032,0.302,0.055,0.635,0.071,1c0.016,0.366,0.024,0.667,0.024,0.905h0.047
		c0.317-0.651,0.833-1.179,1.548-1.583s1.468-0.607,2.262-0.607c1.413,0,2.472,0.421,3.179,1.262s1.06,1.953,1.06,3.333v6.834
		h-1.619v-6.167c0-0.587-0.047-1.119-0.143-1.595s-0.258-0.885-0.488-1.226c-0.23-0.341-0.54-0.607-0.929-0.798
		c-0.389-0.19-0.877-0.286-1.464-0.286c-0.429,0-0.845,0.087-1.25,0.262c-0.405,0.175-0.766,0.44-1.083,0.798
		c-0.318,0.357-0.572,0.81-0.762,1.357c-0.19,0.547-0.286,1.194-0.286,1.94v5.715h-1.619v-8.691c0-0.301-0.008-0.69-0.024-1.167
		c-0.016-0.477-0.04-0.905-0.071-1.286H64.784z"/>
	<path fill="#FFFFFF" d="M82.19,176.882h-3.143v6.5c0,0.413,0.039,0.754,0.119,1.024c0.08,0.27,0.194,0.48,0.345,0.631
		c0.151,0.151,0.33,0.254,0.536,0.31c0.206,0.056,0.429,0.083,0.667,0.083c0.222,0,0.456-0.032,0.703-0.095
		c0.246-0.063,0.48-0.151,0.702-0.262l0.072,1.405c-0.286,0.111-0.583,0.194-0.893,0.25c-0.31,0.055-0.647,0.083-1.012,0.083
		c-0.302,0-0.619-0.04-0.952-0.119c-0.333-0.08-0.643-0.23-0.929-0.453c-0.286-0.222-0.52-0.524-0.703-0.905s-0.274-0.881-0.274-1.5
		v-6.953h-2.31v-1.357h2.31v-3.143h1.62v3.143h3.143V176.882z"/>
	<path fill="#FFFFFF" d="M84.69,176.811c-0.016-0.477-0.04-0.905-0.071-1.286h1.548c0.032,0.302,0.055,0.635,0.071,1
		c0.016,0.366,0.024,0.667,0.024,0.905h0.047c0.317-0.651,0.794-1.179,1.429-1.583s1.349-0.607,2.143-0.607
		c0.206,0,0.393,0.008,0.56,0.024c0.167,0.016,0.337,0.047,0.512,0.095l-0.214,1.548c-0.095-0.032-0.254-0.063-0.476-0.095
		c-0.223-0.032-0.445-0.048-0.667-0.048c-0.429,0-0.841,0.079-1.238,0.238s-0.742,0.408-1.036,0.748
		c-0.294,0.341-0.532,0.776-0.714,1.307c-0.183,0.53-0.274,1.168-0.274,1.912v5.701h-1.619v-8.691
		C84.714,177.676,84.706,177.287,84.69,176.811z"/>
	<path fill="#FFFFFF" d="M95.263,171.238c0,0.333-0.119,0.607-0.357,0.822s-0.5,0.321-0.786,0.321s-0.548-0.107-0.786-0.321
		c-0.238-0.214-0.357-0.488-0.357-0.822c0-0.333,0.119-0.607,0.357-0.821c0.238-0.214,0.5-0.322,0.786-0.322
		s0.547,0.107,0.786,0.322S95.263,170.905,95.263,171.238z M94.929,186.668H93.31v-11.144h1.619V186.668z"/>
	<path fill="#FFFFFF" d="M100.906,184.787v1.881h-1.619v-18.001h1.619v8.786h0.047c0.477-0.73,1.095-1.282,1.857-1.655
		c0.762-0.373,1.548-0.56,2.357-0.56c0.873,0,1.663,0.151,2.369,0.453c0.706,0.302,1.31,0.714,1.81,1.238
		c0.5,0.524,0.889,1.143,1.167,1.857c0.277,0.714,0.417,1.485,0.417,2.31s-0.139,1.595-0.417,2.31
		c-0.278,0.714-0.667,1.333-1.167,1.857s-1.104,0.937-1.81,1.238c-0.707,0.301-1.497,0.452-2.369,0.452
		c-0.81,0-1.596-0.183-2.357-0.547c-0.762-0.365-1.381-0.905-1.857-1.62H100.906z M109.216,181.097c0-0.619-0.095-1.203-0.286-1.75
		c-0.19-0.547-0.464-1.024-0.821-1.429c-0.357-0.405-0.798-0.726-1.322-0.964c-0.524-0.238-1.119-0.357-1.786-0.357
		c-0.619,0-1.19,0.115-1.714,0.345c-0.524,0.23-0.976,0.548-1.357,0.953c-0.381,0.405-0.679,0.881-0.893,1.429
		c-0.214,0.547-0.321,1.139-0.321,1.774s0.107,1.226,0.321,1.774c0.214,0.547,0.512,1.02,0.893,1.417
		c0.381,0.397,0.833,0.711,1.357,0.941s1.096,0.345,1.714,0.345c0.667,0,1.262-0.115,1.786-0.345s0.964-0.548,1.322-0.953
		c0.357-0.405,0.631-0.881,0.821-1.429S109.216,181.716,109.216,181.097z"/>
	<path fill="#FFFFFF" d="M122.503,186.668c-0.032-0.301-0.056-0.635-0.072-1s-0.023-0.667-0.023-0.905h-0.048
		c-0.318,0.651-0.833,1.179-1.548,1.583s-1.468,0.607-2.262,0.607c-1.413,0-2.473-0.42-3.179-1.262
		c-0.707-0.841-1.06-1.953-1.06-3.334v-6.834h1.619v6.167c0,0.587,0.048,1.119,0.143,1.595s0.258,0.885,0.488,1.227
		s0.54,0.607,0.929,0.797s0.877,0.286,1.464,0.286c0.429,0,0.846-0.087,1.25-0.262c0.405-0.174,0.766-0.44,1.083-0.798
		c0.317-0.357,0.571-0.81,0.762-1.357c0.19-0.548,0.286-1.194,0.286-1.941v-5.715h1.619v8.691c0,0.302,0.008,0.69,0.024,1.167
		c0.016,0.476,0.04,0.905,0.071,1.286H122.503z"/>
	<path fill="#FFFFFF" d="M133.266,176.882h-3.143v6.5c0,0.413,0.039,0.754,0.119,1.024c0.08,0.27,0.194,0.48,0.345,0.631
		c0.151,0.151,0.33,0.254,0.536,0.31c0.206,0.056,0.429,0.083,0.667,0.083c0.222,0,0.456-0.032,0.703-0.095
		c0.246-0.063,0.48-0.151,0.702-0.262l0.072,1.405c-0.286,0.111-0.583,0.194-0.893,0.25c-0.31,0.055-0.647,0.083-1.012,0.083
		c-0.302,0-0.619-0.04-0.952-0.119c-0.333-0.08-0.643-0.23-0.929-0.453c-0.286-0.222-0.52-0.524-0.703-0.905s-0.274-0.881-0.274-1.5
		v-6.953h-2.31v-1.357h2.31v-3.143h1.62v3.143h3.143V176.882z"/>
	<path fill="#FFFFFF" d="M146.862,181.097c0,0.841-0.147,1.619-0.44,2.333c-0.294,0.714-0.702,1.333-1.226,1.857
		c-0.524,0.523-1.151,0.933-1.881,1.226c-0.73,0.293-1.532,0.44-2.405,0.44c-0.857,0-1.651-0.147-2.381-0.44
		c-0.73-0.293-1.357-0.703-1.881-1.226c-0.524-0.524-0.933-1.143-1.227-1.857c-0.294-0.714-0.44-1.492-0.44-2.333
		s0.146-1.619,0.44-2.333c0.293-0.714,0.703-1.333,1.227-1.857c0.523-0.524,1.15-0.933,1.881-1.227
		c0.73-0.293,1.524-0.44,2.381-0.44c0.873,0,1.674,0.147,2.405,0.44c0.73,0.294,1.357,0.703,1.881,1.227s0.932,1.143,1.226,1.857
		C146.715,179.478,146.862,180.255,146.862,181.097z M145.147,181.097c0-0.619-0.099-1.203-0.297-1.75
		c-0.199-0.547-0.48-1.024-0.846-1.429s-0.81-0.726-1.333-0.964c-0.524-0.238-1.112-0.357-1.762-0.357
		c-0.651,0-1.234,0.119-1.75,0.357c-0.516,0.238-0.957,0.56-1.321,0.964c-0.365,0.405-0.647,0.881-0.845,1.429
		c-0.199,0.548-0.298,1.131-0.298,1.75s0.099,1.202,0.298,1.75c0.198,0.548,0.48,1.024,0.845,1.429
		c0.365,0.405,0.806,0.723,1.321,0.953c0.516,0.23,1.099,0.345,1.75,0.345c0.65,0,1.238-0.115,1.762-0.345
		c0.523-0.23,0.968-0.548,1.333-0.953s0.647-0.881,0.846-1.429C145.048,182.299,145.147,181.716,145.147,181.097z"/>
	<path fill="#FFFFFF" d="M150.314,176.811c-0.016-0.477-0.04-0.905-0.071-1.286h1.548c0.032,0.302,0.055,0.635,0.071,1
		c0.016,0.366,0.024,0.667,0.024,0.905h0.047c0.317-0.651,0.794-1.179,1.429-1.583s1.349-0.607,2.143-0.607
		c0.206,0,0.393,0.008,0.56,0.024c0.167,0.016,0.337,0.047,0.512,0.095l-0.214,1.548c-0.095-0.032-0.254-0.063-0.476-0.095
		c-0.223-0.032-0.445-0.048-0.667-0.048c-0.429,0-0.841,0.079-1.238,0.238s-0.742,0.408-1.036,0.748
		c-0.294,0.341-0.532,0.776-0.714,1.307c-0.183,0.53-0.274,1.168-0.274,1.912v5.701h-1.619v-8.691
		C150.338,177.676,150.33,177.287,150.314,176.811z"/>
	<path fill="#FFFFFF" d="M164.839,178.167c-0.238-0.46-0.6-0.837-1.083-1.131c-0.484-0.293-1.036-0.44-1.655-0.44
		c-0.286,0-0.572,0.032-0.857,0.095s-0.54,0.167-0.762,0.31c-0.223,0.143-0.401,0.326-0.536,0.547
		c-0.135,0.223-0.202,0.485-0.202,0.786c0,0.524,0.214,0.925,0.643,1.202c0.428,0.278,1.103,0.512,2.024,0.703
		c1.317,0.27,2.29,0.663,2.917,1.179c0.626,0.516,0.94,1.21,0.94,2.083c0,0.635-0.123,1.171-0.369,1.607s-0.568,0.794-0.964,1.071
		c-0.397,0.278-0.845,0.477-1.345,0.595c-0.5,0.119-1.004,0.179-1.512,0.179c-0.842,0-1.659-0.175-2.453-0.524
		c-0.794-0.349-1.445-0.896-1.953-1.643l1.286-0.952c0.286,0.492,0.706,0.905,1.262,1.238c0.556,0.333,1.167,0.5,1.833,0.5
		c0.349,0,0.683-0.032,1-0.095s0.596-0.175,0.833-0.333c0.238-0.159,0.429-0.361,0.572-0.607c0.143-0.246,0.214-0.551,0.214-0.917
		c0-0.587-0.282-1.028-0.845-1.322c-0.563-0.293-1.377-0.567-2.44-0.821c-0.333-0.079-0.687-0.179-1.06-0.298
		c-0.374-0.119-0.719-0.293-1.036-0.524c-0.317-0.229-0.58-0.52-0.786-0.869c-0.207-0.349-0.31-0.786-0.31-1.31
		c0-0.571,0.111-1.06,0.333-1.464c0.222-0.405,0.52-0.738,0.893-1s0.798-0.456,1.274-0.583c0.477-0.127,0.968-0.19,1.477-0.19
		c0.778,0,1.532,0.175,2.262,0.524c0.73,0.349,1.277,0.842,1.643,1.476L164.839,178.167z"/>
</g>
<polygon fill="#ED1C24" points="642.857,266.798 421.647,266.798 380.354,339.32 642.857,339.32 "/>
<g>
	<path fill="#FFFFFF" d="M420.958,310.714v-3.647l7.202-6.512c0.452-0.434,0.817-0.877,1.096-1.329s0.417-0.955,0.417-1.511
		c0-0.66-0.208-1.194-0.625-1.602c-0.418-0.408-0.975-0.613-1.67-0.613c-0.731,0-1.327,0.257-1.788,0.77s-0.735,1.187-0.821,2.022
		l-4.201-0.574c0.104-0.939,0.36-1.776,0.77-2.51c0.408-0.734,0.926-1.359,1.553-1.876c0.626-0.517,1.344-0.911,2.152-1.183
		s1.666-0.407,2.57-0.407c0.852,0,1.678,0.113,2.479,0.339s1.514,0.574,2.14,1.043c0.626,0.47,1.126,1.062,1.501,1.774
		c0.373,0.713,0.561,1.549,0.561,2.505c0,0.662-0.088,1.257-0.262,1.788c-0.174,0.531-0.412,1.022-0.717,1.474
		c-0.305,0.453-0.652,0.874-1.044,1.266s-0.796,0.779-1.213,1.161l-4.279,3.81h7.54v3.81H420.958z"/>
	<path fill="#FFFFFF" d="M451.697,301.425c0,1.305-0.131,2.548-0.392,3.731s-0.679,2.222-1.253,3.118s-1.317,1.609-2.23,2.139
		c-0.914,0.531-2.022,0.796-3.327,0.796s-2.418-0.265-3.34-0.796c-0.923-0.53-1.675-1.243-2.257-2.139
		c-0.584-0.896-1.005-1.935-1.266-3.118c-0.262-1.183-0.392-2.427-0.392-3.731s0.13-2.544,0.392-3.718
		c0.261-1.174,0.682-2.2,1.266-3.079c0.582-0.878,1.334-1.579,2.257-2.101c0.922-0.521,2.035-0.783,3.34-0.783
		s2.413,0.261,3.327,0.783c0.913,0.522,1.656,1.223,2.23,2.101c0.574,0.879,0.992,1.905,1.253,3.079
		S451.697,300.121,451.697,301.425z M447.208,301.425c0-0.574-0.035-1.209-0.104-1.905s-0.2-1.344-0.392-1.944
		s-0.465-1.104-0.822-1.514c-0.356-0.408-0.821-0.613-1.396-0.613s-1.044,0.205-1.409,0.613c-0.365,0.409-0.648,0.914-0.848,1.514
		c-0.2,0.6-0.336,1.248-0.404,1.944c-0.07,0.696-0.104,1.331-0.104,1.905c0,0.591,0.034,1.239,0.104,1.944
		c0.068,0.705,0.204,1.357,0.404,1.957c0.199,0.6,0.482,1.105,0.848,1.513c0.365,0.409,0.835,0.613,1.409,0.613
		s1.039-0.204,1.396-0.613c0.357-0.408,0.631-0.913,0.822-1.513s0.322-1.252,0.392-1.957S447.208,302.017,447.208,301.425z"/>
	<path fill="#FFFFFF" d="M463.568,296.859c0,0.679-0.13,1.318-0.391,1.918c-0.262,0.6-0.613,1.122-1.057,1.565
		c-0.443,0.444-0.971,0.796-1.579,1.057c-0.608,0.261-1.253,0.392-1.931,0.392s-1.322-0.13-1.931-0.392
		c-0.609-0.261-1.136-0.613-1.579-1.057c-0.443-0.443-0.795-0.965-1.057-1.565c-0.261-0.6-0.391-1.239-0.391-1.918
		c0-0.695,0.13-1.344,0.391-1.944c0.262-0.6,0.613-1.122,1.057-1.565c0.443-0.444,0.97-0.792,1.579-1.044
		c0.608-0.252,1.253-0.378,1.931-0.378s1.322,0.126,1.931,0.378c0.608,0.252,1.136,0.6,1.579,1.044
		c0.443,0.443,0.795,0.965,1.057,1.565C463.438,295.515,463.568,296.164,463.568,296.859z M460.646,296.859
		c0-0.557-0.2-1.035-0.6-1.435c-0.4-0.4-0.879-0.6-1.436-0.6s-1.035,0.2-1.436,0.6c-0.4,0.4-0.6,0.878-0.6,1.435
		c0,0.557,0.199,1.031,0.6,1.422c0.4,0.391,0.879,0.587,1.436,0.587s1.035-0.196,1.436-0.587
		C460.446,297.89,460.646,297.416,460.646,296.859z M460.621,311.602l-2.322-1.148l10.775-19.048l2.428,1.174L460.621,311.602z
		 M476.093,306.096c0,0.679-0.131,1.318-0.392,1.918s-0.613,1.122-1.057,1.565c-0.443,0.444-0.97,0.796-1.579,1.057
		c-0.609,0.261-1.252,0.391-1.931,0.391s-1.321-0.13-1.931-0.391c-0.609-0.261-1.135-0.613-1.578-1.057
		c-0.443-0.443-0.797-0.965-1.057-1.565c-0.262-0.6-0.393-1.239-0.393-1.918c0-0.678,0.131-1.317,0.393-1.917
		c0.26-0.6,0.613-1.122,1.057-1.566c0.443-0.443,0.969-0.796,1.578-1.057s1.252-0.391,1.931-0.391s1.321,0.13,1.931,0.391
		s1.136,0.613,1.579,1.057c0.443,0.444,0.796,0.966,1.057,1.566S476.093,305.417,476.093,306.096z M473.171,306.096
		c0-0.278-0.057-0.543-0.17-0.795s-0.262-0.47-0.443-0.652c-0.184-0.183-0.396-0.326-0.64-0.431
		c-0.244-0.104-0.505-0.157-0.783-0.157c-0.557,0-1.035,0.2-1.435,0.6c-0.4,0.4-0.601,0.879-0.601,1.435
		c0,0.557,0.2,1.031,0.601,1.422c0.399,0.391,0.878,0.587,1.435,0.587c0.278,0,0.539-0.052,0.783-0.156
		c0.243-0.104,0.456-0.248,0.64-0.431c0.182-0.183,0.33-0.396,0.443-0.639S473.171,306.375,473.171,306.096z"/>
</g>
<g>
	<path fill="#FFFFFF" d="M494.577,291.044h-1.714v-15.335h-5.645v-1.524h13.002v1.524h-5.644V291.044z"/>
	<path fill="#FFFFFF" d="M510.507,285.139c0,0.111,0,0.23,0,0.357c0,0.127-0.009,0.262-0.024,0.405h-9.239
		c0.016,0.556,0.127,1.08,0.334,1.572c0.205,0.492,0.491,0.921,0.857,1.286c0.364,0.366,0.793,0.655,1.285,0.869
		s1.023,0.322,1.596,0.322c0.841,0,1.567-0.194,2.179-0.583c0.61-0.389,1.075-0.837,1.393-1.345l1.214,0.952
		c-0.666,0.842-1.4,1.445-2.201,1.81c-0.803,0.365-1.664,0.547-2.584,0.547c-0.826,0-1.592-0.147-2.299-0.44
		c-0.706-0.293-1.312-0.703-1.82-1.226c-0.509-0.524-0.91-1.143-1.203-1.857c-0.294-0.714-0.44-1.492-0.44-2.333
		s0.144-1.619,0.429-2.333s0.682-1.333,1.19-1.857c0.508-0.524,1.103-0.933,1.786-1.227c0.682-0.293,1.42-0.44,2.215-0.44
		c0.872,0,1.643,0.147,2.309,0.44c0.668,0.294,1.223,0.69,1.668,1.191c0.443,0.5,0.781,1.083,1.012,1.75
		C510.391,283.663,510.507,284.377,510.507,285.139z M508.864,284.615c-0.048-1.048-0.386-1.917-1.013-2.607
		s-1.52-1.036-2.678-1.036c-0.541,0-1.041,0.099-1.5,0.297c-0.461,0.199-0.866,0.469-1.215,0.81c-0.35,0.342-0.627,0.73-0.834,1.167
		c-0.206,0.437-0.325,0.893-0.357,1.369H508.864z"/>
	<path fill="#FFFFFF" d="M520.865,283.832c0-0.961-0.254-1.678-0.762-2.151c-0.508-0.473-1.246-0.709-2.215-0.709
		c-0.666,0-1.285,0.119-1.857,0.357c-0.571,0.238-1.056,0.556-1.452,0.953l-0.905-1.072c0.461-0.46,1.068-0.841,1.822-1.143
		s1.607-0.453,2.56-0.453c0.603,0,1.167,0.083,1.69,0.25s0.984,0.417,1.381,0.75c0.396,0.333,0.707,0.754,0.929,1.262
		c0.222,0.508,0.333,1.104,0.333,1.786v4.882c0,0.428,0.016,0.873,0.049,1.333c0.031,0.461,0.078,0.85,0.143,1.167h-1.453
		c-0.047-0.27-0.088-0.563-0.119-0.881s-0.047-0.627-0.047-0.929h-0.048c-0.509,0.746-1.083,1.282-1.727,1.607
		c-0.644,0.325-1.417,0.488-2.321,0.488c-0.429,0-0.869-0.06-1.322-0.179c-0.452-0.12-0.865-0.314-1.238-0.585
		s-0.682-0.621-0.928-1.051s-0.369-0.956-0.369-1.577c0-0.86,0.218-1.541,0.654-2.042s1.02-0.875,1.75-1.123
		s1.568-0.406,2.512-0.479c0.945-0.071,1.926-0.107,2.941-0.107V283.832z M520.388,285.473c-0.666,0-1.338,0.028-2.012,0.083
		c-0.675,0.056-1.285,0.167-1.834,0.333c-0.547,0.167-0.996,0.409-1.345,0.726c-0.35,0.318-0.524,0.738-0.524,1.262
		c0,0.397,0.076,0.73,0.227,1c0.15,0.27,0.354,0.488,0.607,0.655c0.254,0.167,0.535,0.286,0.846,0.357
		c0.309,0.071,0.622,0.107,0.939,0.107c0.572,0,1.08-0.099,1.524-0.297c0.444-0.198,0.817-0.468,1.119-0.81s0.532-0.734,0.69-1.179
		s0.238-0.913,0.238-1.405v-0.833H520.388z"/>
	<path fill="#FFFFFF" d="M529.615,280.222c0.659-0.405,1.394-0.607,2.203-0.607c0.302,0,0.615,0.032,0.941,0.095
		c0.324,0.063,0.643,0.187,0.951,0.369c0.311,0.183,0.596,0.425,0.857,0.726c0.262,0.302,0.488,0.691,0.68,1.167
		c0.381-0.762,0.9-1.345,1.559-1.75c0.659-0.405,1.441-0.607,2.346-0.607c1.413,0,2.473,0.421,3.18,1.262
		c0.705,0.841,1.059,1.953,1.059,3.333v6.834h-1.619v-6.167c0-1.174-0.218-2.119-0.654-2.833c-0.438-0.714-1.179-1.071-2.227-1.071
		c-0.588,0-1.084,0.119-1.488,0.357c-0.404,0.238-0.73,0.552-0.977,0.941s-0.424,0.83-0.535,1.321c-0.111,0.492-0.167,1-0.167,1.524
		v5.929h-1.619v-6.5c0-0.54-0.04-1.032-0.119-1.477c-0.079-0.444-0.218-0.821-0.417-1.131c-0.198-0.31-0.473-0.548-0.821-0.714
		c-0.349-0.167-0.794-0.25-1.333-0.25c-0.381,0-0.767,0.087-1.155,0.262c-0.39,0.175-0.738,0.44-1.048,0.798
		c-0.31,0.357-0.56,0.81-0.75,1.357c-0.19,0.547-0.285,1.194-0.285,1.94v5.715h-1.619v-8.691c0-0.301-0.009-0.69-0.024-1.167
		c-0.017-0.477-0.04-0.905-0.071-1.286h1.548c0.032,0.302,0.056,0.635,0.071,1c0.016,0.366,0.023,0.667,0.023,0.905h0.048
		C528.468,281.155,528.957,280.627,529.615,280.222z"/>
	<path fill="#FFFFFF" d="M488.414,304.828c0,0.584,0.051,1.164,0.152,1.738c0.1,0.574,0.238,1.128,0.415,1.663
		s0.386,1.043,0.628,1.526c0.241,0.484,0.508,0.927,0.801,1.33l-0.786,0.499c-0.323-0.423-0.618-0.89-0.884-1.398
		c-0.268-0.509-0.5-1.053-0.695-1.632c-0.197-0.579-0.351-1.181-0.461-1.806c-0.111-0.625-0.166-1.264-0.166-1.919
		c0-0.645,0.055-1.282,0.166-1.912c0.11-0.63,0.264-1.234,0.461-1.814c0.195-0.579,0.428-1.123,0.695-1.632
		c0.266-0.509,0.561-0.975,0.884-1.398l0.786,0.499c-0.293,0.403-0.56,0.847-0.801,1.33c-0.242,0.484-0.451,0.993-0.628,1.527
		s-0.315,1.088-0.415,1.663C488.464,303.665,488.414,304.244,488.414,304.828z"/>
	<path fill="#FFFFFF" d="M493.976,308.214h5.729v0.967h-6.816V298.48h6.635v0.967h-5.547v3.673h5.184v0.967h-5.184V308.214z"/>
	<path fill="#FFFFFF" d="M503.437,305.523l-2.614-3.416h1.315l1.934,2.69l1.936-2.69h1.238l-2.568,3.37l2.811,3.703h-1.33
		l-2.101-2.947l-2.161,2.947h-1.24L503.437,305.523z"/>
	<path fill="#FFFFFF" d="M515.438,305.433c0,0.071,0,0.146,0,0.227s-0.005,0.166-0.015,0.257h-5.865
		c0.01,0.353,0.081,0.686,0.212,0.998c0.131,0.312,0.312,0.584,0.544,0.816c0.232,0.232,0.504,0.416,0.816,0.552
		c0.312,0.136,0.65,0.204,1.013,0.204c0.534,0,0.995-0.123,1.383-0.37s0.683-0.531,0.884-0.854l0.771,0.604
		c-0.424,0.534-0.89,0.917-1.398,1.149c-0.509,0.231-1.055,0.347-1.64,0.347c-0.524,0-1.011-0.093-1.458-0.279
		c-0.449-0.187-0.834-0.446-1.156-0.778s-0.577-0.726-0.764-1.179c-0.187-0.453-0.279-0.947-0.279-1.481s0.09-1.028,0.271-1.481
		c0.182-0.453,0.434-0.846,0.756-1.179s0.7-0.592,1.134-0.778c0.433-0.187,0.901-0.28,1.405-0.28c0.555,0,1.043,0.093,1.467,0.28
		c0.423,0.187,0.775,0.438,1.058,0.756s0.496,0.688,0.642,1.111C515.365,304.496,515.438,304.949,515.438,305.433z M514.395,305.1
		c-0.03-0.665-0.244-1.216-0.642-1.655c-0.398-0.438-0.965-0.657-1.701-0.657c-0.342,0-0.66,0.063-0.952,0.189
		s-0.55,0.297-0.771,0.514c-0.222,0.217-0.398,0.463-0.529,0.741c-0.131,0.277-0.207,0.566-0.227,0.869H514.395z"/>
	<path fill="#FFFFFF" d="M522.738,303.725c-0.172-0.272-0.421-0.496-0.748-0.673c-0.328-0.176-0.683-0.264-1.065-0.264
		c-0.413,0-0.786,0.073-1.118,0.219c-0.333,0.146-0.617,0.348-0.854,0.605c-0.237,0.257-0.418,0.559-0.544,0.907
		s-0.189,0.723-0.189,1.126s0.063,0.776,0.189,1.118c0.126,0.343,0.305,0.643,0.537,0.899c0.23,0.257,0.514,0.458,0.846,0.604
		c0.332,0.146,0.705,0.219,1.119,0.219c0.453,0,0.836-0.085,1.148-0.257s0.568-0.393,0.771-0.665l0.771,0.574
		c-0.302,0.373-0.672,0.67-1.111,0.892c-0.438,0.222-0.965,0.333-1.578,0.333c-0.574,0-1.094-0.093-1.557-0.279
		c-0.465-0.187-0.859-0.446-1.188-0.778c-0.327-0.333-0.582-0.726-0.763-1.179c-0.182-0.453-0.272-0.947-0.272-1.481
		s0.091-1.028,0.272-1.481c0.181-0.453,0.436-0.846,0.763-1.179c0.328-0.333,0.723-0.592,1.188-0.778
		c0.463-0.187,0.982-0.28,1.557-0.28c0.473,0,0.954,0.104,1.443,0.31c0.488,0.207,0.884,0.511,1.186,0.914L522.738,303.725z"/>
	<path fill="#FFFFFF" d="M530.34,309.181c-0.021-0.191-0.035-0.403-0.046-0.635c-0.01-0.232-0.015-0.423-0.015-0.574h-0.03
		c-0.201,0.413-0.529,0.748-0.982,1.005s-0.932,0.385-1.436,0.385c-0.896,0-1.57-0.267-2.018-0.801
		c-0.449-0.534-0.673-1.239-0.673-2.116v-4.337h1.028v3.915c0,0.373,0.029,0.71,0.09,1.013s0.164,0.562,0.311,0.778
		c0.146,0.217,0.342,0.385,0.589,0.506c0.247,0.121,0.557,0.181,0.93,0.181c0.272,0,0.536-0.055,0.794-0.166
		c0.256-0.111,0.485-0.28,0.688-0.506c0.201-0.227,0.362-0.514,0.483-0.862s0.181-0.758,0.181-1.231v-3.627h1.028v5.517
		c0,0.191,0.005,0.438,0.015,0.74c0.011,0.303,0.025,0.575,0.046,0.816H530.34z"/>
	<path fill="#FFFFFF" d="M537.171,302.969h-1.994v4.126c0,0.262,0.024,0.479,0.075,0.65c0.05,0.172,0.123,0.305,0.22,0.401
		c0.096,0.096,0.209,0.161,0.34,0.196c0.131,0.036,0.271,0.053,0.423,0.053c0.142,0,0.29-0.02,0.446-0.06
		c0.156-0.041,0.305-0.096,0.445-0.167l0.045,0.892c-0.181,0.071-0.369,0.124-0.566,0.159c-0.196,0.035-0.41,0.053-0.643,0.053
		c-0.191,0-0.393-0.025-0.604-0.076c-0.213-0.05-0.408-0.146-0.59-0.287s-0.33-0.333-0.446-0.574
		c-0.116-0.242-0.174-0.56-0.174-0.952v-4.414h-1.466v-0.861h1.466v-1.995h1.028v1.995h1.994V302.969z"/>
	<path fill="#FFFFFF" d="M540.029,299.387c0,0.211-0.076,0.385-0.227,0.521c-0.152,0.136-0.318,0.204-0.5,0.204
		c-0.181,0-0.348-0.068-0.498-0.204c-0.151-0.136-0.227-0.31-0.227-0.521s0.075-0.385,0.227-0.521
		c0.15-0.136,0.317-0.204,0.498-0.204c0.182,0,0.348,0.068,0.5,0.204C539.953,299.002,540.029,299.176,540.029,299.387z
		 M539.817,309.181h-1.028v-7.073h1.028V309.181z"/>
	<path fill="#FFFFFF" d="M545.455,309.181h-1.135l-2.887-7.073h1.149l2.298,5.985h0.029l2.312-5.985h1.104L545.455,309.181z"/>
	<path fill="#FFFFFF" d="M556.367,305.433c0,0.071,0,0.146,0,0.227s-0.006,0.166-0.016,0.257h-5.864
		c0.01,0.353,0.081,0.686,0.212,0.998c0.131,0.312,0.312,0.584,0.544,0.816c0.231,0.232,0.503,0.416,0.815,0.552
		c0.312,0.136,0.65,0.204,1.014,0.204c0.533,0,0.994-0.123,1.383-0.37c0.388-0.247,0.682-0.531,0.884-0.854l0.771,0.604
		c-0.423,0.534-0.889,0.917-1.397,1.149c-0.509,0.231-1.056,0.347-1.64,0.347c-0.524,0-1.011-0.093-1.459-0.279
		c-0.448-0.187-0.834-0.446-1.156-0.778s-0.576-0.726-0.764-1.179c-0.186-0.453-0.279-0.947-0.279-1.481s0.091-1.028,0.272-1.481
		c0.181-0.453,0.433-0.846,0.755-1.179s0.701-0.592,1.135-0.778c0.433-0.187,0.9-0.28,1.404-0.28c0.555,0,1.043,0.093,1.467,0.28
		s0.775,0.438,1.059,0.756c0.281,0.317,0.496,0.688,0.642,1.111C556.292,304.496,556.367,304.949,556.367,305.433z M555.324,305.1
		c-0.031-0.665-0.244-1.216-0.643-1.655s-0.965-0.657-1.701-0.657c-0.342,0-0.659,0.063-0.951,0.189
		c-0.293,0.126-0.55,0.297-0.771,0.514c-0.221,0.217-0.398,0.463-0.529,0.741c-0.131,0.277-0.206,0.566-0.227,0.869H555.324z"/>
	<path fill="#FFFFFF" d="M562.336,303.786c-0.151-0.292-0.38-0.532-0.688-0.718c-0.308-0.186-0.657-0.279-1.05-0.279
		c-0.182,0-0.363,0.02-0.545,0.06c-0.182,0.041-0.342,0.106-0.483,0.197s-0.255,0.207-0.341,0.348
		c-0.085,0.141-0.128,0.307-0.128,0.499c0,0.333,0.136,0.587,0.408,0.763c0.272,0.177,0.7,0.325,1.284,0.446
		c0.837,0.172,1.453,0.421,1.852,0.749s0.598,0.769,0.598,1.322c0,0.403-0.078,0.743-0.234,1.021
		c-0.156,0.277-0.36,0.504-0.612,0.68c-0.252,0.177-0.536,0.303-0.854,0.378c-0.316,0.076-0.637,0.113-0.959,0.113
		c-0.534,0-1.053-0.111-1.557-0.333c-0.504-0.221-0.918-0.569-1.24-1.042l0.816-0.604c0.182,0.312,0.449,0.574,0.801,0.786
		c0.354,0.211,0.741,0.317,1.164,0.317c0.222,0,0.434-0.02,0.635-0.061c0.201-0.04,0.379-0.111,0.529-0.211
		c0.151-0.101,0.271-0.229,0.363-0.385c0.09-0.156,0.136-0.35,0.136-0.582c0-0.373-0.179-0.652-0.536-0.839
		c-0.358-0.187-0.875-0.36-1.55-0.521c-0.212-0.05-0.437-0.113-0.673-0.189s-0.455-0.186-0.657-0.333
		c-0.202-0.146-0.368-0.33-0.499-0.552c-0.131-0.221-0.196-0.499-0.196-0.831c0-0.363,0.07-0.673,0.212-0.93
		c0.141-0.257,0.33-0.468,0.566-0.635c0.236-0.166,0.506-0.29,0.809-0.37s0.615-0.121,0.938-0.121c0.493,0,0.973,0.111,1.436,0.333
		c0.463,0.222,0.811,0.534,1.043,0.937L562.336,303.786z"/>
	<path fill="#FFFFFF" d="M565.464,311.297h-0.861l1.013-3.552h1.073L565.464,311.297z"/>
	<path fill="#FFFFFF" d="M488.279,327.318h-1.194l4.624-10.701h1.059l4.595,10.701h-1.209l-1.179-2.811h-5.532L488.279,327.318z
		 M489.85,323.51h4.716l-2.357-5.683L489.85,323.51z"/>
	<path fill="#FFFFFF" d="M504.692,326.125c-0.302,0.453-0.695,0.796-1.179,1.028c-0.484,0.231-0.982,0.347-1.496,0.347
		c-0.555,0-1.057-0.096-1.504-0.287c-0.449-0.191-0.832-0.453-1.148-0.786c-0.318-0.333-0.564-0.726-0.741-1.179
		c-0.177-0.453-0.265-0.942-0.265-1.466s0.088-1.013,0.265-1.466c0.177-0.453,0.423-0.846,0.741-1.179
		c0.316-0.333,0.699-0.594,1.148-0.786c0.447-0.191,0.949-0.287,1.504-0.287c0.514,0,1.012,0.119,1.496,0.355
		c0.483,0.237,0.877,0.587,1.179,1.05h0.03v-5.577h1.027v11.426h-1.027v-1.194H504.692z M499.447,323.782
		c0,0.393,0.061,0.763,0.182,1.111s0.295,0.65,0.521,0.907s0.506,0.458,0.839,0.604c0.333,0.146,0.71,0.219,1.134,0.219
		c0.393,0,0.756-0.073,1.088-0.219c0.333-0.146,0.62-0.345,0.861-0.597c0.242-0.252,0.432-0.552,0.567-0.899
		s0.204-0.723,0.204-1.126s-0.068-0.778-0.204-1.126s-0.325-0.65-0.567-0.907c-0.241-0.257-0.528-0.458-0.861-0.605
		c-0.332-0.146-0.695-0.219-1.088-0.219c-0.424,0-0.801,0.075-1.134,0.227c-0.333,0.151-0.612,0.355-0.839,0.612
		c-0.227,0.257-0.4,0.559-0.521,0.907S499.447,323.389,499.447,323.782z"/>
	<path fill="#FFFFFF" d="M511.403,327.318h-1.134l-2.887-7.073h1.148l2.298,5.985h0.03l2.312-5.985h1.104L511.403,327.318z"/>
	<path fill="#FFFFFF" d="M517.13,317.524c0,0.211-0.075,0.385-0.227,0.521c-0.15,0.136-0.316,0.204-0.498,0.204
		s-0.348-0.068-0.499-0.204c-0.151-0.136-0.228-0.31-0.228-0.521s0.076-0.385,0.228-0.521c0.151-0.136,0.317-0.204,0.499-0.204
		s0.348,0.068,0.498,0.204C517.055,317.139,517.13,317.313,517.13,317.524z M516.919,327.318h-1.027v-7.073h1.027V327.318z"/>
	<path fill="#FFFFFF" d="M523.417,321.923c-0.15-0.292-0.38-0.532-0.688-0.718c-0.307-0.186-0.657-0.279-1.05-0.279
		c-0.182,0-0.362,0.02-0.544,0.06c-0.182,0.041-0.343,0.106-0.484,0.197c-0.141,0.091-0.254,0.207-0.34,0.348
		s-0.129,0.307-0.129,0.499c0,0.333,0.137,0.587,0.408,0.763c0.272,0.177,0.701,0.325,1.285,0.446
		c0.836,0.172,1.453,0.421,1.852,0.749s0.598,0.769,0.598,1.322c0,0.403-0.079,0.743-0.234,1.021
		c-0.156,0.277-0.361,0.504-0.613,0.68c-0.252,0.177-0.536,0.303-0.854,0.378c-0.317,0.076-0.637,0.113-0.959,0.113
		c-0.535,0-1.054-0.111-1.558-0.333c-0.504-0.221-0.917-0.569-1.239-1.042l0.816-0.604c0.182,0.312,0.448,0.574,0.801,0.786
		s0.74,0.317,1.164,0.317c0.221,0,0.434-0.02,0.635-0.061c0.201-0.04,0.378-0.111,0.529-0.211c0.15-0.101,0.271-0.229,0.362-0.385
		s0.136-0.35,0.136-0.582c0-0.373-0.179-0.652-0.536-0.839c-0.358-0.187-0.874-0.36-1.55-0.521c-0.211-0.05-0.436-0.113-0.672-0.189
		c-0.237-0.076-0.456-0.186-0.658-0.333c-0.201-0.146-0.367-0.33-0.498-0.552c-0.131-0.221-0.197-0.499-0.197-0.831
		c0-0.363,0.07-0.673,0.213-0.93c0.141-0.257,0.329-0.468,0.566-0.635c0.236-0.166,0.506-0.29,0.809-0.37
		c0.302-0.081,0.614-0.121,0.937-0.121c0.493,0,0.973,0.111,1.437,0.333c0.463,0.222,0.811,0.534,1.043,0.937L523.417,321.923z"/>
	<path fill="#FFFFFF" d="M533.393,323.782c0,0.534-0.093,1.028-0.279,1.481c-0.187,0.454-0.446,0.847-0.778,1.179
		s-0.73,0.592-1.194,0.778c-0.464,0.186-0.972,0.279-1.526,0.279c-0.544,0-1.049-0.093-1.512-0.279
		c-0.463-0.187-0.861-0.446-1.193-0.778c-0.333-0.333-0.592-0.726-0.779-1.179c-0.186-0.453-0.279-0.947-0.279-1.481
		s0.094-1.028,0.279-1.481c0.188-0.453,0.446-0.846,0.779-1.179c0.332-0.333,0.73-0.592,1.193-0.778s0.968-0.28,1.512-0.28
		c0.555,0,1.062,0.093,1.526,0.28s0.862,0.446,1.194,0.778s0.592,0.726,0.778,1.179C533.3,322.754,533.393,323.248,533.393,323.782z
		 M532.305,323.782c0-0.393-0.063-0.763-0.188-1.111c-0.127-0.348-0.306-0.65-0.537-0.907c-0.232-0.257-0.514-0.461-0.847-0.612
		c-0.333-0.151-0.705-0.227-1.118-0.227c-0.414,0-0.783,0.075-1.111,0.227c-0.327,0.151-0.607,0.355-0.838,0.612
		c-0.232,0.257-0.411,0.559-0.537,0.907s-0.189,0.718-0.189,1.111s0.063,0.763,0.189,1.111s0.305,0.65,0.537,0.907
		c0.23,0.257,0.511,0.458,0.838,0.604c0.328,0.146,0.697,0.219,1.111,0.219c0.413,0,0.785-0.073,1.118-0.219
		c0.333-0.146,0.614-0.348,0.847-0.604c0.231-0.257,0.41-0.559,0.537-0.907C532.242,324.545,532.305,324.175,532.305,323.782z"/>
	<path fill="#FFFFFF" d="M535.585,321.061c-0.011-0.302-0.025-0.574-0.046-0.816h0.982c0.021,0.191,0.035,0.403,0.046,0.635
		c0.01,0.232,0.015,0.423,0.015,0.574h0.03c0.201-0.413,0.504-0.748,0.906-1.005c0.403-0.257,0.857-0.386,1.361-0.386
		c0.131,0,0.249,0.005,0.354,0.015c0.106,0.01,0.214,0.03,0.325,0.061l-0.137,0.982c-0.061-0.02-0.16-0.04-0.302-0.061
		c-0.142-0.02-0.282-0.03-0.423-0.03c-0.272,0-0.535,0.05-0.786,0.151c-0.252,0.101-0.472,0.259-0.657,0.475
		c-0.188,0.216-0.338,0.492-0.453,0.829c-0.117,0.337-0.174,0.742-0.174,1.214v3.619H535.6v-5.517
		C535.6,321.61,535.595,321.363,535.585,321.061z"/>
	<path fill="#FFFFFF" d="M544.804,321.923c-0.15-0.292-0.381-0.532-0.688-0.718c-0.308-0.186-0.658-0.279-1.051-0.279
		c-0.182,0-0.362,0.02-0.544,0.06c-0.181,0.041-0.343,0.106-0.483,0.197s-0.255,0.207-0.34,0.348
		c-0.086,0.141-0.129,0.307-0.129,0.499c0,0.333,0.137,0.587,0.408,0.763c0.271,0.177,0.7,0.325,1.285,0.446
		c0.836,0.172,1.453,0.421,1.852,0.749c0.397,0.328,0.597,0.769,0.597,1.322c0,0.403-0.079,0.743-0.234,1.021
		c-0.156,0.277-0.36,0.504-0.612,0.68c-0.252,0.177-0.537,0.303-0.854,0.378c-0.318,0.076-0.638,0.113-0.96,0.113
		c-0.534,0-1.054-0.111-1.558-0.333c-0.504-0.221-0.916-0.569-1.238-1.042l0.816-0.604c0.181,0.312,0.447,0.574,0.801,0.786
		c0.352,0.211,0.74,0.317,1.164,0.317c0.221,0,0.433-0.02,0.635-0.061c0.201-0.04,0.377-0.111,0.528-0.211s0.272-0.229,0.362-0.385
		c0.092-0.156,0.137-0.35,0.137-0.582c0-0.373-0.18-0.652-0.537-0.839s-0.874-0.36-1.549-0.521c-0.211-0.05-0.436-0.113-0.672-0.189
		c-0.238-0.076-0.457-0.186-0.658-0.333c-0.201-0.146-0.367-0.33-0.498-0.552c-0.132-0.221-0.197-0.499-0.197-0.831
		c0-0.363,0.07-0.673,0.212-0.93c0.141-0.257,0.329-0.468,0.566-0.635c0.237-0.166,0.507-0.29,0.809-0.37s0.614-0.121,0.937-0.121
		c0.494,0,0.973,0.111,1.437,0.333c0.464,0.222,0.812,0.534,1.043,0.937L544.804,321.923z"/>
	<path fill="#FFFFFF" d="M547.933,329.435h-0.861l1.012-3.552h1.074L547.933,329.435z"/>
	<path fill="#FFFFFF" d="M555.066,316.618h3.189c0.402,0,0.811,0.043,1.225,0.128c0.412,0.085,0.783,0.232,1.11,0.438
		s0.595,0.486,0.802,0.838c0.205,0.353,0.309,0.796,0.309,1.33c0,0.564-0.172,1.056-0.516,1.474
		c-0.345,0.418-0.806,0.693-1.383,0.824v0.03c0.693,0.081,1.27,0.351,1.727,0.809c0.457,0.459,0.687,1.081,0.687,1.867
		c0,0.443-0.093,0.849-0.279,1.217s-0.45,0.68-0.792,0.937s-0.76,0.456-1.252,0.597s-1.045,0.211-1.658,0.211h-3.168V316.618z
		 M556.154,321.303h2.192c0.262,0,0.526-0.03,0.794-0.09c0.266-0.061,0.511-0.164,0.732-0.31c0.222-0.146,0.4-0.34,0.537-0.582
		c0.135-0.242,0.203-0.539,0.203-0.892c0-0.342-0.068-0.632-0.203-0.869c-0.137-0.236-0.32-0.431-0.553-0.582
		c-0.231-0.151-0.504-0.259-0.816-0.325c-0.312-0.065-0.645-0.098-0.996-0.098h-1.891V321.303z M556.154,326.381h2.025
		c0.394,0,0.769-0.038,1.127-0.113c0.357-0.076,0.67-0.197,0.937-0.363c0.267-0.167,0.481-0.383,0.643-0.65s0.241-0.587,0.241-0.96
		c0-0.705-0.238-1.231-0.717-1.579c-0.479-0.348-1.156-0.521-2.033-0.521h-2.223V326.381z"/>
	<path fill="#FFFFFF" d="M571.646,323.782c0,0.534-0.094,1.028-0.279,1.481c-0.187,0.454-0.445,0.847-0.778,1.179
		s-0.731,0.592-1.194,0.778c-0.463,0.186-0.973,0.279-1.526,0.279c-0.544,0-1.048-0.093-1.511-0.279
		c-0.465-0.187-0.862-0.446-1.195-0.778c-0.332-0.333-0.592-0.726-0.777-1.179c-0.188-0.453-0.28-0.947-0.28-1.481
		s0.093-1.028,0.28-1.481c0.186-0.453,0.445-0.846,0.777-1.179c0.333-0.333,0.73-0.592,1.195-0.778
		c0.463-0.187,0.967-0.28,1.511-0.28c0.554,0,1.063,0.093,1.526,0.28s0.861,0.446,1.194,0.778s0.592,0.726,0.778,1.179
		C571.552,322.754,571.646,323.248,571.646,323.782z M570.558,323.782c0-0.393-0.062-0.763-0.189-1.111
		c-0.126-0.348-0.305-0.65-0.536-0.907c-0.231-0.257-0.515-0.461-0.847-0.612c-0.332-0.151-0.705-0.227-1.118-0.227
		s-0.784,0.075-1.11,0.227c-0.328,0.151-0.607,0.355-0.84,0.612c-0.231,0.257-0.41,0.559-0.536,0.907s-0.188,0.718-0.188,1.111
		s0.062,0.763,0.188,1.111s0.305,0.65,0.536,0.907c0.232,0.257,0.512,0.458,0.84,0.604c0.326,0.146,0.697,0.219,1.11,0.219
		s0.786-0.073,1.118-0.219c0.332-0.146,0.615-0.348,0.847-0.604s0.41-0.559,0.536-0.907
		C570.496,324.545,570.558,324.175,570.558,323.782z"/>
	<path fill="#FFFFFF" d="M578.992,327.318c-0.021-0.191-0.035-0.403-0.045-0.635c-0.011-0.232-0.016-0.423-0.016-0.574h-0.03
		c-0.202,0.413-0.528,0.748-0.982,1.005c-0.453,0.257-0.933,0.385-1.436,0.385c-0.897,0-1.569-0.267-2.019-0.801
		c-0.447-0.534-0.672-1.239-0.672-2.116v-4.337h1.027v3.915c0,0.373,0.031,0.71,0.092,1.013c0.06,0.302,0.163,0.562,0.309,0.778
		c0.146,0.217,0.343,0.385,0.59,0.506c0.247,0.121,0.557,0.181,0.93,0.181c0.271,0,0.537-0.055,0.793-0.166
		c0.258-0.111,0.486-0.28,0.688-0.506c0.202-0.227,0.363-0.514,0.484-0.862s0.182-0.758,0.182-1.231v-3.627h1.027v5.517
		c0,0.191,0.005,0.438,0.016,0.74c0.01,0.303,0.024,0.575,0.045,0.816H578.992z"/>
	<path fill="#FFFFFF" d="M583.556,320.245c0.02,0.191,0.035,0.403,0.045,0.635s0.016,0.423,0.016,0.574h0.03
		c0.201-0.413,0.528-0.748,0.982-1.005c0.453-0.257,0.932-0.386,1.436-0.386c0.897,0,1.569,0.267,2.019,0.801
		c0.447,0.534,0.672,1.239,0.672,2.116v4.338h-1.027v-3.915c0-0.373-0.031-0.71-0.091-1.013c-0.061-0.302-0.164-0.562-0.31-0.778
		c-0.146-0.217-0.344-0.385-0.59-0.506c-0.247-0.121-0.557-0.181-0.93-0.181c-0.271,0-0.537,0.055-0.793,0.166
		c-0.258,0.111-0.486,0.28-0.688,0.506c-0.202,0.227-0.363,0.514-0.484,0.861s-0.182,0.758-0.182,1.232v3.627h-1.027v-5.517
		c0-0.191-0.006-0.438-0.016-0.741s-0.025-0.574-0.045-0.816H583.556z"/>
	<path fill="#FFFFFF" d="M594.605,321.106h-1.996v4.126c0,0.262,0.025,0.479,0.076,0.65c0.051,0.172,0.123,0.305,0.219,0.401
		s0.209,0.161,0.34,0.196c0.131,0.036,0.272,0.053,0.424,0.053c0.141,0,0.289-0.02,0.445-0.06c0.156-0.041,0.305-0.096,0.446-0.167
		l0.046,0.892c-0.182,0.071-0.371,0.124-0.567,0.159s-0.411,0.053-0.642,0.053c-0.191,0-0.394-0.025-0.605-0.076
		c-0.211-0.05-0.408-0.146-0.59-0.287c-0.181-0.141-0.33-0.333-0.445-0.574c-0.115-0.242-0.174-0.56-0.174-0.952v-4.414h-1.466
		v-0.861h1.466v-1.995h1.027v1.995h1.996V321.106z"/>
	<path fill="#FFFFFF" d="M598.64,326.215h0.029l2.192-5.97h1.118l-3.521,8.902c-0.211,0.544-0.481,0.98-0.809,1.308
		c-0.328,0.327-0.799,0.491-1.413,0.491c-0.312,0-0.62-0.03-0.922-0.091l0.105-0.937c0.242,0.081,0.493,0.121,0.756,0.121
		c0.353,0,0.63-0.108,0.831-0.325s0.378-0.526,0.529-0.929l0.574-1.481l-3.023-7.058h1.149L598.64,326.215z"/>
	<path fill="#FFFFFF" d="M605.275,322.965c0-0.584-0.051-1.164-0.151-1.738c-0.101-0.575-0.239-1.128-0.415-1.663
		c-0.177-0.534-0.389-1.043-0.635-1.527c-0.248-0.483-0.512-0.927-0.794-1.33l0.786-0.499c0.312,0.423,0.604,0.889,0.877,1.398
		c0.271,0.509,0.506,1.053,0.702,1.632c0.196,0.58,0.351,1.184,0.461,1.814s0.167,1.267,0.167,1.912
		c0,0.655-0.057,1.295-0.167,1.919c-0.11,0.625-0.265,1.227-0.461,1.806c-0.196,0.58-0.431,1.124-0.702,1.632
		c-0.273,0.509-0.564,0.975-0.877,1.398l-0.786-0.499c0.282-0.403,0.546-0.846,0.794-1.33c0.246-0.483,0.458-0.992,0.635-1.526
		c0.176-0.534,0.314-1.088,0.415-1.663S605.275,323.55,605.275,322.965z"/>
</g>
<polygon fill="#ED1C24" points="642.857,441.987 343.116,441.987 322.193,478.735 642.857,478.735 "/>
<g>
	<path fill="#FFFFFF" d="M355.279,468.802v-13.568l-3.443,2.661l-2.271-3.104l6.077-4.463h3.994v18.475H355.279z"/>
	<path fill="#FFFFFF" d="M380.407,459.513c0,1.305-0.13,2.548-0.392,3.73c-0.261,1.184-0.678,2.223-1.252,3.119
		c-0.574,0.896-1.318,1.608-2.231,2.139c-0.913,0.531-2.022,0.796-3.327,0.796s-2.418-0.265-3.34-0.796
		c-0.922-0.53-1.674-1.243-2.256-2.139c-0.584-0.896-1.006-1.936-1.266-3.119c-0.262-1.183-0.393-2.426-0.393-3.73
		s0.131-2.545,0.393-3.719c0.26-1.174,0.682-2.2,1.266-3.079c0.582-0.878,1.334-1.579,2.256-2.101s2.035-0.783,3.34-0.783
		s2.414,0.262,3.327,0.783s1.657,1.223,2.231,2.101c0.574,0.879,0.991,1.905,1.252,3.079
		C380.277,456.968,380.407,458.208,380.407,459.513z M375.919,459.513c0-0.574-0.035-1.209-0.105-1.905
		c-0.069-0.696-0.199-1.344-0.391-1.944c-0.191-0.6-0.466-1.104-0.822-1.514c-0.357-0.408-0.822-0.613-1.396-0.613
		s-1.043,0.205-1.408,0.613c-0.365,0.41-0.648,0.914-0.848,1.514c-0.201,0.601-0.336,1.248-0.405,1.944s-0.104,1.331-0.104,1.905
		c0,0.591,0.035,1.238,0.104,1.943s0.204,1.357,0.405,1.957c0.199,0.6,0.482,1.105,0.848,1.514s0.834,0.613,1.408,0.613
		s1.039-0.205,1.396-0.613c0.356-0.408,0.631-0.914,0.822-1.514s0.321-1.252,0.391-1.957
		C375.884,460.751,375.919,460.104,375.919,459.513z"/>
	<path fill="#FFFFFF" d="M392.279,454.946c0,0.678-0.131,1.317-0.391,1.918c-0.262,0.6-0.613,1.121-1.057,1.564
		c-0.444,0.444-0.971,0.797-1.58,1.057c-0.608,0.262-1.252,0.393-1.93,0.393c-0.679,0-1.322-0.131-1.932-0.393
		c-0.609-0.26-1.135-0.612-1.578-1.057c-0.443-0.443-0.796-0.965-1.057-1.564c-0.262-0.601-0.392-1.24-0.392-1.918
		c0-0.695,0.13-1.344,0.392-1.944c0.261-0.601,0.613-1.122,1.057-1.565s0.969-0.791,1.578-1.044
		c0.609-0.252,1.253-0.378,1.932-0.378c0.678,0,1.321,0.126,1.93,0.378c0.609,0.253,1.136,0.601,1.58,1.044
		c0.443,0.443,0.795,0.965,1.057,1.565C392.148,453.603,392.279,454.251,392.279,454.946z M389.357,454.946
		c0-0.557-0.201-1.035-0.601-1.436c-0.4-0.4-0.878-0.6-1.435-0.6c-0.558,0-1.035,0.199-1.436,0.6s-0.6,0.879-0.6,1.436
		s0.199,1.03,0.6,1.422c0.4,0.391,0.878,0.587,1.436,0.587c0.557,0,1.034-0.196,1.435-0.587
		C389.156,455.977,389.357,455.503,389.357,454.946z M389.331,469.688l-2.322-1.148l10.776-19.047l2.427,1.174L389.331,469.688z
		 M404.804,464.183c0,0.679-0.131,1.318-0.393,1.918c-0.26,0.6-0.613,1.122-1.057,1.565c-0.443,0.444-0.969,0.796-1.578,1.058
		c-0.609,0.26-1.252,0.391-1.932,0.391c-0.678,0-1.321-0.131-1.93-0.391c-0.609-0.262-1.136-0.613-1.579-1.058
		c-0.443-0.443-0.796-0.966-1.057-1.565s-0.392-1.239-0.392-1.918c0-0.678,0.131-1.317,0.392-1.918
		c0.261-0.6,0.613-1.121,1.057-1.565c0.443-0.443,0.97-0.796,1.579-1.057c0.608-0.261,1.252-0.392,1.93-0.392
		c0.68,0,1.322,0.131,1.932,0.392s1.135,0.613,1.578,1.057c0.443,0.444,0.797,0.966,1.057,1.565
		C404.673,462.865,404.804,463.505,404.804,464.183z M401.881,464.183c0-0.277-0.057-0.543-0.17-0.795s-0.261-0.471-0.443-0.652
		c-0.183-0.184-0.396-0.326-0.64-0.432c-0.244-0.104-0.504-0.156-0.783-0.156c-0.557,0-1.035,0.2-1.435,0.6
		c-0.4,0.4-0.601,0.879-0.601,1.436s0.2,1.031,0.601,1.422c0.399,0.392,0.878,0.588,1.435,0.588c0.279,0,0.539-0.053,0.783-0.156
		c0.244-0.105,0.457-0.248,0.64-0.432c0.183-0.182,0.33-0.395,0.443-0.639S401.881,464.462,401.881,464.183z"/>
</g>
<g>
	<path fill="#FFFFFF" d="M419.596,469.011h-1.714v-16.859h4.952c0.825,0,1.591,0.08,2.298,0.238s1.318,0.416,1.834,0.773
		s0.916,0.822,1.202,1.394s0.429,1.271,0.429,2.095c0,0.619-0.111,1.184-0.334,1.691c-0.222,0.508-0.523,0.949-0.904,1.321
		c-0.381,0.373-0.834,0.671-1.357,0.894s-1.096,0.365-1.715,0.428l4.93,8.025h-2.096l-4.667-7.883h-2.857V469.011z M419.596,459.652
		h2.977c1.382,0,2.444-0.25,3.19-0.75s1.119-1.251,1.119-2.251c0-0.555-0.104-1.023-0.309-1.404
		c-0.207-0.381-0.492-0.69-0.857-0.929s-0.811-0.413-1.334-0.524c-0.523-0.11-1.104-0.166-1.738-0.166h-3.048V459.652z"/>
	<path fill="#FFFFFF" d="M441.908,463.104c0,0.111,0,0.23,0,0.357s-0.008,0.262-0.023,0.404h-9.239
		c0.016,0.557,0.127,1.08,0.333,1.572c0.207,0.492,0.492,0.921,0.857,1.285c0.365,0.366,0.794,0.655,1.286,0.869
		c0.491,0.215,1.024,0.322,1.595,0.322c0.842,0,1.568-0.194,2.18-0.584c0.611-0.389,1.075-0.836,1.393-1.345l1.215,0.952
		c-0.667,0.842-1.401,1.445-2.203,1.811c-0.801,0.364-1.662,0.547-2.584,0.547c-0.824,0-1.591-0.146-2.297-0.44
		c-0.707-0.294-1.314-0.702-1.822-1.226c-0.508-0.524-0.908-1.144-1.202-1.857c-0.294-0.715-0.44-1.492-0.44-2.334
		s0.143-1.619,0.429-2.334c0.286-0.714,0.683-1.333,1.19-1.857c0.508-0.523,1.104-0.932,1.786-1.227
		c0.683-0.293,1.421-0.439,2.214-0.439c0.873,0,1.644,0.146,2.311,0.439c0.666,0.295,1.222,0.691,1.666,1.191
		c0.445,0.5,0.782,1.083,1.012,1.75C441.792,461.628,441.908,462.343,441.908,463.104z M440.265,462.581
		c-0.048-1.048-0.385-1.917-1.012-2.607c-0.628-0.69-1.521-1.035-2.68-1.035c-0.539,0-1.039,0.099-1.5,0.297
		c-0.461,0.199-0.865,0.469-1.215,0.81c-0.349,0.342-0.627,0.73-0.832,1.167c-0.207,0.438-0.326,0.893-0.357,1.369H440.265z"/>
	<path fill="#FFFFFF" d="M451.314,460.509c-0.238-0.459-0.6-0.836-1.084-1.131c-0.484-0.293-1.035-0.439-1.654-0.439
		c-0.286,0-0.572,0.031-0.857,0.095c-0.286,0.063-0.541,0.167-0.762,0.31c-0.223,0.143-0.402,0.326-0.537,0.547
		c-0.135,0.223-0.201,0.485-0.201,0.787c0,0.523,0.214,0.924,0.643,1.201c0.428,0.279,1.104,0.513,2.023,0.703
		c1.318,0.27,2.29,0.663,2.918,1.179c0.626,0.517,0.939,1.21,0.939,2.083c0,0.636-0.123,1.172-0.369,1.607
		c-0.246,0.438-0.567,0.795-0.964,1.072c-0.397,0.277-0.845,0.477-1.345,0.595c-0.5,0.119-1.005,0.179-1.513,0.179
		c-0.842,0-1.659-0.175-2.452-0.523c-0.795-0.35-1.445-0.896-1.953-1.644l1.286-0.952c0.286,0.492,0.706,0.904,1.262,1.238
		c0.556,0.333,1.167,0.5,1.833,0.5c0.35,0,0.684-0.031,1-0.096c0.318-0.062,0.596-0.174,0.834-0.333s0.429-0.36,0.572-0.607
		c0.143-0.245,0.213-0.552,0.213-0.917c0-0.587-0.281-1.027-0.845-1.321s-1.378-0.567-2.44-0.821
		c-0.334-0.079-0.688-0.179-1.06-0.298c-0.374-0.119-0.719-0.294-1.036-0.524c-0.317-0.229-0.58-0.52-0.785-0.869
		c-0.207-0.348-0.311-0.785-0.311-1.309c0-0.572,0.111-1.061,0.334-1.465s0.52-0.738,0.893-1s0.798-0.456,1.273-0.584
		c0.477-0.127,0.969-0.189,1.477-0.189c0.778,0,1.532,0.174,2.263,0.523c0.729,0.35,1.277,0.842,1.644,1.477L451.314,460.509z"/>
	<path fill="#FFFFFF" d="M466.101,463.104c0,0.111,0,0.23,0,0.357s-0.009,0.262-0.024,0.404h-9.239
		c0.016,0.557,0.127,1.08,0.334,1.572c0.205,0.492,0.491,0.921,0.857,1.285c0.364,0.366,0.793,0.655,1.285,0.869
		c0.492,0.215,1.023,0.322,1.596,0.322c0.841,0,1.567-0.194,2.179-0.584c0.61-0.389,1.075-0.836,1.393-1.345l1.214,0.952
		c-0.666,0.842-1.4,1.445-2.201,1.811c-0.803,0.364-1.664,0.547-2.584,0.547c-0.826,0-1.592-0.146-2.299-0.44
		c-0.706-0.294-1.312-0.702-1.82-1.226c-0.509-0.524-0.91-1.144-1.203-1.857c-0.294-0.715-0.44-1.492-0.44-2.334
		s0.144-1.619,0.429-2.334c0.285-0.714,0.682-1.333,1.19-1.857c0.508-0.523,1.103-0.932,1.786-1.227
		c0.682-0.293,1.42-0.439,2.215-0.439c0.872,0,1.643,0.146,2.309,0.439c0.668,0.295,1.223,0.691,1.668,1.191
		c0.443,0.5,0.781,1.083,1.012,1.75C465.985,461.628,466.101,462.343,466.101,463.104z M464.458,462.581
		c-0.048-1.048-0.386-1.917-1.013-2.607s-1.52-1.035-2.678-1.035c-0.541,0-1.041,0.099-1.5,0.297
		c-0.461,0.199-0.866,0.469-1.215,0.81c-0.35,0.342-0.627,0.73-0.834,1.167c-0.206,0.438-0.325,0.893-0.357,1.369H464.458z"/>
	<path fill="#FFFFFF" d="M469.552,459.152c-0.016-0.477-0.039-0.905-0.07-1.286h1.547c0.032,0.302,0.056,0.635,0.072,1
		c0.016,0.365,0.023,0.667,0.023,0.905h0.047c0.318-0.651,0.795-1.179,1.43-1.583c0.635-0.405,1.349-0.607,2.143-0.607
		c0.206,0,0.393,0.008,0.56,0.023s0.337,0.047,0.513,0.096l-0.215,1.547c-0.096-0.031-0.254-0.062-0.477-0.095
		s-0.444-0.048-0.666-0.048c-0.43,0-0.842,0.079-1.238,0.238c-0.397,0.158-0.742,0.407-1.036,0.748
		c-0.294,0.34-0.532,0.775-0.714,1.307c-0.184,0.529-0.274,1.168-0.274,1.912v5.701h-1.619v-8.691
		C469.577,460.018,469.568,459.628,469.552,459.152z"/>
	<path fill="#FFFFFF" d="M482.72,469.011h-1.785l-4.549-11.145h1.811l3.619,9.43h0.047l3.644-9.43h1.738L482.72,469.011z"/>
	<path fill="#FFFFFF" d="M499.913,463.104c0,0.111,0,0.23,0,0.357s-0.009,0.262-0.024,0.404h-9.238
		c0.016,0.557,0.127,1.08,0.333,1.572s0.491,0.921,0.857,1.285c0.364,0.366,0.794,0.655,1.286,0.869
		c0.491,0.215,1.023,0.322,1.595,0.322c0.841,0,1.567-0.194,2.179-0.584c0.611-0.389,1.076-0.836,1.393-1.345l1.215,0.952
		c-0.666,0.842-1.4,1.445-2.202,1.811c-0.802,0.364-1.663,0.547-2.584,0.547c-0.825,0-1.591-0.146-2.298-0.44
		s-1.313-0.702-1.821-1.226c-0.509-0.524-0.909-1.144-1.202-1.857c-0.295-0.715-0.441-1.492-0.441-2.334s0.144-1.619,0.43-2.334
		c0.285-0.714,0.682-1.333,1.189-1.857c0.508-0.523,1.104-0.932,1.787-1.227c0.682-0.293,1.42-0.439,2.214-0.439
		c0.872,0,1.644,0.146,2.31,0.439c0.667,0.295,1.223,0.691,1.667,1.191s0.782,1.083,1.012,1.75
		C499.796,461.628,499.913,462.343,499.913,463.104z M498.269,462.581c-0.047-1.048-0.385-1.917-1.012-2.607
		s-1.52-1.035-2.679-1.035c-0.54,0-1.04,0.099-1.5,0.297c-0.461,0.199-0.866,0.469-1.215,0.81c-0.349,0.342-0.627,0.73-0.833,1.167
		c-0.207,0.438-0.326,0.893-0.357,1.369H498.269z"/>
	<path fill="#FFFFFF" d="M511.151,469.011h-1.714v-16.859h10.167v1.523h-8.453v5.834h7.858v1.524h-7.858V469.011z"/>
	<path fill="#FFFFFF" d="M529.82,469.011c-0.032-0.302-0.057-0.635-0.072-1s-0.023-0.668-0.023-0.905h-0.047
		c-0.318,0.651-0.834,1.179-1.549,1.583c-0.714,0.405-1.468,0.607-2.262,0.607c-1.413,0-2.473-0.42-3.179-1.262
		s-1.06-1.953-1.06-3.334v-6.834h1.619v6.168c0,0.587,0.048,1.119,0.143,1.595c0.096,0.476,0.258,0.886,0.488,1.227
		s0.539,0.606,0.929,0.798c0.39,0.189,0.877,0.285,1.464,0.285c0.43,0,0.846-0.087,1.251-0.262c0.405-0.174,0.766-0.44,1.083-0.798
		c0.317-0.356,0.572-0.81,0.762-1.356c0.191-0.549,0.286-1.195,0.286-1.941v-5.715h1.619v8.691c0,0.302,0.008,0.69,0.024,1.167
		c0.016,0.476,0.039,0.905,0.07,1.286H529.82z"/>
	<path fill="#FFFFFF" d="M537.011,457.866c0.031,0.302,0.055,0.635,0.07,1s0.024,0.667,0.024,0.905h0.048
		c0.316-0.651,0.833-1.179,1.547-1.583c0.715-0.405,1.469-0.607,2.263-0.607c1.413,0,2.472,0.42,3.179,1.262s1.06,1.953,1.06,3.334
		v6.834h-1.619v-6.168c0-0.587-0.048-1.119-0.143-1.596c-0.095-0.476-0.259-0.885-0.488-1.226c-0.23-0.341-0.54-0.607-0.929-0.798
		s-0.877-0.285-1.465-0.285c-0.428,0-0.845,0.087-1.25,0.262c-0.404,0.174-0.766,0.439-1.083,0.797s-0.571,0.811-0.763,1.357
		c-0.189,0.548-0.285,1.195-0.285,1.941v5.715h-1.619v-8.691c0-0.302-0.008-0.691-0.023-1.167c-0.017-0.477-0.04-0.905-0.072-1.286
		H537.011z"/>
	<path fill="#FFFFFF" d="M558.56,467.129c-0.477,0.714-1.096,1.255-1.857,1.62c-0.762,0.364-1.548,0.547-2.357,0.547
		c-0.873,0-1.663-0.15-2.369-0.452c-0.707-0.302-1.31-0.714-1.81-1.238s-0.89-1.144-1.167-1.857s-0.416-1.484-0.416-2.31
		s0.139-1.596,0.416-2.311c0.277-0.714,0.667-1.333,1.167-1.857c0.5-0.523,1.103-0.936,1.81-1.237
		c0.706-0.302,1.496-0.452,2.369-0.452c0.81,0,1.596,0.187,2.357,0.559c0.762,0.373,1.381,0.926,1.857,1.655h0.048v-8.786h1.619
		v18.002h-1.619v-1.882H558.56z M550.297,463.438c0,0.619,0.095,1.202,0.286,1.75c0.189,0.548,0.464,1.023,0.821,1.429
		c0.356,0.405,0.798,0.723,1.321,0.952c0.523,0.23,1.119,0.346,1.786,0.346c0.619,0,1.19-0.115,1.714-0.346
		c0.524-0.229,0.977-0.543,1.357-0.94c0.381-0.396,0.68-0.869,0.893-1.417c0.215-0.547,0.322-1.139,0.322-1.773
		s-0.107-1.227-0.322-1.773c-0.213-0.549-0.512-1.024-0.893-1.43c-0.381-0.404-0.833-0.722-1.357-0.952
		c-0.523-0.229-1.095-0.345-1.714-0.345c-0.667,0-1.263,0.119-1.786,0.356c-0.523,0.238-0.965,0.56-1.321,0.964
		c-0.357,0.405-0.632,0.882-0.821,1.43C550.392,462.235,550.297,462.819,550.297,463.438z"/>
</g>
</svg>
