<?xml version="1.0" encoding="utf-8"?>
<!-- Generator: Adobe Illustrator 16.0.0, SVG Export Plug-In . SVG Version: 6.00 Build 0)  -->
<!DOCTYPE svg PUBLIC "-//W3C//DTD SVG 1.1//EN" "http://www.w3.org/Graphics/SVG/1.1/DTD/svg11.dtd">
<svg version="1.1" id="Layer_1" xmlns="http://www.w3.org/2000/svg" xmlns:xlink="http://www.w3.org/1999/xlink" x="0px" y="0px"
	 width="595.28px" height="190.667px" viewBox="0 0 595.28 190.667" enable-background="new 0 0 595.28 190.667"
	 xml:space="preserve">
<path fill-rule="evenodd" clip-rule="evenodd" fill="#00668E" d="M209.159,93.41c0-41.975,34.026-76,76-76
	c9.578,0,19.07,1.811,27.977,5.336l-13.988,35.332c-19.514-7.725-41.594,1.83-49.32,21.344c-1.764,4.453-2.669,9.199-2.669,13.988
	H209.159z"/>
<path fill-rule="evenodd" clip-rule="evenodd" fill="#008CC2" d="M311.966,30.789c28.984,11.477,48.023,39.489,48.023,70.663h-38
	c0-15.587-9.52-29.593-24.012-35.331L311.966,30.789z"/>
<path fill-rule="evenodd" clip-rule="evenodd" fill="#00A1DF" d="M359.104,103.065c0,32.925-21.201,62.106-52.515,72.28
	l-11.742-36.141c15.656-5.087,26.258-19.678,26.258-36.14H359.104z"/>
<path fill-rule="evenodd" clip-rule="evenodd" fill="#99BDE4" d="M303.854,172.298c-24.743,8.039-51.881,2.863-71.929-13.722
	l24.223-29.28c10.023,8.293,23.593,10.881,35.965,6.861L303.854,172.298z"/>
<path fill-rule="evenodd" clip-rule="evenodd" fill="#CCCDE7" d="M234.039,153.64c-17.453-14.439-27.556-35.909-27.556-58.56h38
	c0,11.324,5.052,22.061,13.777,29.278L234.039,153.64z"/>
<polygon fill="#ED1C24" points="0,42.395 239.081,42.395 248.706,59.293 0,59.293 "/>
<g>
	<path fill="#FFFFFF" d="M220.022,52.258c0,0.463-0.094,0.865-0.282,1.204c-0.188,0.34-0.434,0.619-0.738,0.839
		c-0.304,0.22-0.646,0.384-1.026,0.492c-0.38,0.107-0.766,0.162-1.158,0.162c-0.384,0-0.758-0.044-1.122-0.132
		c-0.364-0.088-0.696-0.222-0.996-0.402c-0.3-0.18-0.562-0.412-0.786-0.696c-0.224-0.284-0.392-0.626-0.504-1.026l1.872-0.492
		c0.08,0.28,0.244,0.526,0.492,0.738c0.248,0.212,0.564,0.318,0.948,0.318c0.144,0,0.29-0.02,0.438-0.06s0.28-0.102,0.396-0.186
		c0.116-0.084,0.212-0.194,0.288-0.33c0.076-0.136,0.114-0.304,0.114-0.504c0-0.216-0.05-0.396-0.15-0.54
		c-0.101-0.144-0.232-0.258-0.396-0.342c-0.164-0.084-0.35-0.144-0.558-0.18s-0.416-0.054-0.624-0.054h-0.54v-1.464h0.588
		c0.192,0,0.376-0.014,0.552-0.042c0.176-0.028,0.333-0.081,0.474-0.157c0.14-0.076,0.252-0.179,0.336-0.308
		c0.084-0.129,0.126-0.298,0.126-0.507c0-0.306-0.108-0.539-0.324-0.7s-0.464-0.242-0.744-0.242c-0.288,0-0.538,0.086-0.75,0.258
		c-0.212,0.172-0.35,0.402-0.414,0.69l-1.872-0.432c0.104-0.36,0.26-0.674,0.468-0.942s0.454-0.492,0.738-0.672
		c0.284-0.18,0.594-0.316,0.93-0.408s0.68-0.138,1.032-0.138c0.376,0,0.742,0.048,1.098,0.145s0.674,0.244,0.954,0.444
		c0.28,0.201,0.506,0.451,0.678,0.751c0.172,0.3,0.258,0.655,0.258,1.063c0,0.473-0.134,0.872-0.402,1.196
		c-0.268,0.324-0.61,0.543-1.026,0.655v0.036c0.24,0.056,0.46,0.146,0.66,0.27c0.2,0.124,0.372,0.272,0.516,0.443
		c0.144,0.172,0.256,0.364,0.336,0.575C219.982,51.793,220.022,52.019,220.022,52.258z"/>
	<path fill="#FFFFFF" d="M224.174,54.727v-6.24l-1.584,1.224l-1.044-1.428l2.795-2.052h1.837v8.496H224.174z"/>
	<path fill="#FFFFFF" d="M233.438,48.354c0,0.312-0.06,0.606-0.18,0.882c-0.12,0.276-0.282,0.516-0.486,0.72
		c-0.204,0.204-0.446,0.366-0.726,0.486c-0.28,0.12-0.576,0.18-0.888,0.18s-0.608-0.06-0.888-0.18
		c-0.28-0.12-0.522-0.282-0.726-0.486c-0.204-0.204-0.366-0.444-0.486-0.72c-0.12-0.276-0.18-0.57-0.18-0.882
		c0-0.32,0.06-0.618,0.18-0.894c0.12-0.276,0.282-0.516,0.486-0.72c0.204-0.204,0.446-0.364,0.726-0.48
		c0.28-0.116,0.576-0.174,0.888-0.174s0.608,0.058,0.888,0.174c0.28,0.116,0.522,0.276,0.726,0.48
		c0.204,0.204,0.366,0.444,0.486,0.72S233.438,48.035,233.438,48.354z M232.094,48.354c0-0.256-0.092-0.476-0.276-0.66
		c-0.184-0.184-0.404-0.276-0.66-0.276s-0.476,0.092-0.66,0.276c-0.184,0.185-0.276,0.404-0.276,0.66
		c0,0.256,0.092,0.474,0.276,0.654c0.184,0.18,0.404,0.27,0.66,0.27s0.476-0.09,0.66-0.27
		C232.002,48.829,232.094,48.611,232.094,48.354z M232.082,55.135l-1.068-0.528l4.956-8.76l1.116,0.54L232.082,55.135z
		 M239.198,52.603c0,0.312-0.06,0.606-0.18,0.882c-0.12,0.276-0.282,0.516-0.486,0.72s-0.446,0.366-0.726,0.486
		c-0.28,0.12-0.576,0.18-0.888,0.18s-0.608-0.06-0.888-0.18c-0.28-0.12-0.522-0.282-0.726-0.486s-0.366-0.444-0.486-0.72
		c-0.12-0.276-0.18-0.57-0.18-0.882s0.06-0.606,0.18-0.882c0.12-0.276,0.282-0.516,0.486-0.72s0.446-0.366,0.726-0.486
		c0.28-0.12,0.576-0.18,0.888-0.18s0.608,0.06,0.888,0.18c0.28,0.12,0.522,0.282,0.726,0.486s0.366,0.444,0.486,0.72
		C239.138,51.997,239.198,52.291,239.198,52.603z M237.854,52.603c0-0.128-0.026-0.25-0.078-0.366
		c-0.052-0.116-0.12-0.216-0.204-0.3s-0.182-0.15-0.294-0.198c-0.112-0.048-0.232-0.072-0.36-0.072c-0.256,0-0.476,0.092-0.66,0.276
		c-0.184,0.184-0.276,0.404-0.276,0.66c0,0.256,0.092,0.474,0.276,0.654c0.184,0.18,0.404,0.27,0.66,0.27
		c0.128,0,0.248-0.024,0.36-0.072c0.112-0.048,0.21-0.114,0.294-0.198s0.152-0.182,0.204-0.294
		C237.828,52.851,237.854,52.73,237.854,52.603z"/>
</g>
<g>
	<path fill="#FFFFFF" d="M120.211,53.486h0.011l2.595-6.417h1.205v7.753h-0.789v-6.735h-0.022l-2.804,6.735h-0.416l-2.803-6.735
		h-0.022v6.735h-0.789v-7.753h1.205L120.211,53.486z"/>
	<path fill="#FFFFFF" d="M129.268,51.505c0-0.442-0.117-0.771-0.351-0.989c-0.234-0.217-0.573-0.326-1.019-0.326
		c-0.307,0-0.591,0.055-0.854,0.165c-0.263,0.109-0.486,0.255-0.668,0.438l-0.417-0.493c0.212-0.211,0.491-0.387,0.838-0.525
		s0.739-0.208,1.177-0.208c0.277,0,0.537,0.038,0.777,0.115c0.241,0.077,0.453,0.192,0.635,0.345s0.325,0.347,0.427,0.58
		c0.102,0.234,0.153,0.508,0.153,0.822v2.245c0,0.197,0.007,0.402,0.022,0.613c0.015,0.212,0.036,0.391,0.065,0.537h-0.668
		c-0.022-0.124-0.04-0.259-0.055-0.405s-0.022-0.288-0.022-0.427h-0.022c-0.233,0.343-0.498,0.589-0.794,0.739
		c-0.295,0.15-0.651,0.225-1.067,0.225c-0.197,0-0.4-0.027-0.608-0.082c-0.208-0.055-0.398-0.145-0.569-0.27
		c-0.172-0.125-0.314-0.286-0.427-0.483s-0.169-0.439-0.169-0.725c0-0.396,0.1-0.709,0.301-0.939s0.469-0.403,0.805-0.517
		c0.335-0.113,0.721-0.187,1.155-0.22c0.434-0.033,0.885-0.049,1.353-0.049V51.505z M129.048,52.259
		c-0.307,0-0.615,0.013-0.925,0.038c-0.311,0.026-0.591,0.077-0.843,0.153s-0.458,0.188-0.619,0.334s-0.241,0.339-0.241,0.58
		c0,0.183,0.035,0.336,0.104,0.46c0.069,0.125,0.163,0.225,0.279,0.301s0.247,0.131,0.389,0.164
		c0.142,0.033,0.286,0.049,0.432,0.049c0.263,0,0.497-0.045,0.701-0.137c0.204-0.091,0.376-0.215,0.515-0.373
		c0.139-0.157,0.245-0.337,0.317-0.542c0.073-0.204,0.11-0.419,0.11-0.646v-0.383H129.048z"/>
	<path fill="#FFFFFF" d="M131.874,50.288c-0.007-0.219-0.018-0.416-0.033-0.591h0.712c0.014,0.139,0.025,0.292,0.033,0.46
		s0.011,0.307,0.011,0.416h0.022c0.146-0.299,0.365-0.542,0.657-0.728c0.292-0.187,0.62-0.279,0.985-0.279
		c0.095,0,0.181,0.004,0.257,0.011c0.077,0.007,0.155,0.022,0.235,0.044l-0.098,0.712c-0.044-0.015-0.117-0.029-0.219-0.044
		c-0.103-0.015-0.205-0.022-0.307-0.022c-0.197,0-0.387,0.037-0.569,0.109c-0.183,0.073-0.341,0.188-0.477,0.344
		c-0.135,0.156-0.245,0.356-0.329,0.601s-0.125,0.538-0.125,0.879v2.622h-0.745v-3.997
		C131.885,50.686,131.881,50.507,131.874,50.288z"/>
	<path fill="#FFFFFF" d="M136.593,52.007h0.033l2.365-2.311h1.073l-2.584,2.343l2.847,2.782h-1.095l-2.606-2.694h-0.033v2.694
		h-0.745v-8.279h0.745V52.007z"/>
	<path fill="#FFFFFF" d="M145.88,52.106c0,0.051,0,0.106,0,0.164c0,0.059-0.004,0.121-0.011,0.187h-4.249
		c0.007,0.255,0.059,0.497,0.153,0.723c0.095,0.227,0.227,0.423,0.395,0.591c0.167,0.168,0.365,0.301,0.591,0.4
		c0.226,0.098,0.471,0.147,0.733,0.147c0.387,0,0.721-0.089,1.002-0.268c0.281-0.179,0.495-0.385,0.641-0.619l0.559,0.438
		c-0.307,0.387-0.644,0.665-1.013,0.832c-0.369,0.168-0.765,0.252-1.188,0.252c-0.379,0-0.732-0.067-1.057-0.203
		c-0.325-0.135-0.604-0.323-0.838-0.564c-0.233-0.241-0.418-0.525-0.553-0.854c-0.135-0.329-0.203-0.686-0.203-1.073
		c0-0.387,0.065-0.745,0.197-1.073c0.131-0.329,0.313-0.613,0.547-0.854c0.233-0.241,0.507-0.429,0.821-0.564
		s0.653-0.203,1.019-0.203c0.401,0,0.755,0.067,1.062,0.203s0.562,0.317,0.767,0.547s0.359,0.499,0.465,0.805
		S145.88,51.755,145.88,52.106z M145.124,51.865c-0.022-0.482-0.177-0.882-0.465-1.199c-0.289-0.318-0.699-0.477-1.232-0.477
		c-0.249,0-0.479,0.046-0.69,0.137c-0.212,0.091-0.398,0.215-0.559,0.372c-0.161,0.157-0.289,0.336-0.383,0.537
		s-0.15,0.411-0.164,0.63H145.124z"/>
	<path fill="#FFFFFF" d="M149.79,50.321h-1.446v2.99c0,0.19,0.018,0.347,0.055,0.471c0.037,0.125,0.089,0.221,0.159,0.291
		c0.069,0.069,0.151,0.117,0.246,0.142c0.095,0.026,0.197,0.039,0.307,0.039c0.102,0,0.21-0.015,0.323-0.044
		c0.113-0.029,0.221-0.069,0.323-0.121l0.033,0.646c-0.131,0.051-0.269,0.089-0.411,0.115c-0.143,0.025-0.298,0.039-0.466,0.039
		c-0.139,0-0.285-0.019-0.438-0.055c-0.153-0.036-0.295-0.105-0.427-0.208c-0.131-0.102-0.239-0.241-0.323-0.416
		s-0.126-0.405-0.126-0.69v-3.198h-1.062v-0.624h1.062v-1.445h0.745v1.445h1.446V50.321z"/>
	<path fill="#FFFFFF" d="M151.859,47.726c0,0.153-0.055,0.279-0.164,0.378c-0.11,0.099-0.23,0.148-0.362,0.148
		c-0.131,0-0.251-0.049-0.361-0.148c-0.109-0.099-0.164-0.225-0.164-0.378s0.055-0.279,0.164-0.378
		c0.11-0.099,0.23-0.147,0.361-0.147c0.132,0,0.252,0.049,0.362,0.147C151.804,47.446,151.859,47.572,151.859,47.726z
		 M151.706,54.822h-0.745v-5.125h0.745V54.822z"/>
	<path fill="#FFFFFF" d="M154.356,49.697c0.014,0.139,0.025,0.292,0.033,0.46s0.011,0.307,0.011,0.416h0.022
		c0.146-0.299,0.383-0.542,0.712-0.728c0.329-0.187,0.675-0.279,1.04-0.279c0.65,0,1.137,0.193,1.462,0.58
		c0.325,0.387,0.487,0.898,0.487,1.533v3.143h-0.745v-2.836c0-0.27-0.022-0.515-0.066-0.733c-0.044-0.219-0.119-0.407-0.225-0.564
		c-0.106-0.157-0.248-0.279-0.427-0.367c-0.179-0.087-0.404-0.131-0.674-0.131c-0.197,0-0.389,0.041-0.575,0.121
		c-0.186,0.081-0.353,0.203-0.499,0.367c-0.146,0.165-0.263,0.373-0.35,0.625c-0.088,0.251-0.131,0.549-0.131,0.892v2.628h-0.745
		v-3.997c0-0.139-0.003-0.317-0.011-0.537c-0.007-0.219-0.018-0.416-0.033-0.591H154.356z"/>
	<path fill="#FFFFFF" d="M160.324,55.851c0.205,0.263,0.483,0.485,0.838,0.668c0.354,0.183,0.728,0.274,1.123,0.274
		c0.365,0,0.675-0.053,0.931-0.159c0.255-0.106,0.461-0.25,0.619-0.433c0.157-0.183,0.272-0.396,0.345-0.641
		c0.073-0.245,0.109-0.506,0.109-0.783v-0.963h-0.022c-0.197,0.321-0.477,0.569-0.838,0.745s-0.728,0.263-1.101,0.263
		c-0.401,0-0.765-0.066-1.089-0.197c-0.325-0.131-0.603-0.312-0.833-0.542s-0.409-0.505-0.537-0.827
		c-0.127-0.321-0.191-0.668-0.191-1.041c0-0.365,0.064-0.708,0.191-1.029c0.128-0.321,0.307-0.602,0.537-0.843
		c0.23-0.241,0.507-0.431,0.833-0.569c0.325-0.139,0.688-0.208,1.089-0.208c0.373,0,0.737,0.087,1.095,0.263
		s0.639,0.427,0.843,0.756h0.022v-0.887h0.745v5.081c0,0.277-0.039,0.573-0.115,0.887s-0.219,0.602-0.427,0.865
		c-0.208,0.263-0.491,0.481-0.849,0.657c-0.358,0.175-0.821,0.263-1.391,0.263c-0.475,0-0.927-0.092-1.358-0.274
		c-0.431-0.183-0.799-0.435-1.106-0.756L160.324,55.851z M160.466,52.193c0,0.271,0.043,0.526,0.131,0.767
		c0.087,0.241,0.213,0.453,0.378,0.635c0.164,0.183,0.367,0.327,0.607,0.433c0.241,0.106,0.515,0.159,0.821,0.159
		c0.285,0,0.548-0.047,0.789-0.142c0.241-0.095,0.449-0.23,0.624-0.405c0.175-0.175,0.312-0.385,0.411-0.63
		c0.098-0.244,0.147-0.516,0.147-0.816c0-0.27-0.049-0.525-0.147-0.766c-0.099-0.241-0.236-0.453-0.411-0.635
		c-0.175-0.183-0.383-0.329-0.624-0.438c-0.241-0.11-0.504-0.165-0.789-0.165c-0.307,0-0.58,0.055-0.821,0.165
		c-0.241,0.109-0.443,0.255-0.607,0.438c-0.165,0.183-0.291,0.394-0.378,0.635C160.51,51.668,160.466,51.923,160.466,52.193z"/>
	<path fill="#FFFFFF" d="M173.509,48.317c-0.168-0.233-0.383-0.421-0.646-0.564c-0.263-0.142-0.581-0.213-0.953-0.213
		c-0.19,0-0.383,0.029-0.58,0.087c-0.197,0.059-0.376,0.148-0.537,0.269c-0.161,0.12-0.291,0.272-0.389,0.454
		c-0.099,0.183-0.148,0.398-0.148,0.646s0.047,0.453,0.142,0.613c0.095,0.161,0.22,0.297,0.377,0.411s0.335,0.206,0.535,0.279
		c0.2,0.073,0.41,0.146,0.628,0.219c0.27,0.087,0.541,0.183,0.813,0.285c0.273,0.103,0.519,0.235,0.737,0.4
		c0.218,0.164,0.397,0.372,0.535,0.624s0.208,0.571,0.208,0.958c0,0.387-0.074,0.721-0.221,1.002
		c-0.148,0.281-0.339,0.513-0.575,0.695s-0.505,0.317-0.808,0.405c-0.303,0.087-0.607,0.131-0.914,0.131
		c-0.234,0-0.467-0.024-0.701-0.071c-0.233-0.048-0.456-0.119-0.668-0.213c-0.212-0.095-0.409-0.215-0.591-0.362
		c-0.183-0.146-0.343-0.313-0.482-0.503l0.679-0.504c0.168,0.278,0.403,0.509,0.706,0.695c0.303,0.187,0.659,0.279,1.068,0.279
		c0.197,0,0.398-0.031,0.603-0.093c0.204-0.062,0.389-0.157,0.553-0.285c0.165-0.127,0.299-0.285,0.405-0.471
		s0.159-0.403,0.159-0.651c0-0.27-0.053-0.495-0.159-0.674c-0.106-0.179-0.247-0.328-0.421-0.449
		c-0.175-0.121-0.376-0.221-0.603-0.301c-0.227-0.08-0.464-0.161-0.712-0.241c-0.255-0.081-0.507-0.171-0.755-0.274
		c-0.249-0.102-0.471-0.235-0.668-0.4c-0.197-0.164-0.356-0.367-0.477-0.607c-0.121-0.241-0.181-0.537-0.181-0.887
		c0-0.372,0.075-0.693,0.225-0.964c0.149-0.27,0.345-0.493,0.586-0.668c0.241-0.175,0.507-0.303,0.799-0.383
		c0.292-0.08,0.581-0.12,0.865-0.12c0.525,0,0.975,0.093,1.347,0.279c0.373,0.186,0.653,0.407,0.843,0.662L173.509,48.317z"/>
	<path fill="#FFFFFF" d="M179.608,54.822c-0.015-0.139-0.026-0.292-0.033-0.46c-0.008-0.168-0.011-0.307-0.011-0.416h-0.022
		c-0.146,0.299-0.383,0.542-0.712,0.728c-0.328,0.186-0.675,0.279-1.04,0.279c-0.65,0-1.137-0.193-1.462-0.581
		c-0.325-0.387-0.487-0.898-0.487-1.533v-3.143h0.745v2.836c0,0.27,0.022,0.515,0.065,0.733c0.044,0.219,0.119,0.407,0.225,0.564
		c0.106,0.157,0.248,0.279,0.427,0.367c0.179,0.087,0.403,0.131,0.673,0.131c0.197,0,0.389-0.04,0.575-0.121
		c0.186-0.08,0.352-0.203,0.498-0.367c0.146-0.165,0.263-0.373,0.351-0.625c0.087-0.251,0.131-0.549,0.131-0.892v-2.628h0.745v3.997
		c0,0.139,0.003,0.317,0.011,0.537c0.007,0.219,0.018,0.416,0.033,0.591H179.608z"/>
	<path fill="#FFFFFF" d="M182.992,57.45h-0.745v-7.753h0.745v0.887h0.033c0.211-0.336,0.495-0.59,0.849-0.761
		s0.713-0.257,1.079-0.257c0.401,0,0.765,0.069,1.09,0.208c0.325,0.139,0.602,0.329,0.832,0.569c0.23,0.241,0.409,0.526,0.537,0.854
		c0.127,0.328,0.191,0.683,0.191,1.062c0,0.38-0.064,0.734-0.191,1.062c-0.128,0.329-0.307,0.613-0.537,0.854
		c-0.23,0.241-0.507,0.431-0.832,0.569c-0.325,0.139-0.688,0.208-1.09,0.208c-0.365,0-0.725-0.086-1.079-0.257
		s-0.637-0.418-0.849-0.739h-0.033V57.45z M186.814,52.259c0-0.285-0.044-0.553-0.131-0.805c-0.088-0.252-0.214-0.471-0.378-0.657
		c-0.165-0.186-0.367-0.334-0.608-0.443c-0.241-0.11-0.515-0.165-0.821-0.165c-0.285,0-0.547,0.053-0.789,0.159
		c-0.241,0.106-0.449,0.252-0.624,0.438c-0.175,0.186-0.312,0.405-0.411,0.657s-0.148,0.524-0.148,0.816s0.049,0.564,0.148,0.816
		s0.235,0.469,0.411,0.651c0.175,0.183,0.383,0.327,0.624,0.433c0.241,0.106,0.504,0.159,0.789,0.159
		c0.307,0,0.581-0.053,0.821-0.159c0.241-0.105,0.443-0.252,0.608-0.438c0.164-0.186,0.29-0.405,0.378-0.657
		C186.77,52.812,186.814,52.544,186.814,52.259z"/>
	<path fill="#FFFFFF" d="M189.946,57.45h-0.745v-7.753h0.745v0.887h0.033c0.211-0.336,0.495-0.59,0.849-0.761
		s0.713-0.257,1.079-0.257c0.401,0,0.765,0.069,1.09,0.208c0.325,0.139,0.602,0.329,0.832,0.569c0.23,0.241,0.409,0.526,0.537,0.854
		c0.127,0.328,0.191,0.683,0.191,1.062c0,0.38-0.064,0.734-0.191,1.062c-0.128,0.329-0.307,0.613-0.537,0.854
		c-0.23,0.241-0.507,0.431-0.832,0.569c-0.325,0.139-0.688,0.208-1.09,0.208c-0.365,0-0.725-0.086-1.079-0.257
		s-0.637-0.418-0.849-0.739h-0.033V57.45z M193.768,52.259c0-0.285-0.044-0.553-0.131-0.805c-0.088-0.252-0.214-0.471-0.378-0.657
		c-0.165-0.186-0.367-0.334-0.608-0.443c-0.241-0.11-0.515-0.165-0.821-0.165c-0.285,0-0.547,0.053-0.789,0.159
		c-0.241,0.106-0.449,0.252-0.624,0.438c-0.175,0.186-0.312,0.405-0.411,0.657s-0.148,0.524-0.148,0.816s0.049,0.564,0.148,0.816
		s0.235,0.469,0.411,0.651c0.175,0.183,0.383,0.327,0.624,0.433c0.241,0.106,0.504,0.159,0.789,0.159
		c0.307,0,0.581-0.053,0.821-0.159c0.241-0.105,0.443-0.252,0.608-0.438c0.164-0.186,0.29-0.405,0.378-0.657
		C193.724,52.812,193.768,52.544,193.768,52.259z"/>
	<path fill="#FFFFFF" d="M201.247,52.259c0,0.387-0.067,0.745-0.203,1.073s-0.323,0.613-0.564,0.854
		c-0.241,0.241-0.529,0.429-0.865,0.564c-0.336,0.135-0.705,0.203-1.106,0.203c-0.394,0-0.759-0.067-1.095-0.203
		c-0.336-0.135-0.625-0.323-0.865-0.564c-0.241-0.241-0.429-0.525-0.564-0.854c-0.135-0.329-0.203-0.686-0.203-1.073
		c0-0.387,0.067-0.745,0.203-1.073c0.135-0.329,0.323-0.613,0.564-0.854c0.241-0.241,0.529-0.429,0.865-0.564
		c0.335-0.135,0.701-0.203,1.095-0.203c0.401,0,0.771,0.067,1.106,0.203c0.335,0.135,0.624,0.323,0.865,0.564
		c0.241,0.241,0.429,0.525,0.564,0.854S201.247,51.873,201.247,52.259z M200.458,52.259c0-0.285-0.045-0.553-0.137-0.805
		c-0.091-0.252-0.221-0.471-0.389-0.657s-0.373-0.334-0.613-0.443c-0.241-0.11-0.511-0.165-0.811-0.165s-0.567,0.055-0.805,0.165
		c-0.237,0.109-0.44,0.257-0.608,0.443s-0.297,0.405-0.389,0.657c-0.091,0.251-0.137,0.52-0.137,0.805s0.045,0.553,0.137,0.805
		c0.091,0.252,0.221,0.471,0.389,0.657s0.371,0.333,0.608,0.438c0.237,0.106,0.505,0.159,0.805,0.159s0.57-0.053,0.811-0.159
		c0.241-0.105,0.445-0.252,0.613-0.438s0.297-0.405,0.389-0.657C200.413,52.812,200.458,52.544,200.458,52.259z"/>
	<path fill="#FFFFFF" d="M202.834,50.288c-0.007-0.219-0.018-0.416-0.033-0.591h0.712c0.014,0.139,0.025,0.292,0.033,0.46
		s0.011,0.307,0.011,0.416h0.022c0.146-0.299,0.365-0.542,0.657-0.728c0.292-0.187,0.62-0.279,0.985-0.279
		c0.095,0,0.181,0.004,0.257,0.011c0.077,0.007,0.155,0.022,0.235,0.044l-0.098,0.712c-0.044-0.015-0.117-0.029-0.219-0.044
		c-0.103-0.015-0.205-0.022-0.307-0.022c-0.197,0-0.387,0.037-0.569,0.109c-0.183,0.073-0.341,0.188-0.477,0.344
		c-0.135,0.156-0.245,0.356-0.329,0.601s-0.125,0.538-0.125,0.879v2.622h-0.745v-3.997
		C202.845,50.686,202.842,50.507,202.834,50.288z"/>
	<path fill="#FFFFFF" d="M208.967,50.321h-1.446v2.99c0,0.19,0.018,0.347,0.055,0.471c0.037,0.125,0.089,0.221,0.159,0.291
		c0.069,0.069,0.151,0.117,0.246,0.142c0.095,0.026,0.197,0.039,0.307,0.039c0.102,0,0.21-0.015,0.323-0.044
		c0.113-0.029,0.221-0.069,0.323-0.121l0.033,0.646c-0.131,0.051-0.269,0.089-0.411,0.115c-0.143,0.025-0.298,0.039-0.466,0.039
		c-0.139,0-0.285-0.019-0.438-0.055c-0.153-0.036-0.295-0.105-0.427-0.208c-0.131-0.102-0.239-0.241-0.323-0.416
		s-0.126-0.405-0.126-0.69v-3.198h-1.062v-0.624h1.062v-1.445h0.745v1.445h1.446V50.321z"/>
</g>
<polygon fill="#ED1C24" points="595.28,46.961 322.758,46.961 313.136,63.86 595.28,63.86 "/>
<g>
	<path fill="#FFFFFF" d="M328.471,59.127v-6.24l-1.584,1.224l-1.044-1.428l2.795-2.052h1.837v8.496H328.471z"/>
	<path fill="#FFFFFF" d="M340.039,53.439c0,0.504-0.088,0.962-0.264,1.374s-0.404,0.83-0.684,1.254l-2.051,3.06h-2.434l2.113-2.928
		l0.023-0.036c-0.088,0.032-0.186,0.056-0.293,0.072c-0.107,0.016-0.21,0.024-0.305,0.024c-0.376,0-0.731-0.066-1.066-0.198
		c-0.336-0.132-0.631-0.32-0.887-0.564s-0.459-0.536-0.611-0.876s-0.228-0.718-0.228-1.134c0-0.48,0.088-0.912,0.264-1.296
		c0.176-0.384,0.415-0.708,0.719-0.972c0.304-0.264,0.659-0.466,1.065-0.606c0.408-0.14,0.839-0.21,1.295-0.21
		c0.463,0,0.898,0.07,1.305,0.21c0.408,0.14,0.761,0.342,1.061,0.606c0.299,0.264,0.537,0.584,0.713,0.96
		C339.951,52.555,340.039,52.975,340.039,53.439z M338.035,53.415c0-0.368-0.119-0.686-0.355-0.954
		c-0.238-0.268-0.561-0.402-0.971-0.402s-0.738,0.126-0.982,0.378c-0.246,0.252-0.367,0.582-0.367,0.99
		c0,0.384,0.119,0.702,0.361,0.954c0.24,0.252,0.562,0.378,0.964,0.378s0.728-0.124,0.977-0.372
		C337.91,54.139,338.035,53.815,338.035,53.415z"/>
	<path fill="#FFFFFF" d="M345.486,52.755c0,0.312-0.06,0.606-0.18,0.882c-0.12,0.276-0.282,0.516-0.486,0.72
		c-0.203,0.204-0.445,0.366-0.726,0.486c-0.28,0.12-0.576,0.18-0.888,0.18c-0.312,0-0.608-0.06-0.889-0.18
		c-0.279-0.12-0.521-0.282-0.726-0.486s-0.366-0.444-0.486-0.72c-0.12-0.276-0.18-0.57-0.18-0.882c0-0.32,0.06-0.618,0.18-0.894
		s0.282-0.516,0.486-0.72c0.204-0.204,0.446-0.364,0.726-0.48c0.28-0.116,0.576-0.174,0.889-0.174c0.312,0,0.607,0.058,0.888,0.174
		c0.28,0.116,0.522,0.276,0.726,0.48c0.204,0.204,0.366,0.444,0.486,0.72S345.486,52.435,345.486,52.755z M344.143,52.755
		c0-0.256-0.092-0.476-0.275-0.66c-0.185-0.184-0.404-0.276-0.66-0.276s-0.477,0.092-0.66,0.276
		c-0.185,0.185-0.276,0.404-0.276,0.66c0,0.256,0.092,0.474,0.276,0.654c0.184,0.18,0.404,0.27,0.66,0.27s0.476-0.09,0.66-0.27
		C344.051,53.229,344.143,53.011,344.143,52.755z M344.131,59.535l-1.068-0.528l4.956-8.76l1.116,0.54L344.131,59.535z
		 M351.246,57.003c0,0.312-0.06,0.606-0.18,0.882c-0.119,0.276-0.281,0.516-0.486,0.72c-0.203,0.204-0.445,0.366-0.726,0.486
		c-0.28,0.12-0.575,0.18-0.888,0.18s-0.608-0.06-0.889-0.18c-0.279-0.12-0.521-0.282-0.726-0.486s-0.366-0.444-0.485-0.72
		c-0.121-0.276-0.181-0.57-0.181-0.882s0.06-0.606,0.181-0.882c0.119-0.276,0.281-0.516,0.485-0.72s0.446-0.366,0.726-0.486
		c0.28-0.12,0.576-0.18,0.889-0.18s0.607,0.06,0.888,0.18s0.522,0.282,0.726,0.486c0.205,0.204,0.367,0.444,0.486,0.72
		C351.187,56.397,351.246,56.691,351.246,57.003z M349.902,57.003c0-0.128-0.025-0.25-0.078-0.366
		c-0.052-0.116-0.119-0.216-0.203-0.3s-0.183-0.15-0.295-0.198c-0.111-0.048-0.231-0.072-0.359-0.072
		c-0.256,0-0.477,0.092-0.66,0.276c-0.184,0.184-0.275,0.404-0.275,0.66c0,0.256,0.092,0.474,0.275,0.654
		c0.184,0.18,0.404,0.27,0.66,0.27c0.128,0,0.248-0.024,0.359-0.072c0.112-0.048,0.211-0.114,0.295-0.198s0.151-0.182,0.203-0.294
		C349.877,57.251,349.902,57.131,349.902,57.003z"/>
</g>
<g>
	<path fill="#FFFFFF" d="M358.05,59.222h-0.788v-7.753h0.788V59.222z"/>
	<path fill="#FFFFFF" d="M362.594,59.222h-0.788V52.17h-2.595v-0.701h5.979v0.701h-2.596V59.222z"/>
	<path fill="#FFFFFF" d="M369.613,59.222h-0.788v-7.753h4.677v0.701h-3.889v2.683h3.614v0.701h-3.614V59.222z"/>
	<path fill="#FFFFFF" d="M378.199,59.222c-0.014-0.139-0.025-0.292-0.032-0.46c-0.008-0.168-0.011-0.307-0.011-0.416h-0.022
		c-0.146,0.299-0.384,0.542-0.712,0.728s-0.676,0.279-1.04,0.279c-0.649,0-1.138-0.193-1.462-0.581
		c-0.325-0.387-0.487-0.898-0.487-1.533v-3.143h0.745v2.836c0,0.27,0.021,0.515,0.064,0.733c0.045,0.219,0.119,0.407,0.225,0.564
		c0.106,0.157,0.248,0.279,0.428,0.367c0.179,0.087,0.403,0.131,0.674,0.131c0.197,0,0.389-0.04,0.574-0.121
		c0.187-0.08,0.353-0.203,0.498-0.367c0.146-0.165,0.264-0.373,0.352-0.625c0.087-0.251,0.131-0.549,0.131-0.892v-2.628h0.744v3.997
		c0,0.139,0.004,0.317,0.012,0.537c0.007,0.219,0.018,0.416,0.033,0.591H378.199z"/>
	<path fill="#FFFFFF" d="M381.507,54.097c0.015,0.139,0.025,0.292,0.032,0.46c0.008,0.168,0.012,0.307,0.012,0.416h0.021
		c0.146-0.299,0.383-0.542,0.712-0.728c0.329-0.187,0.675-0.279,1.04-0.279c0.65,0,1.137,0.193,1.463,0.58
		c0.324,0.387,0.486,0.898,0.486,1.533v3.143h-0.744v-2.836c0-0.27-0.021-0.515-0.066-0.733c-0.043-0.219-0.118-0.407-0.225-0.564
		c-0.105-0.157-0.248-0.279-0.426-0.367c-0.18-0.087-0.404-0.131-0.674-0.131c-0.197,0-0.389,0.041-0.575,0.121
		c-0.187,0.081-0.353,0.203-0.499,0.367c-0.146,0.165-0.262,0.373-0.35,0.625c-0.088,0.251-0.131,0.549-0.131,0.892v2.628h-0.746
		v-3.997c0-0.139-0.003-0.317-0.01-0.537c-0.008-0.219-0.019-0.416-0.033-0.591H381.507z"/>
	<path fill="#FFFFFF" d="M390.892,55.269c-0.124-0.197-0.306-0.36-0.542-0.487c-0.238-0.128-0.495-0.192-0.772-0.192
		c-0.3,0-0.569,0.053-0.81,0.159c-0.242,0.106-0.447,0.252-0.619,0.438c-0.172,0.186-0.303,0.405-0.395,0.657
		s-0.137,0.524-0.137,0.816s0.045,0.562,0.137,0.811c0.092,0.248,0.221,0.465,0.389,0.651s0.373,0.333,0.613,0.438
		c0.241,0.106,0.512,0.159,0.811,0.159c0.328,0,0.605-0.062,0.832-0.186s0.412-0.285,0.559-0.482l0.559,0.417
		c-0.219,0.27-0.487,0.485-0.805,0.646c-0.318,0.16-0.699,0.241-1.145,0.241c-0.416,0-0.793-0.067-1.128-0.203
		c-0.336-0.135-0.622-0.323-0.86-0.564c-0.236-0.241-0.421-0.525-0.553-0.854c-0.131-0.329-0.197-0.686-0.197-1.073
		c0-0.387,0.066-0.745,0.197-1.073c0.132-0.329,0.316-0.613,0.553-0.854c0.238-0.241,0.524-0.429,0.86-0.564
		c0.335-0.135,0.712-0.203,1.128-0.203c0.343,0,0.691,0.075,1.046,0.225c0.354,0.149,0.641,0.371,0.859,0.662L390.892,55.269z"/>
	<path fill="#FFFFFF" d="M394.987,54.721h-1.446v2.99c0,0.19,0.019,0.347,0.055,0.471c0.037,0.125,0.09,0.221,0.16,0.291
		c0.068,0.069,0.15,0.117,0.246,0.142c0.094,0.026,0.197,0.039,0.307,0.039c0.102,0,0.209-0.015,0.322-0.044
		s0.221-0.069,0.323-0.121l0.033,0.646c-0.132,0.051-0.269,0.089-0.411,0.115s-0.297,0.039-0.465,0.039
		c-0.139,0-0.285-0.019-0.438-0.055c-0.153-0.036-0.296-0.105-0.427-0.208c-0.131-0.102-0.239-0.241-0.323-0.416
		s-0.126-0.405-0.126-0.69v-3.198h-1.062v-0.624h1.062v-1.445h0.744v1.445h1.446V54.721z"/>
	<path fill="#FFFFFF" d="M397.057,52.126c0,0.153-0.055,0.279-0.164,0.378s-0.23,0.148-0.361,0.148
		c-0.132,0-0.252-0.049-0.361-0.148s-0.164-0.225-0.164-0.378s0.055-0.279,0.164-0.378s0.229-0.147,0.361-0.147
		c0.131,0,0.252,0.049,0.361,0.147S397.057,51.973,397.057,52.126z M396.903,59.222h-0.745v-5.125h0.745V59.222z"/>
	<path fill="#FFFFFF" d="M403.978,56.66c0,0.387-0.067,0.745-0.202,1.073c-0.136,0.329-0.323,0.613-0.564,0.854
		c-0.24,0.241-0.529,0.429-0.865,0.564c-0.336,0.135-0.705,0.203-1.105,0.203c-0.395,0-0.76-0.067-1.096-0.203
		c-0.336-0.135-0.624-0.323-0.865-0.564c-0.24-0.241-0.429-0.525-0.563-0.854c-0.136-0.329-0.202-0.686-0.202-1.073
		c0-0.387,0.066-0.745,0.202-1.073c0.135-0.329,0.323-0.613,0.563-0.854c0.241-0.241,0.529-0.429,0.865-0.564
		s0.701-0.203,1.096-0.203c0.4,0,0.77,0.067,1.105,0.203s0.625,0.323,0.865,0.564c0.241,0.241,0.429,0.525,0.564,0.854
		C403.91,55.915,403.978,56.273,403.978,56.66z M403.189,56.66c0-0.285-0.046-0.553-0.137-0.805
		c-0.092-0.252-0.221-0.471-0.389-0.657s-0.373-0.334-0.613-0.443c-0.241-0.11-0.512-0.165-0.811-0.165
		c-0.3,0-0.568,0.055-0.805,0.165c-0.238,0.109-0.44,0.257-0.608,0.443s-0.298,0.405-0.389,0.657
		c-0.091,0.251-0.137,0.52-0.137,0.805s0.046,0.553,0.137,0.805c0.091,0.252,0.221,0.471,0.389,0.657s0.37,0.333,0.608,0.438
		c0.236,0.106,0.505,0.159,0.805,0.159c0.299,0,0.569-0.053,0.811-0.159c0.24-0.105,0.445-0.252,0.613-0.438
		s0.297-0.405,0.389-0.657C403.144,57.213,403.189,56.944,403.189,56.66z"/>
	<path fill="#FFFFFF" d="M406.244,54.097c0.015,0.139,0.025,0.292,0.033,0.46s0.011,0.307,0.011,0.416h0.022
		c0.146-0.299,0.383-0.542,0.711-0.728c0.329-0.187,0.676-0.279,1.041-0.279c0.649,0,1.137,0.193,1.462,0.58
		c0.325,0.387,0.487,0.898,0.487,1.533v3.143h-0.744v-2.836c0-0.27-0.022-0.515-0.066-0.733c-0.044-0.219-0.119-0.407-0.225-0.564
		c-0.105-0.157-0.248-0.279-0.427-0.367c-0.179-0.087-0.403-0.131-0.674-0.131c-0.196,0-0.389,0.041-0.575,0.121
		c-0.186,0.081-0.352,0.203-0.498,0.367c-0.146,0.165-0.263,0.373-0.35,0.625c-0.088,0.251-0.132,0.549-0.132,0.892v2.628h-0.745
		v-3.997c0-0.139-0.004-0.317-0.011-0.537c-0.007-0.219-0.019-0.416-0.032-0.591H406.244z"/>
	<path fill="#FFFFFF" d="M414.666,55.312c-0.109-0.211-0.276-0.385-0.499-0.52c-0.223-0.135-0.476-0.203-0.761-0.203
		c-0.131,0-0.264,0.015-0.395,0.044s-0.248,0.077-0.35,0.142c-0.104,0.066-0.186,0.15-0.247,0.252
		c-0.062,0.103-0.093,0.223-0.093,0.361c0,0.241,0.098,0.426,0.295,0.553c0.197,0.128,0.508,0.235,0.932,0.323
		c0.605,0.124,1.053,0.305,1.342,0.542c0.287,0.237,0.432,0.557,0.432,0.958c0,0.292-0.057,0.539-0.17,0.739
		s-0.261,0.365-0.443,0.493c-0.182,0.128-0.389,0.219-0.619,0.274c-0.229,0.055-0.461,0.082-0.695,0.082
		c-0.387,0-0.762-0.081-1.127-0.241c-0.365-0.161-0.664-0.413-0.898-0.756l0.592-0.438c0.131,0.227,0.324,0.416,0.58,0.569
		s0.537,0.23,0.844,0.23c0.16,0,0.313-0.014,0.459-0.043c0.146-0.029,0.274-0.081,0.384-0.153c0.109-0.073,0.196-0.166,0.263-0.279
		s0.099-0.254,0.099-0.422c0-0.27-0.13-0.473-0.389-0.607c-0.259-0.135-0.634-0.261-1.122-0.378
		c-0.154-0.037-0.316-0.082-0.488-0.137c-0.172-0.055-0.33-0.135-0.477-0.241c-0.146-0.105-0.266-0.239-0.361-0.4
		c-0.094-0.16-0.142-0.361-0.142-0.602c0-0.263,0.051-0.487,0.153-0.673c0.102-0.187,0.238-0.34,0.41-0.46
		c0.172-0.121,0.367-0.21,0.586-0.269c0.219-0.058,0.445-0.087,0.68-0.087c0.357,0,0.704,0.081,1.04,0.241
		c0.335,0.161,0.587,0.387,0.755,0.679L414.666,55.312z"/>
</g>
<polygon fill="#ED1C24" points="595.28,129.296 327.425,129.296 317.803,146.196 595.28,146.196 "/>
<g>
	<path fill="#FFFFFF" d="M330.438,141.629v-1.677l3.312-2.995c0.209-0.2,0.377-0.403,0.504-0.611
		c0.129-0.208,0.193-0.439,0.193-0.694c0-0.304-0.097-0.549-0.289-0.737c-0.191-0.188-0.447-0.282-0.768-0.282
		c-0.336,0-0.61,0.118-0.822,0.354c-0.212,0.236-0.338,0.546-0.378,0.93l-1.932-0.264c0.048-0.432,0.165-0.817,0.354-1.154
		c0.188-0.337,0.426-0.625,0.713-0.863c0.289-0.237,0.618-0.418,0.99-0.543s0.766-0.188,1.182-0.188
		c0.393,0,0.772,0.052,1.141,0.156c0.367,0.104,0.695,0.264,0.984,0.48c0.287,0.216,0.518,0.488,0.689,0.816
		s0.258,0.712,0.258,1.152c0,0.304-0.04,0.578-0.119,0.822c-0.08,0.244-0.191,0.47-0.33,0.678c-0.141,0.208-0.301,0.402-0.48,0.582
		c-0.18,0.18-0.366,0.358-0.559,0.534l-1.967,1.752h3.467v1.752H330.438z"/>
	<path fill="#FFFFFF" d="M344.574,137.357c0,0.6-0.06,1.172-0.18,1.716c-0.12,0.544-0.312,1.022-0.576,1.434
		s-0.605,0.74-1.025,0.984c-0.42,0.244-0.931,0.366-1.53,0.366c-0.601,0-1.112-0.122-1.536-0.366
		c-0.424-0.244-0.77-0.572-1.038-0.984s-0.462-0.89-0.582-1.434c-0.12-0.544-0.181-1.116-0.181-1.716s0.061-1.17,0.181-1.71
		s0.313-1.012,0.582-1.416s0.614-0.726,1.038-0.966c0.424-0.24,0.936-0.36,1.536-0.36c0.6,0,1.11,0.12,1.53,0.36
		c0.42,0.24,0.762,0.562,1.025,0.966s0.456,0.876,0.576,1.416S344.574,136.757,344.574,137.357z M342.511,137.357
		c0-0.264-0.017-0.556-0.048-0.876c-0.032-0.32-0.092-0.618-0.18-0.894c-0.089-0.276-0.215-0.508-0.379-0.696
		s-0.378-0.282-0.642-0.282c-0.265,0-0.479,0.094-0.647,0.282c-0.169,0.188-0.299,0.42-0.391,0.696s-0.154,0.574-0.186,0.894
		c-0.033,0.32-0.049,0.612-0.049,0.876c0,0.272,0.016,0.57,0.049,0.894c0.031,0.324,0.094,0.624,0.186,0.9s0.222,0.508,0.391,0.696
		c0.168,0.188,0.383,0.282,0.647,0.282c0.264,0,0.478-0.094,0.642-0.282c0.164-0.188,0.29-0.42,0.379-0.696
		c0.088-0.276,0.147-0.576,0.18-0.9C342.494,137.927,342.511,137.629,342.511,137.357z"/>
	<path fill="#FFFFFF" d="M350.035,135.257c0,0.312-0.061,0.606-0.181,0.882c-0.12,0.276-0.282,0.516-0.485,0.72
		c-0.205,0.204-0.447,0.366-0.727,0.486c-0.28,0.12-0.576,0.18-0.889,0.18c-0.312,0-0.607-0.06-0.887-0.18
		c-0.281-0.12-0.523-0.282-0.727-0.486c-0.204-0.204-0.366-0.444-0.486-0.72c-0.119-0.276-0.18-0.57-0.18-0.882
		c0-0.32,0.061-0.618,0.18-0.894c0.12-0.276,0.282-0.516,0.486-0.72c0.203-0.204,0.445-0.364,0.727-0.48
		c0.279-0.116,0.575-0.174,0.887-0.174c0.312,0,0.608,0.058,0.889,0.174c0.279,0.116,0.521,0.276,0.727,0.48
		c0.203,0.204,0.365,0.444,0.485,0.72S350.035,134.937,350.035,135.257z M348.69,135.257c0-0.256-0.092-0.476-0.276-0.66
		c-0.184-0.184-0.404-0.276-0.66-0.276s-0.476,0.092-0.66,0.276c-0.184,0.185-0.275,0.404-0.275,0.66
		c0,0.256,0.092,0.474,0.275,0.654c0.185,0.18,0.404,0.27,0.66,0.27s0.477-0.09,0.66-0.27
		C348.599,135.731,348.69,135.513,348.69,135.257z M348.678,142.037l-1.067-0.528l4.956-8.76l1.116,0.54L348.678,142.037z
		 M355.795,139.505c0,0.312-0.061,0.606-0.181,0.882c-0.12,0.276-0.282,0.516-0.485,0.72c-0.205,0.204-0.446,0.366-0.727,0.486
		c-0.279,0.12-0.576,0.18-0.888,0.18s-0.608-0.06-0.888-0.18c-0.281-0.12-0.522-0.282-0.727-0.486s-0.365-0.444-0.486-0.72
		c-0.119-0.276-0.18-0.57-0.18-0.882s0.061-0.606,0.18-0.882c0.121-0.276,0.282-0.516,0.486-0.72s0.445-0.366,0.727-0.486
		c0.279-0.12,0.576-0.18,0.888-0.18s0.608,0.06,0.888,0.18c0.28,0.12,0.521,0.282,0.727,0.486c0.203,0.204,0.365,0.444,0.485,0.72
		C355.734,138.899,355.795,139.193,355.795,139.505z M354.451,139.505c0-0.128-0.027-0.25-0.078-0.366
		c-0.053-0.116-0.121-0.216-0.205-0.3s-0.182-0.15-0.293-0.198c-0.113-0.048-0.232-0.072-0.36-0.072
		c-0.257,0-0.476,0.092-0.66,0.276c-0.185,0.184-0.276,0.404-0.276,0.66c0,0.256,0.092,0.474,0.276,0.654
		c0.185,0.18,0.403,0.27,0.66,0.27c0.128,0,0.247-0.024,0.36-0.072c0.111-0.048,0.209-0.114,0.293-0.198s0.152-0.182,0.205-0.294
		C354.424,139.753,354.451,139.633,354.451,139.505z"/>
</g>
<g>
	<path fill="#FFFFFF" d="M361.809,133.971h2.311c0.293,0,0.588,0.031,0.888,0.093s0.567,0.168,0.805,0.317
		c0.237,0.15,0.431,0.353,0.581,0.608c0.148,0.256,0.225,0.577,0.225,0.964c0,0.409-0.125,0.765-0.375,1.067
		c-0.25,0.303-0.584,0.502-1.002,0.597v0.022c0.503,0.058,0.92,0.253,1.252,0.585c0.331,0.333,0.496,0.783,0.496,1.353
		c0,0.321-0.066,0.615-0.201,0.882s-0.326,0.493-0.574,0.679s-0.55,0.331-0.906,0.433c-0.357,0.103-0.758,0.153-1.203,0.153h-2.295
		V133.971z M362.598,137.366h1.588c0.189,0,0.381-0.022,0.574-0.066c0.193-0.043,0.371-0.119,0.531-0.224
		c0.161-0.106,0.291-0.247,0.389-0.422c0.1-0.175,0.148-0.391,0.148-0.646c0-0.248-0.049-0.458-0.148-0.63
		c-0.098-0.171-0.231-0.312-0.398-0.421c-0.168-0.109-0.365-0.188-0.592-0.235s-0.467-0.071-0.723-0.071h-1.369V137.366z
		 M362.598,141.045h1.467c0.285,0,0.557-0.028,0.816-0.083s0.485-0.142,0.68-0.263c0.193-0.121,0.348-0.277,0.465-0.471
		s0.176-0.425,0.176-0.695c0-0.511-0.174-0.893-0.521-1.145c-0.346-0.252-0.837-0.378-1.473-0.378h-1.609V141.045z"/>
	<path fill="#FFFFFF" d="M372.453,141.724c-0.015-0.139-0.025-0.292-0.033-0.46s-0.011-0.307-0.011-0.416h-0.022
		c-0.146,0.299-0.383,0.542-0.711,0.728s-0.676,0.279-1.041,0.279c-0.649,0-1.137-0.193-1.461-0.581
		c-0.326-0.387-0.488-0.898-0.488-1.533v-3.143h0.745v2.836c0,0.27,0.022,0.515,0.065,0.733c0.044,0.219,0.119,0.407,0.225,0.564
		c0.105,0.157,0.248,0.279,0.428,0.367c0.178,0.087,0.402,0.131,0.673,0.131c0.197,0,0.389-0.04,0.575-0.121
		c0.186-0.08,0.352-0.203,0.498-0.367c0.146-0.165,0.263-0.373,0.351-0.625c0.087-0.251,0.132-0.549,0.132-0.892v-2.628h0.744v3.997
		c0,0.139,0.004,0.317,0.011,0.537c0.007,0.219,0.019,0.416,0.033,0.591H372.453z"/>
	<path fill="#FFFFFF" d="M377.819,137.814c-0.109-0.211-0.276-0.385-0.499-0.52c-0.223-0.135-0.476-0.203-0.76-0.203
		c-0.132,0-0.264,0.015-0.395,0.044c-0.132,0.029-0.248,0.077-0.351,0.142c-0.103,0.066-0.185,0.15-0.247,0.252
		c-0.062,0.103-0.093,0.223-0.093,0.361c0,0.241,0.099,0.426,0.296,0.553c0.197,0.128,0.508,0.235,0.931,0.323
		c0.606,0.124,1.054,0.305,1.342,0.542s0.433,0.557,0.433,0.958c0,0.292-0.057,0.539-0.17,0.739s-0.262,0.365-0.443,0.493
		c-0.183,0.128-0.389,0.219-0.619,0.274s-0.461,0.082-0.695,0.082c-0.387,0-0.763-0.081-1.128-0.241
		c-0.365-0.161-0.664-0.413-0.897-0.756l0.591-0.438c0.132,0.227,0.325,0.416,0.581,0.569c0.255,0.153,0.536,0.23,0.843,0.23
		c0.161,0,0.313-0.014,0.46-0.043s0.273-0.081,0.383-0.153c0.109-0.073,0.197-0.166,0.264-0.279
		c0.065-0.113,0.098-0.254,0.098-0.422c0-0.27-0.129-0.473-0.389-0.607c-0.259-0.135-0.633-0.261-1.122-0.378
		c-0.153-0.037-0.315-0.082-0.487-0.137c-0.172-0.055-0.33-0.135-0.477-0.241c-0.146-0.105-0.267-0.239-0.361-0.4
		c-0.095-0.16-0.143-0.361-0.143-0.602c0-0.263,0.051-0.487,0.154-0.673c0.102-0.187,0.238-0.34,0.41-0.46
		c0.172-0.121,0.367-0.21,0.586-0.269c0.219-0.058,0.445-0.087,0.679-0.087c0.357,0,0.704,0.081,1.04,0.241
		c0.336,0.161,0.588,0.387,0.756,0.679L377.819,137.814z"/>
	<path fill="#FFFFFF" d="M380.863,134.628c0,0.153-0.055,0.279-0.164,0.378s-0.23,0.148-0.361,0.148
		c-0.132,0-0.252-0.049-0.361-0.148s-0.164-0.225-0.164-0.378s0.055-0.279,0.164-0.378s0.229-0.147,0.361-0.147
		c0.131,0,0.252,0.049,0.361,0.147S380.863,134.475,380.863,134.628z M380.71,141.724h-0.745v-5.125h0.745V141.724z"/>
	<path fill="#FFFFFF" d="M383.36,136.599c0.015,0.139,0.025,0.292,0.032,0.46c0.008,0.168,0.012,0.307,0.012,0.416h0.021
		c0.146-0.299,0.383-0.542,0.712-0.728c0.329-0.187,0.675-0.279,1.04-0.279c0.65,0,1.137,0.193,1.463,0.58
		c0.324,0.387,0.486,0.898,0.486,1.533v3.143h-0.744v-2.836c0-0.27-0.021-0.515-0.066-0.733c-0.043-0.219-0.118-0.407-0.225-0.564
		c-0.105-0.157-0.248-0.279-0.426-0.367c-0.18-0.087-0.404-0.131-0.674-0.131c-0.197,0-0.389,0.041-0.575,0.121
		c-0.187,0.081-0.353,0.203-0.499,0.367c-0.146,0.165-0.262,0.373-0.35,0.625c-0.088,0.251-0.131,0.549-0.131,0.892v2.628h-0.746
		v-3.997c0-0.139-0.003-0.317-0.01-0.537c-0.008-0.219-0.019-0.416-0.033-0.591H383.36z"/>
	<path fill="#FFFFFF" d="M393.72,139.008c0,0.051,0,0.106,0,0.164c0,0.059-0.004,0.121-0.011,0.187h-4.25
		c0.008,0.255,0.059,0.497,0.154,0.723c0.094,0.227,0.227,0.423,0.395,0.591c0.167,0.168,0.364,0.301,0.591,0.4
		c0.226,0.098,0.471,0.147,0.733,0.147c0.387,0,0.721-0.089,1.002-0.268s0.494-0.385,0.641-0.619l0.559,0.438
		c-0.307,0.387-0.645,0.665-1.013,0.832c-0.368,0.168-0.765,0.252-1.188,0.252c-0.379,0-0.732-0.067-1.057-0.203
		c-0.324-0.135-0.604-0.323-0.838-0.564c-0.233-0.241-0.418-0.525-0.553-0.854s-0.203-0.686-0.203-1.073
		c0-0.387,0.066-0.745,0.197-1.073c0.132-0.329,0.314-0.613,0.548-0.854c0.233-0.241,0.507-0.429,0.821-0.564
		s0.653-0.203,1.019-0.203c0.401,0,0.755,0.067,1.062,0.203s0.562,0.317,0.768,0.547c0.204,0.23,0.359,0.499,0.465,0.805
		S393.72,138.658,393.72,139.008z M392.964,138.768c-0.022-0.482-0.177-0.882-0.466-1.199c-0.288-0.318-0.699-0.477-1.231-0.477
		c-0.249,0-0.479,0.046-0.69,0.137c-0.211,0.091-0.397,0.215-0.559,0.372c-0.16,0.157-0.288,0.336-0.383,0.537
		s-0.15,0.411-0.164,0.63H392.964z"/>
	<path fill="#FFFFFF" d="M398.045,137.814c-0.109-0.211-0.275-0.385-0.498-0.52c-0.223-0.135-0.477-0.203-0.762-0.203
		c-0.131,0-0.263,0.015-0.395,0.044c-0.131,0.029-0.248,0.077-0.35,0.142c-0.103,0.066-0.185,0.15-0.246,0.252
		c-0.062,0.103-0.094,0.223-0.094,0.361c0,0.241,0.099,0.426,0.296,0.553c0.197,0.128,0.507,0.235,0.931,0.323
		c0.605,0.124,1.053,0.305,1.342,0.542c0.288,0.237,0.433,0.557,0.433,0.958c0,0.292-0.057,0.539-0.17,0.739
		s-0.261,0.365-0.443,0.493c-0.183,0.128-0.39,0.219-0.619,0.274s-0.462,0.082-0.695,0.082c-0.387,0-0.763-0.081-1.128-0.241
		c-0.365-0.161-0.664-0.413-0.898-0.756l0.592-0.438c0.131,0.227,0.324,0.416,0.58,0.569s0.537,0.23,0.844,0.23
		c0.16,0,0.314-0.014,0.46-0.043s0.274-0.081,0.384-0.153c0.109-0.073,0.196-0.166,0.262-0.279c0.066-0.113,0.1-0.254,0.1-0.422
		c0-0.27-0.131-0.473-0.389-0.607c-0.26-0.135-0.635-0.261-1.123-0.378c-0.153-0.037-0.316-0.082-0.487-0.137
		c-0.172-0.055-0.331-0.135-0.477-0.241c-0.146-0.105-0.267-0.239-0.361-0.4c-0.095-0.16-0.142-0.361-0.142-0.602
		c0-0.263,0.051-0.487,0.152-0.673c0.103-0.187,0.239-0.34,0.411-0.46c0.171-0.121,0.366-0.21,0.586-0.269
		c0.219-0.058,0.444-0.087,0.679-0.087c0.357,0,0.705,0.081,1.041,0.241c0.335,0.161,0.587,0.387,0.755,0.679L398.045,137.814z"/>
	<path fill="#FFFFFF" d="M402.907,137.814c-0.109-0.211-0.276-0.385-0.499-0.52c-0.223-0.135-0.476-0.203-0.76-0.203
		c-0.132,0-0.264,0.015-0.395,0.044c-0.132,0.029-0.248,0.077-0.351,0.142c-0.103,0.066-0.185,0.15-0.247,0.252
		c-0.062,0.103-0.093,0.223-0.093,0.361c0,0.241,0.099,0.426,0.296,0.553c0.197,0.128,0.508,0.235,0.931,0.323
		c0.606,0.124,1.054,0.305,1.342,0.542s0.433,0.557,0.433,0.958c0,0.292-0.057,0.539-0.17,0.739s-0.262,0.365-0.443,0.493
		c-0.183,0.128-0.389,0.219-0.619,0.274s-0.461,0.082-0.695,0.082c-0.387,0-0.763-0.081-1.128-0.241
		c-0.365-0.161-0.664-0.413-0.897-0.756l0.591-0.438c0.132,0.227,0.325,0.416,0.581,0.569c0.255,0.153,0.536,0.23,0.843,0.23
		c0.161,0,0.313-0.014,0.46-0.043s0.273-0.081,0.383-0.153c0.109-0.073,0.197-0.166,0.264-0.279
		c0.065-0.113,0.098-0.254,0.098-0.422c0-0.27-0.129-0.473-0.389-0.607c-0.259-0.135-0.633-0.261-1.122-0.378
		c-0.153-0.037-0.315-0.082-0.487-0.137c-0.172-0.055-0.33-0.135-0.477-0.241c-0.146-0.105-0.267-0.239-0.361-0.4
		c-0.095-0.16-0.143-0.361-0.143-0.602c0-0.263,0.051-0.487,0.154-0.673c0.102-0.187,0.238-0.34,0.41-0.46
		c0.172-0.121,0.367-0.21,0.586-0.269c0.219-0.058,0.445-0.087,0.679-0.087c0.357,0,0.704,0.081,1.04,0.241
		c0.336,0.161,0.588,0.387,0.756,0.679L402.907,137.814z"/>
</g>
<polygon fill="#ED1C24" points="0,110.09 222.748,110.09 232.372,126.988 0,126.988 "/>
<g>
	<path fill="#FFFFFF" d="M200.088,122.422v-6.24l-1.584,1.224l-1.044-1.428l2.795-2.052h1.837v8.496H200.088z"/>
	<path fill="#FFFFFF" d="M210.625,120.766v1.656h-1.884v-1.656h-3.996v-1.692l3.456-5.148h2.412v5.208h1.176v1.632H210.625z
		 M208.752,115.99h-0.036l-2.016,3.144h2.052V115.99z"/>
	<path fill="#FFFFFF" d="M217.104,116.05c0,0.312-0.06,0.606-0.18,0.882c-0.12,0.276-0.282,0.516-0.486,0.72
		c-0.204,0.204-0.446,0.366-0.726,0.486c-0.28,0.12-0.576,0.18-0.888,0.18s-0.608-0.06-0.888-0.18
		c-0.28-0.12-0.522-0.282-0.726-0.486c-0.204-0.204-0.366-0.444-0.486-0.72c-0.12-0.276-0.18-0.57-0.18-0.882
		c0-0.32,0.06-0.618,0.18-0.894c0.12-0.276,0.282-0.516,0.486-0.72c0.204-0.204,0.446-0.364,0.726-0.48
		c0.28-0.116,0.576-0.174,0.888-0.174s0.608,0.058,0.888,0.174c0.28,0.116,0.522,0.276,0.726,0.48
		c0.204,0.204,0.366,0.444,0.486,0.72S217.104,115.73,217.104,116.05z M215.76,116.05c0-0.256-0.092-0.476-0.276-0.66
		c-0.184-0.184-0.404-0.276-0.66-0.276s-0.476,0.092-0.66,0.276c-0.184,0.185-0.276,0.404-0.276,0.66
		c0,0.256,0.092,0.474,0.276,0.654c0.184,0.18,0.404,0.27,0.66,0.27s0.476-0.09,0.66-0.27
		C215.668,116.524,215.76,116.306,215.76,116.05z M215.748,122.83l-1.068-0.528l4.956-8.76l1.116,0.54L215.748,122.83z
		 M222.864,120.298c0,0.312-0.06,0.606-0.18,0.882c-0.12,0.276-0.282,0.516-0.486,0.72s-0.446,0.366-0.726,0.486
		c-0.28,0.12-0.576,0.18-0.888,0.18s-0.608-0.06-0.888-0.18c-0.28-0.12-0.522-0.282-0.726-0.486s-0.366-0.444-0.486-0.72
		c-0.12-0.276-0.18-0.57-0.18-0.882s0.06-0.606,0.18-0.882c0.12-0.276,0.282-0.516,0.486-0.72s0.446-0.366,0.726-0.486
		c0.28-0.12,0.576-0.18,0.888-0.18s0.608,0.06,0.888,0.18c0.28,0.12,0.522,0.282,0.726,0.486s0.366,0.444,0.486,0.72
		C222.804,119.692,222.864,119.986,222.864,120.298z M221.521,120.298c0-0.128-0.026-0.25-0.078-0.366
		c-0.052-0.116-0.12-0.216-0.204-0.3s-0.182-0.15-0.294-0.198c-0.112-0.048-0.232-0.072-0.36-0.072c-0.256,0-0.476,0.092-0.66,0.276
		c-0.184,0.184-0.276,0.404-0.276,0.66c0,0.256,0.092,0.474,0.276,0.654c0.184,0.18,0.404,0.27,0.66,0.27
		c0.128,0,0.248-0.024,0.36-0.072c0.112-0.048,0.21-0.114,0.294-0.198s0.152-0.182,0.204-0.294
		C221.494,120.546,221.521,120.426,221.521,120.298z"/>
</g>
<g>
	<path fill="#FFFFFF" d="M146.21,118.641c0,0.591-0.102,1.135-0.307,1.631c-0.204,0.497-0.487,0.925-0.849,1.287
		c-0.361,0.361-0.789,0.644-1.281,0.849c-0.493,0.204-1.027,0.307-1.604,0.307c-0.577,0-1.112-0.103-1.604-0.307
		c-0.493-0.205-0.92-0.487-1.281-0.849c-0.361-0.362-0.645-0.791-0.849-1.287c-0.205-0.496-0.307-1.04-0.307-1.631
		s0.102-1.135,0.307-1.632c0.204-0.497,0.487-0.925,0.849-1.287s0.789-0.645,1.281-0.849c0.493-0.205,1.027-0.307,1.604-0.307
		c0.577,0,1.111,0.102,1.604,0.307c0.493,0.204,0.92,0.487,1.281,0.849s0.645,0.79,0.849,1.287
		C146.108,117.505,146.21,118.049,146.21,118.641z M145.378,118.646c0-0.452-0.073-0.882-0.219-1.29s-0.357-0.767-0.635-1.077
		c-0.278-0.31-0.615-0.556-1.013-0.738s-0.845-0.273-1.341-0.273c-0.497,0-0.944,0.091-1.342,0.273s-0.735,0.428-1.013,0.738
		c-0.278,0.31-0.489,0.669-0.635,1.077s-0.219,0.838-0.219,1.29s0.073,0.882,0.219,1.29s0.357,0.766,0.635,1.072
		c0.277,0.306,0.615,0.55,1.013,0.732c0.398,0.182,0.845,0.273,1.342,0.273c0.496,0,0.943-0.091,1.341-0.273
		c0.398-0.183,0.735-0.427,1.013-0.732c0.277-0.306,0.489-0.664,0.635-1.072S145.378,119.098,145.378,118.646z"/>
	<path fill="#FFFFFF" d="M149.912,122.517h-0.822l-2.091-5.125h0.832l1.665,4.336h0.022l1.676-4.336h0.799L149.912,122.517z"/>
	<path fill="#FFFFFF" d="M157.818,119.801c0,0.051,0,0.106,0,0.164c0,0.059-0.004,0.121-0.011,0.187h-4.249
		c0.007,0.255,0.059,0.497,0.153,0.723c0.095,0.227,0.227,0.423,0.395,0.591c0.167,0.168,0.365,0.301,0.591,0.4
		c0.226,0.098,0.471,0.147,0.733,0.147c0.387,0,0.721-0.089,1.002-0.268c0.281-0.179,0.495-0.385,0.641-0.619l0.559,0.438
		c-0.307,0.387-0.644,0.665-1.013,0.832c-0.369,0.168-0.765,0.252-1.188,0.252c-0.379,0-0.732-0.067-1.057-0.203
		c-0.325-0.135-0.604-0.323-0.838-0.564c-0.233-0.241-0.418-0.525-0.553-0.854c-0.135-0.329-0.203-0.686-0.203-1.073
		c0-0.387,0.065-0.745,0.197-1.073c0.131-0.329,0.313-0.613,0.547-0.854c0.233-0.241,0.507-0.429,0.821-0.564
		s0.653-0.203,1.019-0.203c0.401,0,0.755,0.067,1.062,0.203s0.562,0.317,0.767,0.547s0.359,0.499,0.465,0.805
		S157.818,119.451,157.818,119.801z M157.062,119.561c-0.022-0.482-0.177-0.882-0.465-1.199c-0.289-0.318-0.699-0.477-1.232-0.477
		c-0.249,0-0.479,0.046-0.69,0.137c-0.212,0.091-0.398,0.215-0.559,0.372c-0.161,0.157-0.289,0.336-0.383,0.537
		s-0.15,0.411-0.164,0.63H157.062z"/>
	<path fill="#FFFFFF" d="M159.406,117.983c-0.007-0.219-0.018-0.416-0.033-0.591h0.712c0.014,0.139,0.025,0.292,0.033,0.46
		s0.011,0.307,0.011,0.416h0.022c0.146-0.299,0.365-0.542,0.657-0.728c0.292-0.187,0.62-0.279,0.985-0.279
		c0.095,0,0.181,0.004,0.257,0.011c0.077,0.007,0.155,0.022,0.235,0.044l-0.098,0.712c-0.044-0.015-0.117-0.029-0.219-0.044
		c-0.103-0.015-0.205-0.022-0.307-0.022c-0.197,0-0.387,0.037-0.569,0.109c-0.183,0.073-0.341,0.188-0.477,0.344
		c-0.135,0.156-0.245,0.356-0.329,0.601s-0.125,0.538-0.125,0.879v2.622h-0.745v-3.997
		C159.417,118.381,159.414,118.203,159.406,117.983z"/>
	<path fill="#FFFFFF" d="M164.147,118.235c0.139-0.299,0.369-0.537,0.69-0.712s0.665-0.263,1.029-0.263
		c0.65,0,1.137,0.193,1.462,0.58c0.325,0.387,0.487,0.898,0.487,1.533v3.143h-0.745v-2.836c0-0.27-0.021-0.515-0.065-0.733
		c-0.044-0.219-0.119-0.407-0.225-0.564c-0.106-0.157-0.248-0.279-0.427-0.367c-0.179-0.087-0.403-0.131-0.673-0.131
		c-0.197,0-0.389,0.041-0.575,0.121c-0.187,0.081-0.353,0.203-0.499,0.367c-0.146,0.165-0.263,0.373-0.35,0.625
		c-0.088,0.251-0.132,0.549-0.132,0.892v2.628h-0.745v-8.279h0.745v3.997H164.147z"/>
	<path fill="#FFFFFF" d="M174.409,119.801c0,0.051,0,0.106,0,0.164c0,0.059-0.004,0.121-0.011,0.187h-4.249
		c0.007,0.255,0.059,0.497,0.153,0.723c0.095,0.227,0.227,0.423,0.395,0.591c0.167,0.168,0.365,0.301,0.591,0.4
		c0.226,0.098,0.471,0.147,0.733,0.147c0.387,0,0.721-0.089,1.002-0.268c0.281-0.179,0.495-0.385,0.641-0.619l0.559,0.438
		c-0.307,0.387-0.644,0.665-1.013,0.832c-0.369,0.168-0.765,0.252-1.188,0.252c-0.379,0-0.732-0.067-1.057-0.203
		c-0.325-0.135-0.604-0.323-0.838-0.564c-0.233-0.241-0.418-0.525-0.553-0.854c-0.135-0.329-0.203-0.686-0.203-1.073
		c0-0.387,0.065-0.745,0.197-1.073c0.131-0.329,0.313-0.613,0.547-0.854c0.233-0.241,0.507-0.429,0.821-0.564
		s0.653-0.203,1.019-0.203c0.401,0,0.755,0.067,1.062,0.203s0.562,0.317,0.767,0.547s0.359,0.499,0.465,0.805
		S174.409,119.451,174.409,119.801z M173.653,119.561c-0.022-0.482-0.177-0.882-0.465-1.199c-0.289-0.318-0.699-0.477-1.232-0.477
		c-0.249,0-0.479,0.046-0.69,0.137c-0.212,0.091-0.398,0.215-0.559,0.372c-0.161,0.157-0.289,0.336-0.383,0.537
		s-0.15,0.411-0.164,0.63H173.653z"/>
	<path fill="#FFFFFF" d="M179.172,119.2c0-0.442-0.117-0.771-0.351-0.989c-0.234-0.217-0.573-0.326-1.019-0.326
		c-0.307,0-0.591,0.055-0.854,0.165c-0.263,0.109-0.486,0.255-0.668,0.438l-0.417-0.493c0.212-0.211,0.491-0.387,0.838-0.525
		s0.739-0.208,1.177-0.208c0.277,0,0.537,0.038,0.777,0.115c0.241,0.077,0.453,0.192,0.635,0.345s0.325,0.347,0.427,0.58
		c0.102,0.234,0.153,0.508,0.153,0.822v2.245c0,0.197,0.007,0.402,0.022,0.613c0.015,0.212,0.036,0.391,0.065,0.537h-0.668
		c-0.022-0.124-0.04-0.259-0.055-0.405s-0.022-0.288-0.022-0.427h-0.022c-0.233,0.343-0.498,0.589-0.794,0.739
		c-0.295,0.15-0.651,0.225-1.067,0.225c-0.197,0-0.4-0.027-0.608-0.082c-0.208-0.055-0.398-0.145-0.569-0.27
		c-0.172-0.125-0.314-0.286-0.427-0.483s-0.169-0.439-0.169-0.725c0-0.396,0.1-0.709,0.301-0.939s0.469-0.403,0.805-0.517
		c0.335-0.113,0.721-0.187,1.155-0.22c0.434-0.033,0.885-0.049,1.353-0.049V119.2z M178.953,119.955
		c-0.307,0-0.615,0.013-0.925,0.038c-0.311,0.026-0.591,0.077-0.843,0.153s-0.458,0.188-0.619,0.334s-0.241,0.339-0.241,0.58
		c0,0.183,0.035,0.336,0.104,0.46c0.069,0.125,0.163,0.225,0.279,0.301s0.247,0.131,0.389,0.164
		c0.142,0.033,0.286,0.049,0.432,0.049c0.263,0,0.497-0.045,0.701-0.137c0.204-0.091,0.376-0.215,0.515-0.373
		c0.139-0.157,0.245-0.337,0.317-0.542c0.073-0.204,0.11-0.419,0.11-0.646v-0.383H178.953z"/>
	<path fill="#FFFFFF" d="M186.005,121.652c-0.219,0.329-0.504,0.577-0.854,0.745c-0.351,0.168-0.712,0.252-1.084,0.252
		c-0.401,0-0.765-0.069-1.089-0.208c-0.325-0.139-0.603-0.329-0.833-0.569c-0.23-0.241-0.409-0.526-0.537-0.854
		c-0.127-0.328-0.191-0.682-0.191-1.062c0-0.379,0.064-0.734,0.191-1.062c0.128-0.329,0.307-0.613,0.537-0.854
		c0.23-0.241,0.507-0.431,0.833-0.569c0.325-0.139,0.688-0.208,1.089-0.208c0.373,0,0.734,0.086,1.084,0.257
		c0.35,0.171,0.635,0.425,0.854,0.761h0.022v-4.041h0.745v8.279h-0.745v-0.865H186.005z M182.206,119.955
		c0,0.285,0.043,0.553,0.131,0.805c0.087,0.252,0.213,0.471,0.378,0.657c0.164,0.186,0.367,0.333,0.607,0.438
		c0.241,0.106,0.515,0.159,0.821,0.159c0.285,0,0.548-0.053,0.789-0.159c0.241-0.105,0.449-0.25,0.624-0.433
		c0.175-0.182,0.312-0.399,0.411-0.651c0.098-0.252,0.147-0.524,0.147-0.816s-0.049-0.564-0.147-0.816
		c-0.099-0.252-0.236-0.471-0.411-0.657c-0.175-0.187-0.383-0.333-0.624-0.438c-0.241-0.105-0.504-0.159-0.789-0.159
		c-0.307,0-0.58,0.055-0.821,0.165c-0.241,0.109-0.443,0.257-0.607,0.443c-0.165,0.186-0.291,0.405-0.378,0.657
		C182.249,119.401,182.206,119.67,182.206,119.955z"/>
	<path fill="#FFFFFF" d="M191.492,118.607c-0.109-0.211-0.276-0.385-0.499-0.52c-0.223-0.135-0.476-0.203-0.761-0.203
		c-0.131,0-0.263,0.015-0.395,0.044s-0.248,0.077-0.35,0.142c-0.103,0.066-0.185,0.15-0.247,0.252
		c-0.062,0.103-0.093,0.223-0.093,0.361c0,0.241,0.099,0.426,0.296,0.553c0.197,0.128,0.507,0.235,0.931,0.323
		c0.606,0.124,1.053,0.305,1.342,0.542c0.288,0.237,0.433,0.557,0.433,0.958c0,0.292-0.057,0.539-0.17,0.739
		s-0.261,0.365-0.443,0.493c-0.183,0.128-0.389,0.219-0.619,0.274s-0.461,0.082-0.695,0.082c-0.387,0-0.763-0.081-1.128-0.241
		c-0.365-0.161-0.664-0.413-0.898-0.756l0.591-0.438c0.131,0.227,0.325,0.416,0.581,0.569c0.255,0.153,0.537,0.23,0.843,0.23
		c0.161,0,0.314-0.014,0.46-0.043s0.274-0.081,0.383-0.153c0.109-0.073,0.197-0.166,0.263-0.279s0.099-0.254,0.099-0.422
		c0-0.27-0.13-0.473-0.389-0.607c-0.259-0.135-0.634-0.261-1.123-0.378c-0.153-0.037-0.316-0.082-0.487-0.137
		c-0.172-0.055-0.331-0.135-0.477-0.241c-0.146-0.105-0.267-0.239-0.361-0.4c-0.095-0.16-0.142-0.361-0.142-0.602
		c0-0.263,0.051-0.487,0.153-0.673c0.102-0.187,0.239-0.34,0.411-0.46c0.171-0.121,0.367-0.21,0.586-0.269
		c0.219-0.058,0.445-0.087,0.679-0.087c0.357,0,0.705,0.081,1.041,0.241c0.335,0.161,0.587,0.387,0.755,0.679L191.492,118.607z"/>
</g>
<g>
	<polygon fill="#ED1C24" points="0,145.991 269.913,145.991 279.538,162.89 0,162.89 	"/>
	<g>
		<path fill="#FFFFFF" d="M247.254,158.323v-6.24l-1.584,1.224l-1.044-1.428l2.795-2.052h1.837v8.496H247.254z"/>
		<path fill="#FFFFFF" d="M258.81,155.467c0,0.48-0.088,0.912-0.264,1.296c-0.176,0.384-0.416,0.708-0.719,0.972
			c-0.303,0.264-0.659,0.466-1.066,0.606c-0.407,0.14-0.838,0.21-1.293,0.21c-0.463,0-0.896-0.07-1.3-0.21
			c-0.403-0.14-0.757-0.342-1.06-0.606c-0.303-0.264-0.543-0.584-0.719-0.96s-0.263-0.796-0.263-1.26
			c0-0.504,0.088-0.962,0.264-1.374c0.176-0.412,0.404-0.83,0.684-1.254l2.05-3.06h2.434l-2.089,2.904l-0.036,0.06
			c0.08-0.032,0.176-0.056,0.288-0.072s0.216-0.024,0.312-0.024c0.367,0,0.721,0.066,1.06,0.198c0.339,0.132,0.635,0.32,0.886,0.564
			c0.252,0.244,0.453,0.536,0.605,0.876C258.734,154.673,258.81,155.051,258.81,155.467z M256.806,155.515
			c0-0.384-0.121-0.702-0.361-0.954c-0.241-0.252-0.562-0.378-0.964-0.378s-0.728,0.124-0.977,0.372s-0.374,0.572-0.374,0.972
			c0,0.368,0.12,0.684,0.361,0.948c0.241,0.264,0.567,0.396,0.977,0.396c0.402,0,0.725-0.124,0.97-0.372
			C256.683,156.251,256.806,155.923,256.806,155.515z"/>
		<path fill="#FFFFFF" d="M264.27,151.951c0,0.312-0.06,0.606-0.18,0.882c-0.12,0.276-0.282,0.516-0.486,0.72
			c-0.204,0.204-0.446,0.366-0.726,0.486c-0.28,0.12-0.576,0.18-0.888,0.18s-0.608-0.06-0.888-0.18
			c-0.28-0.12-0.522-0.282-0.726-0.486c-0.204-0.204-0.366-0.444-0.486-0.72c-0.12-0.276-0.18-0.57-0.18-0.882
			c0-0.32,0.06-0.618,0.18-0.894c0.12-0.276,0.282-0.516,0.486-0.72c0.204-0.204,0.446-0.364,0.726-0.48
			c0.28-0.116,0.576-0.174,0.888-0.174s0.608,0.058,0.888,0.174c0.28,0.116,0.522,0.276,0.726,0.48
			c0.204,0.204,0.366,0.444,0.486,0.72S264.27,151.631,264.27,151.951z M262.926,151.951c0-0.256-0.092-0.476-0.276-0.66
			c-0.184-0.184-0.404-0.276-0.66-0.276s-0.476,0.092-0.66,0.276c-0.184,0.185-0.276,0.404-0.276,0.66
			c0,0.256,0.092,0.474,0.276,0.654c0.184,0.18,0.404,0.27,0.66,0.27s0.476-0.09,0.66-0.27
			C262.834,152.425,262.926,152.208,262.926,151.951z M262.914,158.731l-1.068-0.528l4.956-8.76l1.116,0.54L262.914,158.731z
			 M270.03,156.199c0,0.312-0.06,0.606-0.18,0.882c-0.12,0.276-0.282,0.516-0.486,0.72s-0.446,0.366-0.726,0.486
			c-0.28,0.12-0.576,0.18-0.888,0.18s-0.608-0.06-0.888-0.18c-0.28-0.12-0.522-0.282-0.726-0.486s-0.366-0.444-0.486-0.72
			c-0.12-0.276-0.18-0.57-0.18-0.882s0.06-0.606,0.18-0.882c0.12-0.276,0.282-0.516,0.486-0.72s0.446-0.366,0.726-0.486
			c0.28-0.12,0.576-0.18,0.888-0.18s0.608,0.06,0.888,0.18c0.28,0.12,0.522,0.282,0.726,0.486s0.366,0.444,0.486,0.72
			C269.97,155.593,270.03,155.887,270.03,156.199z M268.686,156.199c0-0.128-0.026-0.25-0.078-0.366
			c-0.052-0.116-0.12-0.216-0.204-0.3s-0.182-0.15-0.294-0.198c-0.112-0.048-0.232-0.072-0.36-0.072
			c-0.256,0-0.476,0.092-0.66,0.276c-0.184,0.184-0.276,0.404-0.276,0.66c0,0.256,0.092,0.474,0.276,0.654
			c0.184,0.18,0.404,0.27,0.66,0.27c0.128,0,0.248-0.024,0.36-0.072c0.112-0.048,0.21-0.114,0.294-0.198s0.152-0.182,0.204-0.294
			C268.66,156.447,268.686,156.327,268.686,156.199z"/>
	</g>
	<g>
		<path fill="#FFFFFF" d="M152.464,151.914c-0.168-0.233-0.383-0.421-0.646-0.564c-0.263-0.142-0.581-0.213-0.953-0.213
			c-0.19,0-0.383,0.029-0.58,0.087c-0.197,0.059-0.376,0.148-0.537,0.269c-0.161,0.12-0.291,0.272-0.389,0.454
			c-0.099,0.183-0.148,0.398-0.148,0.646s0.047,0.453,0.142,0.613c0.095,0.161,0.22,0.297,0.377,0.411s0.335,0.206,0.535,0.279
			c0.2,0.073,0.41,0.146,0.628,0.219c0.27,0.087,0.541,0.183,0.813,0.285c0.273,0.103,0.519,0.235,0.737,0.4
			c0.218,0.164,0.397,0.372,0.535,0.624s0.208,0.571,0.208,0.958c0,0.387-0.074,0.721-0.221,1.002
			c-0.148,0.281-0.339,0.513-0.575,0.695s-0.505,0.317-0.808,0.405c-0.303,0.087-0.607,0.131-0.914,0.131
			c-0.234,0-0.467-0.024-0.701-0.071c-0.233-0.048-0.456-0.119-0.668-0.213c-0.212-0.095-0.409-0.215-0.591-0.362
			c-0.183-0.146-0.343-0.313-0.482-0.503l0.679-0.504c0.168,0.278,0.403,0.509,0.706,0.695c0.303,0.187,0.659,0.279,1.068,0.279
			c0.197,0,0.398-0.031,0.603-0.093c0.204-0.062,0.389-0.157,0.553-0.285c0.165-0.127,0.299-0.285,0.405-0.471
			s0.159-0.403,0.159-0.651c0-0.27-0.053-0.495-0.159-0.674c-0.106-0.179-0.247-0.328-0.421-0.449
			c-0.175-0.121-0.376-0.221-0.603-0.301c-0.227-0.08-0.464-0.161-0.712-0.241c-0.255-0.081-0.507-0.171-0.755-0.274
			c-0.249-0.102-0.471-0.235-0.668-0.4c-0.197-0.164-0.356-0.367-0.477-0.607c-0.121-0.241-0.181-0.537-0.181-0.887
			c0-0.372,0.075-0.693,0.225-0.964c0.149-0.27,0.345-0.493,0.586-0.668c0.241-0.175,0.507-0.303,0.799-0.383
			c0.292-0.08,0.581-0.12,0.865-0.12c0.525,0,0.975,0.093,1.347,0.279c0.373,0.186,0.653,0.407,0.843,0.662L152.464,151.914z"/>
		<path fill="#FFFFFF" d="M158.564,158.418c-0.015-0.139-0.026-0.292-0.033-0.46c-0.008-0.168-0.011-0.307-0.011-0.416h-0.022
			c-0.146,0.299-0.383,0.542-0.712,0.728c-0.328,0.186-0.675,0.279-1.04,0.279c-0.65,0-1.137-0.193-1.462-0.581
			c-0.325-0.387-0.487-0.898-0.487-1.533v-3.143h0.745v2.836c0,0.27,0.022,0.515,0.065,0.733c0.044,0.219,0.119,0.407,0.225,0.564
			c0.106,0.157,0.248,0.279,0.427,0.367c0.179,0.087,0.403,0.131,0.673,0.131c0.197,0,0.389-0.04,0.575-0.121
			c0.186-0.08,0.352-0.203,0.498-0.367c0.146-0.165,0.263-0.373,0.351-0.625c0.087-0.251,0.131-0.549,0.131-0.892v-2.628h0.745
			v3.997c0,0.139,0.003,0.317,0.011,0.537c0.007,0.219,0.018,0.416,0.033,0.591H158.564z"/>
		<path fill="#FFFFFF" d="M161.948,161.047h-0.745v-7.753h0.745v0.887h0.033c0.211-0.336,0.495-0.59,0.849-0.761
			s0.713-0.257,1.079-0.257c0.401,0,0.765,0.069,1.09,0.208c0.325,0.139,0.602,0.329,0.832,0.569
			c0.23,0.241,0.409,0.526,0.537,0.854c0.127,0.328,0.191,0.683,0.191,1.062c0,0.38-0.064,0.734-0.191,1.062
			c-0.128,0.329-0.307,0.613-0.537,0.854c-0.23,0.241-0.507,0.431-0.832,0.569c-0.325,0.139-0.688,0.208-1.09,0.208
			c-0.365,0-0.725-0.086-1.079-0.257s-0.637-0.418-0.849-0.739h-0.033V161.047z M165.77,155.856c0-0.285-0.044-0.553-0.131-0.805
			c-0.088-0.252-0.214-0.471-0.378-0.657c-0.165-0.186-0.367-0.334-0.608-0.443c-0.241-0.11-0.515-0.165-0.821-0.165
			c-0.285,0-0.547,0.053-0.789,0.159c-0.241,0.106-0.449,0.252-0.624,0.438c-0.175,0.186-0.312,0.405-0.411,0.657
			s-0.148,0.524-0.148,0.816s0.049,0.564,0.148,0.816s0.235,0.469,0.411,0.651c0.175,0.183,0.383,0.327,0.624,0.433
			c0.241,0.106,0.504,0.159,0.789,0.159c0.307,0,0.581-0.053,0.821-0.159c0.241-0.105,0.443-0.252,0.608-0.438
			c0.164-0.186,0.29-0.405,0.378-0.657C165.726,156.409,165.77,156.141,165.77,155.856z"/>
		<path fill="#FFFFFF" d="M168.901,161.047h-0.745v-7.753h0.745v0.887h0.033c0.211-0.336,0.495-0.59,0.849-0.761
			s0.713-0.257,1.079-0.257c0.401,0,0.765,0.069,1.09,0.208c0.325,0.139,0.602,0.329,0.832,0.569
			c0.23,0.241,0.409,0.526,0.537,0.854c0.127,0.328,0.191,0.683,0.191,1.062c0,0.38-0.064,0.734-0.191,1.062
			c-0.128,0.329-0.307,0.613-0.537,0.854c-0.23,0.241-0.507,0.431-0.832,0.569c-0.325,0.139-0.688,0.208-1.09,0.208
			c-0.365,0-0.725-0.086-1.079-0.257s-0.637-0.418-0.849-0.739h-0.033V161.047z M172.723,155.856c0-0.285-0.044-0.553-0.131-0.805
			c-0.088-0.252-0.214-0.471-0.378-0.657c-0.165-0.186-0.367-0.334-0.608-0.443c-0.241-0.11-0.515-0.165-0.821-0.165
			c-0.285,0-0.547,0.053-0.789,0.159c-0.241,0.106-0.449,0.252-0.624,0.438c-0.175,0.186-0.312,0.405-0.411,0.657
			s-0.148,0.524-0.148,0.816s0.049,0.564,0.148,0.816s0.235,0.469,0.411,0.651c0.175,0.183,0.383,0.327,0.624,0.433
			c0.241,0.106,0.504,0.159,0.789,0.159c0.307,0,0.581-0.053,0.821-0.159c0.241-0.105,0.443-0.252,0.608-0.438
			c0.164-0.186,0.29-0.405,0.378-0.657C172.679,156.409,172.723,156.141,172.723,155.856z"/>
		<path fill="#FFFFFF" d="M180.203,155.856c0,0.387-0.067,0.745-0.203,1.073s-0.323,0.613-0.564,0.854
			c-0.241,0.241-0.529,0.429-0.865,0.564c-0.336,0.135-0.705,0.203-1.106,0.203c-0.394,0-0.759-0.067-1.095-0.203
			c-0.336-0.135-0.625-0.323-0.865-0.564c-0.241-0.241-0.429-0.525-0.564-0.854c-0.135-0.329-0.203-0.686-0.203-1.073
			c0-0.387,0.067-0.745,0.203-1.073c0.135-0.329,0.323-0.613,0.564-0.854c0.241-0.241,0.529-0.429,0.865-0.564
			c0.335-0.135,0.701-0.203,1.095-0.203c0.401,0,0.771,0.067,1.106,0.203c0.335,0.135,0.624,0.323,0.865,0.564
			c0.241,0.241,0.429,0.525,0.564,0.854S180.203,155.469,180.203,155.856z M179.414,155.856c0-0.285-0.045-0.553-0.137-0.805
			c-0.091-0.252-0.221-0.471-0.389-0.657s-0.373-0.334-0.613-0.443c-0.241-0.11-0.511-0.165-0.811-0.165s-0.567,0.055-0.805,0.165
			c-0.237,0.109-0.44,0.257-0.608,0.443s-0.297,0.405-0.389,0.657c-0.091,0.251-0.137,0.52-0.137,0.805s0.045,0.553,0.137,0.805
			c0.091,0.252,0.221,0.471,0.389,0.657s0.371,0.333,0.608,0.438c0.237,0.106,0.505,0.159,0.805,0.159s0.57-0.053,0.811-0.159
			c0.241-0.105,0.445-0.252,0.613-0.438s0.297-0.405,0.389-0.657C179.369,156.409,179.414,156.141,179.414,155.856z"/>
		<path fill="#FFFFFF" d="M181.791,153.885c-0.007-0.219-0.018-0.416-0.033-0.591h0.712c0.014,0.139,0.025,0.292,0.033,0.46
			s0.011,0.307,0.011,0.416h0.022c0.146-0.299,0.365-0.542,0.657-0.728c0.292-0.187,0.62-0.279,0.985-0.279
			c0.095,0,0.181,0.004,0.257,0.011c0.077,0.007,0.155,0.022,0.235,0.044l-0.098,0.712c-0.044-0.015-0.117-0.029-0.219-0.044
			c-0.103-0.015-0.205-0.022-0.307-0.022c-0.197,0-0.387,0.037-0.569,0.109c-0.183,0.073-0.341,0.188-0.477,0.344
			c-0.135,0.156-0.245,0.356-0.329,0.601s-0.125,0.538-0.125,0.879v2.622h-0.745v-3.997
			C181.801,154.283,181.798,154.104,181.791,153.885z"/>
		<path fill="#FFFFFF" d="M187.923,153.917h-1.446v2.99c0,0.19,0.018,0.347,0.055,0.471c0.037,0.125,0.089,0.221,0.159,0.291
			c0.069,0.069,0.151,0.117,0.246,0.142c0.095,0.026,0.197,0.039,0.307,0.039c0.102,0,0.21-0.015,0.323-0.044
			c0.113-0.029,0.221-0.069,0.323-0.121l0.033,0.646c-0.131,0.051-0.269,0.089-0.411,0.115c-0.143,0.025-0.298,0.039-0.466,0.039
			c-0.139,0-0.285-0.019-0.438-0.055c-0.153-0.036-0.295-0.105-0.427-0.208c-0.131-0.102-0.239-0.241-0.323-0.416
			s-0.126-0.405-0.126-0.69v-3.198h-1.062v-0.624h1.062v-1.445h0.745v1.445h1.446V153.917z"/>
		<path fill="#FFFFFF" d="M192.653,158.418h-0.789v-7.753h4.676v0.701h-3.888v2.683h3.614v0.701h-3.614V158.418z"/>
		<path fill="#FFFFFF" d="M201.239,158.418c-0.015-0.139-0.026-0.292-0.033-0.46c-0.008-0.168-0.011-0.307-0.011-0.416h-0.022
			c-0.146,0.299-0.383,0.542-0.712,0.728c-0.328,0.186-0.675,0.279-1.04,0.279c-0.65,0-1.137-0.193-1.462-0.581
			c-0.325-0.387-0.487-0.898-0.487-1.533v-3.143h0.745v2.836c0,0.27,0.022,0.515,0.065,0.733c0.044,0.219,0.119,0.407,0.225,0.564
			c0.106,0.157,0.248,0.279,0.427,0.367c0.179,0.087,0.403,0.131,0.673,0.131c0.197,0,0.389-0.04,0.575-0.121
			c0.186-0.08,0.352-0.203,0.498-0.367c0.146-0.165,0.263-0.373,0.351-0.625c0.087-0.251,0.131-0.549,0.131-0.892v-2.628h0.745
			v3.997c0,0.139,0.003,0.317,0.011,0.537c0.007,0.219,0.018,0.416,0.033,0.591H201.239z"/>
		<path fill="#FFFFFF" d="M204.546,153.293c0.014,0.139,0.025,0.292,0.033,0.46s0.011,0.307,0.011,0.416h0.022
			c0.146-0.299,0.383-0.542,0.712-0.728c0.329-0.187,0.675-0.279,1.04-0.279c0.65,0,1.137,0.193,1.462,0.58
			c0.325,0.387,0.487,0.898,0.487,1.533v3.143h-0.745v-2.836c0-0.27-0.022-0.515-0.066-0.733c-0.044-0.219-0.119-0.407-0.225-0.564
			c-0.106-0.157-0.248-0.279-0.427-0.367c-0.179-0.087-0.404-0.131-0.674-0.131c-0.197,0-0.389,0.041-0.575,0.121
			c-0.186,0.081-0.353,0.203-0.499,0.367c-0.146,0.165-0.263,0.373-0.35,0.625c-0.088,0.251-0.131,0.549-0.131,0.892v2.628h-0.745
			v-3.997c0-0.139-0.003-0.317-0.011-0.537c-0.007-0.219-0.018-0.416-0.033-0.591H204.546z"/>
		<path fill="#FFFFFF" d="M213.931,154.465c-0.125-0.197-0.305-0.36-0.542-0.487c-0.237-0.128-0.495-0.192-0.772-0.192
			c-0.299,0-0.569,0.053-0.81,0.159c-0.241,0.106-0.447,0.252-0.619,0.438c-0.171,0.186-0.303,0.405-0.394,0.657
			s-0.137,0.524-0.137,0.816s0.045,0.562,0.137,0.811c0.091,0.248,0.221,0.465,0.389,0.651s0.373,0.333,0.613,0.438
			c0.241,0.106,0.511,0.159,0.811,0.159c0.329,0,0.606-0.062,0.832-0.186c0.227-0.124,0.413-0.285,0.559-0.482l0.559,0.417
			c-0.219,0.27-0.487,0.485-0.805,0.646c-0.317,0.16-0.699,0.241-1.144,0.241c-0.416,0-0.792-0.067-1.128-0.203
			c-0.336-0.135-0.623-0.323-0.86-0.564c-0.237-0.241-0.421-0.525-0.553-0.854c-0.132-0.329-0.197-0.686-0.197-1.073
			c0-0.387,0.065-0.745,0.197-1.073c0.131-0.329,0.315-0.613,0.553-0.854c0.237-0.241,0.524-0.429,0.86-0.564
			c0.335-0.135,0.712-0.203,1.128-0.203c0.343,0,0.691,0.075,1.046,0.225c0.354,0.149,0.641,0.371,0.859,0.662L213.931,154.465z"/>
		<path fill="#FFFFFF" d="M218.026,153.917h-1.446v2.99c0,0.19,0.018,0.347,0.055,0.471c0.037,0.125,0.089,0.221,0.159,0.291
			c0.069,0.069,0.151,0.117,0.246,0.142c0.095,0.026,0.197,0.039,0.307,0.039c0.102,0,0.21-0.015,0.323-0.044
			c0.113-0.029,0.221-0.069,0.323-0.121l0.033,0.646c-0.131,0.051-0.269,0.089-0.411,0.115c-0.143,0.025-0.298,0.039-0.466,0.039
			c-0.139,0-0.285-0.019-0.438-0.055c-0.153-0.036-0.295-0.105-0.427-0.208c-0.131-0.102-0.239-0.241-0.323-0.416
			s-0.126-0.405-0.126-0.69v-3.198h-1.062v-0.624h1.062v-1.445h0.745v1.445h1.446V153.917z"/>
		<path fill="#FFFFFF" d="M220.096,151.322c0,0.153-0.055,0.279-0.164,0.378c-0.11,0.099-0.23,0.148-0.362,0.148
			c-0.131,0-0.251-0.049-0.361-0.148c-0.109-0.099-0.164-0.225-0.164-0.378s0.055-0.279,0.164-0.378
			c0.11-0.099,0.23-0.147,0.361-0.147c0.132,0,0.252,0.049,0.362,0.147C220.042,151.043,220.096,151.169,220.096,151.322z
			 M219.943,158.418h-0.745v-5.125h0.745V158.418z"/>
		<path fill="#FFFFFF" d="M227.017,155.856c0,0.387-0.067,0.745-0.203,1.073s-0.323,0.613-0.564,0.854
			c-0.241,0.241-0.529,0.429-0.865,0.564c-0.336,0.135-0.705,0.203-1.106,0.203c-0.394,0-0.759-0.067-1.095-0.203
			c-0.336-0.135-0.625-0.323-0.865-0.564c-0.241-0.241-0.429-0.525-0.564-0.854c-0.135-0.329-0.203-0.686-0.203-1.073
			c0-0.387,0.067-0.745,0.203-1.073c0.135-0.329,0.323-0.613,0.564-0.854c0.241-0.241,0.529-0.429,0.865-0.564
			c0.335-0.135,0.701-0.203,1.095-0.203c0.401,0,0.771,0.067,1.106,0.203c0.335,0.135,0.624,0.323,0.865,0.564
			c0.241,0.241,0.429,0.525,0.564,0.854S227.017,155.469,227.017,155.856z M226.228,155.856c0-0.285-0.045-0.553-0.137-0.805
			c-0.091-0.252-0.221-0.471-0.389-0.657s-0.373-0.334-0.613-0.443c-0.241-0.11-0.511-0.165-0.811-0.165s-0.567,0.055-0.805,0.165
			c-0.237,0.109-0.44,0.257-0.608,0.443s-0.297,0.405-0.389,0.657c-0.091,0.251-0.137,0.52-0.137,0.805s0.045,0.553,0.137,0.805
			c0.091,0.252,0.221,0.471,0.389,0.657s0.371,0.333,0.608,0.438c0.237,0.106,0.505,0.159,0.805,0.159s0.57-0.053,0.811-0.159
			c0.241-0.105,0.445-0.252,0.613-0.438s0.297-0.405,0.389-0.657C226.183,156.409,226.228,156.141,226.228,155.856z"/>
		<path fill="#FFFFFF" d="M229.284,153.293c0.014,0.139,0.025,0.292,0.033,0.46s0.011,0.307,0.011,0.416h0.022
			c0.146-0.299,0.383-0.542,0.712-0.728c0.329-0.187,0.675-0.279,1.04-0.279c0.65,0,1.137,0.193,1.462,0.58
			c0.325,0.387,0.487,0.898,0.487,1.533v3.143h-0.745v-2.836c0-0.27-0.022-0.515-0.066-0.733c-0.044-0.219-0.119-0.407-0.225-0.564
			c-0.106-0.157-0.248-0.279-0.427-0.367c-0.179-0.087-0.404-0.131-0.674-0.131c-0.197,0-0.389,0.041-0.575,0.121
			c-0.186,0.081-0.353,0.203-0.499,0.367c-0.146,0.165-0.263,0.373-0.35,0.625c-0.088,0.251-0.131,0.549-0.131,0.892v2.628h-0.745
			v-3.997c0-0.139-0.003-0.317-0.011-0.537c-0.007-0.219-0.018-0.416-0.033-0.591H229.284z"/>
		<path fill="#FFFFFF" d="M237.705,154.509c-0.109-0.211-0.276-0.385-0.499-0.52c-0.223-0.135-0.476-0.203-0.761-0.203
			c-0.131,0-0.263,0.015-0.395,0.044s-0.248,0.077-0.35,0.142c-0.103,0.066-0.185,0.15-0.247,0.252
			c-0.062,0.103-0.093,0.223-0.093,0.361c0,0.241,0.099,0.426,0.296,0.553c0.197,0.128,0.507,0.235,0.931,0.323
			c0.606,0.124,1.053,0.305,1.342,0.542c0.288,0.237,0.433,0.557,0.433,0.958c0,0.292-0.057,0.539-0.17,0.739
			s-0.261,0.365-0.443,0.493c-0.183,0.128-0.389,0.219-0.619,0.274s-0.461,0.082-0.695,0.082c-0.387,0-0.763-0.081-1.128-0.241
			c-0.365-0.161-0.664-0.413-0.898-0.756l0.591-0.438c0.131,0.227,0.325,0.416,0.581,0.569c0.255,0.153,0.537,0.23,0.843,0.23
			c0.161,0,0.314-0.014,0.46-0.043s0.274-0.081,0.383-0.153c0.109-0.073,0.197-0.166,0.263-0.279s0.099-0.254,0.099-0.422
			c0-0.27-0.13-0.473-0.389-0.607c-0.259-0.135-0.634-0.261-1.123-0.378c-0.153-0.037-0.316-0.082-0.487-0.137
			c-0.172-0.055-0.331-0.135-0.477-0.241c-0.146-0.105-0.267-0.239-0.361-0.4c-0.095-0.16-0.142-0.361-0.142-0.602
			c0-0.263,0.051-0.487,0.153-0.673c0.102-0.187,0.239-0.34,0.411-0.46c0.171-0.121,0.367-0.21,0.586-0.269
			c0.219-0.058,0.445-0.087,0.679-0.087c0.357,0,0.705,0.081,1.041,0.241c0.335,0.161,0.587,0.387,0.755,0.679L237.705,154.509z"/>
	</g>
</g>
</svg>
