<?xml version="1.0" encoding="utf-8"?>
<!-- Generator: Adobe Illustrator 16.0.0, SVG Export Plug-In . SVG Version: 6.00 Build 0)  -->
<!DOCTYPE svg PUBLIC "-//W3C//DTD SVG 1.1//EN" "http://www.w3.org/Graphics/SVG/1.1/DTD/svg11.dtd">
<svg version="1.1" id="Layer_1" xmlns="http://www.w3.org/2000/svg" xmlns:xlink="http://www.w3.org/1999/xlink" x="0px" y="0px"
	 width="642.857px" height="652.857px" viewBox="0 0 642.857 652.857" enable-background="new 0 0 642.857 652.857"
	 xml:space="preserve">
<path fill-rule="evenodd" clip-rule="evenodd" fill="#00668E" d="M177.254,302.774c0-92.394,74.897-167.289,167.289-167.289
	c21.084,0,41.977,3.986,61.58,11.746l-30.789,77.771c-42.953-17.002-91.556,4.029-108.561,46.981
	c-3.882,9.802-5.875,20.249-5.875,30.791H177.254z"/>
<path fill-rule="evenodd" clip-rule="evenodd" fill="#008CC2" d="M403.548,164.935c63.799,25.262,105.707,86.922,105.707,155.541
	h-83.645c0-34.31-20.953-65.138-52.854-77.77L403.548,164.935z"/>
<path fill-rule="evenodd" clip-rule="evenodd" fill="#00A1DF" d="M507.306,324.026c0,72.473-46.668,136.706-115.594,159.1
	l-25.846-79.551c34.461-11.197,57.797-43.314,57.797-79.549H507.306z"/>
<path fill-rule="evenodd" clip-rule="evenodd" fill="#99BDE4" d="M385.692,476.417c-54.464,17.695-114.198,6.303-158.326-30.203
	l53.317-64.451c22.063,18.256,51.932,23.951,79.164,15.104L385.692,476.417z"/>
<path fill-rule="evenodd" clip-rule="evenodd" fill="#CCCDE7" d="M232.02,435.347c-38.417-31.783-60.654-79.041-60.654-128.897
	h83.644c0,24.926,11.12,48.559,30.326,64.446L232.02,435.347z"/>
<polygon fill="#ED1C24" points="0,149.918 337.537,149.918 358.721,187.114 0,187.114 "/>
<g>
	<path fill="#FFFFFF" d="M295.583,171.629c0,1.021-0.208,1.904-0.621,2.651c-0.414,0.748-0.955,1.363-1.624,1.847
		c-0.669,0.483-1.422,0.844-2.259,1.081s-1.686,0.356-2.549,0.356c-0.845,0-1.668-0.097-2.47-0.291
		c-0.801-0.194-1.532-0.489-2.192-0.885c-0.66-0.396-1.237-0.907-1.73-1.532c-0.493-0.625-0.863-1.377-1.109-2.258l4.121-1.083
		c0.176,0.617,0.537,1.158,1.083,1.625c0.545,0.467,1.241,0.7,2.086,0.7c0.317,0,0.638-0.043,0.964-0.132
		c0.326-0.088,0.616-0.225,0.872-0.41c0.255-0.185,0.466-0.427,0.634-0.726s0.251-0.669,0.251-1.109c0-0.476-0.11-0.872-0.33-1.189
		c-0.22-0.317-0.511-0.568-0.872-0.752c-0.361-0.185-0.771-0.317-1.229-0.396c-0.458-0.079-0.916-0.119-1.373-0.119h-1.189v-3.223
		h1.294c0.422,0,0.828-0.031,1.215-0.093s0.735-0.177,1.043-0.345c0.308-0.168,0.555-0.395,0.74-0.678
		c0.185-0.284,0.277-0.656,0.277-1.117c0-0.673-0.238-1.187-0.713-1.542c-0.476-0.354-1.021-0.531-1.638-0.531
		c-0.634,0-1.185,0.189-1.651,0.568c-0.467,0.379-0.771,0.885-0.911,1.519l-4.121-0.951c0.229-0.792,0.572-1.483,1.03-2.074
		c0.458-0.59,0.999-1.083,1.625-1.479c0.625-0.396,1.307-0.695,2.047-0.898s1.497-0.304,2.271-0.304
		c0.828,0,1.633,0.106,2.417,0.317c0.783,0.211,1.483,0.538,2.1,0.979c0.616,0.441,1.113,0.992,1.492,1.654
		c0.378,0.661,0.568,1.441,0.568,2.341c0,1.041-0.295,1.918-0.885,2.632c-0.59,0.714-1.343,1.195-2.258,1.441v0.079
		c0.528,0.123,1.012,0.321,1.453,0.594c0.44,0.273,0.819,0.598,1.136,0.976s0.563,0.8,0.74,1.266
		C295.495,170.605,295.583,171.102,295.583,171.629z"/>
	<path fill="#FFFFFF" d="M304.722,177.062v-13.735l-3.487,2.694l-2.298-3.143l6.152-4.517h4.043v18.701H304.722z"/>
	<path fill="#FFFFFF" d="M325.114,163.037c0,0.687-0.132,1.334-0.396,1.941c-0.265,0.608-0.621,1.136-1.07,1.585
		s-0.982,0.806-1.598,1.07c-0.617,0.264-1.268,0.396-1.955,0.396c-0.687,0-1.338-0.132-1.955-0.396
		c-0.617-0.264-1.149-0.621-1.598-1.07s-0.806-0.977-1.07-1.585c-0.264-0.607-0.396-1.254-0.396-1.941
		c0-0.704,0.132-1.36,0.396-1.968s0.621-1.136,1.07-1.585c0.449-0.449,0.981-0.801,1.598-1.056c0.616-0.255,1.268-0.383,1.955-0.383
		c0.687,0,1.338,0.128,1.955,0.383c0.616,0.255,1.149,0.607,1.598,1.056c0.449,0.449,0.806,0.978,1.07,1.585
		C324.982,161.676,325.114,162.333,325.114,163.037z M322.155,163.037c0-0.563-0.203-1.047-0.607-1.453
		c-0.405-0.405-0.889-0.607-1.453-0.607c-0.564,0-1.048,0.203-1.453,0.607c-0.405,0.405-0.608,0.89-0.608,1.453
		c0,0.564,0.203,1.043,0.608,1.439c0.405,0.396,0.889,0.595,1.453,0.595c0.563,0,1.047-0.198,1.453-0.595
		C321.953,164.08,322.155,163.601,322.155,163.037z M322.129,177.96l-2.351-1.162l10.909-19.282l2.457,1.189L322.129,177.96z
		 M337.792,172.387c0,0.687-0.133,1.334-0.396,1.941s-0.621,1.136-1.069,1.585c-0.449,0.449-0.981,0.806-1.599,1.07
		c-0.616,0.264-1.268,0.396-1.954,0.396s-1.339-0.132-1.954-0.396c-0.617-0.264-1.149-0.621-1.599-1.07
		c-0.449-0.449-0.806-0.978-1.069-1.585c-0.265-0.607-0.396-1.254-0.396-1.941c0-0.687,0.132-1.334,0.396-1.941
		c0.264-0.607,0.62-1.136,1.069-1.585c0.449-0.449,0.981-0.806,1.599-1.07c0.615-0.264,1.268-0.396,1.954-0.396
		s1.338,0.132,1.954,0.396c0.617,0.264,1.149,0.621,1.599,1.07c0.448,0.449,0.806,0.978,1.069,1.585
		S337.792,171.701,337.792,172.387z M334.833,172.387c0-0.281-0.057-0.55-0.171-0.806c-0.114-0.255-0.265-0.476-0.449-0.66
		c-0.185-0.185-0.401-0.33-0.647-0.436c-0.246-0.105-0.511-0.158-0.792-0.158c-0.563,0-1.048,0.203-1.452,0.607
		c-0.406,0.405-0.608,0.889-0.608,1.453c0,0.564,0.202,1.043,0.608,1.439c0.404,0.396,0.889,0.594,1.452,0.594
		c0.281,0,0.546-0.053,0.792-0.158c0.246-0.106,0.463-0.251,0.647-0.436c0.185-0.185,0.335-0.4,0.449-0.647
		S334.833,172.669,334.833,172.387z"/>
</g>
<g>
	<path fill="#FFFFFF" d="M75.886,174.331h0.024l5.713-14.125h2.651v17.066h-1.735v-14.824H82.49l-6.171,14.824h-0.916l-6.17-14.824
		h-0.048v14.824h-1.736v-17.066h2.652L75.886,174.331z"/>
	<path fill="#FFFFFF" d="M95.82,169.97c0-0.973-0.257-1.698-0.771-2.177c-0.514-0.478-1.262-0.718-2.242-0.718
		c-0.675,0-1.302,0.121-1.88,0.362c-0.579,0.241-1.069,0.562-1.471,0.964l-0.916-1.084c0.466-0.466,1.081-0.852,1.844-1.157
		c0.763-0.305,1.627-0.458,2.591-0.458c0.61,0,1.181,0.084,1.711,0.253c0.53,0.168,0.996,0.422,1.398,0.759
		c0.401,0.337,0.715,0.763,0.94,1.277c0.225,0.515,0.337,1.117,0.337,1.808v4.941c0,0.434,0.016,0.884,0.048,1.35
		c0.032,0.466,0.08,0.86,0.145,1.181h-1.47c-0.048-0.273-0.088-0.57-0.121-0.892c-0.032-0.321-0.048-0.634-0.048-0.94h-0.048
		c-0.515,0.755-1.097,1.298-1.748,1.627c-0.651,0.33-1.435,0.494-2.351,0.494c-0.434,0-0.879-0.061-1.337-0.181
		s-0.876-0.318-1.253-0.592c-0.378-0.274-0.691-0.629-0.94-1.064c-0.249-0.435-0.374-0.967-0.374-1.596
		c0-0.871,0.221-1.56,0.663-2.067c0.441-0.508,1.032-0.887,1.771-1.137c0.739-0.25,1.587-0.412,2.543-0.484
		c0.956-0.072,1.948-0.108,2.977-0.108V169.97z M95.338,171.631c-0.675,0-1.354,0.028-2.037,0.084
		c-0.683,0.057-1.302,0.169-1.856,0.337c-0.554,0.169-1.009,0.414-1.362,0.735c-0.354,0.322-0.53,0.747-0.53,1.277
		c0,0.402,0.076,0.739,0.229,1.013c0.152,0.273,0.357,0.494,0.615,0.663c0.257,0.169,0.542,0.29,0.855,0.362s0.63,0.108,0.952,0.108
		c0.579,0,1.093-0.1,1.542-0.301c0.45-0.201,0.828-0.474,1.133-0.82c0.305-0.345,0.538-0.743,0.699-1.193
		c0.161-0.45,0.241-0.924,0.241-1.422v-0.844H95.338z"/>
	<path fill="#FFFFFF" d="M101.557,167.292c-0.017-0.482-0.041-0.916-0.073-1.301h1.567c0.032,0.305,0.056,0.643,0.072,1.012
		s0.024,0.675,0.024,0.916h0.048c0.321-0.659,0.804-1.193,1.446-1.603s1.366-0.615,2.169-0.615c0.209,0,0.398,0.008,0.567,0.024
		c0.168,0.016,0.341,0.048,0.518,0.096l-0.217,1.567c-0.097-0.032-0.257-0.064-0.482-0.097c-0.225-0.032-0.45-0.048-0.675-0.048
		c-0.434,0-0.852,0.08-1.253,0.241c-0.402,0.16-0.751,0.413-1.048,0.757c-0.298,0.345-0.539,0.785-0.723,1.322
		c-0.185,0.537-0.277,1.183-0.277,1.936v5.771h-1.639v-8.798C101.581,168.168,101.572,167.774,101.557,167.292z"/>
	<path fill="#FFFFFF" d="M111.945,171.077h0.072l5.207-5.086h2.362l-5.689,5.158l6.267,6.123h-2.41l-5.737-5.93h-0.072v5.93h-1.639
		v-18.223h1.639V171.077z"/>
	<path fill="#FFFFFF" d="M132.386,171.293c0,0.113,0,0.233,0,0.362s-0.008,0.265-0.024,0.41h-9.353
		c0.016,0.562,0.129,1.093,0.338,1.591c0.208,0.499,0.498,0.932,0.868,1.302c0.369,0.37,0.803,0.663,1.302,0.88
		c0.498,0.217,1.036,0.325,1.615,0.325c0.852,0,1.587-0.196,2.206-0.59c0.619-0.394,1.088-0.848,1.41-1.362l1.229,0.964
		c-0.675,0.852-1.418,1.462-2.23,1.832s-1.684,0.554-2.615,0.554c-0.836,0-1.611-0.148-2.326-0.446
		c-0.715-0.297-1.33-0.711-1.844-1.241c-0.515-0.53-0.92-1.157-1.217-1.88c-0.298-0.723-0.446-1.51-0.446-2.362
		c0-0.852,0.145-1.639,0.434-2.362s0.691-1.35,1.205-1.88s1.117-0.944,1.808-1.241c0.691-0.297,1.438-0.446,2.242-0.446
		c0.883,0,1.663,0.149,2.338,0.446c0.675,0.297,1.237,0.699,1.688,1.205c0.45,0.506,0.792,1.097,1.024,1.771
		C132.269,169.799,132.386,170.522,132.386,171.293z M130.723,170.763c-0.048-1.061-0.39-1.94-1.024-2.639
		c-0.635-0.699-1.539-1.049-2.712-1.049c-0.546,0-1.053,0.101-1.519,0.301c-0.466,0.201-0.876,0.474-1.229,0.82
		s-0.635,0.739-0.844,1.181s-0.33,0.904-0.361,1.386H130.723z"/>
	<path fill="#FFFFFF" d="M140.991,167.365h-3.182v6.58c0,0.418,0.04,0.764,0.121,1.037c0.08,0.273,0.196,0.486,0.35,0.639
		c0.152,0.153,0.333,0.257,0.542,0.313c0.209,0.057,0.434,0.084,0.675,0.084c0.225,0,0.461-0.032,0.711-0.097
		c0.249-0.064,0.486-0.152,0.711-0.265l0.072,1.422c-0.289,0.113-0.59,0.197-0.904,0.253s-0.655,0.084-1.024,0.084
		c-0.306,0-0.627-0.04-0.964-0.121c-0.337-0.08-0.651-0.232-0.94-0.458c-0.289-0.225-0.526-0.53-0.711-0.916
		c-0.185-0.385-0.277-0.892-0.277-1.519v-7.038h-2.338v-1.374h2.338v-3.182h1.639v3.182h3.182V167.365z"/>
	<path fill="#FFFFFF" d="M145.546,161.652c0,0.337-0.12,0.615-0.361,0.832s-0.506,0.325-0.795,0.325
		c-0.29,0-0.555-0.108-0.795-0.325c-0.241-0.217-0.362-0.494-0.362-0.832s0.121-0.615,0.362-0.832
		c0.241-0.217,0.506-0.326,0.795-0.326c0.289,0,0.554,0.108,0.795,0.326C145.426,161.037,145.546,161.314,145.546,161.652z
		 M145.209,177.271h-1.639v-11.281h1.639V177.271z"/>
	<path fill="#FFFFFF" d="M151.042,165.991c0.032,0.305,0.056,0.643,0.072,1.012s0.024,0.675,0.024,0.916h0.048
		c0.321-0.659,0.844-1.193,1.567-1.603s1.486-0.615,2.29-0.615c1.43,0,2.503,0.426,3.218,1.278s1.073,1.977,1.073,3.375v6.918
		h-1.639v-6.243c0-0.594-0.048-1.133-0.145-1.615c-0.096-0.482-0.261-0.896-0.494-1.242c-0.233-0.345-0.546-0.615-0.94-0.807
		c-0.394-0.193-0.888-0.29-1.482-0.29c-0.434,0-0.856,0.088-1.266,0.265c-0.41,0.177-0.775,0.446-1.097,0.808
		c-0.322,0.361-0.579,0.819-0.771,1.374c-0.193,0.554-0.289,1.209-0.289,1.964v5.785h-1.639v-8.798c0-0.305-0.008-0.699-0.024-1.181
		c-0.017-0.482-0.041-0.916-0.073-1.301H151.042z"/>
	<path fill="#FFFFFF" d="M164.179,179.537c0.45,0.579,1.064,1.069,1.844,1.471c0.779,0.401,1.603,0.603,2.471,0.603
		c0.803,0,1.486-0.117,2.049-0.35c0.562-0.233,1.016-0.551,1.362-0.952c0.345-0.402,0.599-0.872,0.759-1.41
		c0.161-0.539,0.241-1.113,0.241-1.723v-2.122h-0.048c-0.434,0.708-1.049,1.253-1.844,1.639s-1.603,0.579-2.422,0.579
		c-0.884,0-1.684-0.145-2.398-0.434c-0.715-0.289-1.326-0.687-1.832-1.193c-0.506-0.506-0.9-1.113-1.181-1.82
		s-0.421-1.471-0.421-2.29c0-0.803,0.14-1.559,0.421-2.266c0.281-0.707,0.675-1.326,1.181-1.856c0.506-0.53,1.117-0.948,1.832-1.253
		c0.715-0.305,1.515-0.458,2.398-0.458c0.82,0,1.623,0.193,2.411,0.579c0.787,0.386,1.406,0.94,1.856,1.663h0.048v-1.952h1.639
		v11.185c0,0.61-0.084,1.261-0.253,1.952c-0.168,0.691-0.482,1.326-0.94,1.904s-1.081,1.061-1.868,1.446
		c-0.788,0.386-1.808,0.579-3.061,0.579c-1.045,0-2.041-0.201-2.989-0.603c-0.948-0.402-1.76-0.957-2.435-1.664L164.179,179.537z
		 M164.493,171.486c0,0.595,0.096,1.157,0.289,1.688s0.47,0.997,0.832,1.398c0.362,0.402,0.808,0.719,1.338,0.952
		s1.133,0.35,1.808,0.35c0.626,0,1.205-0.104,1.735-0.313c0.53-0.208,0.988-0.506,1.374-0.892c0.386-0.385,0.687-0.847,0.904-1.386
		c0.217-0.538,0.326-1.137,0.326-1.796c0-0.594-0.109-1.157-0.326-1.687c-0.217-0.531-0.518-0.997-0.904-1.398
		c-0.386-0.401-0.844-0.723-1.374-0.964c-0.53-0.241-1.109-0.362-1.735-0.362c-0.675,0-1.278,0.121-1.808,0.362
		c-0.53,0.241-0.976,0.562-1.338,0.964c-0.361,0.402-0.639,0.868-0.832,1.398C164.589,170.33,164.493,170.892,164.493,171.486z"/>
	<path fill="#FFFFFF" d="M193.201,162.954c-0.37-0.514-0.844-0.928-1.422-1.242c-0.578-0.313-1.277-0.47-2.097-0.47
		c-0.418,0-0.844,0.064-1.278,0.192c-0.434,0.129-0.828,0.326-1.181,0.591s-0.639,0.599-0.855,1
		c-0.217,0.402-0.326,0.876-0.326,1.422c0,0.546,0.104,0.997,0.312,1.35c0.208,0.354,0.484,0.655,0.829,0.904
		c0.345,0.25,0.737,0.454,1.178,0.615c0.44,0.161,0.901,0.322,1.382,0.482c0.593,0.193,1.189,0.402,1.791,0.627
		s1.142,0.518,1.623,0.879c0.48,0.362,0.873,0.82,1.178,1.374c0.304,0.555,0.457,1.258,0.457,2.109c0,0.852-0.163,1.587-0.487,2.206
		c-0.325,0.619-0.747,1.129-1.266,1.531c-0.519,0.402-1.112,0.699-1.778,0.892c-0.667,0.193-1.338,0.29-2.013,0.29
		c-0.515,0-1.029-0.053-1.542-0.157c-0.515-0.105-1.005-0.262-1.471-0.47c-0.466-0.208-0.9-0.474-1.302-0.795
		c-0.402-0.321-0.755-0.691-1.061-1.109l1.495-1.109c0.37,0.611,0.888,1.121,1.555,1.531c0.667,0.41,1.45,0.615,2.35,0.615
		c0.434,0,0.876-0.068,1.326-0.205c0.45-0.136,0.856-0.345,1.217-0.626c0.362-0.281,0.659-0.627,0.892-1.037s0.35-0.888,0.35-1.434
		c0-0.594-0.117-1.088-0.35-1.482c-0.233-0.394-0.542-0.723-0.928-0.988c-0.385-0.265-0.828-0.486-1.326-0.663
		c-0.498-0.177-1.021-0.353-1.567-0.53c-0.562-0.177-1.117-0.377-1.663-0.603s-1.037-0.518-1.47-0.88
		c-0.434-0.361-0.784-0.808-1.049-1.338s-0.397-1.181-0.397-1.952c0-0.82,0.165-1.527,0.494-2.122
		c0.329-0.594,0.759-1.084,1.29-1.47s1.117-0.667,1.76-0.844c0.643-0.177,1.277-0.265,1.904-0.265c1.157,0,2.145,0.205,2.965,0.615
		c0.819,0.41,1.438,0.896,1.856,1.458L193.201,162.954z"/>
	<path fill="#FFFFFF" d="M206.626,177.271c-0.032-0.305-0.056-0.643-0.072-1.012s-0.024-0.675-0.024-0.916h-0.048
		c-0.321,0.659-0.844,1.193-1.567,1.603c-0.723,0.41-1.486,0.614-2.29,0.614c-1.431,0-2.503-0.425-3.218-1.277
		c-0.715-0.852-1.073-1.977-1.073-3.375v-6.918h1.639v6.243c0,0.595,0.048,1.133,0.145,1.615c0.096,0.482,0.261,0.896,0.494,1.241
		c0.232,0.346,0.546,0.615,0.94,0.808c0.394,0.193,0.888,0.29,1.482,0.29c0.434,0,0.855-0.088,1.266-0.266
		c0.41-0.176,0.775-0.446,1.097-0.807c0.321-0.362,0.579-0.82,0.771-1.374c0.193-0.555,0.29-1.209,0.29-1.964v-5.785h1.639v8.798
		c0,0.306,0.008,0.699,0.024,1.181c0.016,0.482,0.04,0.916,0.072,1.302H206.626z"/>
	<path fill="#FFFFFF" d="M214.075,183.057h-1.639v-17.066h1.639v1.952h0.072c0.466-0.739,1.088-1.297,1.868-1.675
		c0.779-0.377,1.57-0.566,2.374-0.566c0.884,0,1.684,0.153,2.398,0.458c0.715,0.306,1.326,0.723,1.832,1.253s0.9,1.157,1.181,1.88
		c0.281,0.723,0.422,1.502,0.422,2.338c0,0.836-0.141,1.615-0.422,2.338c-0.281,0.723-0.675,1.35-1.181,1.88
		s-1.117,0.949-1.832,1.253c-0.715,0.305-1.515,0.458-2.398,0.458c-0.804,0-1.595-0.189-2.374-0.566
		c-0.78-0.377-1.402-0.919-1.868-1.627h-0.072V183.057z M222.488,171.631c0-0.626-0.097-1.217-0.29-1.771
		c-0.193-0.555-0.47-1.037-0.832-1.446c-0.361-0.41-0.808-0.735-1.338-0.976c-0.53-0.241-1.133-0.362-1.808-0.362
		c-0.627,0-1.205,0.117-1.736,0.35c-0.53,0.233-0.988,0.554-1.374,0.964c-0.386,0.41-0.687,0.892-0.904,1.446
		c-0.217,0.554-0.325,1.153-0.325,1.795c0,0.643,0.108,1.242,0.325,1.796c0.217,0.555,0.519,1.033,0.904,1.434
		c0.385,0.402,0.843,0.72,1.374,0.952c0.531,0.233,1.109,0.35,1.736,0.35c0.675,0,1.277-0.116,1.808-0.35
		c0.53-0.232,0.977-0.554,1.338-0.964c0.362-0.41,0.639-0.892,0.832-1.446C222.391,172.848,222.488,172.258,222.488,171.631z"/>
	<path fill="#FFFFFF" d="M229.381,183.057h-1.639v-17.066h1.639v1.952h0.072c0.466-0.739,1.088-1.297,1.868-1.675
		c0.779-0.377,1.57-0.566,2.374-0.566c0.884,0,1.684,0.153,2.398,0.458c0.715,0.306,1.326,0.723,1.832,1.253s0.9,1.157,1.181,1.88
		c0.281,0.723,0.422,1.502,0.422,2.338c0,0.836-0.141,1.615-0.422,2.338c-0.281,0.723-0.675,1.35-1.181,1.88
		s-1.117,0.949-1.832,1.253c-0.715,0.305-1.515,0.458-2.398,0.458c-0.804,0-1.595-0.189-2.374-0.566
		c-0.78-0.377-1.402-0.919-1.868-1.627h-0.072V183.057z M237.794,171.631c0-0.626-0.097-1.217-0.29-1.771
		c-0.193-0.555-0.47-1.037-0.832-1.446c-0.361-0.41-0.808-0.735-1.338-0.976c-0.53-0.241-1.133-0.362-1.808-0.362
		c-0.627,0-1.205,0.117-1.736,0.35c-0.53,0.233-0.988,0.554-1.374,0.964c-0.386,0.41-0.687,0.892-0.904,1.446
		c-0.217,0.554-0.325,1.153-0.325,1.795c0,0.643,0.108,1.242,0.325,1.796c0.217,0.555,0.519,1.033,0.904,1.434
		c0.385,0.402,0.843,0.72,1.374,0.952c0.531,0.233,1.109,0.35,1.736,0.35c0.675,0,1.277-0.116,1.808-0.35
		c0.53-0.232,0.977-0.554,1.338-0.964c0.362-0.41,0.639-0.892,0.832-1.446C237.697,172.848,237.794,172.258,237.794,171.631z"/>
	<path fill="#FFFFFF" d="M254.257,171.631c0,0.852-0.148,1.639-0.446,2.362s-0.711,1.35-1.241,1.88s-1.166,0.944-1.904,1.241
		c-0.74,0.297-1.551,0.446-2.435,0.446c-0.868,0-1.672-0.148-2.411-0.446c-0.739-0.297-1.374-0.711-1.904-1.241
		s-0.944-1.157-1.241-1.88c-0.298-0.723-0.446-1.51-0.446-2.362c0-0.852,0.148-1.639,0.446-2.362c0.297-0.723,0.711-1.35,1.241-1.88
		s1.165-0.944,1.904-1.241c0.739-0.297,1.542-0.446,2.411-0.446c0.883,0,1.695,0.149,2.435,0.446
		c0.739,0.297,1.374,0.711,1.904,1.241s0.944,1.157,1.241,1.88S254.257,170.779,254.257,171.631z M252.521,171.631
		c0-0.626-0.101-1.217-0.301-1.771c-0.201-0.555-0.486-1.037-0.856-1.446s-0.819-0.735-1.35-0.976
		c-0.53-0.241-1.125-0.362-1.784-0.362c-0.659,0-1.25,0.121-1.772,0.362c-0.522,0.241-0.968,0.566-1.338,0.976
		s-0.655,0.892-0.855,1.446c-0.201,0.554-0.301,1.145-0.301,1.771c0,0.627,0.1,1.217,0.301,1.772
		c0.201,0.554,0.486,1.036,0.855,1.446c0.37,0.41,0.815,0.731,1.338,0.964c0.522,0.233,1.113,0.35,1.772,0.35
		c0.659,0,1.253-0.116,1.784-0.35c0.53-0.232,0.98-0.554,1.35-0.964c0.37-0.41,0.655-0.892,0.856-1.446
		C252.421,172.848,252.521,172.258,252.521,171.631z"/>
	<path fill="#FFFFFF" d="M257.752,167.292c-0.017-0.482-0.041-0.916-0.073-1.301h1.567c0.032,0.305,0.056,0.643,0.072,1.012
		s0.024,0.675,0.024,0.916h0.048c0.321-0.659,0.804-1.193,1.446-1.603s1.366-0.615,2.169-0.615c0.209,0,0.398,0.008,0.567,0.024
		c0.168,0.016,0.341,0.048,0.518,0.096l-0.217,1.567c-0.097-0.032-0.257-0.064-0.482-0.097c-0.225-0.032-0.45-0.048-0.675-0.048
		c-0.434,0-0.852,0.08-1.253,0.241c-0.402,0.16-0.751,0.413-1.048,0.757c-0.298,0.345-0.539,0.785-0.723,1.322
		c-0.185,0.537-0.277,1.183-0.277,1.936v5.771h-1.639v-8.798C257.776,168.168,257.768,167.774,257.752,167.292z"/>
	<path fill="#FFFFFF" d="M271.25,167.365h-3.182v6.58c0,0.418,0.04,0.764,0.121,1.037c0.08,0.273,0.196,0.486,0.35,0.639
		c0.152,0.153,0.333,0.257,0.542,0.313c0.209,0.057,0.434,0.084,0.675,0.084c0.225,0,0.461-0.032,0.711-0.097
		c0.249-0.064,0.486-0.152,0.711-0.265l0.072,1.422c-0.289,0.113-0.59,0.197-0.904,0.253s-0.655,0.084-1.024,0.084
		c-0.306,0-0.627-0.04-0.964-0.121c-0.337-0.08-0.651-0.232-0.94-0.458c-0.289-0.225-0.526-0.53-0.711-0.916
		c-0.185-0.385-0.277-0.892-0.277-1.519v-7.038h-2.338v-1.374h2.338v-3.182h1.639v3.182h3.182V167.365z"/>
</g>
<polygon fill="#ED1C24" points="642.857,190.112 412.503,190.112 391.324,227.311 642.857,227.311 "/>
<g>
	<path fill="#FFFFFF" d="M425.078,216.891v-13.735l-3.487,2.694l-2.298-3.143l6.152-4.517h4.044v18.701H425.078z"/>
	<path fill="#FFFFFF" d="M450.54,204.371c0,1.109-0.193,2.118-0.58,3.024c-0.388,0.907-0.889,1.827-1.505,2.76l-4.513,6.735h-5.357
		l4.652-6.445l0.053-0.08c-0.193,0.071-0.409,0.124-0.646,0.159c-0.237,0.036-0.461,0.053-0.672,0.053
		c-0.826,0-1.608-0.145-2.347-0.436c-0.739-0.291-1.39-0.704-1.951-1.242c-0.562-0.537-1.011-1.18-1.345-1.928
		c-0.334-0.748-0.501-1.58-0.501-2.496c0-1.057,0.193-2.007,0.58-2.853s0.914-1.559,1.582-2.14c0.667-0.581,1.45-1.025,2.347-1.334
		c0.896-0.308,1.846-0.462,2.848-0.462c1.02,0,1.977,0.154,2.873,0.462c0.896,0.309,1.675,0.753,2.334,1.334
		s1.182,1.286,1.568,2.113S450.54,203.35,450.54,204.371z M446.128,204.318c0-0.81-0.261-1.51-0.782-2.1
		c-0.521-0.59-1.233-0.885-2.136-0.885s-1.623,0.277-2.162,0.832c-0.54,0.555-0.81,1.281-0.81,2.179c0,0.845,0.265,1.545,0.796,2.1
		c0.53,0.555,1.238,0.832,2.123,0.832c0.884,0,1.601-0.272,2.148-0.819C445.854,205.912,446.128,205.199,446.128,204.318z"/>
	<path fill="#FFFFFF" d="M462.532,202.865c0,0.687-0.132,1.334-0.396,1.941c-0.265,0.608-0.621,1.136-1.07,1.585
		s-0.981,0.806-1.598,1.07c-0.617,0.264-1.269,0.396-1.955,0.396s-1.338-0.132-1.954-0.396c-0.617-0.264-1.149-0.621-1.599-1.07
		s-0.806-0.977-1.069-1.585c-0.265-0.607-0.396-1.254-0.396-1.941c0-0.704,0.132-1.36,0.396-1.968
		c0.264-0.607,0.62-1.136,1.069-1.585c0.449-0.449,0.981-0.801,1.599-1.056c0.616-0.255,1.268-0.383,1.954-0.383
		s1.338,0.128,1.955,0.383c0.616,0.255,1.148,0.607,1.598,1.056c0.449,0.449,0.806,0.978,1.07,1.585
		C462.4,201.505,462.532,202.161,462.532,202.865z M459.574,202.865c0-0.563-0.203-1.047-0.607-1.453
		c-0.405-0.405-0.89-0.607-1.453-0.607s-1.048,0.203-1.452,0.607c-0.405,0.405-0.608,0.89-0.608,1.453
		c0,0.564,0.203,1.043,0.608,1.439c0.404,0.396,0.889,0.595,1.452,0.595s1.048-0.198,1.453-0.595
		C459.371,203.909,459.574,203.429,459.574,202.865z M459.547,217.789l-2.351-1.162l10.908-19.282l2.457,1.189L459.547,217.789z
		 M475.21,212.216c0,0.687-0.132,1.334-0.396,1.941c-0.264,0.607-0.62,1.136-1.069,1.585c-0.449,0.449-0.981,0.806-1.598,1.07
		c-0.617,0.264-1.269,0.396-1.955,0.396s-1.338-0.132-1.954-0.396c-0.617-0.264-1.149-0.621-1.599-1.07
		c-0.449-0.449-0.806-0.978-1.069-1.585c-0.265-0.607-0.396-1.254-0.396-1.941c0-0.687,0.132-1.334,0.396-1.941
		c0.264-0.607,0.62-1.136,1.069-1.585c0.449-0.449,0.981-0.806,1.599-1.07c0.616-0.264,1.268-0.396,1.954-0.396
		s1.338,0.132,1.955,0.396c0.616,0.264,1.148,0.621,1.598,1.07c0.449,0.449,0.806,0.978,1.069,1.585
		C475.079,210.882,475.21,211.529,475.21,212.216z M472.252,212.216c0-0.281-0.058-0.55-0.172-0.806
		c-0.114-0.255-0.264-0.476-0.449-0.66c-0.185-0.185-0.4-0.33-0.646-0.436c-0.247-0.105-0.512-0.158-0.793-0.158
		c-0.563,0-1.048,0.203-1.452,0.607c-0.406,0.405-0.608,0.889-0.608,1.453c0,0.564,0.202,1.043,0.608,1.439
		c0.404,0.396,0.889,0.594,1.452,0.594c0.281,0,0.546-0.053,0.793-0.158c0.246-0.106,0.462-0.251,0.646-0.436
		c0.186-0.185,0.335-0.4,0.449-0.647S472.252,212.498,472.252,212.216z"/>
</g>
<g>
	<path fill="#FFFFFF" d="M490.186,217.1h-1.736v-17.066h1.736V217.1z"/>
	<path fill="#FFFFFF" d="M500.189,217.1h-1.735v-15.523h-5.713v-1.542h13.161v1.542h-5.713V217.1z"/>
	<path fill="#FFFFFF" d="M515.64,217.1h-1.735v-17.066h10.293v1.542h-8.558v5.906h7.955v1.542h-7.955V217.1z"/>
	<path fill="#FFFFFF" d="M534.538,217.1c-0.032-0.305-0.056-0.643-0.072-1.012c-0.016-0.37-0.023-0.675-0.023-0.916h-0.049
		c-0.321,0.659-0.844,1.193-1.566,1.603c-0.724,0.41-1.486,0.614-2.29,0.614c-1.431,0-2.503-0.425-3.218-1.277
		c-0.716-0.852-1.073-1.977-1.073-3.375v-6.918h1.64v6.243c0,0.595,0.048,1.133,0.145,1.615s0.261,0.896,0.494,1.241
		c0.232,0.346,0.546,0.615,0.94,0.808c0.394,0.193,0.888,0.29,1.482,0.29c0.434,0,0.855-0.088,1.266-0.266
		c0.409-0.176,0.774-0.446,1.097-0.807c0.321-0.362,0.578-0.82,0.771-1.374c0.193-0.555,0.29-1.209,0.29-1.964v-5.785h1.639v8.798
		c0,0.306,0.008,0.699,0.024,1.181c0.016,0.482,0.04,0.916,0.072,1.302H534.538z"/>
	<path fill="#FFFFFF" d="M541.818,205.819c0.032,0.305,0.056,0.643,0.072,1.012c0.016,0.37,0.024,0.675,0.024,0.916h0.048
		c0.321-0.659,0.844-1.193,1.566-1.603c0.724-0.41,1.486-0.615,2.29-0.615c1.431,0,2.503,0.426,3.218,1.278s1.073,1.977,1.073,3.375
		v6.918h-1.64v-6.243c0-0.594-0.048-1.133-0.145-1.615c-0.096-0.482-0.261-0.896-0.494-1.242c-0.232-0.345-0.546-0.615-0.939-0.807
		c-0.395-0.193-0.889-0.29-1.482-0.29c-0.435,0-0.856,0.088-1.266,0.265c-0.41,0.177-0.775,0.446-1.097,0.808
		c-0.322,0.361-0.579,0.819-0.771,1.374c-0.193,0.554-0.289,1.209-0.289,1.964v5.785h-1.64v-8.798c0-0.305-0.008-0.699-0.023-1.181
		c-0.017-0.482-0.041-0.916-0.073-1.301H541.818z"/>
	<path fill="#FFFFFF" d="M562.475,208.398c-0.273-0.434-0.671-0.792-1.193-1.073c-0.522-0.281-1.089-0.422-1.699-0.422
		c-0.659,0-1.254,0.117-1.784,0.35s-0.984,0.554-1.361,0.964c-0.378,0.41-0.667,0.892-0.868,1.446
		c-0.201,0.554-0.301,1.153-0.301,1.795c0,0.643,0.1,1.238,0.301,1.784c0.201,0.547,0.486,1.024,0.855,1.435
		c0.37,0.41,0.82,0.731,1.351,0.964c0.53,0.233,1.124,0.35,1.783,0.35c0.724,0,1.334-0.136,1.832-0.41
		c0.498-0.273,0.908-0.627,1.229-1.061l1.229,0.916c-0.482,0.595-1.073,1.069-1.771,1.422c-0.699,0.354-1.539,0.53-2.52,0.53
		c-0.916,0-1.743-0.148-2.482-0.446c-0.739-0.297-1.37-0.711-1.893-1.241s-0.928-1.157-1.217-1.88s-0.434-1.51-0.434-2.362
		c0-0.852,0.145-1.639,0.434-2.362s0.694-1.35,1.217-1.88s1.153-0.944,1.893-1.241s1.566-0.446,2.482-0.446
		c0.756,0,1.522,0.165,2.302,0.494c0.779,0.33,1.41,0.816,1.893,1.458L562.475,208.398z"/>
	<path fill="#FFFFFF" d="M571.49,207.193h-3.182v6.58c0,0.418,0.04,0.764,0.121,1.037c0.08,0.273,0.196,0.486,0.35,0.639
		c0.152,0.153,0.333,0.257,0.542,0.313c0.209,0.057,0.434,0.084,0.675,0.084c0.225,0,0.462-0.032,0.711-0.097
		c0.249-0.064,0.486-0.152,0.711-0.265l0.072,1.422c-0.289,0.113-0.59,0.197-0.903,0.253s-0.655,0.084-1.024,0.084
		c-0.306,0-0.627-0.04-0.965-0.121c-0.337-0.08-0.65-0.232-0.939-0.458c-0.289-0.225-0.526-0.53-0.711-0.916
		c-0.186-0.385-0.277-0.892-0.277-1.519v-7.038h-2.339v-1.374h2.339v-3.182h1.639v3.182h3.182V207.193z"/>
	<path fill="#FFFFFF" d="M576.045,201.48c0,0.337-0.12,0.615-0.361,0.832s-0.507,0.325-0.796,0.325s-0.555-0.108-0.795-0.325
		c-0.241-0.217-0.362-0.494-0.362-0.832s0.121-0.615,0.362-0.832c0.24-0.217,0.506-0.326,0.795-0.326s0.555,0.108,0.796,0.326
		C575.925,200.866,576.045,201.143,576.045,201.48z M575.708,217.1h-1.639v-11.281h1.639V217.1z"/>
	<path fill="#FFFFFF" d="M591.28,211.459c0,0.852-0.148,1.639-0.446,2.362c-0.297,0.723-0.711,1.35-1.241,1.88
		s-1.165,0.944-1.904,1.241c-0.739,0.297-1.551,0.446-2.435,0.446c-0.868,0-1.672-0.148-2.41-0.446
		c-0.739-0.297-1.374-0.711-1.904-1.241s-0.944-1.157-1.241-1.88c-0.298-0.723-0.446-1.51-0.446-2.362
		c0-0.852,0.148-1.639,0.446-2.362c0.297-0.723,0.711-1.35,1.241-1.88s1.165-0.944,1.904-1.241c0.738-0.297,1.542-0.446,2.41-0.446
		c0.884,0,1.695,0.149,2.435,0.446s1.374,0.711,1.904,1.241s0.944,1.157,1.241,1.88C591.131,209.82,591.28,210.608,591.28,211.459z
		 M589.544,211.459c0-0.626-0.101-1.217-0.302-1.771c-0.201-0.555-0.486-1.037-0.855-1.446c-0.37-0.41-0.819-0.735-1.35-0.976
		c-0.53-0.241-1.125-0.362-1.784-0.362s-1.25,0.121-1.771,0.362c-0.522,0.241-0.969,0.566-1.338,0.976
		c-0.37,0.41-0.655,0.892-0.855,1.446c-0.201,0.554-0.302,1.145-0.302,1.771c0,0.627,0.101,1.217,0.302,1.772
		c0.2,0.554,0.485,1.036,0.855,1.446c0.369,0.41,0.815,0.731,1.338,0.964c0.521,0.233,1.112,0.35,1.771,0.35s1.254-0.116,1.784-0.35
		c0.53-0.232,0.979-0.554,1.35-0.964c0.369-0.41,0.654-0.892,0.855-1.446C589.444,212.677,589.544,212.086,589.544,211.459z"/>
	<path fill="#FFFFFF" d="M596.269,205.819c0.032,0.305,0.056,0.643,0.072,1.012c0.016,0.37,0.024,0.675,0.024,0.916h0.048
		c0.321-0.659,0.844-1.193,1.566-1.603c0.724-0.41,1.486-0.615,2.29-0.615c1.431,0,2.503,0.426,3.218,1.278s1.073,1.977,1.073,3.375
		v6.918h-1.64v-6.243c0-0.594-0.048-1.133-0.145-1.615c-0.096-0.482-0.261-0.896-0.494-1.242c-0.232-0.345-0.546-0.615-0.939-0.807
		c-0.395-0.193-0.889-0.29-1.482-0.29c-0.435,0-0.856,0.088-1.266,0.265c-0.41,0.177-0.775,0.446-1.097,0.808
		c-0.322,0.361-0.579,0.819-0.771,1.374c-0.193,0.554-0.289,1.209-0.289,1.964v5.785h-1.64v-8.798c0-0.305-0.008-0.699-0.023-1.181
		c-0.017-0.482-0.041-0.916-0.073-1.301H596.269z"/>
	<path fill="#FFFFFF" d="M614.805,208.495c-0.241-0.466-0.606-0.847-1.097-1.145c-0.49-0.297-1.048-0.446-1.675-0.446
		c-0.289,0-0.579,0.032-0.868,0.097c-0.289,0.064-0.546,0.168-0.771,0.313c-0.225,0.145-0.405,0.33-0.542,0.555
		s-0.205,0.49-0.205,0.795c0,0.53,0.217,0.936,0.651,1.217c0.434,0.281,1.116,0.518,2.049,0.711
		c1.333,0.273,2.317,0.671,2.952,1.193c0.635,0.522,0.952,1.226,0.952,2.109c0,0.643-0.124,1.186-0.373,1.627
		c-0.25,0.442-0.575,0.804-0.977,1.084c-0.401,0.281-0.855,0.482-1.362,0.603c-0.506,0.121-1.016,0.181-1.53,0.181
		c-0.852,0-1.68-0.177-2.482-0.53c-0.804-0.353-1.463-0.908-1.977-1.663l1.302-0.964c0.289,0.499,0.715,0.916,1.277,1.253
		c0.562,0.338,1.181,0.506,1.855,0.506c0.354,0,0.691-0.032,1.013-0.096c0.321-0.064,0.603-0.177,0.844-0.337
		s0.434-0.366,0.578-0.615s0.218-0.558,0.218-0.928c0-0.594-0.286-1.04-0.856-1.338c-0.57-0.297-1.394-0.574-2.471-0.832
		c-0.337-0.08-0.695-0.181-1.072-0.301c-0.378-0.121-0.728-0.297-1.049-0.53c-0.321-0.233-0.587-0.526-0.795-0.88
		c-0.209-0.353-0.313-0.795-0.313-1.326c0-0.579,0.112-1.073,0.337-1.482c0.226-0.41,0.526-0.747,0.904-1.012
		c0.377-0.265,0.808-0.462,1.289-0.591c0.482-0.128,0.98-0.193,1.495-0.193c0.787,0,1.551,0.177,2.29,0.53
		c0.738,0.354,1.293,0.852,1.663,1.495L614.805,208.495z"/>
</g>
<polygon fill="#ED1C24" points="642.857,381.763 437.576,381.763 416.396,418.964 642.857,418.964 "/>
<g>
	<path fill="#FFFFFF" d="M444.208,408.908v-3.692l7.291-6.592c0.457-0.439,0.827-0.887,1.109-1.345
		c0.281-0.456,0.422-0.966,0.422-1.528c0-0.668-0.211-1.209-0.634-1.622s-0.986-0.62-1.69-0.62c-0.74,0-1.343,0.26-1.81,0.779
		s-0.744,1.201-0.832,2.047l-4.253-0.581c0.105-0.95,0.365-1.798,0.779-2.54c0.414-0.743,0.938-1.376,1.572-1.899
		c0.634-0.522,1.359-0.922,2.179-1.196c0.819-0.275,1.687-0.412,2.603-0.412c0.861,0,1.699,0.114,2.509,0.343
		c0.81,0.229,1.532,0.581,2.166,1.057s1.14,1.074,1.519,1.796c0.379,0.723,0.568,1.567,0.568,2.535c0,0.67-0.089,1.273-0.265,1.811
		c-0.177,0.537-0.419,1.034-0.726,1.492c-0.309,0.457-0.661,0.885-1.057,1.281c-0.396,0.396-0.807,0.787-1.229,1.175l-4.332,3.856
		h7.633v3.856H444.208z"/>
	<path fill="#FFFFFF" d="M475.324,399.505c0,1.32-0.132,2.58-0.396,3.777c-0.264,1.197-0.687,2.25-1.268,3.156
		c-0.581,0.907-1.334,1.629-2.258,2.166c-0.925,0.537-2.047,0.806-3.368,0.806s-2.448-0.269-3.381-0.806
		c-0.934-0.537-1.695-1.259-2.285-2.166c-0.59-0.906-1.017-1.959-1.28-3.156c-0.265-1.197-0.396-2.457-0.396-3.777
		s0.132-2.575,0.396-3.764c0.264-1.189,0.69-2.228,1.28-3.117c0.59-0.889,1.352-1.598,2.285-2.127
		c0.933-0.527,2.06-0.791,3.381-0.791s2.443,0.264,3.368,0.791c0.924,0.529,1.677,1.238,2.258,2.127
		c0.581,0.89,1.004,1.928,1.268,3.117C475.192,396.93,475.324,398.185,475.324,399.505z M470.781,399.505
		c0-0.581-0.035-1.224-0.105-1.928c-0.07-0.705-0.203-1.361-0.396-1.969s-0.471-1.117-0.832-1.531s-0.832-0.621-1.413-0.621
		s-1.057,0.207-1.427,0.621c-0.369,0.414-0.656,0.924-0.857,1.531c-0.203,0.607-0.34,1.264-0.41,1.969
		c-0.07,0.704-0.105,1.347-0.105,1.928c0,0.599,0.035,1.255,0.105,1.968c0.07,0.714,0.207,1.374,0.41,1.981
		c0.201,0.607,0.488,1.118,0.857,1.531c0.37,0.414,0.846,0.621,1.427,0.621s1.052-0.207,1.413-0.621
		c0.361-0.413,0.639-0.924,0.832-1.531s0.326-1.268,0.396-1.981C470.746,400.76,470.781,400.104,470.781,399.505z"/>
	<path fill="#FFFFFF" d="M487.342,394.882c0,0.688-0.132,1.334-0.396,1.941c-0.265,0.608-0.621,1.137-1.07,1.586
		s-0.982,0.805-1.598,1.069c-0.617,0.265-1.269,0.396-1.955,0.396c-0.688,0-1.338-0.131-1.955-0.396
		c-0.616-0.265-1.148-0.62-1.598-1.069s-0.806-0.978-1.07-1.586c-0.264-0.607-0.396-1.254-0.396-1.941
		c0-0.703,0.132-1.359,0.396-1.967c0.265-0.607,0.621-1.137,1.07-1.586c0.449-0.448,0.981-0.801,1.598-1.056
		c0.617-0.255,1.268-0.384,1.955-0.384c0.687,0,1.338,0.129,1.955,0.384c0.615,0.255,1.148,0.607,1.598,1.056
		c0.449,0.449,0.806,0.979,1.07,1.586C487.21,393.522,487.342,394.179,487.342,394.882z M484.384,394.882
		c0-0.562-0.203-1.047-0.607-1.452c-0.406-0.405-0.89-0.607-1.453-0.607c-0.564,0-1.048,0.202-1.453,0.607
		c-0.404,0.405-0.607,0.89-0.607,1.452c0,0.564,0.203,1.044,0.607,1.439c0.405,0.396,0.889,0.596,1.453,0.596
		c0.563,0,1.047-0.199,1.453-0.596C484.181,395.926,484.384,395.446,484.384,394.882z M484.357,409.806l-2.35-1.162l10.908-19.281
		l2.457,1.188L484.357,409.806z M500.021,404.233c0,0.687-0.133,1.334-0.396,1.941s-0.621,1.135-1.069,1.584
		c-0.449,0.449-0.981,0.807-1.599,1.07c-0.616,0.264-1.268,0.396-1.954,0.396s-1.339-0.133-1.954-0.396
		c-0.617-0.264-1.149-0.621-1.599-1.07s-0.806-0.977-1.069-1.584c-0.265-0.607-0.396-1.255-0.396-1.941
		c0-0.688,0.132-1.334,0.396-1.941c0.264-0.607,0.62-1.137,1.069-1.586c0.449-0.448,0.981-0.805,1.599-1.069
		c0.615-0.264,1.268-0.396,1.954-0.396s1.338,0.132,1.954,0.396c0.617,0.265,1.149,0.621,1.599,1.069
		c0.448,0.449,0.806,0.979,1.069,1.586S500.021,403.546,500.021,404.233z M497.062,404.233c0-0.281-0.057-0.551-0.171-0.807
		c-0.114-0.254-0.265-0.475-0.449-0.66c-0.185-0.185-0.401-0.33-0.647-0.436s-0.511-0.158-0.792-0.158
		c-0.563,0-1.048,0.203-1.452,0.607c-0.406,0.405-0.608,0.889-0.608,1.453c0,0.563,0.202,1.043,0.608,1.439
		c0.404,0.396,0.889,0.594,1.452,0.594c0.281,0,0.546-0.053,0.792-0.158s0.463-0.251,0.647-0.436c0.185-0.186,0.335-0.4,0.449-0.647
		S497.062,404.515,497.062,404.233z"/>
</g>
<g>
	<path fill="#FFFFFF" d="M513.26,392.052h5.087c0.643,0,1.293,0.068,1.951,0.205c0.659,0.137,1.25,0.37,1.772,0.699
		c0.522,0.33,0.948,0.775,1.277,1.338s0.494,1.27,0.494,2.121c0,0.9-0.274,1.684-0.824,2.35c-0.549,0.668-1.284,1.105-2.204,1.314
		v0.048c1.105,0.129,2.023,0.559,2.754,1.29c0.729,0.73,1.094,1.723,1.094,2.977c0,0.707-0.148,1.354-0.445,1.94
		s-0.717,1.085-1.262,1.495c-0.546,0.409-1.211,0.727-1.997,0.951c-0.786,0.226-1.668,0.338-2.646,0.338h-5.052V392.052z
		 M514.996,399.524h3.496c0.417,0,0.839-0.048,1.266-0.145c0.425-0.096,0.814-0.261,1.168-0.494
		c0.354-0.232,0.639-0.543,0.855-0.928c0.218-0.386,0.326-0.859,0.326-1.422c0-0.547-0.108-1.009-0.326-1.387
		c-0.217-0.377-0.51-0.688-0.879-0.928c-0.37-0.241-0.805-0.414-1.302-0.519c-0.499-0.104-1.028-0.157-1.591-0.157h-3.014V399.524z
		 M514.996,407.624h3.23c0.627,0,1.225-0.061,1.796-0.182c0.569-0.12,1.068-0.312,1.494-0.578s0.768-0.61,1.024-1.036
		s0.386-0.937,0.386-1.53c0-1.125-0.382-1.965-1.146-2.52c-0.763-0.555-1.844-0.832-3.241-0.832h-3.544V407.624z"/>
	<path fill="#FFFFFF" d="M536.689,409.118c-0.031-0.305-0.056-0.643-0.072-1.012c-0.016-0.37-0.023-0.676-0.023-0.916h-0.049
		c-0.32,0.658-0.844,1.192-1.566,1.603c-0.723,0.409-1.486,0.614-2.289,0.614c-1.432,0-2.504-0.426-3.219-1.277
		s-1.072-1.977-1.072-3.375v-6.918h1.639v6.243c0,0.595,0.049,1.134,0.145,1.615c0.097,0.481,0.262,0.896,0.494,1.241
		s0.547,0.615,0.94,0.808s0.888,0.29,1.482,0.29c0.434,0,0.855-0.089,1.266-0.266c0.409-0.177,0.774-0.446,1.097-0.808
		c0.321-0.362,0.578-0.819,0.771-1.374c0.192-0.555,0.289-1.209,0.289-1.965v-5.785h1.639v8.799c0,0.305,0.008,0.699,0.024,1.181
		c0.017,0.482,0.04,0.916,0.072,1.302H536.689z"/>
	<path fill="#FFFFFF" d="M548.501,400.513c-0.242-0.466-0.607-0.848-1.098-1.145s-1.048-0.446-1.675-0.446
		c-0.289,0-0.579,0.032-0.868,0.097s-0.546,0.168-0.771,0.312c-0.225,0.146-0.405,0.33-0.542,0.555
		c-0.137,0.226-0.204,0.49-0.204,0.796c0,0.53,0.217,0.937,0.65,1.218s1.117,0.518,2.049,0.711c1.334,0.273,2.318,0.671,2.953,1.193
		c0.635,0.521,0.951,1.225,0.951,2.108c0,0.644-0.124,1.186-0.373,1.628c-0.25,0.441-0.574,0.803-0.977,1.084
		c-0.401,0.281-0.855,0.482-1.361,0.603s-1.017,0.181-1.531,0.181c-0.852,0-1.68-0.177-2.482-0.53
		c-0.804-0.353-1.463-0.907-1.977-1.663l1.302-0.965c0.289,0.499,0.715,0.916,1.277,1.254s1.181,0.506,1.856,0.506
		c0.354,0,0.69-0.031,1.012-0.096c0.322-0.064,0.604-0.177,0.844-0.338c0.241-0.16,0.434-0.365,0.578-0.614s0.218-0.558,0.218-0.929
		c0-0.594-0.286-1.039-0.856-1.338c-0.57-0.297-1.394-0.574-2.471-0.831c-0.337-0.08-0.695-0.181-1.072-0.302
		c-0.377-0.12-0.727-0.297-1.049-0.529c-0.321-0.233-0.586-0.527-0.795-0.881c-0.209-0.353-0.313-0.795-0.313-1.325
		c0-0.579,0.112-1.073,0.337-1.482c0.226-0.409,0.527-0.747,0.904-1.013c0.377-0.265,0.808-0.461,1.289-0.59
		c0.482-0.129,0.98-0.193,1.495-0.193c0.787,0,1.551,0.178,2.29,0.53c0.738,0.354,1.293,0.853,1.663,1.495L548.501,400.513z"/>
	<path fill="#FFFFFF" d="M555.201,393.499c0,0.337-0.119,0.614-0.361,0.831c-0.24,0.217-0.506,0.325-0.795,0.325
		s-0.555-0.108-0.795-0.325c-0.242-0.217-0.362-0.494-0.362-0.831c0-0.338,0.12-0.615,0.362-0.832
		c0.24-0.217,0.506-0.326,0.795-0.326s0.555,0.109,0.795,0.326C555.082,392.884,555.201,393.161,555.201,393.499z M554.864,409.118
		h-1.64v-11.281h1.64V409.118z"/>
	<path fill="#FFFFFF" d="M560.697,397.837c0.033,0.306,0.057,0.643,0.072,1.013c0.017,0.37,0.025,0.675,0.025,0.916h0.047
		c0.322-0.659,0.844-1.193,1.567-1.603c0.724-0.41,1.486-0.615,2.29-0.615c1.43,0,2.503,0.426,3.218,1.277s1.073,1.977,1.073,3.375
		v6.918h-1.64v-6.243c0-0.595-0.048-1.133-0.145-1.614c-0.097-0.482-0.261-0.896-0.494-1.242s-0.546-0.615-0.94-0.807
		c-0.394-0.193-0.888-0.29-1.482-0.29c-0.434,0-0.855,0.089-1.266,0.265c-0.409,0.178-0.775,0.446-1.096,0.809
		c-0.322,0.361-0.579,0.818-0.771,1.373c-0.193,0.555-0.289,1.21-0.289,1.965v5.785h-1.64v-8.799c0-0.305-0.009-0.698-0.024-1.181
		c-0.016-0.481-0.04-0.915-0.072-1.302H560.697z"/>
	<path fill="#FFFFFF" d="M583.5,403.14c0,0.113,0,0.234,0,0.362s-0.008,0.265-0.023,0.409h-9.354
		c0.017,0.562,0.129,1.094,0.338,1.592s0.498,0.932,0.868,1.301c0.369,0.37,0.804,0.663,1.302,0.881
		c0.498,0.217,1.036,0.324,1.615,0.324c0.852,0,1.586-0.195,2.205-0.59c0.619-0.394,1.088-0.848,1.41-1.361l1.229,0.963
		c-0.675,0.853-1.419,1.463-2.229,1.832c-0.812,0.37-1.684,0.555-2.615,0.555c-0.836,0-1.611-0.148-2.326-0.445
		c-0.716-0.297-1.33-0.711-1.844-1.242c-0.516-0.529-0.921-1.156-1.218-1.88c-0.298-0.724-0.446-1.511-0.446-2.362
		s0.145-1.639,0.434-2.362s0.691-1.35,1.205-1.88c0.515-0.53,1.117-0.943,1.809-1.241s1.438-0.446,2.242-0.446
		c0.883,0,1.662,0.148,2.338,0.446c0.675,0.298,1.236,0.698,1.688,1.205c0.449,0.507,0.791,1.097,1.023,1.771
		C583.383,401.646,583.5,402.368,583.5,403.14z M581.837,402.61c-0.049-1.061-0.391-1.941-1.025-2.64
		c-0.635-0.699-1.539-1.049-2.711-1.049c-0.547,0-1.053,0.101-1.52,0.302c-0.466,0.201-0.875,0.474-1.229,0.819
		s-0.635,0.739-0.844,1.181c-0.209,0.442-0.33,0.904-0.361,1.387H581.837z"/>
	<path fill="#FFFFFF" d="M593.021,400.513c-0.241-0.466-0.607-0.848-1.097-1.145c-0.49-0.297-1.048-0.446-1.675-0.446
		c-0.289,0-0.579,0.032-0.868,0.097c-0.29,0.064-0.546,0.168-0.771,0.312c-0.226,0.146-0.405,0.33-0.542,0.555
		c-0.137,0.226-0.205,0.49-0.205,0.796c0,0.53,0.217,0.937,0.65,1.218s1.117,0.518,2.049,0.711c1.334,0.273,2.318,0.671,2.953,1.193
		c0.635,0.521,0.952,1.225,0.952,2.108c0,0.644-0.124,1.186-0.374,1.628c-0.249,0.441-0.574,0.803-0.976,1.084
		s-0.856,0.482-1.362,0.603s-1.016,0.181-1.53,0.181c-0.853,0-1.68-0.177-2.483-0.53c-0.803-0.353-1.462-0.907-1.977-1.663
		l1.303-0.965c0.289,0.499,0.715,0.916,1.277,1.254s1.181,0.506,1.855,0.506c0.354,0,0.691-0.031,1.013-0.096
		s0.603-0.177,0.843-0.338c0.242-0.16,0.435-0.365,0.579-0.614s0.218-0.558,0.218-0.929c0-0.594-0.286-1.039-0.856-1.338
		c-0.571-0.297-1.394-0.574-2.471-0.831c-0.337-0.08-0.695-0.181-1.073-0.302c-0.377-0.12-0.727-0.297-1.048-0.529
		c-0.321-0.233-0.587-0.527-0.796-0.881c-0.209-0.353-0.312-0.795-0.312-1.325c0-0.579,0.111-1.073,0.337-1.482
		s0.526-0.747,0.903-1.013c0.378-0.265,0.809-0.461,1.29-0.59c0.482-0.129,0.979-0.193,1.495-0.193c0.787,0,1.551,0.178,2.289,0.53
		c0.739,0.354,1.294,0.853,1.664,1.495L593.021,400.513z"/>
	<path fill="#FFFFFF" d="M603.723,400.513c-0.241-0.466-0.606-0.848-1.097-1.145s-1.049-0.446-1.676-0.446
		c-0.289,0-0.578,0.032-0.867,0.097s-0.547,0.168-0.771,0.312c-0.225,0.146-0.406,0.33-0.543,0.555
		c-0.137,0.226-0.204,0.49-0.204,0.796c0,0.53,0.217,0.937,0.651,1.218c0.434,0.281,1.116,0.518,2.049,0.711
		c1.333,0.273,2.317,0.671,2.952,1.193c0.635,0.521,0.952,1.225,0.952,2.108c0,0.644-0.125,1.186-0.373,1.628
		c-0.25,0.441-0.575,0.803-0.977,1.084c-0.402,0.281-0.855,0.482-1.362,0.603c-0.506,0.12-1.017,0.181-1.53,0.181
		c-0.852,0-1.68-0.177-2.482-0.53c-0.805-0.353-1.463-0.907-1.977-1.663l1.301-0.965c0.289,0.499,0.715,0.916,1.277,1.254
		s1.182,0.506,1.856,0.506c0.354,0,0.69-0.031,1.013-0.096c0.321-0.064,0.603-0.177,0.844-0.338c0.24-0.16,0.434-0.365,0.578-0.614
		s0.217-0.558,0.217-0.929c0-0.594-0.285-1.039-0.855-1.338c-0.57-0.297-1.395-0.574-2.471-0.831
		c-0.338-0.08-0.695-0.181-1.072-0.302c-0.378-0.12-0.728-0.297-1.049-0.529c-0.322-0.233-0.587-0.527-0.795-0.881
		c-0.209-0.353-0.314-0.795-0.314-1.325c0-0.579,0.113-1.073,0.338-1.482s0.526-0.747,0.904-1.013
		c0.377-0.265,0.807-0.461,1.289-0.59s0.98-0.193,1.494-0.193c0.787,0,1.551,0.178,2.291,0.53c0.738,0.354,1.293,0.853,1.662,1.495
		L603.723,400.513z"/>
</g>
<polygon fill="#ED1C24" points="0,339.487 207.166,339.487 228.35,376.685 0,376.685 "/>
<g>
	<path fill="#FFFFFF" d="M157.288,366.632v-13.735l-3.487,2.694l-2.298-3.143l6.152-4.518h4.043v18.701H157.288z"/>
	<path fill="#FFFFFF" d="M180.479,362.987v3.645h-4.147v-3.645h-8.796v-3.725l7.607-11.332h5.309v11.464h2.588v3.593H180.479z
		 M176.358,352.474h-0.079l-4.438,6.921h4.517V352.474z"/>
	<path fill="#FFFFFF" d="M194.742,352.606c0,0.687-0.132,1.334-0.396,1.941s-0.621,1.135-1.07,1.584
		c-0.449,0.449-0.982,0.807-1.598,1.07c-0.617,0.264-1.268,0.396-1.955,0.396c-0.687,0-1.338-0.133-1.955-0.396
		c-0.617-0.264-1.149-0.621-1.598-1.07s-0.806-0.977-1.07-1.584s-0.396-1.255-0.396-1.941c0-0.705,0.132-1.361,0.396-1.969
		s0.621-1.135,1.07-1.584s0.981-0.801,1.598-1.057c0.616-0.256,1.268-0.383,1.955-0.383c0.687,0,1.338,0.127,1.955,0.383
		c0.616,0.256,1.149,0.607,1.598,1.057c0.449,0.449,0.806,0.977,1.07,1.584S194.742,351.901,194.742,352.606z M191.784,352.606
		c0-0.563-0.203-1.048-0.607-1.453c-0.405-0.404-0.889-0.607-1.453-0.607c-0.564,0-1.048,0.203-1.453,0.607
		c-0.405,0.405-0.608,0.89-0.608,1.453s0.203,1.043,0.608,1.439c0.405,0.396,0.889,0.594,1.453,0.594
		c0.563,0,1.047-0.197,1.453-0.594C191.581,353.649,191.784,353.17,191.784,352.606z M191.757,367.53l-2.351-1.162l10.909-19.283
		l2.457,1.189L191.757,367.53z M207.421,361.956c0,0.688-0.132,1.334-0.396,1.941c-0.264,0.607-0.621,1.137-1.069,1.586
		c-0.449,0.448-0.982,0.805-1.598,1.069c-0.617,0.265-1.268,0.396-1.955,0.396c-0.687,0-1.338-0.131-1.955-0.396
		c-0.617-0.265-1.149-0.621-1.598-1.069c-0.449-0.449-0.806-0.979-1.07-1.586s-0.396-1.254-0.396-1.941
		c0-0.686,0.132-1.334,0.396-1.941s0.621-1.135,1.07-1.584s0.981-0.807,1.598-1.07c0.616-0.264,1.268-0.396,1.955-0.396
		c0.687,0,1.338,0.133,1.955,0.396c0.616,0.264,1.149,0.621,1.598,1.07c0.449,0.449,0.806,0.977,1.069,1.584
		C207.289,360.622,207.421,361.271,207.421,361.956z M204.462,361.956c0-0.281-0.057-0.55-0.171-0.805
		c-0.115-0.256-0.264-0.477-0.449-0.66c-0.185-0.186-0.401-0.33-0.647-0.437c-0.247-0.105-0.511-0.158-0.792-0.158
		c-0.564,0-1.048,0.202-1.453,0.607c-0.406,0.405-0.608,0.89-0.608,1.452c0,0.564,0.202,1.044,0.608,1.439
		c0.405,0.396,0.889,0.595,1.453,0.595c0.281,0,0.545-0.053,0.792-0.158c0.246-0.106,0.462-0.251,0.647-0.437
		c0.185-0.184,0.334-0.4,0.449-0.646C204.405,362.503,204.462,362.238,204.462,361.956z"/>
</g>
<g>
	<path fill="#FFFFFF" d="M38.695,358.308c0,1.302-0.226,2.499-0.675,3.592s-1.072,2.037-1.868,2.832
		c-0.796,0.796-1.736,1.418-2.82,1.868c-1.085,0.45-2.262,0.675-3.531,0.675c-1.27,0-2.447-0.225-3.532-0.675
		c-1.084-0.45-2.024-1.072-2.82-1.868c-0.795-0.795-1.418-1.739-1.868-2.832c-0.45-1.093-0.675-2.29-0.675-3.592
		c0-1.301,0.225-2.498,0.675-3.592c0.45-1.092,1.073-2.037,1.868-2.832s1.735-1.418,2.82-1.868c1.085-0.45,2.262-0.675,3.532-0.675
		c1.269,0,2.446,0.225,3.531,0.675c1.084,0.45,2.024,1.073,2.82,1.868c0.795,0.795,1.418,1.74,1.868,2.832
		C38.47,355.81,38.695,357.007,38.695,358.308z M36.863,358.319c0-0.994-0.161-1.94-0.482-2.84
		c-0.322-0.898-0.788-1.688-1.398-2.369s-1.354-1.224-2.229-1.625c-0.876-0.4-1.86-0.602-2.953-0.602
		c-1.093,0-2.077,0.201-2.953,0.602c-0.876,0.401-1.619,0.943-2.229,1.625c-0.611,0.682-1.077,1.471-1.398,2.369
		c-0.322,0.899-0.482,1.846-0.482,2.84c0,0.996,0.161,1.941,0.482,2.84c0.321,0.898,0.787,1.686,1.398,2.359
		c0.61,0.674,1.354,1.211,2.229,1.611c0.876,0.402,1.86,0.602,2.953,0.602c1.092,0,2.077-0.199,2.953-0.602
		c0.875-0.4,1.619-0.938,2.229-1.611s1.077-1.461,1.398-2.359C36.703,360.261,36.863,359.315,36.863,358.319z"/>
	<path fill="#FFFFFF" d="M46.842,366.841h-1.808l-4.604-11.281h1.832l3.664,9.546h0.048l3.688-9.546h1.76L46.842,366.841z"/>
	<path fill="#FFFFFF" d="M64.246,360.862c0,0.113,0,0.234,0,0.362s-0.008,0.265-0.024,0.409h-9.353
		c0.016,0.562,0.129,1.094,0.338,1.592c0.208,0.498,0.498,0.932,0.868,1.301c0.369,0.37,0.803,0.663,1.302,0.881
		c0.498,0.217,1.036,0.324,1.615,0.324c0.852,0,1.587-0.195,2.206-0.59c0.619-0.394,1.088-0.848,1.41-1.361l1.229,0.963
		c-0.675,0.853-1.418,1.463-2.23,1.832c-0.812,0.37-1.684,0.555-2.615,0.555c-0.836,0-1.611-0.148-2.326-0.445
		c-0.715-0.297-1.33-0.711-1.844-1.242c-0.515-0.529-0.92-1.156-1.217-1.88c-0.298-0.724-0.446-1.511-0.446-2.362
		s0.145-1.639,0.434-2.362s0.691-1.35,1.205-1.88s1.117-0.943,1.808-1.241c0.691-0.298,1.438-0.446,2.242-0.446
		c0.883,0,1.663,0.148,2.338,0.446c0.675,0.298,1.237,0.698,1.688,1.205c0.45,0.507,0.792,1.097,1.024,1.771
		S64.246,360.091,64.246,360.862z M62.583,360.333c-0.048-1.061-0.39-1.941-1.024-2.64c-0.635-0.699-1.539-1.049-2.712-1.049
		c-0.546,0-1.053,0.101-1.519,0.302c-0.466,0.201-0.876,0.474-1.229,0.819s-0.635,0.739-0.844,1.181
		c-0.209,0.442-0.33,0.904-0.361,1.387H62.583z"/>
	<path fill="#FFFFFF" d="M67.741,356.861c-0.017-0.481-0.041-0.915-0.073-1.302h1.567c0.032,0.306,0.056,0.643,0.072,1.013
		s0.024,0.675,0.024,0.916h0.048c0.321-0.659,0.804-1.193,1.446-1.603c0.643-0.41,1.366-0.615,2.169-0.615
		c0.209,0,0.398,0.008,0.567,0.024c0.168,0.017,0.341,0.048,0.518,0.097l-0.217,1.566c-0.097-0.032-0.257-0.064-0.482-0.097
		s-0.45-0.048-0.675-0.048c-0.434,0-0.852,0.08-1.253,0.24c-0.402,0.16-0.751,0.413-1.048,0.758
		c-0.298,0.345-0.539,0.785-0.723,1.322c-0.185,0.537-0.277,1.183-0.277,1.936v5.771h-1.639v-8.799
		C67.765,357.737,67.756,357.344,67.741,356.861z"/>
	<path fill="#FFFFFF" d="M78.177,357.416c0.305-0.659,0.812-1.181,1.519-1.567c0.707-0.385,1.462-0.578,2.266-0.578
		c1.43,0,2.502,0.426,3.218,1.277c0.715,0.852,1.073,1.977,1.073,3.375v6.918h-1.639v-6.243c0-0.595-0.048-1.133-0.145-1.614
		c-0.097-0.482-0.261-0.896-0.494-1.242c-0.233-0.346-0.546-0.615-0.94-0.807c-0.394-0.193-0.888-0.29-1.482-0.29
		c-0.434,0-0.856,0.089-1.266,0.265c-0.41,0.178-0.775,0.446-1.097,0.809c-0.322,0.361-0.579,0.818-0.771,1.373
		s-0.289,1.21-0.289,1.965v5.785H76.49v-18.223h1.639v8.798H78.177z"/>
	<path fill="#FFFFFF" d="M100.763,360.862c0,0.113,0,0.234,0,0.362s-0.008,0.265-0.024,0.409h-9.353
		c0.016,0.562,0.129,1.094,0.338,1.592c0.208,0.498,0.498,0.932,0.868,1.301c0.369,0.37,0.803,0.663,1.302,0.881
		c0.498,0.217,1.036,0.324,1.615,0.324c0.852,0,1.587-0.195,2.206-0.59c0.619-0.394,1.088-0.848,1.41-1.361l1.229,0.963
		c-0.675,0.853-1.418,1.463-2.23,1.832c-0.812,0.37-1.684,0.555-2.615,0.555c-0.836,0-1.611-0.148-2.326-0.445
		c-0.715-0.297-1.33-0.711-1.844-1.242c-0.515-0.529-0.92-1.156-1.217-1.88c-0.298-0.724-0.446-1.511-0.446-2.362
		s0.145-1.639,0.434-2.362s0.691-1.35,1.205-1.88s1.117-0.943,1.808-1.241c0.691-0.298,1.438-0.446,2.242-0.446
		c0.883,0,1.663,0.148,2.338,0.446c0.675,0.298,1.237,0.698,1.688,1.205c0.45,0.507,0.792,1.097,1.024,1.771
		S100.763,360.091,100.763,360.862z M99.1,360.333c-0.048-1.061-0.39-1.941-1.024-2.64c-0.635-0.699-1.539-1.049-2.712-1.049
		c-0.546,0-1.053,0.101-1.519,0.302c-0.466,0.201-0.876,0.474-1.229,0.819s-0.635,0.739-0.844,1.181
		c-0.209,0.442-0.33,0.904-0.361,1.387H99.1z"/>
	<path fill="#FFFFFF" d="M111.249,359.54c0-0.973-0.257-1.699-0.771-2.178s-1.262-0.718-2.242-0.718c-0.675,0-1.302,0.12-1.88,0.362
		c-0.579,0.24-1.069,0.562-1.471,0.963l-0.916-1.084c0.466-0.466,1.081-0.852,1.844-1.157c0.763-0.306,1.627-0.458,2.591-0.458
		c0.61,0,1.181,0.084,1.711,0.254c0.53,0.168,0.996,0.422,1.398,0.759c0.401,0.337,0.715,0.763,0.94,1.277s0.337,1.117,0.337,1.808
		v4.941c0,0.434,0.016,0.885,0.048,1.35c0.032,0.467,0.08,0.86,0.145,1.182h-1.47c-0.048-0.273-0.088-0.57-0.121-0.893
		c-0.032-0.32-0.048-0.634-0.048-0.939h-0.048c-0.515,0.756-1.097,1.298-1.748,1.627c-0.651,0.33-1.435,0.494-2.351,0.494
		c-0.434,0-0.879-0.061-1.337-0.182c-0.458-0.12-0.876-0.317-1.253-0.592c-0.378-0.273-0.691-0.629-0.94-1.064
		s-0.374-0.967-0.374-1.596c0-0.871,0.221-1.561,0.663-2.068c0.441-0.508,1.032-0.887,1.771-1.137
		c0.739-0.25,1.587-0.411,2.543-0.484c0.956-0.072,1.948-0.107,2.977-0.107V359.54z M110.767,361.2
		c-0.675,0-1.354,0.028-2.037,0.084c-0.683,0.057-1.302,0.17-1.856,0.338c-0.554,0.169-1.009,0.414-1.362,0.735
		c-0.354,0.321-0.53,0.747-0.53,1.277c0,0.401,0.076,0.739,0.229,1.013c0.152,0.273,0.357,0.494,0.615,0.662
		c0.257,0.17,0.542,0.29,0.855,0.362s0.63,0.108,0.952,0.108c0.579,0,1.093-0.1,1.542-0.301s0.828-0.475,1.133-0.82
		c0.305-0.346,0.538-0.742,0.699-1.193c0.161-0.449,0.241-0.924,0.241-1.422V361.2H110.767z"/>
	<path fill="#FFFFFF" d="M126.29,364.937c-0.482,0.723-1.109,1.27-1.88,1.639c-0.771,0.37-1.566,0.555-2.386,0.555
		c-0.884,0-1.684-0.152-2.398-0.458c-0.715-0.305-1.326-0.724-1.832-1.253c-0.506-0.531-0.9-1.157-1.181-1.881
		c-0.281-0.723-0.421-1.502-0.421-2.338s0.14-1.615,0.421-2.338s0.675-1.35,1.181-1.881c0.506-0.529,1.117-0.947,1.832-1.253
		c0.715-0.306,1.515-0.458,2.398-0.458c0.82,0,1.615,0.189,2.386,0.566c0.771,0.378,1.398,0.937,1.88,1.676h0.048v-8.895h1.639
		v18.223h-1.639v-1.904H126.29z M117.925,361.2c0,0.627,0.096,1.217,0.289,1.771s0.47,1.037,0.832,1.447
		c0.362,0.409,0.808,0.73,1.338,0.963c0.53,0.234,1.133,0.35,1.808,0.35c0.626,0,1.205-0.115,1.735-0.35
		c0.53-0.232,0.988-0.55,1.374-0.951c0.386-0.402,0.687-0.88,0.904-1.435c0.217-0.554,0.326-1.153,0.326-1.796
		s-0.109-1.241-0.326-1.795c-0.217-0.555-0.518-1.037-0.904-1.447s-0.844-0.73-1.374-0.964s-1.109-0.35-1.735-0.35
		c-0.675,0-1.278,0.12-1.808,0.362c-0.53,0.24-0.976,0.566-1.338,0.976c-0.361,0.409-0.639,0.892-0.832,1.446
		S117.925,360.573,117.925,361.2z"/>
	<path fill="#FFFFFF" d="M138.366,358.235c-0.241-0.466-0.607-0.848-1.097-1.145c-0.49-0.297-1.048-0.446-1.675-0.446
		c-0.289,0-0.579,0.032-0.868,0.097c-0.29,0.064-0.546,0.168-0.771,0.312c-0.225,0.146-0.406,0.33-0.542,0.555
		c-0.137,0.226-0.205,0.49-0.205,0.796c0,0.53,0.217,0.937,0.651,1.218c0.434,0.281,1.117,0.518,2.049,0.711
		c1.333,0.273,2.318,0.671,2.953,1.193c0.635,0.521,0.952,1.225,0.952,2.108c0,0.644-0.125,1.186-0.374,1.628
		c-0.25,0.441-0.575,0.803-0.976,1.084c-0.402,0.281-0.856,0.482-1.362,0.603c-0.506,0.12-1.016,0.181-1.53,0.181
		c-0.852,0-1.68-0.177-2.483-0.53c-0.804-0.353-1.462-0.907-1.977-1.663l1.302-0.965c0.289,0.499,0.715,0.916,1.277,1.254
		s1.181,0.506,1.856,0.506c0.354,0,0.691-0.031,1.013-0.096c0.321-0.064,0.603-0.177,0.843-0.338
		c0.241-0.16,0.434-0.365,0.579-0.614s0.217-0.558,0.217-0.929c0-0.594-0.286-1.039-0.856-1.338
		c-0.571-0.297-1.394-0.574-2.471-0.831c-0.337-0.08-0.695-0.181-1.073-0.302c-0.377-0.12-0.727-0.297-1.048-0.529
		c-0.322-0.233-0.587-0.527-0.795-0.881c-0.209-0.353-0.313-0.795-0.313-1.325c0-0.579,0.112-1.073,0.337-1.482
		s0.526-0.747,0.904-1.013c0.377-0.265,0.808-0.461,1.29-0.59c0.482-0.129,0.98-0.193,1.495-0.193c0.787,0,1.551,0.178,2.29,0.53
		c0.739,0.354,1.293,0.853,1.663,1.495L138.366,358.235z"/>
</g>
<g>
	<polygon fill="#ED1C24" points="0,418.513 310.983,418.513 332.169,455.708 0,455.708 	"/>
	<g>
		<path fill="#FFFFFF" d="M261.106,445.655V431.92l-3.487,2.694l-2.298-3.143l6.152-4.518h4.043v18.701H261.106z"/>
		<path fill="#FFFFFF" d="M286.542,439.368c0,1.057-0.193,2.008-0.58,2.854s-0.914,1.559-1.582,2.139
			c-0.668,0.582-1.45,1.027-2.347,1.334c-0.896,0.309-1.846,0.463-2.847,0.463c-1.02,0-1.973-0.154-2.861-0.463
			c-0.888-0.307-1.666-0.752-2.333-1.334c-0.667-0.58-1.195-1.285-1.582-2.112s-0.58-1.752-0.58-2.773
			c0-1.109,0.194-2.117,0.581-3.024c0.387-0.906,0.889-1.826,1.504-2.76l4.513-6.736h5.357l-4.599,6.393l-0.08,0.132
			c0.176-0.07,0.387-0.123,0.633-0.159c0.246-0.034,0.475-0.053,0.686-0.053c0.809,0,1.586,0.146,2.333,0.437
			s1.397,0.704,1.951,1.241c0.554,0.537,0.998,1.18,1.332,1.928C286.375,437.622,286.542,438.454,286.542,439.368z M282.131,439.475
			c0-0.845-0.265-1.546-0.796-2.101s-1.238-0.832-2.123-0.832c-0.885,0-1.601,0.273-2.149,0.819
			c-0.549,0.546-0.823,1.259-0.823,2.14c0,0.811,0.265,1.506,0.796,2.086c0.531,0.582,1.247,0.872,2.149,0.872
			c0.884,0,1.596-0.272,2.136-0.819C281.861,441.095,282.131,440.372,282.131,439.475z"/>
		<path fill="#FFFFFF" d="M298.561,431.63c0,0.687-0.132,1.334-0.396,1.941s-0.621,1.135-1.07,1.584
			c-0.449,0.449-0.982,0.807-1.598,1.07c-0.617,0.264-1.268,0.396-1.955,0.396c-0.687,0-1.338-0.133-1.955-0.396
			c-0.617-0.264-1.149-0.621-1.598-1.07s-0.806-0.977-1.07-1.584s-0.396-1.255-0.396-1.941c0-0.705,0.132-1.361,0.396-1.969
			s0.621-1.135,1.07-1.584s0.981-0.801,1.598-1.057c0.616-0.256,1.268-0.383,1.955-0.383c0.687,0,1.338,0.127,1.955,0.383
			c0.616,0.256,1.149,0.607,1.598,1.057c0.449,0.449,0.806,0.977,1.07,1.584S298.561,430.925,298.561,431.63z M295.602,431.63
			c0-0.563-0.203-1.048-0.607-1.453c-0.405-0.404-0.889-0.607-1.453-0.607c-0.564,0-1.048,0.203-1.453,0.607
			c-0.405,0.405-0.608,0.89-0.608,1.453s0.203,1.043,0.608,1.439c0.405,0.396,0.889,0.594,1.453,0.594
			c0.563,0,1.047-0.197,1.453-0.594C295.399,432.673,295.602,432.193,295.602,431.63z M295.576,446.554l-2.351-1.162l10.909-19.283
			l2.457,1.189L295.576,446.554z M311.239,440.979c0,0.688-0.132,1.334-0.396,1.941c-0.264,0.607-0.621,1.137-1.069,1.586
			c-0.449,0.448-0.982,0.805-1.598,1.069c-0.617,0.265-1.268,0.396-1.955,0.396c-0.687,0-1.338-0.131-1.955-0.396
			c-0.617-0.265-1.149-0.621-1.598-1.069c-0.449-0.449-0.806-0.979-1.07-1.586s-0.396-1.254-0.396-1.941
			c0-0.686,0.132-1.334,0.396-1.941s0.621-1.135,1.07-1.584s0.981-0.807,1.598-1.07c0.616-0.264,1.268-0.396,1.955-0.396
			c0.687,0,1.338,0.133,1.955,0.396c0.616,0.264,1.149,0.621,1.598,1.07c0.449,0.449,0.806,0.977,1.069,1.584
			C311.107,439.646,311.239,440.294,311.239,440.979z M308.281,440.979c0-0.281-0.057-0.55-0.171-0.805
			c-0.115-0.256-0.264-0.477-0.449-0.66c-0.185-0.186-0.401-0.33-0.647-0.437c-0.247-0.105-0.511-0.158-0.792-0.158
			c-0.564,0-1.048,0.202-1.453,0.607c-0.406,0.405-0.608,0.89-0.608,1.452c0,0.564,0.202,1.044,0.608,1.439
			c0.405,0.396,0.889,0.595,1.453,0.595c0.281,0,0.545-0.053,0.792-0.158c0.246-0.106,0.462-0.251,0.647-0.437
			c0.185-0.184,0.334-0.4,0.449-0.646C308.224,441.526,308.281,441.262,308.281,440.979z"/>
	</g>
	<g>
		<path fill="#FFFFFF" d="M52.46,431.548c-0.37-0.515-0.844-0.929-1.422-1.242c-0.578-0.313-1.277-0.47-2.097-0.47
			c-0.418,0-0.844,0.063-1.278,0.192c-0.434,0.129-0.828,0.326-1.181,0.591s-0.639,0.599-0.855,1.001
			c-0.217,0.401-0.326,0.875-0.326,1.422c0,0.546,0.104,0.996,0.312,1.35c0.208,0.354,0.484,0.654,0.829,0.904
			c0.345,0.249,0.737,0.453,1.178,0.614c0.44,0.161,0.901,0.321,1.382,0.481c0.593,0.193,1.189,0.402,1.791,0.627
			c0.601,0.226,1.142,0.519,1.623,0.88c0.48,0.362,0.873,0.819,1.178,1.374c0.304,0.555,0.457,1.258,0.457,2.109
			s-0.163,1.587-0.487,2.205c-0.325,0.619-0.747,1.129-1.266,1.531c-0.519,0.402-1.112,0.699-1.778,0.892
			c-0.667,0.192-1.338,0.29-2.013,0.29c-0.515,0-1.029-0.053-1.542-0.157c-0.515-0.104-1.005-0.262-1.471-0.47
			c-0.466-0.209-0.9-0.475-1.302-0.796s-0.755-0.69-1.061-1.108l1.495-1.109c0.37,0.611,0.888,1.121,1.555,1.531
			c0.667,0.409,1.45,0.614,2.35,0.614c0.434,0,0.876-0.068,1.326-0.205c0.45-0.136,0.856-0.345,1.217-0.626
			c0.362-0.281,0.659-0.627,0.892-1.037s0.35-0.888,0.35-1.434c0-0.595-0.117-1.089-0.35-1.482
			c-0.233-0.395-0.542-0.724-0.928-0.988c-0.385-0.266-0.828-0.486-1.326-0.664c-0.498-0.176-1.021-0.353-1.567-0.529
			c-0.562-0.178-1.117-0.378-1.663-0.604c-0.546-0.225-1.037-0.518-1.47-0.879c-0.434-0.361-0.784-0.809-1.049-1.338
			c-0.265-0.531-0.397-1.182-0.397-1.953c0-0.819,0.165-1.526,0.494-2.121c0.329-0.594,0.759-1.084,1.29-1.471
			c0.53-0.385,1.117-0.666,1.76-0.844c0.643-0.176,1.277-0.265,1.904-0.265c1.157,0,2.145,0.205,2.965,0.614
			c0.819,0.41,1.438,0.896,1.856,1.459L52.46,431.548z"/>
		<path fill="#FFFFFF" d="M65.886,445.865c-0.032-0.306-0.056-0.643-0.072-1.013c-0.016-0.369-0.024-0.675-0.024-0.916h-0.048
			c-0.321,0.66-0.844,1.193-1.567,1.604s-1.486,0.614-2.29,0.614c-1.431,0-2.503-0.425-3.218-1.277
			c-0.715-0.852-1.073-1.977-1.073-3.374v-6.918h1.639v6.242c0,0.595,0.048,1.133,0.145,1.615c0.096,0.482,0.261,0.896,0.494,1.241
			c0.232,0.346,0.546,0.614,0.94,0.808c0.394,0.193,0.888,0.289,1.482,0.289c0.434,0,0.855-0.088,1.266-0.266
			c0.41-0.176,0.775-0.445,1.097-0.807c0.321-0.361,0.579-0.82,0.771-1.374c0.193-0.555,0.29-1.209,0.29-1.964v-5.785h1.639v8.797
			c0,0.307,0.008,0.699,0.024,1.182s0.04,0.916,0.072,1.302H65.886z"/>
		<path fill="#FFFFFF" d="M73.335,451.65h-1.639v-17.065h1.639v1.951h0.072c0.466-0.738,1.088-1.297,1.868-1.675
			c0.779-0.378,1.57-0.566,2.374-0.566c0.884,0,1.684,0.153,2.398,0.458c0.715,0.306,1.326,0.723,1.832,1.254
			c0.506,0.529,0.9,1.156,1.181,1.88c0.281,0.724,0.422,1.503,0.422,2.338c0,0.836-0.141,1.615-0.422,2.339
			c-0.281,0.723-0.675,1.35-1.181,1.879c-0.506,0.531-1.117,0.949-1.832,1.254s-1.515,0.458-2.398,0.458
			c-0.804,0-1.595-0.188-2.374-0.566c-0.78-0.378-1.402-0.919-1.868-1.627h-0.072V451.65z M81.748,440.225
			c0-0.626-0.097-1.218-0.29-1.771c-0.193-0.555-0.47-1.036-0.832-1.446c-0.361-0.41-0.808-0.735-1.338-0.977
			c-0.53-0.24-1.133-0.361-1.808-0.361c-0.627,0-1.205,0.117-1.736,0.35c-0.53,0.232-0.988,0.555-1.374,0.965
			c-0.386,0.409-0.687,0.891-0.904,1.445c-0.217,0.555-0.325,1.153-0.325,1.796c0,0.644,0.108,1.241,0.325,1.796
			c0.217,0.555,0.519,1.033,0.904,1.434c0.385,0.402,0.843,0.721,1.374,0.953c0.531,0.232,1.109,0.35,1.736,0.35
			c0.675,0,1.277-0.117,1.808-0.35s0.977-0.555,1.338-0.965c0.362-0.41,0.639-0.892,0.832-1.445
			C81.651,441.442,81.748,440.852,81.748,440.225z"/>
		<path fill="#FFFFFF" d="M88.641,451.65h-1.639v-17.065h1.639v1.951h0.072c0.466-0.738,1.088-1.297,1.868-1.675
			c0.779-0.378,1.57-0.566,2.374-0.566c0.884,0,1.684,0.153,2.398,0.458c0.715,0.306,1.326,0.723,1.832,1.254
			c0.506,0.529,0.9,1.156,1.181,1.88c0.281,0.724,0.422,1.503,0.422,2.338c0,0.836-0.141,1.615-0.422,2.339
			c-0.281,0.723-0.675,1.35-1.181,1.879c-0.506,0.531-1.117,0.949-1.832,1.254s-1.515,0.458-2.398,0.458
			c-0.804,0-1.595-0.188-2.374-0.566c-0.78-0.378-1.402-0.919-1.868-1.627h-0.072V451.65z M97.054,440.225
			c0-0.626-0.097-1.218-0.29-1.771c-0.193-0.555-0.47-1.036-0.832-1.446c-0.361-0.41-0.808-0.735-1.338-0.977
			c-0.53-0.24-1.133-0.361-1.808-0.361c-0.627,0-1.205,0.117-1.736,0.35c-0.53,0.232-0.988,0.555-1.374,0.965
			c-0.386,0.409-0.687,0.891-0.904,1.445c-0.217,0.555-0.325,1.153-0.325,1.796c0,0.644,0.108,1.241,0.325,1.796
			c0.217,0.555,0.519,1.033,0.904,1.434c0.385,0.402,0.843,0.721,1.374,0.953c0.531,0.232,1.109,0.35,1.736,0.35
			c0.675,0,1.277-0.117,1.808-0.35s0.977-0.555,1.338-0.965c0.362-0.41,0.639-0.892,0.832-1.445
			C96.957,441.442,97.054,440.852,97.054,440.225z"/>
		<path fill="#FFFFFF" d="M113.517,440.225c0,0.853-0.148,1.64-0.446,2.362s-0.711,1.35-1.241,1.881
			c-0.53,0.529-1.166,0.943-1.904,1.24c-0.74,0.298-1.551,0.446-2.435,0.446c-0.868,0-1.672-0.148-2.411-0.446
			c-0.739-0.297-1.374-0.711-1.904-1.24c-0.53-0.531-0.944-1.158-1.241-1.881c-0.298-0.723-0.446-1.51-0.446-2.362
			c0-0.852,0.148-1.64,0.446-2.362c0.297-0.723,0.711-1.35,1.241-1.88s1.165-0.944,1.904-1.241c0.739-0.297,1.542-0.446,2.411-0.446
			c0.883,0,1.695,0.149,2.435,0.446c0.739,0.297,1.374,0.711,1.904,1.241s0.944,1.157,1.241,1.88S113.517,439.373,113.517,440.225z
			 M111.781,440.225c0-0.626-0.101-1.218-0.301-1.771c-0.201-0.555-0.486-1.036-0.856-1.446s-0.819-0.735-1.35-0.977
			c-0.53-0.24-1.125-0.361-1.784-0.361c-0.659,0-1.25,0.121-1.772,0.361c-0.522,0.241-0.968,0.566-1.338,0.977
			s-0.655,0.892-0.855,1.446c-0.201,0.554-0.301,1.146-0.301,1.771c0,0.627,0.1,1.218,0.301,1.772
			c0.201,0.554,0.486,1.035,0.855,1.445s0.815,0.732,1.338,0.965c0.522,0.232,1.113,0.35,1.772,0.35c0.659,0,1.253-0.117,1.784-0.35
			s0.98-0.555,1.35-0.965s0.655-0.892,0.856-1.445C111.681,441.442,111.781,440.852,111.781,440.225z"/>
		<path fill="#FFFFFF" d="M117.012,435.886c-0.017-0.482-0.041-0.916-0.073-1.301h1.567c0.032,0.305,0.056,0.643,0.072,1.012
			s0.024,0.675,0.024,0.916h0.048c0.321-0.658,0.804-1.193,1.446-1.604c0.643-0.409,1.366-0.614,2.169-0.614
			c0.209,0,0.398,0.009,0.567,0.024c0.168,0.016,0.341,0.048,0.518,0.096l-0.217,1.567c-0.097-0.032-0.257-0.063-0.482-0.097
			c-0.225-0.031-0.45-0.048-0.675-0.048c-0.434,0-0.852,0.08-1.253,0.241c-0.402,0.16-0.751,0.412-1.048,0.757
			c-0.298,0.345-0.539,0.785-0.723,1.322c-0.185,0.537-0.277,1.183-0.277,1.937v5.771h-1.639v-8.798
			C117.036,436.763,117.027,436.368,117.012,435.886z"/>
		<path fill="#FFFFFF" d="M130.51,435.958h-3.182v6.58c0,0.419,0.04,0.764,0.121,1.037c0.08,0.273,0.196,0.486,0.35,0.639
			c0.152,0.153,0.333,0.258,0.542,0.313c0.209,0.057,0.434,0.085,0.675,0.085c0.225,0,0.461-0.033,0.711-0.098
			c0.249-0.063,0.486-0.152,0.711-0.265l0.072,1.423c-0.289,0.112-0.59,0.196-0.904,0.252c-0.313,0.057-0.655,0.085-1.024,0.085
			c-0.306,0-0.627-0.04-0.964-0.12s-0.651-0.232-0.94-0.459c-0.289-0.225-0.526-0.529-0.711-0.916
			c-0.185-0.385-0.277-0.891-0.277-1.518v-7.039h-2.338v-1.373h2.338v-3.183h1.639v3.183h3.182V435.958z"/>
		<path fill="#FFFFFF" d="M140.923,445.865h-1.736V428.8h10.293v1.542h-8.557v5.905h7.955v1.543h-7.955V445.865z"/>
		<path fill="#FFFFFF" d="M159.821,445.865c-0.032-0.306-0.056-0.643-0.072-1.013c-0.016-0.369-0.024-0.675-0.024-0.916h-0.048
			c-0.321,0.66-0.844,1.193-1.567,1.604s-1.486,0.614-2.29,0.614c-1.431,0-2.503-0.425-3.218-1.277
			c-0.715-0.852-1.073-1.977-1.073-3.374v-6.918h1.639v6.242c0,0.595,0.048,1.133,0.145,1.615c0.096,0.482,0.261,0.896,0.494,1.241
			c0.232,0.346,0.546,0.614,0.94,0.808c0.394,0.193,0.888,0.289,1.482,0.289c0.434,0,0.855-0.088,1.266-0.266
			c0.41-0.176,0.775-0.445,1.097-0.807c0.321-0.361,0.579-0.82,0.771-1.374c0.193-0.555,0.29-1.209,0.29-1.964v-5.785h1.639v8.797
			c0,0.307,0.008,0.699,0.024,1.182s0.04,0.916,0.072,1.302H159.821z"/>
		<path fill="#FFFFFF" d="M167.1,434.585c0.032,0.305,0.056,0.643,0.072,1.012s0.024,0.675,0.024,0.916h0.048
			c0.321-0.658,0.844-1.193,1.567-1.604c0.723-0.409,1.486-0.614,2.29-0.614c1.43,0,2.503,0.427,3.218,1.278
			s1.073,1.977,1.073,3.374v6.918h-1.639v-6.243c0-0.594-0.048-1.133-0.145-1.615c-0.096-0.482-0.261-0.896-0.494-1.241
			c-0.233-0.345-0.546-0.614-0.94-0.808c-0.394-0.192-0.888-0.289-1.482-0.289c-0.434,0-0.856,0.088-1.266,0.266
			c-0.41,0.177-0.775,0.445-1.097,0.807c-0.322,0.361-0.579,0.82-0.771,1.375c-0.193,0.554-0.289,1.209-0.289,1.964v5.785h-1.639
			v-8.798c0-0.305-0.008-0.699-0.024-1.182c-0.017-0.482-0.041-0.916-0.073-1.301H167.1z"/>
		<path fill="#FFFFFF" d="M187.758,437.163c-0.273-0.434-0.671-0.791-1.193-1.072c-0.522-0.281-1.089-0.422-1.7-0.422
			c-0.659,0-1.253,0.117-1.784,0.35s-0.984,0.555-1.362,0.965c-0.378,0.409-0.667,0.891-0.868,1.445
			c-0.201,0.555-0.301,1.153-0.301,1.796c0,0.644,0.1,1.237,0.301,1.784c0.201,0.547,0.486,1.023,0.855,1.434s0.82,0.732,1.35,0.965
			s1.125,0.35,1.784,0.35c0.723,0,1.333-0.137,1.832-0.41c0.498-0.273,0.908-0.627,1.229-1.061l1.229,0.916
			c-0.482,0.595-1.073,1.068-1.771,1.422c-0.699,0.354-1.539,0.53-2.519,0.53c-0.916,0-1.744-0.148-2.483-0.446
			c-0.739-0.297-1.37-0.711-1.892-1.24c-0.522-0.531-0.928-1.158-1.217-1.881s-0.434-1.51-0.434-2.362
			c0-0.852,0.145-1.64,0.434-2.362s0.695-1.35,1.217-1.88c0.522-0.53,1.153-0.944,1.892-1.241s1.567-0.446,2.483-0.446
			c0.755,0,1.522,0.165,2.302,0.494s1.41,0.815,1.893,1.458L187.758,437.163z"/>
		<path fill="#FFFFFF" d="M196.773,435.958h-3.182v6.58c0,0.419,0.04,0.764,0.121,1.037c0.08,0.273,0.196,0.486,0.35,0.639
			c0.152,0.153,0.333,0.258,0.542,0.313c0.209,0.057,0.434,0.085,0.675,0.085c0.225,0,0.461-0.033,0.711-0.098
			c0.249-0.063,0.486-0.152,0.711-0.265l0.072,1.423c-0.289,0.112-0.59,0.196-0.904,0.252c-0.313,0.057-0.655,0.085-1.024,0.085
			c-0.306,0-0.627-0.04-0.964-0.12s-0.651-0.232-0.94-0.459c-0.289-0.225-0.526-0.529-0.711-0.916
			c-0.185-0.385-0.277-0.891-0.277-1.518v-7.039h-2.338v-1.373h2.338v-3.183h1.639v3.183h3.182V435.958z"/>
		<path fill="#FFFFFF" d="M201.328,430.245c0,0.338-0.12,0.615-0.361,0.832s-0.506,0.325-0.795,0.325
			c-0.29,0-0.555-0.108-0.795-0.325c-0.241-0.217-0.362-0.494-0.362-0.832c0-0.337,0.121-0.614,0.362-0.831
			c0.241-0.218,0.506-0.325,0.795-0.325c0.289,0,0.554,0.107,0.795,0.325C201.208,429.631,201.328,429.908,201.328,430.245z
			 M200.991,445.865h-1.639v-11.28h1.639V445.865z"/>
		<path fill="#FFFFFF" d="M216.562,440.225c0,0.853-0.148,1.64-0.446,2.362s-0.711,1.35-1.241,1.881
			c-0.53,0.529-1.166,0.943-1.904,1.24c-0.74,0.298-1.551,0.446-2.435,0.446c-0.868,0-1.672-0.148-2.411-0.446
			c-0.739-0.297-1.374-0.711-1.904-1.24c-0.53-0.531-0.944-1.158-1.241-1.881c-0.298-0.723-0.446-1.51-0.446-2.362
			c0-0.852,0.148-1.64,0.446-2.362c0.297-0.723,0.711-1.35,1.241-1.88s1.165-0.944,1.904-1.241c0.739-0.297,1.542-0.446,2.411-0.446
			c0.883,0,1.695,0.149,2.435,0.446c0.739,0.297,1.374,0.711,1.904,1.241s0.944,1.157,1.241,1.88S216.562,439.373,216.562,440.225z
			 M214.827,440.225c0-0.626-0.101-1.218-0.301-1.771c-0.201-0.555-0.486-1.036-0.856-1.446s-0.819-0.735-1.35-0.977
			c-0.53-0.24-1.125-0.361-1.784-0.361c-0.659,0-1.25,0.121-1.772,0.361c-0.522,0.241-0.968,0.566-1.338,0.977
			s-0.655,0.892-0.855,1.446c-0.201,0.554-0.301,1.146-0.301,1.771c0,0.627,0.1,1.218,0.301,1.772
			c0.201,0.554,0.486,1.035,0.855,1.445s0.815,0.732,1.338,0.965c0.522,0.232,1.113,0.35,1.772,0.35c0.659,0,1.253-0.117,1.784-0.35
			s0.98-0.555,1.35-0.965s0.655-0.892,0.856-1.445C214.727,441.442,214.827,440.852,214.827,440.225z"/>
		<path fill="#FFFFFF" d="M221.552,434.585c0.032,0.305,0.056,0.643,0.072,1.012s0.024,0.675,0.024,0.916h0.048
			c0.321-0.658,0.844-1.193,1.567-1.604c0.723-0.409,1.486-0.614,2.29-0.614c1.43,0,2.503,0.427,3.218,1.278
			s1.073,1.977,1.073,3.374v6.918h-1.639v-6.243c0-0.594-0.048-1.133-0.145-1.615c-0.096-0.482-0.261-0.896-0.494-1.241
			c-0.233-0.345-0.546-0.614-0.94-0.808c-0.394-0.192-0.888-0.289-1.482-0.289c-0.434,0-0.856,0.088-1.266,0.266
			c-0.41,0.177-0.775,0.445-1.097,0.807c-0.322,0.361-0.579,0.82-0.771,1.375c-0.193,0.554-0.289,1.209-0.289,1.964v5.785h-1.639
			v-8.798c0-0.305-0.008-0.699-0.024-1.182c-0.017-0.482-0.041-0.916-0.073-1.301H221.552z"/>
		<path fill="#FFFFFF" d="M240.088,437.26c-0.241-0.466-0.607-0.847-1.097-1.146c-0.49-0.297-1.048-0.445-1.675-0.445
			c-0.289,0-0.579,0.032-0.868,0.097c-0.29,0.063-0.546,0.169-0.771,0.313s-0.406,0.329-0.542,0.555
			c-0.137,0.225-0.205,0.49-0.205,0.795c0,0.53,0.217,0.936,0.651,1.217c0.434,0.281,1.117,0.519,2.049,0.711
			c1.333,0.273,2.318,0.672,2.953,1.193c0.635,0.523,0.952,1.227,0.952,2.109c0,0.643-0.125,1.186-0.374,1.627
			c-0.25,0.442-0.575,0.805-0.976,1.085c-0.402,0.281-0.856,0.481-1.362,0.603c-0.506,0.121-1.016,0.181-1.53,0.181
			c-0.852,0-1.68-0.177-2.483-0.53c-0.804-0.354-1.462-0.908-1.977-1.663l1.302-0.964c0.289,0.498,0.715,0.916,1.277,1.253
			c0.562,0.338,1.181,0.507,1.856,0.507c0.354,0,0.691-0.032,1.013-0.097c0.321-0.063,0.603-0.177,0.843-0.337
			c0.241-0.161,0.434-0.366,0.579-0.615s0.217-0.559,0.217-0.928c0-0.595-0.286-1.041-0.856-1.338
			c-0.571-0.297-1.394-0.574-2.471-0.832c-0.337-0.08-0.695-0.181-1.073-0.301c-0.377-0.121-0.727-0.297-1.048-0.531
			c-0.322-0.232-0.587-0.525-0.795-0.879c-0.209-0.354-0.313-0.796-0.313-1.326c0-0.578,0.112-1.072,0.337-1.482
			s0.526-0.747,0.904-1.012c0.377-0.266,0.808-0.463,1.29-0.592c0.482-0.128,0.98-0.192,1.495-0.192c0.787,0,1.551,0.177,2.29,0.53
			c0.739,0.354,1.293,0.852,1.663,1.494L240.088,437.26z"/>
	</g>
</g>
</svg>
