<svg width="251" height="254" viewBox="0 0 251 254" version="1.1" xmlns="http://www.w3.org/2000/svg" xmlns:xlink="http://www.w3.org/1999/xlink">
<title>Group</title>
<desc>Created using Figma</desc>
<g id="Canvas" transform="translate(-5323 -3311)">
<g id="Group">
<g id="Group">
<g id="keys linear">
<g id="Ellipse 6">
<mask id="mask0_outline_ins">
<use xlink:href="#path0_fill" fill="white" transform="translate(5323 3311)"/>
</mask>
<g mask="url(#mask0_outline_ins)">
<use xlink:href="#path1_stroke_2x" transform="translate(5323 3311)" fill="#174F9D" fill-opacity="0.1"/>
</g>
</g>
</g>
</g>
<g id="Ellipse 7">
<use xlink:href="#path2_fill" transform="translate(5391.86 3382.3)" fill="#174F9D" fill-opacity="0.1"/>
</g>
<g id="Ellipse 7">
<use xlink:href="#path2_fill" transform="translate(5476.27 3382.3)" fill="#174F9D" fill-opacity="0.1"/>
</g>
<g id="Ellipse 7">
<use xlink:href="#path2_fill" transform="translate(5476.27 3466.96)" fill="#174F9D" fill-opacity="0.1"/>
</g>
<g id="Ellipse 7">
<use xlink:href="#path2_fill" transform="translate(5434.06 3424.63)" fill="#174F9D" fill-opacity="0.1"/>
</g>
<g id="Ellipse 7">
<use xlink:href="#path2_fill" transform="translate(5391.86 3466.96)" fill="#174F9D" fill-opacity="0.1"/>
</g>
<g id="Vector 5">
<use xlink:href="#path3_stroke" transform="translate(5406.3 3396.78)" fill="#174F9D" fill-opacity="0.1"/>
</g>
<g id="Vector 6">
<use xlink:href="#path4_stroke" transform="translate(5419.62 3409.04)" fill="#174F9D" fill-opacity="0.1"/>
</g>
</g>
</g>
<defs>
<path id="path0_fill" d="M 251 127C 251 197.14 194.812 254 125.5 254C 56.1883 254 0 197.14 0 127C 0 56.8598 56.1883 0 125.5 0C 194.812 0 251 56.8598 251 127Z"/>
<path id="path1_stroke_2x" d="M 250 127C 250 196.599 194.248 253 125.5 253L 125.5 255C 195.375 255 252 197.681 252 127L 250 127ZM 125.5 253C 56.7517 253 1 196.599 1 127L -1 127C -1 197.681 55.6248 255 125.5 255L 125.5 253ZM 1 127C 1 57.4009 56.7517 1 125.5 1L 125.5 -1C 55.6248 -1 -1 56.3188 -1 127L 1 127ZM 125.5 1C 194.248 1 250 57.4009 250 127L 252 127C 252 56.3188 195.375 -1 125.5 -1L 125.5 1Z"/>
<path id="path2_fill" d="M 26.6549 13.3684C 26.6549 20.7516 20.688 26.7368 13.3274 26.7368C 5.9669 26.7368 0 20.7516 0 13.3684C 0 5.98525 5.9669 0 13.3274 0C 20.688 0 26.6549 5.98525 26.6549 13.3684Z"/>
<path id="path3_stroke" d="M 0.5 63.5L 0.5 18.9386L -0.5 18.9386L -0.5 63.5L 0.5 63.5ZM 82.6858 63.5L 82.6858 18.9386L 81.6858 18.9386L 81.6858 63.5L 82.6858 63.5ZM 63.3053 81.9386L 18.8805 81.9386L 18.8805 82.9386L 63.3053 82.9386L 63.3053 81.9386ZM 63.3053 -0.5L 18.8805 -0.5L 18.8805 0.5L 63.3053 0.5L 63.3053 -0.5Z"/>
<path id="path4_stroke" d="M 54.0663 -0.35301L 40.7388 13.0154L 41.447 13.7214L 54.7745 0.35301L 54.0663 -0.35301ZM 12.9733 41.9803L -0.354096 55.3487L 0.354096 56.0548L 13.6815 42.6863L 12.9733 41.9803ZM 0.756524 0.35301L 14.084 13.7214L 14.7921 13.0154L 1.46472 -0.35301L 0.756524 0.35301ZM 42.9601 42.6863L 56.2875 56.0548L 56.9957 55.3487L 43.6683 41.9803L 42.9601 42.6863Z"/>
</defs>
</svg>
