<svg width="251" height="254" viewBox="0 0 251 254" version="1.1" xmlns="http://www.w3.org/2000/svg" xmlns:xlink="http://www.w3.org/1999/xlink">
<title>Group</title>
<desc>Created using Figma</desc>
<g id="Canvas" transform="translate(-6145 -3311)">
<g id="Group">
<g id="Group">
<g id="keys linear">
<g id="Ellipse 6">
<mask id="mask0_outline_ins">
<use xlink:href="#path0_fill" fill="white" transform="translate(6145 3311)"/>
</mask>
<g mask="url(#mask0_outline_ins)">
<use xlink:href="#path1_stroke_2x" transform="translate(6145 3311)" fill="#174F9D" fill-opacity="0.1"/>
</g>
</g>
</g>
</g>
<g id="Group">
<g id="Vector">
<use xlink:href="#path2_stroke" transform="translate(6227 3381)" fill="#174F9D" fill-opacity="0.1"/>
</g>
<g id="Vector">
<use xlink:href="#path3_stroke" transform="translate(6291.65 3381)" fill="#174F9D" fill-opacity="0.1"/>
</g>
<g id="Vector">
<use xlink:href="#path4_stroke" transform="translate(6240.94 3459.51)" fill="#174F9D" fill-opacity="0.1"/>
</g>
<g id="Vector">
<use xlink:href="#path5_stroke" transform="translate(6240.94 3468.69)" fill="#174F9D" fill-opacity="0.1"/>
</g>
<g id="Vector">
<use xlink:href="#path6_stroke" transform="translate(6240.94 3477.86)" fill="#174F9D" fill-opacity="0.1"/>
</g>
<g id="Group">
<g id="Vector">
<use xlink:href="#path7_fill" transform="translate(6247.03 3417.71)" fill="#174F9D" fill-opacity="0.1"/>
</g>
<g id="Vector">
<use xlink:href="#path8_fill" transform="translate(6265.79 3413.88)" fill="#174F9D" fill-opacity="0.1"/>
</g>
<g id="Vector">
<use xlink:href="#path9_fill" transform="translate(6280.24 3417.71)" fill="#174F9D" fill-opacity="0.1"/>
</g>
</g>
</g>
</g>
</g>
<defs>
<path id="path0_fill" d="M 251 127C 251 197.14 194.812 254 125.5 254C 56.1883 254 0 197.14 0 127C 0 56.8598 56.1883 0 125.5 0C 194.812 0 251 56.8598 251 127Z"/>
<path id="path1_stroke_2x" d="M 250 127C 250 196.599 194.248 253 125.5 253L 125.5 255C 195.375 255 252 197.681 252 127L 250 127ZM 125.5 253C 56.7517 253 1 196.599 1 127L -1 127C -1 197.681 55.6248 255 125.5 255L 125.5 253ZM 1 127C 1 57.4009 56.7517 1 125.5 1L 125.5 -1C 55.6248 -1 -1 56.3188 -1 127L 1 127ZM 125.5 1C 194.248 1 250 57.4009 250 127L 252 127C 252 56.3188 195.375 -1 125.5 -1L 125.5 1Z"/>
<path id="path2_stroke" d="M 64.6479 0L 65.0006 -0.354369L 64.8543 -0.5L 64.6479 -0.5L 64.6479 0ZM 0 0L 0 -0.5L -0.5 -0.5L -0.5 0L 0 0ZM 0 117L -0.5 117L -0.5 117.5L 0 117.5L 0 117ZM 90 117L 90 117.5L 90.5 117.5L 90.5 117L 90 117ZM 90 25.2353L 90.5 25.2353L 90.5 25.0275L 90.3527 24.8809L 90 25.2353ZM 64.6479 -0.5L 0 -0.5L 0 0.5L 64.6479 0.5L 64.6479 -0.5ZM -0.5 0L -0.5 117L 0.5 117L 0.5 0L -0.5 0ZM 0 117.5L 90 117.5L 90 116.5L 0 116.5L 0 117.5ZM 90.5 117L 90.5 25.2353L 89.5 25.2353L 89.5 117L 90.5 117ZM 90.3527 24.8809L 65.0006 -0.354369L 64.2952 0.354369L 89.6473 25.5897L 90.3527 24.8809Z"/>
<path id="path3_stroke" d="M 0 24.9804L -0.5 24.9804L -0.5 25.4804L 0 25.4804L 0 24.9804ZM -0.5 0L -0.5 24.9804L 0.5 24.9804L 0.5 0L -0.5 0ZM 0 25.4804L 25.0986 25.4804L 25.0986 24.4804L 0 24.4804L 0 25.4804Z"/>
<path id="path4_stroke" d="M 0 0.999999L 61.8592 0.999999L 61.8592 -1L 0 -1L 0 0.999999Z"/>
<path id="path5_stroke" d="M 0 1L 61.8592 1L 61.8592 -0.999998L 0 -0.999998L 0 1Z"/>
<path id="path6_stroke" d="M 0 1L 61.8592 1L 61.8592 -1L 0 -1L 0 1Z"/>
<path id="path7_fill" d="M -9.67106e-07 8.41177L 16.4789 -9.72374e-07L 16.4789 2.54902L 2.53521 9.43137L 16.4789 16.3137L 16.4789 18.8627L -9.67106e-07 10.451L -9.67106e-07 8.41177Z"/>
<path id="path8_fill" d="M 4.83553e-07 25.7451L 9.88733 -9.72374e-07L 12.169 -9.72374e-07L 2.28169 25.7451L 4.83553e-07 25.7451Z"/>
<path id="path9_fill" d="M 16.4789 10.451L 0 18.8627L 0 16.3137L 13.9437 9.43137L 0 2.54902L 0 -9.72374e-07L 16.4789 8.41177L 16.4789 10.451Z"/>
</defs>
</svg>
