<svg width="251" height="254" viewBox="0 0 251 254" version="1.1" xmlns="http://www.w3.org/2000/svg" xmlns:xlink="http://www.w3.org/1999/xlink">
<title>keys linear</title>
<desc>Created using Figma</desc>
<g id="Canvas" transform="translate(-4912 -3311)">
<g id="keys linear">
<g id="keys">
<use xlink:href="#path0_fill" transform="translate(5005.29 3368.93)" fill="#174F9D" fill-opacity="0.1"/>
</g>
<g id="Ellipse 6">
<mask id="mask0_outline_ins">
<use xlink:href="#path1_fill" fill="white" transform="translate(4912 3311)"/>
</mask>
<g mask="url(#mask0_outline_ins)">
<use xlink:href="#path2_stroke_2x" transform="translate(4912 3311)" fill="#174F9D" fill-opacity="0.1"/>
</g>
</g>
</g>
</g>
<defs>
<path id="path0_fill" fill-rule="evenodd" d="M 44.2856 63.502C 56.0894 58.6143 64.416 46.7761 64.416 32.9482C 64.416 14.7515 49.9961 0 32.208 0C 14.4199 0 0 14.7515 0 32.9482C 0 46.7759 8.32617 58.614 20.1299 63.5017L 20.1299 82.3711L 28.1816 90.6084L 20.1299 98.8455L 28.1816 107.083L 20.1299 115.32L 20.1299 123.557L 36.2339 135.912L 44.2856 123.557L 44.2856 63.502ZM 44.2856 20.5923C 44.2856 27.416 38.8784 32.9478 32.208 32.9478C 25.5376 32.9478 20.1299 27.416 20.1299 20.5923C 20.1299 13.7683 25.5376 8.23657 32.208 8.23657C 38.8784 8.23657 44.2856 13.7683 44.2856 20.5923Z"/>
<path id="path1_fill" d="M 251 127C 251 197.14 194.812 254 125.5 254C 56.1883 254 0 197.14 0 127C 0 56.8598 56.1883 0 125.5 0C 194.812 0 251 56.8598 251 127Z"/>
<path id="path2_stroke_2x" d="M 250 127C 250 196.599 194.248 253 125.5 253L 125.5 255C 195.375 255 252 197.681 252 127L 250 127ZM 125.5 253C 56.7517 253 1 196.599 1 127L -1 127C -1 197.681 55.6248 255 125.5 255L 125.5 253ZM 1 127C 1 57.4009 56.7517 1 125.5 1L 125.5 -1C 55.6248 -1 -1 56.3188 -1 127L 1 127ZM 125.5 1C 194.248 1 250 57.4009 250 127L 252 127C 252 56.3188 195.375 -1 125.5 -1L 125.5 1Z"/>
</defs>
</svg>
