<?xml version="1.0" encoding="utf-8"?>
<!-- Generator: Adobe Illustrator 21.0.0, SVG Export Plug-In . SVG Version: 6.00 Build 0)  -->
<svg version="1.1" id="Layer_1" xmlns="http://www.w3.org/2000/svg" xmlns:xlink="http://www.w3.org/1999/xlink" x="0px" y="0px"
	 viewBox="0 0 163.9 163.9" style="enable-background:new 0 0 163.9 163.9;" xml:space="preserve">
<style type="text/css">
	.st0{fill:#174DA1;}
	.st1{fill:#FFFFFF;}
</style>
<path class="st0" d="M143.9,163.9H20c-11.1,0-20-9-20-20V20C0,8.9,9,0,20,0h123.9c11.1,0,20,9,20,20v123.9
	C164,155,155,163.9,143.9,163.9z"/>
<g>
	<path class="st1" d="M37.3,60.9c5.1,3.1,5.6,9.3,3.9,13.8c-1.7,4.6-5.4,6.6-10,6.8c-4.6,0.2-9.3,0.1-13.9,0c-3,0-5.3-2.3-5.3-5.3
		c0-9.6-0.1-19.2,0-28.8c0-3.1,2.2-5.5,5.4-5.5c4.8-0.1,9.6-0.3,14.4,0.2c9,1,11.3,11,7.6,16.5C38.8,59.5,38,60.2,37.3,60.9z
		 M20.4,73.2c3.5,0,6.9,0.2,10.2-0.1c2-0.1,3-1.7,3-3.9c0-2.2-1-3.7-3-3.9c-2.7-0.3-5.4-0.2-8.1-0.2c-0.7,0-1.4,0-2.1,0
		C20.4,68,20.4,70.6,20.4,73.2z M20.4,50.4c0,2.1,0,4.3,0,6.4c0,0.2,0,0.3,0.1,0.6c1.8,0,3.6,0,5.4,0c1.4,0,2.9,0,4.3-0.2
		c1.7-0.3,2.6-1.6,2.5-3.4c0-1.9-0.8-3.2-2.6-3.3C26.9,50.3,23.7,50.4,20.4,50.4z"/>
	<path class="st1" d="M91.5,54c0,1.7,0,3,0,4.3c0,6.4,0,12.7,0,19.1c0,2.4-1.6,4.3-3.8,4.4c-2.4,0.1-4.4-1.8-4.4-4.3
		c0-4.5,0-8.9,0-13.4c0-5.1,0-10.3,0-15.4c0-3.5,1.7-5.9,4.5-6.7c3.1-0.8,6,0.4,7.7,3.6c4.1,7.4,8.1,14.8,12.2,22.2
		c0.2,0.3,0.3,0.6,0.7,0.9c0-0.4,0-0.8,0-1.2c0-7.1,0-14.2,0-21.3c0-1.7,0.7-3.1,2.3-4c1.3-0.7,2.7-0.6,4,0.2c1.3,0.8,2,2,2,3.5
		c0,10.1,0,20.2,0,30.2c0,2.3-1.2,4.2-3.4,5.2c-2.3,1-4.5,0.7-6.4-0.8c-1-0.8-1.8-1.9-2.4-3.1c-4.1-7.3-8-14.7-12-22.1
		C92.1,55,91.9,54.7,91.5,54z"/>
	<path class="st1" d="M121.8,61.6c0-4.6,0-9.3,0-13.9c0-3.7,2.2-5.9,5.9-5.9c3.8,0,7.7-0.1,11.5,0.3c7.8,0.8,12.6,5.3,14.2,13.1
		c1.1,5.2,1.1,10.5-0.6,15.6c-2.1,6.2-6.6,9.8-13.1,10.5c-4.2,0.5-8.5,0.3-12.8,0.3c-2.9,0-5.1-2.5-5.1-5.6
		C121.8,71.2,121.8,66.4,121.8,61.6z M130.3,50.1c0,7.9,0,15.4,0,22.9c2.5,0,5,0.2,7.5,0c4.3-0.5,6.8-2.8,7.5-7
		c0.5-3,0.5-6.1-0.2-9.2c-0.8-3.4-2.8-5.6-6.2-6.2C136.1,50.2,133.2,50.3,130.3,50.1z"/>
	<path class="st1" d="M62.1,70.5c-1.9,0-3.9,0-5.8,0c-0.8,0-1.1,0.3-1.3,1c-0.7,2.4-1.6,4.7-2.4,7.1c-0.8,2.4-3,3.6-5.2,2.9
		c-2.3-0.7-3.5-3.2-2.7-5.6c3.4-9.7,6.8-19.5,10.2-29.2c1.3-3.5,4-5.4,7.5-5.4c3.4,0,6.2,1.9,7.4,5.5c3.4,9.7,6.7,19.3,10.1,29
		c0.7,2.2-0.1,4.5-1.9,5.5c-1.6,0.9-4,0.4-5.2-1.1c-0.4-0.5-0.6-1-0.8-1.6c-0.8-2.3-1.6-4.7-2.3-7.1c-0.3-0.8-0.7-1.1-1.5-1.1
		C66.1,70.5,64.1,70.5,62.1,70.5z M57.8,62.7c3,0,5.8,0,8.7,0c-1.4-4.2-2.8-8.3-4.2-12.4c-0.1,0-0.3,0-0.4,0
		C60.6,54.4,59.2,58.5,57.8,62.7z"/>
</g>
<rect x="0.1" y="108.2" class="st1" width="163.9" height="26.6"/>
</svg>
