<?xml version="1.0" encoding="utf-8"?>
<!-- Generator: Adobe Illustrator 21.0.0, SVG Export Plug-In . SVG Version: 6.00 Build 0)  -->
<svg version="1.1" id="Layer_1" xmlns="http://www.w3.org/2000/svg" xmlns:xlink="http://www.w3.org/1999/xlink" x="0px" y="0px"
	 viewBox="0 0 524.5 69.8" style="enable-background:new 0 0 524.5 69.8;" xml:space="preserve">
<style type="text/css">
	.st0{fill:#161616;}
	.st1{fill:#005671;}
	.st2{fill:url(#SVGID_1_);}
</style>
<polygon class="st0" points="111,28.5 133.5,2.1 109.3,2.1 90.8,25.3 90.8,2.1 69.4,2.1 69.4,68.4 90.8,68.4 90.8,52.3 96.6,45.4 
	96.6,45.4 110,69 135.1,69 "/>
<polygon class="st0" points="378.8,28.5 401.3,2.1 377,2.1 358.5,25.3 358.5,2.1 337.1,2.1 337.1,68.4 358.5,68.4 358.5,52.3 
	364.3,45.4 364.3,45.4 377.8,69 402.9,69 "/>
<path class="st0" d="M184,46.6c0,0,9.6-2.6,9.6-21.6s-17-22.3-19.3-22.3s-38.1,0-38.1,0V69h21.1V51.3h7.5l7.9,17.8h24L184,46.6z
	 M169.4,34.4h-12.3V19h12c0,0,4.9,0.9,4.9,7.7S169.4,34.4,169.4,34.4z"/>
<polygon class="st0" points="266.1,2.8 209.6,2.8 209.6,19.3 227.5,19.3 227.5,69 248.3,69 248.3,19.3 266.1,19.3 "/>
<path class="st0" d="M300.3,0c-19.3,0-34.9,15.6-34.9,34.9s15.6,34.9,34.9,34.9s34.9-15.6,34.9-34.9S319.5,0,300.3,0z M299.9,51.6
	c-7.5,0-13.5-7.3-13.5-16.3s6-16.3,13.5-16.3s13.5,7.3,13.5,16.3S307.3,51.6,299.9,51.6z"/>
<polygon class="st0" points="457.8,19 457.8,2.1 424.8,2.1 423.9,2.1 404.1,2.1 404.1,69 423.9,69 424.8,69 457.8,69 457.8,52.1 
	424.8,52.1 424.8,43.6 455,43.6 455,26.8 424.8,26.8 424.8,19 "/>
<polygon class="st0" points="524.5,2.1 505.6,2.1 505.6,35.4 482,4 482,4 480.6,2.1 463.1,2.1 463.1,69 482,69 482,35.4 505.6,66.7 
	505.6,66.7 505.7,66.8 507.3,69 507.4,69 524.5,69 "/>
<rect y="2.1" class="st1" width="19.3" height="65.1"/>
<polygon class="st1" points="52.9,67.3 32.5,67.3 17.1,35.6 37.5,35.6 "/>
<linearGradient id="SVGID_1_" gradientUnits="userSpaceOnUse" x1="27" y1="67.25" x2="27" y2="2.75">
	<stop  offset="0" style="stop-color:#00BDD2"/>
	<stop  offset="1" style="stop-color:#D2E2DA"/>
</linearGradient>
<polygon class="st2" points="52.9,2.8 32.5,2.8 1.1,67.3 21.5,67.3 "/>
</svg>
