<?xml version="1.0" encoding="utf-8"?>
<!-- Generator: Adobe Illustrator 21.0.0, SVG Export Plug-In . SVG Version: 6.00 Build 0)  -->
<svg version="1.1" id="Layer_1" xmlns="http://www.w3.org/2000/svg" xmlns:xlink="http://www.w3.org/1999/xlink" x="0px" y="0px"
	 viewBox="0 0 163.9 163.9" style="enable-background:new 0 0 163.9 163.9;" xml:space="preserve">
<style type="text/css">
	.st0{fill:#191919;}
	.st1{fill:#FFFFFF;}
	.st2{fill:#FEFEFD;}
</style>
<path class="st0" d="M143.9,163.9H20c-11.1,0-20-9-20-20V20C0,8.9,9,0,20,0h123.9c11.1,0,20,9,20,20v123.9
	C164,155,155,163.9,143.9,163.9z"/>
<g>
	<path class="st1" d="M13.3,71.2c0.4-2.2,0.6-4.5,1.2-6.7c0.6-2.4,1.4-4.7,2.3-7c1.7-4.1,4-7.9,6.7-11.4c2.3-2.9,4.8-5.7,7.8-8.1
		c1.8-1.5,3.6-3,5.5-4.4c3.3-2.4,6.9-4.2,10.5-6c2.1-1.1,4.3-2.1,6.5-2.8c5.1-1.6,10.3-3.1,15.6-3.8c3.9-0.5,7.8-0.9,11.7-0.9
		c2.8,0,5.6,0.1,8.4,0.4c3,0.3,6.1,0.6,9.1,1.2c5,1,9.9,2.4,14.7,4.3c4.7,1.9,9.1,4.1,13.2,6.9c5.1,3.4,9.7,7.4,13.6,12.2
		c4.3,5.3,7.5,11.3,9.3,17.9c1.2,4.7,1.7,9.4,1.4,14.3c-0.5,6.2-2.1,12.1-5,17.6c-1.7,3.3-3.8,6.4-6.2,9.2c-1.7,2-3.5,3.9-5.4,5.7
		c-5.4,4.9-11.5,8.8-18.2,11.8c-2.6,1.2-5.3,2-8,3c-2.2,0.8-4.5,1.2-6.8,1.9c-1.6,0.6-3.5,0.6-5.2,0.9c-5.4,1-10.9,1.1-16.4,1
		c-2.3,0-4.7-0.2-7-0.5c-1.7-0.3-3.1,0-4.6,1.1c-3,2.2-6.2,4.3-9.3,6.4c-5.3,3.7-10.7,7.4-16.3,10.7c-0.4,0.3-0.9,0.5-1.3,0.6
		c-0.7,0.2-1.4,0.3-2-0.2s-0.6-1.2-0.4-2c0.7-2.5,1.4-5,2-7.5c0.6-2.1,1.1-4.2,1.7-6.3c1-3.3,1.9-6.6,2.9-9.8
		c0.2-0.5,0.1-0.8-0.4-1.1c-1.2-0.6-2.3-1.3-3.5-2c-3.1-1.8-5.9-3.8-8.8-6c-1.5-1.1-2.8-2.4-4.2-3.7c-2.9-2.7-5.3-5.8-7.5-9.1
		c-3.1-4.8-5.4-9.9-6.7-15.5c-0.4-2-0.8-3.9-0.9-5.9c0-0.7-0.5-1.3-0.3-2C13.4,74.4,13.3,72.8,13.3,71.2z M115.1,70.7
		c-0.1-0.1-0.2-0.1-0.3-0.2c0-0.3,0-0.6,0-0.9c0-2.3,0-4.6,0-6.9c0-2.5-1.5-4.1-3.8-4.4c-2-0.2-4.1,1.8-4.1,4c0,3.8,0,7.7,0,11.5
		c0,5.2,0,10.3,0,15.5c0,2,1.1,3.5,2.8,4c2.6,0.7,5-1,5.1-3.7c0.1-2.6,0.1-5.3,0-7.9c0-0.9,0.7-1.3,1-2c0.1-0.2,0.4-0.1,0.5,0.1
		c0.2,0.3,0.4,0.5,0.7,0.8c2.8,3.7,5.6,7.4,8.4,11.1c1.7,2.2,4.2,1.9,5.6,0.9c1.7-1.3,2.1-3.9,0.7-5.7c-1.3-1.6-2.5-3.3-3.8-5
		c-1.8-2.4-3.6-4.8-5.4-7.1c-0.4-0.5-0.5-0.8,0.1-1.3c0.9-0.9,1.7-1.8,2.6-2.6c1.7-1.6,3.4-3.4,5.1-5c0.9-0.9,1.6-1.8,1.5-3.2
		c0-1.3-0.7-2.7-2-3.3c-1-0.5-3.2-0.2-3.9,0.5c-1.9,1.9-3.8,3.8-5.6,5.7C118.5,67.1,116.8,68.9,115.1,70.7z M82.8,89.8
		c0.1-0.8-0.1-1.8-0.5-2.7c-1-2.6-1.9-5.2-3-7.8c-1.5-3.7-2.8-7.5-4.3-11.2c-0.8-1.9-1.4-3.9-2.2-5.8c-1-2.7-4.1-4.4-6.5-3.6
		c-2.1,0.7-3.5,2.2-4.3,4.3c-2.8,7.5-5.7,15-8.5,22.5c-0.5,1.2-1,2.4-1.2,3.7c-0.2,1.4-0.3,2.9,1.1,3.7c1.3,0.8,2.7,1,4.2,0.6
		c1.1-0.3,1.8-1,2.2-2.1c0.4-1.3,1-2.6,1.4-3.9c0.2-0.6,0.6-0.8,1.2-0.8c3.2,0,6.3,0,9.5,0c1.8,0,1.7,0,2.3,1.7
		c0.5,1.3,0.9,2.7,1.6,3.9c0.7,1.3,2.9,1.7,4.7,1.1C82.4,92.6,82.8,92,82.8,89.8z M48.1,78.3c0-3.7,0-7.5,0-11.2c0-0.8,0.2-1,1-1
		c1.7,0.1,3.3,0.1,5,0c2.4-0.1,4.1-1.8,4.1-3.9c0-2.2-2-3.9-4.2-3.9c-6.6,0.1-13.1,0-19.7,0c-0.8,0-1.5,0.1-2.1,0.5
		c-1.5,0.9-2.4,2.6-2,4.2c0.4,1.8,1.8,3,3.9,3.1c1.6,0.1,3.2,0.1,4.9,0c1.1-0.1,1.3,0.3,1.3,1.3c0,7.2,0,14.4,0,21.6
		c0,0.8,0,1.6,0.4,2.4c0.9,1.6,2.7,2.4,4.5,2c1.9-0.5,3-1.9,3.1-3.9C48.1,85.7,48.1,82,48.1,78.3z M93.1,73.6c0-1,0-1.9,0-2.9
		c0-2.8,0-5.6,0-8.4c0-2.5-2.1-4.4-4.5-4.1C86.4,58.5,85,60,85,62.4c0,6.6,0,13.1,0,19.7c0,2.3,0,4.5,0,6.8c0,1.3,0.6,2.4,1.4,3.3
		c0.6,0.6,1.7,0.6,2.7,0.6c2.5,0,4.9,0,7.4,0c1.8,0,3.5,0,5.3,0c1.9,0,3.9-1.7,3.4-4.5c-0.3-1.7-1.7-2.7-3.5-2.7c-2.5,0-4.9,0-7.4,0
		c-0.8,0-1.1-0.2-1.1-1C93.1,80.9,93.1,77.3,93.1,73.6z"/>
	<path class="st2" d="M13.3,71.2c0.1,1.6,0.1,3.2-0.1,4.8C13.2,74.4,13.3,72.8,13.3,71.2z"/>
	<path class="st0" d="M115.1,70.7c1.7-1.8,3.4-3.5,5.1-5.3c1.9-1.9,3.8-3.8,5.6-5.7c0.7-0.7,2.9-0.9,3.9-0.5c1.3,0.7,2,2,2,3.3
		c0,1.4-0.6,2.3-1.5,3.2c-1.7,1.6-3.4,3.3-5.1,5c-0.9,0.8-1.7,1.8-2.6,2.6c-0.5,0.5-0.4,0.8-0.1,1.3c1.8,2.4,3.6,4.7,5.4,7.1
		c1.3,1.7,2.5,3.4,3.8,5c1.4,1.8,1,4.4-0.7,5.7c-1.4,1.1-3.9,1.4-5.6-0.9c-2.8-3.7-5.6-7.4-8.4-11.1c-0.2-0.3-0.4-0.6-0.7-0.8
		c-0.1-0.2-0.4-0.3-0.5-0.1c-0.3,0.6-1.1,1-1,2c0.1,2.6,0.1,5.3,0,7.9c-0.1,2.7-2.4,4.4-5.1,3.7c-1.7-0.4-2.8-2-2.8-4
		c0-5.2,0-10.3,0-15.5c0-3.8,0-7.7,0-11.5c0-2.2,2.1-4.2,4.1-4c2.4,0.2,3.8,1.8,3.8,4.4c0,2.3,0,4.6,0,6.9c0,0.3,0,0.6,0,0.9
		C114.9,70.6,115,70.6,115.1,70.7z"/>
	<path class="st0" d="M82.8,89.8c0,2.3-0.4,2.8-2.2,3.4c-1.8,0.6-4,0.2-4.7-1.1c-0.7-1.2-1.1-2.6-1.6-3.9c-0.6-1.7-0.5-1.7-2.3-1.7
		c-3.2,0-6.3,0-9.5,0c-0.7,0-1,0.2-1.2,0.8c-0.4,1.3-1,2.6-1.4,3.9c-0.4,1.1-1.1,1.7-2.2,2.1c-1.5,0.4-2.9,0.2-4.2-0.6
		c-1.4-0.9-1.2-2.3-1.1-3.7c0.2-1.3,0.7-2.5,1.2-3.7c2.8-7.5,5.7-15,8.5-22.5c0.8-2.1,2.2-3.6,4.3-4.3c2.4-0.8,5.5,0.9,6.5,3.6
		c0.7,1.9,1.4,3.9,2.2,5.8c1.5,3.7,2.8,7.5,4.3,11.2c1,2.6,2,5.2,3,7.8C82.7,88,82.9,88.9,82.8,89.8z M67.6,68.2
		c-0.5,1.3-0.9,2.4-1.2,3.5c-0.8,2.3-1.6,4.6-2.4,6.9c-0.1,0.3-0.4,0.8,0.3,0.8c2.4-0.1,4.8,0.3,7.3,0C70.2,75.7,69,72.1,67.6,68.2z
		"/>
	<path class="st0" d="M48.1,78.3c0,3.7,0,7.4,0,11.1c0,2-1.2,3.5-3.1,3.9c-1.7,0.4-3.6-0.4-4.5-2c-0.4-0.7-0.4-1.5-0.4-2.4
		c0-7.2,0-14.4,0-21.6c0-1-0.2-1.4-1.3-1.3c-1.6,0.1-3.2,0.1-4.9,0c-2-0.1-3.5-1.3-3.9-3.1c-0.4-1.6,0.5-3.3,2-4.2
		c0.7-0.4,1.4-0.5,2.1-0.5c6.6,0,13.1,0,19.7,0c2.3,0,4.2,1.7,4.2,3.9c0,2.2-1.7,3.9-4.1,3.9c-1.7,0-3.3,0.1-5,0c-0.8,0-1,0.2-1,1
		C48.1,70.8,48.1,74.6,48.1,78.3z"/>
	<path class="st0" d="M93.1,73.6c0,3.7,0,7.3,0,11c0,0.8,0.3,1.1,1.1,1c2.5-0.1,4.9,0,7.4,0c1.9,0,3.2,1,3.5,2.7
		c0.6,2.9-1.5,4.5-3.4,4.5c-1.8,0-3.5,0-5.3,0c-2.5,0-4.9,0-7.4,0c-0.9,0-2.1,0-2.7-0.6c-0.8-0.8-1.4-1.9-1.4-3.3
		c0.1-2.3,0-4.5,0-6.8c0-6.6,0-13.1,0-19.7c0-2.3,1.5-3.8,3.6-4.2c2.4-0.4,4.4,1.6,4.5,4.1c0.1,2.8,0,5.6,0,8.4
		C93.1,71.7,93.1,72.6,93.1,73.6z"/>
	<path class="st1" d="M67.6,68.2c1.4,3.9,2.6,7.5,3.9,11.2c-2.5,0.3-4.9-0.1-7.3,0c-0.7,0-0.4-0.5-0.3-0.8c0.8-2.3,1.6-4.6,2.4-6.9
		C66.7,70.7,67.1,69.6,67.6,68.2z"/>
</g>
</svg>
