<?xml version="1.0" encoding="utf-8"?>
<!-- Generator: Adobe Illustrator 21.1.0, SVG Export Plug-In . SVG Version: 6.00 Build 0)  -->
<svg version="1.1" id="Слой_1" xmlns="http://www.w3.org/2000/svg" xmlns:xlink="http://www.w3.org/1999/xlink" x="0px" y="0px"
	 viewBox="0 0 399.3 110.5" style="enable-background:new 0 0 399.3 110.5;" xml:space="preserve">
<style type="text/css">
	.st0{fill:#E5332D;}
	.st1{fill:#E5332C;}
</style>
<g>
	<path d="M136.8,70.4c0,0-2,2-5.7,2c-4.7,0-8.6-3.1-8.6-7.9V53.3h-4.8v-4.7h2.4c1.7,0,2.7-1.1,2.7-2.8V41h5.8v7.2h6.1v5.1h-6.1v10.7
		c0,1.7,1.4,2.8,3.1,2.8c1.4,0,2.8-0.8,2.8-0.8L136.8,70.4z M138.9,41.5c0-2.3,1.8-4.1,4.1-4.1s4.1,1.8,4.1,4.1
		c0,2.1-1.8,4.1-4.1,4.1C140.7,45.4,138.9,43.6,138.9,41.5z M146.1,72.1h-6.2v-24h6.2V72.1z M174.7,62h-17.5
		c0.7,3.7,3.7,4.9,6.4,4.9c3.3,0,4.7-2,4.7-2h6.1c-1.8,4.8-6.2,7.5-10.9,7.5c-6.5,0-12.2-4.9-12.2-12.4s5.7-12,12-12
		C169.2,48,175.4,52.2,174.7,62z M157.4,57.2h10.7c-0.7-2.8-2.7-4-5.1-4C160.5,53.2,158.4,54.6,157.4,57.2z M188.2,53.1
		c-2,0-2.8,1-2.8,2c0,1.7,2.1,2.1,3.5,2.4c4.2,0.8,8.6,2.3,8.6,7.4c0,4.9-4.1,7.6-9,7.6c-5.5,0-9.8-3.4-10-8.5h5.9
		c0.1,1.4,1.1,3.3,4.1,3.3c2.4,0,3-1.3,3-2.3c0-1.8-1.7-2.3-3.3-2.7c-2.8-0.6-8.9-1.8-8.9-7.2c0-4.7,4.5-7.1,9.2-7.1
		c5.4,0,8.9,3.3,9.2,7.4h-6.1C191.5,54.5,190.6,53.1,188.2,53.1z"/>
	<path class="st0" d="M201,68.6c0-2.1,1.7-3.8,3.8-3.8s3.8,1.7,3.8,3.8s-1.7,3.8-3.8,3.8C202.8,72.4,201,70.7,201,68.6z"/>
	<path d="M238.6,59.1v13h-6.4V60.5c0-0.8,0.6-6.9-4.1-7.1c-2.3-0.1-6.4,1.1-6.4,7.4v11.3h-6.4v-24h4.9l0.8,3h0.8
		c1-1.1,3.3-3.1,7.4-3.1C235.6,48,238.6,52.5,238.6,59.1L238.6,59.1z M266.8,62h-17.5c0.7,3.7,3.7,4.9,6.4,4.9c3.3,0,4.7-2,4.7-2
		h6.1c-1.8,4.8-6.2,7.5-10.9,7.5c-6.5,0-12.2-4.9-12.2-12.4s5.7-12,12-12C261.3,48,267.5,52.2,266.8,62L266.8,62z M249.6,57.2h10.7
		c-0.7-2.8-2.7-4-5.1-4C252.7,53.2,250.6,54.6,249.6,57.2z M288,70.4c0,0-2,2-5.7,2c-4.7,0-8.6-3.1-8.6-7.9V53.3H269v-4.7h2.4
		c1.7,0,2.7-1.1,2.7-2.8V41h5.8v7.2h6.1v5.1h-6.1v10.7c0,1.7,1.4,2.8,3.1,2.8c1.4,0,2.8-0.8,2.8-0.8L288,70.4z M325.6,48.1l-5.7,24
		h-8.5l-3.3-14h-0.7l-3.3,14h-8.5l-5.7-24h6.2l3.7,16.8h0.8l3.3-14.8h7.6l3.4,14.8h0.7l3.7-16.8L325.6,48.1z M328,60.3
		c0-7.6,5.9-12.3,12.4-12.3s12.2,4.7,12.2,12.2c0,7.6-5.8,12.3-12.3,12.3C333.7,72.4,328,67.8,328,60.3L328,60.3z M346.3,60.1
		c0-3.8-2.3-6.6-5.8-6.6c-3.7,0-6.1,3-6.1,6.6c0,3.8,2.4,6.6,6.1,6.6C344,66.9,346.3,63.9,346.3,60.1z M372.4,48v6.2
		c-0.4-0.1-1.3-0.1-2.1-0.1c-3.4,0-6.9,1.7-6.9,6.2v12.2H357v-24h4.9l0.8,2.7h0.7c1-1,3.4-2.8,7.4-2.8h1.6L372.4,48z M389.7,58.4
		l9.5,13.9h-6.8l-6.6-9.5l-2.4,2.5h-0.1v6.9h-6.1V38.1h6.1v18.2h1l7.8-8.2h7.4L389.7,58.4z"/>
	<polygon class="st1" points="95.7,27.6 48,0.1 47.8,0 19,16.7 66.8,44.3 66.8,92.3 48.2,103 48.2,55 0.5,27.5 0.3,27.4 0,27.6 
		0,79.7 6.3,79.7 6.3,38.1 41.9,58.6 41.9,107 47.7,110.4 47.8,110.5 73.1,95.9 73.1,40.7 31.6,16.7 47.8,7.3 89.4,31.3 89.4,79.7 
		95.7,79.7 95.7,27.8 	"/>
</g>
</svg>
