<svg width="252" height="224" viewBox="0 0 252 224" version="1.1" xmlns="http://www.w3.org/2000/svg" xmlns:xlink="http://www.w3.org/1999/xlink">
<title>Group</title>
<desc>Created using Figma</desc>
<g id="Canvas" transform="translate(-5193 -1469)">
<g id="Group">
<g id="Vector">
<use xlink:href="#path0_stroke" transform="translate(5293.03 1581)" fill="#E6E7E8"/>
</g>
<g id="Vector">
<use xlink:href="#path1_stroke" transform="translate(5319.03 1581)" fill="#E6E7E8"/>
</g>
<g id="Vector">
<use xlink:href="#path2_stroke" transform="translate(5267.02 1581)" fill="#E6E7E8"/>
</g>
<g id="Vector">
<use xlink:href="#path3_stroke" transform="translate(5293.03 1534.83)" fill="#E6E7E8"/>
</g>
<g id="Vector">
<use xlink:href="#path4_stroke" transform="translate(5319.03 1534.83)" fill="#E6E7E8"/>
</g>
<g id="Vector">
<use xlink:href="#path5_stroke" transform="translate(5267.02 1534.83)" fill="#E6E7E8"/>
</g>
<g id="Vector">
<use xlink:href="#path3_stroke" transform="translate(5293.03 1627.17)" fill="#E6E7E8"/>
</g>
<g id="Vector">
<use xlink:href="#path4_stroke" transform="translate(5319.03 1627.17)" fill="#E6E7E8"/>
</g>
<g id="Vector">
<use xlink:href="#path5_stroke" transform="translate(5267.02 1627.17)" fill="#E6E7E8"/>
</g>
<g id="Vector">
<use xlink:href="#path6_stroke" transform="translate(5345.03 1627.17)" fill="#E6E7E8"/>
</g>
<g id="Vector">
<use xlink:href="#path7_stroke" transform="translate(5371.04 1581)" fill="#E6E7E8"/>
</g>
<g id="Vector">
<use xlink:href="#path8_stroke" transform="translate(5345.03 1581)" fill="#E6E7E8"/>
</g>
<g id="Vector">
<use xlink:href="#path9_stroke" transform="translate(5371.04 1534.83)" fill="#E6E7E8"/>
</g>
<g id="Vector">
<use xlink:href="#path10_stroke" transform="translate(5345.03 1517.47)" fill="#E6E7E8"/>
</g>
<g id="Vector">
<use xlink:href="#path11_stroke" transform="translate(5371.04 1563.64)" fill="#E6E7E8"/>
</g>
<g id="Vector">
<use xlink:href="#path12_stroke" transform="translate(5345.03 1609.57)" fill="#E6E7E8"/>
</g>
<g id="Vector">
<use xlink:href="#path12_stroke" transform="translate(5345.03 1609.57)" fill="#E6E7E8"/>
</g>
<g id="Vector">
<use xlink:href="#path13_stroke" transform="translate(5319.03 1627.17)" fill="#E6E7E8"/>
</g>
<g id="Vector">
<use xlink:href="#path14_stroke" transform="translate(5345.03 1580.94)" fill="#E6E7E8"/>
</g>
<g id="Vector">
<use xlink:href="#path15_stroke" transform="translate(5319.03 1471.29)" fill="#E6E7E8"/>
</g>
<g id="Vector">
<use xlink:href="#path16_stroke" transform="translate(5293.03 1470)" fill="#E6E7E8"/>
</g>
<g id="Vector">
<use xlink:href="#path17_stroke" transform="translate(5241.02 1470)" fill="#E6E7E8"/>
</g>
<g id="Vector">
<use xlink:href="#path18_stroke" transform="translate(5345.03 1470)" fill="#E6E7E8"/>
</g>
<g id="Vector">
<use xlink:href="#path19_stroke" transform="translate(5293.03 1627.17)" fill="#E6E7E8"/>
</g>
<g id="Vector">
<use xlink:href="#path20_stroke" transform="translate(5241.02 1627.17)" fill="#E6E7E8"/>
</g>
<g id="Vector">
<use xlink:href="#path21_stroke" transform="translate(5345.03 1627.17)" fill="#E6E7E8"/>
</g>
<g id="Vector">
<use xlink:href="#path22_stroke" transform="translate(5246.01 1471.29)" fill="#E6E7E8"/>
</g>
<g id="Vector">
<use xlink:href="#path23_stroke" transform="translate(5220 1517.47)" fill="#E6E7E8"/>
</g>
<g id="Vector">
<use xlink:href="#path24_stroke" transform="translate(5194 1534.83)" fill="#E6E7E8"/>
</g>
<g id="Vector">
<use xlink:href="#path25_stroke" transform="translate(5220 1580.94)" fill="#E6E7E8"/>
</g>
<g id="Vector">
<use xlink:href="#path26_stroke" transform="translate(5246.01 1627.17)" fill="#E6E7E8"/>
</g>
<g id="Vector">
<use xlink:href="#path27_stroke" transform="translate(5194 1563.64)" fill="#E6E7E8"/>
</g>
<g id="Vector">
<use xlink:href="#path28_stroke" transform="translate(5220 1609.57)" fill="#E6E7E8"/>
</g>
<g id="Vector">
<use xlink:href="#path8_stroke" transform="translate(5345.03 1488.65)" fill="#E6E7E8"/>
</g>
<g id="Vector">
<use xlink:href="#path29_stroke" transform="translate(5215.02 1534.83)" fill="#E6E7E8"/>
</g>
<g id="Vector">
<use xlink:href="#path30_stroke" transform="translate(5241.02 1534.83)" fill="#E6E7E8"/>
</g>
<g id="Vector">
<use xlink:href="#path31_stroke" transform="translate(5241.02 1488.65)" fill="#E6E7E8"/>
</g>
<g id="Vector">
<use xlink:href="#path30_stroke" transform="translate(5241.02 1627.17)" fill="#E6E7E8"/>
</g>
<g id="Vector">
<use xlink:href="#path32_stroke" transform="translate(5215.02 1581)" fill="#E6E7E8"/>
</g>
<g id="Vector">
<use xlink:href="#path31_stroke" transform="translate(5241.02 1581)" fill="#E6E7E8"/>
</g>
<g id="Vector">
<use xlink:href="#path0_stroke" transform="translate(5293.03 1488.65)" fill="#E6E7E8"/>
</g>
<g id="Vector">
<use xlink:href="#path1_stroke" transform="translate(5319.03 1488.65)" fill="#E6E7E8"/>
</g>
<g id="Vector">
<use xlink:href="#path2_stroke" transform="translate(5267.02 1488.65)" fill="#E6E7E8"/>
</g>
<g id="Vector">
<use xlink:href="#path33_stroke" transform="translate(5195.98 1471.79)" fill="#E6E7E8"/>
</g>
<g id="Vector">
<use xlink:href="#path34_stroke" transform="translate(5215.02 1488.65)" fill="#232C33"/>
</g>
<g id="Vector">
<use xlink:href="#path35_fill" transform="translate(5360.59 1660.91)" fill="#FFFFFF"/>
</g>
<g id="Vector">
<use xlink:href="#path36_fill" transform="translate(5204.57 1570.53)" fill="#FFFFFF"/>
</g>
<g id="Vector">
<use xlink:href="#path37_fill" transform="translate(5360.59 1478.25)" fill="#FFFFFF"/>
</g>
<g id="Vector">
<use xlink:href="#path38_stroke" transform="translate(5365.39 1665.47)" fill="#232C33"/>
</g>
<g id="Vector">
<use xlink:href="#path39_stroke" transform="translate(5209.37 1575.15)" fill="#232C33"/>
</g>
<g id="Vector">
<use xlink:href="#path40_stroke" transform="translate(5365.39 1482.87)" fill="#232C33"/>
</g>
<g id="Vector">
<use xlink:href="#path41_stroke" transform="translate(5313.39 1575.15)" fill="#232C33"/>
</g>
</g>
</g>
<defs>
<path id="path0_stroke" d="M -3.66533e-06 46.173L -0.435668 45.9277L -0.85542 46.673L -3.66533e-06 46.673L -3.66533e-06 46.173ZM 26.0029 0L 26.4385 -0.24535L 26.0029 -1.01895L 25.5672 -0.24535L 26.0029 0ZM 52.0058 46.173L 52.0058 46.673L 52.8612 46.673L 52.4414 45.9277L 52.0058 46.173ZM 0.435661 46.4184L 26.4385 0.24535L 25.5672 -0.24535L -0.435668 45.9277L 0.435661 46.4184ZM 25.5672 0.24535L 51.5701 46.4184L 52.4414 45.9277L 26.4385 -0.24535L 25.5672 0.24535ZM 52.0058 45.673L -3.66533e-06 45.673L -3.66533e-06 46.673L 52.0058 46.673L 52.0058 45.673Z"/>
<path id="path1_stroke" d="M 52.0058 0L 52.4414 0.245349L 52.8612 -0.5L 52.0058 -0.5L 52.0058 0ZM 26.0029 46.173L 25.5672 46.4184L 26.0029 47.192L 26.4385 46.4184L 26.0029 46.173ZM -1.83267e-06 0L -1.83267e-06 -0.5L -0.855419 -0.5L -0.435666 0.24535L -1.83267e-06 0ZM 51.5701 -0.245349L 25.5672 45.9277L 26.4385 46.4184L 52.4414 0.245349L 51.5701 -0.245349ZM 26.4385 45.9277L 0.435663 -0.24535L -0.435666 0.24535L 25.5672 46.4184L 26.4385 45.9277ZM -1.83267e-06 0.5L 52.0058 0.5L 52.0058 -0.5L -1.83267e-06 -0.5L -1.83267e-06 0.5Z"/>
<path id="path2_stroke" d="M 52.0058 0L 52.4414 0.24535L 52.8612 -0.5L 52.0058 -0.5L 52.0058 0ZM 26.0029 46.173L 25.5672 46.4184L 26.0029 47.192L 26.4385 46.4184L 26.0029 46.173ZM -9.16334e-07 0L -9.16334e-07 -0.5L -0.855418 -0.5L -0.435665 0.24535L -9.16334e-07 0ZM 51.5701 -0.24535L 25.5672 45.9277L 26.4385 46.4184L 52.4414 0.24535L 51.5701 -0.24535ZM 26.4385 45.9277L 0.435664 -0.24535L -0.435665 0.24535L 25.5672 46.4184L 26.4385 45.9277ZM -9.16334e-07 0.5L 52.0058 0.5L 52.0058 -0.5L -9.16334e-07 -0.5L -9.16334e-07 0.5Z"/>
<path id="path3_stroke" d="M 52.0058 0L 52.4414 0.24535L 52.8612 -0.5L 52.0058 -0.5L 52.0058 0ZM 26.0029 46.173L 25.5672 46.4184L 26.0029 47.192L 26.4385 46.4184L 26.0029 46.173ZM -3.66533e-06 0L -3.66533e-06 -0.5L -0.85542 -0.5L -0.435668 0.24535L -3.66533e-06 0ZM 51.5701 -0.24535L 25.5672 45.9277L 26.4385 46.4184L 52.4414 0.24535L 51.5701 -0.24535ZM 26.4385 45.9277L 0.435661 -0.24535L -0.435668 0.24535L 25.5672 46.4184L 26.4385 45.9277ZM -3.66533e-06 0.5L 52.0058 0.5L 52.0058 -0.5L -3.66533e-06 -0.5L -3.66533e-06 0.5Z"/>
<path id="path4_stroke" d="M -1.83267e-06 46.173L -0.435666 45.9277L -0.855419 46.673L -1.83267e-06 46.673L -1.83267e-06 46.173ZM 26.0029 0L 26.4385 -0.245349L 26.0029 -1.01895L 25.5672 -0.24535L 26.0029 0ZM 52.0058 46.173L 52.0058 46.673L 52.8612 46.673L 52.4414 45.9277L 52.0058 46.173ZM 0.435663 46.4184L 26.4385 0.24535L 25.5672 -0.24535L -0.435666 45.9277L 0.435663 46.4184ZM 25.5672 0.245349L 51.5701 46.4184L 52.4414 45.9277L 26.4385 -0.245349L 25.5672 0.245349ZM 52.0058 45.673L -1.83267e-06 45.673L -1.83267e-06 46.673L 52.0058 46.673L 52.0058 45.673Z"/>
<path id="path5_stroke" d="M -9.16334e-07 46.173L -0.435665 45.9277L -0.855418 46.673L -9.16334e-07 46.673L -9.16334e-07 46.173ZM 26.0029 0L 26.4385 -0.24535L 26.0029 -1.01895L 25.5672 -0.24535L 26.0029 0ZM 52.0058 46.173L 52.0058 46.673L 52.8612 46.673L 52.4414 45.9277L 52.0058 46.173ZM 0.435664 46.4184L 26.4385 0.24535L 25.5672 -0.24535L -0.435665 45.9277L 0.435664 46.4184ZM 25.5672 0.24535L 51.5701 46.4184L 52.4414 45.9277L 26.4385 -0.24535L 25.5672 0.24535ZM 52.0058 45.673L -9.16334e-07 45.673L -9.16334e-07 46.673L 52.0058 46.673L 52.0058 45.673Z"/>
<path id="path6_stroke" d="M 52.0058 0L 52.4414 0.24535L 52.8612 -0.5L 52.0058 -0.5L 52.0058 0ZM 26.0029 46.173L 25.5672 46.4184L 26.0029 47.192L 26.4385 46.4184L 26.0029 46.173ZM 0 0L 0 -0.5L -0.855417 -0.5L -0.435665 0.245349L 0 0ZM 51.5701 -0.24535L 25.5672 45.9277L 26.4385 46.4184L 52.4414 0.24535L 51.5701 -0.24535ZM 26.4385 45.9277L 0.435665 -0.245349L -0.435665 0.245349L 25.5672 46.4184L 26.4385 45.9277ZM 0 0.5L 52.0058 0.5L 52.0058 -0.5L 0 -0.5L 0 0.5Z"/>
<path id="path7_stroke" d="M 52.0058 0L 52.4414 0.245349L 52.8612 -0.5L 52.0058 -0.5L 52.0058 0ZM 26.0029 46.173L 25.5672 46.4184L 26.0029 47.192L 26.4386 46.4184L 26.0029 46.173ZM -7.33067e-06 0L -7.33067e-06 -0.5L -0.855424 -0.5L -0.435672 0.24535L -7.33067e-06 0ZM 51.5701 -0.245349L 25.5672 45.9277L 26.4386 46.4184L 52.4414 0.245349L 51.5701 -0.245349ZM 26.4386 45.9277L 0.435657 -0.24535L -0.435672 0.24535L 25.5672 46.4184L 26.4386 45.9277ZM -7.33067e-06 0.5L 52.0058 0.5L 52.0058 -0.5L -7.33067e-06 -0.5L -7.33067e-06 0.5Z"/>
<path id="path8_stroke" d="M 0 46.173L -0.435665 45.9277L -0.855417 46.673L 0 46.673L 0 46.173ZM 26.0029 0L 26.4385 -0.24535L 26.0029 -1.01895L 25.5672 -0.245349L 26.0029 0ZM 52.0058 46.173L 52.0058 46.673L 52.8612 46.673L 52.4414 45.9277L 52.0058 46.173ZM 0.435665 46.4184L 26.4385 0.245349L 25.5672 -0.245349L -0.435665 45.9277L 0.435665 46.4184ZM 25.5672 0.24535L 51.5701 46.4184L 52.4414 45.9277L 26.4385 -0.24535L 25.5672 0.24535ZM 52.0058 45.673L 0 45.673L 0 46.673L 52.0058 46.673L 52.0058 45.673Z"/>
<path id="path9_stroke" d="M -7.33067e-06 46.173L -0.435672 45.9277L -0.855424 46.673L -7.33067e-06 46.673L -7.33067e-06 46.173ZM 26.0029 0L 26.4386 -0.245349L 26.0029 -1.01895L 25.5672 -0.24535L 26.0029 0ZM 52.0058 46.173L 52.0058 46.673L 52.8612 46.673L 52.4414 45.9277L 52.0058 46.173ZM 0.435657 46.4184L 26.4386 0.24535L 25.5672 -0.24535L -0.435672 45.9277L 0.435657 46.4184ZM 25.5672 0.245349L 51.5701 46.4184L 52.4414 45.9277L 26.4386 -0.245349L 25.5672 0.245349ZM 52.0058 45.673L -7.33067e-06 45.673L -7.33067e-06 46.673L 52.0058 46.673L 52.0058 45.673Z"/>
<path id="path10_stroke" d="M 53.2068 15.391L 52.7716 15.1448L 52.7715 15.145L 53.2068 15.391ZM 26.0029 63.5341L 25.5672 63.7795L 26.0021 64.5518L 26.4382 63.7801L 26.0029 63.5341ZM 0 17.3611L 0 16.8611L -0.855417 16.8611L -0.435665 17.6064L 0 17.3611ZM 61.4793 -0.246207L 52.7716 15.1448L 53.642 15.6372L 62.3497 0.24621L 61.4793 -0.246207ZM 52.7715 15.145L 25.5676 63.2881L 26.4382 63.7801L 53.6421 15.637L 52.7715 15.145ZM 26.4385 63.2888L 0.435665 17.1157L -0.435665 17.6064L 25.5672 63.7795L 26.4385 63.2888ZM 0 17.8611L 72.9642 17.8611L 72.9642 16.8611L 0 16.8611L 0 17.8611Z"/>
<path id="path11_stroke" d="M 53.2068 15.391L 52.7716 15.1448L 52.7715 15.145L 53.2068 15.391ZM 26.0029 63.5341L 25.5672 63.7795L 26.0022 64.5518L 26.4382 63.7801L 26.0029 63.5341ZM -7.33067e-06 17.3611L -7.33067e-06 16.8611L -0.855424 16.8611L -0.435672 17.6064L -7.33067e-06 17.3611ZM 61.4793 -0.246207L 52.7716 15.1448L 53.642 15.6372L 62.3497 0.24621L 61.4793 -0.246207ZM 52.7715 15.145L 25.5676 63.2881L 26.4382 63.7801L 53.6421 15.637L 52.7715 15.145ZM 26.4386 63.2888L 0.435657 17.1157L -0.435672 17.6064L 25.5672 63.7795L 26.4386 63.2888ZM -7.33067e-06 17.8611L 72.9642 17.8611L 72.9642 16.8611L -7.33067e-06 16.8611L -7.33067e-06 17.8611Z"/>
<path id="path12_stroke" d="M 53.2068 15.391L 52.7716 15.1448L 52.7715 15.145L 53.2068 15.391ZM 26.0029 63.5341L 25.5672 63.7795L 26.0021 64.5518L 26.4382 63.7801L 26.0029 63.5341ZM 0 17.3611L 0 16.8611L -0.855417 16.8611L -0.435665 17.6064L 0 17.3611ZM 61.4793 -0.246212L 52.7716 15.1448L 53.642 15.6372L 62.3497 0.246205L 61.4793 -0.246212ZM 52.7715 15.145L 25.5676 63.2881L 26.4382 63.7801L 53.6421 15.637L 52.7715 15.145ZM 26.4385 63.2888L 0.435665 17.1157L -0.435665 17.6064L 25.5672 63.7795L 26.4385 63.2888ZM 0 17.8611L 72.9642 17.8611L 72.9642 16.8611L 0 16.8611L 0 17.8611Z"/>
<path id="path13_stroke" d="M 53.2068 48.1431L 52.7715 48.3891L 52.7716 48.3893L 53.2068 48.1431ZM 26.0029 0L 26.4382 -0.245978L 26.0021 -1.01765L 25.5672 -0.24535L 26.0029 0ZM -1.83267e-06 46.173L -0.435666 45.9277L -0.855419 46.673L -1.83267e-06 46.673L -1.83267e-06 46.173ZM 62.3497 63.2879L 53.642 47.8969L 52.7716 48.3893L 61.4793 63.7803L 62.3497 63.2879ZM 53.6421 47.8971L 26.4382 -0.245978L 25.5676 0.245978L 52.7715 48.3891L 53.6421 47.8971ZM 25.5672 -0.24535L -0.435666 45.9277L 0.435663 46.4184L 26.4385 0.24535L 25.5672 -0.24535ZM -1.83267e-06 46.673L 72.9642 46.673L 72.9642 45.673L -1.83267e-06 45.673L -1.83267e-06 46.673Z"/>
<path id="path14_stroke" d="M 53.2068 48.1431L 52.7715 48.3891L 52.7716 48.3893L 53.2068 48.1431ZM 26.0029 -3.75757e-06L 26.4382 -0.245982L 26.0021 -1.01765L 25.5672 -0.245353L 26.0029 -3.75757e-06ZM 0 46.173L -0.435665 45.9277L -0.855417 46.673L 0 46.673L 0 46.173ZM 62.3497 63.2879L 53.642 47.8969L 52.7716 48.3893L 61.4793 63.7803L 62.3497 63.2879ZM 53.6421 47.8971L 26.4382 -0.245982L 25.5676 0.245974L 52.7715 48.3891L 53.6421 47.8971ZM 25.5672 -0.245353L -0.435665 45.9277L 0.435665 46.4184L 26.4385 0.245346L 25.5672 -0.245353ZM 0 46.673L 72.9642 46.673L 72.9642 45.673L 0 45.673L 0 46.673Z"/>
<path id="path15_stroke" d="M 53.2068 15.391L 52.7716 15.1448L 52.7715 15.145L 53.2068 15.391ZM 26.0029 63.5341L 25.5672 63.7795L 26.0021 64.5518L 26.4382 63.7801L 26.0029 63.5341ZM -1.83267e-06 17.3611L -1.83267e-06 16.8611L -0.855419 16.8611L -0.435666 17.6064L -1.83267e-06 17.3611ZM 61.4793 -0.246209L 52.7716 15.1448L 53.642 15.6372L 62.3497 0.246208L 61.4793 -0.246209ZM 52.7715 15.145L 25.5676 63.2881L 26.4382 63.7801L 53.6421 15.637L 52.7715 15.145ZM 26.4385 63.2888L 0.435663 17.1157L -0.435666 17.6064L 25.5672 63.7795L 26.4385 63.2888ZM -1.83267e-06 17.8611L 72.9642 17.8611L 72.9642 16.8611L -1.83267e-06 16.8611L -1.83267e-06 17.8611Z"/>
<path id="path16_stroke" d="M 24.9219 16.5607L 25.358 16.3161L 25.3578 16.3158L 24.9219 16.5607ZM 52.0058 64.827L 52.0058 65.327L 52.8597 65.327L 52.4418 64.5823L 52.0058 64.827ZM -3.66533e-06 64.827L -0.435656 64.5816L -0.855467 65.327L -3.66533e-06 65.327L -3.66533e-06 64.827ZM 15.8384 1.41464L 24.486 16.8057L 25.3578 16.3158L 16.7102 0.924798L 15.8384 1.41464ZM 24.4859 16.8054L 51.5697 65.0716L 52.4418 64.5823L 25.358 16.3161L 24.4859 16.8054ZM 52.0058 64.327L -3.66533e-06 64.327L -3.66533e-06 65.327L 52.0058 65.327L 52.0058 64.327ZM 0.435649 65.0723L 36.9478 0.24537L 36.0765 -0.24537L -0.435656 64.5816L 0.435649 65.0723Z"/>
<path id="path17_stroke" d="M 24.9219 16.5607L 25.358 16.3161L 25.3578 16.3158L 24.9219 16.5607ZM 52.0058 64.827L 52.0058 65.327L 52.8597 65.327L 52.4418 64.5823L 52.0058 64.827ZM 1.83267e-06 64.827L -0.435824 64.5819L -0.854771 65.327L 1.83267e-06 65.327L 1.83267e-06 64.827ZM 15.8384 1.41464L 24.486 16.8057L 25.3578 16.3158L 16.7102 0.924798L 15.8384 1.41464ZM 24.4859 16.8054L 51.5697 65.0716L 52.4418 64.5823L 25.358 16.3161L 24.4859 16.8054ZM 52.0058 64.327L 1.83267e-06 64.327L 1.83267e-06 65.327L 52.0058 65.327L 52.0058 64.327ZM 0.435827 65.072L 36.8879 0.245064L 36.0163 -0.245064L -0.435824 64.5819L 0.435827 65.072Z"/>
<path id="path18_stroke" d="M 24.9219 16.5607L 25.358 16.3161L 25.3578 16.3158L 24.9219 16.5607ZM 52.0058 64.827L 52.0058 65.327L 52.8597 65.327L 52.4418 64.5823L 52.0058 64.827ZM 0 64.827L -0.435653 64.5816L -0.855464 65.327L 0 65.327L 0 64.827ZM 15.8384 1.41464L 24.486 16.8057L 25.3578 16.3158L 16.7102 0.924798L 15.8384 1.41464ZM 24.4859 16.8054L 51.5697 65.0716L 52.4418 64.5823L 25.358 16.3161L 24.4859 16.8054ZM 52.0058 64.327L 0 64.327L 0 65.327L 52.0058 65.327L 52.0058 64.327ZM 0.435653 65.0723L 36.9478 0.24537L 36.0765 -0.24537L -0.435653 64.5816L 0.435653 65.0723Z"/>
<path id="path19_stroke" d="M 24.9219 48.2662L 24.4859 48.0215L 24.4856 48.022L 24.9219 48.2662ZM 52.0058 0L 52.4418 0.244678L 52.8597 -0.5L 52.0058 -0.5L 52.0058 0ZM -3.66533e-06 0L -3.66533e-06 -0.5L -0.855467 -0.5L -0.435656 0.24537L -3.66533e-06 0ZM 16.7106 63.963L 25.3582 48.5104L 24.4856 48.022L 15.838 63.4746L 16.7106 63.963ZM 25.358 48.5109L 52.4418 0.244678L 51.5697 -0.244678L 24.4859 48.0215L 25.358 48.5109ZM 52.0058 -0.5L -3.66533e-06 -0.5L -3.66533e-06 0.5L 52.0058 0.5L 52.0058 -0.5ZM -0.435656 0.24537L 36.0765 65.0723L 36.9478 64.5816L 0.435649 -0.24537L -0.435656 0.24537Z"/>
<path id="path20_stroke" d="M 24.9219 48.2662L 24.4859 48.0215L 24.4856 48.022L 24.9219 48.2662ZM 52.0058 0L 52.4418 0.244678L 52.8597 -0.5L 52.0058 -0.5L 52.0058 0ZM 1.83267e-06 0L 1.83267e-06 -0.5L -0.854772 -0.5L -0.435824 0.245064L 1.83267e-06 0ZM 16.7106 63.963L 25.3583 48.5104L 24.4856 48.022L 15.838 63.4746L 16.7106 63.963ZM 25.358 48.5109L 52.4418 0.244678L 51.5697 -0.244678L 24.4859 48.0215L 25.358 48.5109ZM 52.0058 -0.5L 1.83267e-06 -0.5L 1.83267e-06 0.5L 52.0058 0.5L 52.0058 -0.5ZM -0.435824 0.245064L 36.0163 65.072L 36.8879 64.5819L 0.435827 -0.245064L -0.435824 0.245064Z"/>
<path id="path21_stroke" d="M 24.9219 48.2662L 24.4859 48.0215L 24.4856 48.022L 24.9219 48.2662ZM 52.0058 0L 52.4418 0.244678L 52.8597 -0.5L 52.0058 -0.5L 52.0058 0ZM 0 0L 0 -0.5L -0.855464 -0.5L -0.435653 0.24537L 0 0ZM 16.7106 63.963L 25.3583 48.5104L 24.4856 48.022L 15.838 63.4746L 16.7106 63.963ZM 25.358 48.5109L 52.4418 0.244678L 51.5697 -0.244678L 24.4859 48.0215L 25.358 48.5109ZM 52.0058 -0.5L 0 -0.5L 0 0.5L 52.0058 0.5L 52.0058 -0.5ZM -0.435653 0.24537L 36.0765 65.0723L 36.9478 64.5816L 0.435653 -0.24537L -0.435653 0.24537Z"/>
<path id="path22_stroke" d="M 19.7574 15.391L 19.3222 15.6372L 19.3223 15.6374L 19.7574 15.391ZM 47.0214 63.5341L 46.5863 63.7805L 47.0226 64.5509L 47.457 63.7795L 47.0214 63.5341ZM 73.0243 17.3611L 73.4599 17.6064L 73.8797 16.8611L 73.0243 16.8611L 73.0243 17.3611ZM 10.6145 0.246209L 19.3222 15.6372L 20.1926 15.1448L 11.4849 -0.246209L 10.6145 0.246209ZM 19.3223 15.6374L 46.5863 63.7805L 47.4565 63.2877L 20.1925 15.1446L 19.3223 15.6374ZM 47.457 63.7795L 73.4599 17.6064L 72.5886 17.1157L 46.5857 63.2888L 47.457 63.7795ZM 73.0243 16.8611L -9.16334e-07 16.8611L -9.16334e-07 17.8611L 73.0243 17.8611L 73.0243 16.8611Z"/>
<path id="path23_stroke" d="M 19.7574 15.391L 19.3222 15.6372L 19.3223 15.6374L 19.7574 15.391ZM 47.0214 63.5341L 46.5863 63.7805L 47.0226 64.5509L 47.457 63.7795L 47.0214 63.5341ZM 73.0243 17.3611L 73.4599 17.6064L 73.8797 16.8611L 73.0243 16.8611L 73.0243 17.3611ZM 10.6145 0.24621L 19.3222 15.6372L 20.1926 15.1448L 11.4849 -0.246207L 10.6145 0.24621ZM 19.3223 15.6374L 46.5863 63.7805L 47.4565 63.2877L 20.1925 15.1446L 19.3223 15.6374ZM 47.457 63.7795L 73.4599 17.6064L 72.5886 17.1157L 46.5857 63.2888L 47.457 63.7795ZM 73.0243 16.8611L -4.58167e-07 16.8611L -4.58167e-07 17.8611L 73.0243 17.8611L 73.0243 16.8611Z"/>
<path id="path24_stroke" d="M 19.7574 48.1431L 19.3223 47.8967L 19.3222 47.8969L 19.7574 48.1431ZM 47.0214 0L 47.4571 -0.24535L 47.0226 -1.0168L 46.5863 -0.246389L 47.0214 0ZM 73.0243 46.173L 73.0243 46.673L 73.8797 46.673L 73.4599 45.9277L 73.0243 46.173ZM 11.4849 63.7803L 20.1926 48.3893L 19.3222 47.8969L 10.6145 63.2879L 11.4849 63.7803ZM 20.1925 48.3895L 47.4565 0.246389L 46.5863 -0.246389L 19.3223 47.8967L 20.1925 48.3895ZM 46.5857 0.24535L 72.5886 46.4184L 73.4599 45.9277L 47.4571 -0.24535L 46.5857 0.24535ZM 73.0243 45.673L 0 45.673L 0 46.673L 73.0243 46.673L 73.0243 45.673Z"/>
<path id="path25_stroke" d="M 19.7574 48.1431L 19.3223 47.8967L 19.3222 47.8969L 19.7574 48.1431ZM 47.0214 -3.75757e-06L 47.457 -0.245353L 47.0226 -1.0168L 46.5863 -0.246393L 47.0214 -3.75757e-06ZM 73.0243 46.173L 73.0243 46.673L 73.8797 46.673L 73.4599 45.9277L 73.0243 46.173ZM 11.4849 63.7803L 20.1926 48.3893L 19.3222 47.8969L 10.6145 63.2879L 11.4849 63.7803ZM 20.1925 48.3895L 47.4565 0.246386L 46.5863 -0.246393L 19.3223 47.8967L 20.1925 48.3895ZM 46.5857 0.245346L 72.5886 46.4184L 73.4599 45.9277L 47.457 -0.245353L 46.5857 0.245346ZM 73.0243 45.673L -4.58167e-07 45.673L -4.58167e-07 46.673L 73.0243 46.673L 73.0243 45.673Z"/>
<path id="path26_stroke" d="M 19.7574 48.1431L 19.3223 47.8967L 19.3222 47.8969L 19.7574 48.1431ZM 47.0214 0L 47.457 -0.24535L 47.0226 -1.0168L 46.5863 -0.246389L 47.0214 0ZM 73.0243 46.173L 73.0243 46.673L 73.8797 46.673L 73.4599 45.9277L 73.0243 46.173ZM 11.4849 63.7803L 20.1926 48.3893L 19.3222 47.8969L 10.6145 63.2879L 11.4849 63.7803ZM 20.1925 48.3895L 47.4565 0.246389L 46.5863 -0.246389L 19.3223 47.8967L 20.1925 48.3895ZM 46.5857 0.24535L 72.5886 46.4184L 73.4599 45.9277L 47.457 -0.24535L 46.5857 0.24535ZM 73.0243 45.673L -9.16334e-07 45.673L -9.16334e-07 46.673L 73.0243 46.673L 73.0243 45.673Z"/>
<path id="path27_stroke" d="M 19.7574 15.391L 19.3222 15.6372L 19.3223 15.6374L 19.7574 15.391ZM 47.0214 63.5341L 46.5863 63.7805L 47.0226 64.5509L 47.4571 63.7795L 47.0214 63.5341ZM 73.0243 17.3611L 73.4599 17.6064L 73.8797 16.8611L 73.0243 16.8611L 73.0243 17.3611ZM 10.6145 0.24621L 19.3222 15.6372L 20.1926 15.1448L 11.4849 -0.246207L 10.6145 0.24621ZM 19.3223 15.6374L 46.5863 63.7805L 47.4565 63.2877L 20.1925 15.1446L 19.3223 15.6374ZM 47.4571 63.7795L 73.4599 17.6064L 72.5886 17.1157L 46.5857 63.2888L 47.4571 63.7795ZM 73.0243 16.8611L 0 16.8611L 0 17.8611L 73.0243 17.8611L 73.0243 16.8611Z"/>
<path id="path28_stroke" d="M 19.7574 15.391L 19.3222 15.6372L 19.3223 15.6374L 19.7574 15.391ZM 47.0214 63.5341L 46.5863 63.7805L 47.0226 64.5509L 47.457 63.7795L 47.0214 63.5341ZM 73.0243 17.3611L 73.4599 17.6064L 73.8797 16.8611L 73.0243 16.8611L 73.0243 17.3611ZM 10.6145 0.246205L 19.3222 15.6372L 20.1926 15.1448L 11.4849 -0.246212L 10.6145 0.246205ZM 19.3223 15.6374L 46.5863 63.7805L 47.4565 63.2877L 20.1925 15.1446L 19.3223 15.6374ZM 47.457 63.7795L 73.4599 17.6064L 72.5886 17.1157L 46.5857 63.2888L 47.457 63.7795ZM 73.0243 16.8611L -4.58167e-07 16.8611L -4.58167e-07 17.8611L 73.0243 17.8611L 73.0243 16.8611Z"/>
<path id="path29_stroke" d="M 0 46.173L -0.435665 45.9277L -0.855417 46.673L 0 46.673L 0 46.173ZM 26.0029 0L 26.4385 -0.24535L 26.0029 -1.01895L 25.5672 -0.24535L 26.0029 0ZM 52.0058 46.173L 52.0058 46.673L 52.8612 46.673L 52.4414 45.9277L 52.0058 46.173ZM 0.435665 46.4184L 26.4385 0.24535L 25.5672 -0.24535L -0.435665 45.9277L 0.435665 46.4184ZM 25.5672 0.24535L 51.5701 46.4184L 52.4414 45.9277L 26.4385 -0.24535L 25.5672 0.24535ZM 52.0058 45.673L 0 45.673L 0 46.673L 52.0058 46.673L 52.0058 45.673Z"/>
<path id="path30_stroke" d="M 52.0058 0L 52.4414 0.245349L 52.8612 -0.5L 52.0058 -0.5L 52.0058 0ZM 26.0029 46.173L 25.5672 46.4184L 26.0029 47.192L 26.4385 46.4184L 26.0029 46.173ZM 1.83267e-06 0L 1.83267e-06 -0.5L -0.855415 -0.5L -0.435663 0.24535L 1.83267e-06 0ZM 51.5701 -0.245349L 25.5672 45.9277L 26.4385 46.4184L 52.4414 0.245349L 51.5701 -0.245349ZM 26.4385 45.9277L 0.435666 -0.24535L -0.435663 0.24535L 25.5672 46.4184L 26.4385 45.9277ZM 1.83267e-06 0.5L 52.0058 0.5L 52.0058 -0.5L 1.83267e-06 -0.5L 1.83267e-06 0.5Z"/>
<path id="path31_stroke" d="M 1.83267e-06 46.173L -0.435663 45.9277L -0.855415 46.673L 1.83267e-06 46.673L 1.83267e-06 46.173ZM 26.0029 0L 26.4385 -0.245349L 26.0029 -1.01895L 25.5672 -0.24535L 26.0029 0ZM 52.0058 46.173L 52.0058 46.673L 52.8612 46.673L 52.4414 45.9277L 52.0058 46.173ZM 0.435666 46.4184L 26.4385 0.24535L 25.5672 -0.24535L -0.435663 45.9277L 0.435666 46.4184ZM 25.5672 0.245349L 51.5701 46.4184L 52.4414 45.9277L 26.4385 -0.245349L 25.5672 0.245349ZM 52.0058 45.673L 1.83267e-06 45.673L 1.83267e-06 46.673L 52.0058 46.673L 52.0058 45.673Z"/>
<path id="path32_stroke" d="M 52.0058 0L 52.4414 0.24535L 52.8612 -0.5L 52.0058 -0.5L 52.0058 0ZM 26.0029 46.173L 25.5672 46.4184L 26.0029 47.192L 26.4385 46.4184L 26.0029 46.173ZM 0 0L 0 -0.5L -0.855417 -0.5L -0.435665 0.24535L 0 0ZM 51.5701 -0.24535L 25.5672 45.9277L 26.4385 46.4184L 52.4414 0.24535L 51.5701 -0.24535ZM 26.4385 45.9277L 0.435665 -0.24535L -0.435665 0.24535L 25.5672 46.4184L 26.4385 45.9277ZM 0 0.5L 52.0058 0.5L 52.0058 -0.5L 0 -0.5L 0 0.5Z"/>
<path id="path33_stroke" d="M 61.5542 218.429L 59.8118 219.411L 60.3856 220.429L 61.5542 220.429L 61.5542 218.429ZM -2.86354e-08 109.215L -1.74233 108.233L -2.29578 109.215L -1.74233 110.197L -2.86354e-08 109.215ZM 61.5542 -5.87121e-08L 61.5542 -2L 60.3856 -2L 59.8118 -0.981988L 61.5542 -5.87121e-08ZM 184.542 -5.87121e-08L 186.285 -0.98126L 185.712 -2L 184.542 -2L 184.542 -5.87121e-08ZM 246.037 109.215L 247.779 110.196L 248.332 109.215L 247.779 108.233L 246.037 109.215ZM 184.542 218.429L 184.542 220.429L 185.712 220.429L 186.285 219.411L 184.542 218.429ZM 63.2965 217.447L 1.74233 108.233L -1.74233 110.197L 59.8118 219.411L 63.2965 217.447ZM 1.74233 110.197L 63.2965 0.981988L 59.8118 -0.981988L -1.74233 108.233L 1.74233 110.197ZM 61.5542 2L 184.542 2L 184.542 -2L 61.5542 -2L 61.5542 2ZM 182.8 0.98126L 244.294 110.196L 247.779 108.233L 186.285 -0.98126L 182.8 0.98126ZM 244.294 108.233L 182.8 217.448L 186.285 219.411L 247.779 110.196L 244.294 108.233ZM 184.542 216.429L 61.5542 216.429L 61.5542 220.429L 184.542 220.429L 184.542 216.429Z"/>
<path id="path34_stroke" d="M 156.017 92.3461L 156.453 92.5914L 156.873 91.8461L 156.017 91.8461L 156.017 92.3461ZM 130.014 138.519L 130.014 139.019L 130.307 139.019L 130.45 138.764L 130.014 138.519ZM 26.0029 138.519L 26.0029 138.019L 25.1475 138.019L 25.5672 138.764L 26.0029 138.519ZM 52.0058 184.692L 51.5701 184.938L 51.7135 185.192L 52.0058 185.192L 52.0058 184.692ZM 156.017 184.692L 156.017 185.192L 156.31 185.192L 156.453 184.938L 156.017 184.692ZM 208.023 92.3461L 208.459 92.5914L 208.597 92.3461L 208.459 92.1007L 208.023 92.3461ZM 156.017 0L 156.453 -0.24535L 156.017 -1.01895L 155.582 -0.245349L 156.017 0ZM 130.014 46.173L 130.014 46.673L 130.307 46.673L 130.45 46.4184L 130.014 46.173ZM 78.0086 46.173L 78.0086 45.673L 77.7164 45.673L 77.573 45.9277L 78.0086 46.173ZM 52.0058 92.3461L 52.0058 92.8461L 52.298 92.8461L 52.4414 92.5914L 52.0058 92.3461ZM 0 92.3461L -0.435665 92.1007L -0.855417 92.8461L 0 92.8461L 0 92.3461ZM 52.0058 0L 52.0058 -0.5L 51.7135 -0.5L 51.5701 -0.24535L 52.0058 0ZM 140.043 92.8461L 156.017 92.8461L 156.017 91.8461L 140.043 91.8461L 140.043 92.8461ZM 155.582 92.1007L 129.579 138.274L 130.45 138.764L 156.453 92.5914L 155.582 92.1007ZM 130.014 138.019L 26.0029 138.019L 26.0029 139.019L 130.014 139.019L 130.014 138.019ZM 25.5672 138.764L 51.5701 184.938L 52.4414 184.447L 26.4385 138.274L 25.5672 138.764ZM 52.0058 185.192L 156.017 185.192L 156.017 184.192L 52.0058 184.192L 52.0058 185.192ZM 156.453 184.938L 208.459 92.5914L 207.587 92.1007L 155.582 184.447L 156.453 184.938ZM 208.459 92.1007L 156.453 -0.24535L 155.582 0.24535L 207.587 92.5914L 208.459 92.1007ZM 155.582 -0.245349L 129.579 45.9277L 130.45 46.4184L 156.453 0.245349L 155.582 -0.245349ZM 130.014 45.673L 78.0086 45.673L 78.0086 46.673L 130.014 46.673L 130.014 45.673ZM 77.573 45.9277L 51.5701 92.1007L 52.4414 92.5914L 78.4443 46.4184L 77.573 45.9277ZM 52.0058 91.8461L 0 91.8461L 0 92.8461L 52.0058 92.8461L 52.0058 91.8461ZM 0.435665 92.5914L 52.4414 0.24535L 51.5701 -0.24535L -0.435665 92.1007L 0.435665 92.5914ZM 52.0058 0.5L 156.017 0.5L 156.017 -0.5L 52.0058 -0.5L 52.0058 0.5Z"/>
<path id="path35_fill" d="M 20.8383 -7.51514e-06L -3.66534e-06 -7.51514e-06L -3.66534e-06 20.7471L 20.8383 20.7471L 20.8383 -7.51514e-06Z"/>
<path id="path36_fill" d="M 20.8383 0L 0 0L 0 20.7471L 20.8383 20.7471L 20.8383 0Z"/>
<path id="path37_fill" d="M 20.8383 0L -3.66534e-06 0L -3.66534e-06 20.7471L 20.8383 20.7471L 20.8383 0Z"/>
<path id="path38_stroke" d="M 10.7899 5.78703C 10.7899 8.71875 8.47481 11.074 5.64496 11.074L 5.64496 12.074C 9.05037 12.074 11.7899 9.24747 11.7899 5.78703L 10.7899 5.78703ZM 5.64496 11.074C 2.81511 11.074 0.499996 8.71875 0.499996 5.78703L -0.500004 5.78703C -0.500004 9.24747 2.23955 12.074 5.64496 12.074L 5.64496 11.074ZM 0.499996 5.78703C 0.499996 2.8553 2.81511 0.500008 5.64496 0.500008L 5.64496 -0.499992C 2.23955 -0.499992 -0.500004 2.32659 -0.500004 5.78703L 0.499996 5.78703ZM 5.64496 0.500008C 8.47481 0.500008 10.7899 2.8553 10.7899 5.78703L 11.7899 5.78703C 11.7899 2.32658 9.05037 -0.499992 5.64496 -0.499992L 5.64496 0.500008Z"/>
<path id="path39_stroke" d="M 10.7899 5.78702C 10.7899 8.71875 8.47481 11.074 5.64497 11.074L 5.64497 12.074C 9.05038 12.074 11.7899 9.24746 11.7899 5.78702L 10.7899 5.78702ZM 5.64497 11.074C 2.81512 11.074 0.5 8.71875 0.5 5.78702L -0.5 5.78702C -0.5 9.24746 2.23955 12.074 5.64497 12.074L 5.64497 11.074ZM 0.5 5.78702C 0.5 2.85529 2.81512 0.5 5.64497 0.5L 5.64497 -0.5C 2.23955 -0.5 -0.5 2.32658 -0.5 5.78702L 0.5 5.78702ZM 5.64497 0.5C 8.47481 0.5 10.7899 2.85529 10.7899 5.78702L 11.7899 5.78702C 11.7899 2.32658 9.05038 -0.5 5.64497 -0.5L 5.64497 0.5Z"/>
<path id="path40_stroke" d="M 10.7899 5.78702C 10.7899 8.71875 8.47481 11.074 5.64496 11.074L 5.64496 12.074C 9.05037 12.074 11.7899 9.24746 11.7899 5.78702L 10.7899 5.78702ZM 5.64496 11.074C 2.81512 11.074 0.499996 8.71875 0.499996 5.78702L -0.500004 5.78702C -0.500004 9.24746 2.23955 12.074 5.64496 12.074L 5.64496 11.074ZM 0.499996 5.78702C 0.499996 2.85529 2.81512 0.5 5.64496 0.5L 5.64496 -0.5C 2.23955 -0.5 -0.500004 2.32658 -0.500004 5.78702L 0.499996 5.78702ZM 5.64496 0.5C 8.47481 0.5 10.7899 2.85529 10.7899 5.78702L 11.7899 5.78702C 11.7899 2.32658 9.05037 -0.5 5.64496 -0.5L 5.64496 0.5Z"/>
<path id="path41_stroke" d="M 10.7899 5.78702C 10.7899 8.71875 8.47481 11.074 5.64497 11.074L 5.64497 12.074C 9.05038 12.074 11.7899 9.24746 11.7899 5.78702L 10.7899 5.78702ZM 5.64497 11.074C 2.81512 11.074 0.500002 8.71875 0.500002 5.78702L -0.499998 5.78702C -0.499998 9.24746 2.23955 12.074 5.64497 12.074L 5.64497 11.074ZM 0.500002 5.78702C 0.500002 2.85529 2.81512 0.5 5.64497 0.5L 5.64497 -0.5C 2.23955 -0.5 -0.499998 2.32658 -0.499998 5.78702L 0.500002 5.78702ZM 5.64497 0.5C 8.47481 0.5 10.7899 2.85529 10.7899 5.78702L 11.7899 5.78702C 11.7899 2.32658 9.05038 -0.5 5.64497 -0.5L 5.64497 0.5Z"/>
</defs>
</svg>
