<svg width="252" height="238" viewBox="0 0 252 238" version="1.1" xmlns="http://www.w3.org/2000/svg" xmlns:xlink="http://www.w3.org/1999/xlink">
<title>Group</title>
<desc>Created using Figma</desc>
<g id="Canvas" transform="translate(-5744 -1184)">
<g id="Group">
<g id="Vector">
<use xlink:href="#path0_stroke" transform="translate(5769.04 1202.64)" fill="#232C33"/>
</g>
<g id="Vector">
<use xlink:href="#path1_fill" transform="translate(5798.31 1184)" fill="#FFFFFF"/>
</g>
<g id="Vector">
<use xlink:href="#path2_fill" transform="translate(5917.3 1184)" fill="#FFFFFF"/>
</g>
<g id="Vector">
<use xlink:href="#path3_fill" transform="translate(5828.06 1235.22)" fill="#FFFFFF"/>
</g>
<g id="Vector">
<use xlink:href="#path4_fill" transform="translate(5917.3 1286.44)" fill="#FFFFFF"/>
</g>
<g id="Vector">
<use xlink:href="#path5_fill" transform="translate(5798.31 1384.64)" fill="#FFFFFF"/>
</g>
<g id="Vector">
<use xlink:href="#path6_fill" transform="translate(5917.3 1384.64)" fill="#FFFFFF"/>
</g>
<g id="Group">
<g id="Vector">
<use xlink:href="#path7_stroke" transform="translate(5745 1295.11)" fill="#174F9F"/>
</g>
<g id="Vector">
<use xlink:href="#path8_stroke" transform="translate(5745 1307.88)" fill="#174F9F"/>
</g>
<g id="Vector">
<use xlink:href="#path9_stroke" transform="translate(5745 1301.46)" fill="#174F9F"/>
</g>
<g id="Vector">
<use xlink:href="#path10_stroke" transform="translate(5745 1290.95)" fill="#174F9F"/>
</g>
<g id="Vector">
<use xlink:href="#path11_stroke" transform="translate(5746.58 1300.3)" fill="#174F9F"/>
</g>
<g id="Vector">
<use xlink:href="#path12_stroke" transform="translate(5746.58 1306.59)" fill="#174F9F"/>
</g>
<g id="Vector">
<use xlink:href="#path11_stroke" transform="translate(5746.58 1312.94)" fill="#174F9F"/>
</g>
</g>
<g id="Group">
<g id="Vector">
<use xlink:href="#path13_stroke" transform="translate(5834.24 1244.37)" fill="#174F9F"/>
</g>
<g id="Vector">
<use xlink:href="#path14_stroke" transform="translate(5834.24 1257.07)" fill="#174F9F"/>
</g>
<g id="Vector">
<use xlink:href="#path15_stroke" transform="translate(5834.24 1250.72)" fill="#174F9F"/>
</g>
<g id="Vector">
<use xlink:href="#path16_stroke" transform="translate(5834.24 1240.2)" fill="#174F9F"/>
</g>
<g id="Vector">
<use xlink:href="#path17_stroke" transform="translate(5835.82 1249.56)" fill="#174F9F"/>
</g>
<g id="Vector">
<use xlink:href="#path18_stroke" transform="translate(5835.82 1255.84)" fill="#174F9F"/>
</g>
<g id="Vector">
<use xlink:href="#path19_stroke" transform="translate(5835.82 1262.13)" fill="#174F9F"/>
</g>
</g>
<g id="Group">
<g id="Vector">
<use xlink:href="#path20_stroke" transform="translate(5923.48 1296.14)" fill="#174F9F"/>
</g>
<g id="Vector">
<use xlink:href="#path21_stroke" transform="translate(5923.48 1308.84)" fill="#174F9F"/>
</g>
<g id="Vector">
<use xlink:href="#path22_stroke" transform="translate(5923.48 1302.49)" fill="#174F9F"/>
</g>
<g id="Vector">
<use xlink:href="#path23_stroke" transform="translate(5923.48 1291.97)" fill="#174F9F"/>
</g>
<g id="Vector">
<use xlink:href="#path24_stroke" transform="translate(5925.06 1301.33)" fill="#174F9F"/>
</g>
<g id="Vector">
<use xlink:href="#path25_stroke" transform="translate(5925.06 1307.61)" fill="#174F9F"/>
</g>
<g id="Vector">
<use xlink:href="#path26_stroke" transform="translate(5925.06 1313.89)" fill="#174F9F"/>
</g>
</g>
<g id="Group">
<g id="Vector">
<use xlink:href="#path27_stroke" transform="translate(5923.48 1193.15)" fill="#174F9F"/>
</g>
<g id="Vector">
<use xlink:href="#path28_stroke" transform="translate(5923.48 1205.85)" fill="#174F9F"/>
</g>
<g id="Vector">
<use xlink:href="#path29_stroke" transform="translate(5923.48 1199.5)" fill="#174F9F"/>
</g>
<g id="Vector">
<use xlink:href="#path30_stroke" transform="translate(5923.48 1188.99)" fill="#174F9F"/>
</g>
<g id="Vector">
<use xlink:href="#path31_stroke" transform="translate(5925.06 1198.34)" fill="#174F9F"/>
</g>
<g id="Vector">
<use xlink:href="#path32_stroke" transform="translate(5925.06 1204.62)" fill="#174F9F"/>
</g>
<g id="Vector">
<use xlink:href="#path33_stroke" transform="translate(5925.06 1210.91)" fill="#174F9F"/>
</g>
</g>
<g id="Group">
<g id="Vector">
<use xlink:href="#path34_stroke" transform="translate(5923.48 1394.89)" fill="#174F9F"/>
</g>
<g id="Vector">
<use xlink:href="#path35_stroke" transform="translate(5923.48 1407.59)" fill="#174F9F"/>
</g>
<g id="Vector">
<use xlink:href="#path36_stroke" transform="translate(5923.48 1401.24)" fill="#174F9F"/>
</g>
<g id="Vector">
<use xlink:href="#path37_stroke" transform="translate(5923.48 1390.72)" fill="#174F9F"/>
</g>
<g id="Vector">
<use xlink:href="#path38_stroke" transform="translate(5925.06 1400.08)" fill="#174F9F"/>
</g>
<g id="Vector">
<use xlink:href="#path39_stroke" transform="translate(5925.06 1406.36)" fill="#174F9F"/>
</g>
<g id="Vector">
<use xlink:href="#path40_stroke" transform="translate(5925.06 1412.64)" fill="#174F9F"/>
</g>
</g>
<g id="Group">
<g id="Vector">
<use xlink:href="#path41_stroke" transform="translate(5804.49 1394.89)" fill="#174F9F"/>
</g>
<g id="Vector">
<use xlink:href="#path42_stroke" transform="translate(5804.49 1407.59)" fill="#174F9F"/>
</g>
<g id="Vector">
<use xlink:href="#path43_stroke" transform="translate(5804.49 1401.24)" fill="#174F9F"/>
</g>
<g id="Vector">
<use xlink:href="#path44_stroke" transform="translate(5804.49 1390.72)" fill="#174F9F"/>
</g>
<g id="Vector">
<use xlink:href="#path45_stroke" transform="translate(5806.07 1400.08)" fill="#174F9F"/>
</g>
<g id="Vector">
<use xlink:href="#path46_stroke" transform="translate(5806.07 1406.36)" fill="#174F9F"/>
</g>
<g id="Vector">
<use xlink:href="#path47_stroke" transform="translate(5806.07 1412.64)" fill="#174F9F"/>
</g>
</g>
<g id="Group">
<g id="Vector">
<use xlink:href="#path48_stroke" transform="translate(5804.49 1193.15)" fill="#174F9F"/>
</g>
<g id="Vector">
<use xlink:href="#path49_stroke" transform="translate(5804.49 1205.85)" fill="#174F9F"/>
</g>
<g id="Vector">
<use xlink:href="#path50_stroke" transform="translate(5804.49 1199.5)" fill="#174F9F"/>
</g>
<g id="Vector">
<use xlink:href="#path51_stroke" transform="translate(5804.49 1188.99)" fill="#174F9F"/>
</g>
<g id="Vector">
<use xlink:href="#path52_stroke" transform="translate(5806.07 1198.34)" fill="#174F9F"/>
</g>
<g id="Vector">
<use xlink:href="#path53_stroke" transform="translate(5806.07 1204.62)" fill="#174F9F"/>
</g>
<g id="Vector">
<use xlink:href="#path54_stroke" transform="translate(5806.07 1210.91)" fill="#174F9F"/>
</g>
</g>
</g>
</g>
<defs>
<path id="path0_stroke" d="M 47.4718 204.878L 47.0395 205.129L 47.4718 205.874L 47.9042 205.129L 47.4718 204.878ZM 136.713 51.2195L 137.146 50.9684L 136.713 50.2239L 136.281 50.9684L 136.713 51.2195ZM 166.461 102.439L 166.893 102.69L 167.039 102.439L 166.893 102.188L 166.461 102.439ZM 106.966 204.878L 106.534 204.627L 106.098 205.378L 106.966 205.378L 106.966 204.878ZM 166.461 204.878L 166.461 205.378L 166.748 205.378L 166.893 205.129L 166.461 204.878ZM 225.955 102.439L 226.387 102.69L 226.533 102.439L 226.387 102.188L 225.955 102.439ZM 166.461 -5.21032e-07L 166.893 -0.251111L 166.748 -0.500001L 166.461 -0.500001L 166.461 -5.21032e-07ZM 47.4718 -5.21032e-07L 47.4718 -0.500001L 47.184 -0.500001L 47.0395 -0.251111L 47.4718 -5.21032e-07ZM 17.7247 51.2195L 17.2923 50.9684L 17.1464 51.2195L 17.2923 51.4706L 17.7247 51.2195ZM 47.4718 102.439L 47.0395 102.69L 47.4718 103.435L 47.9042 102.69L 47.4718 102.439ZM -0.43238 123.383L 47.0395 205.129L 47.9042 204.627L 0.43238 122.881L -0.43238 123.383ZM 47.9042 205.129L 137.146 51.4706L 136.281 50.9684L 47.0395 204.627L 47.9042 205.129ZM 136.281 51.4706L 166.028 102.69L 166.893 102.188L 137.146 50.9684L 136.281 51.4706ZM 166.028 102.188L 106.534 204.627L 107.399 205.129L 166.893 102.69L 166.028 102.188ZM 106.966 205.378L 166.461 205.378L 166.461 204.378L 106.966 204.378L 106.966 205.378ZM 166.893 205.129L 226.387 102.69L 225.523 102.188L 166.028 204.627L 166.893 205.129ZM 226.387 102.188L 166.893 -0.251111L 166.028 0.25111L 225.523 102.69L 226.387 102.188ZM 166.461 -0.500001L 106.966 -0.500001L 106.966 0.499999L 166.461 0.499999L 166.461 -0.500001ZM 106.966 -0.500001L 47.4718 -0.500001L 47.4718 0.499999L 106.966 0.499999L 106.966 -0.500001ZM 47.0395 -0.251111L 17.2923 50.9684L 18.157 51.4706L 47.9042 0.25111L 47.0395 -0.251111ZM 17.2923 51.4706L 47.0395 102.69L 47.9042 102.188L 18.157 50.9684L 17.2923 51.4706ZM 47.9042 102.69L 77.6514 51.4706L 76.7867 50.9684L 47.0395 102.188L 47.9042 102.69Z"/>
<path id="path1_fill" d="M 36.4111 0L 0 0L 0 37.3561L 36.4111 37.3561L 36.4111 0Z"/>
<path id="path2_fill" d="M 36.4111 0L 2.09656e-06 0L 2.09656e-06 37.3561L 36.4111 37.3561L 36.4111 0Z"/>
<path id="path3_fill" d="M 36.4111 0L 0 0L 0 37.3561L 36.4111 37.3561L 36.4111 0Z"/>
<path id="path4_fill" d="M 36.4111 0L 2.09656e-06 0L 2.09656e-06 37.3561L 36.4111 37.3561L 36.4111 0Z"/>
<path id="path5_fill" d="M 36.4111 -8.33651e-06L 0 -8.33651e-06L 0 37.3561L 36.4111 37.3561L 36.4111 -8.33651e-06Z"/>
<path id="path6_fill" d="M 36.4111 -8.33651e-06L 2.09656e-06 -8.33651e-06L 2.09656e-06 37.3561L 36.4111 37.3561L 36.4111 -8.33651e-06Z"/>
<path id="path7_stroke" d="M -0.5 -2.08413e-06L -0.5 19.1219L 0.5 19.1219L 0.5 -2.08413e-06L -0.5 -2.08413e-06ZM -0.5 19.1219C -0.5 19.9109 -0.0432607 20.5893 0.623582 21.1384C 1.27372 21.67 2.23015 22.1601 3.34891 22.5482C 5.56486 23.3122 8.65256 23.7864 12.0225 23.7878L 12.0225 22.7878C 8.72858 22.7893 5.80503 22.3415 3.67569 21.6031C 2.6218 21.2399 1.82208 20.8337 1.25923 20.3664C 0.713088 19.9167 0.5 19.494 0.5 19.1219L -0.5 19.1219ZM 12.0225 23.7878C 15.3925 23.7864 18.4802 23.3122 20.6962 22.5482C 21.8149 22.1601 22.7713 21.67 23.4215 21.1384C 24.0883 20.5893 24.5451 19.9109 24.5451 19.1219L 23.5451 19.1219C 23.5451 19.494 23.332 19.9167 22.7858 20.3664C 22.223 20.8337 21.4233 21.2399 20.3694 21.6031C 18.24 22.3415 15.3165 22.7893 12.0225 22.7878L 12.0225 23.7878ZM 24.5451 19.1219L 24.5451 -2.08413e-06L 23.5451 -2.08413e-06L 23.5451 19.1219L 24.5451 19.1219Z"/>
<path id="path8_stroke" d="M 23.5451 -4.16826e-06C 23.5451 0.372036 23.332 0.794797 22.7858 1.2445C 22.223 1.71175 21.4233 2.11799 20.3694 2.48111C 18.24 3.21951 15.3165 3.6673 12.0225 3.66585L 12.0225 4.66585C 15.3925 4.66441 18.4802 4.19024 20.6962 3.42621C 21.8149 3.03811 22.7713 2.548 23.4215 2.01647C 24.0883 1.46739 24.5451 0.788931 24.5451 -4.16826e-06L 23.5451 -4.16826e-06ZM 12.0225 3.66585C 8.72858 3.6673 5.80503 3.21951 3.67569 2.48111C 2.6218 2.11799 1.82208 1.71175 1.25923 1.2445C 0.713088 0.794797 0.5 0.372036 0.5 -4.16826e-06L -0.5 -4.16826e-06C -0.5 0.788931 -0.0432607 1.46739 0.623582 2.01647C 1.27372 2.548 2.23015 3.03811 3.34891 3.42621C 5.56486 4.19024 8.65256 4.66441 12.0225 4.66585L 12.0225 3.66585Z"/>
<path id="path9_stroke" d="M 23.5451 0C 23.5451 0.37204 23.332 0.794801 22.7858 1.2445C 22.223 1.71176 21.4233 2.11799 20.3694 2.48111C 18.24 3.21952 15.3165 3.6673 12.0225 3.66586L 12.0225 4.66586C 15.3925 4.66441 18.4802 4.19025 20.6962 3.42621C 21.8149 3.03811 22.7713 2.548 23.4215 2.01648C 24.0883 1.46739 24.5451 0.788935 24.5451 0L 23.5451 0ZM 12.0225 3.66586C 8.72858 3.6673 5.80503 3.21952 3.67569 2.48111C 2.6218 2.11799 1.82208 1.71176 1.25923 1.2445C 0.713088 0.794801 0.5 0.37204 0.5 0L -0.5 0C -0.5 0.788935 -0.0432607 1.46739 0.623582 2.01648C 1.27372 2.548 2.23015 3.03811 3.34891 3.42621C 5.56486 4.19025 8.65256 4.66441 12.0225 4.66586L 12.0225 3.66586Z"/>
<path id="path10_stroke" d="M 23.5451 4.16585C 23.5451 4.53046 23.3329 4.95049 22.7834 5.40061C 22.2183 5.86726 21.4157 6.27458 20.36 6.63912C 18.2274 7.38021 15.304 7.83319 12.0225 7.83171L 12.0225 8.83171C 15.3809 8.83023 18.4688 8.35065 20.6875 7.584C 21.8074 7.19466 22.7655 6.70431 23.4171 6.17417C 24.0844 5.6275 24.5451 4.95161 24.5451 4.16585L 23.5451 4.16585ZM 12.0225 7.83171C 8.74104 7.83319 5.81763 7.38021 3.68502 6.63912C 2.62936 6.27458 1.82673 5.86726 1.26165 5.40061C 0.71221 4.95049 0.5 4.53046 0.5 4.16585L -0.5 4.16585C -0.5 4.95161 -0.0393761 5.6275 0.627929 6.17417C 1.2796 6.70431 2.23762 7.19466 3.35762 7.584C 5.57631 8.35065 8.66416 8.83023 12.0225 8.83171L 12.0225 7.83171ZM 0.5 4.16585C 0.5 3.80124 0.71221 3.38121 1.26165 2.9311C 1.82673 2.46445 2.62936 2.05712 3.68502 1.69259C 5.81763 0.951504 8.74104 0.498524 12.0225 0.500004L 12.0225 -0.499996C 8.66416 -0.498516 5.57631 -0.0189404 3.35762 0.747709C 2.23762 1.13705 1.2796 1.62739 0.627929 2.15753C -0.0393759 2.70421 -0.5 3.38009 -0.5 4.16585L 0.5 4.16585ZM 12.0225 0.500004C 15.304 0.498524 18.2274 0.951504 20.36 1.69259C 21.4157 2.05712 22.2183 2.46445 22.7834 2.9311C 23.3329 3.38121 23.5451 3.80124 23.5451 4.16585L 24.5451 4.16585C 24.5451 3.38009 24.0844 2.70421 23.4171 2.15753C 22.7655 1.62739 21.8074 1.13705 20.6874 0.747709C 18.4688 -0.0189404 15.3809 -0.498516 12.0225 -0.499996L 12.0225 0.500004Z"/>
<path id="path11_stroke" d="M 0.736603 0.614632C 0.736603 0.675149 0.68644 0.729272 0.618302 0.729272L 0.618302 1.72927C 1.23312 1.72927 1.7366 1.23302 1.7366 0.614632L 0.736603 0.614632ZM 0.618302 0.729272C 0.550163 0.729272 0.5 0.675149 0.5 0.614632L -0.5 0.614632C -0.5 1.23302 0.00348291 1.72927 0.618302 1.72927L 0.618302 0.729272ZM 0.5 0.614632C 0.5 0.554126 0.550152 0.500002 0.618302 0.500002L 0.618302 -0.499998C 0.00349404 -0.499998 -0.5 -0.00376829 -0.5 0.614632L 0.5 0.614632ZM 0.618302 0.500002C 0.686451 0.500002 0.736603 0.554126 0.736603 0.614632L 1.7366 0.614632C 1.7366 -0.00376817 1.23311 -0.499998 0.618302 -0.499998L 0.618302 0.500002Z"/>
<path id="path12_stroke" d="M 0.736603 0.61463C 0.736603 0.675147 0.68644 0.72927 0.618302 0.72927L 0.618302 1.72927C 1.23312 1.72927 1.7366 1.23302 1.7366 0.61463L 0.736603 0.61463ZM 0.618302 0.72927C 0.550163 0.72927 0.5 0.675147 0.5 0.61463L -0.5 0.61463C -0.5 1.23302 0.00348296 1.72927 0.618302 1.72927L 0.618302 0.72927ZM 0.5 0.61463C 0.5 0.554124 0.550152 0.5 0.618302 0.5L 0.618302 -0.5C 0.00349403 -0.5 -0.5 -0.00377036 -0.5 0.61463L 0.5 0.61463ZM 0.618302 0.5C 0.686451 0.5 0.736603 0.554124 0.736603 0.61463L 1.7366 0.61463C 1.7366 -0.00377024 1.23311 -0.5 0.618302 -0.5L 0.618302 0.5Z"/>
<path id="path13_stroke" d="M -0.500004 1.04206e-06L -0.500004 19.122L 0.499996 19.122L 0.499996 1.04206e-06L -0.500004 1.04206e-06ZM -0.500004 19.122C -0.500004 19.9109 -0.0432648 20.5893 0.623578 21.1384C 1.27372 21.67 2.23015 22.1601 3.3489 22.5482C 5.56485 23.3122 8.65256 23.7864 12.0225 23.7878L 12.0225 22.7878C 8.72858 22.7893 5.80502 22.3415 3.67568 21.6031C 2.62179 21.2399 1.82207 20.8337 1.25923 20.3665C 0.713083 19.9168 0.499996 19.494 0.499996 19.122L -0.500004 19.122ZM 12.0225 23.7878C 15.3925 23.7864 18.4802 23.3122 20.6962 22.5482C 21.8149 22.1601 22.7713 21.67 23.4215 21.1384C 24.0883 20.5893 24.5451 19.9109 24.5451 19.122L 23.5451 19.122C 23.5451 19.494 23.332 19.9168 22.7858 20.3665C 22.223 20.8337 21.4233 21.2399 20.3694 21.6031C 18.24 22.3415 15.3165 22.7893 12.0225 22.7878L 12.0225 23.7878ZM 24.5451 19.122L 24.5451 1.04206e-06L 23.5451 1.04206e-06L 23.5451 19.122L 24.5451 19.122Z"/>
<path id="path14_stroke" d="M 23.5451 0C 23.5451 0.37204 23.332 0.794801 22.7858 1.2445C 22.223 1.71175 21.4233 2.11799 20.3694 2.48111C 18.24 3.21951 15.3165 3.6673 12.0225 3.66585L 12.0225 4.66585C 15.3925 4.66441 18.4802 4.19024 20.6962 3.42621C 21.8149 3.03811 22.7713 2.548 23.4215 2.01648C 24.0883 1.46739 24.5451 0.788935 24.5451 0L 23.5451 0ZM 12.0225 3.66585C 8.72858 3.6673 5.80502 3.21951 3.67568 2.48111C 2.62179 2.11799 1.82207 1.71175 1.25923 1.2445C 0.713083 0.794801 0.499996 0.37204 0.499996 0L -0.500004 0C -0.500004 0.788935 -0.0432648 1.46739 0.623578 2.01648C 1.27372 2.548 2.23015 3.03811 3.3489 3.42621C 5.56485 4.19024 8.65256 4.66441 12.0225 4.66585L 12.0225 3.66585Z"/>
<path id="path15_stroke" d="M 23.5451 -2.08413e-06C 23.5451 0.372038 23.332 0.794799 22.7858 1.2445C 22.223 1.71175 21.4233 2.11799 20.3694 2.48111C 18.24 3.21951 15.3165 3.6673 12.0225 3.66586L 12.0225 4.66586C 15.3925 4.66441 18.4802 4.19025 20.6962 3.42621C 21.8149 3.03811 22.7713 2.548 23.4215 2.01647C 24.0883 1.46739 24.5451 0.788933 24.5451 -2.08413e-06L 23.5451 -2.08413e-06ZM 12.0225 3.66586C 8.72858 3.6673 5.80502 3.21951 3.67568 2.48111C 2.62179 2.11799 1.82207 1.71175 1.25923 1.2445C 0.713083 0.794799 0.499996 0.372038 0.499996 -2.08413e-06L -0.500004 -2.08413e-06C -0.500004 0.788933 -0.0432649 1.46739 0.623578 2.01647C 1.27372 2.548 2.23015 3.03811 3.3489 3.42621C 5.56485 4.19025 8.65256 4.66441 12.0225 4.66586L 12.0225 3.66586Z"/>
<path id="path16_stroke" d="M 23.5451 4.16585C 23.5451 4.53046 23.3328 4.9505 22.7834 5.40061C 22.2183 5.86726 21.4157 6.27459 20.36 6.63912C 18.2274 7.38021 15.304 7.83319 12.0225 7.83171L 12.0225 8.83171C 15.3809 8.83023 18.4688 8.35065 20.6874 7.584C 21.8074 7.19466 22.7655 6.70431 23.4171 6.17417C 24.0844 5.6275 24.5451 4.95162 24.5451 4.16585L 23.5451 4.16585ZM 12.0225 7.83171C 8.74104 7.83319 5.81763 7.38021 3.68502 6.63912C 2.62936 6.27459 1.82672 5.86726 1.26165 5.40061C 0.712206 4.9505 0.499996 4.53046 0.499996 4.16585L -0.500004 4.16585C -0.500004 4.95162 -0.0393802 5.6275 0.627925 6.17417C 1.2796 6.70431 2.23762 7.19466 3.35761 7.584C 5.5763 8.35065 8.66416 8.83023 12.0225 8.83171L 12.0225 7.83171ZM 0.499996 4.16585C 0.499996 3.80125 0.712206 3.38121 1.26165 2.9311C 1.82672 2.46445 2.62936 2.05712 3.68502 1.69259C 5.81763 0.951503 8.74104 0.498522 12.0225 0.500002L 12.0225 -0.499998C 8.66416 -0.498518 5.5763 -0.0189411 3.35761 0.74771C 2.23762 1.13705 1.2796 1.6274 0.627925 2.15754C -0.0393802 2.70421 -0.500004 3.38009 -0.500004 4.16585L 0.499996 4.16585ZM 12.0225 0.500002C 15.304 0.498522 18.2274 0.951503 20.36 1.69259C 21.4157 2.05712 22.2183 2.46445 22.7834 2.9311C 23.3328 3.38121 23.5451 3.80125 23.5451 4.16585L 24.5451 4.16585C 24.5451 3.38009 24.0844 2.70421 23.4171 2.15754C 22.7655 1.6274 21.8074 1.13705 20.6874 0.74771C 18.4688 -0.0189411 15.3809 -0.498518 12.0225 -0.499998L 12.0225 0.500002Z"/>
<path id="path17_stroke" d="M 0.736603 0.614635C 0.736603 0.675151 0.686445 0.72927 0.618306 0.72927L 0.618306 1.72927C 1.23312 1.72927 1.7366 1.23303 1.7366 0.614635L 0.736603 0.614635ZM 0.618306 0.72927C 0.550155 0.72927 0.499998 0.67514 0.499998 0.614635L -0.500002 0.614635C -0.500002 1.23304 0.00349926 1.72927 0.618306 1.72927L 0.618306 0.72927ZM 0.499998 0.614635C 0.499998 0.55413 0.550155 0.5 0.618306 0.5L 0.618306 -0.5C 0.00349926 -0.5 -0.500002 -0.0037662 -0.500002 0.614635L 0.499998 0.614635ZM 0.618306 0.5C 0.686445 0.5 0.736603 0.554119 0.736603 0.614635L 1.7366 0.614635C 1.7366 -0.00375514 1.23312 -0.5 0.618306 -0.5L 0.618306 0.5Z"/>
<path id="path18_stroke" d="M 0.736603 0.614633C 0.736603 0.675149 0.686445 0.729268 0.618306 0.729268L 0.618306 1.72927C 1.23312 1.72927 1.7366 1.23302 1.7366 0.614633L 0.736603 0.614633ZM 0.618306 0.729268C 0.550155 0.729268 0.499998 0.675138 0.499998 0.614633L -0.500002 0.614633C -0.500002 1.23303 0.00349931 1.72927 0.618306 1.72927L 0.618306 0.729268ZM 0.499998 0.614633C 0.499998 0.554128 0.550155 0.499998 0.618306 0.499998L 0.618306 -0.500002C 0.00349925 -0.500002 -0.500002 -0.00376827 -0.500002 0.614633L 0.499998 0.614633ZM 0.618306 0.499998C 0.686445 0.499998 0.736603 0.554117 0.736603 0.614633L 1.7366 0.614633C 1.7366 -0.00375721 1.23312 -0.500002 0.618306 -0.500002L 0.618306 0.499998Z"/>
<path id="path19_stroke" d="M 0.736603 0.614636C 0.736603 0.675147 0.686451 0.729266 0.618306 0.729266L 0.618306 1.72927C 1.23312 1.72927 1.7366 1.23303 1.7366 0.614636L 0.736603 0.614636ZM 0.618306 0.729266C 0.55015 0.729266 0.499998 0.675135 0.499998 0.614636L -0.500002 0.614636C -0.500002 1.23304 0.0035048 1.72927 0.618306 1.72927L 0.618306 0.729266ZM 0.499998 0.614636C 0.499998 0.554131 0.550155 0.500001 0.618306 0.500001L 0.618306 -0.499999C 0.00349925 -0.499999 -0.500002 -0.00376512 -0.500002 0.614636L 0.499998 0.614636ZM 0.618306 0.500001C 0.686445 0.500001 0.736603 0.55412 0.736603 0.614636L 1.7366 0.614636C 1.7366 -0.00375406 1.23312 -0.499999 0.618306 -0.499999L 0.618306 0.500001Z"/>
<path id="path20_stroke" d="M -0.500008 -2.08413e-06L -0.500008 19.1219L 0.499992 19.1219L 0.499992 -2.08413e-06L -0.500008 -2.08413e-06ZM -0.500008 19.1219C -0.500008 19.9109 -0.043269 20.5893 0.623574 21.1384C 1.27372 21.67 2.23015 22.1601 3.3489 22.5482C 5.56485 23.3122 8.65256 23.7864 12.0225 23.7878L 12.0225 22.7878C 8.72857 22.7893 5.80502 22.3415 3.67568 21.6031C 2.62179 21.2399 1.82207 20.8337 1.25922 20.3664C 0.713079 19.9167 0.499992 19.494 0.499992 19.1219L -0.500008 19.1219ZM 12.0225 23.7878C 15.3925 23.7864 18.4802 23.3122 20.6961 22.5482C 21.8149 22.1601 22.7713 21.67 23.4215 21.1384C 24.0883 20.5893 24.5451 19.9109 24.5451 19.1219L 23.5451 19.1219C 23.5451 19.494 23.332 19.9167 22.7858 20.3664C 22.223 20.8337 21.4233 21.2399 20.3694 21.6031C 18.24 22.3415 15.3165 22.7893 12.0225 22.7878L 12.0225 23.7878ZM 24.5451 19.1219L 24.5451 -2.08413e-06L 23.5451 -2.08413e-06L 23.5451 19.1219L 24.5451 19.1219Z"/>
<path id="path21_stroke" d="M 23.5451 2.08413e-06C 23.5451 0.372042 23.332 0.794802 22.7858 1.2445C 22.223 1.71175 21.4233 2.11799 20.3694 2.48111C 18.24 3.21951 15.3165 3.6673 12.0225 3.66585L 12.0225 4.66585C 15.3925 4.6644 18.4802 4.19024 20.6961 3.42621C 21.8149 3.03811 22.7713 2.548 23.4215 2.01648C 24.0883 1.4674 24.5451 0.788938 24.5451 2.08413e-06L 23.5451 2.08413e-06ZM 12.0225 3.66585C 8.72857 3.6673 5.80502 3.21951 3.67568 2.48111C 2.62179 2.11799 1.82207 1.71175 1.25922 1.2445C 0.713079 0.794802 0.499992 0.372042 0.499992 2.08413e-06L -0.500008 2.08413e-06C -0.500008 0.788938 -0.0432689 1.4674 0.623574 2.01648C 1.27372 2.548 2.23015 3.03811 3.3489 3.42621C 5.56485 4.19024 8.65256 4.6644 12.0225 4.66585L 12.0225 3.66585Z"/>
<path id="path22_stroke" d="M 23.5451 0C 23.5451 0.37204 23.332 0.794801 22.7858 1.2445C 22.223 1.71176 21.4233 2.11799 20.3694 2.48111C 18.24 3.21952 15.3165 3.6673 12.0225 3.66586L 12.0225 4.66586C 15.3925 4.66441 18.4802 4.19025 20.6961 3.42621C 21.8149 3.03811 22.7713 2.548 23.4215 2.01648C 24.0883 1.46739 24.5451 0.788935 24.5451 0L 23.5451 0ZM 12.0225 3.66586C 8.72857 3.6673 5.80502 3.21952 3.67568 2.48111C 2.62179 2.11799 1.82207 1.71176 1.25922 1.2445C 0.713079 0.794801 0.499992 0.37204 0.499992 0L -0.500008 0C -0.500008 0.788935 -0.0432691 1.46739 0.623574 2.01648C 1.27372 2.548 2.23015 3.03811 3.3489 3.42621C 5.56485 4.19025 8.65256 4.66441 12.0225 4.66586L 12.0225 3.66586Z"/>
<path id="path23_stroke" d="M 23.5451 4.16585C 23.5451 4.53046 23.3328 4.95049 22.7834 5.40061C 22.2183 5.86726 21.4157 6.27458 20.36 6.63912C 18.2274 7.38021 15.304 7.83319 12.0225 7.83171L 12.0225 8.83171C 15.3809 8.83023 18.4688 8.35065 20.6874 7.584C 21.8074 7.19466 22.7655 6.70431 23.4171 6.17417C 24.0844 5.6275 24.5451 4.95161 24.5451 4.16585L 23.5451 4.16585ZM 12.0225 7.83171C 8.74103 7.83319 5.81762 7.38021 3.68501 6.63912C 2.62936 6.27458 1.82672 5.86726 1.26164 5.40061C 0.712202 4.95049 0.499992 4.53046 0.499992 4.16585L -0.500008 4.16585C -0.500008 4.95161 -0.0393844 5.6275 0.627921 6.17417C 1.27959 6.70431 2.23761 7.19466 3.35761 7.584C 5.5763 8.35065 8.66416 8.83023 12.0225 8.83171L 12.0225 7.83171ZM 0.499992 4.16585C 0.499992 3.80124 0.712201 3.38121 1.26164 2.9311C 1.82672 2.46445 2.62936 2.05712 3.68501 1.69259C 5.81762 0.951504 8.74103 0.498524 12.0225 0.500004L 12.0225 -0.499996C 8.66416 -0.498516 5.5763 -0.0189404 3.35761 0.747709C 2.23761 1.13705 1.27959 1.62739 0.627921 2.15753C -0.0393843 2.70421 -0.500008 3.38009 -0.500008 4.16585L 0.499992 4.16585ZM 12.0225 0.500004C 15.304 0.498524 18.2274 0.951504 20.36 1.69259C 21.4157 2.05712 22.2183 2.46445 22.7834 2.9311C 23.3328 3.38121 23.5451 3.80124 23.5451 4.16585L 24.5451 4.16585C 24.5451 3.38009 24.0844 2.70421 23.4171 2.15753C 22.7655 1.62739 21.8074 1.13705 20.6874 0.747709C 18.4688 -0.0189404 15.3809 -0.498516 12.0225 -0.499996L 12.0225 0.500004Z"/>
<path id="path24_stroke" d="M 0.736599 0.614632C 0.736599 0.675153 0.686436 0.729272 0.618302 0.729272L 0.618302 1.72927C 1.23313 1.72927 1.7366 1.23302 1.7366 0.614632L 0.736599 0.614632ZM 0.618302 0.729272C 0.550168 0.729272 0.500004 0.675153 0.500004 0.614632L -0.499996 0.614632C -0.499996 1.23302 0.00347837 1.72927 0.618302 1.72927L 0.618302 0.729272ZM 0.500004 0.614632C 0.500004 0.554122 0.550157 0.500002 0.618302 0.500002L 0.618302 -0.499998C 0.00348949 -0.499998 -0.499996 -0.00376381 -0.499996 0.614632L 0.500004 0.614632ZM 0.618302 0.500002C 0.686447 0.500002 0.736599 0.554122 0.736599 0.614632L 1.7366 0.614632C 1.7366 -0.00376383 1.23311 -0.499998 0.618302 -0.499998L 0.618302 0.500002Z"/>
<path id="path25_stroke" d="M 0.736599 0.61463C 0.736599 0.675151 0.686436 0.72927 0.618302 0.72927L 0.618302 1.72927C 1.23313 1.72927 1.7366 1.23301 1.7366 0.61463L 0.736599 0.61463ZM 0.618302 0.72927C 0.550168 0.72927 0.500004 0.675151 0.500004 0.61463L -0.499996 0.61463C -0.499996 1.23301 0.00347841 1.72927 0.618302 1.72927L 0.618302 0.72927ZM 0.500004 0.61463C 0.500004 0.55412 0.550157 0.5 0.618302 0.5L 0.618302 -0.5C 0.00348948 -0.5 -0.499996 -0.00376588 -0.499996 0.61463L 0.500004 0.61463ZM 0.618302 0.5C 0.686447 0.5 0.736599 0.55412 0.736599 0.61463L 1.7366 0.61463C 1.7366 -0.0037659 1.23311 -0.5 0.618302 -0.5L 0.618302 0.5Z"/>
<path id="path26_stroke" d="M 0.736599 0.614638C 0.736599 0.675148 0.686447 0.729268 0.618302 0.729268L 0.618302 1.72927C 1.23311 1.72927 1.7366 1.23303 1.7366 0.614638L 0.736599 0.614638ZM 0.618302 0.729268C 0.550157 0.729268 0.500004 0.675148 0.500004 0.614638L -0.499996 0.614638C -0.499996 1.23303 0.00348953 1.72927 0.618302 1.72927L 0.618302 0.729268ZM 0.500004 0.614638C 0.500004 0.554117 0.550168 0.499998 0.618302 0.499998L 0.618302 -0.500002C 0.0034784 -0.500002 -0.499996 -0.00374652 -0.499996 0.614638L 0.500004 0.614638ZM 0.618302 0.499998C 0.686436 0.499998 0.736599 0.554117 0.736599 0.614638L 1.7366 0.614638C 1.7366 -0.00374654 1.23313 -0.500002 0.618302 -0.500002L 0.618302 0.499998Z"/>
<path id="path27_stroke" d="M -0.500008 -2.60516e-07L -0.500008 19.122L 0.499992 19.122L 0.499992 -2.60516e-07L -0.500008 -2.60516e-07ZM -0.500008 19.122C -0.500008 19.9109 -0.0432689 20.5893 0.623574 21.1384C 1.27372 21.67 2.23015 22.1601 3.3489 22.5482C 5.56485 23.3122 8.65256 23.7864 12.0225 23.7878L 12.0225 22.7878C 8.72857 22.7893 5.80502 22.3415 3.67568 21.6031C 2.62179 21.2399 1.82207 20.8337 1.25922 20.3665C 0.713079 19.9168 0.499992 19.494 0.499992 19.122L -0.500008 19.122ZM 12.0225 23.7878C 15.3925 23.7864 18.4802 23.3122 20.6961 22.5482C 21.8149 22.1601 22.7713 21.67 23.4215 21.1384C 24.0883 20.5893 24.5451 19.9109 24.5451 19.122L 23.5451 19.122C 23.5451 19.494 23.332 19.9168 22.7858 20.3665C 22.223 20.8337 21.4233 21.2399 20.3694 21.6031C 18.24 22.3415 15.3165 22.7893 12.0225 22.7878L 12.0225 23.7878ZM 24.5451 19.122L 24.5451 -2.60516e-07L 23.5451 -2.60516e-07L 23.5451 19.122L 24.5451 19.122Z"/>
<path id="path28_stroke" d="M 23.5451 0C 23.5451 0.37204 23.332 0.794801 22.7858 1.2445C 22.223 1.71175 21.4233 2.11799 20.3694 2.48111C 18.24 3.21951 15.3165 3.6673 12.0225 3.66585L 12.0225 4.66585C 15.3925 4.66441 18.4802 4.19024 20.6961 3.42621C 21.8149 3.03811 22.7713 2.548 23.4215 2.01648C 24.0883 1.46739 24.5451 0.788935 24.5451 0L 23.5451 0ZM 12.0225 3.66585C 8.72857 3.6673 5.80502 3.21951 3.67568 2.48111C 2.62179 2.11799 1.82207 1.71175 1.25922 1.2445C 0.713079 0.794801 0.499992 0.37204 0.499992 0L -0.500008 0C -0.500008 0.788936 -0.043269 1.46739 0.623574 2.01648C 1.27372 2.548 2.23015 3.03811 3.3489 3.42621C 5.56485 4.19024 8.65256 4.66441 12.0225 4.66585L 12.0225 3.66585Z"/>
<path id="path29_stroke" d="M 23.5451 5.21032e-07C 23.5451 0.372041 23.332 0.794801 22.7858 1.2445C 22.223 1.71175 21.4233 2.11799 20.3694 2.48111C 18.24 3.21951 15.3165 3.6673 12.0225 3.66585L 12.0225 4.66585C 15.3925 4.66441 18.4802 4.19024 20.6961 3.42621C 21.8149 3.03811 22.7713 2.548 23.4215 2.01648C 24.0883 1.4674 24.5451 0.788936 24.5451 5.21032e-07L 23.5451 5.21032e-07ZM 12.0225 3.66585C 8.72857 3.6673 5.80502 3.21951 3.67568 2.48111C 2.62179 2.11799 1.82207 1.71175 1.25922 1.2445C 0.713079 0.794801 0.499992 0.372041 0.499992 5.21032e-07L -0.500008 5.21032e-07C -0.500008 0.788936 -0.043269 1.4674 0.623574 2.01648C 1.27372 2.548 2.23015 3.03811 3.3489 3.42621C 5.56485 4.19024 8.65256 4.66441 12.0225 4.66585L 12.0225 3.66585Z"/>
<path id="path30_stroke" d="M 23.5451 4.16585C 23.5451 4.53046 23.3328 4.95049 22.7834 5.40061C 22.2183 5.86726 21.4157 6.27458 20.36 6.63912C 18.2274 7.38021 15.304 7.83319 12.0225 7.83171L 12.0225 8.83171C 15.3809 8.83023 18.4688 8.35065 20.6874 7.584C 21.8074 7.19466 22.7655 6.70431 23.4171 6.17417C 24.0844 5.6275 24.5451 4.95161 24.5451 4.16585L 23.5451 4.16585ZM 12.0225 7.83171C 8.74103 7.83319 5.81762 7.38021 3.68501 6.63912C 2.62936 6.27458 1.82672 5.86726 1.26164 5.40061C 0.712202 4.95049 0.499992 4.53046 0.499992 4.16585L -0.500008 4.16585C -0.500008 4.95161 -0.0393844 5.6275 0.627921 6.17417C 1.27959 6.70431 2.23761 7.19466 3.35761 7.584C 5.5763 8.35065 8.66416 8.83023 12.0225 8.83171L 12.0225 7.83171ZM 0.499992 4.16585C 0.499992 3.80125 0.712202 3.38121 1.26164 2.9311C 1.82672 2.46445 2.62936 2.05712 3.68501 1.69259C 5.81762 0.951501 8.74103 0.49852 12.0225 0.5L 12.0225 -0.5C 8.66416 -0.49852 5.5763 -0.0189429 3.35761 0.747708C 2.23761 1.13705 1.27959 1.62739 0.627921 2.15753C -0.0393844 2.70421 -0.500008 3.38009 -0.500008 4.16585L 0.499992 4.16585ZM 12.0225 0.5C 15.304 0.49852 18.2274 0.951501 20.36 1.69259C 21.4157 2.05712 22.2183 2.46445 22.7834 2.9311C 23.3328 3.38121 23.5451 3.80125 23.5451 4.16585L 24.5451 4.16585C 24.5451 3.38009 24.0844 2.70421 23.4171 2.15753C 22.7655 1.62739 21.8074 1.13705 20.6874 0.747708C 18.4688 -0.0189429 15.3809 -0.49852 12.0225 -0.5L 12.0225 0.5Z"/>
<path id="path31_stroke" d="M 0.736599 0.614634C 0.736599 0.675148 0.686443 0.729268 0.618302 0.729268L 0.618302 1.72927C 1.23312 1.72927 1.7366 1.23303 1.7366 0.614634L 0.736599 0.614634ZM 0.618302 0.729268C 0.550161 0.729268 0.500004 0.675148 0.500004 0.614634L -0.499996 0.614634C -0.499996 1.23303 0.00348533 1.72927 0.618302 1.72927L 0.618302 0.729268ZM 0.500004 0.614634C 0.500004 0.554119 0.550161 0.5 0.618302 0.5L 0.618302 -0.5C 0.00348533 -0.5 -0.499996 -0.00375784 -0.499996 0.614634L 0.500004 0.614634ZM 0.618302 0.5C 0.686443 0.5 0.736599 0.554119 0.736599 0.614634L 1.7366 0.614634C 1.7366 -0.00375786 1.23312 -0.5 0.618302 -0.5L 0.618302 0.5Z"/>
<path id="path32_stroke" d="M 0.736599 0.614634C 0.736599 0.675149 0.686443 0.729268 0.618302 0.729268L 0.618302 1.72927C 1.23312 1.72927 1.7366 1.23303 1.7366 0.614634L 0.736599 0.614634ZM 0.618302 0.729268C 0.550161 0.729268 0.500004 0.675149 0.500004 0.614634L -0.499996 0.614634C -0.499996 1.23303 0.00348537 1.72927 0.618302 1.72927L 0.618302 0.729268ZM 0.500004 0.614634C 0.500004 0.55412 0.550161 0.500001 0.618302 0.500001L 0.618302 -0.499999C 0.00348532 -0.499999 -0.499996 -0.00375731 -0.499996 0.614634L 0.500004 0.614634ZM 0.618302 0.500001C 0.686443 0.500001 0.736599 0.55412 0.736599 0.614634L 1.7366 0.614634C 1.7366 -0.00375732 1.23312 -0.499999 0.618302 -0.499999L 0.618302 0.500001Z"/>
<path id="path33_stroke" d="M 0.736599 0.614634C 0.736599 0.675149 0.686441 0.729269 0.618302 0.729269L 0.618302 1.72927C 1.23312 1.72927 1.7366 1.23302 1.7366 0.614634L 0.736599 0.614634ZM 0.618302 0.729269C 0.550162 0.729269 0.500004 0.675149 0.500004 0.614634L -0.499996 0.614634C -0.499996 1.23302 0.00348395 1.72927 0.618302 1.72927L 0.618302 0.729269ZM 0.500004 0.614634C 0.500004 0.554121 0.55016 0.500001 0.618302 0.500001L 0.618302 -0.499999C 0.0034867 -0.499999 -0.499996 -0.00375945 -0.499996 0.614634L 0.500004 0.614634ZM 0.618302 0.500001C 0.686444 0.500001 0.736599 0.554121 0.736599 0.614634L 1.7366 0.614634C 1.7366 -0.00375946 1.23312 -0.499999 0.618302 -0.499999L 0.618302 0.500001Z"/>
<path id="path34_stroke" d="M -0.500008 -8.33651e-06L -0.500008 19.1219L 0.499992 19.1219L 0.499992 -8.33651e-06L -0.500008 -8.33651e-06ZM -0.500008 19.1219C -0.500008 19.9109 -0.043269 20.5893 0.623574 21.1384C 1.27372 21.6699 2.23015 22.1601 3.3489 22.5482C 5.56485 23.3122 8.65256 23.7864 12.0225 23.7878L 12.0225 22.7878C 8.72857 22.7892 5.80502 22.3415 3.67568 21.6031C 2.62179 21.2399 1.82207 20.8337 1.25922 20.3664C 0.713079 19.9167 0.499992 19.494 0.499992 19.1219L -0.500008 19.1219ZM 12.0225 23.7878C 15.3925 23.7864 18.4802 23.3122 20.6961 22.5482C 21.8149 22.1601 22.7713 21.6699 23.4215 21.1384C 24.0883 20.5893 24.5451 19.9109 24.5451 19.1219L 23.5451 19.1219C 23.5451 19.494 23.332 19.9167 22.7858 20.3664C 22.223 20.8337 21.4233 21.2399 20.3694 21.6031C 18.24 22.3415 15.3165 22.7892 12.0225 22.7878L 12.0225 23.7878ZM 24.5451 19.1219L 24.5451 -8.33651e-06L 23.5451 -8.33651e-06L 23.5451 19.1219L 24.5451 19.1219Z"/>
<path id="path35_stroke" d="M 23.5451 -4.16826e-06C 23.5451 0.372036 23.332 0.794797 22.7858 1.2445C 22.223 1.71175 21.4233 2.11799 20.3694 2.48111C 18.24 3.21951 15.3165 3.6673 12.0225 3.66585L 12.0225 4.66585C 15.3925 4.66441 18.4802 4.19024 20.6961 3.42621C 21.8149 3.03811 22.7713 2.548 23.4215 2.01647C 24.0883 1.46739 24.5451 0.788931 24.5451 -4.16826e-06L 23.5451 -4.16826e-06ZM 12.0225 3.66585C 8.72857 3.6673 5.80502 3.21951 3.67568 2.48111C 2.62179 2.11799 1.82207 1.71175 1.25922 1.2445C 0.713079 0.794797 0.499992 0.372036 0.499992 -4.16826e-06L -0.500008 -4.16826e-06C -0.500008 0.788931 -0.0432691 1.46739 0.623574 2.01647C 1.27372 2.548 2.23015 3.03811 3.3489 3.42621C 5.56485 4.19024 8.65256 4.66441 12.0225 4.66585L 12.0225 3.66585Z"/>
<path id="path36_stroke" d="M 23.5451 4.16826e-06C 23.5451 0.372045 23.332 0.794805 22.7858 1.2445C 22.223 1.71176 21.4233 2.118 20.3694 2.48112C 18.24 3.21952 15.3165 3.66731 12.0225 3.66586L 12.0225 4.66586C 15.3925 4.66442 18.4802 4.19025 20.6961 3.42622C 21.8149 3.03811 22.7713 2.54801 23.4215 2.01648C 24.0883 1.4674 24.5451 0.78894 24.5451 4.16826e-06L 23.5451 4.16826e-06ZM 12.0225 3.66586C 8.72857 3.66731 5.80502 3.21952 3.67568 2.48112C 2.62179 2.118 1.82207 1.71176 1.25922 1.2445C 0.713079 0.794805 0.499992 0.372044 0.499992 4.16826e-06L -0.500008 4.16826e-06C -0.500008 0.78894 -0.0432691 1.4674 0.623574 2.01648C 1.27372 2.54801 2.23015 3.03811 3.3489 3.42622C 5.56485 4.19025 8.65256 4.66442 12.0225 4.66586L 12.0225 3.66586Z"/>
<path id="path37_stroke" d="M 23.5451 4.16585C 23.5451 4.53045 23.3328 4.95049 22.7834 5.4006C 22.2183 5.86726 21.4157 6.27458 20.36 6.63911C 18.2274 7.3802 15.304 7.83318 12.0225 7.8317L 12.0225 8.8317C 15.3809 8.83022 18.4688 8.35065 20.6874 7.58399C 21.8074 7.19465 22.7655 6.70431 23.4171 6.17417C 24.0844 5.62749 24.5451 4.95161 24.5451 4.16585L 23.5451 4.16585ZM 12.0225 7.8317C 8.74103 7.83318 5.81762 7.3802 3.68501 6.63911C 2.62936 6.27458 1.82672 5.86726 1.26164 5.4006C 0.712202 4.95049 0.499992 4.53045 0.499992 4.16585L -0.500008 4.16585C -0.500008 4.95161 -0.0393844 5.62749 0.627921 6.17417C 1.27959 6.70431 2.23761 7.19465 3.35761 7.58399C 5.5763 8.35065 8.66416 8.83022 12.0225 8.8317L 12.0225 7.8317ZM 0.499992 4.16585C 0.499992 3.80124 0.712201 3.38121 1.26164 2.93109C 1.82672 2.46444 2.62936 2.05712 3.68501 1.69259C 5.81762 0.951505 8.74103 0.498529 12.0225 0.500008L 12.0225 -0.499992C 8.66416 -0.498512 5.5763 -0.0189389 3.35761 0.747708C 2.23761 1.13705 1.27959 1.62739 0.627922 2.15753C -0.0393841 2.7042 -0.500008 3.38009 -0.500008 4.16585L 0.499992 4.16585ZM 12.0225 0.500008C 15.304 0.498529 18.2274 0.951505 20.36 1.69259C 21.4157 2.05712 22.2183 2.46444 22.7834 2.93109C 23.3328 3.38121 23.5451 3.80124 23.5451 4.16585L 24.5451 4.16585C 24.5451 3.38009 24.0844 2.7042 23.4171 2.15753C 22.7655 1.62739 21.8074 1.13705 20.6874 0.747708C 18.4688 -0.0189389 15.3809 -0.498512 12.0225 -0.499992L 12.0225 0.500008Z"/>
<path id="path38_stroke" d="M 0.736599 0.614626C 0.736599 0.675158 0.686425 0.729277 0.618302 0.729277L 0.618302 1.72928C 1.23314 1.72928 1.7366 1.233 1.7366 0.614626L 0.736599 0.614626ZM 0.618302 0.729277C 0.550179 0.729277 0.500004 0.675158 0.500004 0.614626L -0.499996 0.614626C -0.499996 1.233 0.00346734 1.72928 0.618302 1.72928L 0.618302 0.729277ZM 0.500004 0.614626C 0.500004 0.554116 0.550157 0.499996 0.618302 0.499996L 0.618302 -0.500004C 0.00348947 -0.500004 -0.499996 -0.00377002 -0.499996 0.614626L 0.500004 0.614626ZM 0.618302 0.499996C 0.686447 0.499996 0.736599 0.554116 0.736599 0.614626L 1.7366 0.614626C 1.7366 -0.00377003 1.23311 -0.500004 0.618302 -0.500004L 0.618302 0.499996Z"/>
<path id="path39_stroke" d="M 0.736599 0.614634C 0.736599 0.675144 0.686447 0.729264 0.618302 0.729264L 0.618302 1.72926C 1.23311 1.72926 1.7366 1.23303 1.7366 0.614634L 0.736599 0.614634ZM 0.618302 0.729264C 0.550157 0.729264 0.500004 0.675144 0.500004 0.614634L -0.499996 0.614634C -0.499996 1.23303 0.00348948 1.72926 0.618302 1.72926L 0.618302 0.729264ZM 0.500004 0.614634C 0.500004 0.554124 0.550157 0.500004 0.618302 0.500004L 0.618302 -0.499996C 0.0034895 -0.499996 -0.499996 -0.00376175 -0.499996 0.614634L 0.500004 0.614634ZM 0.618302 0.500004C 0.686447 0.500004 0.736599 0.554124 0.736599 0.614634L 1.7366 0.614634C 1.7366 -0.00376176 1.23311 -0.499996 0.618302 -0.499996L 0.618302 0.500004Z"/>
<path id="path40_stroke" d="M 0.736599 0.614642C 0.736599 0.675153 0.686447 0.729272 0.618302 0.729272L 0.618302 1.72927C 1.23311 1.72927 1.7366 1.23304 1.7366 0.614642L 0.736599 0.614642ZM 0.618302 0.729272C 0.550157 0.729272 0.500004 0.675153 0.500004 0.614642L -0.499996 0.614642C -0.499996 1.23304 0.00348944 1.72927 0.618302 1.72927L 0.618302 0.729272ZM 0.500004 0.614642C 0.500004 0.55411 0.550179 0.499992 0.618302 0.499992L 0.618302 -0.500008C 0.00346734 -0.500008 -0.499996 -0.00373138 -0.499996 0.614642L 0.500004 0.614642ZM 0.618302 0.499992C 0.686425 0.499992 0.736599 0.55411 0.736599 0.614642L 1.7366 0.614642C 1.7366 -0.00373139 1.23314 -0.500008 0.618302 -0.500008L 0.618302 0.499992Z"/>
<path id="path41_stroke" d="M -0.500001 -8.33651e-06L -0.500001 19.1219L 0.499999 19.1219L 0.499999 -8.33651e-06L -0.500001 -8.33651e-06ZM -0.500001 19.1219C -0.500001 19.9109 -0.0432618 20.5893 0.623581 21.1384C 1.27372 21.6699 2.23015 22.1601 3.34891 22.5482C 5.56485 23.3122 8.65256 23.7864 12.0225 23.7878L 12.0225 22.7878C 8.72858 22.7892 5.80502 22.3415 3.67569 21.6031C 2.6218 21.2399 1.82208 20.8337 1.25923 20.3664C 0.713086 19.9167 0.499999 19.494 0.499999 19.1219L -0.500001 19.1219ZM 12.0225 23.7878C 15.3925 23.7864 18.4802 23.3122 20.6962 22.5482C 21.8149 22.1601 22.7713 21.6699 23.4215 21.1384C 24.0883 20.5893 24.5451 19.9109 24.5451 19.1219L 23.5451 19.1219C 23.5451 19.494 23.332 19.9167 22.7858 20.3664C 22.223 20.8337 21.4233 21.2399 20.3694 21.6031C 18.24 22.3415 15.3165 22.7892 12.0225 22.7878L 12.0225 23.7878ZM 24.5451 19.1219L 24.5451 -8.33651e-06L 23.5451 -8.33651e-06L 23.5451 19.1219L 24.5451 19.1219Z"/>
<path id="path42_stroke" d="M 23.5451 -4.16826e-06C 23.5451 0.372036 23.332 0.794797 22.7858 1.2445C 22.223 1.71175 21.4233 2.11799 20.3694 2.48111C 18.24 3.21951 15.3165 3.6673 12.0225 3.66585L 12.0225 4.66585C 15.3925 4.66441 18.4802 4.19024 20.6962 3.42621C 21.8149 3.03811 22.7713 2.548 23.4215 2.01647C 24.0883 1.46739 24.5451 0.788931 24.5451 -4.16826e-06L 23.5451 -4.16826e-06ZM 12.0225 3.66585C 8.72858 3.6673 5.80502 3.21951 3.67569 2.48111C 2.6218 2.11799 1.82208 1.71175 1.25923 1.2445C 0.713086 0.794797 0.499999 0.372036 0.499999 -4.16826e-06L -0.500001 -4.16826e-06C -0.500001 0.788931 -0.0432618 1.46739 0.623581 2.01647C 1.27372 2.548 2.23015 3.03811 3.34891 3.42621C 5.56485 4.19024 8.65256 4.66441 12.0225 4.66585L 12.0225 3.66585Z"/>
<path id="path43_stroke" d="M 23.5451 4.16826e-06C 23.5451 0.372044 23.332 0.794805 22.7858 1.2445C 22.223 1.71176 21.4233 2.118 20.3694 2.48112C 18.24 3.21952 15.3165 3.66731 12.0225 3.66586L 12.0225 4.66586C 15.3925 4.66442 18.4802 4.19025 20.6962 3.42622C 21.8149 3.03811 22.7713 2.54801 23.4215 2.01648C 24.0883 1.4674 24.5451 0.78894 24.5451 4.16826e-06L 23.5451 4.16826e-06ZM 12.0225 3.66586C 8.72858 3.66731 5.80502 3.21952 3.67569 2.48112C 2.6218 2.118 1.82208 1.71176 1.25923 1.2445C 0.713086 0.794805 0.499999 0.372045 0.499999 4.16826e-06L -0.500001 4.16826e-06C -0.500001 0.78894 -0.0432618 1.4674 0.623581 2.01648C 1.27372 2.54801 2.23015 3.03811 3.34891 3.42622C 5.56485 4.19025 8.65256 4.66442 12.0225 4.66586L 12.0225 3.66586Z"/>
<path id="path44_stroke" d="M 23.5451 4.16585C 23.5451 4.53045 23.3329 4.95049 22.7834 5.4006C 22.2183 5.86726 21.4157 6.27458 20.36 6.63911C 18.2274 7.3802 15.304 7.83318 12.0225 7.8317L 12.0225 8.8317C 15.3809 8.83022 18.4688 8.35065 20.6874 7.58399C 21.8074 7.19465 22.7655 6.70431 23.4171 6.17417C 24.0844 5.62749 24.5451 4.95161 24.5451 4.16585L 23.5451 4.16585ZM 12.0225 7.8317C 8.74104 7.83318 5.81763 7.3802 3.68502 6.63911C 2.62936 6.27458 1.82672 5.86726 1.26165 5.4006C 0.712209 4.95049 0.499999 4.53045 0.499999 4.16585L -0.500001 4.16585C -0.500001 4.95161 -0.0393772 5.62749 0.627928 6.17417C 1.2796 6.70431 2.23762 7.19465 3.35761 7.58399C 5.5763 8.35065 8.66416 8.83022 12.0225 8.8317L 12.0225 7.8317ZM 0.499999 4.16585C 0.499999 3.80124 0.712209 3.38121 1.26165 2.93109C 1.82672 2.46444 2.62936 2.05712 3.68502 1.69259C 5.81763 0.951505 8.74104 0.498529 12.0225 0.500008L 12.0225 -0.499992C 8.66416 -0.498512 5.5763 -0.0189389 3.35761 0.747708C 2.23762 1.13705 1.2796 1.62739 0.627929 2.15753C -0.0393768 2.7042 -0.500001 3.38009 -0.500001 4.16585L 0.499999 4.16585ZM 12.0225 0.500008C 15.304 0.498529 18.2274 0.951505 20.36 1.69259C 21.4157 2.05712 22.2183 2.46444 22.7834 2.93109C 23.3329 3.38121 23.5451 3.80124 23.5451 4.16585L 24.5451 4.16585C 24.5451 3.38009 24.0844 2.7042 23.4171 2.15753C 22.7655 1.62739 21.8074 1.13705 20.6874 0.747708C 18.4688 -0.0189389 15.3809 -0.498512 12.0225 -0.499992L 12.0225 0.500008Z"/>
<path id="path45_stroke" d="M 0.736601 0.614626C 0.736601 0.675158 0.686427 0.729277 0.618304 0.729277L 0.618304 1.72928C 1.23314 1.72928 1.7366 1.233 1.7366 0.614626L 0.736601 0.614626ZM 0.618304 0.729277C 0.550175 0.729277 0.500001 0.675153 0.500001 0.614626L -0.499999 0.614626C -0.499999 1.23301 0.00347504 1.72928 0.618304 1.72928L 0.618304 0.729277ZM 0.500001 0.614626C 0.500001 0.554121 0.550153 0.499996 0.618304 0.499996L 0.618304 -0.500004C 0.00349717 -0.500004 -0.499999 -0.00377555 -0.499999 0.614626L 0.500001 0.614626ZM 0.618304 0.499996C 0.686449 0.499996 0.736601 0.554116 0.736601 0.614626L 1.7366 0.614626C 1.7366 -0.00377003 1.23312 -0.500004 0.618304 -0.500004L 0.618304 0.499996Z"/>
<path id="path46_stroke" d="M 0.736601 0.614634C 0.736601 0.675144 0.686449 0.729264 0.618304 0.729264L 0.618304 1.72926C 1.23312 1.72926 1.7366 1.23303 1.7366 0.614634L 0.736601 0.614634ZM 0.618304 0.729264C 0.550153 0.729264 0.500001 0.675139 0.500001 0.614634L -0.499999 0.614634C -0.499999 1.23304 0.00349718 1.72926 0.618304 1.72926L 0.618304 0.729264ZM 0.500001 0.614634C 0.500001 0.554129 0.550153 0.500004 0.618304 0.500004L 0.618304 -0.499996C 0.0034972 -0.499996 -0.499999 -0.00376728 -0.499999 0.614634L 0.500001 0.614634ZM 0.618304 0.500004C 0.686449 0.500004 0.736601 0.554124 0.736601 0.614634L 1.7366 0.614634C 1.7366 -0.00376176 1.23312 -0.499996 0.618304 -0.499996L 0.618304 0.500004Z"/>
<path id="path47_stroke" d="M 0.736601 0.614642C 0.736601 0.675153 0.686449 0.729272 0.618304 0.729272L 0.618304 1.72927C 1.23312 1.72927 1.7366 1.23304 1.7366 0.614642L 0.736601 0.614642ZM 0.618304 0.729272C 0.550153 0.729272 0.500001 0.675147 0.500001 0.614642L -0.499999 0.614642C -0.499999 1.23304 0.00349714 1.72927 0.618304 1.72927L 0.618304 0.729272ZM 0.500001 0.614642C 0.500001 0.554116 0.550175 0.499992 0.618304 0.499992L 0.618304 -0.500008C 0.00347505 -0.500008 -0.499999 -0.00373691 -0.499999 0.614642L 0.500001 0.614642ZM 0.618304 0.499992C 0.686427 0.499992 0.736601 0.55411 0.736601 0.614642L 1.7366 0.614642C 1.7366 -0.00373139 1.23314 -0.500008 0.618304 -0.500008L 0.618304 0.499992Z"/>
<path id="path48_stroke" d="M -0.500001 -2.60516e-07L -0.500001 19.122L 0.499999 19.122L 0.499999 -2.60516e-07L -0.500001 -2.60516e-07ZM -0.500001 19.122C -0.500001 19.9109 -0.0432617 20.5893 0.623581 21.1384C 1.27372 21.67 2.23015 22.1601 3.34891 22.5482C 5.56485 23.3122 8.65256 23.7864 12.0225 23.7878L 12.0225 22.7878C 8.72858 22.7893 5.80502 22.3415 3.67569 21.6031C 2.62179 21.2399 1.82208 20.8337 1.25923 20.3665C 0.713086 19.9168 0.499999 19.494 0.499999 19.122L -0.500001 19.122ZM 12.0225 23.7878C 15.3925 23.7864 18.4802 23.3122 20.6962 22.5482C 21.8149 22.1601 22.7713 21.67 23.4215 21.1384C 24.0883 20.5893 24.5451 19.9109 24.5451 19.122L 23.5451 19.122C 23.5451 19.494 23.332 19.9168 22.7858 20.3665C 22.223 20.8337 21.4233 21.2399 20.3694 21.6031C 18.24 22.3415 15.3165 22.7893 12.0225 22.7878L 12.0225 23.7878ZM 24.5451 19.122L 24.5451 -2.60516e-07L 23.5451 -2.60516e-07L 23.5451 19.122L 24.5451 19.122Z"/>
<path id="path49_stroke" d="M 23.5451 0C 23.5451 0.37204 23.332 0.794801 22.7858 1.2445C 22.223 1.71175 21.4233 2.11799 20.3694 2.48111C 18.24 3.21951 15.3165 3.6673 12.0225 3.66585L 12.0225 4.66585C 15.3925 4.66441 18.4802 4.19024 20.6962 3.42621C 21.8149 3.03811 22.7713 2.548 23.4215 2.01648C 24.0883 1.46739 24.5451 0.788936 24.5451 0L 23.5451 0ZM 12.0225 3.66585C 8.72858 3.6673 5.80502 3.21951 3.67569 2.48111C 2.62179 2.11799 1.82208 1.71175 1.25923 1.2445C 0.713086 0.794801 0.499999 0.37204 0.499999 0L -0.500001 0C -0.500001 0.788935 -0.0432617 1.46739 0.623581 2.01648C 1.27372 2.548 2.23015 3.03811 3.34891 3.42621C 5.56485 4.19024 8.65256 4.66441 12.0225 4.66585L 12.0225 3.66585Z"/>
<path id="path50_stroke" d="M 23.5451 5.21032e-07C 23.5451 0.372041 23.332 0.794801 22.7858 1.2445C 22.223 1.71175 21.4233 2.11799 20.3694 2.48111C 18.24 3.21951 15.3165 3.6673 12.0225 3.66585L 12.0225 4.66585C 15.3925 4.66441 18.4802 4.19024 20.6962 3.42621C 21.8149 3.03811 22.7713 2.548 23.4215 2.01648C 24.0883 1.4674 24.5451 0.788936 24.5451 5.21032e-07L 23.5451 5.21032e-07ZM 12.0225 3.66585C 8.72858 3.6673 5.80502 3.21951 3.67569 2.48111C 2.62179 2.11799 1.82208 1.71175 1.25923 1.2445C 0.713086 0.794801 0.499999 0.372041 0.499999 5.21032e-07L -0.500001 5.21032e-07C -0.500001 0.788936 -0.0432617 1.4674 0.623581 2.01648C 1.27372 2.548 2.23015 3.03811 3.34891 3.42621C 5.56485 4.19024 8.65256 4.66441 12.0225 4.66585L 12.0225 3.66585Z"/>
<path id="path51_stroke" d="M 23.5451 4.16585C 23.5451 4.53046 23.3329 4.95049 22.7834 5.40061C 22.2183 5.86726 21.4157 6.27458 20.36 6.63912C 18.2274 7.38021 15.304 7.83319 12.0225 7.83171L 12.0225 8.83171C 15.3809 8.83023 18.4688 8.35065 20.6874 7.584C 21.8074 7.19466 22.7655 6.70431 23.4171 6.17417C 24.0844 5.6275 24.5451 4.95161 24.5451 4.16585L 23.5451 4.16585ZM 12.0225 7.83171C 8.74104 7.83319 5.81763 7.38021 3.68502 6.63912C 2.62936 6.27458 1.82672 5.86726 1.26165 5.40061C 0.712209 4.95049 0.499999 4.53046 0.499999 4.16585L -0.500001 4.16585C -0.500001 4.95161 -0.0393771 5.6275 0.627928 6.17417C 1.2796 6.70431 2.23762 7.19466 3.35761 7.584C 5.5763 8.35065 8.66416 8.83023 12.0225 8.83171L 12.0225 7.83171ZM 0.499999 4.16585C 0.499999 3.80125 0.712209 3.38121 1.26165 2.9311C 1.82672 2.46445 2.62936 2.05712 3.68502 1.69259C 5.81763 0.951501 8.74104 0.49852 12.0225 0.5L 12.0225 -0.5C 8.66416 -0.49852 5.5763 -0.0189429 3.35761 0.747708C 2.23762 1.13705 1.2796 1.62739 0.627928 2.15753C -0.0393771 2.70421 -0.500001 3.38009 -0.500001 4.16585L 0.499999 4.16585ZM 12.0225 0.5C 15.304 0.49852 18.2274 0.951501 20.36 1.69259C 21.4157 2.05712 22.2183 2.46445 22.7834 2.9311C 23.3329 3.38121 23.5451 3.80125 23.5451 4.16585L 24.5451 4.16585C 24.5451 3.38009 24.0844 2.70421 23.4171 2.15753C 22.7655 1.62739 21.8074 1.13705 20.6874 0.747708C 18.4688 -0.0189429 15.3809 -0.49852 12.0225 -0.5L 12.0225 0.5Z"/>
<path id="path52_stroke" d="M 0.736601 0.614634C 0.736601 0.675148 0.686445 0.729268 0.618304 0.729268L 0.618304 1.72927C 1.23312 1.72927 1.7366 1.23303 1.7366 0.614634L 0.736601 0.614634ZM 0.618304 0.729268C 0.550157 0.729268 0.500001 0.675143 0.500001 0.614634L -0.499999 0.614634C -0.499999 1.23303 0.00349303 1.72927 0.618304 1.72927L 0.618304 0.729268ZM 0.500001 0.614634C 0.500001 0.554125 0.550157 0.5 0.618304 0.5L 0.618304 -0.5C 0.00349303 -0.5 -0.499999 -0.00376338 -0.499999 0.614634L 0.500001 0.614634ZM 0.618304 0.5C 0.686445 0.5 0.736601 0.554119 0.736601 0.614634L 1.7366 0.614634C 1.7366 -0.00375786 1.23312 -0.5 0.618304 -0.5L 0.618304 0.5Z"/>
<path id="path53_stroke" d="M 0.736601 0.614634C 0.736601 0.675149 0.686445 0.729268 0.618304 0.729268L 0.618304 1.72927C 1.23312 1.72927 1.7366 1.23303 1.7366 0.614634L 0.736601 0.614634ZM 0.618304 0.729268C 0.550157 0.729268 0.500001 0.675143 0.500001 0.614634L -0.499999 0.614634C -0.499999 1.23303 0.00349307 1.72927 0.618304 1.72927L 0.618304 0.729268ZM 0.500001 0.614634C 0.500001 0.554125 0.550157 0.500001 0.618304 0.500001L 0.618304 -0.499999C 0.00349302 -0.499999 -0.499999 -0.00376285 -0.499999 0.614634L 0.500001 0.614634ZM 0.618304 0.500001C 0.686445 0.500001 0.736601 0.55412 0.736601 0.614634L 1.7366 0.614634C 1.7366 -0.00375732 1.23312 -0.499999 0.618304 -0.499999L 0.618304 0.500001Z"/>
<path id="path54_stroke" d="M 0.736601 0.614634C 0.736601 0.675149 0.686443 0.729269 0.618304 0.729269L 0.618304 1.72927C 1.23312 1.72927 1.7366 1.23302 1.7366 0.614634L 0.736601 0.614634ZM 0.618304 0.729269C 0.550159 0.729269 0.500001 0.675144 0.500001 0.614634L -0.499999 0.614634C -0.499999 1.23303 0.00349165 1.72927 0.618304 1.72927L 0.618304 0.729269ZM 0.500001 0.614634C 0.500001 0.554126 0.550156 0.500001 0.618304 0.500001L 0.618304 -0.499999C 0.0034944 -0.499999 -0.499999 -0.00376499 -0.499999 0.614634L 0.500001 0.614634ZM 0.618304 0.500001C 0.686446 0.500001 0.736601 0.554121 0.736601 0.614634L 1.7366 0.614634C 1.7366 -0.00375946 1.23312 -0.499999 0.618304 -0.499999L 0.618304 0.500001Z"/>
</defs>
</svg>
