<svg width="252" height="223" viewBox="0 0 252 223" version="1.1" xmlns="http://www.w3.org/2000/svg" xmlns:xlink="http://www.w3.org/1999/xlink">
<title>Group</title>
<desc>Created using Figma</desc>
<g id="Canvas" transform="translate(-5744 -1739)">
<g id="Group">
<g id="Vector">
<use xlink:href="#path0_stroke" transform="translate(5840.58 1850.62)" fill="#E6E7E8"/>
</g>
<g id="Vector">
<use xlink:href="#path1_stroke" transform="translate(5870.29 1850.62)" fill="#E6E7E8"/>
</g>
<g id="Vector">
<use xlink:href="#path2_stroke" transform="translate(5810.87 1850.62)" fill="#E6E7E8"/>
</g>
<g id="Vector">
<use xlink:href="#path3_stroke" transform="translate(5840.58 1798.69)" fill="#E6E7E8"/>
</g>
<g id="Vector">
<use xlink:href="#path4_stroke" transform="translate(5870.29 1798.69)" fill="#E6E7E8"/>
</g>
<g id="Vector">
<use xlink:href="#path5_stroke" transform="translate(5810.87 1798.69)" fill="#E6E7E8"/>
</g>
<g id="Vector">
<use xlink:href="#path6_stroke" transform="translate(5840.58 1902.56)" fill="#E6E7E8"/>
</g>
<g id="Vector">
<use xlink:href="#path7_stroke" transform="translate(5870.29 1902.56)" fill="#E6E7E8"/>
</g>
<g id="Vector">
<use xlink:href="#path8_stroke" transform="translate(5810.87 1902.56)" fill="#E6E7E8"/>
</g>
<g id="Vector">
<use xlink:href="#path9_stroke" transform="translate(5900 1902.56)" fill="#E6E7E8"/>
</g>
<g id="Vector">
<use xlink:href="#path10_stroke" transform="translate(5929.71 1850.62)" fill="#E6E7E8"/>
</g>
<g id="Vector">
<use xlink:href="#path11_stroke" transform="translate(5900 1850.62)" fill="#E6E7E8"/>
</g>
<g id="Vector">
<use xlink:href="#path12_stroke" transform="translate(5929.71 1798.69)" fill="#E6E7E8"/>
</g>
<g id="Vector">
<use xlink:href="#path13_stroke" transform="translate(5900 1798.69)" fill="#E6E7E8"/>
</g>
<g id="Vector">
<use xlink:href="#path14_stroke" transform="translate(5900 1746.75)" fill="#E6E7E8"/>
</g>
<g id="Vector">
<use xlink:href="#path15_stroke" transform="translate(5751.45 1798.69)" fill="#E6E7E8"/>
</g>
<g id="Vector">
<use xlink:href="#path16_stroke" transform="translate(5781.16 1798.69)" fill="#E6E7E8"/>
</g>
<g id="Vector">
<use xlink:href="#path17_stroke" transform="translate(5781.16 1746.75)" fill="#E6E7E8"/>
</g>
<g id="Vector">
<use xlink:href="#path18_stroke" transform="translate(5781.16 1902.56)" fill="#E6E7E8"/>
</g>
<g id="Vector">
<use xlink:href="#path19_stroke" transform="translate(5751.45 1850.62)" fill="#E6E7E8"/>
</g>
<g id="Vector">
<use xlink:href="#path20_stroke" transform="translate(5781.16 1850.62)" fill="#E6E7E8"/>
</g>
<g id="Vector">
<use xlink:href="#path21_stroke" transform="translate(5840.58 1746.75)" fill="#E6E7E8"/>
</g>
<g id="Vector">
<use xlink:href="#path22_stroke" transform="translate(5870.29 1746.75)" fill="#E6E7E8"/>
</g>
<g id="Vector">
<use xlink:href="#path23_stroke" transform="translate(5810.87 1746.75)" fill="#E6E7E8"/>
</g>
<g id="Vector">
<use xlink:href="#path24_stroke" transform="translate(5899.86 1798.9)" fill="#232C33"/>
</g>
<g id="Vector">
<use xlink:href="#path25_stroke" transform="translate(5929.5 1850.62)" fill="#232C33"/>
</g>
<g id="Vector">
<use xlink:href="#path26_stroke" transform="translate(5759.13 1864.06)" fill="#232C33"/>
</g>
<g id="Vector">
<use xlink:href="#path27_stroke" transform="translate(5899.86 1902.35)" fill="#232C33"/>
</g>
<g id="Vector">
<use xlink:href="#path27_stroke" transform="translate(5876.98 1861.77)" fill="#232C33"/>
</g>
<g id="Vector">
<use xlink:href="#path28_stroke" transform="translate(5923.26 1740.25)" fill="#232C33"/>
</g>
<g id="Vector">
<use xlink:href="#path28_stroke" transform="translate(5982.1 1843.04)" fill="#232C33"/>
</g>
<g id="Vector">
<use xlink:href="#path28_stroke" transform="translate(5804.57 1947.25)" fill="#232C33"/>
</g>
<g id="Vector">
<use xlink:href="#path28_stroke" transform="translate(5804.57 1740)" fill="#232C33"/>
</g>
<g id="Vector">
<use xlink:href="#path28_stroke" transform="translate(5862.97 1844.21)" fill="#232C33"/>
</g>
<g id="Vector">
<use xlink:href="#path29_stroke" transform="translate(5923.26 1947.98)" fill="#232C33"/>
</g>
<g id="Vector">
<use xlink:href="#path30_stroke" transform="translate(5745 1844.11)" fill="#232C33"/>
</g>
<g id="Vector">
<use xlink:href="#path31_stroke" transform="translate(5768.4 1766.77)" fill="#232C33"/>
</g>
<g id="Vector">
<use xlink:href="#path32_stroke" transform="translate(5938.35 1866)" fill="#232C33"/>
</g>
<g id="Vector">
<use xlink:href="#path33_stroke" transform="translate(5938.35 1762.13)" fill="#232C33"/>
</g>
<g id="Vector">
<use xlink:href="#path34_stroke" transform="translate(5828.36 1746.69)" fill="#232C33"/>
</g>
<g id="Vector">
<use xlink:href="#path35_stroke" transform="translate(5828.36 1954.56)" fill="#232C33"/>
</g>
<g id="Rectangle 6">
<use xlink:href="#path36_fill" transform="matrix(0.706232 -0.707981 0.706232 0.707981 5942.94 1921.23)" fill="#FFFFFF"/>
<mask id="mask0_outline_ins">
<use xlink:href="#path36_fill" fill="white" transform="matrix(0.706232 -0.707981 0.706232 0.707981 5942.94 1921.23)"/>
</mask>
<g mask="url(#mask0_outline_ins)">
<use xlink:href="#path37_stroke_2x" transform="matrix(0.706232 -0.707981 0.706232 0.707981 5942.94 1921.23)" fill="#232C33"/>
</g>
</g>
<g id="Ellipse">
<use xlink:href="#path38_fill" transform="matrix(0.706232 -0.707981 0.706232 0.707981 5865.3 1889.77)" fill="#FFFFFF"/>
<mask id="mask1_outline_ins">
<use xlink:href="#path38_fill" fill="white" transform="matrix(0.706232 -0.707981 0.706232 0.707981 5865.3 1889.77)"/>
</mask>
<g mask="url(#mask1_outline_ins)">
<use xlink:href="#path39_stroke_2x" transform="matrix(0.706232 -0.707981 0.706232 0.707981 5865.3 1889.77)" fill="#232C33"/>
</g>
</g>
<g id="Group">
<g id="Vector">
<use xlink:href="#path40_stroke" transform="translate(5905.82 1862.55)" fill="#174F9F"/>
</g>
<g id="Vector">
<use xlink:href="#path41_fill" transform="translate(5905.89 1862.55)" fill="#174F9F"/>
</g>
<g id="Vector">
<use xlink:href="#path42_fill" transform="translate(5895.19 1891.65)" fill="#174F9F"/>
</g>
</g>
</g>
</g>
<defs>
<path id="path0_stroke" d="M 2.0939e-06 51.9341L -0.434002 51.6858L -0.862059 52.4341L 2.0939e-06 52.4341L 2.0939e-06 51.9341ZM 29.7094 2.1132e-06L 30.1434 -0.248273L 29.7094 -1.00694L 29.2753 -0.248274L 29.7094 2.1132e-06ZM 59.4187 51.9341L 59.4187 52.4341L 60.2808 52.4341L 59.8527 51.6858L 59.4187 51.9341ZM 0.434006 52.1824L 30.1434 0.248278L 29.2753 -0.248274L -0.434002 51.6858L 0.434006 52.1824ZM 29.2753 0.248278L 58.9847 52.1824L 59.8527 51.6858L 30.1434 -0.248273L 29.2753 0.248278ZM 59.4187 51.4341L 2.0939e-06 51.4341L 2.0939e-06 52.4341L 59.4187 52.4341L 59.4187 51.4341Z"/>
<path id="path1_stroke" d="M 59.4187 2.1132e-06L 59.8527 0.248278L 60.2808 -0.499998L 59.4187 -0.499998L 59.4187 2.1132e-06ZM 29.7093 51.9341L 29.2753 52.1824L 29.7093 52.941L 30.1433 52.1824L 29.7093 51.9341ZM 4.18779e-06 2.1132e-06L 4.18779e-06 -0.499998L -0.862057 -0.499998L -0.434 0.248278L 4.18779e-06 2.1132e-06ZM 58.9847 -0.248274L 29.2753 51.6858L 30.1433 52.1824L 59.8527 0.248278L 58.9847 -0.248274ZM 30.1433 51.6858L 0.434008 -0.248273L -0.434 0.248278L 29.2753 52.1824L 30.1433 51.6858ZM 4.18779e-06 0.500002L 59.4187 0.500002L 59.4187 -0.499998L 4.18779e-06 -0.499998L 4.18779e-06 0.500002Z"/>
<path id="path2_stroke" d="M 59.4187 2.1132e-06L 59.8527 0.248278L 60.2808 -0.499998L 59.4187 -0.499998L 59.4187 2.1132e-06ZM 29.7093 51.9341L 29.2753 52.1824L 29.7093 52.941L 30.1434 52.1824L 29.7093 51.9341ZM 0 2.1132e-06L 0 -0.499998L -0.862061 -0.499998L -0.434004 0.248278L 0 2.1132e-06ZM 58.9847 -0.248274L 29.2753 51.6858L 30.1434 52.1824L 59.8527 0.248278L 58.9847 -0.248274ZM 30.1434 51.6858L 0.434004 -0.248274L -0.434004 0.248278L 29.2753 52.1824L 30.1434 51.6858ZM 0 0.500002L 59.4187 0.500002L 59.4187 -0.499998L 0 -0.499998L 0 0.500002Z"/>
<path id="path3_stroke" d="M 59.4187 2.1132e-06L 59.8527 0.248278L 60.2808 -0.499998L 59.4187 -0.499998L 59.4187 2.1132e-06ZM 29.7094 51.9341L 29.2753 52.1824L 29.7094 52.941L 30.1434 52.1824L 29.7094 51.9341ZM 2.0939e-06 2.1132e-06L 2.0939e-06 -0.499998L -0.862059 -0.499998L -0.434002 0.248278L 2.0939e-06 2.1132e-06ZM 58.9847 -0.248273L 29.2753 51.6858L 30.1434 52.1824L 59.8527 0.248278L 58.9847 -0.248273ZM 30.1434 51.6858L 0.434006 -0.248274L -0.434002 0.248278L 29.2753 52.1824L 30.1434 51.6858ZM 2.0939e-06 0.500002L 59.4187 0.500002L 59.4187 -0.499998L 2.0939e-06 -0.499998L 2.0939e-06 0.500002Z"/>
<path id="path4_stroke" d="M 4.18779e-06 51.9341L -0.434 51.6858L -0.862057 52.4341L 4.18779e-06 52.4341L 4.18779e-06 51.9341ZM 29.7093 2.1132e-06L 30.1433 -0.248274L 29.7093 -1.00694L 29.2753 -0.248273L 29.7093 2.1132e-06ZM 59.4187 51.9341L 59.4187 52.4341L 60.2808 52.4341L 59.8527 51.6858L 59.4187 51.9341ZM 0.434008 52.1824L 30.1433 0.248278L 29.2753 -0.248273L -0.434 51.6858L 0.434008 52.1824ZM 29.2753 0.248278L 58.9847 52.1824L 59.8527 51.6858L 30.1433 -0.248274L 29.2753 0.248278ZM 59.4187 51.4341L 4.18779e-06 51.4341L 4.18779e-06 52.4341L 59.4187 52.4341L 59.4187 51.4341Z"/>
<path id="path5_stroke" d="M 0 51.9341L -0.434004 51.6858L -0.862061 52.4341L 0 52.4341L 0 51.9341ZM 29.7093 2.1132e-06L 30.1434 -0.248274L 29.7093 -1.00694L 29.2753 -0.248274L 29.7093 2.1132e-06ZM 59.4187 51.9341L 59.4187 52.4341L 60.2808 52.4341L 59.8527 51.6858L 59.4187 51.9341ZM 0.434004 52.1824L 30.1434 0.248278L 29.2753 -0.248274L -0.434004 51.6858L 0.434004 52.1824ZM 29.2753 0.248278L 58.9847 52.1824L 59.8527 51.6858L 30.1434 -0.248274L 29.2753 0.248278ZM 59.4187 51.4341L 0 51.4341L 0 52.4341L 59.4187 52.4341L 59.4187 51.4341Z"/>
<path id="path6_stroke" d="M 59.4187 2.1132e-06L 59.8527 0.248278L 60.2808 -0.499998L 59.4187 -0.499998L 59.4187 2.1132e-06ZM 29.7094 51.9341L 29.2753 52.1823L 29.7094 52.941L 30.1434 52.1823L 29.7094 51.9341ZM 2.0939e-06 2.1132e-06L 2.0939e-06 -0.499998L -0.862059 -0.499998L -0.434002 0.248278L 2.0939e-06 2.1132e-06ZM 58.9847 -0.248274L 29.2753 51.6858L 30.1434 52.1823L 59.8527 0.248278L 58.9847 -0.248274ZM 30.1434 51.6858L 0.434006 -0.248274L -0.434002 0.248278L 29.2753 52.1823L 30.1434 51.6858ZM 2.0939e-06 0.500002L 59.4187 0.500002L 59.4187 -0.499998L 2.0939e-06 -0.499998L 2.0939e-06 0.500002Z"/>
<path id="path7_stroke" d="M 4.18779e-06 51.9341L -0.434 51.6858L -0.862057 52.4341L 4.18779e-06 52.4341L 4.18779e-06 51.9341ZM 29.7093 2.1132e-06L 30.1433 -0.248274L 29.7093 -1.00694L 29.2753 -0.248274L 29.7093 2.1132e-06ZM 59.4187 51.9341L 59.4187 52.4341L 60.2808 52.4341L 59.8527 51.6858L 59.4187 51.9341ZM 0.434008 52.1823L 30.1433 0.248278L 29.2753 -0.248274L -0.434 51.6858L 0.434008 52.1823ZM 29.2753 0.248278L 58.9847 52.1823L 59.8527 51.6858L 30.1433 -0.248274L 29.2753 0.248278ZM 59.4187 51.4341L 4.18779e-06 51.4341L 4.18779e-06 52.4341L 59.4187 52.4341L 59.4187 51.4341Z"/>
<path id="path8_stroke" d="M 0 51.9341L -0.434004 51.6858L -0.862062 52.4341L 0 52.4341L 0 51.9341ZM 29.7093 2.1132e-06L 30.1434 -0.248274L 29.7093 -1.00694L 29.2753 -0.248274L 29.7093 2.1132e-06ZM 59.4187 51.9341L 59.4187 52.4341L 60.2808 52.4341L 59.8527 51.6858L 59.4187 51.9341ZM 0.434004 52.1823L 30.1434 0.248278L 29.2753 -0.248274L -0.434004 51.6858L 0.434004 52.1823ZM 29.2753 0.248278L 58.9847 52.1823L 59.8527 51.6858L 30.1434 -0.248274L 29.2753 0.248278ZM 59.4187 51.4341L 0 51.4341L 0 52.4341L 59.4187 52.4341L 59.4187 51.4341Z"/>
<path id="path9_stroke" d="M 59.4187 2.1132e-06L 59.8527 0.248278L 60.2808 -0.499998L 59.4187 -0.499998L 59.4187 2.1132e-06ZM 29.7094 51.9341L 29.2754 52.1823L 29.7094 52.941L 30.1434 52.1823L 29.7094 51.9341ZM -4.18779e-06 2.1132e-06L -4.18779e-06 -0.499998L -0.862066 -0.499998L -0.434008 0.248278L -4.18779e-06 2.1132e-06ZM 58.9847 -0.248274L 29.2754 51.6858L 30.1434 52.1823L 59.8527 0.248278L 58.9847 -0.248274ZM 30.1434 51.6858L 0.433999 -0.248274L -0.434008 0.248278L 29.2754 52.1823L 30.1434 51.6858ZM -4.18779e-06 0.500002L 59.4187 0.500002L 59.4187 -0.499998L -4.18779e-06 -0.499998L -4.18779e-06 0.500002Z"/>
<path id="path10_stroke" d="M 59.4187 2.1132e-06L 59.8527 0.248278L 60.2808 -0.499998L 59.4187 -0.499998L 59.4187 2.1132e-06ZM 29.7093 51.9341L 29.2753 52.1824L 29.7093 52.941L 30.1434 52.1824L 29.7093 51.9341ZM 8.37559e-06 2.1132e-06L 8.37559e-06 -0.499998L -0.862053 -0.499998L -0.433995 0.248278L 8.37559e-06 2.1132e-06ZM 58.9847 -0.248273L 29.2753 51.6858L 30.1434 52.1824L 59.8527 0.248278L 58.9847 -0.248273ZM 30.1434 51.6858L 0.434012 -0.248273L -0.433995 0.248278L 29.2753 52.1824L 30.1434 51.6858ZM 8.37559e-06 0.500002L 59.4187 0.500002L 59.4187 -0.499998L 8.37559e-06 -0.499998L 8.37559e-06 0.500002Z"/>
<path id="path11_stroke" d="M -4.18779e-06 51.9341L -0.434008 51.6858L -0.862066 52.4341L -4.18779e-06 52.4341L -4.18779e-06 51.9341ZM 29.7094 2.1132e-06L 30.1434 -0.248273L 29.7094 -1.00694L 29.2754 -0.248274L 29.7094 2.1132e-06ZM 59.4187 51.9341L 59.4187 52.4341L 60.2808 52.4341L 59.8527 51.6858L 59.4187 51.9341ZM 0.433999 52.1824L 30.1434 0.248278L 29.2754 -0.248274L -0.434008 51.6858L 0.433999 52.1824ZM 29.2754 0.248278L 58.9847 52.1824L 59.8527 51.6858L 30.1434 -0.248273L 29.2754 0.248278ZM 59.4187 51.4341L -4.18779e-06 51.4341L -4.18779e-06 52.4341L 59.4187 52.4341L 59.4187 51.4341Z"/>
<path id="path12_stroke" d="M 8.37559e-06 51.9341L -0.433995 51.6858L -0.862053 52.4341L 8.37559e-06 52.4341L 8.37559e-06 51.9341ZM 29.7093 2.1132e-06L 30.1434 -0.248273L 29.7093 -1.00694L 29.2753 -0.248273L 29.7093 2.1132e-06ZM 59.4187 51.9341L 59.4187 52.4341L 60.2808 52.4341L 59.8527 51.6858L 59.4187 51.9341ZM 0.434012 52.1824L 30.1434 0.248278L 29.2753 -0.248273L -0.433995 51.6858L 0.434012 52.1824ZM 29.2753 0.248278L 58.9847 52.1824L 59.8527 51.6858L 30.1434 -0.248273L 29.2753 0.248278ZM 59.4187 51.4341L 8.37559e-06 51.4341L 8.37559e-06 52.4341L 59.4187 52.4341L 59.4187 51.4341Z"/>
<path id="path13_stroke" d="M 59.4187 2.1132e-06L 59.8527 0.248278L 60.2808 -0.499998L 59.4187 -0.499998L 59.4187 2.1132e-06ZM 29.7094 51.9341L 29.2754 52.1824L 29.7094 52.941L 30.1434 52.1824L 29.7094 51.9341ZM -4.18779e-06 2.1132e-06L -4.18779e-06 -0.499998L -0.862066 -0.499998L -0.434008 0.248278L -4.18779e-06 2.1132e-06ZM 58.9847 -0.248273L 29.2754 51.6858L 30.1434 52.1824L 59.8527 0.248278L 58.9847 -0.248273ZM 30.1434 51.6858L 0.433999 -0.248274L -0.434008 0.248278L 29.2754 52.1824L 30.1434 51.6858ZM -4.18779e-06 0.500002L 59.4187 0.500002L 59.4187 -0.499998L -4.18779e-06 -0.499998L -4.18779e-06 0.500002Z"/>
<path id="path14_stroke" d="M -4.18779e-06 51.9341L -0.434008 51.6858L -0.862066 52.4341L -4.18779e-06 52.4341L -4.18779e-06 51.9341ZM 29.7094 -5.28301e-07L 30.1434 -0.248276L 29.7094 -1.00695L 29.2754 -0.248276L 29.7094 -5.28301e-07ZM 59.4187 51.9341L 59.4187 52.4341L 60.2808 52.4341L 59.8527 51.6858L 59.4187 51.9341ZM 0.433999 52.1824L 30.1434 0.248275L 29.2754 -0.248276L -0.434008 51.6858L 0.433999 52.1824ZM 29.2754 0.248275L 58.9847 52.1824L 59.8527 51.6858L 30.1434 -0.248276L 29.2754 0.248275ZM 59.4187 51.4341L -4.18779e-06 51.4341L -4.18779e-06 52.4341L 59.4187 52.4341L 59.4187 51.4341Z"/>
<path id="path15_stroke" d="M -2.61737e-07 51.9341L -0.434004 51.6858L -0.862062 52.4341L -2.61737e-07 52.4341L -2.61737e-07 51.9341ZM 29.7093 2.1132e-06L 30.1434 -0.248274L 29.7093 -1.00694L 29.2753 -0.248274L 29.7093 2.1132e-06ZM 59.4187 51.9341L 59.4187 52.4341L 60.2808 52.4341L 59.8527 51.6858L 59.4187 51.9341ZM 0.434003 52.1824L 30.1434 0.248278L 29.2753 -0.248274L -0.434004 51.6858L 0.434003 52.1824ZM 29.2753 0.248278L 58.9847 52.1824L 59.8527 51.6858L 30.1434 -0.248274L 29.2753 0.248278ZM 59.4187 51.4341L -2.61737e-07 51.4341L -2.61737e-07 52.4341L 59.4187 52.4341L 59.4187 51.4341Z"/>
<path id="path16_stroke" d="M 59.4187 2.1132e-06L 59.8527 0.248278L 60.2808 -0.499998L 59.4187 -0.499998L 59.4187 2.1132e-06ZM 29.7093 51.9341L 29.2753 52.1824L 29.7093 52.941L 30.1434 52.1824L 29.7093 51.9341ZM 5.23474e-07 2.1132e-06L 5.23474e-07 -0.499998L -0.862061 -0.499998L -0.434003 0.248278L 5.23474e-07 2.1132e-06ZM 58.9847 -0.248274L 29.2753 51.6858L 30.1434 52.1824L 59.8527 0.248278L 58.9847 -0.248274ZM 30.1434 51.6858L 0.434004 -0.248274L -0.434003 0.248278L 29.2753 52.1824L 30.1434 51.6858ZM 5.23474e-07 0.500002L 59.4187 0.500002L 59.4187 -0.499998L 5.23474e-07 -0.499998L 5.23474e-07 0.500002Z"/>
<path id="path17_stroke" d="M 5.23474e-07 51.9341L -0.434003 51.6858L -0.862061 52.4341L 5.23474e-07 52.4341L 5.23474e-07 51.9341ZM 29.7093 -5.28301e-07L 30.1434 -0.248276L 29.7093 -1.00695L 29.2753 -0.248276L 29.7093 -5.28301e-07ZM 59.4187 51.9341L 59.4187 52.4341L 60.2808 52.4341L 59.8527 51.6858L 59.4187 51.9341ZM 0.434004 52.1824L 30.1434 0.248275L 29.2753 -0.248276L -0.434003 51.6858L 0.434004 52.1824ZM 29.2753 0.248275L 58.9847 52.1824L 59.8527 51.6858L 30.1434 -0.248276L 29.2753 0.248275ZM 59.4187 51.4341L 5.23474e-07 51.4341L 5.23474e-07 52.4341L 59.4187 52.4341L 59.4187 51.4341Z"/>
<path id="path18_stroke" d="M 59.4187 2.1132e-06L 59.8527 0.248278L 60.2808 -0.499998L 59.4187 -0.499998L 59.4187 2.1132e-06ZM 29.7093 51.9341L 29.2753 52.1823L 29.7093 52.941L 30.1434 52.1823L 29.7093 51.9341ZM 5.23474e-07 2.1132e-06L 5.23474e-07 -0.499998L -0.862061 -0.499998L -0.434003 0.248278L 5.23474e-07 2.1132e-06ZM 58.9847 -0.248274L 29.2753 51.6858L 30.1434 52.1823L 59.8527 0.248278L 58.9847 -0.248274ZM 30.1434 51.6858L 0.434004 -0.248274L -0.434003 0.248278L 29.2753 52.1823L 30.1434 51.6858ZM 5.23474e-07 0.500002L 59.4187 0.500002L 59.4187 -0.499998L 5.23474e-07 -0.499998L 5.23474e-07 0.500002Z"/>
<path id="path19_stroke" d="M 59.4187 2.1132e-06L 59.8527 0.248278L 60.2808 -0.499998L 59.4187 -0.499998L 59.4187 2.1132e-06ZM 29.7093 51.9341L 29.2753 52.1824L 29.7093 52.941L 30.1434 52.1824L 29.7093 51.9341ZM -2.61737e-07 2.1132e-06L -2.61737e-07 -0.499998L -0.862062 -0.499998L -0.434004 0.248278L -2.61737e-07 2.1132e-06ZM 58.9847 -0.248274L 29.2753 51.6858L 30.1434 52.1824L 59.8527 0.248278L 58.9847 -0.248274ZM 30.1434 51.6858L 0.434003 -0.248274L -0.434004 0.248278L 29.2753 52.1824L 30.1434 51.6858ZM -2.61737e-07 0.500002L 59.4187 0.500002L 59.4187 -0.499998L -2.61737e-07 -0.499998L -2.61737e-07 0.500002Z"/>
<path id="path20_stroke" d="M 5.23474e-07 51.9341L -0.434003 51.6858L -0.862061 52.4341L 5.23474e-07 52.4341L 5.23474e-07 51.9341ZM 29.7093 2.1132e-06L 30.1434 -0.248274L 29.7093 -1.00694L 29.2753 -0.248274L 29.7093 2.1132e-06ZM 59.4187 51.9341L 59.4187 52.4341L 60.2808 52.4341L 59.8527 51.6858L 59.4187 51.9341ZM 0.434004 52.1824L 30.1434 0.248278L 29.2753 -0.248274L -0.434003 51.6858L 0.434004 52.1824ZM 29.2753 0.248278L 58.9847 52.1824L 59.8527 51.6858L 30.1434 -0.248274L 29.2753 0.248278ZM 59.4187 51.4341L 5.23474e-07 51.4341L 5.23474e-07 52.4341L 59.4187 52.4341L 59.4187 51.4341Z"/>
<path id="path21_stroke" d="M 2.0939e-06 51.9341L -0.434002 51.6858L -0.862059 52.4341L 2.0939e-06 52.4341L 2.0939e-06 51.9341ZM 29.7094 -5.28301e-07L 30.1434 -0.248276L 29.7094 -1.00695L 29.2753 -0.248276L 29.7094 -5.28301e-07ZM 59.4187 51.9341L 59.4187 52.4341L 60.2808 52.4341L 59.8527 51.6858L 59.4187 51.9341ZM 0.434006 52.1824L 30.1434 0.248275L 29.2753 -0.248276L -0.434002 51.6858L 0.434006 52.1824ZM 29.2753 0.248275L 58.9847 52.1824L 59.8527 51.6858L 30.1434 -0.248276L 29.2753 0.248275ZM 59.4187 51.4341L 2.0939e-06 51.4341L 2.0939e-06 52.4341L 59.4187 52.4341L 59.4187 51.4341Z"/>
<path id="path22_stroke" d="M 59.4187 -5.28301e-07L 59.8527 0.248275L 60.2808 -0.500001L 59.4187 -0.500001L 59.4187 -5.28301e-07ZM 29.7093 51.9341L 29.2753 52.1824L 29.7093 52.941L 30.1433 52.1824L 29.7093 51.9341ZM 4.18779e-06 -5.28301e-07L 4.18779e-06 -0.500001L -0.862057 -0.500001L -0.434 0.248275L 4.18779e-06 -5.28301e-07ZM 58.9847 -0.248276L 29.2753 51.6858L 30.1433 52.1824L 59.8527 0.248275L 58.9847 -0.248276ZM 30.1433 51.6858L 0.434008 -0.248276L -0.434 0.248275L 29.2753 52.1824L 30.1433 51.6858ZM 4.18779e-06 0.499999L 59.4187 0.499999L 59.4187 -0.500001L 4.18779e-06 -0.500001L 4.18779e-06 0.499999Z"/>
<path id="path23_stroke" d="M 59.4187 -5.28301e-07L 59.8527 0.248275L 60.2808 -0.500001L 59.4187 -0.500001L 59.4187 -5.28301e-07ZM 29.7093 51.9341L 29.2753 52.1824L 29.7093 52.941L 30.1434 52.1824L 29.7093 51.9341ZM 0 -5.28301e-07L 0 -0.500001L -0.862061 -0.500001L -0.434004 0.248275L 0 -5.28301e-07ZM 58.9847 -0.248276L 29.2753 51.6858L 30.1434 52.1824L 59.8527 0.248275L 58.9847 -0.248276ZM 30.1434 51.6858L 0.434004 -0.248276L -0.434004 0.248275L 29.2753 52.1824L 30.1434 51.6858ZM 0 0.499999L 59.4187 0.499999L 59.4187 -0.500001L 0 -0.500001L 0 0.499999Z"/>
<path id="path24_stroke" d="M -0.433824 0.248592L 29.2069 51.9749L 30.0746 51.4777L 0.43382 -0.248594L -0.433824 0.248592Z"/>
<path id="path25_stroke" d="M -4.18779e-06 0.500003L 44.7356 0.500003L 44.7356 -0.499997L -4.18779e-06 -0.499997L -4.18779e-06 0.500003Z"/>
<path id="path26_stroke" d="M 81.5806 38.2927L 81.5806 37.7927L 81.5789 37.7927L 81.5806 38.2927ZM 22.0247 38.5005L 21.5907 38.7487L 21.7353 39.0015L 22.0265 39.0005L 22.0247 38.5005ZM 140.725 37.7927L 81.5806 37.7927L 81.5806 38.7927L 140.725 38.7927L 140.725 37.7927ZM 81.5789 37.7927L 22.023 38.0005L 22.0265 39.0005L 81.5824 38.7927L 81.5789 37.7927ZM 22.4587 38.2522L 0.434003 -0.248279L -0.434003 0.248275L 21.5907 38.7487L 22.4587 38.2522Z"/>
<path id="path27_stroke" d="M -0.43377 0.248688L 24.061 42.9731L 24.9285 42.4757L 0.433766 -0.248688L -0.43377 0.248688Z"/>
<path id="path28_stroke" d="M 12.3992 6.50907C 12.3992 9.83213 9.73117 12.5181 6.44961 12.5181L 6.44961 13.5181C 10.2921 13.5181 13.3992 10.3757 13.3992 6.50907L 12.3992 6.50907ZM 6.44961 12.5181C 3.16805 12.5181 0.499992 9.83212 0.499992 6.50907L -0.500008 6.50907C -0.500008 10.3757 2.60714 13.5181 6.44961 13.5181L 6.44961 12.5181ZM 0.499992 6.50907C 0.499992 3.18602 3.16805 0.5 6.44961 0.5L 6.44961 -0.5C 2.60714 -0.5 -0.500008 2.6424 -0.500008 6.50907L 0.499992 6.50907ZM 6.44961 0.5C 9.73117 0.5 12.3992 3.18602 12.3992 6.50907L 13.3992 6.50907C 13.3992 2.6424 10.2921 -0.5 6.44961 -0.5L 6.44961 0.5Z"/>
<path id="path29_stroke" d="M 12.3992 6.50906C 12.3992 9.83212 9.73117 12.5182 6.44961 12.5182L 6.44961 13.5182C 10.2921 13.5182 13.3992 10.3757 13.3992 6.50906L 12.3992 6.50906ZM 6.44961 12.5182C 3.16805 12.5182 0.499992 9.83212 0.499992 6.50906L -0.500008 6.50906C -0.500008 10.3757 2.60714 13.5182 6.44961 13.5182L 6.44961 12.5182ZM 0.499992 6.50906C 0.499992 3.18601 3.16805 0.499996 6.44961 0.499996L 6.44961 -0.500004C 2.60714 -0.500004 -0.500008 2.64239 -0.500008 6.50906L 0.499992 6.50906ZM 6.44961 0.499996C 9.73117 0.499996 12.3992 3.18601 12.3992 6.50906L 13.3992 6.50906C 13.3992 2.6424 10.2921 -0.500004 6.44961 -0.500004L 6.44961 0.499996Z"/>
<path id="path30_stroke" d="M 12.3992 6.50907C 12.3992 9.83213 9.73116 12.5181 6.4496 12.5181L 6.4496 13.5181C 10.2921 13.5181 13.3992 10.3757 13.3992 6.50907L 12.3992 6.50907ZM 6.4496 12.5181C 3.16804 12.5181 0.5 9.83213 0.5 6.50907L -0.5 6.50907C -0.5 10.3757 2.60713 13.5181 6.4496 13.5181L 6.4496 12.5181ZM 0.5 6.50907C 0.5 3.18602 3.16805 0.499996 6.4496 0.499996L 6.4496 -0.500004C 2.60713 -0.500004 -0.5 2.64241 -0.5 6.50907L 0.5 6.50907ZM 6.4496 0.499996C 9.73116 0.499996 12.3992 3.18602 12.3992 6.50907L 13.3992 6.50907C 13.3992 2.64241 10.2921 -0.500004 6.4496 -0.500004L 6.4496 0.499996Z"/>
<path id="path31_stroke" d="M 42.4713 83.8562L 42.4754 84.3562L 42.7627 84.3539L 42.9053 84.1045L 42.4713 83.8562ZM 72.1807 31.9221L 72.6147 32.1704L 73.0427 31.4221L 72.1807 31.4221L 72.1807 31.9221ZM 12.762 31.9221L 12.3279 31.674L 11.9002 32.4221L 12.762 32.4221L 12.762 31.9221ZM 0.00407483 84.7024L 42.4754 84.3562L 42.4673 83.3562L -0.00407692 83.7025L 0.00407483 84.7024ZM 42.9053 84.1045L 72.6147 32.1704L 71.7467 31.6739L 42.0373 83.6079L 42.9053 84.1045ZM 72.1807 31.4221L 12.762 31.4221L 12.762 32.4221L 72.1807 32.4221L 72.1807 31.4221ZM 13.196 32.1703L 31.4471 0.24817L 30.5789 -0.248169L 12.3279 31.674L 13.196 32.1703Z"/>
<path id="path32_stroke" d="M 0.433234 73.3728L 42.5615 0.249603L 41.695 -0.249603L -0.43325 72.8736L 0.433234 73.3728Z"/>
<path id="path33_stroke" d="M -0.43325 0.249603L 41.695 73.3728L 42.5615 72.8736L 0.433234 -0.249603L -0.43325 0.249603Z"/>
<path id="path34_stroke" d="M 41.9224 5.28301e-07L 42.3575 -0.246416L 42.2139 -0.499999L 41.9224 -0.499999L 41.9224 5.28301e-07ZM 0 0.500001L 41.9224 0.500001L 41.9224 -0.499999L 0 -0.499999L 0 0.500001ZM 41.4874 0.246418L 71.0595 52.4575L 71.9296 51.9646L 42.3575 -0.246416L 41.4874 0.246418Z"/>
<path id="path35_stroke" d="M 0 0.499994L 83.8448 0.499994L 83.8448 -0.500006L 0 -0.500006L 0 0.499994Z"/>
<path id="path36_fill" d="M 0 0L 17.5415 0L 17.5415 56.1327L 0 56.1327L 0 0Z"/>
<path id="path37_stroke_2x" d="M 0 0L 0 -1L -1 -1L -1 0L 0 0ZM 17.5415 0L 18.5415 0L 18.5415 -1L 17.5415 -1L 17.5415 0ZM 17.5415 56.1327L 17.5415 57.1327L 18.5415 57.1327L 18.5415 56.1327L 17.5415 56.1327ZM 0 56.1327L -1 56.1327L -1 57.1327L 0 57.1327L 0 56.1327ZM 0 1L 17.5415 1L 17.5415 -1L 0 -1L 0 1ZM 16.5415 0L 16.5415 56.1327L 18.5415 56.1327L 18.5415 0L 16.5415 0ZM 17.5415 55.1327L 0 55.1327L 0 57.1327L 17.5415 57.1327L 17.5415 55.1327ZM 1 56.1327L 1 0L -1 0L -1 56.1327L 1 56.1327Z"/>
<path id="path38_fill" d="M 84.1991 42.0995C 84.1991 65.3505 65.3505 84.1991 42.0995 84.1991C 18.8486 84.1991 0 65.3505 0 42.0995C 0 18.8486 18.8486 0 42.0995 0C 65.3505 0 84.1991 18.8486 84.1991 42.0995Z"/>
<path id="path39_stroke_2x" d="M 83.1991 42.0995C 83.1991 64.7982 64.7982 83.1991 42.0995 83.1991L 42.0995 85.1991C 65.9028 85.1991 85.1991 65.9028 85.1991 42.0995L 83.1991 42.0995ZM 42.0995 83.1991C 19.4009 83.1991 1 64.7982 1 42.0995L -1 42.0995C -1 65.9028 18.2963 85.1991 42.0995 85.1991L 42.0995 83.1991ZM 1 42.0995C 1 19.4009 19.4009 1 42.0995 1L 42.0995 -1C 18.2963 -1 -1 18.2963 -1 42.0995L 1 42.0995ZM 42.0995 1C 64.7982 1 83.1991 19.4009 83.1991 42.0995L 85.1991 42.0995C 85.1991 18.2963 65.9028 -1 42.0995 -1L 42.0995 1Z"/>
<path id="path40_stroke" d="M 12.3503 30.968C 14.3571 30.968 17.5619 29.7738 20.2573 27.2402C 22.9746 24.6861 25.2006 20.7488 25.2006 15.234L 24.2006 15.234C 24.2006 20.4523 22.1041 24.1319 19.5724 26.5116C 17.019 28.9117 14.0486 29.968 12.3503 29.968L 12.3503 30.968ZM 25.2006 15.234C 25.2006 11.0212 24.9353 7.07587 23.1719 4.18842C 21.3693 1.23681 18.0822 -0.499998 12.3503 -0.499998L 12.3503 0.500002C 17.8709 0.500002 20.759 2.15622 22.3184 4.70963C 23.917 7.32718 24.2006 10.9989 24.2006 15.234L 25.2006 15.234ZM 12.3503 -0.499998C 6.61646 -0.499998 3.33021 1.2554 1.52839 4.21498C -0.2345 7.11063 -0.499996 11.0551 -0.499996 15.234L 0.500004 15.234C 0.500004 11.0342 0.783411 7.36167 2.38255 4.735C 3.94276 2.17226 6.83166 0.500002 12.3503 0.500002L 12.3503 -0.499998ZM -0.499996 15.234C -0.499996 20.7488 1.72606 24.6861 4.4433 27.2402C 7.13871 29.7738 10.3435 30.968 12.3503 30.968L 12.3503 29.968C 10.652 29.968 7.68167 28.9117 5.12819 26.5116C 2.59655 24.1319 0.500004 20.4523 0.500004 15.234L -0.499996 15.234Z"/>
<path id="path41_fill" d="M 8.57736 9.1404C 8.57736 9.1404 11.3219 15.1647 22.8488 12.3949C 24.2897 12.0487 24.6328 11.564 24.6328 11.564C 24.1525 4.91643 21.9569 2.1132e-06 12.3511 2.1132e-06C 1.09856 2.1132e-06 0.000756751 6.8553 0.000756751 15.234C -0.0678561 15.234 4.5292 9.00191 8.57736 9.1404Z"/>
<path id="path42_fill" d="M 45.9706 17.0213C 45.3531 13.0743 44.0494 7.95016 41.4421 6.14978C 39.6582 4.90336 33.4144 1.57958 30.8072 0.12543L 30.7385 0.12543C 30.4641 -0.0130605 30.0524 -0.0130563 29.778 0.19468C 28.4057 1.30261 26.8962 2.0643 25.2495 2.41053C 24.9751 2.47978 24.7006 2.68752 24.632 2.9645L 22.9853 7.32695L 21.3386 2.9645C 21.2014 2.68752 20.9955 2.47978 20.7211 2.41053C 19.0744 2.0643 17.5649 1.30261 16.1926 0.19468C 15.9182 -0.0130563 15.5751 -0.0823059 15.232 0.12543C 12.6248 1.51034 6.31238 4.97261 4.52844 6.14978C 1.50948 8.1579 0.205843 15.5672 4.18779e-06 17.0213C 4.18779e-06 17.1598 -2.09594e-06 17.2983 0.0686107 17.4368C 0.205836 17.7138 2.95036 24.9153 22.9853 24.9153C 43.0202 24.9153 45.8334 17.7138 45.902 17.4368C 45.9706 17.2983 45.9706 17.1598 45.9706 17.0213ZM 36.7079 14.5977L 32.7969 15.8441L 28.886 14.5977L 28.886 12.4511L 36.7765 12.4511L 36.7765 14.5977L 36.7079 14.5977Z"/>
</defs>
</svg>
