<svg width="249" height="240" viewBox="0 0 249 240" version="1.1" xmlns="http://www.w3.org/2000/svg" xmlns:xlink="http://www.w3.org/1999/xlink">
<title>Group</title>
<desc>Created using Figma</desc>
<g id="Canvas" transform="translate(-5200 -896)">
<g id="Group">
<g id="Vector">
<use xlink:href="#path0_stroke" transform="translate(5348.12 971.202)" fill="#232C33"/>
</g>
<g id="Vector">
<use xlink:href="#path1_stroke" transform="translate(5349.8 1022.58)" fill="#232C33"/>
</g>
<g id="Vector">
<use xlink:href="#path2_stroke" transform="translate(5201 1022.4)" fill="#232C33"/>
</g>
<g id="Vector">
<use xlink:href="#path3_stroke" transform="translate(5348.12 1073.96)" fill="#232C33"/>
</g>
<g id="Group">
<g id="Vector">
<use xlink:href="#path4_stroke" transform="translate(5313.78 1006.53)" fill="#174F9F"/>
</g>
<g id="Vector">
<use xlink:href="#path5_fill" transform="translate(5313.82 1006.53)" fill="#174F9F"/>
</g>
<g id="Vector">
<use xlink:href="#path6_fill" transform="translate(5307.87 1021.42)" fill="#174F9F"/>
</g>
</g>
<g id="Group">
<g id="Vector">
<use xlink:href="#path7_stroke" transform="translate(5253.06 1108.69)" fill="#174F9F"/>
</g>
<g id="Vector">
<use xlink:href="#path8_fill" transform="translate(5253.06 1108.76)" fill="#174F9F"/>
</g>
<g id="Vector">
<use xlink:href="#path9_fill" transform="translate(5247.71 1123.44)" fill="#174F9F"/>
</g>
</g>
<g id="Group">
<g id="Vector">
<use xlink:href="#path10_stroke" transform="translate(5253.06 905.723)" fill="#174F9F"/>
</g>
<g id="Vector">
<use xlink:href="#path11_fill" transform="translate(5253.06 905.792)" fill="#174F9F"/>
</g>
<g id="Vector">
<use xlink:href="#path12_fill" transform="translate(5247.71 920.465)" fill="#174F9F"/>
</g>
</g>
<g id="Group">
<g id="Vector">
<use xlink:href="#path13_stroke" transform="translate(5431.03 1007.04)" fill="#174F9F"/>
</g>
<g id="Vector">
<use xlink:href="#path14_fill" transform="translate(5431.03 1007.11)" fill="#174F9F"/>
</g>
<g id="Vector">
<use xlink:href="#path15_fill" transform="translate(5425.68 1021.78)" fill="#174F9F"/>
</g>
</g>
<g id="Vector">
<use xlink:href="#path16_stroke" transform="translate(5229.47 939.288)" fill="#232C33"/>
</g>
<g id="Vector">
<use xlink:href="#path17_stroke" transform="translate(5408.88 1037.85)" fill="#232C33"/>
</g>
<g id="Vector">
<use xlink:href="#path18_stroke" transform="translate(5386.59 896)" fill="#232C33"/>
</g>
<g id="Vector">
<use xlink:href="#path19_stroke" transform="translate(5276.66 919.341)" fill="#232C33"/>
</g>
<g id="Vector">
<use xlink:href="#path20_stroke" transform="translate(5276.66 1125.82)" fill="#232C33"/>
</g>
<g id="Vector 2">
<use xlink:href="#path21_stroke" transform="translate(5346.73 907.258)"/>
</g>
<g id="Vector 2">
<use xlink:href="#path22_stroke" transform="matrix(-2.77346e-16 -1 1 -2.77766e-16 5211.74 1024.96)"/>
</g>
<g id="Vector 2">
<use xlink:href="#path23_stroke" transform="matrix(-0.886366 0.462985 -0.462435 -0.886653 5408.08 1105.86)"/>
</g>
</g>
</g>
<defs>
<path id="path0_stroke" d="M -0.433149 0.249767L 29.1939 51.6288L 30.0602 51.1293L 0.433145 -0.249769L -0.433149 0.249767Z"/>
<path id="path1_stroke" d="M 27.9443 -0.5L 0 -0.5L 0 0.5L 27.9443 0.5L 27.9443 -0.5Z"/>
<path id="path2_stroke" d="M 88.0004 51.5634L 88.0004 51.0634L 87.9987 51.0634L 88.0004 51.5634ZM 28.4721 51.7698L 28.034 52.0107L 28.177 52.2708L 28.4738 52.2698L 28.4721 51.7698ZM 147.117 51.0634L 88.0004 51.0634L 88.0004 52.0634L 147.117 52.0634L 147.117 51.0634ZM 87.9987 51.0634L 28.4704 51.2698L 28.4738 52.2698L 88.0022 52.0634L 87.9987 51.0634ZM 28.9102 51.5288L 0.438112 -0.240951L -0.438112 0.240951L 28.034 52.0107L 28.9102 51.5288Z"/>
<path id="path3_stroke" d="M -0.433094 0.249863L 24.0503 42.6875L 24.9165 42.1877L 0.43309 -0.249863L -0.433094 0.249863Z"/>
<path id="path4_stroke" d="M 6.86875 16.088C 8.03989 16.088 9.86945 15.4544 11.4029 14.1284C 12.9577 12.784 14.2375 10.7031 14.2375 7.794L 13.2375 7.794C 13.2375 10.3761 12.1133 12.1922 10.7488 13.372C 9.36305 14.5702 7.75823 15.088 6.86875 15.088L 6.86875 16.088ZM 14.2375 7.794C 14.2375 5.64275 14.0947 3.54832 13.0665 1.99965C 12.0027 0.397208 10.087 -0.499999 6.86875 -0.499999L 6.86875 0.500001C 9.90873 0.500001 11.4274 1.33873 12.2334 2.55275C 13.0751 3.82055 13.2375 5.62312 13.2375 7.794L 14.2375 7.794ZM 6.86875 -0.499999C 3.64872 -0.499999 1.73371 0.407161 0.670597 2.01354C -0.356955 3.56618 -0.499998 5.65974 -0.499998 7.794L 0.500002 7.794C 0.500002 5.64156 0.662237 3.83812 1.50451 2.56543C 2.31122 1.34649 3.83059 0.500001 6.86875 0.500001L 6.86875 -0.499999ZM -0.499998 7.794C -0.499998 10.7031 0.779815 12.784 2.33461 14.1284C 3.86805 15.4544 5.69761 16.088 6.86875 16.088L 6.86875 15.088C 5.97927 15.088 4.37445 14.5702 2.98868 13.372C 1.62425 12.1922 0.500002 10.3761 0.500002 7.794L -0.499998 7.794Z"/>
<path id="path5_fill" d="M 4.77039 4.6764C 4.77039 4.6764 6.29677 7.75857 12.7076 6.34148C 13.509 6.16434 13.6998 5.91635 13.6998 5.91635C 13.4326 2.51534 12.2115 1.08115e-06 6.86917 1.08115e-06C 0.610976 1.08115e-06 0.000420875 3.5073 0.000420875 7.794C -0.0377388 7.794 2.51896 4.60554 4.77039 4.6764Z"/>
<path id="path6_fill" d="M 25.567 8.70842C 25.2236 6.68907 24.4985 4.06745 23.0485 3.14634C 22.0563 2.50865 18.5838 0.808145 17.1337 0.0641725L 17.0956 0.0641725C 16.9429 -0.006682 16.714 -0.00667983 16.5613 0.099602C 15.7981 0.666438 14.9586 1.05614 14.0428 1.23327C 13.8901 1.2687 13.7375 1.37498 13.6993 1.51669L 12.7835 3.74861L 11.8677 1.51669C 11.7914 1.37498 11.6769 1.2687 11.5242 1.23327C 10.6084 1.05614 9.76889 0.666438 9.00569 0.099602C 8.85305 -0.00667983 8.66226 -0.0421093 8.47146 0.0641725C 7.02139 0.772718 3.51069 2.54408 2.51854 3.14634C 0.839513 4.17373 0.114481 7.96445 2.32908e-06 8.70842C 2.32908e-06 8.77928 -1.16568e-06 8.85013 0.0381586 8.92099C 0.114478 9.0627 1.64087 12.7471 12.7835 12.7471C 23.9261 12.7471 25.4907 9.0627 25.5289 8.92099C 25.567 8.85013 25.567 8.77928 25.567 8.70842ZM 20.4155 7.46847L 18.2403 8.10616L 16.0652 7.46847L 16.0652 6.37023L 20.4536 6.37023L 20.4536 7.46847L 20.4155 7.46847Z"/>
<path id="path7_stroke" d="M -1.04646e-06 7.70343L -0.500041 7.70343L -0.499961 7.70974L -1.04646e-06 7.70343ZM 6.30946 15.9068C 7.38846 15.9068 9.08208 15.2714 10.4983 13.9596C 11.9371 12.627 13.1189 10.5718 13.1189 7.70343L 12.1189 7.70343C 12.1189 10.2688 11.0719 12.0653 9.8188 13.2259C 8.54325 14.4074 7.08214 14.9068 6.30946 14.9068L 6.30946 15.9068ZM 13.1189 7.70343C 13.1189 5.58283 12.9911 3.51897 12.0503 1.99048C 11.0705 0.398601 9.29337 -0.5 6.30946 -0.5L 6.30946 0.5C 9.08635 0.5 10.4639 1.32092 11.1987 2.51465C 11.9724 3.77178 12.1189 5.55963 12.1189 7.70343L 13.1189 7.70343ZM 6.30946 -0.5C 3.35739 -0.5 1.58305 0.400003 0.595506 1.98859C -0.35423 3.51636 -0.500001 5.5786 -0.500001 7.70343L 0.499999 7.70343C 0.499999 5.56387 0.662844 3.77439 1.44478 2.51654C 2.18891 1.31951 3.5693 0.5 6.30946 0.5L 6.30946 -0.5ZM -0.499961 7.70974C -0.463812 10.5739 0.716136 12.6264 2.14513 13.9585C 3.55223 15.2702 5.22902 15.9068 6.30946 15.9068L 6.30946 14.9068C 5.5382 14.9068 4.09456 14.4086 2.827 13.227C 1.58133 12.0658 0.532391 10.2667 0.499959 7.69712L -0.499961 7.70974Z"/>
<path id="path8_fill" d="M 4.45777 4.60829C 4.45777 4.60829 5.82939 7.63465 11.6588 6.25904C 12.4132 6.0527 12.5503 5.84635 12.5503 5.84635C 12.3446 2.4761 11.1787 4.19803e-06 6.30946 4.19803e-06C 0.617231 4.19803e-06 -1.04646e-06 3.43902 -1.04646e-06 7.70341C 0.06858 7.63463 2.40034 4.53951 4.45777 4.60829Z"/>
<path id="path9_fill" d="M 23.3176 8.57396C 22.9746 6.57933 22.3574 3.96566 20.9858 3.07152C 20.0942 2.45249 16.9395 0.732984 15.5679 0.0451788C 15.4307 -0.0236018 15.225 -0.0235976 15.0878 0.113964C 14.402 0.664208 13.579 1.0769 12.8247 1.21446C 12.6875 1.21446 12.5503 1.35201 12.4817 1.48957L 11.6588 3.69054L 10.8358 1.48957C 10.7672 1.35201 10.6986 1.21446 10.4929 1.21446C 9.66992 1.00811 8.91554 0.664208 8.22973 0.113964C 8.09256 -0.0235976 7.88682 -0.0236018 7.74966 0.0451788C 6.44662 0.732984 3.22331 2.45249 2.33175 3.07152C 0.82297 4.10323 0.137164 7.81737 2.09293e-06 8.57396C 2.09293e-06 8.64274 2.09293e-06 8.71153 2.09293e-06 8.78031C 0.0685831 8.91788 1.4402 12.5632 11.6588 12.5632C 21.8774 12.5632 23.249 8.91788 23.3176 8.78031C 23.3176 8.71153 23.3176 8.64274 23.3176 8.57396Z"/>
<path id="path10_stroke" d="M -1.04646e-06 7.70342L -0.500041 7.70342L -0.499961 7.70973L -1.04646e-06 7.70342ZM 6.30946 15.9068C 7.38846 15.9068 9.08208 15.2714 10.4983 13.9596C 11.9371 12.627 13.1189 10.5717 13.1189 7.70342L 12.1189 7.70342C 12.1189 10.2688 11.0719 12.0653 9.8188 13.2259C 8.54325 14.4074 7.08214 14.9068 6.30946 14.9068L 6.30946 15.9068ZM 13.1189 7.70342C 13.1189 5.58283 12.9911 3.51896 12.0503 1.99048C 11.0705 0.398599 9.29337 -0.5 6.30946 -0.5L 6.30946 0.5C 9.08635 0.5 10.4639 1.32091 11.1987 2.51465C 11.9724 3.77178 12.1189 5.55962 12.1189 7.70342L 13.1189 7.70342ZM 6.30946 -0.5C 3.35739 -0.5 1.58305 0.400001 0.595506 1.98859C -0.35423 3.51636 -0.500001 5.57859 -0.500001 7.70342L 0.499999 7.70342C 0.499999 5.56386 0.662844 3.77438 1.44478 2.51654C 2.18891 1.31951 3.5693 0.5 6.30946 0.5L 6.30946 -0.5ZM -0.499961 7.70973C -0.463812 10.5739 0.716136 12.6264 2.14513 13.9585C 3.55223 15.2702 5.22902 15.9068 6.30946 15.9068L 6.30946 14.9068C 5.5382 14.9068 4.09456 14.4086 2.827 13.227C 1.58133 12.0658 0.532391 10.2666 0.499959 7.69711L -0.499961 7.70973Z"/>
<path id="path11_fill" d="M 4.45777 4.6083C 4.45777 4.6083 5.82939 7.63464 11.6588 6.25903C 12.4132 6.05269 12.5503 5.84635 12.5503 5.84635C 12.3446 2.4761 11.1787 0 6.30946 0C 0.617231 0 -1.04646e-06 3.43903 -1.04646e-06 7.70342C 0.06858 7.70342 2.40034 4.53952 4.45777 4.6083Z"/>
<path id="path12_fill" d="M 23.3176 8.57396C 22.9746 6.57933 22.3574 3.96567 20.9858 3.07152C 20.0942 2.4525 16.9395 0.732984 15.5679 0.0451785C 15.4307 -0.023602 15.225 -0.0236017 15.0878 0.113959C 14.402 0.664204 13.579 1.07689 12.8247 1.21445C 12.6875 1.21445 12.5503 1.35201 12.4817 1.48957L 11.6588 3.69055L 10.8358 1.48957C 10.7672 1.35201 10.6986 1.21445 10.4929 1.21445C 9.66992 1.00811 8.91554 0.664204 8.22973 0.113959C 8.09256 -0.0236017 7.88682 -0.023602 7.74966 0.0451785C 6.44662 0.732984 3.22331 2.4525 2.33175 3.07152C 0.82297 4.10323 0.137164 7.81738 2.09293e-06 8.57396C 2.09293e-06 8.64275 2.09293e-06 8.71152 2.09293e-06 8.78031C 0.0685831 8.91787 1.4402 12.5632 11.6588 12.5632C 21.8774 12.5632 23.249 8.91787 23.3176 8.78031C 23.3176 8.71152 23.3176 8.64275 23.3176 8.57396Z"/>
<path id="path13_stroke" d="M 4.18585e-06 7.70342L -0.500036 7.70342L -0.499956 7.70973L 4.18585e-06 7.70342ZM 6.30945 15.9068C 7.38845 15.9068 9.08207 15.2714 10.4983 13.9596C 11.9371 12.627 13.1189 10.5717 13.1189 7.70342L 12.1189 7.70342C 12.1189 10.2688 11.0719 12.0653 9.81879 13.2259C 8.54324 14.4074 7.08213 14.9068 6.30945 14.9068L 6.30945 15.9068ZM 13.1189 7.70342C 13.1189 5.58282 12.9911 3.51895 12.0503 1.99048C 11.0705 0.398596 9.29336 -0.500002 6.30945 -0.500002L 6.30945 0.499998C 9.08634 0.499998 10.4639 1.32091 11.1987 2.51464C 11.9724 3.77177 12.1189 5.55962 12.1189 7.70342L 13.1189 7.70342ZM 6.30945 -0.500002C 3.35738 -0.500002 1.58304 0.399998 0.595503 1.98858C -0.354229 3.51635 -0.499996 5.57858 -0.499996 7.70342L 0.500004 7.70342C 0.500004 5.56385 0.662845 3.77438 1.44478 2.51653C 2.1889 1.31951 3.56929 0.499998 6.30945 0.499998L 6.30945 -0.500002ZM -0.499956 7.70973C -0.463806 10.5739 0.716137 12.6264 2.14512 13.9585C 3.55222 15.2702 5.22901 15.9068 6.30945 15.9068L 6.30945 14.9068C 5.53819 14.9068 4.09455 14.4086 2.827 13.227C 1.58133 12.0658 0.532396 10.2666 0.499964 7.69711L -0.499956 7.70973Z"/>
<path id="path14_fill" d="M 4.45777 4.6083C 4.45777 4.6083 5.82939 7.63463 11.6588 6.25902C 12.4132 6.05268 12.5503 5.84635 12.5503 5.84635C 12.3446 2.4761 11.1787 2.09902e-06 6.30945 2.09902e-06C 0.617221 2.09902e-06 4.18585e-06 3.43903 4.18585e-06 7.70342C 0.0685852 7.70342 2.40034 4.53952 4.45777 4.6083Z"/>
<path id="path15_fill" d="M 23.3175 8.57397C 22.9746 6.57933 22.3574 3.96567 20.9858 3.07153C 20.0942 2.4525 16.9395 0.732982 15.5679 0.0451767C 15.4307 -0.0236038 15.225 -0.0235997 15.0878 0.113961C 14.402 0.664206 13.579 1.07688 12.8247 1.21444C 12.6875 1.21444 12.5503 1.35201 12.4817 1.48957L 11.6588 3.69055L 10.8358 1.48957C 10.7672 1.35201 10.6986 1.21444 10.4929 1.21444C 9.66993 1.0081 8.91553 0.664206 8.22972 0.113961C 8.09255 -0.0235997 7.88682 -0.0236038 7.74966 0.0451767C 6.44662 0.732982 3.22332 2.4525 2.33176 3.07153C 0.822981 4.10323 0.137154 7.81738 -8.37171e-06 8.57397C -8.37171e-06 8.64275 -8.37171e-06 8.71152 -8.37171e-06 8.7803C 0.0685727 8.91786 1.44019 12.5632 11.6588 12.5632C 21.8773 12.5632 23.249 8.91786 23.3175 8.7803C 23.3175 8.71152 23.3175 8.64275 23.3175 8.57397Z"/>
<path id="path16_stroke" d="M 59.3912 31.7078L 59.8245 31.9573L 60.2559 31.2078L 59.3912 31.2078L 59.3912 31.7078ZM 0 31.7078L -0.433391 31.4585L -0.864513 32.2078L 0 32.2078L 0 31.7078ZM 30.1289 83.5427L 59.8245 31.9573L 58.9579 31.4584L 29.2623 83.0438L 30.1289 83.5427ZM 59.3912 31.2078L 0 31.2078L 0 32.2078L 59.3912 32.2078L 59.3912 31.2078ZM 0.433391 31.9572L 18.6759 0.249344L 17.8092 -0.249344L -0.433391 31.4585L 0.433391 31.9572Z"/>
<path id="path17_stroke" d="M 0 34.184L -0.432562 33.9332L -0.579431 34.1865L -0.430337 34.4385L 0 34.184ZM 13.4475 55.9337L 0.430337 33.9294L -0.430337 34.4385L 12.5869 56.4428L 13.4475 55.9337ZM 0.432562 34.4347L 20.2508 0.250779L 19.3857 -0.250779L -0.432562 33.9332L 0.432562 34.4347Z"/>
<path id="path18_stroke" d="M 0 38.6794L -0.5 38.6794L -0.5 38.8138L -0.432562 38.9302L 0 38.6794ZM -0.432562 38.9302L 41.6762 111.562L 42.5413 111.061L 0.432562 38.4286L -0.432562 38.9302ZM 0.5 38.6794L 0.5 0L -0.5 0L -0.5 38.6794L 0.5 38.6794Z"/>
<path id="path19_stroke" d="M 41.903 5.24754e-07L 42.3374 -0.247588L 42.1936 -0.499999L 41.903 -0.499999L 41.903 5.24754e-07ZM 0 0.500001L 41.903 0.500001L 41.903 -0.499999L 0 -0.499999L 0 0.500001ZM 41.4686 0.247589L 71.027 52.1081L 71.8958 51.6129L 42.3374 -0.247588L 41.4686 0.247589Z"/>
<path id="path20_stroke" d="M 0 0.499994L 83.806 0.499994L 83.806 -0.500006L 0 -0.500006L 0 0.499994Z"/>
<path id="path21_stroke" d="M 9.20412 26.6098L 8.85044 26.9632L 9.20412 27.3172L 9.55781 26.9632L 9.20412 26.6098ZM 8.70412 0L 8.70412 26.6098L 9.70412 26.6098L 9.70412 0L 8.70412 0ZM 9.55781 26.2564L 0.353687 17.0453L -0.353687 17.7521L 8.85044 26.9632L 9.55781 26.2564ZM 9.55781 26.9632L 18.7619 17.7521L 18.0546 17.0453L 8.85044 26.2564L 9.55781 26.9632Z"/>
<path id="path22_stroke" d="M 9.21109 26.5897L 8.85767 26.9434L 9.21109 27.2965L 9.56451 26.9434L 9.21109 26.5897ZM 8.71109 0L 8.71109 26.5897L 9.71109 26.5897L 9.71109 0L 8.71109 0ZM 9.56451 26.236L 0.35342 17.0319L -0.35342 17.7393L 8.85767 26.9434L 9.56451 26.236ZM 9.56451 26.9434L 18.7756 17.7393L 18.0688 17.0319L 8.85767 26.236L 9.56451 26.9434Z"/>
<path id="path23_stroke" d="M 9.20562 26.6055L 8.85199 26.959L 9.20562 27.3128L 9.55925 26.959L 9.20562 26.6055ZM 8.70562 0L 8.70562 26.6055L 9.70562 26.6055L 9.70562 0L 8.70562 0ZM 9.55925 26.252L 0.35363 17.0424L -0.35363 17.7494L 8.85199 26.959L 9.55925 26.252ZM 9.55925 26.959L 18.7649 17.7494L 18.0576 17.0424L 8.85199 26.252L 9.55925 26.959Z"/>
</defs>
</svg>
