<svg width="63" height="56" viewBox="0 0 63 56" version="1.1" xmlns="http://www.w3.org/2000/svg" xmlns:xlink="http://www.w3.org/1999/xlink">
<title>Group</title>
<desc>Created using Figma</desc>
<g id="Canvas" transform="translate(-6248 -2705)">
<g id="Group">
<g id="Group">
<g id="Vector">
<use xlink:href="#path0_stroke" transform="translate(6249 2706)" fill="#174F9D"/>
</g>
<g id="Vector">
<use xlink:href="#path1_stroke" transform="translate(6290 2719)" fill="#174F9D"/>
</g>
<g id="Vector">
<use xlink:href="#path2_stroke" transform="translate(6257 2737)" fill="#174F9D"/>
</g>
<g id="Vector">
<use xlink:href="#path2_stroke" transform="translate(6257 2729)" fill="#174F9D"/>
</g>
<g id="Vector">
<use xlink:href="#path3_stroke" transform="translate(6256.74 2744.73)" fill="#174F9D"/>
</g>
<g id="Vector">
<use xlink:href="#path4_stroke" transform="translate(6256.74 2752.43)" fill="#174F9D"/>
</g>
</g>
<g id="NEWS">
<use xlink:href="#path5_fill" transform="translate(6256 2713)" fill="#174F9D"/>
</g>
</g>
</g>
<defs>
<path id="path0_stroke" d="M 0 0L 0 -0.5L -0.5 -0.5L -0.5 0L 0 0ZM 61 0L 61.5 0L 61.5 -0.5L 61 -0.5L 61 0ZM 61 54L 61 54.5L 61.5 54.5L 61.5 54L 61 54ZM 0 54L -0.5 54L -0.5 54.5L 0 54.5L 0 54ZM 0 0.5L 61 0.5L 61 -0.5L 0 -0.5L 0 0.5ZM 60.5 0L 60.5 54L 61.5 54L 61.5 0L 60.5 0ZM 61 53.5L 0 53.5L 0 54.5L 61 54.5L 61 53.5ZM 0.5 54L 0.5 0L -0.5 0L -0.5 54L 0.5 54Z"/>
<path id="path1_stroke" d="M -8.37687e-08 -1.28875e-07L -8.37687e-08 -0.5L -0.5 -0.5L -0.5 -1.28875e-07L -8.37687e-08 -1.28875e-07ZM 13 -1.28875e-07L 13.5 -1.28875e-07L 13.5 -0.5L 13 -0.5L 13 -1.28875e-07ZM 13 20L 13 20.5L 13.5 20.5L 13.5 20L 13 20ZM -8.37687e-08 20L -0.5 20L -0.5 20.5L -8.37687e-08 20.5L -8.37687e-08 20ZM -8.37687e-08 0.5L 13 0.5L 13 -0.5L -8.37687e-08 -0.5L -8.37687e-08 0.5ZM 12.5 -1.28875e-07L 12.5 20L 13.5 20L 13.5 -1.28875e-07L 12.5 -1.28875e-07ZM 13 19.5L -8.37687e-08 19.5L -8.37687e-08 20.5L 13 20.5L 13 19.5ZM 0.5 20L 0.5 -1.28875e-07L -0.5 -1.28875e-07L -0.5 20L 0.5 20Z"/>
<path id="path2_stroke" d="M 6.06884e-07 0.5L 28 0.5L 28 -0.5L 6.06884e-07 -0.5L 6.06884e-07 0.5Z"/>
<path id="path3_stroke" d="M -1.20944e-07 0.500001L 46.4158 0.500001L 46.4158 -0.499999L -1.20944e-07 -0.499999L -1.20944e-07 0.500001Z"/>
<path id="path4_stroke" d="M -1.20944e-07 0.499999L 46.4158 0.499999L 46.4158 -0.500001L -1.20944e-07 -0.500001L -1.20944e-07 0.499999Z"/>
<path id="path5_fill" d="M 0.78 8L 2.04 8L 2.04 2.53L 2.06 2.53L 5.42 8L 7.02 8L 7.02 0.92L 5.76 0.92L 5.76 6.22L 5.74 6.22L 2.45 0.92L 0.78 0.92L 0.78 8ZM 8.58273 8L 13.4527 8L 13.4527 6.88L 9.84273 6.88L 9.84273 4.88L 13.0927 4.88L 13.0927 3.82L 9.84273 3.82L 9.84273 2.02L 13.2727 2.02L 13.2727 0.92L 8.58273 0.92L 8.58273 8ZM 16.0362 8L 17.2563 8L 18.9162 2.69L 18.9363 2.69L 20.5963 8L 21.8163 8L 23.8863 0.92L 22.5463 0.92L 21.1462 6.12L 21.1263 6.12L 19.5963 0.92L 18.2963 0.92L 16.7362 6.12L 16.7162 6.12L 15.3462 0.92L 13.9663 0.92L 16.0362 8ZM 29.1553 1.5C 28.6153 0.99 27.8053 0.74 27.0953 0.74C 25.8153 0.74 24.5053 1.38 24.5053 2.82C 24.5053 4.14 25.4353 4.56 26.2953 4.83C 27.1853 5.11 27.9253 5.32 27.9253 6.06C 27.9253 6.82 27.2353 7.11 26.6453 7.11C 26.0853 7.11 25.4453 6.81 25.0953 6.33L 24.1953 7.17C 24.7553 7.83 25.7053 8.18 26.6253 8.18C 28.0153 8.18 29.2053 7.44 29.2053 5.92C 29.2053 4.53 28.0453 4.13 27.1353 3.85C 26.3353 3.6 25.7853 3.41 25.7853 2.76C 25.7853 2.07 26.4553 1.79 27.0353 1.79C 27.5353 1.79 28.0653 2.05 28.3353 2.4L 29.1553 1.5Z"/>
</defs>
</svg>
