<svg width="72" height="52" viewBox="0 0 72 52" version="1.1" xmlns="http://www.w3.org/2000/svg" xmlns:xlink="http://www.w3.org/1999/xlink">
<title>Group</title>
<desc>Created using Figma</desc>
<g id="Canvas" transform="translate(-4857 -2707)">
<g id="Group">
<g id="Vector">
<use xlink:href="#path0_stroke" transform="translate(4858 2708)" fill="#174F9D"/>
</g>
<g id="Group">
<g id="Vector">
<use xlink:href="#path1_fill" transform="translate(4890.8 2727.2)" fill="#174F9D"/>
</g>
<g id="Vector">
<use xlink:href="#path2_fill" transform="translate(4895.4 2727.1)" fill="#174F9D"/>
</g>
<g id="Vector">
<use xlink:href="#path1_fill" transform="translate(4901.3 2727.2)" fill="#174F9D"/>
</g>
<g id="Vector">
<use xlink:href="#path3_fill" transform="translate(4906.5 2727.2)" fill="#174F9D"/>
</g>
<g id="Vector">
<use xlink:href="#path4_fill" transform="translate(4911.2 2727.1)" fill="#174F9D"/>
</g>
<g id="Vector">
<use xlink:href="#path5_fill" transform="translate(4890.8 2739.5)" fill="#174F9D"/>
</g>
<g id="Vector">
<use xlink:href="#path6_fill" transform="translate(4896 2739.5)" fill="#174F9D"/>
</g>
<g id="Vector">
<use xlink:href="#path7_fill" transform="translate(4900.7 2739.4)" fill="#174F9D"/>
</g>
<g id="Vector">
<use xlink:href="#path6_fill" transform="translate(4906.5 2739.5)" fill="#174F9D"/>
</g>
<g id="Vector">
<use xlink:href="#path5_fill" transform="translate(4911.8 2739.5)" fill="#174F9D"/>
</g>
<g id="Vector">
<use xlink:href="#path8_fill" transform="translate(4890.1 2751.7)" fill="#174F9D"/>
</g>
<g id="Vector">
<use xlink:href="#path9_fill" transform="translate(4895.4 2751.7)" fill="#174F9D"/>
</g>
<g id="Vector">
<use xlink:href="#path10_fill" transform="translate(4901.3 2751.8)" fill="#174F9D"/>
</g>
<g id="Vector">
<use xlink:href="#path11_fill" transform="translate(4905.9 2751.7)" fill="#174F9D"/>
</g>
<g id="Vector">
<use xlink:href="#path12_fill" transform="translate(4911.2 2751.7)" fill="#174F9D"/>
</g>
</g>
</g>
</g>
<defs>
<path id="path0_stroke" d="M 12.3 41.2L 12.2567 41.6981L 12.2783 41.7L 12.3 41.7L 12.3 41.2ZM 12.8 14.6L 12.8211 15.0996L 13.1988 15.0836L 13.2864 14.7158L 12.8 14.6ZM 47.7 9.1L 47.2769 9.36641L 47.5566 9.81069L 47.9867 9.50962L 47.7 9.1ZM 57.1 14.6L 56.6 14.6L 56.6 15.1L 57.1 15.1L 57.1 14.6ZM 26.2 40.7L 12.3 40.7L 12.3 41.7L 26.2 41.7L 26.2 40.7ZM 12.3433 40.7019C 5.69449 40.1237 0.5 34.6335 0.5 27.9L -0.5 27.9C -0.5 35.1665 5.10551 41.0763 12.2567 41.6981L 12.3433 40.7019ZM 0.5 27.9C 0.5 20.9727 5.98403 15.3884 12.8211 15.0996L 12.7789 14.1004C 5.41597 14.4116 -0.5 20.4273 -0.5 27.9L 0.5 27.9ZM 13.2864 14.7158C 15.2333 6.53899 22.6336 0.5 31.4 0.5L 31.4 -0.5C 22.1664 -0.5 14.3667 5.86101 12.3136 14.4842L 13.2864 14.7158ZM 31.4 0.5C 38.1157 0.5 43.9616 4.10091 47.2769 9.36641L 48.1231 8.83359C 44.6384 3.29909 38.4843 -0.5 31.4 -0.5L 31.4 0.5ZM 47.9867 9.50962C 48.9123 8.8527 49.8664 8.59558 51.1 8.6L 51.1 7.6C 49.7336 7.60442 48.4877 7.9473 47.4133 8.69038L 47.9867 9.50962ZM 51.1 8.6C 54.1239 8.6 56.6 11.0761 56.6 14.1L 57.6 14.1C 57.6 10.5239 54.6761 7.6 51.1 7.6L 51.1 8.6ZM 56.6 14.1C 56.6 14.3 56.6 14.5 56.6 14.6L 57.6 14.6C 57.6 14.5 57.6 14.3 57.6 14.1L 56.6 14.1ZM 57.1 15.1C 64.119 15.1 69.8 20.8712 69.8 27.9L 70.8 27.9C 70.8 20.3288 64.681 14.1 57.1 14.1L 57.1 15.1ZM 69.8 27.9C 69.8115 31.4433 68.3577 34.5996 66.2171 36.9516C 64.0945 39.2926 61.3698 40.7 58.9 40.7L 58.9 41.7C 61.7302 41.7 64.7055 40.1074 66.9579 37.6234C 69.1923 35.1504 70.7885 31.6567 70.8 27.9L 69.8 27.9Z"/>
<path id="path1_fill" d="M 1.4 0.9L 0.2 1.5L -7.62939e-07 0.8L 1.5 7.62939e-07L 2.3 7.62939e-07L 2.3 6.7L 1.4 6.7L 1.4 0.9Z"/>
<path id="path2_fill" d="M 4.5 3.4C 4.5 5.7 3.7 6.9 2.2 6.9C 0.899998 6.9 1.52588e-06 5.7 1.52588e-06 3.5C 1.52588e-06 1.3 1 3.8147e-07 2.3 3.8147e-07C 3.7 3.8147e-07 4.5 1.3 4.5 3.4ZM 0.899999 3.5C 0.899999 5.2 1.4 6.2 2.3 6.2C 3.2 6.2 3.7 5.1 3.7 3.4C 3.7 1.8 3.3 0.699999 2.3 0.699999C 1.4 0.699999 0.899999 1.7 0.899999 3.5Z"/>
<path id="path3_fill" d="M 1.4 0.9L 0.200001 1.5L 7.10543e-15 0.8L 1.5 7.62939e-07L 2.3 7.62939e-07L 2.3 6.7L 1.4 6.7L 1.4 0.9Z"/>
<path id="path4_fill" d="M 4.5 3.4C 4.5 5.7 3.7 6.9 2.2 6.9C 0.900002 6.9 7.62939e-07 5.7 7.62939e-07 3.5C 7.62939e-07 1.3 1 3.8147e-07 2.3 3.8147e-07C 3.7 3.8147e-07 4.5 1.3 4.5 3.4ZM 0.899998 3.5C 0.899998 5.2 1.4 6.2 2.3 6.2C 3.2 6.2 3.7 5.1 3.7 3.4C 3.7 1.8 3.3 0.699999 2.3 0.699999C 1.4 0.699999 0.899998 1.7 0.899998 3.5Z"/>
<path id="path5_fill" d="M 1.4 0.900002L 0.2 1.5L -7.62939e-07 0.799999L 1.5 3.55271e-15L 2.3 3.55271e-15L 2.3 6.7L 1.4 6.7L 1.4 0.900002Z"/>
<path id="path6_fill" d="M 1.4 0.900002L 0.200001 1.5L 7.10543e-15 0.799999L 1.5 3.55271e-15L 2.3 3.55271e-15L 2.3 6.7L 1.4 6.7L 1.4 0.900002Z"/>
<path id="path7_fill" d="M 4.5 3.4C 4.5 5.7 3.7 6.9 2.2 6.9C 0.900002 6.9 7.62939e-07 5.7 7.62939e-07 3.5C 7.62939e-07 1.3 1 -3.8147e-07 2.3 -3.8147e-07C 3.7 -3.8147e-07 4.5 1.3 4.5 3.4ZM 0.8 3.5C 0.8 5.2 1.3 6.2 2.2 6.2C 3.1 6.2 3.6 5.1 3.6 3.4C 3.6 1.8 3.2 0.699998 2.2 0.699998C 1.4 0.699998 0.8 1.7 0.8 3.5Z"/>
<path id="path8_fill" d="M 4.5 3.4C 4.5 5.7 3.7 6.9 2.2 6.9C 0.899999 6.9 -1.52588e-06 5.7 -1.52588e-06 3.5C -1.52588e-06 1.3 1 7.62939e-07 2.3 7.62939e-07C 3.7 0.100001 4.5 1.3 4.5 3.4ZM 0.9 3.5C 0.9 5.2 1.4 6.2 2.3 6.2C 3.2 6.2 3.7 5.1 3.7 3.4C 3.7 1.8 3.3 0.700002 2.3 0.700002C 1.5 0.800002 0.9 1.7 0.9 3.5Z"/>
<path id="path9_fill" d="M 4.5 3.4C 4.5 5.7 3.7 6.9 2.2 6.9C 0.899998 6.9 1.52588e-06 5.7 1.52588e-06 3.5C 1.52588e-06 1.3 1 7.62939e-07 2.3 7.62939e-07C 3.7 0.100001 4.5 1.3 4.5 3.4ZM 0.899999 3.5C 0.899999 5.2 1.4 6.2 2.3 6.2C 3.2 6.2 3.7 5.1 3.7 3.4C 3.7 1.8 3.3 0.700002 2.3 0.700002C 1.4 0.800002 0.899999 1.7 0.899999 3.5Z"/>
<path id="path10_fill" d="M 1.4 0.900001L 0.2 1.5L -7.62939e-07 0.799998L 1.5 -7.62939e-07L 2.3 -7.62939e-07L 2.3 6.7L 1.4 6.7L 1.4 0.900001Z"/>
<path id="path11_fill" d="M 4.5 3.4C 4.5 5.7 3.7 6.9 2.2 6.9C 0.899998 6.9 1.52588e-06 5.7 1.52588e-06 3.5C 1.52588e-06 1.3 1 7.62939e-07 2.3 7.62939e-07C 3.7 0.100001 4.5 1.3 4.5 3.4ZM 0.899999 3.5C 0.899999 5.2 1.4 6.2 2.3 6.2C 3.2 6.2 3.7 5.1 3.7 3.4C 3.7 1.8 3.3 0.700002 2.3 0.700002C 1.5 0.800002 0.899999 1.7 0.899999 3.5Z"/>
<path id="path12_fill" d="M 4.5 3.4C 4.5 5.7 3.7 6.9 2.2 6.9C 0.900002 6.9 7.62939e-07 5.7 7.62939e-07 3.5C 7.62939e-07 1.3 1 7.62939e-07 2.3 7.62939e-07C 3.7 0.100001 4.5 1.3 4.5 3.4ZM 0.899998 3.5C 0.899998 5.2 1.4 6.2 2.3 6.2C 3.2 6.2 3.7 5.1 3.7 3.4C 3.7 1.8 3.3 0.700002 2.3 0.700002C 1.4 0.800002 0.899998 1.7 0.899998 3.5Z"/>
</defs>
</svg>
