<svg width="53" height="60" viewBox="0 0 53 60" version="1.1" xmlns="http://www.w3.org/2000/svg" xmlns:xlink="http://www.w3.org/1999/xlink">
<title>Group</title>
<desc>Created using Figma</desc>
<g id="Canvas" transform="translate(-5727 -2771)">
<g id="Group">
<g id="Vector">
<use xlink:href="#path0_stroke" transform="translate(5728 2780.8)" fill="#174F9F"/>
</g>
<g id="Vector">
<use xlink:href="#path1_stroke" transform="translate(5728 2807.64)" fill="#174F9F"/>
</g>
<g id="Vector">
<use xlink:href="#path2_stroke" transform="translate(5728 2794.22)" fill="#174F9F"/>
</g>
<g id="Vector">
<use xlink:href="#path3_stroke" transform="translate(5728 2772)" fill="#174F9F"/>
</g>
<g id="Vector">
<use xlink:href="#path4_stroke" transform="translate(5731.35 2791.77)" fill="#174F9F"/>
</g>
<g id="Vector">
<use xlink:href="#path5_stroke" transform="translate(5731.35 2805.04)" fill="#174F9F"/>
</g>
<g id="Vector">
<use xlink:href="#path6_stroke" transform="translate(5731.35 2818.31)" fill="#174F9F"/>
</g>
</g>
</g>
<defs>
<path id="path0_stroke" d="M -0.500018 -5.50378e-07L -0.500018 40.3979L 0.499982 40.3979L 0.499982 -5.50378e-07L -0.500018 -5.50378e-07ZM -0.500018 40.3979C -0.500018 41.8336 0.333073 43.1248 1.67963 44.2292C 3.00965 45.3162 4.95031 46.3048 7.28676 47.1107C 11.9381 48.7105 18.3949 49.6975 25.4998 49.6989L 25.4998 48.6989C 18.4706 48.7003 12.1774 47.7395 7.61239 46.1652C 5.34066 45.3841 3.55652 44.479 2.31379 43.456C 1.0876 42.4503 0.499982 41.415 0.499982 40.3979L -0.500018 40.3979ZM 25.4998 49.6989C 32.6048 49.6975 39.0615 48.7105 43.7129 47.1107C 46.0493 46.3048 47.99 45.3162 49.32 44.2292C 50.6666 43.1248 51.4997 41.8336 51.4997 40.3979L 50.4997 40.3979C 50.4997 41.415 49.912 42.4503 48.6858 43.456C 47.4431 44.479 45.659 45.3841 43.3872 46.1652C 38.8222 47.7395 32.5291 48.7003 25.4998 48.6989L 25.4998 49.6989ZM 51.4997 40.3979L 51.4997 -5.50378e-07L 50.4997 -5.50378e-07L 50.4997 40.3979L 51.4997 40.3979Z"/>
<path id="path1_stroke" d="M 50.4997 0C 50.4997 1.01709 49.912 2.05237 48.6858 3.05804C 47.4431 4.08107 45.659 4.98617 43.3872 5.76729C 38.8222 7.34162 32.5291 8.30241 25.4998 8.30097L 25.4998 9.30097C 32.6048 9.29954 39.0615 8.31257 43.7129 6.71278C 46.0493 5.90684 47.99 4.91829 49.32 3.83125C 50.6666 2.72685 51.4997 1.43564 51.4997 0L 50.4997 0ZM 25.4998 8.30097C 18.4706 8.30241 12.1774 7.34162 7.61239 5.76729C 5.34066 4.98617 3.55652 4.08107 2.31379 3.05804C 1.0876 2.05237 0.499982 1.01709 0.499982 0L -0.500018 0C -0.500018 1.43564 0.333073 2.72685 1.67963 3.83125C 3.00965 4.91829 4.95031 5.90684 7.28676 6.71278C 11.9381 8.31257 18.3949 9.29954 25.4998 9.30097L 25.4998 8.30097Z"/>
<path id="path2_stroke" d="M 50.4997 1.10076e-06C 50.4997 1.01709 49.912 2.05237 48.6858 3.05804C 47.4431 4.08107 45.659 4.98617 43.3872 5.76729C 38.8222 7.34162 32.5291 8.30241 25.4998 8.30097L 25.4998 9.30097C 32.6048 9.29954 39.0615 8.31257 43.7129 6.71279C 46.0493 5.90684 47.99 4.91829 49.32 3.83125C 50.6666 2.72685 51.4997 1.43565 51.4997 1.10076e-06L 50.4997 1.10076e-06ZM 25.4998 8.30097C 18.4706 8.30241 12.1774 7.34162 7.61239 5.76729C 5.34066 4.98617 3.55652 4.08107 2.31379 3.05804C 1.0876 2.05237 0.499982 1.01709 0.499982 1.10076e-06L -0.500018 1.10076e-06C -0.500018 1.43565 0.333073 2.72685 1.67963 3.83125C 3.00965 4.91829 4.95031 5.90684 7.28676 6.71279C 11.9381 8.31257 18.3949 9.29954 25.4998 9.30097L 25.4998 8.30097Z"/>
<path id="path3_stroke" d="M 50.4997 8.80097C 50.4997 9.80473 49.9112 10.8343 48.6796 11.8393C 47.4326 12.8606 45.643 13.7676 43.3678 14.5516C 38.7961 16.1315 32.5031 17.1034 25.4998 17.102L 25.4998 18.102C 32.5797 18.1005 39.0366 17.1022 43.6941 15.4968C 46.0334 14.6882 47.9782 13.6987 49.3119 12.6141C 50.661 11.5132 51.4997 10.2275 51.4997 8.80097L 50.4997 8.80097ZM 25.4998 17.102C 18.4965 17.1034 12.2035 16.1315 7.63184 14.5516C 5.35665 13.7676 3.56707 12.8606 2.32 11.8393C 1.08839 10.8343 0.499982 9.80473 0.499982 8.80097L -0.500018 8.80097C -0.500018 10.2275 0.338656 11.5132 1.68777 12.6141C 3.02143 13.6987 4.96621 14.6882 7.30559 15.4968C 11.9631 17.1022 18.4199 18.1005 25.4998 18.102L 25.4998 17.102ZM 0.499982 8.80097C 0.499982 7.79722 1.08839 6.76762 2.32 5.76263C 3.56707 4.74131 5.35665 3.83439 7.63184 3.05039C 12.2035 1.47041 18.4965 0.498532 25.4998 0.5L 25.4998 -0.5C 18.4199 -0.498531 11.9631 0.499751 7.30559 2.1051C 4.96621 2.91376 3.02143 3.9033 1.68777 4.98785C 0.338656 6.08872 -0.500018 7.3744 -0.500018 8.80097L 0.499982 8.80097ZM 25.4998 0.5C 32.5031 0.498532 38.7961 1.47041 43.3678 3.05039C 45.643 3.83439 47.4326 4.74131 48.6796 5.76263C 49.9112 6.76762 50.4997 7.79722 50.4997 8.80097L 51.4997 8.80097C 51.4997 7.3744 50.661 6.08872 49.3119 4.98785C 47.9782 3.9033 46.0334 2.91376 43.6941 2.1051C 39.0366 0.499751 32.5797 -0.498531 25.4998 -0.5L 25.4998 0.5Z"/>
<path id="path4_stroke" d="M 2.12283 1.2985C 2.12283 1.73486 1.76423 2.09701 1.31142 2.09701L 1.31142 3.09701C 2.30717 3.09701 3.12283 2.29644 3.12283 1.2985L 2.12283 1.2985ZM 1.31142 2.09701C 0.858612 2.09701 0.500009 1.73486 0.500009 1.2985L -0.499991 1.2985C -0.499991 2.29644 0.315673 3.09701 1.31142 3.09701L 1.31142 2.09701ZM 0.500009 1.2985C 0.500009 0.862152 0.858612 0.5 1.31142 0.5L 1.31142 -0.5C 0.315673 -0.5 -0.499991 0.300567 -0.499991 1.2985L 0.500009 1.2985ZM 1.31142 0.5C 1.76423 0.5 2.12283 0.862152 2.12283 1.2985L 3.12283 1.2985C 3.12283 0.300567 2.30717 -0.5 1.31142 -0.5L 1.31142 0.5Z"/>
<path id="path5_stroke" d="M 2.12283 1.29851C 2.12283 1.73486 1.76423 2.09701 1.31142 2.09701L 1.31142 3.09701C 2.30717 3.09701 3.12283 2.29644 3.12283 1.29851L 2.12283 1.29851ZM 1.31142 2.09701C 0.858612 2.09701 0.500009 1.73486 0.500009 1.29851L -0.499991 1.29851C -0.499991 2.29644 0.315673 3.09701 1.31142 3.09701L 1.31142 2.09701ZM 0.500009 1.29851C 0.500009 0.862153 0.858612 0.500001 1.31142 0.500001L 1.31142 -0.499999C 0.315673 -0.499999 -0.499991 0.300569 -0.499991 1.29851L 0.500009 1.29851ZM 1.31142 0.500001C 1.76423 0.500001 2.12283 0.862153 2.12283 1.29851L 3.12283 1.29851C 3.12283 0.300569 2.30717 -0.499999 1.31142 -0.499999L 1.31142 0.500001Z"/>
<path id="path6_stroke" d="M 2.12283 1.2985C 2.12283 1.73486 1.76423 2.09701 1.31142 2.09701L 1.31142 3.09701C 2.30717 3.09701 3.12283 2.29644 3.12283 1.2985L 2.12283 1.2985ZM 1.31142 2.09701C 0.858614 2.09701 0.500009 1.73486 0.500009 1.2985L -0.499991 1.2985C -0.499991 2.29644 0.315672 3.09701 1.31142 3.09701L 1.31142 2.09701ZM 0.500009 1.2985C 0.500009 0.862153 0.858611 0.500002 1.31142 0.500002L 1.31142 -0.499998C 0.315675 -0.499998 -0.499991 0.300566 -0.499991 1.2985L 0.500009 1.2985ZM 1.31142 0.500002C 1.76423 0.500002 2.12283 0.862153 2.12283 1.2985L 3.12283 1.2985C 3.12283 0.300566 2.30717 -0.499998 1.31142 -0.499998L 1.31142 0.500002Z"/>
</defs>
</svg>
