<svg width="74" height="52" viewBox="0 0 74 52" version="1.1" xmlns="http://www.w3.org/2000/svg" xmlns:xlink="http://www.w3.org/1999/xlink">
<title>open-book</title>
<desc>Created using Figma</desc>
<g id="Canvas" transform="translate(-5087 -2707)">
<g id="open-book">
<g id="Group">
<g id="Group">
<g id="Vector">
<use xlink:href="#path0_stroke" transform="translate(5088 2708)" fill="#174F9F"/>
</g>
</g>
</g>
</g>
</g>
<defs>
<path id="path0_stroke" d="M 36.0005 43.4411L 35.8665 43.9228L 36.0026 43.9607L 36.1384 43.9217L 36.0005 43.4411ZM 67.4168 3.12787L 67.9168 3.12787L 67.9168 2.76796L 67.5755 2.65372L 67.4168 3.12787ZM 4.58428 3.12787L 4.42116 2.65523L 4.08428 2.77149L 4.08428 3.12787L 4.58428 3.12787ZM 8.46955 11.7171L 8.04698 11.9844L 8.58151 12.8295L 9.00409 12.5623L 8.46955 11.7171ZM 30.9676 12.5782L 31.4061 12.8184L 31.8864 11.9413L 31.4479 11.7012L 30.9676 12.5782ZM 8.46955 17.6894L 8.04698 17.9567L 8.58151 18.8019L 9.00409 18.5346L 8.46955 17.6894ZM 30.9676 18.5506L 31.4061 18.7907L 31.8864 17.9136L 31.4479 17.6735L 30.9676 18.5506ZM 8.46955 23.4485L 8.04698 23.7157L 8.58151 24.5609L 9.00409 24.2936L 8.46955 23.4485ZM 30.9676 24.3096L 31.4061 24.5498L 31.8864 23.6727L 31.4479 23.4325L 30.9676 24.3096ZM 8.46955 28.7809L 8.04698 29.0482L 8.58151 29.8933L 9.00409 29.6261L 8.46955 28.7809ZM 30.9676 29.642L 31.4061 29.8822L 31.8864 29.0051L 31.4479 28.765L 30.9676 29.642ZM 40.5252 13.6368L 40.1026 13.9041L 40.6372 14.7492L 41.0597 14.4819L 40.5252 13.6368ZM 63.0232 14.4979L 63.4618 14.7381L 63.9421 13.861L 63.5036 13.6208L 63.0232 14.4979ZM 40.5252 19.6091L 40.1026 19.8764L 40.6372 20.7215L 41.0597 20.4543L 40.5252 19.6091ZM 63.0232 20.4702L 63.4618 20.7104L 63.9421 19.8333L 63.5036 19.5932L 63.0232 20.4702ZM 40.5252 25.3682L 40.1026 25.6354L 40.6372 26.4806L 41.0597 26.2133L 40.5252 25.3682ZM 63.0232 26.2293L 63.4618 26.4694L 63.9421 25.5924L 63.5036 25.3522L 63.0232 26.2293ZM 40.5252 30.7006L 40.1026 30.9679L 40.6372 31.813L 41.0597 31.5457L 40.5252 30.7006ZM 63.0232 31.5617L 63.4618 31.8019L 63.9421 30.9248L 63.5036 30.6846L 63.0232 31.5617ZM 0 8.40699L 0 7.90699L -0.5 7.90699L -0.5 8.40699L 0 8.40699ZM 0 50L -0.5 50L -0.5 50.5L 0 50.5L 0 50ZM 72 50L 72 50.5L 72.5 50.5L 72.5 50L 72 50ZM 72 8.40699L 72.5 8.40699L 72.5 7.90699L 72 7.90699L 72 8.40699ZM 4.58428 45.9473L 4.08428 45.9473L 4.08428 46.4473L 4.58428 46.4473L 4.58428 45.9473ZM 67.4168 45.9473L 67.4168 46.4473L 67.9168 46.4473L 67.9168 45.9473L 67.4168 45.9473ZM 36.5005 43.4411L 36.5005 3.12787L 35.5005 3.12787L 35.5005 43.4411L 36.5005 43.4411ZM 36.1636 3.60052C 48.3475 -0.612439 55.063 -0.485732 67.2581 3.60202L 67.5755 2.65372C 55.233 -1.47118 48.1912 -1.60016 35.8374 2.65523L 36.1636 3.60052ZM 67.5508 42.9594C 55.2194 39.5328 48.2035 39.4258 35.8627 42.9605L 36.1384 43.9217C 48.3351 40.4171 55.0765 40.5225 67.2828 43.9228L 67.5508 42.9594ZM 4.7474 3.60052C 16.9312 -0.612439 23.6467 -0.485732 35.8418 3.60202L 36.1592 2.65372C 23.8167 -1.47118 16.775 -1.60016 4.42116 2.65523L 4.7474 3.60052ZM 36.1345 42.9594C 23.8032 39.5328 16.7873 39.4258 4.4464 42.9605L 4.72216 43.9217C 16.9189 40.4171 23.6603 40.5225 35.8665 43.9228L 36.1345 42.9594ZM 9.00409 12.5623C 14.8987 8.83406 24.2869 8.91955 30.9676 12.5782L 31.4479 11.7012C 24.4969 7.89442 14.7156 7.76662 8.46955 11.7171L 9.00409 12.5623ZM 9.00409 18.5346C 14.8987 14.8064 24.2869 14.8919 30.9676 18.5506L 31.4479 17.6735C 24.4969 13.8667 14.7156 13.7389 8.46955 17.6894L 9.00409 18.5346ZM 9.00409 24.2936C 14.8987 20.5654 24.2869 20.6509 30.9676 24.3096L 31.4479 23.4325C 24.4969 19.6258 14.7156 19.498 8.46955 23.4485L 9.00409 24.2936ZM 9.00409 29.6261C 14.8987 25.8979 24.2869 25.9834 30.9676 29.642L 31.4479 28.765C 24.4969 24.9582 14.7156 24.8304 8.46955 28.7809L 9.00409 29.6261ZM 41.0597 14.4819C 46.9543 10.7537 56.3426 10.8392 63.0232 14.4979L 63.5036 13.6208C 56.5526 9.8141 46.7713 9.68629 40.5252 13.6368L 41.0597 14.4819ZM 41.0597 20.4543C 46.9543 16.7261 56.3426 16.8116 63.0232 20.4702L 63.5036 19.5932C 56.5526 15.7864 46.7713 15.6586 40.5252 19.6091L 41.0597 20.4543ZM 41.0597 26.2133C 46.9543 22.4851 56.3426 22.5706 63.0232 26.2293L 63.5036 25.3522C 56.5526 21.5455 46.7713 21.4177 40.5252 25.3682L 41.0597 26.2133ZM 41.0597 31.5457C 46.9543 27.8175 56.3426 27.903 63.0232 31.5617L 63.5036 30.6846C 56.5526 26.8779 46.7713 26.7501 40.5252 30.7006L 41.0597 31.5457ZM 5.08428 43.4411L 5.08428 8.40699L 4.08428 8.40699L 4.08428 43.4411L 5.08428 43.4411ZM 5.08428 8.40699L 5.08428 3.12787L 4.08428 3.12787L 4.08428 8.40699L 5.08428 8.40699ZM 4.58428 7.90699L 0 7.90699L 0 8.90699L 4.58428 8.90699L 4.58428 7.90699ZM -0.5 8.40699L -0.5 50L 0.5 50L 0.5 8.40699L -0.5 8.40699ZM 0 50.5L 72 50.5L 72 49.5L 0 49.5L 0 50.5ZM 72.5 50L 72.5 8.40699L 71.5 8.40699L 71.5 50L 72.5 50ZM 66.9168 3.12787L 66.9168 8.40699L 67.9168 8.40699L 67.9168 3.12787L 66.9168 3.12787ZM 66.9168 8.40699L 66.9168 43.4411L 67.9168 43.4411L 67.9168 8.40699L 66.9168 8.40699ZM 72 7.90699L 67.4168 7.90699L 67.4168 8.90699L 72 8.90699L 72 7.90699ZM 4.58428 46.4473L 36.0005 46.4473L 36.0005 45.4473L 4.58428 45.4473L 4.58428 46.4473ZM 36.0005 46.4473L 67.4168 46.4473L 67.4168 45.4473L 36.0005 45.4473L 36.0005 46.4473ZM 67.9168 45.9473L 67.9168 43.4411L 66.9168 43.4411L 66.9168 45.9473L 67.9168 45.9473ZM 4.08428 43.4411L 4.08428 45.9473L 5.08428 45.9473L 5.08428 43.4411L 4.08428 43.4411Z"/>
</defs>
</svg>
