<svg width="72" height="68" viewBox="0 0 72 68" version="1.1" xmlns="http://www.w3.org/2000/svg" xmlns:xlink="http://www.w3.org/1999/xlink">
<title>Group</title>
<desc>Created using Figma</desc>
<g id="Canvas" transform="translate(-5781 -2701)">
<g id="Group">
<g id="Rectangle 16">
<mask id="mask0_outline_ins">
<use xlink:href="#path0_fill" fill="white" transform="translate(5781 2701)"/>
<use xlink:href="#path1_fill" fill="white" transform="translate(5781 2701)"/>
</mask>
<g mask="url(#mask0_outline_ins)">
<use xlink:href="#path2_stroke_2x" transform="translate(5781 2701)" fill="#174E9E"/>
</g>
</g>
<g id="?">
<use xlink:href="#path3_fill" transform="translate(5781 2708.56)" fill="#174F9D"/>
</g>
<g id="!">
<use xlink:href="#path4_fill" transform="translate(5807.87 2739.86)" fill="#174F9D"/>
</g>
</g>
</g>
<defs>
<path id="path0_fill" d="M 0 0L 45.1343 0L 45.1343 26.9841L 9.67164 26.9841L 0 36.6984L 0 0Z"/>
<path id="path1_fill" d="M 72 31.3016L 26.8657 31.3016L 26.8657 58.2857L 62.3284 58.2857L 72 68L 72 31.3016Z"/>
<path id="path2_stroke_2x" d="M 0 0L 0 -1L -1 -1L -1 0L 0 0ZM 45.1343 0L 46.1343 0L 46.1343 -1L 45.1343 -1L 45.1343 0ZM 45.1343 26.9841L 45.1343 27.9841L 46.1343 27.9841L 46.1343 26.9841L 45.1343 26.9841ZM 0 36.6984L -1 36.6984L -1 39.1202L 0.708661 37.404L 0 36.6984ZM 9.67164 26.9841L 9.67164 25.9841L 9.25614 25.9841L 8.96298 26.2786L 9.67164 26.9841ZM 72 31.3016L 73 31.3016L 73 30.3016L 72 30.3016L 72 31.3016ZM 26.8657 31.3016L 26.8657 30.3016L 25.8657 30.3016L 25.8657 31.3016L 26.8657 31.3016ZM 26.8657 58.2857L 25.8657 58.2857L 25.8657 59.2857L 26.8657 59.2857L 26.8657 58.2857ZM 72 68L 71.2913 68.7056L 73 70.4217L 73 68L 72 68ZM 62.3284 58.2857L 63.037 57.5802L 62.7439 57.2857L 62.3284 57.2857L 62.3284 58.2857ZM 0 1L 45.1343 1L 45.1343 -1L 0 -1L 0 1ZM 44.1343 0L 44.1343 26.9841L 46.1343 26.9841L 46.1343 0L 44.1343 0ZM 1 36.6984L 1 0L -1 0L -1 36.6984L 1 36.6984ZM 45.1343 25.9841L 9.67164 25.9841L 9.67164 27.9841L 45.1343 27.9841L 45.1343 25.9841ZM 8.96298 26.2786L -0.708661 35.9929L 0.708661 37.404L 10.3803 27.6897L 8.96298 26.2786ZM 72 30.3016L 26.8657 30.3016L 26.8657 32.3016L 72 32.3016L 72 30.3016ZM 25.8657 31.3016L 25.8657 58.2857L 27.8657 58.2857L 27.8657 31.3016L 25.8657 31.3016ZM 73 68L 73 31.3016L 71 31.3016L 71 68L 73 68ZM 26.8657 59.2857L 62.3284 59.2857L 62.3284 57.2857L 26.8657 57.2857L 26.8657 59.2857ZM 61.6197 58.9913L 71.2913 68.7056L 72.7087 67.2944L 63.037 57.5802L 61.6197 58.9913Z"/>
<path id="path3_fill" d="M 23.8042 9.238L 23.8042 8.77C 23.8042 7.726 24.0562 7.42 24.9922 6.592C 26.1082 5.62 26.7922 4.936 26.7922 3.406C 26.7922 1.138 25.0282 -0.0680002 22.9582 -0.0680002C 20.7442 -0.0680002 19.0342 1.282 18.7642 3.568L 20.9782 3.766C 21.0142 2.794 21.6982 1.894 22.8142 1.894C 23.8762 1.894 24.5062 2.614 24.5062 3.55C 24.5062 4.27 24.1282 4.738 23.6782 5.152L 22.8682 5.926C 21.9682 6.79 21.6802 7.402 21.6802 8.554L 21.6802 9.238L 23.8042 9.238ZM 21.3202 11.74C 21.3202 12.514 22.0042 13.108 22.7602 13.108C 23.5522 13.108 24.2002 12.478 24.2002 11.704C 24.2002 10.93 23.5342 10.336 22.7602 10.336C 21.9682 10.336 21.3202 10.966 21.3202 11.74Z"/>
<path id="path4_fill" d="M 23.6486 0.256L 21.4886 0.256L 21.4886 9.004L 23.6486 9.004L 23.6486 0.256ZM 21.1286 11.74C 21.1286 12.514 21.8126 13.108 22.5686 13.108C 23.3606 13.108 24.0086 12.478 24.0086 11.704C 24.0086 10.93 23.3426 10.336 22.5686 10.336C 21.7766 10.336 21.1286 10.966 21.1286 11.74Z"/>
</defs>
</svg>
