<svg width="52" height="59" viewBox="0 0 52 59" version="1.1" xmlns="http://www.w3.org/2000/svg" xmlns:xlink="http://www.w3.org/1999/xlink">
<title>Group</title>
<desc>Created using Figma</desc>
<g id="Canvas" transform="translate(-5559 -2703)">
<g id="Group">
<g id="Vector 4">
<use xlink:href="#path0_stroke" transform="translate(5560 2730.76)" fill="#174DA1"/>
</g>
<g id="Ellipse 3">
<use xlink:href="#path1_fill" transform="translate(5587.2 2737.71)" fill="#FFFFFF"/>
<mask id="mask0_outline_ins">
<use xlink:href="#path1_fill" fill="white" transform="translate(5587.2 2737.71)"/>
</mask>
<g mask="url(#mask0_outline_ins)">
<use xlink:href="#path2_stroke_2x" transform="translate(5587.2 2737.71)" fill="#174DA1"/>
</g>
</g>
<g id="Vector 5">
<use xlink:href="#path3_stroke" transform="translate(5599.1 2744.65)" fill="#174DA1"/>
</g>
<g id="Vector 5">
<use xlink:href="#path4_stroke" transform="matrix(1.47468e-16 1 -1 2.54252e-17 5604.2 2749.85)" fill="#174DA1"/>
</g>
<g id="Ellipse 2">
<mask id="mask1_outline_ins">
<use xlink:href="#path5_fill" fill="white" transform="translate(5570.2 2703)"/>
</mask>
<g mask="url(#mask1_outline_ins)">
<use xlink:href="#path6_stroke_2x" transform="translate(5570.2 2703)" fill="#174DA1"/>
</g>
</g>
</g>
</g>
<defs>
<path id="path0_stroke" d="M 0 15.6176L -0.488503 15.511L -0.515031 15.6326L -0.481494 15.7524L 0 15.6176ZM 44.2 15.6176L 44.6815 15.7524L 44.7062 15.664L 44.698 15.5725L 44.2 15.6176ZM 34 0L 34.2041 -0.456459L 33.8963 -0.594047L 33.6534 -0.360344L 34 0ZM 10.2 0L 10.5466 -0.360344L 10.2973 -0.600159L 9.98501 -0.45142L 10.2 0ZM -0.481494 15.7524C 0.299819 18.5438 3.34058 21.6666 7.40748 24.0737C 11.4854 26.484 16.7735 28.2581 22.1 28.2647L 22.1 27.2647C 16.935 27.2713 11.9017 25.5748 7.91681 23.2131C 3.92085 20.8481 1.15732 17.8974 0.481494 15.4829L -0.481494 15.7524ZM 22.1 28.2647C 27.4265 28.2581 32.7146 26.484 36.7925 24.0737C 40.8594 21.6666 43.9002 18.5438 44.6815 15.7524L 43.7185 15.4829C 43.0427 17.8974 40.2792 20.8481 36.2832 23.2131C 32.2983 25.5748 27.265 27.2713 22.1 27.2647L 22.1 28.2647ZM 44.698 15.5725C 44.2956 11.1302 43.7325 8.00826 42.2108 5.54964C 40.6786 3.07393 38.2199 1.3389 34.2041 -0.456459L 33.7959 0.456459C 37.7466 2.22271 39.9855 3.85431 41.3605 6.07591C 42.746 8.31461 43.2997 11.2207 43.702 15.6628L 44.698 15.5725ZM 34 0C 33.6534 -0.360344 33.6535 -0.360425 33.6535 -0.360487C 33.6535 -0.360481 33.6536 -0.360524 33.6535 -0.360512C 33.6535 -0.360422 33.6534 -0.360389 33.6532 -0.36021C 33.6527 -0.359716 33.6522 -0.359183 33.6511 -0.358206C 33.6488 -0.35598 33.6457 -0.353078 33.6411 -0.348709C 33.6313 -0.339421 33.6175 -0.326512 33.5981 -0.308589C 33.5582 -0.271631 33.5008 -0.219304 33.4232 -0.150538C 33.2654 -0.0107303 33.0381 0.184644 32.7403 0.423317C 32.1391 0.905396 31.2872 1.53654 30.2254 2.17446C 28.0896 3.46021 25.2417 4.71647 22.1 4.70588L 22.1 5.70588C 25.4464 5.69529 28.5486 4.34862 30.7408 3.03142C 31.8429 2.36787 32.7495 1.69755 33.3658 1.20352C 33.6767 0.954143 33.9228 0.742808 34.0864 0.597919C 34.1694 0.524336 34.2347 0.464818 34.2772 0.425518C 34.299 0.405312 34.3164 0.388989 34.3274 0.378576C 34.3333 0.373096 34.3381 0.36853 34.341 0.365752C 34.3426 0.364227 34.344 0.362873 34.3448 0.362106C 34.3453 0.361655 34.3457 0.361214 34.346 0.360988C 34.3461 0.360841 34.3463 0.36068 34.3464 0.360606C 34.3465 0.360465 34.3466 0.360344 34 0ZM 22.1 4.70588C 18.9583 4.71647 16.1104 3.46021 13.9746 2.17446C 12.9128 1.53654 12.0609 0.905396 11.4597 0.423317C 11.1619 0.184644 10.9346 -0.0107303 10.7768 -0.150538C 10.6992 -0.219304 10.6418 -0.271631 10.6019 -0.308589C 10.5825 -0.326512 10.5687 -0.339421 10.5589 -0.348709C 10.5543 -0.353078 10.5512 -0.35598 10.5489 -0.358206C 10.5478 -0.359183 10.5473 -0.359716 10.5468 -0.36021C 10.5466 -0.360389 10.5465 -0.360422 10.5465 -0.360512C 10.5464 -0.360524 10.5465 -0.360481 10.5465 -0.360487C 10.5465 -0.360425 10.5466 -0.360344 10.2 0C 9.85337 0.360344 9.8535 0.360465 9.85364 0.360606C 9.85372 0.36068 9.85389 0.360841 9.85404 0.360988C 9.85428 0.361214 9.85474 0.361655 9.85521 0.362106C 9.85601 0.362873 9.85743 0.364227 9.85903 0.365752C 9.86194 0.36853 9.86675 0.373096 9.87255 0.378576C 9.88359 0.388989 9.901 0.405312 9.92284 0.425518C 9.96534 0.464818 10.0306 0.524336 10.1136 0.597919C 10.2772 0.742808 10.5233 0.954143 10.8342 1.20352C 11.4506 1.69755 12.3571 2.36787 13.4592 3.03142C 15.6514 4.34862 18.7536 5.69529 22.1 5.70588L 22.1 4.70588ZM 9.98501 -0.45142C 6.42481 1.24412 4.27201 2.95535 2.77625 5.43085C 1.29918 7.87544 0.490151 11.0265 -0.488503 15.511L 0.488503 15.7243C 1.47261 11.2147 2.25447 8.2281 3.63215 5.948C 4.99115 3.69882 6.95697 2.09829 10.415 0.45142L 9.98501 -0.45142Z"/>
<path id="path1_fill" d="M 23.8 12.1471C 23.8 18.8557 18.4722 24.2941 11.9 24.2941C 5.32781 24.2941 0 18.8557 0 12.1471C 0 5.43842 5.32781 0 11.9 0C 18.4722 0 23.8 5.43842 23.8 12.1471Z"/>
<path id="path2_stroke_2x" d="M 22.8 12.1471C 22.8 18.3229 17.9006 23.2941 11.9 23.2941L 11.9 25.2941C 19.0437 25.2941 24.8 19.3885 24.8 12.1471L 22.8 12.1471ZM 11.9 23.2941C 5.89937 23.2941 1 18.3229 1 12.1471L -1 12.1471C -1 19.3885 4.75626 25.2941 11.9 25.2941L 11.9 23.2941ZM 1 12.1471C 1 5.97124 5.89937 1 11.9 1L 11.9 -1C 4.75626 -1 -1 4.90561 -1 12.1471L 1 12.1471ZM 11.9 1C 17.9006 1 22.8 5.97124 22.8 12.1471L 24.8 12.1471C 24.8 4.90561 19.0437 -1 11.9 -1L 11.9 1Z"/>
<path id="path3_stroke" d="M -0.5 0L -0.5 10.4118L 0.5 10.4118L 0.5 0L -0.5 0Z"/>
<path id="path4_stroke" d="M -0.5 0L -0.5 10.2L 0.5 10.2L 0.5 0L -0.5 0Z"/>
<path id="path5_fill" d="M 23.8 13.8824C 23.8 21.5494 18.4722 27.7647 11.9 27.7647C 5.32781 27.7647 0 21.5494 0 13.8824C 0 6.21534 5.32781 0 11.9 0C 18.4722 0 23.8 6.21534 23.8 13.8824Z"/>
<path id="path6_stroke_2x" d="M 22.8 13.8824C 22.8 21.1472 17.7809 26.7647 11.9 26.7647L 11.9 28.7647C 19.1635 28.7647 24.8 21.9515 24.8 13.8824L 22.8 13.8824ZM 11.9 26.7647C 6.0191 26.7647 1 21.1472 1 13.8824L -1 13.8824C -1 21.9515 4.63652 28.7647 11.9 28.7647L 11.9 26.7647ZM 1 13.8824C 1 6.61752 6.0191 1 11.9 1L 11.9 -1C 4.63652 -1 -1 5.81316 -1 13.8824L 1 13.8824ZM 11.9 1C 17.7809 1 22.8 6.61752 22.8 13.8824L 24.8 13.8824C 24.8 5.81316 19.1635 -1 11.9 -1L 11.9 1Z"/>
</defs>
</svg>
