<?xml version="1.0" encoding="utf-8"?>
<!-- Generator: Adobe Illustrator 16.0.0, SVG Export Plug-In . SVG Version: 6.00 Build 0)  -->
<!DOCTYPE svg PUBLIC "-//W3C//DTD SVG 1.1//EN" "http://www.w3.org/Graphics/SVG/1.1/DTD/svg11.dtd">
<svg version="1.1" id="Layer_1" xmlns="http://www.w3.org/2000/svg" xmlns:xlink="http://www.w3.org/1999/xlink" x="0px" y="0px"
	 width="642.857px" height="652.857px" viewBox="0 0 642.857 652.857" enable-background="new 0 0 642.857 652.857"
	 xml:space="preserve">
<rect x="89.163" y="130.473" fill="#ED1C24" width="469.869" height="43.65"/>
<rect x="89.163" y="180.921" fill="#ED1C24" width="414.932" height="43.65"/>
<rect x="89.163" y="231.369" fill="#ED1C24" width="357.098" height="43.65"/>
<rect x="89.163" y="281.817" fill="#ED1C24" width="306.5" height="43.649"/>
<rect x="89.163" y="332.265" fill="#ED1C24" width="253.006" height="43.65"/>
<rect x="89.163" y="382.713" fill="#ED1C24" width="198.066" height="43.649"/>
<rect x="89.163" y="433.16" fill="#ED1C24" width="144.578" height="43.65"/>
<rect x="89.163" y="483.608" fill="#ED1C24" width="91.085" height="43.65"/>
<rect x="89.163" y="534.057" fill="#ED1C24" width="37.592" height="43.649"/>
<line fill="none" stroke="#000000" stroke-miterlimit="10" x1="84.415" y1="479.723" x2="89.159" y2="479.723"/>
<line fill="none" stroke="#000000" stroke-miterlimit="10" x1="84.415" y1="378.826" x2="89.159" y2="378.826"/>
<line fill="none" stroke="#000000" stroke-miterlimit="10" x1="84.415" y1="429.273" x2="89.159" y2="429.273"/>
<line fill="none" stroke="#67686B" stroke-miterlimit="10" x1="93.145" y1="479.723" x2="433.816" y2="479.723"/>
<line fill="none" stroke="#67686B" stroke-miterlimit="10" x1="93.146" y1="429.273" x2="433.816" y2="429.273"/>
<line fill="none" stroke="#000000" stroke-miterlimit="10" x1="84.712" y1="126.586" x2="89.754" y2="126.586"/>
<line fill="none" stroke="#000000" stroke-miterlimit="10" x1="84.415" y1="530.171" x2="89.159" y2="530.171"/>
<line fill="none" stroke="#000000" stroke-miterlimit="10" x1="84.415" y1="328.378" x2="89.159" y2="328.378"/>
<line fill="none" stroke="#000000" stroke-miterlimit="10" x1="84.117" y1="177.034" x2="89.159" y2="177.034"/>
<line fill="none" stroke="#000000" stroke-miterlimit="10" x1="84.415" y1="580.618" x2="89.159" y2="580.618"/>
<line fill="none" stroke="#000000" stroke-miterlimit="10" x1="84.415" y1="277.93" x2="89.159" y2="277.93"/>
<line fill="none" stroke="#000000" stroke-miterlimit="10" x1="84.415" y1="227.482" x2="89.159" y2="227.482"/>
<line fill="none" stroke="#000000" stroke-miterlimit="10" x1="89.159" y1="126.587" x2="89.159" y2="631.073"/>
<g>
	<path fill="#5A5B5D" d="M29.327,44.155v13.608h-4.141V44.155h-4.843V40.62h13.826v3.535H29.327z"/>
	<path fill="#5A5B5D" d="M52.596,49.119c0,1.356-0.234,2.595-0.702,3.717c-0.468,1.122-1.118,2.082-1.949,2.881
		c-0.832,0.799-1.82,1.417-2.966,1.852c-1.146,0.436-2.389,0.654-3.729,0.654s-2.579-0.218-3.716-0.654
		c-1.138-0.436-2.123-1.053-2.954-1.852c-0.832-0.799-1.481-1.759-1.949-2.881c-0.469-1.122-0.702-2.361-0.702-3.717
		c0-1.372,0.233-2.611,0.702-3.717c0.468-1.105,1.118-2.046,1.949-2.821c0.831-0.774,1.816-1.372,2.954-1.792
		c1.138-0.419,2.376-0.629,3.716-0.629s2.583,0.21,3.729,0.629c1.146,0.42,2.135,1.017,2.966,1.792
		c0.831,0.775,1.481,1.716,1.949,2.821C52.362,46.508,52.596,47.747,52.596,49.119z M48.165,49.119c0-0.743-0.121-1.437-0.363-2.083
		c-0.242-0.646-0.577-1.199-1.005-1.659s-0.944-0.823-1.549-1.089c-0.605-0.267-1.271-0.4-1.998-0.4c-0.726,0-1.388,0.133-1.985,0.4
		c-0.597,0.266-1.114,0.629-1.55,1.089c-0.436,0.46-0.771,1.013-1.005,1.659c-0.234,0.646-0.351,1.34-0.351,2.083
		c0,0.774,0.121,1.489,0.363,2.143s0.577,1.215,1.005,1.683s0.94,0.835,1.538,1.102c0.597,0.267,1.259,0.399,1.985,0.399
		c0.727,0,1.388-0.133,1.986-0.399c0.597-0.266,1.114-0.633,1.55-1.102c0.436-0.468,0.774-1.029,1.017-1.683
		S48.165,49.894,48.165,49.119z"/>
	<path fill="#5A5B5D" d="M65.187,57.763l-6.368-7.894H58.77v7.894h-4.043V40.62h4.043v6.973h0.073l6.126-6.973h5.182l-7.385,7.894
		l7.821,9.25H65.187z"/>
	<path fill="#5A5B5D" d="M71.337,57.763V40.62h11.526v3.487h-7.531v3.245h7.119v3.317h-7.119v3.56h7.966v3.535H71.337z"/>
	<path fill="#5A5B5D" d="M96.325,57.763l-6.901-11.211h-0.072l0.097,11.211h-4.02V40.62h4.722l6.876,11.187H97.1L97.003,40.62h4.02
		v17.143H96.325z"/>
	<path fill="#5A5B5D" d="M113.008,45.075c-0.355-0.452-0.819-0.811-1.392-1.078c-0.573-0.266-1.126-0.399-1.659-0.399
		c-0.274,0-0.553,0.024-0.835,0.073s-0.537,0.142-0.763,0.278c-0.226,0.138-0.416,0.315-0.569,0.533
		c-0.154,0.218-0.23,0.497-0.23,0.835c0,0.291,0.061,0.533,0.182,0.727c0.121,0.193,0.298,0.363,0.533,0.508
		c0.234,0.146,0.512,0.278,0.835,0.399c0.322,0.121,0.686,0.247,1.089,0.375c0.581,0.194,1.187,0.408,1.816,0.642
		c0.63,0.234,1.203,0.545,1.719,0.932c0.517,0.388,0.944,0.868,1.283,1.441c0.339,0.573,0.509,1.288,0.509,2.143
		c0,0.984-0.182,1.836-0.545,2.554c-0.363,0.719-0.852,1.312-1.465,1.78c-0.614,0.468-1.316,0.815-2.106,1.041
		c-0.792,0.226-1.606,0.339-2.446,0.339c-1.227,0-2.414-0.214-3.56-0.642c-1.146-0.427-2.099-1.037-2.857-1.828l2.712-2.76
		c0.419,0.517,0.972,0.949,1.659,1.295c0.686,0.348,1.368,0.521,2.046,0.521c0.307,0,0.605-0.032,0.896-0.097
		c0.291-0.064,0.545-0.169,0.763-0.315c0.218-0.145,0.391-0.339,0.521-0.581c0.129-0.242,0.194-0.533,0.194-0.872
		c0-0.323-0.081-0.597-0.242-0.823c-0.162-0.226-0.392-0.432-0.69-0.617c-0.299-0.186-0.67-0.355-1.114-0.509
		c-0.444-0.153-0.948-0.318-1.513-0.496c-0.549-0.178-1.086-0.388-1.61-0.63s-0.993-0.553-1.404-0.932
		c-0.412-0.379-0.743-0.839-0.993-1.38c-0.25-0.541-0.375-1.198-0.375-1.973c0-0.952,0.194-1.768,0.582-2.446
		c0.387-0.678,0.896-1.235,1.525-1.67c0.629-0.436,1.339-0.754,2.131-0.957c0.791-0.202,1.589-0.303,2.397-0.303
		c0.969,0,1.957,0.178,2.966,0.533c1.008,0.355,1.892,0.88,2.651,1.574L113.008,45.075z"/>
	<path fill="#5A5B5D" d="M31.046,65.075c-0.355-0.452-0.819-0.811-1.392-1.078c-0.573-0.266-1.126-0.399-1.659-0.399
		c-0.274,0-0.553,0.024-0.835,0.073s-0.537,0.142-0.763,0.278c-0.226,0.138-0.416,0.315-0.569,0.533
		c-0.154,0.218-0.23,0.497-0.23,0.835c0,0.291,0.061,0.533,0.182,0.727c0.121,0.193,0.298,0.363,0.533,0.508
		c0.234,0.146,0.512,0.278,0.835,0.399c0.322,0.121,0.686,0.247,1.089,0.375c0.581,0.194,1.187,0.408,1.816,0.642
		c0.63,0.234,1.203,0.545,1.719,0.932c0.517,0.388,0.944,0.868,1.283,1.441c0.339,0.573,0.509,1.288,0.509,2.143
		c0,0.984-0.182,1.836-0.545,2.554c-0.363,0.719-0.852,1.312-1.465,1.78c-0.614,0.468-1.316,0.815-2.106,1.041
		c-0.792,0.226-1.606,0.339-2.446,0.339c-1.227,0-2.414-0.214-3.56-0.642c-1.146-0.427-2.099-1.037-2.857-1.828l2.712-2.76
		c0.419,0.517,0.972,0.949,1.659,1.295c0.686,0.348,1.368,0.521,2.046,0.521c0.307,0,0.605-0.032,0.896-0.097
		c0.291-0.064,0.545-0.169,0.763-0.315c0.218-0.145,0.391-0.339,0.521-0.581c0.129-0.242,0.194-0.533,0.194-0.872
		c0-0.323-0.081-0.597-0.242-0.823c-0.162-0.226-0.392-0.432-0.69-0.617c-0.299-0.186-0.67-0.355-1.114-0.509
		c-0.444-0.153-0.948-0.318-1.513-0.496c-0.549-0.178-1.086-0.388-1.61-0.63s-0.993-0.553-1.404-0.932
		c-0.412-0.379-0.743-0.839-0.993-1.38c-0.25-0.541-0.375-1.198-0.375-1.973c0-0.952,0.194-1.768,0.582-2.446
		c0.387-0.678,0.896-1.235,1.525-1.67c0.629-0.436,1.339-0.754,2.131-0.957c0.791-0.202,1.589-0.303,2.397-0.303
		c0.969,0,1.957,0.178,2.966,0.533c1.008,0.355,1.892,0.88,2.651,1.574L31.046,65.075z"/>
	<path fill="#5A5B5D" d="M53.564,69.119c0,1.356-0.234,2.595-0.702,3.717c-0.468,1.122-1.118,2.082-1.949,2.881
		c-0.832,0.799-1.82,1.417-2.966,1.852c-1.146,0.436-2.389,0.654-3.729,0.654s-2.579-0.218-3.716-0.654
		c-1.138-0.436-2.123-1.053-2.954-1.852c-0.832-0.799-1.481-1.759-1.949-2.881c-0.469-1.122-0.702-2.361-0.702-3.717
		c0-1.372,0.233-2.611,0.702-3.717c0.468-1.105,1.118-2.046,1.949-2.821c0.831-0.774,1.816-1.372,2.954-1.792
		c1.138-0.419,2.376-0.629,3.716-0.629s2.583,0.21,3.729,0.629c1.146,0.42,2.135,1.017,2.966,1.792
		c0.831,0.775,1.481,1.716,1.949,2.821C53.33,66.508,53.564,67.747,53.564,69.119z M49.133,69.119c0-0.743-0.121-1.437-0.363-2.083
		c-0.242-0.646-0.577-1.199-1.005-1.659s-0.944-0.823-1.549-1.089c-0.605-0.267-1.271-0.4-1.998-0.4c-0.726,0-1.388,0.133-1.985,0.4
		c-0.597,0.266-1.114,0.629-1.55,1.089c-0.436,0.46-0.771,1.013-1.005,1.659c-0.234,0.646-0.351,1.34-0.351,2.083
		c0,0.774,0.121,1.489,0.363,2.143s0.577,1.215,1.005,1.683s0.94,0.835,1.538,1.102c0.597,0.267,1.259,0.399,1.985,0.399
		c0.727,0,1.388-0.133,1.986-0.399c0.597-0.266,1.114-0.633,1.55-1.102c0.436-0.468,0.774-1.029,1.017-1.683
		S49.133,69.894,49.133,69.119z"/>
	<path fill="#5A5B5D" d="M55.695,77.763V60.62h4.165v13.535h6.635v3.608H55.695z"/>
	<path fill="#5A5B5D" d="M83.831,69.143c0,1.501-0.279,2.797-0.835,3.886c-0.557,1.09-1.292,1.986-2.204,2.688
		c-0.912,0.702-1.941,1.219-3.087,1.549c-1.146,0.331-2.309,0.497-3.486,0.497h-6.393V60.62h6.199c1.21,0,2.405,0.142,3.583,0.424
		s2.228,0.75,3.148,1.404c0.92,0.654,1.662,1.529,2.228,2.627C83.548,66.173,83.831,67.529,83.831,69.143z M79.521,69.143
		c0-0.968-0.158-1.771-0.472-2.409c-0.315-0.638-0.735-1.146-1.259-1.525c-0.525-0.379-1.122-0.649-1.792-0.811
		c-0.67-0.161-1.36-0.242-2.07-0.242h-2.059V74.18h1.961c0.742,0,1.457-0.085,2.143-0.254c0.686-0.169,1.291-0.448,1.816-0.835
		c0.524-0.387,0.944-0.904,1.259-1.549C79.363,70.895,79.521,70.096,79.521,69.143z"/>
</g>
<g>
	<path fill="#5A5B5D" d="M32.076,159.298v-12.591l-3.196,2.47l-2.106-2.881l5.64-4.141h3.707v17.143H32.076z"/>
	<path fill="#5A5B5D" d="M54.788,150.678c0,1.211-0.121,2.365-0.363,3.462c-0.242,1.098-0.63,2.062-1.163,2.894
		c-0.532,0.832-1.223,1.494-2.07,1.986c-0.848,0.492-1.877,0.738-3.087,0.738c-1.211,0-2.244-0.246-3.099-0.738
		c-0.856-0.492-1.554-1.154-2.095-1.986c-0.541-0.831-0.932-1.795-1.174-2.894c-0.242-1.097-0.363-2.251-0.363-3.462
		c0-1.21,0.121-2.361,0.363-3.45c0.242-1.09,0.633-2.042,1.174-2.857c0.541-0.815,1.239-1.465,2.095-1.949
		c0.855-0.484,1.888-0.726,3.099-0.726c1.21,0,2.24,0.242,3.087,0.726c0.847,0.484,1.538,1.134,2.07,1.949
		c0.533,0.815,0.92,1.768,1.163,2.857C54.667,148.317,54.788,149.468,54.788,150.678z M50.623,150.678
		c0-0.533-0.032-1.122-0.097-1.768c-0.065-0.646-0.186-1.247-0.363-1.804c-0.178-0.557-0.432-1.025-0.763-1.404
		c-0.331-0.379-0.763-0.569-1.295-0.569s-0.969,0.19-1.308,0.569s-0.602,0.847-0.787,1.404c-0.186,0.557-0.311,1.158-0.375,1.804
		c-0.065,0.646-0.097,1.235-0.097,1.768c0,0.549,0.032,1.15,0.097,1.804c0.064,0.654,0.189,1.259,0.375,1.816
		c0.186,0.557,0.448,1.025,0.787,1.404c0.339,0.379,0.775,0.569,1.308,0.569s0.964-0.189,1.295-0.569
		c0.331-0.379,0.585-0.848,0.763-1.404c0.177-0.557,0.298-1.162,0.363-1.816C50.591,151.829,50.623,151.227,50.623,150.678z"/>
	<path fill="#5A5B5D" d="M65.2,146.441c0,0.629-0.121,1.223-0.363,1.78c-0.242,0.557-0.569,1.041-0.98,1.453s-0.9,0.739-1.465,0.981
		c-0.565,0.242-1.163,0.363-1.792,0.363s-1.227-0.121-1.792-0.363c-0.565-0.242-1.053-0.569-1.465-0.981s-0.738-0.896-0.98-1.453
		c-0.242-0.557-0.363-1.15-0.363-1.78c0-0.646,0.121-1.247,0.363-1.804c0.242-0.557,0.569-1.042,0.98-1.453s0.9-0.734,1.465-0.968
		s1.163-0.351,1.792-0.351s1.227,0.117,1.792,0.351c0.565,0.234,1.053,0.557,1.465,0.968s0.738,0.896,0.98,1.453
		C65.079,145.194,65.2,145.795,65.2,146.441z M62.488,146.441c0-0.517-0.186-0.96-0.557-1.332c-0.371-0.371-0.815-0.557-1.332-0.557
		s-0.96,0.186-1.332,0.557c-0.372,0.372-0.557,0.815-0.557,1.332s0.186,0.957,0.557,1.32c0.371,0.363,0.815,0.544,1.332,0.544
		s0.96-0.181,1.332-0.544C62.302,147.397,62.488,146.958,62.488,146.441z M62.463,160.122l-2.155-1.065l10-17.676l2.252,1.089
		L62.463,160.122z M76.822,155.013c0,0.629-0.121,1.223-0.363,1.779c-0.242,0.557-0.569,1.042-0.98,1.453s-0.9,0.738-1.465,0.98
		c-0.565,0.242-1.163,0.363-1.792,0.363s-1.227-0.121-1.792-0.363s-1.053-0.569-1.465-0.98s-0.738-0.896-0.98-1.453
		c-0.242-0.557-0.363-1.15-0.363-1.779c0-0.63,0.121-1.223,0.363-1.78c0.242-0.557,0.569-1.041,0.98-1.453
		c0.412-0.412,0.9-0.738,1.465-0.98s1.163-0.363,1.792-0.363s1.227,0.121,1.792,0.363c0.564,0.242,1.053,0.569,1.465,0.98
		c0.412,0.412,0.738,0.896,0.98,1.453C76.701,153.79,76.822,154.383,76.822,155.013z M74.11,155.013
		c0-0.258-0.053-0.504-0.157-0.739c-0.105-0.234-0.242-0.436-0.412-0.605c-0.17-0.169-0.368-0.302-0.593-0.399
		c-0.227-0.097-0.469-0.145-0.727-0.145c-0.517,0-0.96,0.186-1.332,0.557c-0.372,0.372-0.557,0.815-0.557,1.332
		s0.186,0.956,0.557,1.319c0.371,0.363,0.815,0.545,1.332,0.545c0.258,0,0.5-0.048,0.727-0.145c0.226-0.097,0.423-0.23,0.593-0.4
		c0.169-0.169,0.306-0.367,0.412-0.593C74.058,155.513,74.11,155.271,74.11,155.013z"/>
</g>
<g>
	<path fill="#5A5B5D" d="M570.203,159.298v-3.384l6.684-6.043c0.42-0.403,0.758-0.813,1.018-1.233
		c0.258-0.418,0.387-0.886,0.387-1.401c0-0.612-0.193-1.108-0.581-1.487c-0.388-0.378-0.904-0.568-1.55-0.568
		c-0.678,0-1.23,0.239-1.658,0.714c-0.428,0.477-0.683,1.102-0.764,1.876l-3.898-0.533c0.098-0.872,0.336-1.648,0.715-2.329
		c0.379-0.681,0.859-1.261,1.441-1.741c0.58-0.479,1.246-0.845,1.997-1.097s1.546-0.378,2.385-0.378c0.791,0,1.558,0.105,2.3,0.314
		c0.743,0.21,1.405,0.533,1.986,0.969c0.581,0.436,1.045,0.985,1.393,1.646c0.347,0.662,0.52,1.437,0.52,2.324
		c0,0.614-0.08,1.167-0.242,1.659c-0.16,0.493-0.383,0.949-0.665,1.368c-0.282,0.42-0.605,0.811-0.969,1.174
		s-0.738,0.723-1.126,1.078l-3.971,3.535h6.998v3.535H570.203z"/>
	<path fill="#5A5B5D" d="M598.122,150.678c0,1.211-0.121,2.365-0.363,3.462c-0.242,1.098-0.63,2.062-1.163,2.894
		c-0.531,0.832-1.223,1.494-2.069,1.986c-0.848,0.492-1.877,0.738-3.087,0.738c-1.211,0-2.244-0.246-3.1-0.738
		s-1.555-1.154-2.095-1.986c-0.541-0.831-0.933-1.795-1.175-2.894c-0.242-1.097-0.363-2.251-0.363-3.462
		c0-1.21,0.121-2.361,0.363-3.45c0.242-1.09,0.634-2.042,1.175-2.857c0.54-0.815,1.239-1.465,2.095-1.949s1.889-0.726,3.1-0.726
		c1.21,0,2.239,0.242,3.087,0.726c0.847,0.484,1.538,1.134,2.069,1.949c0.533,0.815,0.921,1.768,1.163,2.857
		C598,148.317,598.122,149.468,598.122,150.678z M593.957,150.678c0-0.533-0.032-1.122-0.097-1.768
		c-0.065-0.646-0.187-1.247-0.363-1.804c-0.178-0.557-0.433-1.025-0.763-1.404c-0.331-0.379-0.763-0.569-1.295-0.569
		c-0.533,0-0.969,0.19-1.309,0.569c-0.338,0.379-0.602,0.847-0.787,1.404c-0.186,0.557-0.311,1.158-0.375,1.804
		c-0.064,0.646-0.097,1.235-0.097,1.768c0,0.549,0.032,1.15,0.097,1.804s0.189,1.259,0.375,1.816
		c0.186,0.557,0.449,1.025,0.787,1.404c0.34,0.379,0.775,0.569,1.309,0.569c0.532,0,0.964-0.189,1.295-0.569
		c0.33-0.379,0.585-0.848,0.763-1.404c0.177-0.557,0.298-1.162,0.363-1.816C593.924,151.829,593.957,151.227,593.957,150.678z"/>
	<path fill="#5A5B5D" d="M608.533,146.441c0,0.629-0.121,1.223-0.363,1.78c-0.242,0.557-0.568,1.041-0.98,1.453
		c-0.411,0.412-0.899,0.739-1.465,0.981c-0.564,0.242-1.162,0.363-1.791,0.363c-0.63,0-1.228-0.121-1.793-0.363
		c-0.564-0.242-1.053-0.569-1.465-0.981c-0.411-0.412-0.738-0.896-0.98-1.453c-0.242-0.557-0.363-1.15-0.363-1.78
		c0-0.646,0.121-1.247,0.363-1.804c0.242-0.557,0.569-1.042,0.98-1.453c0.412-0.412,0.9-0.734,1.465-0.968
		c0.565-0.234,1.163-0.351,1.793-0.351c0.629,0,1.227,0.117,1.791,0.351c0.565,0.234,1.054,0.557,1.465,0.968
		c0.412,0.412,0.738,0.896,0.98,1.453C608.412,145.194,608.533,145.795,608.533,146.441z M605.822,146.441
		c0-0.517-0.186-0.96-0.558-1.332c-0.371-0.371-0.815-0.557-1.331-0.557c-0.518,0-0.961,0.186-1.332,0.557
		c-0.371,0.372-0.557,0.815-0.557,1.332s0.186,0.957,0.557,1.32s0.814,0.544,1.332,0.544c0.516,0,0.96-0.181,1.331-0.544
		C605.636,147.397,605.822,146.958,605.822,146.441z M605.796,160.122l-2.154-1.065l10-17.676l2.252,1.089L605.796,160.122z
		 M620.156,155.013c0,0.629-0.121,1.223-0.363,1.779c-0.242,0.557-0.568,1.042-0.98,1.453s-0.9,0.738-1.465,0.98
		c-0.565,0.242-1.162,0.363-1.792,0.363s-1.228-0.121-1.792-0.363s-1.053-0.569-1.465-0.98s-0.738-0.896-0.98-1.453
		c-0.242-0.557-0.363-1.15-0.363-1.779c0-0.63,0.121-1.223,0.363-1.78c0.242-0.557,0.568-1.041,0.98-1.453
		c0.412-0.412,0.9-0.738,1.465-0.98s1.162-0.363,1.792-0.363s1.227,0.121,1.792,0.363c0.564,0.242,1.053,0.569,1.465,0.98
		c0.412,0.412,0.738,0.896,0.98,1.453C620.035,153.79,620.156,154.383,620.156,155.013z M617.444,155.013
		c0-0.258-0.053-0.504-0.157-0.739c-0.105-0.234-0.242-0.436-0.412-0.605c-0.17-0.169-0.367-0.302-0.593-0.399
		c-0.227-0.097-0.469-0.145-0.727-0.145c-0.517,0-0.96,0.186-1.331,0.557c-0.372,0.372-0.558,0.815-0.558,1.332
		s0.186,0.956,0.558,1.319c0.371,0.363,0.814,0.545,1.331,0.545c0.258,0,0.5-0.048,0.727-0.145c0.226-0.097,0.423-0.23,0.593-0.4
		s0.307-0.367,0.412-0.593C617.391,155.513,617.444,155.271,617.444,155.013z"/>
</g>
<g>
	<path fill="#5A5B5D" d="M522.076,209.653v-12.591l-3.195,2.47l-2.107-2.881l5.641-4.141h3.706v17.143H522.076z"/>
	<path fill="#5A5B5D" d="M537.669,209.653h-4.722l6.95-13.656h-8.112v-3.487h12.446v3.245L537.669,209.653z"/>
	<path fill="#5A5B5D" d="M555.201,196.796c0,0.629-0.121,1.223-0.363,1.78c-0.242,0.557-0.569,1.041-0.98,1.453
		c-0.412,0.412-0.9,0.739-1.465,0.981c-0.566,0.242-1.163,0.363-1.793,0.363c-0.629,0-1.227-0.121-1.791-0.363
		c-0.565-0.242-1.054-0.569-1.465-0.981c-0.412-0.412-0.738-0.896-0.98-1.453c-0.242-0.557-0.363-1.15-0.363-1.78
		c0-0.646,0.121-1.247,0.363-1.804c0.242-0.557,0.568-1.042,0.98-1.453c0.411-0.412,0.899-0.734,1.465-0.968
		c0.564-0.234,1.162-0.351,1.791-0.351c0.63,0,1.227,0.117,1.793,0.351c0.564,0.234,1.053,0.557,1.465,0.968
		c0.411,0.412,0.738,0.896,0.98,1.453C555.08,195.549,555.201,196.15,555.201,196.796z M552.488,196.796
		c0-0.517-0.186-0.96-0.557-1.332c-0.371-0.371-0.814-0.557-1.332-0.557c-0.516,0-0.96,0.186-1.331,0.557
		c-0.372,0.372-0.558,0.815-0.558,1.332s0.186,0.957,0.558,1.32c0.371,0.363,0.815,0.544,1.331,0.544
		c0.518,0,0.961-0.181,1.332-0.544S552.488,197.312,552.488,196.796z M552.464,210.477l-2.155-1.065l10-17.676l2.252,1.089
		L552.464,210.477z M566.823,205.368c0,0.629-0.121,1.223-0.363,1.779c-0.242,0.557-0.569,1.042-0.98,1.453s-0.9,0.738-1.465,0.98
		c-0.565,0.242-1.163,0.363-1.792,0.363s-1.227-0.121-1.792-0.363s-1.054-0.569-1.465-0.98s-0.738-0.896-0.98-1.453
		c-0.242-0.557-0.363-1.15-0.363-1.779c0-0.63,0.121-1.223,0.363-1.78c0.242-0.557,0.569-1.041,0.98-1.453
		c0.411-0.412,0.899-0.738,1.465-0.98s1.163-0.363,1.792-0.363s1.227,0.121,1.792,0.363c0.564,0.242,1.054,0.569,1.465,0.98
		c0.411,0.412,0.738,0.896,0.98,1.453C566.702,204.145,566.823,204.738,566.823,205.368z M564.111,205.368
		c0-0.258-0.053-0.504-0.157-0.739c-0.105-0.234-0.242-0.436-0.411-0.605c-0.17-0.169-0.368-0.302-0.594-0.399
		c-0.227-0.097-0.469-0.145-0.727-0.145c-0.517,0-0.961,0.186-1.332,0.557c-0.371,0.372-0.557,0.815-0.557,1.332
		s0.186,0.956,0.557,1.319s0.815,0.545,1.332,0.545c0.258,0,0.5-0.048,0.727-0.145c0.226-0.097,0.424-0.23,0.594-0.4
		c0.169-0.169,0.306-0.367,0.411-0.593C564.058,205.868,564.111,205.626,564.111,205.368z"/>
</g>
<g>
	<path fill="#5A5B5D" d="M462.744,260.008v-12.591l-3.197,2.47l-2.105-2.881l5.639-4.141h3.707v17.143H462.744z"/>
	<path fill="#5A5B5D" d="M485.019,254.342c0,1.049-0.186,1.958-0.557,2.724s-0.867,1.4-1.488,1.901
		c-0.622,0.5-1.328,0.875-2.119,1.126c-0.791,0.25-1.606,0.375-2.445,0.375c-0.775,0-1.514-0.101-2.216-0.303
		s-1.341-0.488-1.913-0.859c-0.573-0.371-1.065-0.827-1.477-1.368c-0.412-0.541-0.715-1.15-0.908-1.828l3.705-1.138
		c0.177,0.598,0.512,1.09,1.004,1.477c0.492,0.388,1.078,0.582,1.756,0.582c0.693,0,1.295-0.21,1.804-0.63
		c0.509-0.419,0.763-1.041,0.763-1.864c0-0.5-0.105-0.92-0.314-1.259c-0.21-0.339-0.48-0.609-0.811-0.811
		c-0.332-0.202-0.707-0.343-1.127-0.424c-0.42-0.081-0.84-0.121-1.259-0.121c-0.614,0-1.312,0.069-2.095,0.206
		s-1.48,0.319-2.094,0.544l0.411-9.806h10.509v3.487h-6.9l-0.146,2.712c0.259-0.064,0.545-0.109,0.86-0.133
		c0.314-0.024,0.601-0.037,0.859-0.037c0.855,0,1.663,0.113,2.421,0.339c0.76,0.226,1.417,0.569,1.975,1.029
		c0.557,0.46,0.996,1.029,1.318,1.707C484.858,252.647,485.019,253.438,485.019,254.342z"/>
	<path fill="#5A5B5D" d="M495.867,247.151c0,0.629-0.121,1.223-0.363,1.78c-0.242,0.557-0.568,1.041-0.98,1.453
		c-0.411,0.412-0.899,0.739-1.465,0.981c-0.564,0.242-1.162,0.363-1.791,0.363c-0.63,0-1.228-0.121-1.793-0.363
		c-0.564-0.242-1.053-0.569-1.465-0.981c-0.411-0.412-0.738-0.896-0.98-1.453c-0.242-0.557-0.363-1.15-0.363-1.78
		c0-0.646,0.121-1.247,0.363-1.804c0.242-0.557,0.569-1.042,0.98-1.453c0.412-0.412,0.9-0.734,1.465-0.968
		c0.565-0.234,1.163-0.351,1.793-0.351c0.629,0,1.227,0.117,1.791,0.351c0.565,0.234,1.054,0.557,1.465,0.968
		c0.412,0.412,0.738,0.896,0.98,1.453C495.746,245.904,495.867,246.505,495.867,247.151z M493.156,247.151
		c0-0.517-0.186-0.96-0.558-1.332c-0.371-0.371-0.815-0.557-1.331-0.557c-0.518,0-0.961,0.186-1.332,0.557
		c-0.371,0.372-0.557,0.815-0.557,1.332s0.186,0.957,0.557,1.32s0.814,0.544,1.332,0.544c0.516,0,0.96-0.181,1.331-0.544
		C492.97,248.107,493.156,247.667,493.156,247.151z M493.13,260.832l-2.154-1.065l10-17.676l2.252,1.089L493.13,260.832z
		 M507.49,255.723c0,0.629-0.121,1.223-0.363,1.779c-0.242,0.557-0.568,1.042-0.98,1.453s-0.9,0.738-1.465,0.98
		c-0.565,0.242-1.162,0.363-1.792,0.363s-1.228-0.121-1.792-0.363s-1.053-0.569-1.465-0.98s-0.738-0.896-0.98-1.453
		c-0.242-0.557-0.363-1.15-0.363-1.779c0-0.63,0.121-1.223,0.363-1.78c0.242-0.557,0.568-1.041,0.98-1.453
		c0.412-0.412,0.9-0.738,1.465-0.98s1.162-0.363,1.792-0.363s1.227,0.121,1.792,0.363c0.564,0.242,1.053,0.569,1.465,0.98
		c0.412,0.412,0.738,0.896,0.98,1.453C507.369,254.5,507.49,255.093,507.49,255.723z M504.778,255.723
		c0-0.258-0.053-0.504-0.157-0.739c-0.105-0.234-0.242-0.436-0.412-0.605c-0.17-0.169-0.367-0.302-0.593-0.399
		c-0.227-0.097-0.469-0.145-0.727-0.145c-0.517,0-0.96,0.186-1.331,0.557c-0.372,0.372-0.558,0.815-0.558,1.332
		s0.186,0.956,0.558,1.319c0.371,0.363,0.814,0.545,1.331,0.545c0.258,0,0.5-0.048,0.727-0.145c0.226-0.097,0.423-0.23,0.593-0.4
		s0.307-0.367,0.412-0.593C504.725,256.223,504.778,255.981,504.778,255.723z"/>
</g>
<g>
	<path fill="#5A5B5D" d="M410.744,310.363v-12.591l-3.197,2.47l-2.105-2.881l5.639-4.141h3.707v17.143H410.744z"/>
	<path fill="#5A5B5D" d="M420.574,310.363v-3.384l6.684-6.043c0.419-0.403,0.758-0.813,1.017-1.233
		c0.258-0.418,0.388-0.886,0.388-1.401c0-0.612-0.194-1.108-0.582-1.487c-0.387-0.378-0.904-0.568-1.549-0.568
		c-0.678,0-1.231,0.239-1.659,0.714c-0.428,0.477-0.683,1.102-0.763,1.876l-3.898-0.533c0.098-0.872,0.335-1.648,0.715-2.329
		c0.379-0.681,0.859-1.261,1.44-1.741s1.247-0.845,1.997-1.097c0.751-0.252,1.546-0.378,2.385-0.378
		c0.791,0,1.559,0.105,2.301,0.314c0.742,0.21,1.404,0.533,1.986,0.969c0.58,0.436,1.045,0.985,1.392,1.646
		c0.347,0.662,0.521,1.437,0.521,2.324c0,0.614-0.081,1.167-0.242,1.659c-0.161,0.493-0.383,0.949-0.666,1.368
		c-0.282,0.42-0.605,0.811-0.969,1.174s-0.738,0.723-1.125,1.078l-3.971,3.535h6.997v3.535H420.574z"/>
	<path fill="#5A5B5D" d="M443.867,297.506c0,0.629-0.121,1.223-0.363,1.78c-0.242,0.557-0.568,1.041-0.98,1.453
		c-0.411,0.412-0.899,0.739-1.465,0.981c-0.564,0.242-1.162,0.363-1.791,0.363c-0.63,0-1.228-0.121-1.793-0.363
		c-0.564-0.242-1.053-0.569-1.465-0.981c-0.411-0.412-0.738-0.896-0.98-1.453c-0.242-0.557-0.363-1.15-0.363-1.78
		c0-0.646,0.121-1.247,0.363-1.804c0.242-0.557,0.569-1.042,0.98-1.453c0.412-0.412,0.9-0.734,1.465-0.968
		c0.565-0.234,1.163-0.351,1.793-0.351c0.629,0,1.227,0.117,1.791,0.351c0.565,0.234,1.054,0.557,1.465,0.968
		c0.412,0.412,0.738,0.896,0.98,1.453C443.746,296.259,443.867,296.86,443.867,297.506z M441.156,297.506
		c0-0.517-0.186-0.96-0.558-1.332c-0.371-0.371-0.815-0.557-1.331-0.557c-0.518,0-0.961,0.186-1.332,0.557
		c-0.371,0.372-0.557,0.815-0.557,1.332s0.186,0.957,0.557,1.32s0.814,0.544,1.332,0.544c0.516,0,0.96-0.181,1.331-0.544
		C440.97,298.462,441.156,298.022,441.156,297.506z M441.13,311.187l-2.154-1.065l10-17.676l2.252,1.089L441.13,311.187z
		 M455.49,306.078c0,0.629-0.121,1.223-0.363,1.779c-0.242,0.557-0.568,1.042-0.98,1.453s-0.9,0.738-1.465,0.98
		c-0.565,0.242-1.162,0.363-1.792,0.363s-1.228-0.121-1.792-0.363s-1.053-0.569-1.465-0.98s-0.738-0.896-0.98-1.453
		c-0.242-0.557-0.363-1.15-0.363-1.779c0-0.63,0.121-1.223,0.363-1.78c0.242-0.557,0.568-1.041,0.98-1.453
		c0.412-0.412,0.9-0.738,1.465-0.98s1.162-0.363,1.792-0.363s1.227,0.121,1.792,0.363c0.564,0.242,1.053,0.569,1.465,0.98
		c0.412,0.412,0.738,0.896,0.98,1.453C455.369,304.854,455.49,305.448,455.49,306.078z M452.778,306.078
		c0-0.258-0.053-0.504-0.157-0.739c-0.105-0.234-0.242-0.436-0.412-0.605c-0.17-0.169-0.367-0.302-0.593-0.399
		c-0.227-0.097-0.469-0.145-0.727-0.145c-0.517,0-0.96,0.186-1.331,0.557c-0.372,0.372-0.558,0.815-0.558,1.332
		s0.186,0.956,0.558,1.319c0.371,0.363,0.814,0.545,1.331,0.545c0.258,0,0.5-0.048,0.727-0.145c0.226-0.097,0.423-0.23,0.593-0.4
		s0.307-0.367,0.412-0.593C452.725,306.578,452.778,306.336,452.778,306.078z"/>
</g>
<g>
	<path fill="#5A5B5D" d="M363.41,360.718v-12.59l-3.195,2.469l-2.107-2.881l5.641-4.141h3.706v17.143H363.41z"/>
	<path fill="#5A5B5D" d="M386.123,352.099c0,1.211-0.121,2.365-0.363,3.462c-0.242,1.099-0.63,2.062-1.162,2.894
		c-0.533,0.832-1.223,1.494-2.07,1.986s-1.877,0.738-3.088,0.738s-2.244-0.246-3.099-0.738c-0.856-0.492-1.554-1.154-2.095-1.986
		c-0.541-0.831-0.932-1.795-1.174-2.894c-0.242-1.097-0.363-2.251-0.363-3.462s0.121-2.361,0.363-3.451s0.633-2.041,1.174-2.857
		c0.541-0.814,1.238-1.465,2.095-1.949c0.854-0.484,1.888-0.726,3.099-0.726s2.24,0.241,3.088,0.726s1.537,1.135,2.07,1.949
		c0.532,0.816,0.92,1.768,1.162,2.857S386.123,350.888,386.123,352.099z M381.958,352.099c0-0.533-0.032-1.122-0.097-1.768
		c-0.064-0.646-0.186-1.248-0.363-1.805s-0.432-1.024-0.763-1.404c-0.331-0.379-0.763-0.568-1.296-0.568
		c-0.532,0-0.969,0.189-1.307,0.568c-0.34,0.38-0.602,0.848-0.787,1.404s-0.311,1.158-0.375,1.805
		c-0.065,0.646-0.098,1.234-0.098,1.768c0,0.549,0.032,1.15,0.098,1.804c0.064,0.653,0.189,1.259,0.375,1.815
		s0.447,1.025,0.787,1.404c0.338,0.38,0.774,0.569,1.307,0.569c0.533,0,0.965-0.189,1.296-0.569
		c0.331-0.379,0.585-0.848,0.763-1.404s0.299-1.162,0.363-1.815S381.958,352.647,381.958,352.099z"/>
	<path fill="#5A5B5D" d="M396.535,347.86c0,0.63-0.121,1.223-0.363,1.78c-0.242,0.557-0.569,1.041-0.98,1.452
		c-0.412,0.412-0.9,0.739-1.465,0.981c-0.566,0.241-1.163,0.362-1.793,0.362c-0.629,0-1.227-0.121-1.791-0.362
		c-0.565-0.242-1.054-0.569-1.465-0.981c-0.412-0.411-0.738-0.896-0.98-1.452c-0.242-0.558-0.363-1.15-0.363-1.78
		c0-0.645,0.121-1.246,0.363-1.803c0.242-0.558,0.568-1.042,0.98-1.453c0.411-0.412,0.899-0.734,1.465-0.969
		c0.564-0.234,1.162-0.352,1.791-0.352c0.63,0,1.227,0.117,1.793,0.352c0.564,0.234,1.053,0.557,1.465,0.969
		c0.411,0.411,0.738,0.896,0.98,1.453C396.414,346.614,396.535,347.216,396.535,347.86z M393.822,347.86
		c0-0.516-0.186-0.959-0.557-1.331c-0.371-0.371-0.814-0.558-1.332-0.558c-0.516,0-0.96,0.187-1.331,0.558
		c-0.372,0.372-0.558,0.815-0.558,1.331c0,0.518,0.186,0.957,0.558,1.32c0.371,0.363,0.815,0.545,1.331,0.545
		c0.518,0,0.961-0.182,1.332-0.545S393.822,348.378,393.822,347.86z M393.798,361.542l-2.155-1.066l10-17.676l2.252,1.09
		L393.798,361.542z M408.157,356.433c0,0.629-0.121,1.223-0.363,1.779s-0.569,1.041-0.98,1.453s-0.9,0.738-1.465,0.98
		c-0.565,0.242-1.163,0.363-1.792,0.363s-1.227-0.121-1.792-0.363s-1.054-0.568-1.465-0.98s-0.738-0.896-0.98-1.453
		s-0.363-1.15-0.363-1.779c0-0.63,0.121-1.223,0.363-1.779c0.242-0.558,0.569-1.041,0.98-1.453s0.899-0.738,1.465-0.98
		s1.163-0.363,1.792-0.363s1.227,0.121,1.792,0.363c0.564,0.242,1.054,0.568,1.465,0.98s0.738,0.896,0.98,1.453
		C408.036,355.21,408.157,355.803,408.157,356.433z M405.445,356.433c0-0.258-0.053-0.504-0.157-0.738
		c-0.105-0.234-0.242-0.436-0.411-0.605c-0.17-0.17-0.368-0.303-0.594-0.4c-0.227-0.096-0.469-0.145-0.727-0.145
		c-0.517,0-0.961,0.186-1.332,0.557s-0.557,0.815-0.557,1.332s0.186,0.956,0.557,1.319s0.815,0.545,1.332,0.545
		c0.258,0,0.5-0.048,0.727-0.146c0.226-0.097,0.424-0.23,0.594-0.399c0.169-0.169,0.306-0.366,0.411-0.593
		C405.392,356.933,405.445,356.69,405.445,356.433z"/>
</g>
<g>
	<path fill="#5A5B5D" d="M315.462,406.183c0,0.904-0.178,1.691-0.532,2.361s-0.826,1.227-1.414,1.67
		c-0.588,0.444-1.273,0.775-2.054,0.993c-0.782,0.218-1.591,0.327-2.429,0.327c-0.854,0-1.668-0.109-2.441-0.327
		c-0.773-0.218-1.454-0.545-2.042-0.981c-0.588-0.436-1.06-0.988-1.414-1.658s-0.531-1.457-0.531-2.36
		c0-0.517,0.081-0.997,0.242-1.44c0.162-0.444,0.383-0.84,0.666-1.188c0.282-0.346,0.609-0.645,0.981-0.896
		c0.371-0.25,0.766-0.439,1.186-0.569v-0.048c-0.743-0.274-1.364-0.722-1.864-1.344c-0.5-0.622-0.75-1.408-0.75-2.36
		c0-0.791,0.161-1.494,0.484-2.107c0.323-0.613,0.758-1.126,1.307-1.537c0.549-0.412,1.187-0.723,1.913-0.933
		s1.485-0.314,2.276-0.314s1.546,0.101,2.264,0.302c0.718,0.203,1.352,0.506,1.901,0.908c0.548,0.404,0.988,0.908,1.319,1.514
		s0.497,1.304,0.497,2.095c0,0.952-0.242,1.751-0.727,2.397c-0.484,0.646-1.114,1.098-1.889,1.355v0.072
		c0.432,0.13,0.833,0.319,1.201,0.569c0.368,0.251,0.688,0.55,0.961,0.896c0.272,0.348,0.488,0.743,0.649,1.188
		C315.381,405.21,315.462,405.683,315.462,406.183z M311.418,406.037c0-0.661-0.222-1.214-0.666-1.658s-1.013-0.666-1.707-0.666
		c-0.71,0-1.287,0.218-1.731,0.653c-0.444,0.436-0.666,0.993-0.666,1.671c0,0.694,0.222,1.247,0.666,1.659
		c0.444,0.411,1.021,0.617,1.731,0.617s1.284-0.206,1.719-0.617C311.2,407.284,311.418,406.731,311.418,406.037z M311.103,398.579
		c0-0.564-0.202-1.032-0.605-1.404c-0.404-0.371-0.888-0.557-1.453-0.557c-0.613,0-1.105,0.186-1.477,0.557
		c-0.371,0.372-0.557,0.84-0.557,1.404c0,0.549,0.182,1.025,0.545,1.43c0.363,0.402,0.859,0.604,1.489,0.604
		c0.597,0,1.09-0.202,1.477-0.604C310.91,399.604,311.103,399.128,311.103,398.579z"/>
	<path fill="#5A5B5D" d="M326.164,398.216c0,0.63-0.121,1.223-0.363,1.78c-0.242,0.557-0.568,1.041-0.98,1.452
		c-0.411,0.412-0.899,0.739-1.465,0.981c-0.565,0.241-1.162,0.362-1.792,0.362s-1.227-0.121-1.792-0.362
		c-0.565-0.242-1.053-0.569-1.465-0.981c-0.412-0.411-0.738-0.896-0.98-1.452c-0.242-0.558-0.363-1.15-0.363-1.78
		c0-0.645,0.121-1.246,0.363-1.803c0.242-0.558,0.569-1.042,0.98-1.453c0.412-0.412,0.9-0.734,1.465-0.969s1.163-0.352,1.792-0.352
		s1.227,0.117,1.792,0.352c0.565,0.234,1.054,0.557,1.465,0.969c0.412,0.411,0.738,0.896,0.98,1.453
		C326.042,396.97,326.164,397.571,326.164,398.216z M323.453,398.216c0-0.516-0.186-0.959-0.558-1.331
		c-0.371-0.371-0.815-0.558-1.332-0.558s-0.96,0.187-1.332,0.558c-0.372,0.372-0.557,0.815-0.557,1.331
		c0,0.518,0.186,0.957,0.557,1.32c0.371,0.363,0.815,0.545,1.332,0.545s0.96-0.182,1.332-0.545
		C323.267,399.173,323.453,398.733,323.453,398.216z M323.427,411.897l-2.154-1.066l10-17.676l2.252,1.09L323.427,411.897z
		 M337.787,406.788c0,0.629-0.121,1.223-0.363,1.779s-0.568,1.041-0.98,1.453s-0.9,0.738-1.465,0.98
		c-0.565,0.242-1.162,0.363-1.792,0.363s-1.228-0.121-1.792-0.363s-1.053-0.568-1.465-0.98s-0.738-0.896-0.98-1.453
		s-0.363-1.15-0.363-1.779c0-0.63,0.121-1.223,0.363-1.779c0.242-0.558,0.568-1.041,0.98-1.453s0.9-0.738,1.465-0.98
		s1.162-0.363,1.792-0.363s1.227,0.121,1.792,0.363c0.564,0.242,1.053,0.568,1.465,0.98s0.738,0.896,0.98,1.453
		C337.666,405.565,337.787,406.158,337.787,406.788z M335.075,406.788c0-0.258-0.053-0.504-0.157-0.738
		c-0.105-0.234-0.242-0.436-0.412-0.605s-0.367-0.303-0.593-0.4c-0.227-0.096-0.469-0.145-0.727-0.145
		c-0.517,0-0.96,0.186-1.331,0.557c-0.372,0.371-0.558,0.815-0.558,1.332s0.186,0.956,0.558,1.319
		c0.371,0.363,0.814,0.545,1.331,0.545c0.258,0,0.5-0.048,0.727-0.146c0.226-0.097,0.423-0.23,0.593-0.399s0.307-0.366,0.412-0.593
		C335.022,407.288,335.075,407.046,335.075,406.788z"/>
</g>
<g>
	<path fill="#828487" d="M442.846,458.514v-5.278l-1.339,1.036l-0.884-1.208l2.364-1.735h1.554v7.186H442.846z"/>
	<path fill="#828487" d="M451.503,457.113v1.4h-1.594v-1.4h-3.379v-1.431l2.923-4.354h2.04v4.405h0.994v1.38H451.503z
		 M449.92,453.073h-0.03l-1.705,2.66h1.735V453.073z"/>
	<path fill="#828487" d="M455.126,457.62c0,0.285-0.1,0.521-0.299,0.711s-0.438,0.284-0.715,0.284c-0.143,0-0.276-0.025-0.401-0.076
		c-0.126-0.051-0.235-0.12-0.33-0.208s-0.169-0.191-0.224-0.31c-0.054-0.118-0.08-0.249-0.08-0.391c0-0.136,0.026-0.265,0.08-0.386
		c0.055-0.122,0.129-0.229,0.224-0.32c0.095-0.091,0.204-0.164,0.33-0.218c0.125-0.054,0.259-0.081,0.401-0.081
		c0.277,0,0.516,0.095,0.715,0.284S455.126,457.337,455.126,457.62z"/>
	<path fill="#828487" d="M461.46,454.9c0,0.508-0.051,0.991-0.152,1.452c-0.102,0.459-0.264,0.863-0.487,1.213
		c-0.224,0.348-0.513,0.625-0.868,0.832c-0.355,0.205-0.786,0.309-1.293,0.309c-0.508,0-0.941-0.104-1.3-0.309
		c-0.358-0.207-0.651-0.484-0.878-0.832c-0.227-0.35-0.391-0.754-0.492-1.213c-0.102-0.461-0.152-0.944-0.152-1.452
		c0-0.507,0.051-0.989,0.152-1.446s0.266-0.855,0.492-1.197s0.52-0.614,0.878-0.817c0.358-0.202,0.792-0.304,1.3-0.304
		c0.507,0,0.938,0.102,1.293,0.304c0.355,0.203,0.645,0.476,0.868,0.817s0.386,0.74,0.487,1.197S461.46,454.394,461.46,454.9z
		 M459.714,454.9c0-0.224-0.014-0.47-0.041-0.741c-0.026-0.27-0.077-0.522-0.152-0.756c-0.074-0.233-0.18-0.43-0.318-0.588
		c-0.14-0.16-0.32-0.239-0.543-0.239c-0.225,0-0.406,0.079-0.549,0.239c-0.143,0.158-0.252,0.354-0.33,0.588
		s-0.13,0.486-0.157,0.756c-0.026,0.271-0.04,0.518-0.04,0.741c0,0.23,0.014,0.482,0.04,0.757c0.027,0.273,0.079,0.527,0.157,0.761
		s0.188,0.43,0.33,0.589c0.143,0.158,0.324,0.238,0.549,0.238c0.223,0,0.403-0.08,0.543-0.238c0.139-0.159,0.244-0.355,0.318-0.589
		c0.075-0.233,0.126-0.487,0.152-0.761C459.701,455.383,459.714,455.131,459.714,454.9z"/>
	<path fill="#828487" d="M467.762,454.9c0,0.508-0.05,0.991-0.151,1.452c-0.102,0.459-0.265,0.863-0.488,1.213
		c-0.223,0.348-0.512,0.625-0.867,0.832c-0.355,0.205-0.787,0.309-1.294,0.309c-0.508,0-0.94-0.104-1.3-0.309
		c-0.358-0.207-0.65-0.484-0.877-0.832c-0.227-0.35-0.391-0.754-0.492-1.213c-0.102-0.461-0.152-0.944-0.152-1.452
		c0-0.507,0.051-0.989,0.152-1.446s0.266-0.855,0.492-1.197s0.519-0.614,0.877-0.817c0.359-0.202,0.792-0.304,1.3-0.304
		c0.507,0,0.938,0.102,1.294,0.304c0.355,0.203,0.645,0.476,0.867,0.817c0.224,0.342,0.387,0.74,0.488,1.197
		S467.762,454.394,467.762,454.9z M466.017,454.9c0-0.224-0.014-0.47-0.041-0.741c-0.027-0.27-0.078-0.522-0.152-0.756
		s-0.181-0.43-0.319-0.588c-0.14-0.16-0.319-0.239-0.543-0.239s-0.406,0.079-0.548,0.239c-0.143,0.158-0.252,0.354-0.33,0.588
		s-0.131,0.486-0.158,0.756c-0.026,0.271-0.04,0.518-0.04,0.741c0,0.23,0.014,0.482,0.04,0.757c0.027,0.273,0.08,0.527,0.158,0.761
		s0.188,0.43,0.33,0.589c0.142,0.158,0.324,0.238,0.548,0.238s0.403-0.08,0.543-0.238c0.139-0.159,0.245-0.355,0.319-0.589
		s0.125-0.487,0.152-0.761C466.003,455.383,466.017,455.131,466.017,454.9z"/>
	<path fill="#828487" d="M474.065,454.9c0,0.508-0.05,0.991-0.151,1.452c-0.102,0.459-0.265,0.863-0.488,1.213
		c-0.223,0.348-0.512,0.625-0.867,0.832c-0.355,0.205-0.787,0.309-1.294,0.309c-0.508,0-0.94-0.104-1.3-0.309
		c-0.358-0.207-0.65-0.484-0.877-0.832c-0.227-0.35-0.391-0.754-0.492-1.213c-0.102-0.461-0.152-0.944-0.152-1.452
		c0-0.507,0.051-0.989,0.152-1.446s0.266-0.855,0.492-1.197s0.519-0.614,0.877-0.817c0.359-0.202,0.792-0.304,1.3-0.304
		c0.507,0,0.938,0.102,1.294,0.304c0.355,0.203,0.645,0.476,0.867,0.817c0.224,0.342,0.387,0.74,0.488,1.197
		S474.065,454.394,474.065,454.9z M472.32,454.9c0-0.224-0.014-0.47-0.041-0.741c-0.027-0.27-0.078-0.522-0.152-0.756
		s-0.181-0.43-0.319-0.588c-0.14-0.16-0.319-0.239-0.543-0.239s-0.406,0.079-0.548,0.239c-0.143,0.158-0.252,0.354-0.33,0.588
		s-0.131,0.486-0.158,0.756c-0.026,0.271-0.04,0.518-0.04,0.741c0,0.23,0.014,0.482,0.04,0.757c0.027,0.273,0.08,0.527,0.158,0.761
		s0.188,0.43,0.33,0.589c0.142,0.158,0.324,0.238,0.548,0.238s0.403-0.08,0.543-0.238c0.139-0.159,0.245-0.355,0.319-0.589
		s0.125-0.487,0.152-0.761C472.306,455.383,472.32,455.131,472.32,454.9z"/>
	<path fill="#828487" d="M476.826,457.62c0,0.285-0.1,0.521-0.299,0.711c-0.2,0.189-0.438,0.284-0.716,0.284
		c-0.142,0-0.276-0.025-0.401-0.076s-0.234-0.12-0.33-0.208c-0.094-0.088-0.168-0.191-0.223-0.31s-0.081-0.249-0.081-0.391
		c0-0.136,0.026-0.265,0.081-0.386c0.055-0.122,0.129-0.229,0.223-0.32c0.096-0.091,0.205-0.164,0.33-0.218s0.26-0.081,0.401-0.081
		c0.277,0,0.516,0.095,0.716,0.284C476.726,457.1,476.826,457.337,476.826,457.62z"/>
	<path fill="#828487" d="M483.159,454.9c0,0.508-0.05,0.991-0.151,1.452c-0.102,0.459-0.265,0.863-0.488,1.213
		c-0.223,0.348-0.512,0.625-0.867,0.832c-0.355,0.205-0.787,0.309-1.294,0.309c-0.508,0-0.94-0.104-1.3-0.309
		c-0.358-0.207-0.65-0.484-0.877-0.832c-0.227-0.35-0.391-0.754-0.492-1.213c-0.102-0.461-0.152-0.944-0.152-1.452
		c0-0.507,0.051-0.989,0.152-1.446s0.266-0.855,0.492-1.197s0.519-0.614,0.877-0.817c0.359-0.202,0.792-0.304,1.3-0.304
		c0.507,0,0.938,0.102,1.294,0.304c0.355,0.203,0.645,0.476,0.867,0.817c0.224,0.342,0.387,0.74,0.488,1.197
		S483.159,454.394,483.159,454.9z M481.414,454.9c0-0.224-0.014-0.47-0.041-0.741c-0.027-0.27-0.078-0.522-0.152-0.756
		s-0.181-0.43-0.319-0.588c-0.14-0.16-0.319-0.239-0.543-0.239s-0.406,0.079-0.548,0.239c-0.143,0.158-0.252,0.354-0.33,0.588
		s-0.131,0.486-0.158,0.756c-0.026,0.271-0.04,0.518-0.04,0.741c0,0.23,0.014,0.482,0.04,0.757c0.027,0.273,0.08,0.527,0.158,0.761
		s0.188,0.43,0.33,0.589c0.142,0.158,0.324,0.238,0.548,0.238s0.403-0.08,0.543-0.238c0.139-0.159,0.245-0.355,0.319-0.589
		s0.125-0.487,0.152-0.761C481.4,455.383,481.414,455.131,481.414,454.9z"/>
	<path fill="#828487" d="M489.461,454.9c0,0.508-0.05,0.991-0.151,1.452c-0.102,0.459-0.265,0.863-0.488,1.213
		c-0.223,0.348-0.512,0.625-0.867,0.832c-0.355,0.205-0.787,0.309-1.294,0.309c-0.508,0-0.94-0.104-1.3-0.309
		c-0.358-0.207-0.65-0.484-0.877-0.832c-0.227-0.35-0.391-0.754-0.492-1.213c-0.102-0.461-0.152-0.944-0.152-1.452
		c0-0.507,0.051-0.989,0.152-1.446s0.266-0.855,0.492-1.197s0.519-0.614,0.877-0.817c0.359-0.202,0.792-0.304,1.3-0.304
		c0.507,0,0.938,0.102,1.294,0.304c0.355,0.203,0.645,0.476,0.867,0.817c0.224,0.342,0.387,0.74,0.488,1.197
		S489.461,454.394,489.461,454.9z M487.716,454.9c0-0.224-0.014-0.47-0.041-0.741c-0.027-0.27-0.078-0.522-0.152-0.756
		s-0.181-0.43-0.319-0.588c-0.14-0.16-0.319-0.239-0.543-0.239s-0.406,0.079-0.548,0.239c-0.143,0.158-0.252,0.354-0.33,0.588
		s-0.131,0.486-0.158,0.756c-0.026,0.271-0.04,0.518-0.04,0.741c0,0.23,0.014,0.482,0.04,0.757c0.027,0.273,0.08,0.527,0.158,0.761
		s0.188,0.43,0.33,0.589c0.142,0.158,0.324,0.238,0.548,0.238s0.403-0.08,0.543-0.238c0.139-0.159,0.245-0.355,0.319-0.589
		s0.125-0.487,0.152-0.761C487.703,455.383,487.716,455.131,487.716,454.9z"/>
	<path fill="#828487" d="M495.764,454.9c0,0.508-0.05,0.991-0.151,1.452c-0.102,0.459-0.265,0.863-0.488,1.213
		c-0.223,0.348-0.512,0.625-0.867,0.832c-0.355,0.205-0.787,0.309-1.294,0.309c-0.508,0-0.94-0.104-1.3-0.309
		c-0.358-0.207-0.65-0.484-0.877-0.832c-0.227-0.35-0.391-0.754-0.492-1.213c-0.102-0.461-0.152-0.944-0.152-1.452
		c0-0.507,0.051-0.989,0.152-1.446s0.266-0.855,0.492-1.197s0.519-0.614,0.877-0.817c0.359-0.202,0.792-0.304,1.3-0.304
		c0.507,0,0.938,0.102,1.294,0.304c0.355,0.203,0.645,0.476,0.867,0.817c0.224,0.342,0.387,0.74,0.488,1.197
		S495.764,454.394,495.764,454.9z M494.019,454.9c0-0.224-0.014-0.47-0.041-0.741c-0.027-0.27-0.078-0.522-0.152-0.756
		s-0.181-0.43-0.319-0.588c-0.14-0.16-0.319-0.239-0.543-0.239s-0.406,0.079-0.548,0.239c-0.143,0.158-0.252,0.354-0.33,0.588
		s-0.131,0.486-0.158,0.756c-0.026,0.271-0.04,0.518-0.04,0.741c0,0.23,0.014,0.482,0.04,0.757c0.027,0.273,0.08,0.527,0.158,0.761
		s0.188,0.43,0.33,0.589c0.142,0.158,0.324,0.238,0.548,0.238s0.403-0.08,0.543-0.238c0.139-0.159,0.245-0.355,0.319-0.589
		s0.125-0.487,0.152-0.761C494.005,455.383,494.019,455.131,494.019,454.9z"/>
	<path fill="#828487" d="M501.833,452.81v5.704h-1.735v-5.704h-2.03v-1.481h5.796v1.481H501.833z"/>
	<path fill="#828487" d="M511.587,454.89c0,0.568-0.099,1.088-0.295,1.559s-0.469,0.873-0.816,1.208
		c-0.35,0.335-0.764,0.594-1.244,0.776s-1.001,0.273-1.562,0.273s-1.081-0.091-1.559-0.273c-0.477-0.183-0.889-0.441-1.238-0.776
		c-0.348-0.335-0.62-0.737-0.816-1.208s-0.295-0.99-0.295-1.559c0-0.574,0.099-1.094,0.295-1.557
		c0.196-0.464,0.469-0.858,0.816-1.184c0.35-0.324,0.762-0.574,1.238-0.75c0.478-0.176,0.997-0.264,1.559-0.264
		s1.082,0.088,1.562,0.264s0.895,0.426,1.244,0.75c0.348,0.325,0.62,0.72,0.816,1.184
		C511.489,453.796,511.587,454.315,511.587,454.89z M509.73,454.89c0-0.311-0.051-0.602-0.152-0.872s-0.242-0.503-0.422-0.695
		c-0.179-0.192-0.396-0.345-0.648-0.456c-0.254-0.112-0.533-0.168-0.838-0.168s-0.582,0.056-0.832,0.168
		c-0.25,0.111-0.467,0.264-0.65,0.456c-0.182,0.192-0.322,0.425-0.42,0.695c-0.099,0.271-0.148,0.562-0.148,0.872
		c0,0.326,0.051,0.625,0.152,0.898c0.102,0.274,0.242,0.51,0.422,0.706s0.395,0.351,0.645,0.462s0.527,0.167,0.832,0.167
		s0.582-0.056,0.832-0.167s0.467-0.266,0.65-0.462c0.182-0.196,0.324-0.432,0.426-0.706
		C509.679,455.515,509.73,455.216,509.73,454.89z"/>
	<path fill="#828487" d="M516.865,458.514l-2.67-3.309h-0.02v3.309h-1.695v-7.186h1.695v2.923h0.03l2.567-2.923h2.172l-3.096,3.309
		l3.279,3.877H516.865z"/>
	<path fill="#828487" d="M519.443,458.514v-7.186h4.83v1.462h-3.156v1.359h2.984v1.391h-2.984v1.492h3.34v1.481H519.443z"/>
	<path fill="#828487" d="M529.917,458.514l-2.893-4.699h-0.03l0.041,4.699h-1.686v-7.186h1.979l2.882,4.688h0.031l-0.041-4.688
		h1.685v7.186H529.917z"/>
	<path fill="#828487" d="M536.91,453.195c-0.149-0.189-0.344-0.34-0.584-0.452c-0.24-0.111-0.472-0.167-0.695-0.167
		c-0.115,0-0.232,0.011-0.35,0.03c-0.119,0.021-0.226,0.06-0.32,0.117s-0.174,0.132-0.238,0.223
		c-0.064,0.092-0.097,0.209-0.097,0.351c0,0.122,0.025,0.224,0.076,0.305s0.126,0.151,0.224,0.213s0.215,0.116,0.35,0.167
		c0.136,0.051,0.288,0.104,0.457,0.158c0.244,0.081,0.498,0.17,0.762,0.269s0.504,0.229,0.721,0.391
		c0.216,0.163,0.395,0.364,0.537,0.604s0.213,0.539,0.213,0.898c0,0.412-0.076,0.77-0.229,1.07c-0.151,0.301-0.356,0.55-0.613,0.746
		c-0.258,0.195-0.552,0.342-0.883,0.436c-0.332,0.096-0.674,0.143-1.025,0.143c-0.514,0-1.012-0.09-1.492-0.27
		c-0.48-0.179-0.879-0.434-1.197-0.766l1.137-1.157c0.176,0.217,0.407,0.397,0.695,0.543c0.287,0.146,0.573,0.218,0.857,0.218
		c0.129,0,0.254-0.013,0.375-0.04c0.123-0.026,0.229-0.071,0.32-0.132s0.164-0.143,0.219-0.244c0.054-0.102,0.08-0.223,0.08-0.365
		c0-0.135-0.033-0.25-0.102-0.345c-0.067-0.095-0.164-0.181-0.289-0.259s-0.28-0.148-0.467-0.213
		c-0.186-0.064-0.397-0.134-0.634-0.209c-0.23-0.074-0.456-0.162-0.675-0.264c-0.221-0.102-0.416-0.23-0.589-0.391
		c-0.173-0.158-0.312-0.352-0.417-0.578c-0.104-0.227-0.156-0.502-0.156-0.827c0-0.399,0.081-0.741,0.243-1.024
		c0.163-0.285,0.376-0.518,0.64-0.701c0.264-0.183,0.562-0.316,0.893-0.4c0.332-0.085,0.667-0.127,1.006-0.127
		c0.405,0,0.82,0.074,1.242,0.223c0.424,0.149,0.793,0.369,1.111,0.66L536.91,453.195z"/>
</g>
<g>
	<path fill="#5A5B5D" d="M261.752,455.666c0,0.968-0.178,1.841-0.532,2.614c-0.354,0.775-0.838,1.43-1.45,1.962
		c-0.612,0.532-1.329,0.94-2.151,1.223s-1.692,0.424-2.61,0.424c-0.935,0-1.809-0.142-2.623-0.424s-1.527-0.69-2.139-1.223
		s-1.096-1.179-1.45-1.937c-0.354-0.76-0.532-1.606-0.532-2.543c0-1.018,0.178-1.941,0.533-2.772
		c0.354-0.831,0.814-1.675,1.379-2.53l4.137-6.174h4.911l-4.216,5.859l-0.073,0.121c0.161-0.064,0.354-0.113,0.58-0.146
		s0.435-0.048,0.628-0.048c0.741,0,1.454,0.133,2.139,0.398c0.685,0.267,1.281,0.646,1.789,1.139
		c0.507,0.492,0.914,1.082,1.221,1.768C261.599,454.063,261.752,454.827,261.752,455.666z M257.708,455.763
		c0-0.775-0.243-1.416-0.729-1.925c-0.487-0.509-1.135-0.763-1.946-0.763c-0.811,0-1.468,0.25-1.97,0.75
		c-0.503,0.501-0.754,1.154-0.754,1.962c0,0.743,0.243,1.38,0.729,1.913c0.486,0.532,1.143,0.799,1.97,0.799
		c0.811,0,1.463-0.25,1.958-0.751C257.461,457.248,257.708,456.586,257.708,455.763z"/>
	<path fill="#5A5B5D" d="M272.164,448.571c0,0.629-0.121,1.223-0.363,1.779s-0.569,1.041-0.98,1.453s-0.9,0.738-1.465,0.98
		c-0.565,0.242-1.163,0.363-1.792,0.363s-1.227-0.121-1.792-0.363s-1.053-0.568-1.465-0.98s-0.738-0.896-0.98-1.453
		s-0.363-1.15-0.363-1.779c0-0.646,0.121-1.247,0.363-1.804c0.242-0.558,0.569-1.042,0.98-1.453s0.9-0.734,1.465-0.968
		c0.565-0.234,1.163-0.352,1.792-0.352s1.227,0.117,1.792,0.352c0.565,0.233,1.053,0.557,1.465,0.968s0.738,0.896,0.98,1.453
		C272.043,447.324,272.164,447.926,272.164,448.571z M269.452,448.571c0-0.517-0.186-0.96-0.557-1.332
		c-0.371-0.371-0.815-0.557-1.332-0.557s-0.96,0.186-1.332,0.557c-0.372,0.372-0.557,0.815-0.557,1.332s0.186,0.957,0.557,1.32
		c0.371,0.363,0.815,0.544,1.332,0.544s0.96-0.181,1.332-0.544C269.267,449.528,269.452,449.088,269.452,448.571z M269.428,462.252
		l-2.155-1.065l10-17.676l2.252,1.09L269.428,462.252z M283.787,457.144c0,0.629-0.121,1.223-0.363,1.779s-0.569,1.041-0.98,1.453
		c-0.412,0.411-0.9,0.738-1.465,0.98c-0.565,0.242-1.163,0.363-1.792,0.363s-1.227-0.121-1.792-0.363s-1.053-0.569-1.465-0.98
		c-0.412-0.412-0.738-0.896-0.98-1.453s-0.363-1.15-0.363-1.779c0-0.631,0.121-1.224,0.363-1.78c0.242-0.558,0.569-1.041,0.98-1.453
		c0.412-0.411,0.9-0.738,1.465-0.98s1.163-0.363,1.792-0.363s1.227,0.121,1.792,0.363c0.564,0.242,1.053,0.569,1.465,0.98
		c0.412,0.412,0.738,0.896,0.98,1.453C283.666,455.92,283.787,456.513,283.787,457.144z M281.075,457.144
		c0-0.259-0.053-0.505-0.157-0.739c-0.105-0.233-0.242-0.436-0.412-0.605c-0.17-0.169-0.368-0.302-0.593-0.399
		c-0.227-0.097-0.469-0.145-0.727-0.145c-0.517,0-0.96,0.186-1.332,0.557c-0.372,0.371-0.557,0.814-0.557,1.332
		c0,0.516,0.186,0.955,0.557,1.318c0.371,0.363,0.815,0.545,1.332,0.545c0.258,0,0.5-0.048,0.727-0.145
		c0.226-0.098,0.423-0.23,0.593-0.4c0.169-0.169,0.306-0.366,0.412-0.593C281.022,457.644,281.075,457.401,281.075,457.144z"/>
</g>
<g>
	<path fill="#5A5B5D" d="M210.361,508.442v3.342h-3.802v-3.342h-8.063v-3.414l6.973-10.388h4.867v10.509h2.373v3.293H210.361z
		 M206.584,498.806h-0.073l-4.068,6.344h4.141V498.806z"/>
	<path fill="#5A5B5D" d="M222.831,498.927c0,0.629-0.121,1.223-0.363,1.779s-0.569,1.041-0.98,1.453
		c-0.412,0.411-0.9,0.738-1.465,0.98c-0.565,0.242-1.163,0.363-1.792,0.363s-1.227-0.121-1.792-0.363s-1.053-0.569-1.465-0.98
		c-0.412-0.412-0.738-0.896-0.98-1.453s-0.363-1.15-0.363-1.779c0-0.646,0.121-1.248,0.363-1.805s0.569-1.041,0.98-1.453
		c0.412-0.411,0.9-0.734,1.465-0.968s1.163-0.351,1.792-0.351s1.227,0.117,1.792,0.351c0.565,0.233,1.053,0.557,1.465,0.968
		c0.412,0.412,0.738,0.896,0.98,1.453S222.831,498.28,222.831,498.927z M220.119,498.927c0-0.518-0.186-0.961-0.557-1.332
		c-0.371-0.371-0.815-0.557-1.332-0.557s-0.96,0.186-1.332,0.557c-0.372,0.371-0.557,0.814-0.557,1.332
		c0,0.516,0.186,0.956,0.557,1.319c0.371,0.363,0.815,0.544,1.332,0.544s0.96-0.181,1.332-0.544
		C219.934,499.883,220.119,499.442,220.119,498.927z M220.095,512.606l-2.155-1.064l10-17.676l2.252,1.089L220.095,512.606z
		 M234.454,507.498c0,0.63-0.121,1.223-0.363,1.779c-0.242,0.558-0.569,1.042-0.98,1.453s-0.9,0.738-1.465,0.98
		c-0.565,0.242-1.163,0.363-1.792,0.363s-1.227-0.121-1.792-0.363s-1.053-0.569-1.465-0.98s-0.738-0.896-0.98-1.453
		c-0.242-0.557-0.363-1.149-0.363-1.779s0.121-1.224,0.363-1.78s0.569-1.041,0.98-1.453c0.412-0.411,0.9-0.738,1.465-0.98
		s1.163-0.363,1.792-0.363s1.227,0.121,1.792,0.363c0.564,0.242,1.053,0.569,1.465,0.98c0.412,0.412,0.738,0.896,0.98,1.453
		S234.454,506.868,234.454,507.498z M231.742,507.498c0-0.259-0.053-0.505-0.157-0.739c-0.105-0.233-0.242-0.436-0.412-0.605
		c-0.17-0.169-0.368-0.302-0.593-0.398c-0.227-0.098-0.469-0.146-0.727-0.146c-0.517,0-0.96,0.186-1.332,0.557
		c-0.372,0.372-0.557,0.815-0.557,1.332s0.186,0.956,0.557,1.319c0.371,0.363,0.815,0.545,1.332,0.545
		c0.258,0,0.5-0.049,0.727-0.145c0.226-0.098,0.423-0.23,0.593-0.4c0.169-0.17,0.306-0.367,0.412-0.594
		C231.689,507.999,231.742,507.757,231.742,507.498z"/>
</g>
<g>
	<path fill="#5A5B5D" d="M144.871,562.139v-3.384l6.683-6.043c0.419-0.403,0.758-0.814,1.017-1.233
		c0.258-0.419,0.387-0.886,0.387-1.401c0-0.612-0.194-1.107-0.581-1.486c-0.388-0.379-0.904-0.568-1.55-0.568
		c-0.678,0-1.231,0.238-1.659,0.714c-0.428,0.477-0.682,1.103-0.763,1.876l-3.898-0.532c0.097-0.872,0.335-1.647,0.714-2.329
		c0.379-0.681,0.86-1.261,1.441-1.74s1.247-0.846,1.998-1.098s1.545-0.377,2.385-0.377c0.791,0,1.558,0.104,2.3,0.314
		c0.743,0.209,1.405,0.532,1.986,0.969c0.581,0.436,1.045,0.984,1.392,1.646s0.521,1.437,0.521,2.324
		c0,0.613-0.081,1.166-0.242,1.658s-0.383,0.949-0.666,1.368c-0.283,0.42-0.605,0.812-0.969,1.175s-0.738,0.723-1.126,1.077
		l-3.971,3.535h6.998v3.535H144.871z"/>
	<path fill="#5A5B5D" d="M168.165,549.281c0,0.63-0.121,1.223-0.363,1.78c-0.242,0.557-0.569,1.041-0.98,1.452
		s-0.9,0.739-1.465,0.981c-0.565,0.241-1.163,0.362-1.792,0.362s-1.227-0.121-1.792-0.362c-0.565-0.242-1.053-0.57-1.465-0.981
		s-0.738-0.896-0.98-1.452c-0.242-0.558-0.363-1.15-0.363-1.78c0-0.646,0.121-1.247,0.363-1.804s0.569-1.041,0.98-1.453
		s0.9-0.734,1.465-0.969c0.565-0.233,1.163-0.351,1.792-0.351s1.227,0.117,1.792,0.351c0.565,0.234,1.053,0.557,1.465,0.969
		s0.738,0.896,0.98,1.453S168.165,548.636,168.165,549.281z M165.453,549.281c0-0.517-0.186-0.96-0.557-1.331
		c-0.371-0.371-0.815-0.558-1.332-0.558s-0.96,0.187-1.332,0.558c-0.372,0.371-0.557,0.814-0.557,1.331s0.186,0.956,0.557,1.319
		c0.371,0.363,0.815,0.545,1.332,0.545s0.96-0.182,1.332-0.545C165.267,550.237,165.453,549.798,165.453,549.281z M165.428,562.962
		l-2.155-1.065l10-17.676l2.252,1.089L165.428,562.962z M179.787,557.853c0,0.63-0.121,1.223-0.363,1.779
		c-0.242,0.558-0.569,1.042-0.98,1.453c-0.412,0.412-0.9,0.738-1.465,0.98c-0.565,0.242-1.163,0.363-1.792,0.363
		s-1.227-0.121-1.792-0.363s-1.053-0.568-1.465-0.98c-0.412-0.411-0.738-0.896-0.98-1.453c-0.242-0.557-0.363-1.149-0.363-1.779
		c0-0.629,0.121-1.223,0.363-1.779s0.569-1.041,0.98-1.453s0.9-0.738,1.465-0.98s1.163-0.363,1.792-0.363s1.227,0.121,1.792,0.363
		c0.564,0.242,1.053,0.568,1.465,0.98s0.738,0.896,0.98,1.453S179.787,557.224,179.787,557.853z M177.075,557.853
		c0-0.258-0.053-0.504-0.157-0.738c-0.105-0.234-0.242-0.436-0.412-0.605c-0.17-0.17-0.368-0.303-0.593-0.399
		c-0.227-0.097-0.469-0.146-0.727-0.146c-0.517,0-0.96,0.186-1.332,0.557c-0.372,0.372-0.557,0.816-0.557,1.332
		c0,0.518,0.186,0.957,0.557,1.32c0.371,0.363,0.815,0.545,1.332,0.545c0.258,0,0.5-0.049,0.727-0.146
		c0.226-0.097,0.423-0.23,0.593-0.399c0.169-0.17,0.306-0.367,0.412-0.594C177.022,558.354,177.075,558.111,177.075,557.853z"/>
</g>
<g>
	<path fill="#5A5B5D" d="M119.086,603.874c0,1.211-0.121,2.365-0.363,3.462c-0.242,1.099-0.63,2.062-1.163,2.894
		c-0.532,0.832-1.223,1.494-2.07,1.986c-0.848,0.492-1.877,0.738-3.087,0.738c-1.211,0-2.244-0.246-3.099-0.738
		c-0.856-0.492-1.554-1.154-2.095-1.986c-0.541-0.831-0.932-1.795-1.174-2.894c-0.242-1.097-0.363-2.251-0.363-3.462
		s0.121-2.361,0.363-3.451s0.633-2.041,1.174-2.857c0.541-0.814,1.239-1.465,2.095-1.949c0.855-0.484,1.888-0.726,3.099-0.726
		c1.21,0,2.24,0.241,3.087,0.726c0.847,0.484,1.538,1.135,2.07,1.949c0.533,0.816,0.92,1.768,1.163,2.857
		S119.086,602.663,119.086,603.874z M114.921,603.874c0-0.533-0.032-1.122-0.097-1.768c-0.065-0.646-0.186-1.248-0.363-1.805
		c-0.178-0.557-0.432-1.024-0.763-1.404c-0.331-0.379-0.763-0.568-1.295-0.568s-0.969,0.189-1.308,0.568
		c-0.339,0.38-0.602,0.848-0.787,1.404s-0.311,1.158-0.375,1.805c-0.065,0.646-0.097,1.234-0.097,1.768
		c0,0.549,0.032,1.15,0.097,1.804c0.064,0.653,0.189,1.259,0.375,1.815s0.448,1.025,0.787,1.404c0.339,0.38,0.775,0.569,1.308,0.569
		s0.964-0.189,1.295-0.569c0.331-0.379,0.585-0.848,0.763-1.404c0.177-0.557,0.298-1.162,0.363-1.815
		C114.889,605.024,114.921,604.423,114.921,603.874z"/>
	<path fill="#5A5B5D" d="M129.498,599.636c0,0.63-0.121,1.223-0.363,1.78c-0.242,0.557-0.569,1.041-0.98,1.452
		c-0.412,0.412-0.9,0.739-1.465,0.981c-0.565,0.241-1.163,0.362-1.792,0.362s-1.227-0.121-1.792-0.362
		c-0.565-0.242-1.053-0.569-1.465-0.981c-0.412-0.411-0.738-0.896-0.98-1.452c-0.242-0.558-0.363-1.15-0.363-1.78
		c0-0.645,0.121-1.246,0.363-1.803c0.242-0.558,0.569-1.042,0.98-1.453c0.412-0.412,0.9-0.734,1.465-0.969s1.163-0.352,1.792-0.352
		s1.227,0.117,1.792,0.352c0.565,0.234,1.053,0.557,1.465,0.969c0.412,0.411,0.738,0.896,0.98,1.453
		C129.377,598.39,129.498,598.991,129.498,599.636z M126.786,599.636c0-0.516-0.186-0.959-0.557-1.331
		c-0.371-0.371-0.815-0.558-1.332-0.558s-0.96,0.187-1.332,0.558c-0.372,0.372-0.557,0.815-0.557,1.331
		c0,0.518,0.186,0.957,0.557,1.32c0.371,0.363,0.815,0.545,1.332,0.545s0.96-0.182,1.332-0.545
		C126.601,600.593,126.786,600.153,126.786,599.636z M126.762,613.317l-2.155-1.066l10-17.676l2.252,1.09L126.762,613.317z
		 M141.121,608.208c0,0.629-0.121,1.223-0.363,1.779s-0.569,1.041-0.98,1.453s-0.9,0.738-1.465,0.98
		c-0.565,0.242-1.163,0.363-1.792,0.363s-1.227-0.121-1.792-0.363s-1.053-0.568-1.465-0.98s-0.738-0.896-0.98-1.453
		s-0.363-1.15-0.363-1.779c0-0.63,0.121-1.223,0.363-1.779c0.242-0.558,0.569-1.041,0.98-1.453s0.9-0.738,1.465-0.98
		s1.163-0.363,1.792-0.363s1.227,0.121,1.792,0.363c0.564,0.242,1.053,0.568,1.465,0.98s0.738,0.896,0.98,1.453
		C141,606.985,141.121,607.578,141.121,608.208z M138.409,608.208c0-0.258-0.053-0.504-0.157-0.738
		c-0.105-0.234-0.242-0.436-0.412-0.605c-0.17-0.17-0.368-0.303-0.593-0.4c-0.227-0.096-0.469-0.145-0.727-0.145
		c-0.517,0-0.96,0.186-1.332,0.557c-0.372,0.371-0.557,0.815-0.557,1.332s0.186,0.956,0.557,1.319
		c0.371,0.363,0.815,0.545,1.332,0.545c0.258,0,0.5-0.048,0.727-0.146c0.226-0.097,0.423-0.23,0.593-0.399
		c0.169-0.169,0.306-0.366,0.412-0.593C138.356,608.708,138.409,608.466,138.409,608.208z"/>
</g>
<g>
	<path fill="#5A5B5D" d="M26.87,209.653v-3.384l6.683-6.043c0.419-0.403,0.758-0.813,1.017-1.233
		c0.258-0.418,0.387-0.886,0.387-1.401c0-0.612-0.194-1.108-0.581-1.487c-0.388-0.378-0.904-0.568-1.55-0.568
		c-0.678,0-1.231,0.239-1.659,0.714c-0.428,0.477-0.682,1.102-0.763,1.876l-3.898-0.533c0.097-0.872,0.335-1.648,0.714-2.329
		c0.379-0.681,0.86-1.261,1.441-1.741s1.247-0.845,1.998-1.097s1.545-0.378,2.385-0.378c0.791,0,1.558,0.105,2.3,0.314
		c0.743,0.21,1.405,0.533,1.986,0.969c0.581,0.436,1.045,0.985,1.392,1.646c0.347,0.662,0.521,1.437,0.521,2.324
		c0,0.614-0.081,1.167-0.242,1.659c-0.161,0.493-0.383,0.949-0.666,1.368c-0.283,0.42-0.605,0.811-0.969,1.174
		s-0.738,0.723-1.126,1.078l-3.971,3.535h6.998v3.535H26.87z"/>
	<path fill="#5A5B5D" d="M54.788,201.033c0,1.211-0.121,2.365-0.363,3.462c-0.242,1.098-0.63,2.062-1.163,2.894
		c-0.532,0.832-1.223,1.494-2.07,1.986c-0.848,0.492-1.877,0.738-3.087,0.738c-1.211,0-2.244-0.246-3.099-0.738
		c-0.856-0.492-1.554-1.154-2.095-1.986c-0.541-0.831-0.932-1.795-1.174-2.894c-0.242-1.097-0.363-2.251-0.363-3.462
		c0-1.21,0.121-2.361,0.363-3.45c0.242-1.09,0.633-2.042,1.174-2.857c0.541-0.815,1.239-1.465,2.095-1.949
		c0.855-0.484,1.888-0.726,3.099-0.726c1.21,0,2.24,0.242,3.087,0.726c0.847,0.484,1.538,1.134,2.07,1.949
		c0.533,0.815,0.92,1.768,1.163,2.857C54.667,198.672,54.788,199.823,54.788,201.033z M50.623,201.033
		c0-0.533-0.032-1.122-0.097-1.768c-0.065-0.646-0.186-1.247-0.363-1.804c-0.178-0.557-0.432-1.025-0.763-1.404
		c-0.331-0.379-0.763-0.569-1.295-0.569s-0.969,0.19-1.308,0.569s-0.602,0.847-0.787,1.404c-0.186,0.557-0.311,1.158-0.375,1.804
		c-0.065,0.646-0.097,1.235-0.097,1.768c0,0.549,0.032,1.15,0.097,1.804c0.064,0.654,0.189,1.259,0.375,1.816
		c0.186,0.557,0.448,1.025,0.787,1.404c0.339,0.379,0.775,0.569,1.308,0.569s0.964-0.189,1.295-0.569
		c0.331-0.379,0.585-0.848,0.763-1.404c0.177-0.557,0.298-1.162,0.363-1.816C50.591,202.184,50.623,201.582,50.623,201.033z"/>
	<path fill="#5A5B5D" d="M65.2,196.796c0,0.629-0.121,1.223-0.363,1.78c-0.242,0.557-0.569,1.041-0.98,1.453s-0.9,0.739-1.465,0.981
		c-0.565,0.242-1.163,0.363-1.792,0.363s-1.227-0.121-1.792-0.363c-0.565-0.242-1.053-0.569-1.465-0.981s-0.738-0.896-0.98-1.453
		c-0.242-0.557-0.363-1.15-0.363-1.78c0-0.646,0.121-1.247,0.363-1.804c0.242-0.557,0.569-1.042,0.98-1.453s0.9-0.734,1.465-0.968
		s1.163-0.351,1.792-0.351s1.227,0.117,1.792,0.351c0.565,0.234,1.053,0.557,1.465,0.968s0.738,0.896,0.98,1.453
		C65.079,195.549,65.2,196.15,65.2,196.796z M62.488,196.796c0-0.517-0.186-0.96-0.557-1.332c-0.371-0.371-0.815-0.557-1.332-0.557
		s-0.96,0.186-1.332,0.557c-0.372,0.372-0.557,0.815-0.557,1.332s0.186,0.957,0.557,1.32c0.371,0.363,0.815,0.544,1.332,0.544
		s0.96-0.181,1.332-0.544C62.302,197.752,62.488,197.312,62.488,196.796z M62.463,210.477l-2.155-1.065l10-17.676l2.252,1.089
		L62.463,210.477z M76.822,205.368c0,0.629-0.121,1.223-0.363,1.779c-0.242,0.557-0.569,1.042-0.98,1.453s-0.9,0.738-1.465,0.98
		c-0.565,0.242-1.163,0.363-1.792,0.363s-1.227-0.121-1.792-0.363s-1.053-0.569-1.465-0.98s-0.738-0.896-0.98-1.453
		c-0.242-0.557-0.363-1.15-0.363-1.779c0-0.63,0.121-1.223,0.363-1.78c0.242-0.557,0.569-1.041,0.98-1.453
		c0.412-0.412,0.9-0.738,1.465-0.98s1.163-0.363,1.792-0.363s1.227,0.121,1.792,0.363c0.564,0.242,1.053,0.569,1.465,0.98
		c0.412,0.412,0.738,0.896,0.98,1.453C76.701,204.145,76.822,204.738,76.822,205.368z M74.11,205.368
		c0-0.258-0.053-0.504-0.157-0.739c-0.105-0.234-0.242-0.436-0.412-0.605c-0.17-0.169-0.368-0.302-0.593-0.399
		c-0.227-0.097-0.469-0.145-0.727-0.145c-0.517,0-0.96,0.186-1.332,0.557c-0.372,0.372-0.557,0.815-0.557,1.332
		s0.186,0.956,0.557,1.319c0.371,0.363,0.815,0.545,1.332,0.545c0.258,0,0.5-0.048,0.727-0.145c0.226-0.097,0.423-0.23,0.593-0.4
		c0.169-0.169,0.306-0.367,0.412-0.593C74.058,205.868,74.11,205.626,74.11,205.368z"/>
</g>
<g>
	<path fill="#5A5B5D" d="M39.34,255.028c0,0.935-0.19,1.745-0.569,2.43s-0.875,1.249-1.489,1.692
		c-0.614,0.444-1.304,0.774-2.07,0.992c-0.767,0.217-1.546,0.326-2.337,0.326c-0.775,0-1.529-0.089-2.264-0.266
		c-0.735-0.178-1.405-0.448-2.01-0.812c-0.605-0.363-1.134-0.831-1.586-1.404c-0.452-0.573-0.792-1.263-1.017-2.07l3.777-0.993
		c0.161,0.565,0.492,1.062,0.993,1.489c0.5,0.428,1.138,0.642,1.913,0.642c0.291,0,0.584-0.04,0.884-0.121
		c0.298-0.081,0.564-0.206,0.799-0.375c0.234-0.17,0.428-0.392,0.581-0.666s0.23-0.613,0.23-1.017c0-0.436-0.101-0.799-0.303-1.089
		c-0.202-0.291-0.468-0.521-0.799-0.69c-0.331-0.169-0.707-0.291-1.126-0.363c-0.42-0.072-0.839-0.109-1.259-0.109h-1.089v-2.954
		h1.187c0.387,0,0.758-0.028,1.114-0.085c0.355-0.057,0.674-0.162,0.957-0.317c0.282-0.154,0.508-0.361,0.678-0.621
		s0.254-0.601,0.254-1.023c0-0.617-0.218-1.088-0.654-1.413c-0.436-0.325-0.937-0.487-1.501-0.487c-0.581,0-1.085,0.174-1.513,0.521
		c-0.428,0.348-0.707,0.812-0.835,1.393l-3.777-0.872c0.209-0.727,0.524-1.36,0.944-1.901c0.42-0.541,0.916-0.993,1.489-1.356
		c0.573-0.363,1.199-0.638,1.876-0.823c0.678-0.186,1.372-0.278,2.083-0.278c0.758,0,1.497,0.097,2.215,0.291
		c0.718,0.194,1.36,0.494,1.925,0.897c0.564,0.404,1.021,0.91,1.368,1.516c0.347,0.606,0.521,1.322,0.521,2.146
		c0,0.954-0.271,1.759-0.812,2.413s-1.231,1.095-2.07,1.322v0.072c0.484,0.113,0.928,0.294,1.332,0.544
		c0.403,0.25,0.75,0.548,1.041,0.895s0.517,0.733,0.678,1.161C39.259,254.089,39.34,254.544,39.34,255.028z"/>
	<path fill="#5A5B5D" d="M54.788,251.388c0,1.211-0.121,2.365-0.363,3.462c-0.242,1.098-0.63,2.062-1.163,2.894
		c-0.532,0.832-1.223,1.494-2.07,1.986c-0.848,0.492-1.877,0.738-3.087,0.738c-1.211,0-2.244-0.246-3.099-0.738
		c-0.856-0.492-1.554-1.154-2.095-1.986c-0.541-0.831-0.932-1.795-1.174-2.894c-0.242-1.097-0.363-2.251-0.363-3.462
		c0-1.21,0.121-2.361,0.363-3.45c0.242-1.09,0.633-2.042,1.174-2.857c0.541-0.815,1.239-1.465,2.095-1.949
		c0.855-0.484,1.888-0.726,3.099-0.726c1.21,0,2.24,0.242,3.087,0.726c0.847,0.484,1.538,1.134,2.07,1.949
		c0.533,0.815,0.92,1.768,1.163,2.857C54.667,249.027,54.788,250.178,54.788,251.388z M50.623,251.388
		c0-0.533-0.032-1.122-0.097-1.768c-0.065-0.646-0.186-1.247-0.363-1.804c-0.178-0.557-0.432-1.025-0.763-1.404
		c-0.331-0.379-0.763-0.569-1.295-0.569s-0.969,0.19-1.308,0.569s-0.602,0.847-0.787,1.404c-0.186,0.557-0.311,1.158-0.375,1.804
		c-0.065,0.646-0.097,1.235-0.097,1.768c0,0.549,0.032,1.15,0.097,1.804c0.064,0.654,0.189,1.259,0.375,1.816
		c0.186,0.557,0.448,1.025,0.787,1.404c0.339,0.379,0.775,0.569,1.308,0.569s0.964-0.189,1.295-0.569
		c0.331-0.379,0.585-0.848,0.763-1.404c0.177-0.557,0.298-1.162,0.363-1.816C50.591,252.539,50.623,251.937,50.623,251.388z"/>
	<path fill="#5A5B5D" d="M65.2,247.151c0,0.629-0.121,1.223-0.363,1.78c-0.242,0.557-0.569,1.041-0.98,1.453s-0.9,0.739-1.465,0.981
		c-0.565,0.242-1.163,0.363-1.792,0.363s-1.227-0.121-1.792-0.363c-0.565-0.242-1.053-0.569-1.465-0.981s-0.738-0.896-0.98-1.453
		c-0.242-0.557-0.363-1.15-0.363-1.78c0-0.646,0.121-1.247,0.363-1.804c0.242-0.557,0.569-1.042,0.98-1.453s0.9-0.734,1.465-0.968
		s1.163-0.351,1.792-0.351s1.227,0.117,1.792,0.351c0.565,0.234,1.053,0.557,1.465,0.968s0.738,0.896,0.98,1.453
		C65.079,245.904,65.2,246.505,65.2,247.151z M62.488,247.151c0-0.517-0.186-0.96-0.557-1.332c-0.371-0.371-0.815-0.557-1.332-0.557
		s-0.96,0.186-1.332,0.557c-0.372,0.372-0.557,0.815-0.557,1.332s0.186,0.957,0.557,1.32c0.371,0.363,0.815,0.544,1.332,0.544
		s0.96-0.181,1.332-0.544C62.302,248.107,62.488,247.667,62.488,247.151z M62.463,260.832l-2.155-1.065l10-17.676l2.252,1.089
		L62.463,260.832z M76.822,255.723c0,0.629-0.121,1.223-0.363,1.779c-0.242,0.557-0.569,1.042-0.98,1.453s-0.9,0.738-1.465,0.98
		c-0.565,0.242-1.163,0.363-1.792,0.363s-1.227-0.121-1.792-0.363s-1.053-0.569-1.465-0.98s-0.738-0.896-0.98-1.453
		c-0.242-0.557-0.363-1.15-0.363-1.779c0-0.63,0.121-1.223,0.363-1.78c0.242-0.557,0.569-1.041,0.98-1.453
		c0.412-0.412,0.9-0.738,1.465-0.98s1.163-0.363,1.792-0.363s1.227,0.121,1.792,0.363c0.564,0.242,1.053,0.569,1.465,0.98
		c0.412,0.412,0.738,0.896,0.98,1.453C76.701,254.5,76.822,255.093,76.822,255.723z M74.11,255.723c0-0.258-0.053-0.504-0.157-0.739
		c-0.105-0.234-0.242-0.436-0.412-0.605c-0.17-0.169-0.368-0.302-0.593-0.399c-0.227-0.097-0.469-0.145-0.727-0.145
		c-0.517,0-0.96,0.186-1.332,0.557c-0.372,0.372-0.557,0.815-0.557,1.332s0.186,0.956,0.557,1.319
		c0.371,0.363,0.815,0.545,1.332,0.545c0.258,0,0.5-0.048,0.727-0.145c0.226-0.097,0.423-0.23,0.593-0.4
		c0.169-0.169,0.306-0.367,0.412-0.593C74.058,256.223,74.11,255.981,74.11,255.723z"/>
</g>
<g>
	<path fill="#5A5B5D" d="M37.693,307.022v3.341h-3.802v-3.341h-8.063v-3.414l6.973-10.388h4.867v10.509h2.373v3.293H37.693z
		 M33.916,297.385h-0.073l-4.068,6.344h4.141V297.385z"/>
	<path fill="#5A5B5D" d="M54.788,301.743c0,1.211-0.121,2.365-0.363,3.462c-0.242,1.098-0.63,2.062-1.163,2.894
		c-0.532,0.832-1.223,1.494-2.07,1.986c-0.848,0.492-1.877,0.738-3.087,0.738c-1.211,0-2.244-0.246-3.099-0.738
		c-0.856-0.492-1.554-1.154-2.095-1.986c-0.541-0.831-0.932-1.795-1.174-2.894c-0.242-1.097-0.363-2.251-0.363-3.462
		c0-1.21,0.121-2.361,0.363-3.45c0.242-1.09,0.633-2.042,1.174-2.857c0.541-0.815,1.239-1.465,2.095-1.949
		c0.855-0.484,1.888-0.726,3.099-0.726c1.21,0,2.24,0.242,3.087,0.726c0.847,0.484,1.538,1.134,2.07,1.949
		c0.533,0.815,0.92,1.768,1.163,2.857C54.667,299.382,54.788,300.533,54.788,301.743z M50.623,301.743
		c0-0.533-0.032-1.122-0.097-1.768c-0.065-0.646-0.186-1.247-0.363-1.804c-0.178-0.557-0.432-1.025-0.763-1.404
		c-0.331-0.379-0.763-0.569-1.295-0.569s-0.969,0.19-1.308,0.569s-0.602,0.847-0.787,1.404c-0.186,0.557-0.311,1.158-0.375,1.804
		c-0.065,0.646-0.097,1.235-0.097,1.768c0,0.549,0.032,1.15,0.097,1.804c0.064,0.654,0.189,1.259,0.375,1.816
		c0.186,0.557,0.448,1.025,0.787,1.404c0.339,0.379,0.775,0.569,1.308,0.569s0.964-0.189,1.295-0.569
		c0.331-0.379,0.585-0.848,0.763-1.404c0.177-0.557,0.298-1.162,0.363-1.816C50.591,302.894,50.623,302.292,50.623,301.743z"/>
	<path fill="#5A5B5D" d="M65.2,297.506c0,0.629-0.121,1.223-0.363,1.78c-0.242,0.557-0.569,1.041-0.98,1.453s-0.9,0.739-1.465,0.981
		c-0.565,0.242-1.163,0.363-1.792,0.363s-1.227-0.121-1.792-0.363c-0.565-0.242-1.053-0.569-1.465-0.981s-0.738-0.896-0.98-1.453
		c-0.242-0.557-0.363-1.15-0.363-1.78c0-0.646,0.121-1.247,0.363-1.804c0.242-0.557,0.569-1.042,0.98-1.453s0.9-0.734,1.465-0.968
		s1.163-0.351,1.792-0.351s1.227,0.117,1.792,0.351c0.565,0.234,1.053,0.557,1.465,0.968s0.738,0.896,0.98,1.453
		C65.079,296.259,65.2,296.86,65.2,297.506z M62.488,297.506c0-0.517-0.186-0.96-0.557-1.332c-0.371-0.371-0.815-0.557-1.332-0.557
		s-0.96,0.186-1.332,0.557c-0.372,0.372-0.557,0.815-0.557,1.332s0.186,0.957,0.557,1.32c0.371,0.363,0.815,0.544,1.332,0.544
		s0.96-0.181,1.332-0.544C62.302,298.462,62.488,298.022,62.488,297.506z M62.463,311.187l-2.155-1.065l10-17.676l2.252,1.089
		L62.463,311.187z M76.822,306.078c0,0.629-0.121,1.223-0.363,1.779c-0.242,0.557-0.569,1.042-0.98,1.453s-0.9,0.738-1.465,0.98
		c-0.565,0.242-1.163,0.363-1.792,0.363s-1.227-0.121-1.792-0.363s-1.053-0.569-1.465-0.98s-0.738-0.896-0.98-1.453
		c-0.242-0.557-0.363-1.15-0.363-1.779c0-0.63,0.121-1.223,0.363-1.78c0.242-0.557,0.569-1.041,0.98-1.453
		c0.412-0.412,0.9-0.738,1.465-0.98s1.163-0.363,1.792-0.363s1.227,0.121,1.792,0.363c0.564,0.242,1.053,0.569,1.465,0.98
		c0.412,0.412,0.738,0.896,0.98,1.453C76.701,304.854,76.822,305.448,76.822,306.078z M74.11,306.078
		c0-0.258-0.053-0.504-0.157-0.739c-0.105-0.234-0.242-0.436-0.412-0.605c-0.17-0.169-0.368-0.302-0.593-0.399
		c-0.227-0.097-0.469-0.145-0.727-0.145c-0.517,0-0.96,0.186-1.332,0.557c-0.372,0.372-0.557,0.815-0.557,1.332
		s0.186,0.956,0.557,1.319c0.371,0.363,0.815,0.545,1.332,0.545c0.258,0,0.5-0.048,0.727-0.145c0.226-0.097,0.423-0.23,0.593-0.4
		c0.169-0.169,0.306-0.367,0.412-0.593C74.058,306.578,74.11,306.336,74.11,306.078z"/>
</g>
<g>
	<path fill="#5A5B5D" d="M39.315,355.052c0,1.05-0.186,1.958-0.557,2.725c-0.371,0.767-0.868,1.4-1.489,1.9
		c-0.622,0.501-1.328,0.876-2.119,1.127c-0.792,0.25-1.606,0.375-2.446,0.375c-0.775,0-1.513-0.102-2.215-0.303
		c-0.702-0.202-1.34-0.488-1.913-0.859c-0.573-0.371-1.065-0.828-1.477-1.369c-0.412-0.54-0.714-1.149-0.908-1.828l3.705-1.138
		c0.177,0.598,0.512,1.09,1.005,1.478c0.492,0.387,1.077,0.581,1.755,0.581c0.694,0,1.295-0.21,1.804-0.63
		c0.509-0.42,0.763-1.041,0.763-1.864c0-0.501-0.105-0.921-0.314-1.259c-0.21-0.34-0.48-0.609-0.811-0.812
		c-0.331-0.202-0.707-0.343-1.126-0.424c-0.42-0.081-0.84-0.121-1.259-0.121c-0.614,0-1.312,0.069-2.095,0.206
		c-0.783,0.137-1.481,0.318-2.094,0.545l0.412-9.807h10.509v3.486h-6.901l-0.146,2.713c0.258-0.064,0.545-0.109,0.86-0.134
		c0.314-0.024,0.601-0.036,0.859-0.036c0.855,0,1.663,0.113,2.421,0.339s1.417,0.569,1.974,1.028
		c0.557,0.461,0.997,1.029,1.319,1.707C39.154,353.357,39.315,354.148,39.315,355.052z"/>
	<path fill="#5A5B5D" d="M54.788,352.099c0,1.211-0.121,2.365-0.363,3.462c-0.242,1.099-0.63,2.062-1.163,2.894
		c-0.532,0.832-1.223,1.494-2.07,1.986c-0.848,0.492-1.877,0.738-3.087,0.738c-1.211,0-2.244-0.246-3.099-0.738
		c-0.856-0.492-1.554-1.154-2.095-1.986c-0.541-0.831-0.932-1.795-1.174-2.894c-0.242-1.097-0.363-2.251-0.363-3.462
		s0.121-2.361,0.363-3.451s0.633-2.041,1.174-2.857c0.541-0.814,1.239-1.465,2.095-1.949c0.855-0.484,1.888-0.726,3.099-0.726
		c1.21,0,2.24,0.241,3.087,0.726c0.847,0.484,1.538,1.135,2.07,1.949c0.533,0.816,0.92,1.768,1.163,2.857
		S54.788,350.888,54.788,352.099z M50.623,352.099c0-0.533-0.032-1.122-0.097-1.768c-0.065-0.646-0.186-1.248-0.363-1.805
		c-0.178-0.557-0.432-1.024-0.763-1.404c-0.331-0.379-0.763-0.568-1.295-0.568s-0.969,0.189-1.308,0.568
		c-0.339,0.38-0.602,0.848-0.787,1.404s-0.311,1.158-0.375,1.805c-0.065,0.646-0.097,1.234-0.097,1.768
		c0,0.549,0.032,1.15,0.097,1.804c0.064,0.653,0.189,1.259,0.375,1.815s0.448,1.025,0.787,1.404c0.339,0.38,0.775,0.569,1.308,0.569
		s0.964-0.189,1.295-0.569c0.331-0.379,0.585-0.848,0.763-1.404c0.177-0.557,0.298-1.162,0.363-1.815
		C50.591,353.249,50.623,352.647,50.623,352.099z"/>
	<path fill="#5A5B5D" d="M65.2,347.86c0,0.63-0.121,1.223-0.363,1.78c-0.242,0.557-0.569,1.041-0.98,1.452
		c-0.412,0.412-0.9,0.739-1.465,0.981c-0.565,0.241-1.163,0.362-1.792,0.362s-1.227-0.121-1.792-0.362
		c-0.565-0.242-1.053-0.569-1.465-0.981c-0.412-0.411-0.738-0.896-0.98-1.452c-0.242-0.558-0.363-1.15-0.363-1.78
		c0-0.645,0.121-1.246,0.363-1.803c0.242-0.558,0.569-1.042,0.98-1.453c0.412-0.412,0.9-0.734,1.465-0.969s1.163-0.352,1.792-0.352
		s1.227,0.117,1.792,0.352c0.565,0.234,1.053,0.557,1.465,0.969c0.412,0.411,0.738,0.896,0.98,1.453
		C65.079,346.614,65.2,347.216,65.2,347.86z M62.488,347.86c0-0.516-0.186-0.959-0.557-1.331c-0.371-0.371-0.815-0.558-1.332-0.558
		s-0.96,0.187-1.332,0.558c-0.372,0.372-0.557,0.815-0.557,1.331c0,0.518,0.186,0.957,0.557,1.32
		c0.371,0.363,0.815,0.545,1.332,0.545s0.96-0.182,1.332-0.545C62.302,348.817,62.488,348.378,62.488,347.86z M62.463,361.542
		l-2.155-1.066l10-17.676l2.252,1.09L62.463,361.542z M76.822,356.433c0,0.629-0.121,1.223-0.363,1.779s-0.569,1.041-0.98,1.453
		s-0.9,0.738-1.465,0.98c-0.565,0.242-1.163,0.363-1.792,0.363s-1.227-0.121-1.792-0.363s-1.053-0.568-1.465-0.98
		s-0.738-0.896-0.98-1.453s-0.363-1.15-0.363-1.779c0-0.63,0.121-1.223,0.363-1.779c0.242-0.558,0.569-1.041,0.98-1.453
		s0.9-0.738,1.465-0.98s1.163-0.363,1.792-0.363s1.227,0.121,1.792,0.363c0.564,0.242,1.053,0.568,1.465,0.98
		s0.738,0.896,0.98,1.453C76.701,355.21,76.822,355.803,76.822,356.433z M74.11,356.433c0-0.258-0.053-0.504-0.157-0.738
		c-0.105-0.234-0.242-0.436-0.412-0.605c-0.17-0.17-0.368-0.303-0.593-0.4c-0.227-0.096-0.469-0.145-0.727-0.145
		c-0.517,0-0.96,0.186-1.332,0.557c-0.372,0.371-0.557,0.815-0.557,1.332s0.186,0.956,0.557,1.319
		c0.371,0.363,0.815,0.545,1.332,0.545c0.258,0,0.5-0.048,0.727-0.146c0.226-0.097,0.423-0.23,0.593-0.399
		c0.169-0.169,0.306-0.366,0.412-0.593C74.058,356.933,74.11,356.69,74.11,356.433z"/>
</g>
<g>
	<path fill="#5A5B5D" d="M39.751,405.312c0,0.968-0.178,1.84-0.532,2.614s-0.838,1.429-1.45,1.962
		c-0.612,0.532-1.329,0.939-2.151,1.223c-0.822,0.281-1.692,0.424-2.61,0.424c-0.935,0-1.809-0.143-2.623-0.424
		c-0.814-0.283-1.527-0.69-2.139-1.223c-0.612-0.533-1.096-1.179-1.45-1.938s-0.532-1.605-0.532-2.543
		c0-1.017,0.178-1.94,0.533-2.771c0.354-0.832,0.814-1.675,1.379-2.531l4.137-6.174h4.911l-4.216,5.859l-0.073,0.121
		c0.161-0.064,0.354-0.113,0.58-0.145c0.226-0.033,0.435-0.049,0.628-0.049c0.741,0,1.454,0.133,2.139,0.399
		c0.685,0.267,1.281,0.646,1.789,1.138c0.507,0.492,0.914,1.082,1.221,1.768C39.598,403.709,39.751,404.472,39.751,405.312z
		 M35.708,405.407c0-0.774-0.243-1.416-0.729-1.924c-0.487-0.51-1.135-0.764-1.946-0.764c-0.811,0-1.468,0.251-1.97,0.751
		c-0.503,0.501-0.754,1.154-0.754,1.962c0,0.742,0.243,1.379,0.729,1.912c0.486,0.533,1.143,0.799,1.97,0.799
		c0.811,0,1.463-0.25,1.958-0.75C35.46,406.894,35.708,406.231,35.708,405.407z"/>
	<path fill="#5A5B5D" d="M54.788,402.454c0,1.211-0.121,2.365-0.363,3.462c-0.242,1.099-0.63,2.062-1.163,2.894
		c-0.532,0.832-1.223,1.494-2.07,1.986c-0.848,0.492-1.877,0.738-3.087,0.738c-1.211,0-2.244-0.246-3.099-0.738
		c-0.856-0.492-1.554-1.154-2.095-1.986c-0.541-0.831-0.932-1.795-1.174-2.894c-0.242-1.097-0.363-2.251-0.363-3.462
		s0.121-2.361,0.363-3.451s0.633-2.041,1.174-2.857c0.541-0.814,1.239-1.465,2.095-1.949c0.855-0.484,1.888-0.726,3.099-0.726
		c1.21,0,2.24,0.241,3.087,0.726c0.847,0.484,1.538,1.135,2.07,1.949c0.533,0.816,0.92,1.768,1.163,2.857
		S54.788,401.243,54.788,402.454z M50.623,402.454c0-0.533-0.032-1.122-0.097-1.768c-0.065-0.646-0.186-1.248-0.363-1.805
		c-0.178-0.557-0.432-1.024-0.763-1.404c-0.331-0.379-0.763-0.568-1.295-0.568s-0.969,0.189-1.308,0.568
		c-0.339,0.38-0.602,0.848-0.787,1.404s-0.311,1.158-0.375,1.805c-0.065,0.646-0.097,1.234-0.097,1.768
		c0,0.549,0.032,1.15,0.097,1.804c0.064,0.653,0.189,1.259,0.375,1.815s0.448,1.025,0.787,1.404c0.339,0.38,0.775,0.569,1.308,0.569
		s0.964-0.189,1.295-0.569c0.331-0.379,0.585-0.848,0.763-1.404c0.177-0.557,0.298-1.162,0.363-1.815
		C50.591,403.604,50.623,403.003,50.623,402.454z"/>
	<path fill="#5A5B5D" d="M65.2,398.216c0,0.63-0.121,1.223-0.363,1.78c-0.242,0.557-0.569,1.041-0.98,1.452
		c-0.412,0.412-0.9,0.739-1.465,0.981c-0.565,0.241-1.163,0.362-1.792,0.362s-1.227-0.121-1.792-0.362
		c-0.565-0.242-1.053-0.569-1.465-0.981c-0.412-0.411-0.738-0.896-0.98-1.452c-0.242-0.558-0.363-1.15-0.363-1.78
		c0-0.645,0.121-1.246,0.363-1.803c0.242-0.558,0.569-1.042,0.98-1.453c0.412-0.412,0.9-0.734,1.465-0.969s1.163-0.352,1.792-0.352
		s1.227,0.117,1.792,0.352c0.565,0.234,1.053,0.557,1.465,0.969c0.412,0.411,0.738,0.896,0.98,1.453
		C65.079,396.97,65.2,397.571,65.2,398.216z M62.488,398.216c0-0.516-0.186-0.959-0.557-1.331c-0.371-0.371-0.815-0.558-1.332-0.558
		s-0.96,0.187-1.332,0.558c-0.372,0.372-0.557,0.815-0.557,1.331c0,0.518,0.186,0.957,0.557,1.32
		c0.371,0.363,0.815,0.545,1.332,0.545s0.96-0.182,1.332-0.545C62.302,399.173,62.488,398.733,62.488,398.216z M62.463,411.897
		l-2.155-1.066l10-17.676l2.252,1.09L62.463,411.897z M76.822,406.788c0,0.629-0.121,1.223-0.363,1.779s-0.569,1.041-0.98,1.453
		s-0.9,0.738-1.465,0.98c-0.565,0.242-1.163,0.363-1.792,0.363s-1.227-0.121-1.792-0.363s-1.053-0.568-1.465-0.98
		s-0.738-0.896-0.98-1.453s-0.363-1.15-0.363-1.779c0-0.63,0.121-1.223,0.363-1.779c0.242-0.558,0.569-1.041,0.98-1.453
		s0.9-0.738,1.465-0.98s1.163-0.363,1.792-0.363s1.227,0.121,1.792,0.363c0.564,0.242,1.053,0.568,1.465,0.98
		s0.738,0.896,0.98,1.453C76.701,405.565,76.822,406.158,76.822,406.788z M74.11,406.788c0-0.258-0.053-0.504-0.157-0.738
		c-0.105-0.234-0.242-0.436-0.412-0.605c-0.17-0.17-0.368-0.303-0.593-0.4c-0.227-0.096-0.469-0.145-0.727-0.145
		c-0.517,0-0.96,0.186-1.332,0.557c-0.372,0.371-0.557,0.815-0.557,1.332s0.186,0.956,0.557,1.319
		c0.371,0.363,0.815,0.545,1.332,0.545c0.258,0,0.5-0.048,0.727-0.146c0.226-0.097,0.423-0.23,0.593-0.399
		c0.169-0.169,0.306-0.366,0.412-0.593C74.058,407.288,74.11,407.046,74.11,406.788z"/>
</g>
<g>
	<path fill="#5A5B5D" d="M32.632,461.429h-4.722l6.95-13.656h-8.112v-3.486h12.446v3.244L32.632,461.429z"/>
	<path fill="#5A5B5D" d="M54.788,452.809c0,1.211-0.121,2.365-0.363,3.462c-0.242,1.099-0.63,2.062-1.163,2.895
		c-0.532,0.831-1.223,1.493-2.07,1.985c-0.848,0.492-1.877,0.738-3.087,0.738c-1.211,0-2.244-0.246-3.099-0.738
		c-0.856-0.492-1.554-1.154-2.095-1.985c-0.541-0.832-0.932-1.796-1.174-2.895c-0.242-1.097-0.363-2.251-0.363-3.462
		c0-1.21,0.121-2.36,0.363-3.45s0.633-2.042,1.174-2.857c0.541-0.814,1.239-1.465,2.095-1.949c0.855-0.484,1.888-0.727,3.099-0.727
		c1.21,0,2.24,0.242,3.087,0.727c0.847,0.484,1.538,1.135,2.07,1.949c0.533,0.815,0.92,1.768,1.163,2.857
		S54.788,451.599,54.788,452.809z M50.623,452.809c0-0.532-0.032-1.122-0.097-1.768c-0.065-0.646-0.186-1.247-0.363-1.804
		c-0.178-0.557-0.432-1.025-0.763-1.404c-0.331-0.379-0.763-0.569-1.295-0.569s-0.969,0.19-1.308,0.569s-0.602,0.848-0.787,1.404
		s-0.311,1.158-0.375,1.804c-0.065,0.646-0.097,1.235-0.097,1.768c0,0.549,0.032,1.15,0.097,1.804
		c0.064,0.654,0.189,1.26,0.375,1.816s0.448,1.025,0.787,1.404s0.775,0.568,1.308,0.568s0.964-0.189,1.295-0.568
		c0.331-0.379,0.585-0.848,0.763-1.404c0.177-0.557,0.298-1.162,0.363-1.816C50.591,453.959,50.623,453.357,50.623,452.809z"/>
	<path fill="#5A5B5D" d="M65.2,448.571c0,0.629-0.121,1.223-0.363,1.779s-0.569,1.041-0.98,1.453s-0.9,0.738-1.465,0.98
		c-0.565,0.242-1.163,0.363-1.792,0.363s-1.227-0.121-1.792-0.363s-1.053-0.568-1.465-0.98s-0.738-0.896-0.98-1.453
		s-0.363-1.15-0.363-1.779c0-0.646,0.121-1.247,0.363-1.804c0.242-0.558,0.569-1.042,0.98-1.453s0.9-0.734,1.465-0.968
		c0.565-0.234,1.163-0.352,1.792-0.352s1.227,0.117,1.792,0.352c0.565,0.233,1.053,0.557,1.465,0.968s0.738,0.896,0.98,1.453
		C65.079,447.324,65.2,447.926,65.2,448.571z M62.488,448.571c0-0.517-0.186-0.96-0.557-1.332c-0.371-0.371-0.815-0.557-1.332-0.557
		s-0.96,0.186-1.332,0.557c-0.372,0.372-0.557,0.815-0.557,1.332s0.186,0.957,0.557,1.32c0.371,0.363,0.815,0.544,1.332,0.544
		s0.96-0.181,1.332-0.544C62.302,449.528,62.488,449.088,62.488,448.571z M62.463,462.252l-2.155-1.065l10-17.676l2.252,1.09
		L62.463,462.252z M76.822,457.144c0,0.629-0.121,1.223-0.363,1.779s-0.569,1.041-0.98,1.453c-0.412,0.411-0.9,0.738-1.465,0.98
		c-0.565,0.242-1.163,0.363-1.792,0.363s-1.227-0.121-1.792-0.363s-1.053-0.569-1.465-0.98c-0.412-0.412-0.738-0.896-0.98-1.453
		s-0.363-1.15-0.363-1.779c0-0.631,0.121-1.224,0.363-1.78c0.242-0.558,0.569-1.041,0.98-1.453c0.412-0.411,0.9-0.738,1.465-0.98
		s1.163-0.363,1.792-0.363s1.227,0.121,1.792,0.363c0.564,0.242,1.053,0.569,1.465,0.98c0.412,0.412,0.738,0.896,0.98,1.453
		C76.701,455.92,76.822,456.513,76.822,457.144z M74.11,457.144c0-0.259-0.053-0.505-0.157-0.739
		c-0.105-0.233-0.242-0.436-0.412-0.605c-0.17-0.169-0.368-0.302-0.593-0.399c-0.227-0.097-0.469-0.145-0.727-0.145
		c-0.517,0-0.96,0.186-1.332,0.557c-0.372,0.371-0.557,0.814-0.557,1.332c0,0.516,0.186,0.955,0.557,1.318
		c0.371,0.363,0.815,0.545,1.332,0.545c0.258,0,0.5-0.048,0.727-0.145c0.226-0.098,0.423-0.23,0.593-0.4
		c0.169-0.169,0.306-0.366,0.412-0.593C74.058,457.644,74.11,457.401,74.11,457.144z"/>
</g>
<g>
	<path fill="#5A5B5D" d="M39.461,506.893c0,0.904-0.178,1.69-0.532,2.36s-0.826,1.228-1.414,1.672
		c-0.588,0.443-1.273,0.773-2.054,0.992c-0.782,0.218-1.591,0.326-2.429,0.326c-0.854,0-1.668-0.108-2.441-0.326
		c-0.773-0.219-1.454-0.545-2.042-0.98s-1.06-0.988-1.414-1.659c-0.354-0.669-0.531-1.456-0.531-2.36
		c0-0.517,0.081-0.996,0.242-1.441c0.162-0.443,0.383-0.839,0.666-1.186c0.282-0.348,0.609-0.646,0.981-0.896
		c0.371-0.25,0.766-0.439,1.186-0.568v-0.049c-0.743-0.274-1.364-0.723-1.864-1.344c-0.5-0.621-0.75-1.408-0.75-2.361
		c0-0.791,0.161-1.492,0.484-2.106c0.323-0.613,0.758-1.126,1.307-1.538c0.549-0.411,1.187-0.722,1.913-0.932
		c0.727-0.209,1.485-0.314,2.276-0.314s1.546,0.101,2.264,0.303c0.718,0.201,1.352,0.504,1.901,0.908
		c0.548,0.403,0.988,0.908,1.319,1.513c0.331,0.605,0.497,1.304,0.497,2.095c0,0.953-0.242,1.752-0.727,2.396
		c-0.484,0.646-1.114,1.099-1.889,1.356v0.073c0.432,0.129,0.833,0.318,1.201,0.568c0.368,0.25,0.688,0.549,0.961,0.896
		c0.272,0.347,0.488,0.742,0.649,1.186C39.38,505.921,39.461,506.393,39.461,506.893z M35.417,506.747
		c0-0.662-0.222-1.215-0.666-1.658s-1.013-0.666-1.707-0.666c-0.71,0-1.287,0.218-1.731,0.654c-0.444,0.436-0.666,0.992-0.666,1.67
		c0,0.694,0.222,1.247,0.666,1.658c0.444,0.412,1.021,0.618,1.731,0.618s1.284-0.206,1.719-0.618
		C35.199,507.994,35.417,507.441,35.417,506.747z M35.102,499.29c0-0.565-0.202-1.033-0.605-1.404
		c-0.404-0.371-0.888-0.558-1.453-0.558c-0.613,0-1.105,0.187-1.477,0.558c-0.371,0.371-0.557,0.839-0.557,1.404
		c0,0.549,0.182,1.025,0.545,1.428c0.363,0.404,0.859,0.605,1.489,0.605c0.597,0,1.09-0.201,1.477-0.605
		C34.909,500.315,35.102,499.839,35.102,499.29z"/>
	<path fill="#5A5B5D" d="M54.788,503.163c0,1.211-0.121,2.365-0.363,3.463s-0.63,2.062-1.163,2.894
		c-0.532,0.831-1.223,1.493-2.07,1.985c-0.848,0.492-1.877,0.738-3.087,0.738c-1.211,0-2.244-0.246-3.099-0.738
		c-0.856-0.492-1.554-1.154-2.095-1.985c-0.541-0.831-0.932-1.796-1.174-2.894s-0.363-2.252-0.363-3.463
		c0-1.21,0.121-2.36,0.363-3.449c0.242-1.09,0.633-2.043,1.174-2.857c0.541-0.815,1.239-1.465,2.095-1.949
		c0.855-0.484,1.888-0.727,3.099-0.727c1.21,0,2.24,0.242,3.087,0.727c0.847,0.484,1.538,1.134,2.07,1.949
		c0.533,0.814,0.92,1.768,1.163,2.857C54.667,500.803,54.788,501.953,54.788,503.163z M50.623,503.163
		c0-0.532-0.032-1.121-0.097-1.768c-0.065-0.645-0.186-1.246-0.363-1.803c-0.178-0.558-0.432-1.025-0.763-1.404
		c-0.331-0.38-0.763-0.57-1.295-0.57s-0.969,0.19-1.308,0.57c-0.339,0.379-0.602,0.847-0.787,1.404
		c-0.186,0.557-0.311,1.158-0.375,1.803c-0.065,0.646-0.097,1.235-0.097,1.768c0,0.549,0.032,1.15,0.097,1.805
		c0.064,0.654,0.189,1.259,0.375,1.816c0.186,0.557,0.448,1.025,0.787,1.404s0.775,0.568,1.308,0.568s0.964-0.189,1.295-0.568
		c0.331-0.379,0.585-0.848,0.763-1.404c0.177-0.558,0.298-1.162,0.363-1.816C50.591,504.313,50.623,503.712,50.623,503.163z"/>
	<path fill="#5A5B5D" d="M65.2,498.927c0,0.629-0.121,1.223-0.363,1.779s-0.569,1.041-0.98,1.453c-0.412,0.411-0.9,0.738-1.465,0.98
		c-0.565,0.242-1.163,0.363-1.792,0.363s-1.227-0.121-1.792-0.363s-1.053-0.569-1.465-0.98c-0.412-0.412-0.738-0.896-0.98-1.453
		s-0.363-1.15-0.363-1.779c0-0.646,0.121-1.248,0.363-1.805s0.569-1.041,0.98-1.453c0.412-0.411,0.9-0.734,1.465-0.968
		s1.163-0.351,1.792-0.351s1.227,0.117,1.792,0.351c0.565,0.233,1.053,0.557,1.465,0.968c0.412,0.412,0.738,0.896,0.98,1.453
		S65.2,498.28,65.2,498.927z M62.488,498.927c0-0.518-0.186-0.961-0.557-1.332c-0.371-0.371-0.815-0.557-1.332-0.557
		s-0.96,0.186-1.332,0.557c-0.372,0.371-0.557,0.814-0.557,1.332c0,0.516,0.186,0.956,0.557,1.319
		c0.371,0.363,0.815,0.544,1.332,0.544s0.96-0.181,1.332-0.544C62.302,499.883,62.488,499.442,62.488,498.927z M62.463,512.606
		l-2.155-1.064l10-17.676l2.252,1.089L62.463,512.606z M76.822,507.498c0,0.63-0.121,1.223-0.363,1.779
		c-0.242,0.558-0.569,1.042-0.98,1.453s-0.9,0.738-1.465,0.98c-0.565,0.242-1.163,0.363-1.792,0.363s-1.227-0.121-1.792-0.363
		s-1.053-0.569-1.465-0.98s-0.738-0.896-0.98-1.453c-0.242-0.557-0.363-1.149-0.363-1.779s0.121-1.224,0.363-1.78
		s0.569-1.041,0.98-1.453c0.412-0.411,0.9-0.738,1.465-0.98s1.163-0.363,1.792-0.363s1.227,0.121,1.792,0.363
		c0.564,0.242,1.053,0.569,1.465,0.98c0.412,0.412,0.738,0.896,0.98,1.453S76.822,506.868,76.822,507.498z M74.11,507.498
		c0-0.259-0.053-0.505-0.157-0.739c-0.105-0.233-0.242-0.436-0.412-0.605c-0.17-0.169-0.368-0.302-0.593-0.398
		c-0.227-0.098-0.469-0.146-0.727-0.146c-0.517,0-0.96,0.186-1.332,0.557c-0.372,0.372-0.557,0.815-0.557,1.332
		s0.186,0.956,0.557,1.319c0.371,0.363,0.815,0.545,1.332,0.545c0.258,0,0.5-0.049,0.727-0.145c0.226-0.098,0.423-0.23,0.593-0.4
		c0.169-0.17,0.306-0.367,0.412-0.594C74.058,507.999,74.11,507.757,74.11,507.498z"/>
</g>
<g>
	<path fill="#5A5B5D" d="M39.775,550.661c0,1.018-0.177,1.941-0.532,2.773c-0.355,0.831-0.814,1.674-1.379,2.529l-4.137,6.175
		h-4.911l4.265-5.908l0.048-0.073c-0.177,0.065-0.375,0.113-0.592,0.146c-0.218,0.032-0.423,0.048-0.616,0.048
		c-0.757,0-1.475-0.134-2.151-0.399c-0.677-0.267-1.273-0.646-1.789-1.139c-0.516-0.492-0.927-1.08-1.232-1.768
		c-0.307-0.686-0.459-1.448-0.459-2.287c0-0.969,0.177-1.841,0.532-2.615c0.354-0.775,0.838-1.429,1.45-1.961
		c0.612-0.533,1.329-0.941,2.151-1.224s1.692-0.423,2.611-0.423c0.934,0,1.812,0.141,2.634,0.423s1.535,0.69,2.139,1.224
		c0.604,0.532,1.083,1.178,1.438,1.937S39.775,549.726,39.775,550.661z M35.732,550.612c0-0.742-0.24-1.383-0.718-1.924
		s-1.131-0.812-1.958-0.812s-1.487,0.255-1.982,0.763c-0.495,0.508-0.742,1.174-0.742,1.998c0,0.774,0.243,1.416,0.729,1.924
		c0.487,0.51,1.135,0.764,1.946,0.764c0.811,0,1.467-0.25,1.97-0.751C35.48,552.074,35.732,551.421,35.732,550.612z"/>
	<path fill="#5A5B5D" d="M54.788,553.519c0,1.211-0.121,2.365-0.363,3.463s-0.63,2.062-1.163,2.893
		c-0.532,0.832-1.223,1.494-2.07,1.986c-0.848,0.492-1.877,0.738-3.087,0.738c-1.211,0-2.244-0.246-3.099-0.738
		c-0.856-0.492-1.554-1.154-2.095-1.986c-0.541-0.83-0.932-1.795-1.174-2.893s-0.363-2.252-0.363-3.463s0.121-2.361,0.363-3.45
		c0.242-1.09,0.633-2.042,1.174-2.857c0.541-0.815,1.239-1.465,2.095-1.949c0.855-0.484,1.888-0.726,3.099-0.726
		c1.21,0,2.24,0.241,3.087,0.726c0.847,0.484,1.538,1.134,2.07,1.949c0.533,0.815,0.92,1.768,1.163,2.857
		C54.667,551.157,54.788,552.308,54.788,553.519z M50.623,553.519c0-0.533-0.032-1.121-0.097-1.768
		c-0.065-0.646-0.186-1.247-0.363-1.804c-0.178-0.558-0.432-1.024-0.763-1.404c-0.331-0.38-0.763-0.569-1.295-0.569
		s-0.969,0.189-1.308,0.569s-0.602,0.847-0.787,1.404c-0.186,0.557-0.311,1.158-0.375,1.804c-0.065,0.646-0.097,1.234-0.097,1.768
		c0,0.549,0.032,1.15,0.097,1.805c0.064,0.653,0.189,1.258,0.375,1.815c0.186,0.557,0.448,1.025,0.787,1.404
		c0.339,0.38,0.775,0.569,1.308,0.569s0.964-0.189,1.295-0.569c0.331-0.379,0.585-0.848,0.763-1.404
		c0.177-0.558,0.298-1.162,0.363-1.815C50.591,554.669,50.623,554.067,50.623,553.519z"/>
	<path fill="#5A5B5D" d="M65.2,549.281c0,0.63-0.121,1.223-0.363,1.78c-0.242,0.557-0.569,1.041-0.98,1.452s-0.9,0.739-1.465,0.981
		c-0.565,0.241-1.163,0.362-1.792,0.362s-1.227-0.121-1.792-0.362c-0.565-0.242-1.053-0.57-1.465-0.981s-0.738-0.896-0.98-1.452
		c-0.242-0.558-0.363-1.15-0.363-1.78c0-0.646,0.121-1.247,0.363-1.804s0.569-1.041,0.98-1.453s0.9-0.734,1.465-0.969
		c0.565-0.233,1.163-0.351,1.792-0.351s1.227,0.117,1.792,0.351c0.565,0.234,1.053,0.557,1.465,0.969s0.738,0.896,0.98,1.453
		S65.2,548.636,65.2,549.281z M62.488,549.281c0-0.517-0.186-0.96-0.557-1.331c-0.371-0.371-0.815-0.558-1.332-0.558
		s-0.96,0.187-1.332,0.558c-0.372,0.371-0.557,0.814-0.557,1.331s0.186,0.956,0.557,1.319c0.371,0.363,0.815,0.545,1.332,0.545
		s0.96-0.182,1.332-0.545C62.302,550.237,62.488,549.798,62.488,549.281z M62.463,562.962l-2.155-1.065l10-17.676l2.252,1.089
		L62.463,562.962z M76.822,557.853c0,0.63-0.121,1.223-0.363,1.779c-0.242,0.558-0.569,1.042-0.98,1.453
		c-0.412,0.412-0.9,0.738-1.465,0.98c-0.565,0.242-1.163,0.363-1.792,0.363s-1.227-0.121-1.792-0.363s-1.053-0.568-1.465-0.98
		c-0.412-0.411-0.738-0.896-0.98-1.453c-0.242-0.557-0.363-1.149-0.363-1.779c0-0.629,0.121-1.223,0.363-1.779
		s0.569-1.041,0.98-1.453s0.9-0.738,1.465-0.98s1.163-0.363,1.792-0.363s1.227,0.121,1.792,0.363
		c0.564,0.242,1.053,0.568,1.465,0.98s0.738,0.896,0.98,1.453S76.822,557.224,76.822,557.853z M74.11,557.853
		c0-0.258-0.053-0.504-0.157-0.738c-0.105-0.234-0.242-0.436-0.412-0.605c-0.17-0.17-0.368-0.303-0.593-0.399
		c-0.227-0.097-0.469-0.146-0.727-0.146c-0.517,0-0.96,0.186-1.332,0.557c-0.372,0.372-0.557,0.816-0.557,1.332
		c0,0.518,0.186,0.957,0.557,1.32c0.371,0.363,0.815,0.545,1.332,0.545c0.258,0,0.5-0.049,0.727-0.146
		c0.226-0.097,0.423-0.23,0.593-0.399c0.169-0.17,0.306-0.367,0.412-0.594C74.058,558.354,74.11,558.111,74.11,557.853z"/>
</g>
<g>
	<path fill="#5A5B5D" d="M17.075,612.493v-12.59l-3.196,2.469l-2.106-2.881l5.64-4.141h3.707v17.143H17.075z"/>
	<path fill="#5A5B5D" d="M39.787,603.874c0,1.211-0.121,2.365-0.363,3.462c-0.242,1.099-0.63,2.062-1.163,2.894
		c-0.532,0.832-1.223,1.494-2.07,1.986c-0.848,0.492-1.877,0.738-3.087,0.738c-1.211,0-2.244-0.246-3.099-0.738
		c-0.856-0.492-1.554-1.154-2.095-1.986c-0.541-0.831-0.932-1.795-1.174-2.894c-0.242-1.097-0.363-2.251-0.363-3.462
		s0.121-2.361,0.363-3.451s0.633-2.041,1.174-2.857c0.541-0.814,1.239-1.465,2.095-1.949c0.855-0.484,1.888-0.726,3.099-0.726
		c1.21,0,2.24,0.241,3.087,0.726c0.847,0.484,1.538,1.135,2.07,1.949c0.533,0.816,0.92,1.768,1.163,2.857
		S39.787,602.663,39.787,603.874z M35.622,603.874c0-0.533-0.032-1.122-0.097-1.768c-0.065-0.646-0.186-1.248-0.363-1.805
		c-0.178-0.557-0.432-1.024-0.763-1.404c-0.331-0.379-0.763-0.568-1.295-0.568s-0.969,0.189-1.308,0.568
		c-0.339,0.38-0.602,0.848-0.787,1.404s-0.311,1.158-0.375,1.805c-0.065,0.646-0.097,1.234-0.097,1.768
		c0,0.549,0.032,1.15,0.097,1.804c0.064,0.653,0.189,1.259,0.375,1.815s0.448,1.025,0.787,1.404c0.339,0.38,0.775,0.569,1.308,0.569
		s0.964-0.189,1.295-0.569c0.331-0.379,0.585-0.848,0.763-1.404c0.177-0.557,0.298-1.162,0.363-1.815
		C35.59,605.024,35.622,604.423,35.622,603.874z"/>
	<path fill="#5A5B5D" d="M54.824,603.874c0,1.211-0.121,2.365-0.363,3.462c-0.242,1.099-0.63,2.062-1.163,2.894
		c-0.532,0.832-1.223,1.494-2.07,1.986c-0.848,0.492-1.877,0.738-3.087,0.738c-1.211,0-2.244-0.246-3.099-0.738
		c-0.856-0.492-1.554-1.154-2.095-1.986c-0.541-0.831-0.932-1.795-1.174-2.894c-0.242-1.097-0.363-2.251-0.363-3.462
		s0.121-2.361,0.363-3.451s0.633-2.041,1.174-2.857c0.541-0.814,1.239-1.465,2.095-1.949c0.855-0.484,1.888-0.726,3.099-0.726
		c1.21,0,2.24,0.241,3.087,0.726c0.847,0.484,1.538,1.135,2.07,1.949c0.533,0.816,0.92,1.768,1.163,2.857
		S54.824,602.663,54.824,603.874z M50.659,603.874c0-0.533-0.032-1.122-0.097-1.768c-0.065-0.646-0.186-1.248-0.363-1.805
		c-0.178-0.557-0.432-1.024-0.763-1.404c-0.331-0.379-0.763-0.568-1.295-0.568s-0.969,0.189-1.308,0.568
		c-0.339,0.38-0.602,0.848-0.787,1.404s-0.311,1.158-0.375,1.805c-0.065,0.646-0.097,1.234-0.097,1.768
		c0,0.549,0.032,1.15,0.097,1.804c0.064,0.653,0.189,1.259,0.375,1.815s0.448,1.025,0.787,1.404c0.339,0.38,0.775,0.569,1.308,0.569
		s0.964-0.189,1.295-0.569c0.331-0.379,0.585-0.848,0.763-1.404c0.177-0.557,0.298-1.162,0.363-1.815
		C50.626,605.024,50.659,604.423,50.659,603.874z"/>
	<path fill="#5A5B5D" d="M65.235,599.636c0,0.63-0.121,1.223-0.363,1.78c-0.242,0.557-0.569,1.041-0.98,1.452
		c-0.412,0.412-0.9,0.739-1.465,0.981c-0.565,0.241-1.163,0.362-1.792,0.362s-1.227-0.121-1.792-0.362
		c-0.565-0.242-1.053-0.569-1.465-0.981c-0.412-0.411-0.738-0.896-0.98-1.452c-0.242-0.558-0.363-1.15-0.363-1.78
		c0-0.645,0.121-1.246,0.363-1.803c0.242-0.558,0.569-1.042,0.98-1.453c0.412-0.412,0.9-0.734,1.465-0.969s1.163-0.352,1.792-0.352
		s1.227,0.117,1.792,0.352c0.565,0.234,1.053,0.557,1.465,0.969c0.412,0.411,0.738,0.896,0.98,1.453
		C65.114,598.39,65.235,598.991,65.235,599.636z M62.523,599.636c0-0.516-0.186-0.959-0.557-1.331
		c-0.371-0.371-0.815-0.558-1.332-0.558s-0.96,0.187-1.332,0.558c-0.372,0.372-0.557,0.815-0.557,1.331
		c0,0.518,0.186,0.957,0.557,1.32c0.371,0.363,0.815,0.545,1.332,0.545s0.96-0.182,1.332-0.545
		C62.337,600.593,62.523,600.153,62.523,599.636z M62.499,613.317l-2.155-1.066l10-17.676l2.252,1.09L62.499,613.317z
		 M76.857,608.208c0,0.629-0.121,1.223-0.363,1.779s-0.569,1.041-0.98,1.453s-0.9,0.738-1.465,0.98
		c-0.565,0.242-1.163,0.363-1.792,0.363s-1.227-0.121-1.792-0.363s-1.053-0.568-1.465-0.98s-0.738-0.896-0.98-1.453
		s-0.363-1.15-0.363-1.779c0-0.63,0.121-1.223,0.363-1.779c0.242-0.558,0.569-1.041,0.98-1.453s0.9-0.738,1.465-0.98
		s1.163-0.363,1.792-0.363s1.227,0.121,1.792,0.363c0.564,0.242,1.053,0.568,1.465,0.98s0.738,0.896,0.98,1.453
		C76.736,606.985,76.857,607.578,76.857,608.208z M74.146,608.208c0-0.258-0.053-0.504-0.157-0.738
		c-0.105-0.234-0.242-0.436-0.412-0.605c-0.17-0.17-0.368-0.303-0.593-0.4c-0.227-0.096-0.469-0.145-0.727-0.145
		c-0.517,0-0.96,0.186-1.332,0.557c-0.372,0.371-0.557,0.815-0.557,1.332s0.186,0.956,0.557,1.319
		c0.371,0.363,0.815,0.545,1.332,0.545c0.258,0,0.5-0.048,0.727-0.146c0.226-0.097,0.423-0.23,0.593-0.399
		c0.169-0.169,0.306-0.366,0.412-0.593C74.093,608.708,74.146,608.466,74.146,608.208z"/>
</g>
<g>
	<path fill="#5A5B5D" d="M552.572,52.775c0,0.936-0.186,1.723-0.557,2.361c-0.372,0.638-0.864,1.15-1.478,1.537
		c-0.613,0.388-1.312,0.666-2.095,0.835s-1.586,0.254-2.409,0.254h-6.828V40.62h6.828c0.662,0,1.34,0.069,2.034,0.206
		c0.694,0.137,1.323,0.372,1.889,0.702c0.565,0.331,1.025,0.779,1.38,1.344c0.355,0.565,0.533,1.283,0.533,2.155
		c0,0.953-0.259,1.74-0.775,2.361c-0.517,0.622-1.194,1.069-2.033,1.344v0.048c0.484,0.081,0.939,0.23,1.368,0.448
		c0.427,0.218,0.799,0.496,1.113,0.835c0.314,0.339,0.565,0.734,0.751,1.186C552.479,51.702,552.572,52.21,552.572,52.775z
		 M547.875,45.584c0-0.582-0.223-1.005-0.666-1.271c-0.444-0.266-1.102-0.399-1.974-0.399h-2.034v3.535h2.228
		c0.775,0,1.377-0.157,1.805-0.472C547.66,46.661,547.875,46.197,547.875,45.584z M548.431,52.388c0-0.71-0.267-1.202-0.799-1.477
		c-0.533-0.274-1.243-0.412-2.131-0.412h-2.301v3.923h2.325c0.322,0,0.657-0.028,1.005-0.085c0.347-0.056,0.661-0.157,0.944-0.303
		c0.282-0.145,0.512-0.351,0.689-0.617C548.342,53.15,548.431,52.808,548.431,52.388z"/>
	<path fill="#5A5B5D" d="M572.572,49.119c0,1.356-0.234,2.595-0.702,3.717s-1.118,2.082-1.949,2.881
		c-0.831,0.799-1.82,1.417-2.966,1.852c-1.146,0.436-2.39,0.654-3.729,0.654s-2.578-0.218-3.716-0.654
		c-1.139-0.436-2.123-1.053-2.954-1.852c-0.832-0.799-1.481-1.759-1.949-2.881c-0.469-1.122-0.702-2.361-0.702-3.717
		c0-1.372,0.233-2.611,0.702-3.717c0.468-1.105,1.117-2.046,1.949-2.821c0.831-0.774,1.815-1.372,2.954-1.792
		c1.138-0.419,2.376-0.629,3.716-0.629s2.583,0.21,3.729,0.629c1.146,0.42,2.135,1.017,2.966,1.792
		c0.831,0.775,1.481,1.716,1.949,2.821S572.572,47.747,572.572,49.119z M568.141,49.119c0-0.743-0.121-1.437-0.363-2.083
		c-0.242-0.646-0.577-1.199-1.005-1.659s-0.944-0.823-1.55-1.089c-0.605-0.267-1.271-0.4-1.998-0.4c-0.726,0-1.388,0.133-1.985,0.4
		c-0.597,0.266-1.113,0.629-1.55,1.089c-0.436,0.46-0.771,1.013-1.005,1.659c-0.233,0.646-0.351,1.34-0.351,2.083
		c0,0.774,0.121,1.489,0.363,2.143s0.577,1.215,1.005,1.683s0.94,0.835,1.537,1.102c0.598,0.267,1.26,0.399,1.985,0.399
		c0.727,0,1.389-0.133,1.986-0.399c0.597-0.266,1.113-0.633,1.55-1.102c0.436-0.468,0.774-1.029,1.017-1.683
		S568.141,49.894,568.141,49.119z"/>
	<path fill="#5A5B5D" d="M585.599,57.763l-6.901-11.211h-0.072l0.097,11.211h-4.02V40.62h4.722l6.877,11.187h0.072l-0.097-11.187
		h4.02v17.143H585.599z"/>
	<path fill="#5A5B5D" d="M607.233,54.119c-0.347,0.847-0.843,1.574-1.488,2.179c-0.646,0.605-1.425,1.078-2.337,1.417
		s-1.925,0.508-3.039,0.508c-1.13,0-2.146-0.169-3.051-0.508s-1.671-0.811-2.3-1.417c-0.63-0.605-1.114-1.332-1.453-2.179
		c-0.339-0.848-0.509-1.788-0.509-2.821V40.62h4.116v10.339c0,0.469,0.061,0.913,0.182,1.332c0.121,0.42,0.307,0.795,0.558,1.126
		c0.25,0.331,0.581,0.593,0.992,0.787c0.412,0.194,0.908,0.291,1.489,0.291s1.077-0.097,1.489-0.291
		c0.411-0.193,0.746-0.456,1.005-0.787c0.258-0.331,0.443-0.706,0.557-1.126c0.113-0.419,0.17-0.863,0.17-1.332V40.62h4.141v10.678
		C607.754,52.332,607.581,53.271,607.233,54.119z"/>
	<path fill="#5A5B5D" d="M619.545,45.075c-0.354-0.452-0.819-0.811-1.392-1.078c-0.573-0.266-1.126-0.399-1.659-0.399
		c-0.274,0-0.553,0.024-0.835,0.073s-0.537,0.142-0.763,0.278c-0.227,0.138-0.416,0.315-0.569,0.533
		c-0.153,0.218-0.229,0.497-0.229,0.835c0,0.291,0.061,0.533,0.182,0.727c0.121,0.193,0.298,0.363,0.532,0.508
		c0.234,0.146,0.513,0.278,0.836,0.399c0.322,0.121,0.686,0.247,1.089,0.375c0.581,0.194,1.187,0.408,1.816,0.642
		c0.63,0.234,1.202,0.545,1.719,0.932c0.517,0.388,0.944,0.868,1.283,1.441c0.34,0.573,0.509,1.288,0.509,2.143
		c0,0.984-0.182,1.836-0.545,2.554c-0.363,0.719-0.852,1.312-1.465,1.78c-0.613,0.468-1.315,0.815-2.106,1.041
		c-0.791,0.226-1.606,0.339-2.445,0.339c-1.228,0-2.414-0.214-3.56-0.642c-1.146-0.427-2.099-1.037-2.857-1.828l2.712-2.76
		c0.42,0.517,0.973,0.949,1.659,1.295c0.686,0.348,1.368,0.521,2.046,0.521c0.307,0,0.605-0.032,0.896-0.097
		c0.291-0.064,0.545-0.169,0.763-0.315c0.218-0.145,0.392-0.339,0.521-0.581s0.194-0.533,0.194-0.872
		c0-0.323-0.081-0.597-0.242-0.823c-0.162-0.226-0.392-0.432-0.69-0.617s-0.67-0.355-1.114-0.509
		c-0.443-0.153-0.948-0.318-1.513-0.496c-0.549-0.178-1.086-0.388-1.61-0.63s-0.993-0.553-1.404-0.932
		c-0.412-0.379-0.743-0.839-0.993-1.38c-0.25-0.541-0.375-1.198-0.375-1.973c0-0.952,0.193-1.768,0.581-2.446
		c0.388-0.678,0.896-1.235,1.525-1.67c0.63-0.436,1.34-0.754,2.131-0.957c0.791-0.202,1.59-0.303,2.397-0.303
		c0.969,0,1.957,0.178,2.966,0.533c1.009,0.355,1.893,0.88,2.651,1.574L619.545,45.075z"/>
	<path fill="#5A5B5D" d="M557.56,77.763h-4.141L546.93,60.62h4.648l3.972,12.155h0.097l3.946-12.155h4.577L557.56,77.763z"/>
	<path fill="#5A5B5D" d="M575.865,77.763l-1.331-3.366h-6.635l-1.26,3.366h-4.503l7.191-17.143h4.02l7.118,17.143H575.865z
		 M571.264,65.196l-2.179,5.884h4.31L571.264,65.196z"/>
	<path fill="#5A5B5D" d="M581.289,77.763V60.62h4.165v13.535h6.635v3.608H581.289z"/>
	<path fill="#5A5B5D" d="M606.846,74.119c-0.348,0.847-0.844,1.574-1.489,2.179s-1.425,1.078-2.337,1.417s-1.925,0.508-3.038,0.508
		c-1.131,0-2.147-0.169-3.051-0.508c-0.904-0.339-1.671-0.811-2.301-1.417s-1.113-1.332-1.453-2.179
		c-0.339-0.848-0.508-1.788-0.508-2.821V60.62h4.116v10.339c0,0.469,0.061,0.913,0.182,1.332c0.121,0.42,0.307,0.795,0.557,1.126
		c0.25,0.331,0.581,0.593,0.993,0.787c0.411,0.194,0.907,0.291,1.488,0.291c0.582,0,1.078-0.097,1.489-0.291
		c0.412-0.193,0.747-0.456,1.005-0.787c0.259-0.331,0.444-0.706,0.558-1.126c0.112-0.419,0.169-0.863,0.169-1.332V60.62h4.141
		v10.678C607.367,72.332,607.193,73.271,606.846,74.119z"/>
	<path fill="#5A5B5D" d="M610.102,77.763V60.62h11.526v3.487h-7.531v3.245h7.119v3.317h-7.119v3.56h7.967v3.535H610.102z"/>
</g>
<polygon fill="#5A5B5D" points="72.785,95.724 66.966,89.904 52.021,104.849 37.075,89.904 31.256,95.724 52.021,116.488 "/>
<polygon fill="#5A5B5D" points="609.398,95.724 603.578,89.904 588.632,104.849 573.687,89.904 567.869,95.724 588.632,116.488 "/>
<line fill="none" stroke="#C7C8CA" stroke-miterlimit="10" x1="432.38" y1="431.677" x2="432.38" y2="477.36"/>
<rect x="430.666" y="431.677" fill="#C7C8CA" width="3.43" height="3.431"/>
<rect x="430.666" y="473.93" fill="#C7C8CA" width="3.43" height="3.431"/>
</svg>
